M48
; DRILL file {KiCad (6.0.1)} date Thu 20 Jan 2022 11:55:37 CET
; FORMAT={-:-/ absolute / inch / decimal}
; #@! TF.CreationDate,2022-01-20T11:55:37+01:00
; #@! TF.GenerationSoftware,Kicad,Pcbnew,(6.0.1)
; #@! TF.FileFunction,Plated,1,4,PTH
FMAT,2
INCH
; #@! TA.AperFunction,Plated,PTH,ViaDrill
T1C0.0157
; #@! TA.AperFunction,Plated,PTH,ComponentDrill
T2C0.0197
; #@! TA.AperFunction,Plated,PTH,ComponentDrill
T3C0.0236
; #@! TA.AperFunction,Plated,PTH,ComponentDrill
T4C0.0394
; #@! TA.AperFunction,Plated,PTH,ComponentDrill
T5C0.0650
; #@! TA.AperFunction,Plated,PTH,ComponentDrill
T6C0.1181
; #@! TA.AperFunction,Plated,PTH,ComponentDrill
T7C0.1575
%
G90
G05
T1
X4.3386Y-2.4803
X4.3386Y-2.5984
X4.3386Y-2.7165
X4.3386Y-2.8346
X4.3386Y-2.9528
X4.3386Y-3.0709
X4.3386Y-3.189
X4.3386Y-3.3071
X4.3386Y-3.4252
X4.3386Y-3.5433
X4.3386Y-3.6614
X4.3386Y-3.7795
X4.3386Y-3.8976
X4.3386Y-4.0157
X4.3386Y-4.1339
X4.4173Y-2.4803
X4.4173Y-2.5984
X4.4173Y-2.7165
X4.4173Y-2.8346
X4.4173Y-2.9528
X4.4173Y-3.0709
X4.4173Y-3.189
X4.4173Y-3.3071
X4.4173Y-3.4252
X4.4173Y-3.5433
X4.4173Y-3.6614
X4.4173Y-3.7795
X4.4173Y-3.8976
X4.4173Y-4.0157
X4.4173Y-4.1339
X4.4961Y-2.4803
X4.4961Y-2.5984
X4.4961Y-2.7165
X4.4961Y-2.8346
X4.4961Y-2.9528
X4.4961Y-3.0709
X4.4961Y-3.189
X4.4961Y-3.3071
X4.4961Y-3.4252
X4.4961Y-3.5433
X4.4961Y-3.6614
X4.4961Y-3.7795
X4.4961Y-3.8976
X4.4961Y-4.0157
X4.4961Y-4.1339
X4.5748Y-2.4803
X4.5748Y-2.5984
X4.5748Y-2.7165
X4.5748Y-2.8346
X4.5748Y-2.9528
X4.5748Y-3.0709
X4.5748Y-3.189
X4.5748Y-3.3071
X4.5748Y-3.4252
X4.5748Y-3.5433
X4.5748Y-3.6614
X4.5748Y-3.7795
X4.5748Y-3.8976
X4.5748Y-4.0157
X4.5748Y-4.1339
X4.6535Y-3.189
X4.6535Y-3.3071
X4.6535Y-3.4252
X4.7323Y-3.3071
X4.7874Y-2.8976
X4.7874Y-2.937
X4.8031Y-3.6693
X4.8031Y-3.7087
X4.8268Y-2.8976
X4.8268Y-2.937
X4.8425Y-3.6693
X4.8425Y-3.7087
X4.8661Y-2.8976
X4.8661Y-2.937
X4.8819Y-3.6693
X4.8819Y-3.7087
X4.9055Y-2.8976
X4.9055Y-2.937
X4.9213Y-3.6693
X4.9213Y-3.7087
X5.1732Y-3.6693
X5.1732Y-3.7087
X5.1811Y-2.8976
X5.1811Y-2.937
X5.2126Y-3.6693
X5.2126Y-3.7087
X5.2205Y-2.8976
X5.2205Y-2.937
X5.252Y-3.6693
X5.252Y-3.7087
X5.2598Y-2.8976
X5.2598Y-2.937
X5.2913Y-3.6693
X5.2913Y-3.7087
X5.2992Y-2.8976
X5.2992Y-2.937
X5.378Y-2.0787
X5.378Y-2.1575
X5.378Y-2.2362
X5.4724Y-2.0787
X5.4724Y-2.1575
X5.4724Y-2.2362
X5.4803Y-2.5669
X5.4803Y-2.6457
X5.4803Y-2.7244
X5.4803Y-2.8031
X5.4803Y-2.8819
X5.4961Y-3.7874
X5.4961Y-3.8661
X5.4961Y-3.9449
X5.4961Y-4.0236
X5.4961Y-4.1024
X5.5591Y-2.5669
X5.5591Y-2.6457
X5.5591Y-2.7244
X5.5591Y-2.8031
X5.5591Y-2.8819
X5.5669Y-2.0787
X5.5669Y-2.1575
X5.5669Y-2.2362
X5.5748Y-3.7874
X5.5748Y-3.8661
X5.5748Y-3.9449
X5.5748Y-4.0236
X5.5748Y-4.1024
X5.6378Y-2.5669
X5.6378Y-2.6457
X5.6378Y-2.7244
X5.6378Y-2.8031
X5.6378Y-2.8819
X5.6535Y-3.7874
X5.6535Y-3.8661
X5.6535Y-3.9449
X5.6535Y-4.0236
X5.6535Y-4.1024
X5.6614Y-2.0787
X5.6614Y-2.1575
X5.6614Y-2.2362
X5.7559Y-2.0787
X5.7559Y-2.1575
X5.7559Y-2.2362
X5.8504Y-2.0787
X5.8504Y-2.1575
X5.8504Y-2.2362
X5.9134Y-2.5669
X5.9134Y-2.6457
X5.9134Y-2.7244
X5.9134Y-2.8031
X5.9134Y-2.8819
X5.9291Y-3.7874
X5.9291Y-3.8661
X5.9291Y-3.9449
X5.9291Y-4.0236
X5.9291Y-4.1024
X5.9449Y-2.0787
X5.9449Y-2.1575
X5.9449Y-2.2362
X5.9921Y-2.5669
X5.9921Y-2.6457
X5.9921Y-2.7244
X5.9921Y-2.8031
X5.9921Y-2.8819
X6.0079Y-3.7874
X6.0079Y-3.8661
X6.0079Y-3.9449
X6.0079Y-4.0236
X6.0079Y-4.1024
X6.0394Y-2.0787
X6.0394Y-2.1575
X6.0394Y-2.2362
X6.0709Y-2.5669
X6.0709Y-2.6457
X6.0709Y-2.7244
X6.0709Y-2.8031
X6.0709Y-2.8819
X6.0866Y-3.7874
X6.0866Y-3.8661
X6.0866Y-3.9449
X6.0866Y-4.0236
X6.0866Y-4.1024
X6.1339Y-2.0787
X6.1339Y-2.1575
X6.1339Y-2.2362
X6.1339Y-3.0157
X6.1339Y-3.0551
X6.1339Y-3.0945
X6.1339Y-4.1024
X6.1339Y-4.1811
X6.1339Y-4.2598
X6.1339Y-4.3386
X6.1339Y-4.4173
X6.1339Y-4.4961
X6.1339Y-4.5748
X6.1496Y-3.8661
X6.1496Y-3.937
X6.1496Y-4.0079
X6.1772Y-2.7638
X6.1772Y-2.8031
X6.1772Y-2.8425
X6.1772Y-2.8819
X6.1772Y-3.5827
X6.1772Y-3.622
X6.1772Y-3.6614
X6.1772Y-3.7008
X6.1811Y-2.4567
X6.1811Y-2.5197
X6.1811Y-2.5827
X6.1811Y-2.6457
X6.1811Y-2.7087
X6.189Y-3.0157
X6.189Y-3.0551
X6.189Y-3.0945
X6.2047Y-2.1339
X6.2047Y-2.2756
X6.2126Y-4.1024
X6.2126Y-4.1811
X6.2126Y-4.2598
X6.2126Y-4.3386
X6.2126Y-4.4173
X6.2126Y-4.4961
X6.2126Y-4.5748
X6.2244Y-2.7638
X6.2244Y-2.8031
X6.2244Y-2.8425
X6.2244Y-2.8819
X6.2244Y-3.5827
X6.2244Y-3.622
X6.2244Y-3.6614
X6.2244Y-3.7008
X6.2283Y-3.8661
X6.2283Y-3.937
X6.2283Y-4.0079
X6.2441Y-1.8346
X6.2441Y-1.8819
X6.2441Y-1.9291
X6.2441Y-1.9764
X6.2441Y-2.0236
X6.2441Y-3.0157
X6.2441Y-3.0551
X6.2441Y-3.0945
X6.252Y-2.1339
X6.252Y-2.2756
X6.252Y-2.3228
X6.2717Y-2.7638
X6.2717Y-2.8031
X6.2717Y-2.8425
X6.2717Y-2.8819
X6.2717Y-3.5827
X6.2717Y-3.622
X6.2717Y-3.6614
X6.2717Y-3.7008
X6.2756Y-2.4567
X6.2756Y-2.5197
X6.2756Y-2.5827
X6.2756Y-2.6457
X6.2756Y-2.7087
X6.2913Y-4.1024
X6.2913Y-4.1811
X6.2913Y-4.2598
X6.2913Y-4.3386
X6.2913Y-4.4173
X6.2913Y-4.4961
X6.2913Y-4.5748
X6.2992Y-1.8189
X6.2992Y-2.0236
X6.2992Y-3.0157
X6.2992Y-3.0551
X6.2992Y-3.0945
X6.3071Y-2.1339
X6.3071Y-2.3386
X6.3071Y-3.8661
X6.3071Y-3.937
X6.3189Y-2.7638
X6.3189Y-2.8031
X6.3189Y-2.8425
X6.3189Y-2.8819
X6.3189Y-3.5827
X6.3189Y-3.622
X6.3189Y-3.6614
X6.3189Y-3.7008
X6.3543Y-1.8189
X6.3543Y-2.0236
X6.3622Y-2.1339
X6.3622Y-2.3386
X6.3661Y-2.7638
X6.3661Y-2.8031
X6.3661Y-2.8425
X6.3661Y-2.8819
X6.3661Y-3.5827
X6.3661Y-3.622
X6.3661Y-3.6614
X6.3661Y-3.7008
X6.3701Y-2.4567
X6.3701Y-2.5197
X6.3701Y-2.5827
X6.3701Y-2.6457
X6.3701Y-2.7087
X6.3701Y-2.9646
X6.3701Y-4.1024
X6.3701Y-4.1811
X6.3701Y-4.3386
X6.3701Y-4.4173
X6.3701Y-4.4961
X6.3701Y-4.5748
X6.3819Y-3.7913
X6.3858Y-3.8661
X6.3858Y-3.937
X6.4016Y-3.0551
X6.4016Y-3.1102
X6.4016Y-3.1654
X6.4094Y-1.8346
X6.4094Y-1.8819
X6.4094Y-1.9291
X6.4094Y-1.9764
X6.4094Y-2.0236
X6.4173Y-2.1339
X6.4173Y-2.2756
X6.4173Y-2.3228
X6.4488Y-4.1024
X6.4488Y-4.1811
X6.4488Y-4.3386
X6.4488Y-4.4173
X6.4488Y-4.4961
X6.4488Y-4.5748
X6.4567Y-2.1339
X6.4567Y-2.2756
X6.4646Y-2.4567
X6.4646Y-2.5197
X6.4646Y-2.5827
X6.4646Y-2.6457
X6.4646Y-2.7087
X6.4646Y-3.4094
X6.4646Y-3.4724
X6.4646Y-3.5354
X6.4646Y-3.5827
X6.4646Y-3.622
X6.4646Y-3.6614
X6.4646Y-3.7008
X6.4646Y-3.8661
X6.4646Y-3.937
X6.4724Y-2.7638
X6.4724Y-2.8031
X6.4724Y-2.8425
X6.4724Y-2.8819
X6.4724Y-3.0551
X6.4724Y-3.1102
X6.4724Y-3.1654
X6.5118Y-3.5827
X6.5118Y-3.622
X6.5118Y-3.6614
X6.5118Y-3.7008
X6.5197Y-2.7638
X6.5197Y-2.8031
X6.5197Y-2.8425
X6.5197Y-2.8819
X6.5276Y-3.4094
X6.5276Y-3.4724
X6.5276Y-3.5354
X6.5276Y-4.1811
X6.5276Y-4.2598
X6.5276Y-4.3386
X6.5276Y-4.4173
X6.5276Y-4.4961
X6.5276Y-4.5748
X6.5433Y-3.0551
X6.5433Y-3.1102
X6.5433Y-3.1654
X6.5433Y-3.8661
X6.5433Y-3.937
X6.5591Y-2.4567
X6.5591Y-2.5197
X6.5591Y-2.5827
X6.5591Y-2.6457
X6.5591Y-2.7087
X6.5591Y-3.5827
X6.5591Y-3.622
X6.5591Y-3.6614
X6.5591Y-3.7008
X6.5669Y-2.7638
X6.5669Y-2.8031
X6.5669Y-2.8425
X6.5669Y-2.8819
X6.5906Y-3.4094
X6.5906Y-3.4724
X6.5906Y-3.5354
X6.6063Y-3.5827
X6.6063Y-3.622
X6.6063Y-3.6614
X6.6063Y-3.7008
X6.6063Y-4.1024
X6.6063Y-4.1811
X6.6063Y-4.2598
X6.6063Y-4.3386
X6.6063Y-4.4173
X6.6063Y-4.4961
X6.6063Y-4.5748
X6.6142Y-2.7638
X6.6142Y-2.8031
X6.6142Y-2.8425
X6.6142Y-2.8819
X6.6142Y-3.0551
X6.6142Y-3.1102
X6.6142Y-3.1654
X6.622Y-3.8661
X6.622Y-3.937
X6.622Y-4.0079
X6.6299Y-2.1339
X6.6299Y-2.2756
X6.6535Y-2.4567
X6.6535Y-2.5197
X6.6535Y-2.5827
X6.6535Y-2.6457
X6.6535Y-2.7087
X6.6535Y-3.4094
X6.6535Y-3.4724
X6.6535Y-3.5354
X6.6535Y-3.5827
X6.6535Y-3.622
X6.6535Y-3.6614
X6.6535Y-3.7008
X6.6614Y-2.7638
X6.6614Y-2.8031
X6.6614Y-2.8425
X6.6614Y-2.8819
X6.6772Y-1.8346
X6.6772Y-1.8819
X6.6772Y-1.9291
X6.6772Y-1.9764
X6.6772Y-2.0236
X6.6772Y-2.1339
X6.6772Y-2.2756
X6.6772Y-2.3228
X6.6831Y-3.0315
X6.685Y-4.1024
X6.685Y-4.1811
X6.685Y-4.2598
X6.685Y-4.3386
X6.685Y-4.4173
X6.685Y-4.4961
X6.685Y-4.5748
X6.7008Y-3.937
X6.7008Y-4.0079
X6.7151Y-3.7579
X6.7323Y-1.8189
X6.7323Y-2.0236
X6.7323Y-2.1339
X6.7323Y-2.3386
X6.7697Y-3.1102
X6.7697Y-3.1457
X6.7697Y-3.1811
X6.7874Y-1.8189
X6.7874Y-2.0236
X6.7874Y-2.1339
X6.7874Y-2.3386
X6.815Y-3.1102
X6.815Y-3.1457
X6.815Y-3.1811
X6.8268Y-3.3858
X6.8268Y-3.4646
X6.8268Y-3.5433
X6.8268Y-3.622
X6.8268Y-3.7008
X6.8425Y-1.8346
X6.8425Y-1.8819
X6.8425Y-1.9291
X6.8425Y-1.9764
X6.8425Y-2.0236
X6.8425Y-2.1339
X6.8425Y-2.2756
X6.8425Y-2.3228
X6.8661Y-3.1102
X6.872Y-3.9311
X6.8898Y-2.1339
X6.8898Y-2.2756
X6.8976Y-3.2992
X6.8976Y-3.3996
X6.9134Y-3.5118
X6.9213Y-3.622
X6.9213Y-3.7008
X6.9528Y-3.2992
X6.9528Y-3.3996
X6.9843Y-2.6929
X6.9921Y-3.189
X6.9921Y-3.5197
X7.0079Y-3.2992
X7.0079Y-3.3996
X7.0315Y-3.5197
X7.063Y-3.2992
X7.063Y-3.3996
X7.0866Y-3.5197
X7.1024Y-2.8425
X7.1181Y-3.126
X7.1181Y-3.1575
X7.1181Y-3.3071
X7.1181Y-3.3543
X7.1181Y-3.3996
X7.126Y-3.5197
X7.1969Y-4.2283
X7.2244Y-2.9409
X7.2283Y-3.9291
X7.2441Y-4.2283
X7.2835Y-4.315
T2
X4.8169Y-1.9291
X4.8429Y-1.8665
X4.8429Y-1.9918
X4.9055Y-1.8406
X4.9055Y-2.0177
X4.9681Y-1.8665
X4.9681Y-1.9918
X4.9941Y-1.9291
X5.0846Y-1.9291
X5.1106Y-1.8665
X5.1106Y-1.9918
X5.1732Y-1.8406
X5.1732Y-2.0177
X5.2359Y-1.8665
X5.2359Y-1.9918
X5.2618Y-1.9291
X5.4311Y-1.9291
X5.457Y-1.8665
X5.457Y-1.9918
X5.5197Y-1.8406
X5.5197Y-2.0177
X5.5823Y-1.8665
X5.5823Y-1.9918
X5.6083Y-1.9291
X5.7067Y-1.9291
X5.7326Y-1.8665
X5.7326Y-1.9918
X5.7953Y-1.8406
X5.7953Y-2.0177
X5.8579Y-1.8665
X5.8579Y-1.9918
X5.8839Y-1.9291
T3
X4.3701Y-1.9291
X4.3701Y-4.8228
X4.4047Y-1.8456
X4.4047Y-2.0127
X4.4047Y-4.7393
X4.4047Y-4.9064
X4.4882Y-1.811
X4.4882Y-2.0472
X4.4882Y-4.7047
X4.4882Y-4.9409
X4.5717Y-1.8456
X4.5717Y-2.0127
X4.5717Y-4.7393
X4.5717Y-4.9064
X4.6063Y-1.9291
X4.6063Y-4.8228
X7.126Y-1.9291
X7.126Y-4.8228
X7.1606Y-1.8456
X7.1606Y-2.0127
X7.1606Y-4.7393
X7.1606Y-4.9064
X7.2441Y-1.811
X7.2441Y-2.0472
X7.2441Y-4.7047
X7.2441Y-4.9409
X7.3276Y-1.8456
X7.3276Y-2.0127
X7.3276Y-4.7393
X7.3276Y-4.9064
X7.3622Y-1.9291
X7.3622Y-4.8228
T4
X4.9823Y-4.7228
X4.9823Y-4.8228
X5.1998Y-4.7228
X5.1998Y-4.8228
X5.4154Y-4.7228
X5.4154Y-4.8228
X5.6516Y-4.7228
X5.6516Y-4.8228
X5.877Y-4.7244
X5.877Y-4.8244
X6.0945Y-4.7244
X6.0945Y-4.8244
X6.31Y-4.7244
X6.31Y-4.8244
X6.5463Y-4.7244
X6.5463Y-4.8244
X7.2244Y-3.0955
X7.2244Y-3.1955
X7.2244Y-3.2955
X7.2244Y-3.3955
X7.2244Y-3.4955
X7.2244Y-3.5955
X7.2244Y-3.6955
T5
X4.8226Y-3.4268
X4.8226Y-3.5827
X4.8305Y-2.6551
X4.8305Y-2.811
X4.8661Y-3.0409
X4.8661Y-3.1969
X4.8703Y-3.7953
X4.8703Y-3.9512
X5.2126Y-3.4252
X5.2126Y-3.5811
X5.2163Y-2.6551
X5.2163Y-2.811
X5.2561Y-3.0394
X5.2561Y-3.1953
X5.2561Y-3.7953
X5.2561Y-3.9512
T6
X4.9055Y-1.9291
X5.1732Y-1.9291
X5.5197Y-1.9291
X5.7953Y-1.9291
T7
X4.4882Y-1.9291
X4.4882Y-4.8228
X7.2441Y-1.9291
X7.2441Y-4.8228
T0
M30
