%TF.GenerationSoftware,KiCad,Pcbnew,(6.0.1)*%
%TF.CreationDate,2022-01-20T11:55:35+01:00*%
%TF.ProjectId,BTS-MainBoard-Power,4254532d-4d61-4696-9e42-6f6172642d50,rev?*%
%TF.SameCoordinates,Original*%
%TF.FileFunction,Soldermask,Top*%
%TF.FilePolarity,Negative*%
%FSLAX46Y46*%
G04 Gerber Fmt 4.6, Leading zero omitted, Abs format (unit mm)*
G04 Created by KiCad (PCBNEW (6.0.1)) date 2022-01-20 11:55:35*
%MOMM*%
%LPD*%
G01*
G04 APERTURE LIST*
G04 Aperture macros list*
%AMRoundRect*
0 Rectangle with rounded corners*
0 $1 Rounding radius*
0 $2 $3 $4 $5 $6 $7 $8 $9 X,Y pos of 4 corners*
0 Add a 4 corners polygon primitive as box body*
4,1,4,$2,$3,$4,$5,$6,$7,$8,$9,$2,$3,0*
0 Add four circle primitives for the rounded corners*
1,1,$1+$1,$2,$3*
1,1,$1+$1,$4,$5*
1,1,$1+$1,$6,$7*
1,1,$1+$1,$8,$9*
0 Add four rect primitives between the rounded corners*
20,1,$1+$1,$2,$3,$4,$5,0*
20,1,$1+$1,$4,$5,$6,$7,0*
20,1,$1+$1,$6,$7,$8,$9,0*
20,1,$1+$1,$8,$9,$2,$3,0*%
%AMFreePoly0*
4,1,17,-0.697500,2.280000,2.502500,2.280000,2.502500,1.530000,2.027500,1.530000,2.027500,-1.530000,2.502500,-1.530000,2.502500,-2.280000,-0.697500,-2.280000,-0.697500,-2.775000,-1.602500,-2.775000,-1.602500,-2.280000,-2.027500,-2.280000,-2.027500,2.280000,-1.602500,2.280000,-1.602500,2.775000,-0.697500,2.775000,-0.697500,2.280000,-0.697500,2.280000,$1*%
G04 Aperture macros list end*
%ADD10C,1.000000*%
%ADD11R,4.500000X5.000000*%
%ADD12RoundRect,0.270834X1.029166X-1.029166X1.029166X1.029166X-1.029166X1.029166X-1.029166X-1.029166X0*%
%ADD13C,2.600000*%
%ADD14RoundRect,0.250000X0.625000X-0.400000X0.625000X0.400000X-0.625000X0.400000X-0.625000X-0.400000X0*%
%ADD15RoundRect,0.250000X0.650000X-0.412500X0.650000X0.412500X-0.650000X0.412500X-0.650000X-0.412500X0*%
%ADD16RoundRect,0.150000X-0.150000X0.825000X-0.150000X-0.825000X0.150000X-0.825000X0.150000X0.825000X0*%
%ADD17C,8.000000*%
%ADD18C,0.900000*%
%ADD19R,1.700000X1.700000*%
%ADD20O,1.700000X1.700000*%
%ADD21RoundRect,0.243750X-0.243750X-0.456250X0.243750X-0.456250X0.243750X0.456250X-0.243750X0.456250X0*%
%ADD22C,0.800000*%
%ADD23C,6.000000*%
%ADD24RoundRect,0.270834X-1.029166X1.029166X-1.029166X-1.029166X1.029166X-1.029166X1.029166X1.029166X0*%
%ADD25RoundRect,0.250000X0.400000X0.625000X-0.400000X0.625000X-0.400000X-0.625000X0.400000X-0.625000X0*%
%ADD26RoundRect,0.250000X-0.412500X-0.650000X0.412500X-0.650000X0.412500X0.650000X-0.412500X0.650000X0*%
%ADD27RoundRect,0.250000X-0.625000X0.400000X-0.625000X-0.400000X0.625000X-0.400000X0.625000X0.400000X0*%
%ADD28RoundRect,0.345000X-0.805000X1.155000X-0.805000X-1.155000X0.805000X-1.155000X0.805000X1.155000X0*%
%ADD29RoundRect,0.187500X0.187500X-0.312500X0.187500X0.312500X-0.187500X0.312500X-0.187500X-0.312500X0*%
%ADD30FreePoly0,90.000000*%
%ADD31RoundRect,0.250000X-0.650000X0.412500X-0.650000X-0.412500X0.650000X-0.412500X0.650000X0.412500X0*%
%ADD32RoundRect,0.250000X1.000000X-1.750000X1.000000X1.750000X-1.000000X1.750000X-1.000000X-1.750000X0*%
%ADD33RoundRect,0.250000X-0.400000X-0.625000X0.400000X-0.625000X0.400000X0.625000X-0.400000X0.625000X0*%
%ADD34RoundRect,0.150000X0.587500X0.150000X-0.587500X0.150000X-0.587500X-0.150000X0.587500X-0.150000X0*%
%ADD35RoundRect,0.250000X-1.100000X0.412500X-1.100000X-0.412500X1.100000X-0.412500X1.100000X0.412500X0*%
%ADD36RoundRect,0.249999X-1.425001X0.450001X-1.425001X-0.450001X1.425001X-0.450001X1.425001X0.450001X0*%
%ADD37RoundRect,0.150000X0.150000X-0.825000X0.150000X0.825000X-0.150000X0.825000X-0.150000X-0.825000X0*%
%ADD38R,1.200000X0.900000*%
G04 APERTURE END LIST*
D10*
%TO.C,TP1*%
X186400000Y-81200000D03*
%TD*%
D11*
%TO.C,L1*%
X152300000Y-77000000D03*
X141300000Y-77000000D03*
%TD*%
D12*
%TO.C,J10*%
X132400000Y-90960000D03*
D13*
X132400000Y-87000000D03*
%TD*%
D14*
%TO.C,R11*%
X174600000Y-95950000D03*
X174600000Y-92850000D03*
%TD*%
D15*
%TO.C,C11*%
X178100000Y-90612500D03*
X178100000Y-87487500D03*
%TD*%
D16*
%TO.C,U2*%
X180355000Y-93125000D03*
X179085000Y-93125000D03*
X177815000Y-93125000D03*
X176545000Y-93125000D03*
X176545000Y-98075000D03*
X177815000Y-98075000D03*
X179085000Y-98075000D03*
X180355000Y-98075000D03*
%TD*%
D17*
%TO.C,H4*%
X184000000Y-122500000D03*
D18*
X187000000Y-122500000D03*
X184000000Y-125500000D03*
X181878680Y-120378680D03*
X186121320Y-120378680D03*
X181000000Y-122500000D03*
X181878680Y-124621320D03*
X184000000Y-119500000D03*
X186121320Y-124621320D03*
%TD*%
D19*
%TO.C,J12*%
X132075000Y-119960000D03*
D20*
X132075000Y-122500000D03*
%TD*%
D21*
%TO.C,D4*%
X176462500Y-61800000D03*
X178337500Y-61800000D03*
%TD*%
D22*
%TO.C,H6*%
X145609010Y-47409010D03*
D23*
X147200000Y-49000000D03*
D22*
X144950000Y-49000000D03*
X147200000Y-51250000D03*
X148790990Y-50590990D03*
X148790990Y-47409010D03*
X147200000Y-46750000D03*
X149450000Y-49000000D03*
X145609010Y-50590990D03*
%TD*%
%TO.C,H5*%
X137950000Y-49000000D03*
X142450000Y-49000000D03*
X140200000Y-46750000D03*
D23*
X140200000Y-49000000D03*
D22*
X138609010Y-50590990D03*
X141790990Y-47409010D03*
X141790990Y-50590990D03*
X138609010Y-47409010D03*
X140200000Y-51250000D03*
%TD*%
D10*
%TO.C,TP17*%
X179300000Y-109400000D03*
%TD*%
D24*
%TO.C,J9*%
X133505000Y-77200000D03*
D13*
X133505000Y-81160000D03*
%TD*%
D12*
%TO.C,J4*%
X122495000Y-91000000D03*
D13*
X122495000Y-87040000D03*
%TD*%
D19*
%TO.C,J18*%
X154800000Y-120000000D03*
D20*
X154800000Y-122540000D03*
%TD*%
D18*
%TO.C,H2*%
X181000000Y-49000000D03*
X186121320Y-46878680D03*
D17*
X184000000Y-49000000D03*
D18*
X187000000Y-49000000D03*
X181878680Y-51121320D03*
X181878680Y-46878680D03*
X186121320Y-51121320D03*
X184000000Y-46000000D03*
X184000000Y-52000000D03*
%TD*%
D25*
%TO.C,R5*%
X185050000Y-74700000D03*
X181950000Y-74700000D03*
%TD*%
D10*
%TO.C,TP15*%
X178400000Y-56800000D03*
%TD*%
D19*
%TO.C,J14*%
X143550000Y-119960000D03*
D20*
X143550000Y-122500000D03*
%TD*%
D10*
%TO.C,TP3*%
X184200000Y-72500000D03*
%TD*%
D11*
%TO.C,L2*%
X152300000Y-61400000D03*
X141300000Y-61400000D03*
%TD*%
D10*
%TO.C,TP2*%
X186400000Y-83600000D03*
%TD*%
%TO.C,TP8*%
X186400000Y-86200000D03*
%TD*%
%TO.C,TP10*%
X176600000Y-106400000D03*
%TD*%
D26*
%TO.C,C7*%
X177275000Y-72200000D03*
X180400000Y-72200000D03*
%TD*%
D19*
%TO.C,J16*%
X137550000Y-119960000D03*
D20*
X137550000Y-122500000D03*
%TD*%
D11*
%TO.C,L3*%
X152500000Y-92600000D03*
X141500000Y-92600000D03*
%TD*%
D10*
%TO.C,TP13*%
X187400000Y-98000000D03*
%TD*%
D12*
%TO.C,J6*%
X122695000Y-71400000D03*
D13*
X122695000Y-67440000D03*
%TD*%
D19*
%TO.C,J17*%
X149275000Y-120000000D03*
D20*
X149275000Y-122540000D03*
%TD*%
D27*
%TO.C,R12*%
X175700000Y-87450000D03*
X175700000Y-90550000D03*
%TD*%
D19*
%TO.C,J13*%
X160275000Y-120000000D03*
D20*
X160275000Y-122540000D03*
%TD*%
D17*
%TO.C,H3*%
X114000000Y-122500000D03*
D18*
X116121320Y-124621320D03*
X116121320Y-120378680D03*
X111878680Y-120378680D03*
X111000000Y-122500000D03*
X114000000Y-125500000D03*
X117000000Y-122500000D03*
X114000000Y-119500000D03*
X111878680Y-124621320D03*
%TD*%
D27*
%TO.C,R1*%
X174337500Y-76950000D03*
X174337500Y-80050000D03*
%TD*%
D28*
%TO.C,D2*%
X183700000Y-97600000D03*
X183700000Y-102350000D03*
%TD*%
D29*
%TO.C,Q2*%
X157295000Y-75547250D03*
X158565000Y-75547250D03*
X159835000Y-75547250D03*
X161105000Y-75547250D03*
D30*
X159200000Y-72055000D03*
%TD*%
D27*
%TO.C,R3*%
X183400000Y-105450000D03*
X183400000Y-108550000D03*
%TD*%
%TO.C,R2*%
X185000000Y-110550000D03*
X185000000Y-113650000D03*
%TD*%
D28*
%TO.C,D1*%
X172900000Y-69000000D03*
X172900000Y-73750000D03*
%TD*%
D11*
%TO.C,L4*%
X152500000Y-108200000D03*
X141500000Y-108200000D03*
%TD*%
D31*
%TO.C,C8*%
X174700833Y-81937500D03*
X174700833Y-85062500D03*
%TD*%
D10*
%TO.C,TP9*%
X186400000Y-89000000D03*
%TD*%
D24*
%TO.C,J8*%
X133505000Y-96400000D03*
D13*
X133505000Y-100360000D03*
%TD*%
D27*
%TO.C,R9*%
X179337500Y-81950000D03*
X179337500Y-85050000D03*
%TD*%
D32*
%TO.C,C4*%
X160800000Y-56800000D03*
X160800000Y-48800000D03*
%TD*%
D10*
%TO.C,TP6*%
X179000000Y-66400000D03*
%TD*%
%TO.C,TP19*%
X157200000Y-100800000D03*
%TD*%
D29*
%TO.C,Q5*%
X164695000Y-96347250D03*
X165965000Y-96347250D03*
X167235000Y-96347250D03*
X168505000Y-96347250D03*
D30*
X166600000Y-92855000D03*
%TD*%
D33*
%TO.C,R13*%
X175250000Y-59400000D03*
X178350000Y-59400000D03*
%TD*%
D24*
%TO.C,J7*%
X123705000Y-96400000D03*
D13*
X123705000Y-100360000D03*
%TD*%
D14*
%TO.C,R8*%
X177700000Y-103350000D03*
X177700000Y-100250000D03*
%TD*%
D33*
%TO.C,R4*%
X177350000Y-69700000D03*
X180450000Y-69700000D03*
%TD*%
D32*
%TO.C,C3*%
X171750000Y-56850000D03*
X171750000Y-48850000D03*
%TD*%
D10*
%TO.C,TP4*%
X183200000Y-68400000D03*
%TD*%
D22*
%TO.C,H8*%
X123009010Y-47409010D03*
X124600000Y-51250000D03*
X123009010Y-50590990D03*
D23*
X124600000Y-49000000D03*
D22*
X126190990Y-47409010D03*
X124600000Y-46750000D03*
X126190990Y-50590990D03*
X122350000Y-49000000D03*
X126850000Y-49000000D03*
%TD*%
D26*
%TO.C,C1*%
X171387500Y-65650000D03*
X174512500Y-65650000D03*
%TD*%
D34*
%TO.C,Q1*%
X180437500Y-113150000D03*
X180437500Y-111250000D03*
X178562500Y-112200000D03*
%TD*%
D19*
%TO.C,J15*%
X126550000Y-119960000D03*
D20*
X126550000Y-122500000D03*
%TD*%
D19*
%TO.C,J3*%
X183500000Y-78625000D03*
D20*
X183500000Y-81165000D03*
X183500000Y-83705000D03*
X183500000Y-86245000D03*
X183500000Y-88785000D03*
X183500000Y-91325000D03*
X183500000Y-93865000D03*
%TD*%
D10*
%TO.C,TP11*%
X178700000Y-106500000D03*
%TD*%
%TO.C,TP14*%
X187300000Y-102500000D03*
%TD*%
%TO.C,TP7*%
X181400000Y-66400000D03*
%TD*%
%TO.C,TP18*%
X179200000Y-116000000D03*
%TD*%
D15*
%TO.C,C12*%
X180500000Y-90612500D03*
X180500000Y-87487500D03*
%TD*%
D12*
%TO.C,J5*%
X132495000Y-71400000D03*
D13*
X132495000Y-67440000D03*
%TD*%
D35*
%TO.C,C10*%
X165800000Y-101837500D03*
X165800000Y-104962500D03*
%TD*%
D14*
%TO.C,R10*%
X177034166Y-85050000D03*
X177034166Y-81950000D03*
%TD*%
D15*
%TO.C,C9*%
X174550000Y-100962500D03*
X174550000Y-97837500D03*
%TD*%
D24*
%TO.C,J11*%
X123600000Y-77240000D03*
D13*
X123600000Y-81200000D03*
%TD*%
D26*
%TO.C,C2*%
X171387500Y-63200000D03*
X174512500Y-63200000D03*
%TD*%
D19*
%TO.C,J19*%
X166275000Y-120000000D03*
D20*
X166275000Y-122540000D03*
%TD*%
D10*
%TO.C,TP12*%
X164400000Y-83000000D03*
%TD*%
D17*
%TO.C,H1*%
X114000000Y-49000000D03*
D18*
X114000000Y-52000000D03*
X111000000Y-49000000D03*
X117000000Y-49000000D03*
X116121320Y-46878680D03*
X116121320Y-51121320D03*
X111878680Y-46878680D03*
X114000000Y-46000000D03*
X111878680Y-51121320D03*
%TD*%
D29*
%TO.C,Q4*%
X164995000Y-75502250D03*
X166265000Y-75502250D03*
X167535000Y-75502250D03*
X168805000Y-75502250D03*
D30*
X166900000Y-72010000D03*
%TD*%
D10*
%TO.C,TP5*%
X157100000Y-83000000D03*
%TD*%
D36*
%TO.C,R6*%
X162200000Y-101750000D03*
X162200000Y-107850000D03*
%TD*%
D10*
%TO.C,TP16*%
X178400000Y-53000000D03*
%TD*%
D14*
%TO.C,R7*%
X180000000Y-103350000D03*
X180000000Y-100250000D03*
%TD*%
D22*
%TO.C,H7*%
X129809010Y-50590990D03*
D23*
X131400000Y-49000000D03*
D22*
X132990990Y-50590990D03*
X129150000Y-49000000D03*
X131400000Y-51250000D03*
X131400000Y-46750000D03*
X132990990Y-47409010D03*
X129809010Y-47409010D03*
X133650000Y-49000000D03*
%TD*%
D29*
%TO.C,Q3*%
X157395000Y-96347250D03*
X158665000Y-96347250D03*
X159935000Y-96347250D03*
X161205000Y-96347250D03*
D30*
X159300000Y-92855000D03*
%TD*%
D37*
%TO.C,U1*%
X176332500Y-79725000D03*
X177602500Y-79725000D03*
X178872500Y-79725000D03*
X180142500Y-79725000D03*
X180142500Y-74775000D03*
X178872500Y-74775000D03*
X177602500Y-74775000D03*
X176332500Y-74775000D03*
%TD*%
D31*
%TO.C,C6*%
X172337500Y-81937500D03*
X172337500Y-85062500D03*
%TD*%
D38*
%TO.C,D3*%
X182600000Y-110350000D03*
X182600000Y-113650000D03*
%TD*%
M02*
