%TF.GenerationSoftware,KiCad,Pcbnew,(6.0.1)*%
%TF.CreationDate,2022-01-20T11:55:35+01:00*%
%TF.ProjectId,BTS-MainBoard-Power,4254532d-4d61-4696-9e42-6f6172642d50,rev?*%
%TF.SameCoordinates,Original*%
%TF.FileFunction,Paste,Top*%
%TF.FilePolarity,Positive*%
%FSLAX46Y46*%
G04 Gerber Fmt 4.6, Leading zero omitted, Abs format (unit mm)*
G04 Created by KiCad (PCBNEW (6.0.1)) date 2022-01-20 11:55:35*
%MOMM*%
%LPD*%
G01*
G04 APERTURE LIST*
G04 Aperture macros list*
%AMRoundRect*
0 Rectangle with rounded corners*
0 $1 Rounding radius*
0 $2 $3 $4 $5 $6 $7 $8 $9 X,Y pos of 4 corners*
0 Add a 4 corners polygon primitive as box body*
4,1,4,$2,$3,$4,$5,$6,$7,$8,$9,$2,$3,0*
0 Add four circle primitives for the rounded corners*
1,1,$1+$1,$2,$3*
1,1,$1+$1,$4,$5*
1,1,$1+$1,$6,$7*
1,1,$1+$1,$8,$9*
0 Add four rect primitives between the rounded corners*
20,1,$1+$1,$2,$3,$4,$5,0*
20,1,$1+$1,$4,$5,$6,$7,0*
20,1,$1+$1,$6,$7,$8,$9,0*
20,1,$1+$1,$8,$9,$2,$3,0*%
%AMFreePoly0*
4,1,17,-0.697500,2.280000,2.502500,2.280000,2.502500,1.530000,2.027500,1.530000,2.027500,-1.530000,2.502500,-1.530000,2.502500,-2.280000,-0.697500,-2.280000,-0.697500,-2.775000,-1.602500,-2.775000,-1.602500,-2.280000,-2.027500,-2.280000,-2.027500,2.280000,-1.602500,2.280000,-1.602500,2.775000,-0.697500,2.775000,-0.697500,2.280000,-0.697500,2.280000,$1*%
G04 Aperture macros list end*
%ADD10R,4.500000X5.000000*%
%ADD11RoundRect,0.250000X0.625000X-0.400000X0.625000X0.400000X-0.625000X0.400000X-0.625000X-0.400000X0*%
%ADD12RoundRect,0.250000X0.650000X-0.412500X0.650000X0.412500X-0.650000X0.412500X-0.650000X-0.412500X0*%
%ADD13RoundRect,0.150000X-0.150000X0.825000X-0.150000X-0.825000X0.150000X-0.825000X0.150000X0.825000X0*%
%ADD14RoundRect,0.243750X-0.243750X-0.456250X0.243750X-0.456250X0.243750X0.456250X-0.243750X0.456250X0*%
%ADD15RoundRect,0.250000X0.400000X0.625000X-0.400000X0.625000X-0.400000X-0.625000X0.400000X-0.625000X0*%
%ADD16RoundRect,0.250000X-0.412500X-0.650000X0.412500X-0.650000X0.412500X0.650000X-0.412500X0.650000X0*%
%ADD17RoundRect,0.250000X-0.625000X0.400000X-0.625000X-0.400000X0.625000X-0.400000X0.625000X0.400000X0*%
%ADD18RoundRect,0.345000X-0.805000X1.155000X-0.805000X-1.155000X0.805000X-1.155000X0.805000X1.155000X0*%
%ADD19RoundRect,0.187500X0.187500X-0.312500X0.187500X0.312500X-0.187500X0.312500X-0.187500X-0.312500X0*%
%ADD20FreePoly0,90.000000*%
%ADD21RoundRect,0.250000X-0.650000X0.412500X-0.650000X-0.412500X0.650000X-0.412500X0.650000X0.412500X0*%
%ADD22RoundRect,0.250000X1.000000X-1.750000X1.000000X1.750000X-1.000000X1.750000X-1.000000X-1.750000X0*%
%ADD23RoundRect,0.250000X-0.400000X-0.625000X0.400000X-0.625000X0.400000X0.625000X-0.400000X0.625000X0*%
%ADD24RoundRect,0.150000X0.587500X0.150000X-0.587500X0.150000X-0.587500X-0.150000X0.587500X-0.150000X0*%
%ADD25RoundRect,0.250000X-1.100000X0.412500X-1.100000X-0.412500X1.100000X-0.412500X1.100000X0.412500X0*%
%ADD26RoundRect,0.249999X-1.425001X0.450001X-1.425001X-0.450001X1.425001X-0.450001X1.425001X0.450001X0*%
%ADD27RoundRect,0.150000X0.150000X-0.825000X0.150000X0.825000X-0.150000X0.825000X-0.150000X-0.825000X0*%
%ADD28R,1.200000X0.900000*%
G04 APERTURE END LIST*
D10*
%TO.C,L1*%
X152300000Y-77000000D03*
X141300000Y-77000000D03*
%TD*%
D11*
%TO.C,R11*%
X174600000Y-95950000D03*
X174600000Y-92850000D03*
%TD*%
D12*
%TO.C,C11*%
X178100000Y-90612500D03*
X178100000Y-87487500D03*
%TD*%
D13*
%TO.C,U2*%
X180355000Y-93125000D03*
X179085000Y-93125000D03*
X177815000Y-93125000D03*
X176545000Y-93125000D03*
X176545000Y-98075000D03*
X177815000Y-98075000D03*
X179085000Y-98075000D03*
X180355000Y-98075000D03*
%TD*%
D14*
%TO.C,D4*%
X176462500Y-61800000D03*
X178337500Y-61800000D03*
%TD*%
D15*
%TO.C,R5*%
X185050000Y-74700000D03*
X181950000Y-74700000D03*
%TD*%
D10*
%TO.C,L2*%
X152300000Y-61400000D03*
X141300000Y-61400000D03*
%TD*%
D16*
%TO.C,C7*%
X177275000Y-72200000D03*
X180400000Y-72200000D03*
%TD*%
D10*
%TO.C,L3*%
X152500000Y-92600000D03*
X141500000Y-92600000D03*
%TD*%
D17*
%TO.C,R12*%
X175700000Y-87450000D03*
X175700000Y-90550000D03*
%TD*%
%TO.C,R1*%
X174337500Y-76950000D03*
X174337500Y-80050000D03*
%TD*%
D18*
%TO.C,D2*%
X183700000Y-97600000D03*
X183700000Y-102350000D03*
%TD*%
D19*
%TO.C,Q2*%
X157295000Y-75547250D03*
X158565000Y-75547250D03*
X159835000Y-75547250D03*
X161105000Y-75547250D03*
D20*
X159200000Y-72055000D03*
%TD*%
D17*
%TO.C,R3*%
X183400000Y-105450000D03*
X183400000Y-108550000D03*
%TD*%
%TO.C,R2*%
X185000000Y-110550000D03*
X185000000Y-113650000D03*
%TD*%
D18*
%TO.C,D1*%
X172900000Y-69000000D03*
X172900000Y-73750000D03*
%TD*%
D10*
%TO.C,L4*%
X152500000Y-108200000D03*
X141500000Y-108200000D03*
%TD*%
D21*
%TO.C,C8*%
X174700833Y-81937500D03*
X174700833Y-85062500D03*
%TD*%
D17*
%TO.C,R9*%
X179337500Y-81950000D03*
X179337500Y-85050000D03*
%TD*%
D22*
%TO.C,C4*%
X160800000Y-56800000D03*
X160800000Y-48800000D03*
%TD*%
D19*
%TO.C,Q5*%
X164695000Y-96347250D03*
X165965000Y-96347250D03*
X167235000Y-96347250D03*
X168505000Y-96347250D03*
D20*
X166600000Y-92855000D03*
%TD*%
D23*
%TO.C,R13*%
X175250000Y-59400000D03*
X178350000Y-59400000D03*
%TD*%
D11*
%TO.C,R8*%
X177700000Y-103350000D03*
X177700000Y-100250000D03*
%TD*%
D23*
%TO.C,R4*%
X177350000Y-69700000D03*
X180450000Y-69700000D03*
%TD*%
D22*
%TO.C,C3*%
X171750000Y-56850000D03*
X171750000Y-48850000D03*
%TD*%
D16*
%TO.C,C1*%
X171387500Y-65650000D03*
X174512500Y-65650000D03*
%TD*%
D24*
%TO.C,Q1*%
X180437500Y-113150000D03*
X180437500Y-111250000D03*
X178562500Y-112200000D03*
%TD*%
D12*
%TO.C,C12*%
X180500000Y-90612500D03*
X180500000Y-87487500D03*
%TD*%
D25*
%TO.C,C10*%
X165800000Y-101837500D03*
X165800000Y-104962500D03*
%TD*%
D11*
%TO.C,R10*%
X177034166Y-85050000D03*
X177034166Y-81950000D03*
%TD*%
D12*
%TO.C,C9*%
X174550000Y-100962500D03*
X174550000Y-97837500D03*
%TD*%
D16*
%TO.C,C2*%
X171387500Y-63200000D03*
X174512500Y-63200000D03*
%TD*%
D19*
%TO.C,Q4*%
X164995000Y-75502250D03*
X166265000Y-75502250D03*
X167535000Y-75502250D03*
X168805000Y-75502250D03*
D20*
X166900000Y-72010000D03*
%TD*%
D26*
%TO.C,R6*%
X162200000Y-101750000D03*
X162200000Y-107850000D03*
%TD*%
D11*
%TO.C,R7*%
X180000000Y-103350000D03*
X180000000Y-100250000D03*
%TD*%
D19*
%TO.C,Q3*%
X157395000Y-96347250D03*
X158665000Y-96347250D03*
X159935000Y-96347250D03*
X161205000Y-96347250D03*
D20*
X159300000Y-92855000D03*
%TD*%
D27*
%TO.C,U1*%
X176332500Y-79725000D03*
X177602500Y-79725000D03*
X178872500Y-79725000D03*
X180142500Y-79725000D03*
X180142500Y-74775000D03*
X178872500Y-74775000D03*
X177602500Y-74775000D03*
X176332500Y-74775000D03*
%TD*%
D21*
%TO.C,C6*%
X172337500Y-81937500D03*
X172337500Y-85062500D03*
%TD*%
D28*
%TO.C,D3*%
X182600000Y-110350000D03*
X182600000Y-113650000D03*
%TD*%
M02*
