%TF.GenerationSoftware,KiCad,Pcbnew,(6.0.1)*%
%TF.CreationDate,2022-01-20T11:55:35+01:00*%
%TF.ProjectId,BTS-MainBoard-Power,4254532d-4d61-4696-9e42-6f6172642d50,rev?*%
%TF.SameCoordinates,Original*%
%TF.FileFunction,Copper,L4,Bot*%
%TF.FilePolarity,Positive*%
%FSLAX46Y46*%
G04 Gerber Fmt 4.6, Leading zero omitted, Abs format (unit mm)*
G04 Created by KiCad (PCBNEW (6.0.1)) date 2022-01-20 11:55:35*
%MOMM*%
%LPD*%
G01*
G04 APERTURE LIST*
G04 Aperture macros list*
%AMRoundRect*
0 Rectangle with rounded corners*
0 $1 Rounding radius*
0 $2 $3 $4 $5 $6 $7 $8 $9 X,Y pos of 4 corners*
0 Add a 4 corners polygon primitive as box body*
4,1,4,$2,$3,$4,$5,$6,$7,$8,$9,$2,$3,0*
0 Add four circle primitives for the rounded corners*
1,1,$1+$1,$2,$3*
1,1,$1+$1,$4,$5*
1,1,$1+$1,$6,$7*
1,1,$1+$1,$8,$9*
0 Add four rect primitives between the rounded corners*
20,1,$1+$1,$2,$3,$4,$5,0*
20,1,$1+$1,$4,$5,$6,$7,0*
20,1,$1+$1,$6,$7,$8,$9,0*
20,1,$1+$1,$8,$9,$2,$3,0*%
G04 Aperture macros list end*
%TA.AperFunction,ComponentPad*%
%ADD10RoundRect,0.270834X1.029166X-1.029166X1.029166X1.029166X-1.029166X1.029166X-1.029166X-1.029166X0*%
%TD*%
%TA.AperFunction,ComponentPad*%
%ADD11C,2.600000*%
%TD*%
%TA.AperFunction,ComponentPad*%
%ADD12C,8.000000*%
%TD*%
%TA.AperFunction,ComponentPad*%
%ADD13C,0.900000*%
%TD*%
%TA.AperFunction,ComponentPad*%
%ADD14R,1.700000X1.700000*%
%TD*%
%TA.AperFunction,ComponentPad*%
%ADD15O,1.700000X1.700000*%
%TD*%
%TA.AperFunction,ComponentPad*%
%ADD16C,0.800000*%
%TD*%
%TA.AperFunction,ComponentPad*%
%ADD17C,6.000000*%
%TD*%
%TA.AperFunction,ComponentPad*%
%ADD18RoundRect,0.270834X-1.029166X1.029166X-1.029166X-1.029166X1.029166X-1.029166X1.029166X1.029166X0*%
%TD*%
%TA.AperFunction,ViaPad*%
%ADD19C,0.800000*%
%TD*%
%TA.AperFunction,Conductor*%
%ADD20C,0.500000*%
%TD*%
%TA.AperFunction,Conductor*%
%ADD21C,0.250000*%
%TD*%
G04 APERTURE END LIST*
D10*
%TO.P,J10,1,Pin_1*%
%TO.N,/HBridge/+Peltier*%
X132400000Y-90960000D03*
D11*
%TO.P,J10,2,Pin_2*%
%TO.N,/BHS*%
X132400000Y-87000000D03*
%TD*%
D12*
%TO.P,H4,1,1*%
%TO.N,GND*%
X184000000Y-122500000D03*
D13*
X187000000Y-122500000D03*
X184000000Y-125500000D03*
X181878680Y-120378680D03*
X186121320Y-120378680D03*
X181000000Y-122500000D03*
X181878680Y-124621320D03*
X184000000Y-119500000D03*
X186121320Y-124621320D03*
%TD*%
D14*
%TO.P,J12,1,Pin_1*%
%TO.N,/Psu12V*%
X132075000Y-119960000D03*
D15*
%TO.P,J12,2,Pin_2*%
%TO.N,/FanSink*%
X132075000Y-122500000D03*
%TD*%
D16*
%TO.P,H6,1,1*%
%TO.N,/Psu12V*%
X145609010Y-47409010D03*
D17*
X147200000Y-49000000D03*
D16*
X144950000Y-49000000D03*
X147200000Y-51250000D03*
X148790990Y-50590990D03*
X148790990Y-47409010D03*
X147200000Y-46750000D03*
X149450000Y-49000000D03*
X145609010Y-50590990D03*
%TD*%
%TO.P,H5,1,1*%
%TO.N,/Psu12V*%
X137950000Y-49000000D03*
X142450000Y-49000000D03*
X140200000Y-46750000D03*
D17*
X140200000Y-49000000D03*
D16*
X138609010Y-50590990D03*
X141790990Y-47409010D03*
X141790990Y-50590990D03*
X138609010Y-47409010D03*
X140200000Y-51250000D03*
%TD*%
D18*
%TO.P,J9,1,Pin_1*%
%TO.N,/HBridge/+Peltier*%
X133505000Y-77200000D03*
D11*
%TO.P,J9,2,Pin_2*%
%TO.N,/BHS*%
X133505000Y-81160000D03*
%TD*%
D10*
%TO.P,J4,1,Pin_1*%
%TO.N,/HBridge/+Peltier*%
X122495000Y-91000000D03*
D11*
%TO.P,J4,2,Pin_2*%
%TO.N,/BHS*%
X122495000Y-87040000D03*
%TD*%
D14*
%TO.P,J18,1,Pin_1*%
%TO.N,/Psu12V*%
X154800000Y-120000000D03*
D15*
%TO.P,J18,2,Pin_2*%
%TO.N,/FanSink*%
X154800000Y-122540000D03*
%TD*%
D13*
%TO.P,H2,1,1*%
%TO.N,GND*%
X181000000Y-49000000D03*
X186121320Y-46878680D03*
D12*
X184000000Y-49000000D03*
D13*
X187000000Y-49000000D03*
X181878680Y-51121320D03*
X181878680Y-46878680D03*
X186121320Y-51121320D03*
X184000000Y-46000000D03*
X184000000Y-52000000D03*
%TD*%
D14*
%TO.P,J14,1,Pin_1*%
%TO.N,/Psu12V*%
X143550000Y-119960000D03*
D15*
%TO.P,J14,2,Pin_2*%
%TO.N,/FanSink*%
X143550000Y-122500000D03*
%TD*%
D14*
%TO.P,J16,1,Pin_1*%
%TO.N,/Psu12V*%
X137550000Y-119960000D03*
D15*
%TO.P,J16,2,Pin_2*%
%TO.N,/FanSink*%
X137550000Y-122500000D03*
%TD*%
D10*
%TO.P,J6,1,Pin_1*%
%TO.N,/HBridge/+Peltier*%
X122695000Y-71400000D03*
D11*
%TO.P,J6,2,Pin_2*%
%TO.N,/BHS*%
X122695000Y-67440000D03*
%TD*%
D14*
%TO.P,J17,1,Pin_1*%
%TO.N,/Psu12V*%
X149275000Y-120000000D03*
D15*
%TO.P,J17,2,Pin_2*%
%TO.N,/FanSink*%
X149275000Y-122540000D03*
%TD*%
D14*
%TO.P,J13,1,Pin_1*%
%TO.N,/Psu12V*%
X160275000Y-120000000D03*
D15*
%TO.P,J13,2,Pin_2*%
%TO.N,/FanSink*%
X160275000Y-122540000D03*
%TD*%
D12*
%TO.P,H3,1,1*%
%TO.N,GND*%
X114000000Y-122500000D03*
D13*
X116121320Y-124621320D03*
X116121320Y-120378680D03*
X111878680Y-120378680D03*
X111000000Y-122500000D03*
X114000000Y-125500000D03*
X117000000Y-122500000D03*
X114000000Y-119500000D03*
X111878680Y-124621320D03*
%TD*%
D18*
%TO.P,J8,1,Pin_1*%
%TO.N,/HBridge/+Peltier*%
X133505000Y-96400000D03*
D11*
%TO.P,J8,2,Pin_2*%
%TO.N,/BHS*%
X133505000Y-100360000D03*
%TD*%
D18*
%TO.P,J7,1,Pin_1*%
%TO.N,/HBridge/+Peltier*%
X123705000Y-96400000D03*
D11*
%TO.P,J7,2,Pin_2*%
%TO.N,/BHS*%
X123705000Y-100360000D03*
%TD*%
D16*
%TO.P,H8,1,1*%
%TO.N,GND*%
X123009010Y-47409010D03*
X124600000Y-51250000D03*
X123009010Y-50590990D03*
D17*
X124600000Y-49000000D03*
D16*
X126190990Y-47409010D03*
X124600000Y-46750000D03*
X126190990Y-50590990D03*
X122350000Y-49000000D03*
X126850000Y-49000000D03*
%TD*%
D14*
%TO.P,J15,1,Pin_1*%
%TO.N,/Psu12V*%
X126550000Y-119960000D03*
D15*
%TO.P,J15,2,Pin_2*%
%TO.N,/FanSink*%
X126550000Y-122500000D03*
%TD*%
D14*
%TO.P,J3,1,Pin_1*%
%TO.N,/VSense*%
X183500000Y-78625000D03*
D15*
%TO.P,J3,2,Pin_2*%
%TO.N,/AHO_Sig*%
X183500000Y-81165000D03*
%TO.P,J3,3,Pin_3*%
%TO.N,/ALO_Sig*%
X183500000Y-83705000D03*
%TO.P,J3,4,Pin_4*%
%TO.N,/BHO_Sig*%
X183500000Y-86245000D03*
%TO.P,J3,5,Pin_5*%
%TO.N,/BLO_Sig*%
X183500000Y-88785000D03*
%TO.P,J3,6,Pin_6*%
%TO.N,/CoolingFanDriveSignal*%
X183500000Y-91325000D03*
%TO.P,J3,7,Pin_7*%
%TO.N,GND*%
X183500000Y-93865000D03*
%TD*%
D10*
%TO.P,J5,1,Pin_1*%
%TO.N,/HBridge/+Peltier*%
X132495000Y-71400000D03*
D11*
%TO.P,J5,2,Pin_2*%
%TO.N,/BHS*%
X132495000Y-67440000D03*
%TD*%
D18*
%TO.P,J11,1,Pin_1*%
%TO.N,/HBridge/+Peltier*%
X123600000Y-77240000D03*
D11*
%TO.P,J11,2,Pin_2*%
%TO.N,/BHS*%
X123600000Y-81200000D03*
%TD*%
D14*
%TO.P,J19,1,Pin_1*%
%TO.N,/Psu12V*%
X166275000Y-120000000D03*
D15*
%TO.P,J19,2,Pin_2*%
%TO.N,/FanSink*%
X166275000Y-122540000D03*
%TD*%
D12*
%TO.P,H1,1,1*%
%TO.N,GND*%
X114000000Y-49000000D03*
D13*
X114000000Y-52000000D03*
X111000000Y-49000000D03*
X117000000Y-49000000D03*
X116121320Y-46878680D03*
X116121320Y-51121320D03*
X111878680Y-46878680D03*
X114000000Y-46000000D03*
X111878680Y-51121320D03*
%TD*%
D16*
%TO.P,H7,1,1*%
%TO.N,GND*%
X129809010Y-50590990D03*
D17*
X131400000Y-49000000D03*
D16*
X132990990Y-50590990D03*
X129150000Y-49000000D03*
X131400000Y-51250000D03*
X131400000Y-46750000D03*
X132990990Y-47409010D03*
X129809010Y-47409010D03*
X133650000Y-49000000D03*
%TD*%
D19*
%TO.N,/Psu12V*%
X161700000Y-72200000D03*
X173800000Y-59000000D03*
X169600000Y-59000000D03*
X165600000Y-70200000D03*
X153400000Y-54800000D03*
X155800000Y-56800000D03*
X171949500Y-79000000D03*
X143800000Y-52800000D03*
X173100000Y-80800000D03*
X139000000Y-52800000D03*
X156900000Y-71200000D03*
X151000000Y-52800000D03*
X168000000Y-70200000D03*
X148600000Y-54800000D03*
X159300000Y-71200000D03*
X157000000Y-64000000D03*
X169200000Y-71200000D03*
X168400000Y-57800000D03*
X166600000Y-68800000D03*
X157600000Y-54200000D03*
X159300000Y-73200000D03*
X158800000Y-59000000D03*
X159400000Y-67200000D03*
X143800000Y-54800000D03*
X178600000Y-89400000D03*
X156900000Y-70200000D03*
X163000000Y-59000000D03*
X166600000Y-67200000D03*
X139000000Y-56800000D03*
X182800000Y-107400000D03*
X161600000Y-59400000D03*
X173100000Y-79000000D03*
X141400000Y-52800000D03*
X168000000Y-73200000D03*
X155800000Y-52800000D03*
X159400000Y-64000000D03*
X160200000Y-54200000D03*
X158100000Y-70200000D03*
X177600000Y-89400000D03*
X151000000Y-56800000D03*
X180000000Y-89400000D03*
X160500000Y-70200000D03*
X141400000Y-56800000D03*
X136600000Y-54800000D03*
X164400000Y-73200000D03*
X169200000Y-73200000D03*
X169200000Y-72200000D03*
X159400000Y-62400000D03*
X164200000Y-67200000D03*
X164400000Y-72200000D03*
X160200000Y-59400000D03*
X165600000Y-73200000D03*
X184000000Y-107400000D03*
X164000000Y-54200000D03*
X157000000Y-68800000D03*
X174400000Y-79000000D03*
X158800000Y-57800000D03*
X153400000Y-52800000D03*
X169600000Y-57800000D03*
X157000000Y-65600000D03*
X166800000Y-73200000D03*
X171000000Y-54200000D03*
X161700000Y-70200000D03*
X159300000Y-70200000D03*
X164400000Y-71200000D03*
X169600000Y-54200000D03*
X157600000Y-57800000D03*
X169000000Y-62400000D03*
X171949500Y-79900000D03*
X166600000Y-65600000D03*
X172400000Y-59400000D03*
X161800000Y-67200000D03*
X164200000Y-68800000D03*
X151000000Y-54800000D03*
X168000000Y-72200000D03*
X173800000Y-54200000D03*
X168400000Y-54200000D03*
X156900000Y-72200000D03*
X169000000Y-64000000D03*
X161800000Y-62400000D03*
X164400000Y-70200000D03*
X159400000Y-68800000D03*
X165600000Y-71200000D03*
X166600000Y-64000000D03*
X143800000Y-56800000D03*
X161600000Y-54200000D03*
X165600000Y-72200000D03*
X158100000Y-73200000D03*
X164200000Y-62400000D03*
X161800000Y-68800000D03*
X157000000Y-67200000D03*
X136600000Y-52800000D03*
X161800000Y-64000000D03*
X155800000Y-54800000D03*
X175000000Y-57800000D03*
X166600000Y-62400000D03*
X148600000Y-52800000D03*
X164200000Y-65600000D03*
X166800000Y-72200000D03*
X136600000Y-56800000D03*
X139000000Y-54800000D03*
X160500000Y-71200000D03*
X158100000Y-72200000D03*
X166800000Y-71200000D03*
X161800000Y-65600000D03*
X169200000Y-70200000D03*
X159400000Y-65600000D03*
X163000000Y-54200000D03*
X163000000Y-57800000D03*
X146200000Y-56800000D03*
X161700000Y-73200000D03*
X153400000Y-56800000D03*
X160500000Y-72200000D03*
X158800000Y-54200000D03*
X169000000Y-65600000D03*
X171949500Y-80800000D03*
X161700000Y-71200000D03*
X172400000Y-54200000D03*
X169000000Y-67200000D03*
X175000000Y-54200000D03*
X169000000Y-68800000D03*
X146200000Y-54800000D03*
X181000000Y-89400000D03*
X148600000Y-56800000D03*
X168000000Y-71200000D03*
X166800000Y-70200000D03*
X141400000Y-54800000D03*
X160500000Y-73200000D03*
X164200000Y-64000000D03*
X173100000Y-79900000D03*
X146200000Y-52800000D03*
X164000000Y-57800000D03*
X157000000Y-62400000D03*
X158100000Y-71200000D03*
X171000000Y-59400000D03*
X156900000Y-73200000D03*
X159300000Y-72200000D03*
X173800000Y-57800000D03*
%TO.N,GND*%
X159800000Y-116200000D03*
X167800000Y-106200000D03*
X173400000Y-90000000D03*
X157800000Y-114200000D03*
X169800000Y-114200000D03*
X157800000Y-112200000D03*
X155800000Y-116200000D03*
X165800000Y-106200000D03*
X163800000Y-116200000D03*
X161800000Y-114200000D03*
X175200000Y-83800000D03*
X167800000Y-112200000D03*
X173800000Y-46600000D03*
X169600000Y-49000000D03*
X173800000Y-49000000D03*
X165800000Y-112200000D03*
X163800000Y-114200000D03*
X169800000Y-110200000D03*
X158600000Y-46600000D03*
X175800000Y-94000000D03*
X155800000Y-106200000D03*
X167800000Y-108200000D03*
X158600000Y-51400000D03*
X159800000Y-106200000D03*
X171000000Y-51400000D03*
X173400000Y-86000000D03*
X159800000Y-108200000D03*
X155800000Y-108200000D03*
X173800000Y-51400000D03*
X161800000Y-104200000D03*
X180800000Y-79400000D03*
X176600000Y-83800000D03*
X163800000Y-104200000D03*
X173800000Y-47800000D03*
X167800000Y-104200000D03*
X180800000Y-80200000D03*
X160000000Y-46200000D03*
X163800000Y-110200000D03*
X158600000Y-49000000D03*
X158600000Y-50200000D03*
X171000000Y-46200000D03*
X178000000Y-86350000D03*
X157800000Y-106200000D03*
X169600000Y-50200000D03*
X162800000Y-47800000D03*
X173400000Y-94000000D03*
X165800000Y-110200000D03*
X167800000Y-114200000D03*
X159800000Y-110200000D03*
X161800000Y-112200000D03*
X161400000Y-46200000D03*
X178000000Y-83800000D03*
X176600000Y-86350000D03*
X167800000Y-116200000D03*
X162800000Y-46600000D03*
X161800000Y-116200000D03*
X173400000Y-92000000D03*
X169800000Y-108200000D03*
X175800000Y-92000000D03*
X159800000Y-104200000D03*
X163800000Y-106200000D03*
X162800000Y-49000000D03*
X167800000Y-110200000D03*
X169800000Y-104200000D03*
X172400000Y-46200000D03*
X180800000Y-86350000D03*
X169600000Y-51400000D03*
X175200000Y-86350000D03*
X179400000Y-86350000D03*
X172400000Y-51400000D03*
X161400000Y-51400000D03*
X155800000Y-114200000D03*
X165800000Y-116200000D03*
X158600000Y-47800000D03*
X155800000Y-110200000D03*
X159800000Y-112200000D03*
X169800000Y-106200000D03*
X169600000Y-46600000D03*
X157800000Y-116200000D03*
X157800000Y-104200000D03*
X155800000Y-104200000D03*
X162800000Y-51400000D03*
X159800000Y-114200000D03*
X180800000Y-85200000D03*
X157800000Y-108200000D03*
X169600000Y-47800000D03*
X169800000Y-116200000D03*
X162800000Y-50200000D03*
X169800000Y-112200000D03*
X161800000Y-110200000D03*
X179400000Y-83800000D03*
X165800000Y-108200000D03*
X161800000Y-106200000D03*
X180800000Y-84000000D03*
X155800000Y-112200000D03*
X160000000Y-51400000D03*
X173800000Y-50200000D03*
X157800000Y-110200000D03*
X165800000Y-114200000D03*
X163800000Y-112200000D03*
X173400000Y-88000000D03*
%TO.N,/AHS*%
X152600000Y-102200000D03*
X152200000Y-65200000D03*
X156900000Y-94000000D03*
X157200000Y-77600000D03*
X154600000Y-102200000D03*
X159300000Y-93000000D03*
X154600000Y-100200000D03*
X150200000Y-65200000D03*
X160000000Y-78600000D03*
X157200000Y-76600000D03*
X157200000Y-78600000D03*
X156900000Y-92000000D03*
X150600000Y-100200000D03*
X159300000Y-92000000D03*
X160000000Y-76600000D03*
X160500000Y-94000000D03*
X155800000Y-77600000D03*
X152200000Y-69200000D03*
X152200000Y-73200000D03*
X154600000Y-98200000D03*
X150600000Y-102200000D03*
X160500000Y-93000000D03*
X159300000Y-91000000D03*
X152600000Y-104200000D03*
X150200000Y-69200000D03*
X180400000Y-72200000D03*
X161700000Y-94000000D03*
X150600000Y-98200000D03*
X159300000Y-94000000D03*
X152200000Y-71200000D03*
X154200000Y-69200000D03*
X161700000Y-92000000D03*
X161700000Y-91000000D03*
X152600000Y-100200000D03*
X160000000Y-77600000D03*
X154600000Y-96200000D03*
X158600000Y-77600000D03*
X158100000Y-94000000D03*
X158100000Y-92000000D03*
X154200000Y-71200000D03*
X160500000Y-92000000D03*
X156900000Y-93000000D03*
X152600000Y-98200000D03*
X158100000Y-93000000D03*
X150200000Y-67200000D03*
X158600000Y-78600000D03*
X150200000Y-71200000D03*
X158600000Y-76600000D03*
X155800000Y-76600000D03*
X161700000Y-93000000D03*
X152600000Y-96200000D03*
X158100000Y-91000000D03*
X150600000Y-104200000D03*
X155800000Y-78600000D03*
X152200000Y-67200000D03*
X150200000Y-73200000D03*
X154200000Y-73200000D03*
X156900000Y-91000000D03*
X154600000Y-104200000D03*
X150600000Y-96200000D03*
X160500000Y-91000000D03*
X154200000Y-67200000D03*
X154200000Y-65200000D03*
%TO.N,/BHS*%
X166200000Y-79000000D03*
X110200000Y-72000000D03*
X168000000Y-79000000D03*
X166600000Y-91000000D03*
X166200000Y-77600000D03*
X116200000Y-81000000D03*
X164200000Y-86600000D03*
X116200000Y-99000000D03*
X110200000Y-96000000D03*
X114200000Y-90000000D03*
X164200000Y-88200000D03*
X114200000Y-84000000D03*
X164400000Y-79000000D03*
X114200000Y-81000000D03*
X116200000Y-75000000D03*
X118200000Y-87000000D03*
X167800000Y-92000000D03*
X165400000Y-91000000D03*
X114200000Y-93000000D03*
X164400000Y-80400000D03*
X112200000Y-93000000D03*
X169000000Y-92000000D03*
X167400000Y-86600000D03*
X167800000Y-91000000D03*
X168000000Y-77600000D03*
X110200000Y-78000000D03*
X169000000Y-89800000D03*
X169000000Y-86600000D03*
X112200000Y-63000000D03*
X165400000Y-94000000D03*
X166600000Y-92000000D03*
X110200000Y-99000000D03*
X162600000Y-80400000D03*
X116200000Y-84000000D03*
X116200000Y-72000000D03*
X114200000Y-96000000D03*
X112200000Y-72000000D03*
X110200000Y-69000000D03*
X114200000Y-72000000D03*
X165800000Y-88200000D03*
X116200000Y-90000000D03*
X114200000Y-78000000D03*
X164200000Y-92000000D03*
X112200000Y-99000000D03*
X164400000Y-77600000D03*
X164200000Y-94000000D03*
X166600000Y-93000000D03*
X116200000Y-93000000D03*
X110200000Y-63000000D03*
X110200000Y-93000000D03*
X110200000Y-66000000D03*
X165400000Y-93000000D03*
X110200000Y-84000000D03*
X169000000Y-93000000D03*
X114200000Y-99000000D03*
X167400000Y-89800000D03*
X165400000Y-92000000D03*
X112200000Y-78000000D03*
X169000000Y-91000000D03*
X116200000Y-96000000D03*
X112200000Y-105000000D03*
X110200000Y-87000000D03*
X114200000Y-105000000D03*
X169000000Y-94000000D03*
X167400000Y-88200000D03*
X114200000Y-69000000D03*
X112200000Y-81000000D03*
X112200000Y-96000000D03*
X116200000Y-102000000D03*
X167800000Y-94000000D03*
X164200000Y-89800000D03*
X110200000Y-81000000D03*
X116200000Y-69000000D03*
X164200000Y-91000000D03*
X116200000Y-66000000D03*
X120200000Y-84000000D03*
X165800000Y-86600000D03*
X116200000Y-87000000D03*
X112200000Y-75000000D03*
X114200000Y-63000000D03*
X118200000Y-81000000D03*
X112200000Y-84000000D03*
X162600000Y-79000000D03*
X112200000Y-102000000D03*
X114200000Y-66000000D03*
X110200000Y-105000000D03*
X110200000Y-75000000D03*
X168000000Y-80400000D03*
X164200000Y-93000000D03*
X114200000Y-102000000D03*
X169000000Y-88200000D03*
X167800000Y-93000000D03*
X116200000Y-63000000D03*
X116200000Y-78000000D03*
X118200000Y-84000000D03*
X116200000Y-105000000D03*
X166600000Y-94000000D03*
X162600000Y-77600000D03*
X112200000Y-90000000D03*
X114200000Y-87000000D03*
X166200000Y-80400000D03*
X165800000Y-89800000D03*
X110200000Y-90000000D03*
X112200000Y-66000000D03*
X112200000Y-69000000D03*
X110200000Y-102000000D03*
X114200000Y-75000000D03*
X112200000Y-87000000D03*
%TO.N,/VSense*%
X160200000Y-100000000D03*
X168200000Y-98200000D03*
X158200000Y-101800000D03*
X158200000Y-100000000D03*
X168200000Y-101800000D03*
X170200000Y-101800000D03*
X156200000Y-101800000D03*
X162200000Y-98200000D03*
X156200000Y-100000000D03*
X156200000Y-98200000D03*
X160200000Y-98200000D03*
X164200000Y-98200000D03*
X164200000Y-100000000D03*
X158200000Y-98200000D03*
X166200000Y-100000000D03*
X162200000Y-100000000D03*
X170200000Y-100000000D03*
X168200000Y-100000000D03*
X166200000Y-98200000D03*
%TO.N,/CoolingFanDriveSignal*%
X185000000Y-109600000D03*
%TO.N,/HBridge/+Peltier*%
X132400000Y-94200000D03*
X124000000Y-93200000D03*
X132400000Y-93200000D03*
X133400000Y-94200000D03*
X131400000Y-94200000D03*
X134600000Y-73600000D03*
X121600000Y-74600000D03*
X124000000Y-94200000D03*
X122600000Y-73600000D03*
X132600000Y-74600000D03*
X143600000Y-100200000D03*
X123000000Y-94200000D03*
X134600000Y-74600000D03*
X133600000Y-74600000D03*
X132600000Y-73600000D03*
X134400000Y-93200000D03*
X131600000Y-74600000D03*
X125000000Y-93200000D03*
X131400000Y-93200000D03*
X141600000Y-96200000D03*
X125000000Y-94200000D03*
X123000000Y-93200000D03*
X139200000Y-69200000D03*
X141200000Y-69200000D03*
X133400000Y-93200000D03*
X139600000Y-96200000D03*
X134400000Y-94200000D03*
X143200000Y-67200000D03*
X141200000Y-67200000D03*
X124600000Y-74600000D03*
X143200000Y-69200000D03*
X141200000Y-71200000D03*
X124600000Y-73600000D03*
X139600000Y-104200000D03*
X143200000Y-71200000D03*
X133600000Y-73600000D03*
X123600000Y-74600000D03*
X141600000Y-98200000D03*
X141600000Y-100200000D03*
X143200000Y-65200000D03*
X139200000Y-65200000D03*
X122000000Y-93200000D03*
X139600000Y-98200000D03*
X141200000Y-73200000D03*
X141600000Y-102200000D03*
X143600000Y-102200000D03*
X141600000Y-104200000D03*
X141200000Y-65200000D03*
X139600000Y-102200000D03*
X131600000Y-73600000D03*
X139600000Y-100200000D03*
X139200000Y-71200000D03*
X121600000Y-73600000D03*
X122000000Y-94200000D03*
X122600000Y-74600000D03*
X139200000Y-73200000D03*
X143600000Y-96200000D03*
X143600000Y-98200000D03*
X139200000Y-67200000D03*
X143200000Y-73200000D03*
X123600000Y-73600000D03*
X143600000Y-104200000D03*
%TO.N,/HBridge/AHO_Gate*%
X177400000Y-68400000D03*
X161800000Y-75300989D03*
%TO.N,/HBridge/ALO_Gate*%
X183500000Y-74700000D03*
X162100000Y-96300000D03*
%TO.N,/HBridge/BHO_Gate*%
X170562427Y-95450500D03*
X169750000Y-77000000D03*
%TO.N,/HBoot2*%
X183600000Y-99800000D03*
X174550000Y-99850000D03*
%TO.N,/AHO_Sig*%
X177600000Y-81000000D03*
%TO.N,/BHO_Sig*%
X175600000Y-89200000D03*
%TD*%
D20*
%TO.N,/AHS*%
X174300000Y-72200000D02*
X180400000Y-72200000D01*
X160449511Y-76150489D02*
X170349511Y-76150489D01*
X160000000Y-76600000D02*
X160449511Y-76150489D01*
X170349511Y-76150489D02*
X174300000Y-72200000D01*
D21*
%TO.N,/VSense*%
X174400000Y-83000000D02*
X178775000Y-78625000D01*
X178775000Y-78625000D02*
X183500000Y-78625000D01*
X174400000Y-97000000D02*
X174400000Y-83000000D01*
X172600000Y-98800000D02*
X174400000Y-97000000D01*
X170400000Y-98800000D02*
X172600000Y-98800000D01*
%TO.N,/CoolingFanDriveSignal*%
X183500000Y-91325000D02*
X185000000Y-92825000D01*
X185000000Y-92825000D02*
X185000000Y-109600000D01*
D20*
%TO.N,/HBridge/AHO_Gate*%
X161900989Y-75200000D02*
X168800000Y-75200000D01*
X175600000Y-68400000D02*
X177400000Y-68400000D01*
X161800000Y-75300989D02*
X161900989Y-75200000D01*
X168800000Y-75200000D02*
X175600000Y-68400000D01*
%TO.N,/HBridge/ALO_Gate*%
X171099989Y-77500011D02*
X171099989Y-82349989D01*
X171300000Y-96300000D02*
X162100000Y-96300000D01*
X173900000Y-74700000D02*
X171099989Y-77500011D01*
X183500000Y-74700000D02*
X173900000Y-74700000D01*
X172500000Y-95100000D02*
X171300000Y-96300000D01*
X172500000Y-83750000D02*
X172500000Y-95100000D01*
X171099989Y-82349989D02*
X172500000Y-83750000D01*
%TO.N,/HBridge/BHO_Gate*%
X169750000Y-83000000D02*
X171250000Y-84500000D01*
X171250000Y-94762927D02*
X170562427Y-95450500D01*
X171250000Y-84500000D02*
X171250000Y-94762927D01*
X169750000Y-77000000D02*
X169750000Y-83000000D01*
%TO.N,/HBoot2*%
X183600000Y-99800000D02*
X174600000Y-99800000D01*
X174600000Y-99800000D02*
X174550000Y-99850000D01*
D21*
%TO.N,/AHO_Sig*%
X177600000Y-81000000D02*
X183335000Y-81000000D01*
%TO.N,/BHO_Sig*%
X183500000Y-86245000D02*
X182145000Y-87600000D01*
X176200000Y-87600000D02*
X175600000Y-88200000D01*
X182145000Y-87600000D02*
X176200000Y-87600000D01*
X175600000Y-88200000D02*
X175600000Y-89200000D01*
%TD*%
%TA.AperFunction,Conductor*%
%TO.N,GND*%
G36*
X183970057Y-42990298D02*
G01*
X183984858Y-42992603D01*
X183984861Y-42992603D01*
X183993730Y-42993984D01*
X184015075Y-42991193D01*
X184036354Y-42990227D01*
X184466683Y-43007135D01*
X184476546Y-43007911D01*
X184935448Y-43062225D01*
X184945219Y-43063773D01*
X185176206Y-43109719D01*
X185398444Y-43153925D01*
X185408050Y-43156231D01*
X185852803Y-43281664D01*
X185862193Y-43284715D01*
X186095669Y-43370849D01*
X186295744Y-43444661D01*
X186304884Y-43448447D01*
X186724539Y-43641910D01*
X186733354Y-43646402D01*
X187136519Y-43872186D01*
X187144955Y-43877355D01*
X187529186Y-44134089D01*
X187537174Y-44139892D01*
X187680966Y-44253249D01*
X187900073Y-44425980D01*
X187907596Y-44432405D01*
X187975065Y-44494772D01*
X188246938Y-44746088D01*
X188253912Y-44753062D01*
X188426089Y-44939323D01*
X188567595Y-45092404D01*
X188574020Y-45099927D01*
X188860102Y-45462818D01*
X188865917Y-45470822D01*
X189122645Y-45855045D01*
X189127814Y-45863481D01*
X189353598Y-46266646D01*
X189358090Y-46275461D01*
X189551553Y-46695116D01*
X189555339Y-46704256D01*
X189715282Y-47137797D01*
X189718336Y-47147197D01*
X189843767Y-47591943D01*
X189846077Y-47601563D01*
X189936227Y-48054781D01*
X189937775Y-48064552D01*
X189992089Y-48523454D01*
X189992865Y-48533317D01*
X190009479Y-48956166D01*
X190008077Y-48980491D01*
X190006016Y-48993730D01*
X190007180Y-49002632D01*
X190007180Y-49002635D01*
X190010138Y-49025251D01*
X190011202Y-49041589D01*
X190011202Y-122450672D01*
X190009702Y-122470057D01*
X190008030Y-122480798D01*
X190006016Y-122493730D01*
X190008807Y-122515073D01*
X190009773Y-122536354D01*
X189992865Y-122966683D01*
X189992089Y-122976546D01*
X189937775Y-123435448D01*
X189936227Y-123445219D01*
X189891935Y-123667892D01*
X189847046Y-123893567D01*
X189846077Y-123898437D01*
X189843769Y-123908050D01*
X189721101Y-124343001D01*
X189718339Y-124352793D01*
X189715282Y-124362203D01*
X189555339Y-124795744D01*
X189551553Y-124804884D01*
X189358090Y-125224539D01*
X189353598Y-125233354D01*
X189127814Y-125636519D01*
X189122645Y-125644955D01*
X188875996Y-126014094D01*
X188865917Y-126029178D01*
X188860102Y-126037182D01*
X188574020Y-126400073D01*
X188567595Y-126407596D01*
X188426089Y-126560677D01*
X188253912Y-126746938D01*
X188246938Y-126753912D01*
X188060677Y-126926089D01*
X187907596Y-127067595D01*
X187900073Y-127074020D01*
X187861065Y-127104772D01*
X187537174Y-127360108D01*
X187529186Y-127365911D01*
X187398926Y-127452948D01*
X187144955Y-127622645D01*
X187136519Y-127627814D01*
X186759621Y-127838888D01*
X186733354Y-127853598D01*
X186724541Y-127858089D01*
X186342040Y-128034424D01*
X186304884Y-128051553D01*
X186295746Y-128055338D01*
X185862193Y-128215285D01*
X185852803Y-128218336D01*
X185408050Y-128343769D01*
X185398444Y-128346075D01*
X185176206Y-128390281D01*
X184945219Y-128436227D01*
X184935448Y-128437775D01*
X184476546Y-128492089D01*
X184466683Y-128492865D01*
X184043834Y-128509479D01*
X184019509Y-128508077D01*
X184017668Y-128507790D01*
X184015142Y-128507397D01*
X184015140Y-128507397D01*
X184006270Y-128506016D01*
X183974830Y-128510127D01*
X183958466Y-128511191D01*
X114049377Y-128492014D01*
X114030036Y-128490515D01*
X114006270Y-128486814D01*
X113984925Y-128489605D01*
X113963646Y-128490571D01*
X113533317Y-128473663D01*
X113523454Y-128472887D01*
X113064552Y-128418573D01*
X113054781Y-128417025D01*
X112698099Y-128346077D01*
X112601556Y-128326873D01*
X112591950Y-128324567D01*
X112147197Y-128199134D01*
X112137807Y-128196083D01*
X111704254Y-128036136D01*
X111695116Y-128032351D01*
X111317114Y-127858090D01*
X111275459Y-127838887D01*
X111266646Y-127834396D01*
X111230568Y-127814191D01*
X111065063Y-127721504D01*
X110863481Y-127608612D01*
X110855045Y-127603443D01*
X110629812Y-127452948D01*
X110470814Y-127346709D01*
X110462826Y-127340906D01*
X110306244Y-127217466D01*
X110099927Y-127054818D01*
X110092404Y-127048393D01*
X109939323Y-126906887D01*
X109753062Y-126734710D01*
X109746088Y-126727736D01*
X109573911Y-126541475D01*
X109432405Y-126388394D01*
X109425980Y-126380871D01*
X109155036Y-126037182D01*
X109139892Y-126017972D01*
X109134083Y-126009976D01*
X108877355Y-125625753D01*
X108872186Y-125617317D01*
X108646402Y-125214152D01*
X108641910Y-125205337D01*
X108448446Y-124785679D01*
X108444661Y-124776542D01*
X108290091Y-124357564D01*
X108284715Y-124342991D01*
X108281661Y-124333591D01*
X108180667Y-123975490D01*
X108156231Y-123888848D01*
X108153923Y-123879235D01*
X108148818Y-123853567D01*
X108101031Y-123613327D01*
X108063773Y-123426017D01*
X108062225Y-123416246D01*
X108007911Y-122957344D01*
X108007135Y-122947481D01*
X107995258Y-122645216D01*
X107990668Y-122528406D01*
X107992318Y-122502552D01*
X107992748Y-122500000D01*
X107993869Y-122493337D01*
X107994022Y-122480798D01*
X107992002Y-122466695D01*
X125187251Y-122466695D01*
X125187548Y-122471848D01*
X125187548Y-122471851D01*
X125193011Y-122566590D01*
X125200110Y-122689715D01*
X125201247Y-122694761D01*
X125201248Y-122694767D01*
X125210263Y-122734767D01*
X125249222Y-122907639D01*
X125333266Y-123114616D01*
X125449987Y-123305088D01*
X125596250Y-123473938D01*
X125768126Y-123616632D01*
X125961000Y-123729338D01*
X126169692Y-123809030D01*
X126174760Y-123810061D01*
X126174763Y-123810062D01*
X126282017Y-123831883D01*
X126388597Y-123853567D01*
X126393772Y-123853757D01*
X126393774Y-123853757D01*
X126606673Y-123861564D01*
X126606677Y-123861564D01*
X126611837Y-123861753D01*
X126616957Y-123861097D01*
X126616959Y-123861097D01*
X126828288Y-123834025D01*
X126828289Y-123834025D01*
X126833416Y-123833368D01*
X126909102Y-123810661D01*
X127042429Y-123770661D01*
X127042434Y-123770659D01*
X127047384Y-123769174D01*
X127247994Y-123670896D01*
X127429860Y-123541173D01*
X127457191Y-123513938D01*
X127584435Y-123387137D01*
X127588096Y-123383489D01*
X127647594Y-123300689D01*
X127715435Y-123206277D01*
X127718453Y-123202077D01*
X127744276Y-123149829D01*
X127815136Y-123006453D01*
X127815137Y-123006451D01*
X127817430Y-123001811D01*
X127882370Y-122788069D01*
X127911529Y-122566590D01*
X127911611Y-122563240D01*
X127913074Y-122503365D01*
X127913074Y-122503361D01*
X127913156Y-122500000D01*
X127910418Y-122466695D01*
X130712251Y-122466695D01*
X130712548Y-122471848D01*
X130712548Y-122471851D01*
X130718011Y-122566590D01*
X130725110Y-122689715D01*
X130726247Y-122694761D01*
X130726248Y-122694767D01*
X130735263Y-122734767D01*
X130774222Y-122907639D01*
X130858266Y-123114616D01*
X130974987Y-123305088D01*
X131121250Y-123473938D01*
X131293126Y-123616632D01*
X131486000Y-123729338D01*
X131694692Y-123809030D01*
X131699760Y-123810061D01*
X131699763Y-123810062D01*
X131807017Y-123831883D01*
X131913597Y-123853567D01*
X131918772Y-123853757D01*
X131918774Y-123853757D01*
X132131673Y-123861564D01*
X132131677Y-123861564D01*
X132136837Y-123861753D01*
X132141957Y-123861097D01*
X132141959Y-123861097D01*
X132353288Y-123834025D01*
X132353289Y-123834025D01*
X132358416Y-123833368D01*
X132434102Y-123810661D01*
X132567429Y-123770661D01*
X132567434Y-123770659D01*
X132572384Y-123769174D01*
X132772994Y-123670896D01*
X132954860Y-123541173D01*
X132982191Y-123513938D01*
X133109435Y-123387137D01*
X133113096Y-123383489D01*
X133172594Y-123300689D01*
X133240435Y-123206277D01*
X133243453Y-123202077D01*
X133269276Y-123149829D01*
X133340136Y-123006453D01*
X133340137Y-123006451D01*
X133342430Y-123001811D01*
X133407370Y-122788069D01*
X133436529Y-122566590D01*
X133436611Y-122563240D01*
X133438074Y-122503365D01*
X133438074Y-122503361D01*
X133438156Y-122500000D01*
X133435418Y-122466695D01*
X136187251Y-122466695D01*
X136187548Y-122471848D01*
X136187548Y-122471851D01*
X136193011Y-122566590D01*
X136200110Y-122689715D01*
X136201247Y-122694761D01*
X136201248Y-122694767D01*
X136210263Y-122734767D01*
X136249222Y-122907639D01*
X136333266Y-123114616D01*
X136449987Y-123305088D01*
X136596250Y-123473938D01*
X136768126Y-123616632D01*
X136961000Y-123729338D01*
X137169692Y-123809030D01*
X137174760Y-123810061D01*
X137174763Y-123810062D01*
X137282017Y-123831883D01*
X137388597Y-123853567D01*
X137393772Y-123853757D01*
X137393774Y-123853757D01*
X137606673Y-123861564D01*
X137606677Y-123861564D01*
X137611837Y-123861753D01*
X137616957Y-123861097D01*
X137616959Y-123861097D01*
X137828288Y-123834025D01*
X137828289Y-123834025D01*
X137833416Y-123833368D01*
X137909102Y-123810661D01*
X138042429Y-123770661D01*
X138042434Y-123770659D01*
X138047384Y-123769174D01*
X138247994Y-123670896D01*
X138429860Y-123541173D01*
X138457191Y-123513938D01*
X138584435Y-123387137D01*
X138588096Y-123383489D01*
X138647594Y-123300689D01*
X138715435Y-123206277D01*
X138718453Y-123202077D01*
X138744276Y-123149829D01*
X138815136Y-123006453D01*
X138815137Y-123006451D01*
X138817430Y-123001811D01*
X138882370Y-122788069D01*
X138911529Y-122566590D01*
X138911611Y-122563240D01*
X138913074Y-122503365D01*
X138913074Y-122503361D01*
X138913156Y-122500000D01*
X138910418Y-122466695D01*
X142187251Y-122466695D01*
X142187548Y-122471848D01*
X142187548Y-122471851D01*
X142193011Y-122566590D01*
X142200110Y-122689715D01*
X142201247Y-122694761D01*
X142201248Y-122694767D01*
X142210263Y-122734767D01*
X142249222Y-122907639D01*
X142333266Y-123114616D01*
X142449987Y-123305088D01*
X142596250Y-123473938D01*
X142768126Y-123616632D01*
X142961000Y-123729338D01*
X143169692Y-123809030D01*
X143174760Y-123810061D01*
X143174763Y-123810062D01*
X143282017Y-123831883D01*
X143388597Y-123853567D01*
X143393772Y-123853757D01*
X143393774Y-123853757D01*
X143606673Y-123861564D01*
X143606677Y-123861564D01*
X143611837Y-123861753D01*
X143616957Y-123861097D01*
X143616959Y-123861097D01*
X143828288Y-123834025D01*
X143828289Y-123834025D01*
X143833416Y-123833368D01*
X143909102Y-123810661D01*
X144042429Y-123770661D01*
X144042434Y-123770659D01*
X144047384Y-123769174D01*
X144247994Y-123670896D01*
X144429860Y-123541173D01*
X144457191Y-123513938D01*
X144584435Y-123387137D01*
X144588096Y-123383489D01*
X144647594Y-123300689D01*
X144715435Y-123206277D01*
X144718453Y-123202077D01*
X144744276Y-123149829D01*
X144815136Y-123006453D01*
X144815137Y-123006451D01*
X144817430Y-123001811D01*
X144882370Y-122788069D01*
X144911529Y-122566590D01*
X144911611Y-122563240D01*
X144912993Y-122506695D01*
X147912251Y-122506695D01*
X147912548Y-122511848D01*
X147912548Y-122511851D01*
X147918011Y-122606590D01*
X147925110Y-122729715D01*
X147926247Y-122734761D01*
X147926248Y-122734767D01*
X147938261Y-122788069D01*
X147974222Y-122947639D01*
X148058266Y-123154616D01*
X148174987Y-123345088D01*
X148321250Y-123513938D01*
X148493126Y-123656632D01*
X148686000Y-123769338D01*
X148894692Y-123849030D01*
X148899760Y-123850061D01*
X148899763Y-123850062D01*
X148956298Y-123861564D01*
X149113597Y-123893567D01*
X149118772Y-123893757D01*
X149118774Y-123893757D01*
X149331673Y-123901564D01*
X149331677Y-123901564D01*
X149336837Y-123901753D01*
X149341957Y-123901097D01*
X149341959Y-123901097D01*
X149553288Y-123874025D01*
X149553289Y-123874025D01*
X149558416Y-123873368D01*
X149563366Y-123871883D01*
X149767429Y-123810661D01*
X149767434Y-123810659D01*
X149772384Y-123809174D01*
X149972994Y-123710896D01*
X150154860Y-123581173D01*
X150313096Y-123423489D01*
X150339218Y-123387137D01*
X150440435Y-123246277D01*
X150443453Y-123242077D01*
X150461147Y-123206277D01*
X150540136Y-123046453D01*
X150540137Y-123046451D01*
X150542430Y-123041811D01*
X150607370Y-122828069D01*
X150636529Y-122606590D01*
X150637425Y-122569908D01*
X150638074Y-122543365D01*
X150638074Y-122543361D01*
X150638156Y-122540000D01*
X150635418Y-122506695D01*
X153437251Y-122506695D01*
X153437548Y-122511848D01*
X153437548Y-122511851D01*
X153443011Y-122606590D01*
X153450110Y-122729715D01*
X153451247Y-122734761D01*
X153451248Y-122734767D01*
X153463261Y-122788069D01*
X153499222Y-122947639D01*
X153583266Y-123154616D01*
X153699987Y-123345088D01*
X153846250Y-123513938D01*
X154018126Y-123656632D01*
X154211000Y-123769338D01*
X154419692Y-123849030D01*
X154424760Y-123850061D01*
X154424763Y-123850062D01*
X154481298Y-123861564D01*
X154638597Y-123893567D01*
X154643772Y-123893757D01*
X154643774Y-123893757D01*
X154856673Y-123901564D01*
X154856677Y-123901564D01*
X154861837Y-123901753D01*
X154866957Y-123901097D01*
X154866959Y-123901097D01*
X155078288Y-123874025D01*
X155078289Y-123874025D01*
X155083416Y-123873368D01*
X155088366Y-123871883D01*
X155292429Y-123810661D01*
X155292434Y-123810659D01*
X155297384Y-123809174D01*
X155497994Y-123710896D01*
X155679860Y-123581173D01*
X155838096Y-123423489D01*
X155864218Y-123387137D01*
X155965435Y-123246277D01*
X155968453Y-123242077D01*
X155986147Y-123206277D01*
X156065136Y-123046453D01*
X156065137Y-123046451D01*
X156067430Y-123041811D01*
X156132370Y-122828069D01*
X156161529Y-122606590D01*
X156162425Y-122569908D01*
X156163074Y-122543365D01*
X156163074Y-122543361D01*
X156163156Y-122540000D01*
X156160418Y-122506695D01*
X158912251Y-122506695D01*
X158912548Y-122511848D01*
X158912548Y-122511851D01*
X158918011Y-122606590D01*
X158925110Y-122729715D01*
X158926247Y-122734761D01*
X158926248Y-122734767D01*
X158938261Y-122788069D01*
X158974222Y-122947639D01*
X159058266Y-123154616D01*
X159174987Y-123345088D01*
X159321250Y-123513938D01*
X159493126Y-123656632D01*
X159686000Y-123769338D01*
X159894692Y-123849030D01*
X159899760Y-123850061D01*
X159899763Y-123850062D01*
X159956298Y-123861564D01*
X160113597Y-123893567D01*
X160118772Y-123893757D01*
X160118774Y-123893757D01*
X160331673Y-123901564D01*
X160331677Y-123901564D01*
X160336837Y-123901753D01*
X160341957Y-123901097D01*
X160341959Y-123901097D01*
X160553288Y-123874025D01*
X160553289Y-123874025D01*
X160558416Y-123873368D01*
X160563366Y-123871883D01*
X160767429Y-123810661D01*
X160767434Y-123810659D01*
X160772384Y-123809174D01*
X160972994Y-123710896D01*
X161154860Y-123581173D01*
X161313096Y-123423489D01*
X161339218Y-123387137D01*
X161440435Y-123246277D01*
X161443453Y-123242077D01*
X161461147Y-123206277D01*
X161540136Y-123046453D01*
X161540137Y-123046451D01*
X161542430Y-123041811D01*
X161607370Y-122828069D01*
X161636529Y-122606590D01*
X161637425Y-122569908D01*
X161638074Y-122543365D01*
X161638074Y-122543361D01*
X161638156Y-122540000D01*
X161635418Y-122506695D01*
X164912251Y-122506695D01*
X164912548Y-122511848D01*
X164912548Y-122511851D01*
X164918011Y-122606590D01*
X164925110Y-122729715D01*
X164926247Y-122734761D01*
X164926248Y-122734767D01*
X164938261Y-122788069D01*
X164974222Y-122947639D01*
X165058266Y-123154616D01*
X165174987Y-123345088D01*
X165321250Y-123513938D01*
X165493126Y-123656632D01*
X165686000Y-123769338D01*
X165894692Y-123849030D01*
X165899760Y-123850061D01*
X165899763Y-123850062D01*
X165956298Y-123861564D01*
X166113597Y-123893567D01*
X166118772Y-123893757D01*
X166118774Y-123893757D01*
X166331673Y-123901564D01*
X166331677Y-123901564D01*
X166336837Y-123901753D01*
X166341957Y-123901097D01*
X166341959Y-123901097D01*
X166553288Y-123874025D01*
X166553289Y-123874025D01*
X166558416Y-123873368D01*
X166563366Y-123871883D01*
X166767429Y-123810661D01*
X166767434Y-123810659D01*
X166772384Y-123809174D01*
X166972994Y-123710896D01*
X167154860Y-123581173D01*
X167313096Y-123423489D01*
X167339218Y-123387137D01*
X167440435Y-123246277D01*
X167443453Y-123242077D01*
X167461147Y-123206277D01*
X167540136Y-123046453D01*
X167540137Y-123046451D01*
X167542430Y-123041811D01*
X167607370Y-122828069D01*
X167636529Y-122606590D01*
X167637425Y-122569908D01*
X167638074Y-122543365D01*
X167638074Y-122543361D01*
X167638156Y-122540000D01*
X167619852Y-122317361D01*
X167565431Y-122100702D01*
X167476354Y-121895840D01*
X167355014Y-121708277D01*
X167351532Y-121704450D01*
X167207798Y-121546488D01*
X167176746Y-121482642D01*
X167185141Y-121412143D01*
X167230317Y-121357375D01*
X167256761Y-121343706D01*
X167363297Y-121303767D01*
X167371705Y-121300615D01*
X167488261Y-121213261D01*
X167575615Y-121096705D01*
X167626745Y-120960316D01*
X167633500Y-120898134D01*
X167633500Y-119101866D01*
X167626745Y-119039684D01*
X167575615Y-118903295D01*
X167488261Y-118786739D01*
X167371705Y-118699385D01*
X167235316Y-118648255D01*
X167173134Y-118641500D01*
X165376866Y-118641500D01*
X165314684Y-118648255D01*
X165178295Y-118699385D01*
X165061739Y-118786739D01*
X164974385Y-118903295D01*
X164923255Y-119039684D01*
X164916500Y-119101866D01*
X164916500Y-120898134D01*
X164923255Y-120960316D01*
X164974385Y-121096705D01*
X165061739Y-121213261D01*
X165178295Y-121300615D01*
X165186704Y-121303767D01*
X165186705Y-121303768D01*
X165295451Y-121344535D01*
X165352216Y-121387176D01*
X165376916Y-121453738D01*
X165361709Y-121523087D01*
X165342316Y-121549568D01*
X165249771Y-121646411D01*
X165215629Y-121682138D01*
X165089743Y-121866680D01*
X165074003Y-121900590D01*
X165016435Y-122024610D01*
X164995688Y-122069305D01*
X164935989Y-122284570D01*
X164912251Y-122506695D01*
X161635418Y-122506695D01*
X161619852Y-122317361D01*
X161565431Y-122100702D01*
X161476354Y-121895840D01*
X161355014Y-121708277D01*
X161351532Y-121704450D01*
X161207798Y-121546488D01*
X161176746Y-121482642D01*
X161185141Y-121412143D01*
X161230317Y-121357375D01*
X161256761Y-121343706D01*
X161363297Y-121303767D01*
X161371705Y-121300615D01*
X161488261Y-121213261D01*
X161575615Y-121096705D01*
X161626745Y-120960316D01*
X161633500Y-120898134D01*
X161633500Y-119101866D01*
X161626745Y-119039684D01*
X161575615Y-118903295D01*
X161488261Y-118786739D01*
X161371705Y-118699385D01*
X161235316Y-118648255D01*
X161173134Y-118641500D01*
X159376866Y-118641500D01*
X159314684Y-118648255D01*
X159178295Y-118699385D01*
X159061739Y-118786739D01*
X158974385Y-118903295D01*
X158923255Y-119039684D01*
X158916500Y-119101866D01*
X158916500Y-120898134D01*
X158923255Y-120960316D01*
X158974385Y-121096705D01*
X159061739Y-121213261D01*
X159178295Y-121300615D01*
X159186704Y-121303767D01*
X159186705Y-121303768D01*
X159295451Y-121344535D01*
X159352216Y-121387176D01*
X159376916Y-121453738D01*
X159361709Y-121523087D01*
X159342316Y-121549568D01*
X159249771Y-121646411D01*
X159215629Y-121682138D01*
X159089743Y-121866680D01*
X159074003Y-121900590D01*
X159016435Y-122024610D01*
X158995688Y-122069305D01*
X158935989Y-122284570D01*
X158912251Y-122506695D01*
X156160418Y-122506695D01*
X156144852Y-122317361D01*
X156090431Y-122100702D01*
X156001354Y-121895840D01*
X155880014Y-121708277D01*
X155876532Y-121704450D01*
X155732798Y-121546488D01*
X155701746Y-121482642D01*
X155710141Y-121412143D01*
X155755317Y-121357375D01*
X155781761Y-121343706D01*
X155888297Y-121303767D01*
X155896705Y-121300615D01*
X156013261Y-121213261D01*
X156100615Y-121096705D01*
X156151745Y-120960316D01*
X156158500Y-120898134D01*
X156158500Y-119101866D01*
X156151745Y-119039684D01*
X156100615Y-118903295D01*
X156013261Y-118786739D01*
X155896705Y-118699385D01*
X155760316Y-118648255D01*
X155698134Y-118641500D01*
X153901866Y-118641500D01*
X153839684Y-118648255D01*
X153703295Y-118699385D01*
X153586739Y-118786739D01*
X153499385Y-118903295D01*
X153448255Y-119039684D01*
X153441500Y-119101866D01*
X153441500Y-120898134D01*
X153448255Y-120960316D01*
X153499385Y-121096705D01*
X153586739Y-121213261D01*
X153703295Y-121300615D01*
X153711704Y-121303767D01*
X153711705Y-121303768D01*
X153820451Y-121344535D01*
X153877216Y-121387176D01*
X153901916Y-121453738D01*
X153886709Y-121523087D01*
X153867316Y-121549568D01*
X153774771Y-121646411D01*
X153740629Y-121682138D01*
X153614743Y-121866680D01*
X153599003Y-121900590D01*
X153541435Y-122024610D01*
X153520688Y-122069305D01*
X153460989Y-122284570D01*
X153437251Y-122506695D01*
X150635418Y-122506695D01*
X150619852Y-122317361D01*
X150565431Y-122100702D01*
X150476354Y-121895840D01*
X150355014Y-121708277D01*
X150351532Y-121704450D01*
X150207798Y-121546488D01*
X150176746Y-121482642D01*
X150185141Y-121412143D01*
X150230317Y-121357375D01*
X150256761Y-121343706D01*
X150363297Y-121303767D01*
X150371705Y-121300615D01*
X150488261Y-121213261D01*
X150575615Y-121096705D01*
X150626745Y-120960316D01*
X150633500Y-120898134D01*
X150633500Y-119101866D01*
X150626745Y-119039684D01*
X150575615Y-118903295D01*
X150488261Y-118786739D01*
X150371705Y-118699385D01*
X150235316Y-118648255D01*
X150173134Y-118641500D01*
X148376866Y-118641500D01*
X148314684Y-118648255D01*
X148178295Y-118699385D01*
X148061739Y-118786739D01*
X147974385Y-118903295D01*
X147923255Y-119039684D01*
X147916500Y-119101866D01*
X147916500Y-120898134D01*
X147923255Y-120960316D01*
X147974385Y-121096705D01*
X148061739Y-121213261D01*
X148178295Y-121300615D01*
X148186704Y-121303767D01*
X148186705Y-121303768D01*
X148295451Y-121344535D01*
X148352216Y-121387176D01*
X148376916Y-121453738D01*
X148361709Y-121523087D01*
X148342316Y-121549568D01*
X148249771Y-121646411D01*
X148215629Y-121682138D01*
X148089743Y-121866680D01*
X148074003Y-121900590D01*
X148016435Y-122024610D01*
X147995688Y-122069305D01*
X147935989Y-122284570D01*
X147912251Y-122506695D01*
X144912993Y-122506695D01*
X144913074Y-122503365D01*
X144913074Y-122503361D01*
X144913156Y-122500000D01*
X144894852Y-122277361D01*
X144840431Y-122060702D01*
X144751354Y-121855840D01*
X144655891Y-121708277D01*
X144632822Y-121672617D01*
X144632820Y-121672614D01*
X144630014Y-121668277D01*
X144626532Y-121664450D01*
X144482798Y-121506488D01*
X144451746Y-121442642D01*
X144460141Y-121372143D01*
X144505317Y-121317375D01*
X144531761Y-121303706D01*
X144638297Y-121263767D01*
X144646705Y-121260615D01*
X144763261Y-121173261D01*
X144850615Y-121056705D01*
X144901745Y-120920316D01*
X144908500Y-120858134D01*
X144908500Y-119061866D01*
X144901745Y-118999684D01*
X144850615Y-118863295D01*
X144763261Y-118746739D01*
X144646705Y-118659385D01*
X144510316Y-118608255D01*
X144448134Y-118601500D01*
X142651866Y-118601500D01*
X142589684Y-118608255D01*
X142453295Y-118659385D01*
X142336739Y-118746739D01*
X142249385Y-118863295D01*
X142198255Y-118999684D01*
X142191500Y-119061866D01*
X142191500Y-120858134D01*
X142198255Y-120920316D01*
X142249385Y-121056705D01*
X142336739Y-121173261D01*
X142453295Y-121260615D01*
X142461704Y-121263767D01*
X142461705Y-121263768D01*
X142570451Y-121304535D01*
X142627216Y-121347176D01*
X142651916Y-121413738D01*
X142636709Y-121483087D01*
X142617316Y-121509568D01*
X142490629Y-121642138D01*
X142364743Y-121826680D01*
X142270688Y-122029305D01*
X142210989Y-122244570D01*
X142187251Y-122466695D01*
X138910418Y-122466695D01*
X138894852Y-122277361D01*
X138840431Y-122060702D01*
X138751354Y-121855840D01*
X138655891Y-121708277D01*
X138632822Y-121672617D01*
X138632820Y-121672614D01*
X138630014Y-121668277D01*
X138626532Y-121664450D01*
X138482798Y-121506488D01*
X138451746Y-121442642D01*
X138460141Y-121372143D01*
X138505317Y-121317375D01*
X138531761Y-121303706D01*
X138638297Y-121263767D01*
X138646705Y-121260615D01*
X138763261Y-121173261D01*
X138850615Y-121056705D01*
X138901745Y-120920316D01*
X138908500Y-120858134D01*
X138908500Y-119061866D01*
X138901745Y-118999684D01*
X138850615Y-118863295D01*
X138763261Y-118746739D01*
X138646705Y-118659385D01*
X138510316Y-118608255D01*
X138448134Y-118601500D01*
X136651866Y-118601500D01*
X136589684Y-118608255D01*
X136453295Y-118659385D01*
X136336739Y-118746739D01*
X136249385Y-118863295D01*
X136198255Y-118999684D01*
X136191500Y-119061866D01*
X136191500Y-120858134D01*
X136198255Y-120920316D01*
X136249385Y-121056705D01*
X136336739Y-121173261D01*
X136453295Y-121260615D01*
X136461704Y-121263767D01*
X136461705Y-121263768D01*
X136570451Y-121304535D01*
X136627216Y-121347176D01*
X136651916Y-121413738D01*
X136636709Y-121483087D01*
X136617316Y-121509568D01*
X136490629Y-121642138D01*
X136364743Y-121826680D01*
X136270688Y-122029305D01*
X136210989Y-122244570D01*
X136187251Y-122466695D01*
X133435418Y-122466695D01*
X133419852Y-122277361D01*
X133365431Y-122060702D01*
X133276354Y-121855840D01*
X133180891Y-121708277D01*
X133157822Y-121672617D01*
X133157820Y-121672614D01*
X133155014Y-121668277D01*
X133151532Y-121664450D01*
X133007798Y-121506488D01*
X132976746Y-121442642D01*
X132985141Y-121372143D01*
X133030317Y-121317375D01*
X133056761Y-121303706D01*
X133163297Y-121263767D01*
X133171705Y-121260615D01*
X133288261Y-121173261D01*
X133375615Y-121056705D01*
X133426745Y-120920316D01*
X133433500Y-120858134D01*
X133433500Y-119061866D01*
X133426745Y-118999684D01*
X133375615Y-118863295D01*
X133288261Y-118746739D01*
X133171705Y-118659385D01*
X133035316Y-118608255D01*
X132973134Y-118601500D01*
X131176866Y-118601500D01*
X131114684Y-118608255D01*
X130978295Y-118659385D01*
X130861739Y-118746739D01*
X130774385Y-118863295D01*
X130723255Y-118999684D01*
X130716500Y-119061866D01*
X130716500Y-120858134D01*
X130723255Y-120920316D01*
X130774385Y-121056705D01*
X130861739Y-121173261D01*
X130978295Y-121260615D01*
X130986704Y-121263767D01*
X130986705Y-121263768D01*
X131095451Y-121304535D01*
X131152216Y-121347176D01*
X131176916Y-121413738D01*
X131161709Y-121483087D01*
X131142316Y-121509568D01*
X131015629Y-121642138D01*
X130889743Y-121826680D01*
X130795688Y-122029305D01*
X130735989Y-122244570D01*
X130712251Y-122466695D01*
X127910418Y-122466695D01*
X127894852Y-122277361D01*
X127840431Y-122060702D01*
X127751354Y-121855840D01*
X127655891Y-121708277D01*
X127632822Y-121672617D01*
X127632820Y-121672614D01*
X127630014Y-121668277D01*
X127626532Y-121664450D01*
X127482798Y-121506488D01*
X127451746Y-121442642D01*
X127460141Y-121372143D01*
X127505317Y-121317375D01*
X127531761Y-121303706D01*
X127638297Y-121263767D01*
X127646705Y-121260615D01*
X127763261Y-121173261D01*
X127850615Y-121056705D01*
X127901745Y-120920316D01*
X127908500Y-120858134D01*
X127908500Y-119061866D01*
X127901745Y-118999684D01*
X127850615Y-118863295D01*
X127763261Y-118746739D01*
X127646705Y-118659385D01*
X127510316Y-118608255D01*
X127448134Y-118601500D01*
X125651866Y-118601500D01*
X125589684Y-118608255D01*
X125453295Y-118659385D01*
X125336739Y-118746739D01*
X125249385Y-118863295D01*
X125198255Y-118999684D01*
X125191500Y-119061866D01*
X125191500Y-120858134D01*
X125198255Y-120920316D01*
X125249385Y-121056705D01*
X125336739Y-121173261D01*
X125453295Y-121260615D01*
X125461704Y-121263767D01*
X125461705Y-121263768D01*
X125570451Y-121304535D01*
X125627216Y-121347176D01*
X125651916Y-121413738D01*
X125636709Y-121483087D01*
X125617316Y-121509568D01*
X125490629Y-121642138D01*
X125364743Y-121826680D01*
X125270688Y-122029305D01*
X125210989Y-122244570D01*
X125187251Y-122466695D01*
X107992002Y-122466695D01*
X107990082Y-122453289D01*
X107988810Y-122435400D01*
X107988840Y-122322522D01*
X107992887Y-106833952D01*
X108012907Y-106765838D01*
X108066575Y-106719359D01*
X108119086Y-106709860D01*
X108119086Y-106708000D01*
X135366000Y-106708000D01*
X135434121Y-106728002D01*
X135480614Y-106781658D01*
X135492000Y-106834000D01*
X135492000Y-110674000D01*
X135503609Y-110781980D01*
X135514995Y-110834322D01*
X135549293Y-110937372D01*
X135627465Y-111059010D01*
X135673958Y-111112666D01*
X135677352Y-111115607D01*
X135700786Y-111135913D01*
X135783234Y-111207355D01*
X135914760Y-111267421D01*
X135938514Y-111274396D01*
X135978558Y-111286154D01*
X135978562Y-111286155D01*
X135982881Y-111287423D01*
X135987329Y-111288063D01*
X135987336Y-111288064D01*
X136121552Y-111307361D01*
X136121559Y-111307362D01*
X136126000Y-111308000D01*
X146274000Y-111308000D01*
X146381980Y-111296391D01*
X146385264Y-111295677D01*
X146385268Y-111295676D01*
X146410339Y-111290222D01*
X146434322Y-111285005D01*
X146537372Y-111250707D01*
X146544000Y-111246447D01*
X146544005Y-111246445D01*
X146582842Y-111221485D01*
X146650963Y-111201482D01*
X146703306Y-111212868D01*
X146822760Y-111267421D01*
X146846514Y-111274396D01*
X146886558Y-111286154D01*
X146886562Y-111286155D01*
X146890881Y-111287423D01*
X146895329Y-111288063D01*
X146895336Y-111288064D01*
X147029552Y-111307361D01*
X147029559Y-111307362D01*
X147034000Y-111308000D01*
X154674000Y-111308000D01*
X154781980Y-111296391D01*
X154785264Y-111295677D01*
X154785268Y-111295676D01*
X154810339Y-111290222D01*
X154834322Y-111285005D01*
X154937372Y-111250707D01*
X155059010Y-111172535D01*
X155112666Y-111126042D01*
X155124257Y-111112666D01*
X155201453Y-111023577D01*
X155207355Y-111016766D01*
X155267421Y-110885240D01*
X155287423Y-110817119D01*
X155288064Y-110812664D01*
X155307361Y-110678448D01*
X155307362Y-110678441D01*
X155308000Y-110674000D01*
X155308000Y-104819433D01*
X155332062Y-104745374D01*
X155334621Y-104741851D01*
X155339040Y-104736944D01*
X155434527Y-104571556D01*
X155493542Y-104389928D01*
X155513504Y-104200000D01*
X155493542Y-104010072D01*
X155444338Y-103858639D01*
X155442310Y-103787672D01*
X155478973Y-103726874D01*
X155542685Y-103695548D01*
X155563915Y-103693703D01*
X166746229Y-103671409D01*
X172062185Y-103660811D01*
X172062192Y-103660811D01*
X172065520Y-103660804D01*
X172085798Y-103658604D01*
X172169143Y-103649562D01*
X172169146Y-103649562D01*
X172172460Y-103649202D01*
X172175718Y-103648494D01*
X172175721Y-103648493D01*
X172221041Y-103638637D01*
X172221042Y-103638637D01*
X172224310Y-103637926D01*
X172227478Y-103636875D01*
X172227483Y-103636874D01*
X172318970Y-103606534D01*
X172318972Y-103606533D01*
X172326417Y-103604064D01*
X172448219Y-103526147D01*
X172451620Y-103523212D01*
X172451626Y-103523208D01*
X172479973Y-103498749D01*
X172501972Y-103479767D01*
X172596886Y-103370696D01*
X172657229Y-103239298D01*
X172677375Y-103171219D01*
X172698255Y-103028140D01*
X172705632Y-99524888D01*
X172725778Y-99456809D01*
X172785252Y-99408000D01*
X172799915Y-99402195D01*
X172811142Y-99398351D01*
X172845983Y-99388229D01*
X172845984Y-99388229D01*
X172853593Y-99386018D01*
X172860412Y-99381985D01*
X172860417Y-99381983D01*
X172871028Y-99375707D01*
X172888776Y-99367012D01*
X172907617Y-99359552D01*
X172943387Y-99333564D01*
X172953307Y-99327048D01*
X172984535Y-99308580D01*
X172984538Y-99308578D01*
X172991362Y-99304542D01*
X173005683Y-99290221D01*
X173020717Y-99277380D01*
X173030694Y-99270131D01*
X173037107Y-99265472D01*
X173065298Y-99231395D01*
X173073288Y-99222616D01*
X174792247Y-97503657D01*
X174800537Y-97496113D01*
X174807018Y-97492000D01*
X174853659Y-97442332D01*
X174856413Y-97439491D01*
X174876134Y-97419770D01*
X174878612Y-97416575D01*
X174886318Y-97407553D01*
X174911158Y-97381101D01*
X174916586Y-97375321D01*
X174926346Y-97357568D01*
X174937199Y-97341045D01*
X174944753Y-97331306D01*
X174949613Y-97325041D01*
X174967176Y-97284457D01*
X174972383Y-97273827D01*
X174993695Y-97235060D01*
X174995666Y-97227383D01*
X174995668Y-97227378D01*
X174998732Y-97215442D01*
X175005138Y-97196730D01*
X175010034Y-97185417D01*
X175013181Y-97178145D01*
X175020097Y-97134481D01*
X175022504Y-97122860D01*
X175031528Y-97087711D01*
X175031528Y-97087710D01*
X175033500Y-97080030D01*
X175033500Y-97059769D01*
X175035051Y-97040058D01*
X175036979Y-97027885D01*
X175038219Y-97020057D01*
X175034059Y-96976046D01*
X175033500Y-96964189D01*
X175033500Y-90136278D01*
X175053502Y-90068157D01*
X175107158Y-90021664D01*
X175177432Y-90011560D01*
X175210747Y-90021171D01*
X175317712Y-90068794D01*
X175383365Y-90082749D01*
X175498056Y-90107128D01*
X175498061Y-90107128D01*
X175504513Y-90108500D01*
X175695487Y-90108500D01*
X175701939Y-90107128D01*
X175701944Y-90107128D01*
X175816635Y-90082749D01*
X175882288Y-90068794D01*
X175909234Y-90056797D01*
X176050722Y-89993803D01*
X176050724Y-89993802D01*
X176056752Y-89991118D01*
X176071345Y-89980516D01*
X176120949Y-89944476D01*
X176211253Y-89878866D01*
X176313534Y-89765271D01*
X176334621Y-89741852D01*
X176334622Y-89741851D01*
X176339040Y-89736944D01*
X176434527Y-89571556D01*
X176455355Y-89507454D01*
X176495429Y-89448849D01*
X176560826Y-89421212D01*
X176630782Y-89433319D01*
X176683088Y-89481325D01*
X176700498Y-89533221D01*
X176705129Y-89577279D01*
X176706458Y-89589928D01*
X176765473Y-89771556D01*
X176860960Y-89936944D01*
X176865378Y-89941851D01*
X176865379Y-89941852D01*
X176979285Y-90068357D01*
X176988747Y-90078866D01*
X177061424Y-90131669D01*
X177120530Y-90174612D01*
X177143248Y-90191118D01*
X177149276Y-90193802D01*
X177149278Y-90193803D01*
X177151248Y-90194680D01*
X177317712Y-90268794D01*
X177411113Y-90288647D01*
X177498056Y-90307128D01*
X177498061Y-90307128D01*
X177504513Y-90308500D01*
X177695487Y-90308500D01*
X177701939Y-90307128D01*
X177701944Y-90307128D01*
X177788887Y-90288647D01*
X177882288Y-90268794D01*
X178048752Y-90194680D01*
X178119118Y-90185246D01*
X178151247Y-90194680D01*
X178317712Y-90268794D01*
X178411113Y-90288647D01*
X178498056Y-90307128D01*
X178498061Y-90307128D01*
X178504513Y-90308500D01*
X178695487Y-90308500D01*
X178701939Y-90307128D01*
X178701944Y-90307128D01*
X178788887Y-90288647D01*
X178882288Y-90268794D01*
X179048752Y-90194680D01*
X179050722Y-90193803D01*
X179050724Y-90193802D01*
X179056752Y-90191118D01*
X179064834Y-90185246D01*
X179205909Y-90082749D01*
X179205911Y-90082747D01*
X179211253Y-90078866D01*
X179215675Y-90073955D01*
X179215687Y-90073944D01*
X179279694Y-90043225D01*
X179350148Y-90051987D01*
X179384313Y-90073944D01*
X179384325Y-90073955D01*
X179388747Y-90078866D01*
X179394089Y-90082747D01*
X179394091Y-90082749D01*
X179535166Y-90185246D01*
X179543248Y-90191118D01*
X179549276Y-90193802D01*
X179549278Y-90193803D01*
X179551248Y-90194680D01*
X179717712Y-90268794D01*
X179811113Y-90288647D01*
X179898056Y-90307128D01*
X179898061Y-90307128D01*
X179904513Y-90308500D01*
X180095487Y-90308500D01*
X180101939Y-90307128D01*
X180101944Y-90307128D01*
X180188887Y-90288647D01*
X180282288Y-90268794D01*
X180448752Y-90194680D01*
X180519118Y-90185246D01*
X180551247Y-90194680D01*
X180717712Y-90268794D01*
X180811113Y-90288647D01*
X180898056Y-90307128D01*
X180898061Y-90307128D01*
X180904513Y-90308500D01*
X181095487Y-90308500D01*
X181101939Y-90307128D01*
X181101944Y-90307128D01*
X181188887Y-90288647D01*
X181282288Y-90268794D01*
X181448752Y-90194680D01*
X181450722Y-90193803D01*
X181450724Y-90193802D01*
X181456752Y-90191118D01*
X181479471Y-90174612D01*
X181538576Y-90131669D01*
X181611253Y-90078866D01*
X181620715Y-90068357D01*
X181734621Y-89941852D01*
X181734622Y-89941851D01*
X181739040Y-89936944D01*
X181834527Y-89771556D01*
X181893542Y-89589928D01*
X181894872Y-89577279D01*
X181912814Y-89406565D01*
X181913504Y-89400000D01*
X181912445Y-89389928D01*
X181894232Y-89216635D01*
X181894232Y-89216633D01*
X181893542Y-89210072D01*
X181834527Y-89028444D01*
X181803507Y-88974715D01*
X181742341Y-88868774D01*
X181739040Y-88863056D01*
X181634149Y-88746562D01*
X181615675Y-88726045D01*
X181615674Y-88726044D01*
X181611253Y-88721134D01*
X181512157Y-88649136D01*
X181462094Y-88612763D01*
X181462093Y-88612762D01*
X181456752Y-88608882D01*
X181450724Y-88606198D01*
X181450722Y-88606197D01*
X181288319Y-88533891D01*
X181288318Y-88533891D01*
X181282288Y-88531206D01*
X181188888Y-88511353D01*
X181101944Y-88492872D01*
X181101939Y-88492872D01*
X181095487Y-88491500D01*
X180904513Y-88491500D01*
X180898061Y-88492872D01*
X180898056Y-88492872D01*
X180811112Y-88511353D01*
X180717712Y-88531206D01*
X180711682Y-88533891D01*
X180711681Y-88533891D01*
X180684839Y-88545842D01*
X180551248Y-88605320D01*
X180480882Y-88614754D01*
X180448753Y-88605320D01*
X180315161Y-88545842D01*
X180288319Y-88533891D01*
X180288318Y-88533891D01*
X180282288Y-88531206D01*
X180188888Y-88511353D01*
X180101944Y-88492872D01*
X180101939Y-88492872D01*
X180095487Y-88491500D01*
X179904513Y-88491500D01*
X179898061Y-88492872D01*
X179898056Y-88492872D01*
X179811112Y-88511353D01*
X179717712Y-88531206D01*
X179711682Y-88533891D01*
X179711681Y-88533891D01*
X179549278Y-88606197D01*
X179549276Y-88606198D01*
X179543248Y-88608882D01*
X179537907Y-88612762D01*
X179537906Y-88612763D01*
X179475433Y-88658153D01*
X179388747Y-88721134D01*
X179384325Y-88726045D01*
X179384313Y-88726056D01*
X179320306Y-88756775D01*
X179249852Y-88748013D01*
X179215687Y-88726056D01*
X179215675Y-88726045D01*
X179211253Y-88721134D01*
X179124568Y-88658153D01*
X179062094Y-88612763D01*
X179062093Y-88612762D01*
X179056752Y-88608882D01*
X179050724Y-88606198D01*
X179050722Y-88606197D01*
X178888319Y-88533891D01*
X178888318Y-88533891D01*
X178882288Y-88531206D01*
X178788888Y-88511353D01*
X178701944Y-88492872D01*
X178701939Y-88492872D01*
X178695487Y-88491500D01*
X178504513Y-88491500D01*
X178498061Y-88492872D01*
X178498056Y-88492872D01*
X178411112Y-88511353D01*
X178317712Y-88531206D01*
X178311682Y-88533891D01*
X178311681Y-88533891D01*
X178284839Y-88545842D01*
X178151248Y-88605320D01*
X178080882Y-88614754D01*
X178048753Y-88605320D01*
X177915161Y-88545842D01*
X177888319Y-88533891D01*
X177888318Y-88533891D01*
X177882288Y-88531206D01*
X177788888Y-88511353D01*
X177701944Y-88492872D01*
X177701939Y-88492872D01*
X177695487Y-88491500D01*
X177504513Y-88491500D01*
X177498061Y-88492872D01*
X177498056Y-88492872D01*
X177411112Y-88511353D01*
X177317712Y-88531206D01*
X177311682Y-88533891D01*
X177311681Y-88533891D01*
X177149278Y-88606197D01*
X177149276Y-88606198D01*
X177143248Y-88608882D01*
X177137907Y-88612762D01*
X177137906Y-88612763D01*
X177087843Y-88649136D01*
X176988747Y-88721134D01*
X176984326Y-88726044D01*
X176984325Y-88726045D01*
X176965852Y-88746562D01*
X176860960Y-88863056D01*
X176857659Y-88868774D01*
X176796494Y-88974715D01*
X176765473Y-89028444D01*
X176750974Y-89073069D01*
X176744645Y-89092546D01*
X176704571Y-89151151D01*
X176639174Y-89178788D01*
X176569218Y-89166681D01*
X176516912Y-89118675D01*
X176499502Y-89066779D01*
X176494232Y-89016635D01*
X176494232Y-89016633D01*
X176493542Y-89010072D01*
X176434527Y-88828444D01*
X176429478Y-88819698D01*
X176372571Y-88721134D01*
X176339040Y-88663056D01*
X176273974Y-88590793D01*
X176243257Y-88526785D01*
X176252022Y-88456332D01*
X176278516Y-88417388D01*
X176425499Y-88270405D01*
X176487811Y-88236379D01*
X176514594Y-88233500D01*
X182066233Y-88233500D01*
X182077421Y-88234028D01*
X182084909Y-88235702D01*
X182090103Y-88235539D01*
X182154912Y-88261415D01*
X182196146Y-88319210D01*
X182198531Y-88394200D01*
X182160989Y-88529570D01*
X182137251Y-88751695D01*
X182137548Y-88756848D01*
X182137548Y-88756851D01*
X182149812Y-88969547D01*
X182150110Y-88974715D01*
X182151247Y-88979761D01*
X182151248Y-88979767D01*
X182163634Y-89034726D01*
X182199222Y-89192639D01*
X182283266Y-89399616D01*
X182296500Y-89421212D01*
X182392138Y-89577279D01*
X182399987Y-89590088D01*
X182546250Y-89758938D01*
X182718126Y-89901632D01*
X182786955Y-89941852D01*
X182791445Y-89944476D01*
X182840169Y-89996114D01*
X182853240Y-90065897D01*
X182826509Y-90131669D01*
X182786055Y-90165027D01*
X182773607Y-90171507D01*
X182769474Y-90174610D01*
X182769471Y-90174612D01*
X182642205Y-90270166D01*
X182594965Y-90305635D01*
X182440629Y-90467138D01*
X182314743Y-90651680D01*
X182220688Y-90854305D01*
X182160989Y-91069570D01*
X182137251Y-91291695D01*
X182137548Y-91296848D01*
X182137548Y-91296851D01*
X182143011Y-91391590D01*
X182150110Y-91514715D01*
X182151247Y-91519761D01*
X182151248Y-91519767D01*
X182171119Y-91607939D01*
X182199222Y-91732639D01*
X182283266Y-91939616D01*
X182399987Y-92130088D01*
X182546250Y-92298938D01*
X182718126Y-92441632D01*
X182911000Y-92554338D01*
X183119692Y-92634030D01*
X183124760Y-92635061D01*
X183124763Y-92635062D01*
X183232012Y-92656882D01*
X183338597Y-92678567D01*
X183343772Y-92678757D01*
X183343774Y-92678757D01*
X183556673Y-92686564D01*
X183556677Y-92686564D01*
X183561837Y-92686753D01*
X183566957Y-92686097D01*
X183566959Y-92686097D01*
X183778288Y-92659025D01*
X183778289Y-92659025D01*
X183783416Y-92658368D01*
X183788367Y-92656883D01*
X183788370Y-92656882D01*
X183829829Y-92644444D01*
X183900825Y-92644028D01*
X183955131Y-92676035D01*
X184329595Y-93050499D01*
X184363621Y-93112811D01*
X184366500Y-93139594D01*
X184366500Y-98986639D01*
X184346498Y-99054760D01*
X184292842Y-99101253D01*
X184222568Y-99111357D01*
X184166440Y-99088576D01*
X184068527Y-99017437D01*
X184062094Y-99012763D01*
X184062093Y-99012762D01*
X184056752Y-99008882D01*
X184050724Y-99006198D01*
X184050722Y-99006197D01*
X183888319Y-98933891D01*
X183888318Y-98933891D01*
X183882288Y-98931206D01*
X183788887Y-98911353D01*
X183701944Y-98892872D01*
X183701939Y-98892872D01*
X183695487Y-98891500D01*
X183504513Y-98891500D01*
X183498061Y-98892872D01*
X183498056Y-98892872D01*
X183411112Y-98911353D01*
X183317712Y-98931206D01*
X183311682Y-98933891D01*
X183311681Y-98933891D01*
X183149278Y-99006197D01*
X183149276Y-99006198D01*
X183143248Y-99008882D01*
X183137909Y-99012761D01*
X183137902Y-99012765D01*
X183131472Y-99017437D01*
X183057413Y-99041500D01*
X174994494Y-99041500D01*
X174943245Y-99030607D01*
X174838319Y-98983891D01*
X174838318Y-98983891D01*
X174832288Y-98981206D01*
X174738887Y-98961353D01*
X174651944Y-98942872D01*
X174651939Y-98942872D01*
X174645487Y-98941500D01*
X174454513Y-98941500D01*
X174448061Y-98942872D01*
X174448056Y-98942872D01*
X174361113Y-98961353D01*
X174267712Y-98981206D01*
X174261682Y-98983891D01*
X174261681Y-98983891D01*
X174099278Y-99056197D01*
X174099276Y-99056198D01*
X174093248Y-99058882D01*
X173938747Y-99171134D01*
X173934326Y-99176044D01*
X173934325Y-99176045D01*
X173859303Y-99259366D01*
X173810960Y-99313056D01*
X173715473Y-99478444D01*
X173656458Y-99660072D01*
X173636496Y-99850000D01*
X173656458Y-100039928D01*
X173715473Y-100221556D01*
X173810960Y-100386944D01*
X173938747Y-100528866D01*
X174093248Y-100641118D01*
X174099276Y-100643802D01*
X174099278Y-100643803D01*
X174244591Y-100708500D01*
X174267712Y-100718794D01*
X174361113Y-100738647D01*
X174448056Y-100757128D01*
X174448061Y-100757128D01*
X174454513Y-100758500D01*
X174645487Y-100758500D01*
X174651939Y-100757128D01*
X174651944Y-100757128D01*
X174738888Y-100738647D01*
X174832288Y-100718794D01*
X174855409Y-100708500D01*
X175000722Y-100643803D01*
X175000724Y-100643802D01*
X175006752Y-100641118D01*
X175087344Y-100582564D01*
X175154211Y-100558706D01*
X175161405Y-100558500D01*
X183057413Y-100558500D01*
X183131472Y-100582563D01*
X183137902Y-100587235D01*
X183137909Y-100587239D01*
X183143248Y-100591118D01*
X183149276Y-100593802D01*
X183149278Y-100593803D01*
X183246833Y-100637237D01*
X183317712Y-100668794D01*
X183411112Y-100688647D01*
X183498056Y-100707128D01*
X183498061Y-100707128D01*
X183504513Y-100708500D01*
X183695487Y-100708500D01*
X183701939Y-100707128D01*
X183701944Y-100707128D01*
X183788887Y-100688647D01*
X183882288Y-100668794D01*
X183953167Y-100637237D01*
X184050722Y-100593803D01*
X184050724Y-100593802D01*
X184056752Y-100591118D01*
X184062097Y-100587235D01*
X184101647Y-100558500D01*
X184166440Y-100511425D01*
X184233306Y-100487567D01*
X184302458Y-100503647D01*
X184351938Y-100554560D01*
X184366500Y-100613361D01*
X184366500Y-106393508D01*
X184346498Y-106461629D01*
X184292842Y-106508122D01*
X184222568Y-106518226D01*
X184214303Y-106516755D01*
X184101944Y-106492872D01*
X184101939Y-106492872D01*
X184095487Y-106491500D01*
X183904513Y-106491500D01*
X183898061Y-106492872D01*
X183898056Y-106492872D01*
X183826313Y-106508122D01*
X183717712Y-106531206D01*
X183711682Y-106533891D01*
X183711681Y-106533891D01*
X183549278Y-106606197D01*
X183549276Y-106606198D01*
X183543248Y-106608882D01*
X183537907Y-106612762D01*
X183537906Y-106612763D01*
X183474061Y-106659149D01*
X183407193Y-106683008D01*
X183338041Y-106666927D01*
X183325939Y-106659149D01*
X183262094Y-106612763D01*
X183262093Y-106612762D01*
X183256752Y-106608882D01*
X183250724Y-106606198D01*
X183250722Y-106606197D01*
X183088319Y-106533891D01*
X183088318Y-106533891D01*
X183082288Y-106531206D01*
X182973687Y-106508122D01*
X182901944Y-106492872D01*
X182901939Y-106492872D01*
X182895487Y-106491500D01*
X182704513Y-106491500D01*
X182698061Y-106492872D01*
X182698056Y-106492872D01*
X182626313Y-106508122D01*
X182517712Y-106531206D01*
X182511682Y-106533891D01*
X182511681Y-106533891D01*
X182349278Y-106606197D01*
X182349276Y-106606198D01*
X182343248Y-106608882D01*
X182188747Y-106721134D01*
X182060960Y-106863056D01*
X181965473Y-107028444D01*
X181906458Y-107210072D01*
X181886496Y-107400000D01*
X181906458Y-107589928D01*
X181965473Y-107771556D01*
X182060960Y-107936944D01*
X182188747Y-108078866D01*
X182343248Y-108191118D01*
X182349276Y-108193802D01*
X182349278Y-108193803D01*
X182511681Y-108266109D01*
X182517712Y-108268794D01*
X182611112Y-108288647D01*
X182698056Y-108307128D01*
X182698061Y-108307128D01*
X182704513Y-108308500D01*
X182895487Y-108308500D01*
X182901939Y-108307128D01*
X182901944Y-108307128D01*
X182988888Y-108288647D01*
X183082288Y-108268794D01*
X183088319Y-108266109D01*
X183250722Y-108193803D01*
X183250724Y-108193802D01*
X183256752Y-108191118D01*
X183262094Y-108187237D01*
X183325939Y-108140851D01*
X183392807Y-108116992D01*
X183461959Y-108133073D01*
X183474061Y-108140851D01*
X183537906Y-108187237D01*
X183543248Y-108191118D01*
X183549276Y-108193802D01*
X183549278Y-108193803D01*
X183711681Y-108266109D01*
X183717712Y-108268794D01*
X183811112Y-108288647D01*
X183898056Y-108307128D01*
X183898061Y-108307128D01*
X183904513Y-108308500D01*
X184095487Y-108308500D01*
X184101939Y-108307128D01*
X184101944Y-108307128D01*
X184214303Y-108283245D01*
X184285094Y-108288647D01*
X184341727Y-108331464D01*
X184366220Y-108398102D01*
X184366500Y-108406492D01*
X184366500Y-108897476D01*
X184346498Y-108965597D01*
X184334142Y-108981779D01*
X184260960Y-109063056D01*
X184165473Y-109228444D01*
X184106458Y-109410072D01*
X184086496Y-109600000D01*
X184106458Y-109789928D01*
X184165473Y-109971556D01*
X184260960Y-110136944D01*
X184388747Y-110278866D01*
X184543248Y-110391118D01*
X184549276Y-110393802D01*
X184549278Y-110393803D01*
X184711681Y-110466109D01*
X184717712Y-110468794D01*
X184811113Y-110488647D01*
X184898056Y-110507128D01*
X184898061Y-110507128D01*
X184904513Y-110508500D01*
X185095487Y-110508500D01*
X185101939Y-110507128D01*
X185101944Y-110507128D01*
X185188888Y-110488647D01*
X185282288Y-110468794D01*
X185288319Y-110466109D01*
X185450722Y-110393803D01*
X185450724Y-110393802D01*
X185456752Y-110391118D01*
X185611253Y-110278866D01*
X185739040Y-110136944D01*
X185834527Y-109971556D01*
X185893542Y-109789928D01*
X185913504Y-109600000D01*
X185893542Y-109410072D01*
X185834527Y-109228444D01*
X185739040Y-109063056D01*
X185665863Y-108981785D01*
X185635147Y-108917779D01*
X185633500Y-108897476D01*
X185633500Y-92903763D01*
X185634027Y-92892579D01*
X185635701Y-92885091D01*
X185633562Y-92817032D01*
X185633500Y-92813075D01*
X185633500Y-92785144D01*
X185632994Y-92781138D01*
X185632061Y-92769292D01*
X185630922Y-92733037D01*
X185630673Y-92725110D01*
X185625022Y-92705658D01*
X185621014Y-92686306D01*
X185619467Y-92674063D01*
X185618474Y-92666203D01*
X185614784Y-92656882D01*
X185602200Y-92625097D01*
X185598355Y-92613870D01*
X185597721Y-92611687D01*
X185586018Y-92571407D01*
X185581984Y-92564585D01*
X185581981Y-92564579D01*
X185575706Y-92553968D01*
X185567010Y-92536218D01*
X185562472Y-92524756D01*
X185562469Y-92524751D01*
X185559552Y-92517383D01*
X185533573Y-92481625D01*
X185527057Y-92471707D01*
X185508575Y-92440457D01*
X185504542Y-92433637D01*
X185490218Y-92419313D01*
X185477376Y-92404278D01*
X185465472Y-92387893D01*
X185431406Y-92359711D01*
X185422627Y-92351722D01*
X184851218Y-91780313D01*
X184817192Y-91718001D01*
X184819755Y-91654589D01*
X184830865Y-91618022D01*
X184832370Y-91613069D01*
X184861529Y-91391590D01*
X184863156Y-91325000D01*
X184844852Y-91102361D01*
X184790431Y-90885702D01*
X184701354Y-90680840D01*
X184580014Y-90493277D01*
X184429670Y-90328051D01*
X184425619Y-90324852D01*
X184425615Y-90324848D01*
X184258414Y-90192800D01*
X184258410Y-90192798D01*
X184254359Y-90189598D01*
X184213053Y-90166796D01*
X184163084Y-90116364D01*
X184148312Y-90046921D01*
X184173428Y-89980516D01*
X184200780Y-89953909D01*
X184260402Y-89911381D01*
X184379860Y-89826173D01*
X184538096Y-89668489D01*
X184594548Y-89589928D01*
X184665435Y-89491277D01*
X184668453Y-89487077D01*
X184687347Y-89448849D01*
X184765136Y-89291453D01*
X184765137Y-89291451D01*
X184767430Y-89286811D01*
X184818514Y-89118675D01*
X184830865Y-89078023D01*
X184830865Y-89078021D01*
X184832370Y-89073069D01*
X184861529Y-88851590D01*
X184862095Y-88828444D01*
X184863074Y-88788365D01*
X184863074Y-88788361D01*
X184863156Y-88785000D01*
X184844852Y-88562361D01*
X184790431Y-88345702D01*
X184701354Y-88140840D01*
X184580014Y-87953277D01*
X184429670Y-87788051D01*
X184425619Y-87784852D01*
X184425615Y-87784848D01*
X184258414Y-87652800D01*
X184258410Y-87652798D01*
X184254359Y-87649598D01*
X184213053Y-87626796D01*
X184163084Y-87576364D01*
X184148312Y-87506921D01*
X184173428Y-87440516D01*
X184200780Y-87413909D01*
X184244603Y-87382650D01*
X184379860Y-87286173D01*
X184538096Y-87128489D01*
X184546501Y-87116793D01*
X184665435Y-86951277D01*
X184668453Y-86947077D01*
X184767430Y-86746811D01*
X184832370Y-86533069D01*
X184861529Y-86311590D01*
X184863156Y-86245000D01*
X184844852Y-86022361D01*
X184790431Y-85805702D01*
X184701354Y-85600840D01*
X184580014Y-85413277D01*
X184429670Y-85248051D01*
X184425619Y-85244852D01*
X184425615Y-85244848D01*
X184258414Y-85112800D01*
X184258410Y-85112798D01*
X184254359Y-85109598D01*
X184213053Y-85086796D01*
X184163084Y-85036364D01*
X184148312Y-84966921D01*
X184173428Y-84900516D01*
X184200780Y-84873909D01*
X184244603Y-84842650D01*
X184379860Y-84746173D01*
X184538096Y-84588489D01*
X184597594Y-84505689D01*
X184665435Y-84411277D01*
X184668453Y-84407077D01*
X184767430Y-84206811D01*
X184832370Y-83993069D01*
X184861529Y-83771590D01*
X184863156Y-83705000D01*
X184844852Y-83482361D01*
X184790431Y-83265702D01*
X184701354Y-83060840D01*
X184580014Y-82873277D01*
X184429670Y-82708051D01*
X184425619Y-82704852D01*
X184425615Y-82704848D01*
X184258414Y-82572800D01*
X184258410Y-82572798D01*
X184254359Y-82569598D01*
X184213053Y-82546796D01*
X184163084Y-82496364D01*
X184148312Y-82426921D01*
X184173428Y-82360516D01*
X184200780Y-82333909D01*
X184244603Y-82302650D01*
X184379860Y-82206173D01*
X184538096Y-82048489D01*
X184597594Y-81965689D01*
X184665435Y-81871277D01*
X184668453Y-81867077D01*
X184684554Y-81834500D01*
X184765136Y-81671453D01*
X184765137Y-81671451D01*
X184767430Y-81666811D01*
X184816585Y-81505024D01*
X184830865Y-81458023D01*
X184830865Y-81458021D01*
X184832370Y-81453069D01*
X184861529Y-81231590D01*
X184863156Y-81165000D01*
X184844852Y-80942361D01*
X184790431Y-80725702D01*
X184701354Y-80520840D01*
X184637879Y-80422723D01*
X184582822Y-80337617D01*
X184582820Y-80337614D01*
X184580014Y-80333277D01*
X184563771Y-80315426D01*
X184432798Y-80171488D01*
X184401746Y-80107642D01*
X184410141Y-80037143D01*
X184455317Y-79982375D01*
X184481761Y-79968706D01*
X184588297Y-79928767D01*
X184596705Y-79925615D01*
X184713261Y-79838261D01*
X184800615Y-79721705D01*
X184851745Y-79585316D01*
X184858500Y-79523134D01*
X184858500Y-77726866D01*
X184851745Y-77664684D01*
X184800615Y-77528295D01*
X184713261Y-77411739D01*
X184596705Y-77324385D01*
X184460316Y-77273255D01*
X184398134Y-77266500D01*
X182601866Y-77266500D01*
X182539684Y-77273255D01*
X182403295Y-77324385D01*
X182286739Y-77411739D01*
X182199385Y-77528295D01*
X182148255Y-77664684D01*
X182141500Y-77726866D01*
X182141500Y-77865500D01*
X182121498Y-77933621D01*
X182067842Y-77980114D01*
X182015500Y-77991500D01*
X178853763Y-77991500D01*
X178842579Y-77990973D01*
X178835091Y-77989299D01*
X178827168Y-77989548D01*
X178767033Y-77991438D01*
X178763075Y-77991500D01*
X178735144Y-77991500D01*
X178731229Y-77991995D01*
X178731225Y-77991995D01*
X178731167Y-77992003D01*
X178731138Y-77992006D01*
X178719296Y-77992939D01*
X178675110Y-77994327D01*
X178657744Y-77999372D01*
X178655658Y-77999978D01*
X178636306Y-78003986D01*
X178629235Y-78004880D01*
X178616203Y-78006526D01*
X178608834Y-78009443D01*
X178608832Y-78009444D01*
X178575097Y-78022800D01*
X178563869Y-78026645D01*
X178521407Y-78038982D01*
X178514585Y-78043016D01*
X178514579Y-78043019D01*
X178503968Y-78049294D01*
X178486218Y-78057990D01*
X178474756Y-78062528D01*
X178474751Y-78062531D01*
X178467383Y-78065448D01*
X178460968Y-78070109D01*
X178431625Y-78091427D01*
X178421707Y-78097943D01*
X178403019Y-78108995D01*
X178383637Y-78120458D01*
X178369313Y-78134782D01*
X178354281Y-78147621D01*
X178337893Y-78159528D01*
X178309712Y-78193593D01*
X178301722Y-78202373D01*
X174007747Y-82496348D01*
X173999461Y-82503888D01*
X173992982Y-82508000D01*
X173987557Y-82513777D01*
X173946357Y-82557651D01*
X173943602Y-82560493D01*
X173923865Y-82580230D01*
X173921385Y-82583427D01*
X173913682Y-82592447D01*
X173883414Y-82624679D01*
X173879595Y-82631625D01*
X173879593Y-82631628D01*
X173873652Y-82642434D01*
X173862801Y-82658953D01*
X173850386Y-82674959D01*
X173847241Y-82682228D01*
X173847238Y-82682232D01*
X173832826Y-82715537D01*
X173827609Y-82726187D01*
X173806305Y-82764940D01*
X173804334Y-82772615D01*
X173804334Y-82772616D01*
X173801267Y-82784562D01*
X173794863Y-82803266D01*
X173786819Y-82821855D01*
X173785580Y-82829678D01*
X173785577Y-82829688D01*
X173779901Y-82865524D01*
X173777495Y-82877144D01*
X173766500Y-82919970D01*
X173766500Y-82940224D01*
X173764949Y-82959934D01*
X173761780Y-82979943D01*
X173762526Y-82987835D01*
X173765941Y-83023961D01*
X173766500Y-83035819D01*
X173766500Y-96685405D01*
X173746498Y-96753526D01*
X173729595Y-96774500D01*
X172600636Y-97903459D01*
X172538324Y-97937485D01*
X172467509Y-97932420D01*
X172422263Y-97903277D01*
X171862332Y-97341045D01*
X171749787Y-97228037D01*
X171715890Y-97165656D01*
X171721100Y-97094851D01*
X171749970Y-97050030D01*
X172800000Y-96000000D01*
X172794489Y-95994489D01*
X172793215Y-95976669D01*
X172782998Y-95941876D01*
X172802999Y-95873755D01*
X172819903Y-95852779D01*
X172988915Y-95683767D01*
X173003327Y-95671380D01*
X173014923Y-95662846D01*
X173020818Y-95658508D01*
X173025557Y-95652930D01*
X173025560Y-95652927D01*
X173055035Y-95618232D01*
X173061965Y-95610716D01*
X173067660Y-95605021D01*
X173085281Y-95582749D01*
X173088072Y-95579345D01*
X173130591Y-95529297D01*
X173130592Y-95529295D01*
X173135333Y-95523715D01*
X173138661Y-95517199D01*
X173142028Y-95512150D01*
X173145195Y-95507021D01*
X173149734Y-95501284D01*
X173180655Y-95435125D01*
X173182561Y-95431225D01*
X173215769Y-95366192D01*
X173217508Y-95359084D01*
X173219607Y-95353441D01*
X173221524Y-95347678D01*
X173224622Y-95341050D01*
X173239487Y-95269583D01*
X173240457Y-95265299D01*
X173256473Y-95199845D01*
X173257808Y-95194390D01*
X173258500Y-95183236D01*
X173258536Y-95183238D01*
X173258775Y-95179245D01*
X173259149Y-95175053D01*
X173260640Y-95167885D01*
X173258546Y-95090479D01*
X173258500Y-95087072D01*
X173258500Y-83817070D01*
X173259933Y-83798120D01*
X173262099Y-83783885D01*
X173262099Y-83783881D01*
X173263199Y-83776651D01*
X173258915Y-83723982D01*
X173258500Y-83713767D01*
X173258500Y-83705707D01*
X173255209Y-83677480D01*
X173254778Y-83673121D01*
X173249454Y-83607662D01*
X173249453Y-83607659D01*
X173248860Y-83600364D01*
X173246604Y-83593400D01*
X173245417Y-83587461D01*
X173244030Y-83581590D01*
X173243182Y-83574319D01*
X173240686Y-83567443D01*
X173240684Y-83567434D01*
X173218275Y-83505702D01*
X173216865Y-83501598D01*
X173194352Y-83432101D01*
X173190556Y-83425846D01*
X173188057Y-83420387D01*
X173185329Y-83414939D01*
X173182833Y-83408063D01*
X173142805Y-83347010D01*
X173140481Y-83343327D01*
X173105500Y-83285680D01*
X173105499Y-83285679D01*
X173102595Y-83280893D01*
X173095198Y-83272517D01*
X173095225Y-83272493D01*
X173092570Y-83269499D01*
X173089868Y-83266268D01*
X173085856Y-83260148D01*
X173029617Y-83206872D01*
X173027175Y-83204494D01*
X171895394Y-82072713D01*
X171861368Y-82010401D01*
X171858489Y-81983618D01*
X171858489Y-81834500D01*
X171878491Y-81766379D01*
X171932147Y-81719886D01*
X171984489Y-81708500D01*
X172044987Y-81708500D01*
X172051439Y-81707128D01*
X172051444Y-81707128D01*
X172166135Y-81682749D01*
X172231788Y-81668794D01*
X172266135Y-81653502D01*
X172400222Y-81593803D01*
X172400224Y-81593802D01*
X172406252Y-81591118D01*
X172450690Y-81558832D01*
X172517557Y-81534974D01*
X172586709Y-81551055D01*
X172598810Y-81558832D01*
X172643248Y-81591118D01*
X172649276Y-81593802D01*
X172649278Y-81593803D01*
X172783365Y-81653502D01*
X172817712Y-81668794D01*
X172883365Y-81682749D01*
X172998056Y-81707128D01*
X172998061Y-81707128D01*
X173004513Y-81708500D01*
X173195487Y-81708500D01*
X173201939Y-81707128D01*
X173201944Y-81707128D01*
X173316635Y-81682749D01*
X173382288Y-81668794D01*
X173416635Y-81653502D01*
X173550722Y-81593803D01*
X173550724Y-81593802D01*
X173556752Y-81591118D01*
X173711253Y-81478866D01*
X173839040Y-81336944D01*
X173934527Y-81171556D01*
X173993542Y-80989928D01*
X173998542Y-80942361D01*
X174012814Y-80806565D01*
X174013504Y-80800000D01*
X174012814Y-80793435D01*
X173994232Y-80616635D01*
X173994232Y-80616633D01*
X173993542Y-80610072D01*
X173934527Y-80428444D01*
X173925611Y-80413001D01*
X173908872Y-80344007D01*
X173925611Y-80286998D01*
X173931224Y-80277277D01*
X173934527Y-80271556D01*
X173993542Y-80089928D01*
X174004362Y-79986981D01*
X174031375Y-79921325D01*
X174089597Y-79880695D01*
X174155869Y-79876905D01*
X174298056Y-79907128D01*
X174298061Y-79907128D01*
X174304513Y-79908500D01*
X174495487Y-79908500D01*
X174501939Y-79907128D01*
X174501944Y-79907128D01*
X174588887Y-79888647D01*
X174682288Y-79868794D01*
X174750867Y-79838261D01*
X174850722Y-79793803D01*
X174850724Y-79793802D01*
X174856752Y-79791118D01*
X175011253Y-79678866D01*
X175139040Y-79536944D01*
X175234527Y-79371556D01*
X175293542Y-79189928D01*
X175313504Y-79000000D01*
X175293542Y-78810072D01*
X175234527Y-78628444D01*
X175139040Y-78463056D01*
X175011253Y-78321134D01*
X174856752Y-78208882D01*
X174850724Y-78206198D01*
X174850722Y-78206197D01*
X174688319Y-78133891D01*
X174688318Y-78133891D01*
X174682288Y-78131206D01*
X174588888Y-78111353D01*
X174501944Y-78092872D01*
X174501939Y-78092872D01*
X174495487Y-78091500D01*
X174304513Y-78091500D01*
X174298061Y-78092872D01*
X174298056Y-78092872D01*
X174211112Y-78111353D01*
X174117712Y-78131206D01*
X174111682Y-78133891D01*
X174111681Y-78133891D01*
X173949278Y-78206197D01*
X173949276Y-78206198D01*
X173943248Y-78208882D01*
X173824751Y-78294976D01*
X173824061Y-78295477D01*
X173757194Y-78319335D01*
X173688042Y-78303255D01*
X173675939Y-78295477D01*
X173675250Y-78294976D01*
X173556752Y-78208882D01*
X173550724Y-78206198D01*
X173550722Y-78206197D01*
X173388319Y-78133891D01*
X173388318Y-78133891D01*
X173382288Y-78131206D01*
X173288888Y-78111353D01*
X173201944Y-78092872D01*
X173201939Y-78092872D01*
X173195487Y-78091500D01*
X173004513Y-78091500D01*
X172998061Y-78092872D01*
X172998056Y-78092872D01*
X172911112Y-78111353D01*
X172817712Y-78131206D01*
X172811682Y-78133891D01*
X172811681Y-78133891D01*
X172649278Y-78206197D01*
X172649276Y-78206198D01*
X172643248Y-78208882D01*
X172613759Y-78230307D01*
X172598810Y-78241168D01*
X172531943Y-78265026D01*
X172462791Y-78248945D01*
X172450690Y-78241168D01*
X172435741Y-78230307D01*
X172406252Y-78208882D01*
X172400224Y-78206198D01*
X172400222Y-78206197D01*
X172237819Y-78133891D01*
X172237818Y-78133891D01*
X172231788Y-78131206D01*
X172138388Y-78111353D01*
X172051444Y-78092872D01*
X172051439Y-78092872D01*
X172044987Y-78091500D01*
X171984489Y-78091500D01*
X171916368Y-78071498D01*
X171869875Y-78017842D01*
X171858489Y-77965500D01*
X171858489Y-77866382D01*
X171878491Y-77798261D01*
X171895394Y-77777287D01*
X174177276Y-75495405D01*
X174239588Y-75461379D01*
X174266371Y-75458500D01*
X182957413Y-75458500D01*
X183031472Y-75482563D01*
X183037902Y-75487235D01*
X183037909Y-75487239D01*
X183043248Y-75491118D01*
X183049276Y-75493802D01*
X183049278Y-75493803D01*
X183211681Y-75566109D01*
X183217712Y-75568794D01*
X183311112Y-75588647D01*
X183398056Y-75607128D01*
X183398061Y-75607128D01*
X183404513Y-75608500D01*
X183595487Y-75608500D01*
X183601939Y-75607128D01*
X183601944Y-75607128D01*
X183688887Y-75588647D01*
X183782288Y-75568794D01*
X183788319Y-75566109D01*
X183950722Y-75493803D01*
X183950724Y-75493802D01*
X183956752Y-75491118D01*
X183962097Y-75487235D01*
X184012157Y-75450864D01*
X184111253Y-75378866D01*
X184239040Y-75236944D01*
X184334527Y-75071556D01*
X184393542Y-74889928D01*
X184413504Y-74700000D01*
X184393542Y-74510072D01*
X184334527Y-74328444D01*
X184239040Y-74163056D01*
X184111253Y-74021134D01*
X183965937Y-73915555D01*
X183962094Y-73912763D01*
X183962093Y-73912762D01*
X183956752Y-73908882D01*
X183950724Y-73906198D01*
X183950722Y-73906197D01*
X183788319Y-73833891D01*
X183788318Y-73833891D01*
X183782288Y-73831206D01*
X183688887Y-73811353D01*
X183601944Y-73792872D01*
X183601939Y-73792872D01*
X183595487Y-73791500D01*
X183404513Y-73791500D01*
X183398061Y-73792872D01*
X183398056Y-73792872D01*
X183311113Y-73811353D01*
X183217712Y-73831206D01*
X183211682Y-73833891D01*
X183211681Y-73833891D01*
X183049278Y-73906197D01*
X183049276Y-73906198D01*
X183043248Y-73908882D01*
X183037909Y-73912761D01*
X183037902Y-73912765D01*
X183031472Y-73917437D01*
X182957413Y-73941500D01*
X173967070Y-73941500D01*
X173948120Y-73940067D01*
X173926651Y-73936801D01*
X173926865Y-73935396D01*
X173867093Y-73915555D01*
X173822501Y-73860309D01*
X173814856Y-73789725D01*
X173849777Y-73722904D01*
X174577276Y-72995405D01*
X174639588Y-72961379D01*
X174666371Y-72958500D01*
X179857413Y-72958500D01*
X179931472Y-72982563D01*
X179937902Y-72987235D01*
X179937909Y-72987239D01*
X179943248Y-72991118D01*
X179949276Y-72993802D01*
X179949278Y-72993803D01*
X180111681Y-73066109D01*
X180117712Y-73068794D01*
X180211113Y-73088647D01*
X180298056Y-73107128D01*
X180298061Y-73107128D01*
X180304513Y-73108500D01*
X180495487Y-73108500D01*
X180501939Y-73107128D01*
X180501944Y-73107128D01*
X180588887Y-73088647D01*
X180682288Y-73068794D01*
X180688319Y-73066109D01*
X180850722Y-72993803D01*
X180850724Y-72993802D01*
X180856752Y-72991118D01*
X180862097Y-72987235D01*
X180912157Y-72950864D01*
X181011253Y-72878866D01*
X181139040Y-72736944D01*
X181234527Y-72571556D01*
X181293542Y-72389928D01*
X181313504Y-72200000D01*
X181293542Y-72010072D01*
X181234527Y-71828444D01*
X181139040Y-71663056D01*
X181011253Y-71521134D01*
X180901647Y-71441500D01*
X180862094Y-71412763D01*
X180862093Y-71412762D01*
X180856752Y-71408882D01*
X180850724Y-71406198D01*
X180850722Y-71406197D01*
X180688319Y-71333891D01*
X180688318Y-71333891D01*
X180682288Y-71331206D01*
X180588887Y-71311353D01*
X180501944Y-71292872D01*
X180501939Y-71292872D01*
X180495487Y-71291500D01*
X180304513Y-71291500D01*
X180298061Y-71292872D01*
X180298056Y-71292872D01*
X180211113Y-71311353D01*
X180117712Y-71331206D01*
X180111682Y-71333891D01*
X180111681Y-71333891D01*
X179949278Y-71406197D01*
X179949276Y-71406198D01*
X179943248Y-71408882D01*
X179937909Y-71412761D01*
X179937902Y-71412765D01*
X179931472Y-71417437D01*
X179857413Y-71441500D01*
X174526000Y-71441500D01*
X174457879Y-71421498D01*
X174411386Y-71367842D01*
X174400000Y-71315500D01*
X174400000Y-70724871D01*
X174420002Y-70656750D01*
X174436905Y-70635776D01*
X175877276Y-69195405D01*
X175939588Y-69161379D01*
X175966371Y-69158500D01*
X176857413Y-69158500D01*
X176931472Y-69182563D01*
X176937902Y-69187235D01*
X176937909Y-69187239D01*
X176943248Y-69191118D01*
X176949276Y-69193802D01*
X176949278Y-69193803D01*
X177111681Y-69266109D01*
X177117712Y-69268794D01*
X177211113Y-69288647D01*
X177298056Y-69307128D01*
X177298061Y-69307128D01*
X177304513Y-69308500D01*
X177495487Y-69308500D01*
X177501939Y-69307128D01*
X177501944Y-69307128D01*
X177588887Y-69288647D01*
X177682288Y-69268794D01*
X177688319Y-69266109D01*
X177850722Y-69193803D01*
X177850724Y-69193802D01*
X177856752Y-69191118D01*
X177862097Y-69187235D01*
X177912157Y-69150864D01*
X178011253Y-69078866D01*
X178139040Y-68936944D01*
X178234527Y-68771556D01*
X178293542Y-68589928D01*
X178313504Y-68400000D01*
X178293542Y-68210072D01*
X178234527Y-68028444D01*
X178139040Y-67863056D01*
X178095000Y-67814144D01*
X178015675Y-67726045D01*
X178015674Y-67726044D01*
X178011253Y-67721134D01*
X177901647Y-67641500D01*
X177862094Y-67612763D01*
X177862093Y-67612762D01*
X177856752Y-67608882D01*
X177850724Y-67606198D01*
X177850722Y-67606197D01*
X177688319Y-67533891D01*
X177688318Y-67533891D01*
X177682288Y-67531206D01*
X177588888Y-67511353D01*
X177501944Y-67492872D01*
X177501939Y-67492872D01*
X177495487Y-67491500D01*
X177304513Y-67491500D01*
X177298061Y-67492872D01*
X177298056Y-67492872D01*
X177211112Y-67511353D01*
X177117712Y-67531206D01*
X177111682Y-67533891D01*
X177111681Y-67533891D01*
X176949278Y-67606197D01*
X176949276Y-67606198D01*
X176943248Y-67608882D01*
X176937909Y-67612761D01*
X176937902Y-67612765D01*
X176931472Y-67617437D01*
X176857413Y-67641500D01*
X175667069Y-67641500D01*
X175648121Y-67640067D01*
X175640780Y-67638950D01*
X175633883Y-67637901D01*
X175633881Y-67637901D01*
X175626651Y-67636801D01*
X175619359Y-67637394D01*
X175619356Y-67637394D01*
X175573982Y-67641085D01*
X175563767Y-67641500D01*
X175555707Y-67641500D01*
X175542417Y-67643049D01*
X175527493Y-67644789D01*
X175523118Y-67645222D01*
X175457661Y-67650546D01*
X175457658Y-67650547D01*
X175450363Y-67651140D01*
X175443399Y-67653396D01*
X175437440Y-67654587D01*
X175431585Y-67655971D01*
X175424319Y-67656818D01*
X175355673Y-67681735D01*
X175351545Y-67683152D01*
X175289064Y-67703393D01*
X175289062Y-67703394D01*
X175282101Y-67705649D01*
X175275846Y-67709445D01*
X175270372Y-67711951D01*
X175264942Y-67714670D01*
X175258063Y-67717167D01*
X175197016Y-67757191D01*
X175193327Y-67759518D01*
X175173135Y-67771771D01*
X175135693Y-67794491D01*
X175135688Y-67794495D01*
X175130892Y-67797405D01*
X175122516Y-67804803D01*
X175122493Y-67804777D01*
X175119503Y-67807426D01*
X175116264Y-67810134D01*
X175110148Y-67814144D01*
X175105121Y-67819451D01*
X175105117Y-67819454D01*
X175056872Y-67870383D01*
X175054494Y-67872825D01*
X170723095Y-72204224D01*
X170660783Y-72238250D01*
X170589968Y-72233185D01*
X170533132Y-72190638D01*
X170508321Y-72124118D01*
X170508000Y-72115129D01*
X170508000Y-62262610D01*
X170528002Y-62194489D01*
X170544905Y-62173515D01*
X171773515Y-60944905D01*
X171835827Y-60910879D01*
X171862610Y-60908000D01*
X174674000Y-60908000D01*
X174678735Y-60907491D01*
X174714963Y-60903596D01*
X174781980Y-60896391D01*
X174785264Y-60895677D01*
X174785268Y-60895676D01*
X174810339Y-60890222D01*
X174834322Y-60885005D01*
X174937372Y-60850707D01*
X175059010Y-60772535D01*
X175112666Y-60726042D01*
X175207355Y-60616766D01*
X175267421Y-60485240D01*
X175287423Y-60417119D01*
X175288064Y-60412664D01*
X175307361Y-60278448D01*
X175307362Y-60278441D01*
X175308000Y-60274000D01*
X175308000Y-58739172D01*
X175328002Y-58671051D01*
X175382751Y-58624065D01*
X175456752Y-58591118D01*
X175474040Y-58578558D01*
X175567481Y-58510668D01*
X175611253Y-58478866D01*
X175640663Y-58446203D01*
X175734621Y-58341852D01*
X175734622Y-58341851D01*
X175739040Y-58336944D01*
X175834527Y-58171556D01*
X175893542Y-57989928D01*
X175896012Y-57966432D01*
X175912814Y-57806565D01*
X175913504Y-57800000D01*
X175893542Y-57610072D01*
X175834527Y-57428444D01*
X175739040Y-57263056D01*
X175611253Y-57121134D01*
X175456752Y-57008882D01*
X175382751Y-56975935D01*
X175328655Y-56929955D01*
X175308000Y-56860828D01*
X175308000Y-55139172D01*
X175328002Y-55071051D01*
X175382751Y-55024065D01*
X175456752Y-54991118D01*
X175611253Y-54878866D01*
X175739040Y-54736944D01*
X175834527Y-54571556D01*
X175893542Y-54389928D01*
X175913504Y-54200000D01*
X175893542Y-54010072D01*
X175834527Y-53828444D01*
X175739040Y-53663056D01*
X175611253Y-53521134D01*
X175456752Y-53408882D01*
X175382751Y-53375935D01*
X175328655Y-53329955D01*
X175308000Y-53260828D01*
X175308000Y-52726000D01*
X175296391Y-52618020D01*
X175285005Y-52565678D01*
X175250707Y-52462628D01*
X175172535Y-52340990D01*
X175126042Y-52287334D01*
X175016766Y-52192645D01*
X174885240Y-52132579D01*
X174861486Y-52125604D01*
X174821442Y-52113846D01*
X174821438Y-52113845D01*
X174817119Y-52112577D01*
X174812671Y-52111937D01*
X174812664Y-52111936D01*
X174678448Y-52092639D01*
X174678441Y-52092638D01*
X174674000Y-52092000D01*
X156412094Y-52092000D01*
X156338033Y-52067936D01*
X156262094Y-52012763D01*
X156262093Y-52012762D01*
X156256752Y-52008882D01*
X156250724Y-52006198D01*
X156250722Y-52006197D01*
X156088319Y-51933891D01*
X156088318Y-51933891D01*
X156082288Y-51931206D01*
X155988888Y-51911353D01*
X155901944Y-51892872D01*
X155901939Y-51892872D01*
X155895487Y-51891500D01*
X155704513Y-51891500D01*
X155698061Y-51892872D01*
X155698056Y-51892872D01*
X155611112Y-51911353D01*
X155517712Y-51931206D01*
X155511682Y-51933891D01*
X155511681Y-51933891D01*
X155349278Y-52006197D01*
X155349276Y-52006198D01*
X155343248Y-52008882D01*
X155337907Y-52012762D01*
X155337906Y-52012763D01*
X155261967Y-52067936D01*
X155187906Y-52092000D01*
X154012094Y-52092000D01*
X153938033Y-52067936D01*
X153862094Y-52012763D01*
X153862093Y-52012762D01*
X153856752Y-52008882D01*
X153850724Y-52006198D01*
X153850722Y-52006197D01*
X153688319Y-51933891D01*
X153688318Y-51933891D01*
X153682288Y-51931206D01*
X153588888Y-51911353D01*
X153501944Y-51892872D01*
X153501939Y-51892872D01*
X153495487Y-51891500D01*
X153304513Y-51891500D01*
X153298061Y-51892872D01*
X153298056Y-51892872D01*
X153211112Y-51911353D01*
X153117712Y-51931206D01*
X153111682Y-51933891D01*
X153111681Y-51933891D01*
X152949278Y-52006197D01*
X152949276Y-52006198D01*
X152943248Y-52008882D01*
X152937907Y-52012762D01*
X152937906Y-52012763D01*
X152861967Y-52067936D01*
X152787906Y-52092000D01*
X151612094Y-52092000D01*
X151538033Y-52067936D01*
X151462094Y-52012763D01*
X151462093Y-52012762D01*
X151456752Y-52008882D01*
X151382751Y-51975935D01*
X151328655Y-51929955D01*
X151308000Y-51860828D01*
X151308000Y-44876000D01*
X151296391Y-44768020D01*
X151285005Y-44715678D01*
X151250707Y-44612628D01*
X151172535Y-44490990D01*
X151126042Y-44437334D01*
X151107213Y-44421018D01*
X151077449Y-44395228D01*
X151016766Y-44342645D01*
X150885240Y-44282579D01*
X150861486Y-44275604D01*
X150821442Y-44263846D01*
X150821438Y-44263845D01*
X150817119Y-44262577D01*
X150812671Y-44261937D01*
X150812664Y-44261936D01*
X150678448Y-44242639D01*
X150678441Y-44242638D01*
X150674000Y-44242000D01*
X135876000Y-44242000D01*
X135768020Y-44253609D01*
X135764736Y-44254323D01*
X135764732Y-44254324D01*
X135739661Y-44259778D01*
X135715678Y-44264995D01*
X135612628Y-44299293D01*
X135490990Y-44377465D01*
X135437334Y-44423958D01*
X135434393Y-44427352D01*
X135422803Y-44440727D01*
X135342645Y-44533234D01*
X135282579Y-44664760D01*
X135262577Y-44732881D01*
X135261937Y-44737329D01*
X135261936Y-44737336D01*
X135242639Y-44871552D01*
X135242638Y-44871559D01*
X135242000Y-44876000D01*
X135242000Y-57970649D01*
X135260099Y-58105040D01*
X135261215Y-58109107D01*
X135276620Y-58165267D01*
X135276623Y-58165275D01*
X135277736Y-58169333D01*
X135279383Y-58173210D01*
X135279385Y-58173217D01*
X135315638Y-58258578D01*
X135330748Y-58294156D01*
X135336222Y-58300949D01*
X135347385Y-58314802D01*
X135374552Y-58380395D01*
X135363888Y-58446203D01*
X135332579Y-58514760D01*
X135312577Y-58582881D01*
X135311937Y-58587329D01*
X135311936Y-58587336D01*
X135292639Y-58721552D01*
X135292638Y-58721559D01*
X135292000Y-58726000D01*
X135292000Y-60766000D01*
X135271998Y-60834121D01*
X135218342Y-60880614D01*
X135166000Y-60892000D01*
X108130926Y-60892000D01*
X108062805Y-60871998D01*
X108016312Y-60818342D01*
X108004926Y-60765967D01*
X108005486Y-58624065D01*
X108007986Y-49053253D01*
X108009733Y-49032382D01*
X108012264Y-49017340D01*
X108012265Y-49017330D01*
X108013071Y-49012539D01*
X108013224Y-49000000D01*
X108012535Y-48995187D01*
X108012534Y-48995175D01*
X108010751Y-48982727D01*
X108009575Y-48959917D01*
X108009723Y-48956166D01*
X108026337Y-48533317D01*
X108027113Y-48523454D01*
X108081427Y-48064552D01*
X108082975Y-48054781D01*
X108173125Y-47601563D01*
X108175435Y-47591943D01*
X108300866Y-47147197D01*
X108303920Y-47137797D01*
X108463863Y-46704256D01*
X108467649Y-46695116D01*
X108661112Y-46275461D01*
X108665604Y-46266646D01*
X108891388Y-45863481D01*
X108896557Y-45855045D01*
X109153285Y-45470822D01*
X109159100Y-45462818D01*
X109445182Y-45099927D01*
X109451607Y-45092404D01*
X109593113Y-44939323D01*
X109765290Y-44753062D01*
X109772264Y-44746088D01*
X110044137Y-44494772D01*
X110111606Y-44432405D01*
X110119129Y-44425980D01*
X110338236Y-44253249D01*
X110482028Y-44139892D01*
X110490016Y-44134089D01*
X110874247Y-43877355D01*
X110882683Y-43872186D01*
X111285848Y-43646402D01*
X111294663Y-43641910D01*
X111714318Y-43448447D01*
X111723458Y-43444661D01*
X111923533Y-43370849D01*
X112157009Y-43284715D01*
X112166399Y-43281664D01*
X112611152Y-43156231D01*
X112620758Y-43153925D01*
X112842996Y-43109719D01*
X113073983Y-43063773D01*
X113083754Y-43062225D01*
X113542656Y-43007911D01*
X113552519Y-43007135D01*
X113975368Y-42990521D01*
X113999693Y-42991923D01*
X114001534Y-42992210D01*
X114004060Y-42992603D01*
X114004062Y-42992603D01*
X114012932Y-42993984D01*
X114021834Y-42992820D01*
X114021837Y-42992820D01*
X114044453Y-42989862D01*
X114060791Y-42988798D01*
X183950672Y-42988798D01*
X183970057Y-42990298D01*
G37*
%TD.AperFunction*%
%TA.AperFunction,Conductor*%
G36*
X176851873Y-81548197D02*
G01*
X176901475Y-81581941D01*
X176988747Y-81678866D01*
X177143248Y-81791118D01*
X177149276Y-81793802D01*
X177149278Y-81793803D01*
X177240686Y-81834500D01*
X177317712Y-81868794D01*
X177411113Y-81888647D01*
X177498056Y-81907128D01*
X177498061Y-81907128D01*
X177504513Y-81908500D01*
X177695487Y-81908500D01*
X177701939Y-81907128D01*
X177701944Y-81907128D01*
X177788888Y-81888647D01*
X177882288Y-81868794D01*
X177959314Y-81834500D01*
X178050722Y-81793803D01*
X178050724Y-81793802D01*
X178056752Y-81791118D01*
X178170466Y-81708500D01*
X178189671Y-81694546D01*
X178211253Y-81678866D01*
X178215668Y-81673963D01*
X178220580Y-81669540D01*
X178221705Y-81670789D01*
X178275014Y-81637949D01*
X178308200Y-81633500D01*
X182139106Y-81633500D01*
X182207227Y-81653502D01*
X182255849Y-81712096D01*
X182283266Y-81779616D01*
X182399987Y-81970088D01*
X182546250Y-82138938D01*
X182718126Y-82281632D01*
X182788595Y-82322811D01*
X182791445Y-82324476D01*
X182840169Y-82376114D01*
X182853240Y-82445897D01*
X182826509Y-82511669D01*
X182786055Y-82545027D01*
X182773607Y-82551507D01*
X182769474Y-82554610D01*
X182769471Y-82554612D01*
X182609184Y-82674959D01*
X182594965Y-82685635D01*
X182591393Y-82689373D01*
X182457305Y-82829688D01*
X182440629Y-82847138D01*
X182314743Y-83031680D01*
X182299003Y-83065590D01*
X182224776Y-83225499D01*
X182220688Y-83234305D01*
X182160989Y-83449570D01*
X182137251Y-83671695D01*
X182137548Y-83676848D01*
X182137548Y-83676851D01*
X182145633Y-83817070D01*
X182150110Y-83894715D01*
X182151247Y-83899761D01*
X182151248Y-83899767D01*
X182171119Y-83987939D01*
X182199222Y-84112639D01*
X182283266Y-84319616D01*
X182399987Y-84510088D01*
X182546250Y-84678938D01*
X182718126Y-84821632D01*
X182788595Y-84862811D01*
X182791445Y-84864476D01*
X182840169Y-84916114D01*
X182853240Y-84985897D01*
X182826509Y-85051669D01*
X182786055Y-85085027D01*
X182773607Y-85091507D01*
X182769474Y-85094610D01*
X182769471Y-85094612D01*
X182745247Y-85112800D01*
X182594965Y-85225635D01*
X182440629Y-85387138D01*
X182314743Y-85571680D01*
X182220688Y-85774305D01*
X182160989Y-85989570D01*
X182137251Y-86211695D01*
X182137548Y-86216848D01*
X182137548Y-86216851D01*
X182143011Y-86311590D01*
X182150110Y-86434715D01*
X182151247Y-86439761D01*
X182151248Y-86439767D01*
X182183453Y-86582668D01*
X182178917Y-86653520D01*
X182149631Y-86699464D01*
X181919500Y-86929595D01*
X181857188Y-86963621D01*
X181830405Y-86966500D01*
X176278767Y-86966500D01*
X176267584Y-86965973D01*
X176260091Y-86964298D01*
X176252165Y-86964547D01*
X176252164Y-86964547D01*
X176192014Y-86966438D01*
X176188055Y-86966500D01*
X176160144Y-86966500D01*
X176156210Y-86966997D01*
X176156209Y-86966997D01*
X176156144Y-86967005D01*
X176144307Y-86967938D01*
X176112490Y-86968938D01*
X176108029Y-86969078D01*
X176100110Y-86969327D01*
X176082454Y-86974456D01*
X176080658Y-86974978D01*
X176061306Y-86978986D01*
X176054235Y-86979880D01*
X176041203Y-86981526D01*
X176033834Y-86984443D01*
X176033832Y-86984444D01*
X176000097Y-86997800D01*
X175988869Y-87001645D01*
X175946407Y-87013982D01*
X175939584Y-87018017D01*
X175939582Y-87018018D01*
X175928972Y-87024293D01*
X175911224Y-87032988D01*
X175892383Y-87040448D01*
X175885967Y-87045110D01*
X175885966Y-87045110D01*
X175856613Y-87066436D01*
X175846693Y-87072952D01*
X175815465Y-87091420D01*
X175815462Y-87091422D01*
X175808638Y-87095458D01*
X175794317Y-87109779D01*
X175779284Y-87122619D01*
X175762893Y-87134528D01*
X175736516Y-87166413D01*
X175734712Y-87168593D01*
X175726722Y-87177374D01*
X175248595Y-87655500D01*
X175186283Y-87689525D01*
X175115467Y-87684460D01*
X175058632Y-87641913D01*
X175033821Y-87575393D01*
X175033500Y-87566404D01*
X175033500Y-83314594D01*
X175053502Y-83246473D01*
X175070405Y-83225499D01*
X176718746Y-81577158D01*
X176781058Y-81543132D01*
X176851873Y-81548197D01*
G37*
%TD.AperFunction*%
%TA.AperFunction,Conductor*%
G36*
X182083621Y-79278502D02*
G01*
X182130114Y-79332158D01*
X182141500Y-79384500D01*
X182141500Y-79523134D01*
X182148255Y-79585316D01*
X182199385Y-79721705D01*
X182286739Y-79838261D01*
X182403295Y-79925615D01*
X182411704Y-79928767D01*
X182411705Y-79928768D01*
X182520451Y-79969535D01*
X182577216Y-80012176D01*
X182601916Y-80078738D01*
X182586709Y-80148087D01*
X182567316Y-80174568D01*
X182440629Y-80307138D01*
X182437651Y-80311503D01*
X182437617Y-80311532D01*
X182434463Y-80315426D01*
X182433659Y-80314775D01*
X182382745Y-80356505D01*
X182333563Y-80366500D01*
X178308200Y-80366500D01*
X178240079Y-80346498D01*
X178220853Y-80330157D01*
X178220580Y-80330460D01*
X178215668Y-80326038D01*
X178211253Y-80321134D01*
X178193635Y-80308334D01*
X178150282Y-80252113D01*
X178144205Y-80181377D01*
X178178601Y-80117303D01*
X179000499Y-79295405D01*
X179062811Y-79261379D01*
X179089594Y-79258500D01*
X182015500Y-79258500D01*
X182083621Y-79278502D01*
G37*
%TD.AperFunction*%
%TD*%
%TA.AperFunction,Conductor*%
%TO.N,/BHS*%
G36*
X135234121Y-61420002D02*
G01*
X135280614Y-61473658D01*
X135292000Y-61526000D01*
X135292000Y-68766000D01*
X135271998Y-68834121D01*
X135218342Y-68880614D01*
X135166000Y-68892000D01*
X121326000Y-68892000D01*
X121218020Y-68903609D01*
X121214736Y-68904323D01*
X121214732Y-68904324D01*
X121189661Y-68909778D01*
X121165678Y-68914995D01*
X121062628Y-68949293D01*
X120940990Y-69027465D01*
X120887334Y-69073958D01*
X120792645Y-69183234D01*
X120732579Y-69314760D01*
X120712577Y-69382881D01*
X120711937Y-69387329D01*
X120711936Y-69387336D01*
X120692639Y-69521552D01*
X120692638Y-69521559D01*
X120692000Y-69526000D01*
X120692000Y-73541027D01*
X120691310Y-73554197D01*
X120686496Y-73600000D01*
X120687186Y-73606565D01*
X120691310Y-73645803D01*
X120692000Y-73658973D01*
X120692000Y-74541027D01*
X120691310Y-74554197D01*
X120686496Y-74600000D01*
X120687186Y-74606565D01*
X120691310Y-74645803D01*
X120692000Y-74658973D01*
X120692000Y-78874000D01*
X120703609Y-78981980D01*
X120714995Y-79034322D01*
X120749293Y-79137372D01*
X120827465Y-79259010D01*
X120873958Y-79312666D01*
X120877352Y-79315607D01*
X120900786Y-79335913D01*
X120983234Y-79407355D01*
X121114760Y-79467421D01*
X121138514Y-79474396D01*
X121178558Y-79486154D01*
X121178562Y-79486155D01*
X121182881Y-79487423D01*
X121187329Y-79488063D01*
X121187336Y-79488064D01*
X121321552Y-79507361D01*
X121321559Y-79507362D01*
X121326000Y-79508000D01*
X146274000Y-79508000D01*
X146381980Y-79496391D01*
X146385264Y-79495677D01*
X146385268Y-79495676D01*
X146410339Y-79490222D01*
X146434322Y-79485005D01*
X146537372Y-79450707D01*
X146544000Y-79446447D01*
X146544005Y-79446445D01*
X146582842Y-79421485D01*
X146650963Y-79401482D01*
X146703306Y-79412868D01*
X146822760Y-79467421D01*
X146846514Y-79474396D01*
X146886558Y-79486154D01*
X146886562Y-79486155D01*
X146890881Y-79487423D01*
X146895329Y-79488063D01*
X146895336Y-79488064D01*
X147029552Y-79507361D01*
X147029559Y-79507362D01*
X147034000Y-79508000D01*
X155699756Y-79508000D01*
X155702948Y-79508167D01*
X155704513Y-79508500D01*
X155895487Y-79508500D01*
X155897052Y-79508167D01*
X155900244Y-79508000D01*
X157099756Y-79508000D01*
X157102948Y-79508167D01*
X157104513Y-79508500D01*
X157295487Y-79508500D01*
X157297052Y-79508167D01*
X157300244Y-79508000D01*
X158499756Y-79508000D01*
X158502948Y-79508167D01*
X158504513Y-79508500D01*
X158695487Y-79508500D01*
X158697052Y-79508167D01*
X158700244Y-79508000D01*
X159899756Y-79508000D01*
X159902948Y-79508167D01*
X159904513Y-79508500D01*
X160095487Y-79508500D01*
X160097052Y-79508167D01*
X160100244Y-79508000D01*
X160274000Y-79508000D01*
X160381980Y-79496391D01*
X160385264Y-79495677D01*
X160385268Y-79495676D01*
X160410339Y-79490222D01*
X160434322Y-79485005D01*
X160537372Y-79450707D01*
X160659010Y-79372535D01*
X160712666Y-79326042D01*
X160724257Y-79312666D01*
X160801453Y-79223577D01*
X160807355Y-79216766D01*
X160867421Y-79085240D01*
X160887423Y-79017119D01*
X160888064Y-79012664D01*
X160907361Y-78878448D01*
X160907362Y-78878441D01*
X160908000Y-78874000D01*
X160908000Y-78658973D01*
X160908690Y-78645803D01*
X160912814Y-78606565D01*
X160913504Y-78600000D01*
X160908690Y-78554197D01*
X160908000Y-78541027D01*
X160908000Y-77658973D01*
X160908690Y-77645803D01*
X160912814Y-77606565D01*
X160913504Y-77600000D01*
X160908690Y-77554197D01*
X160908000Y-77541027D01*
X160908000Y-77034989D01*
X160928002Y-76966868D01*
X160981658Y-76920375D01*
X161034000Y-76908989D01*
X168713479Y-76908989D01*
X168781600Y-76928991D01*
X168828093Y-76982647D01*
X168838789Y-77021818D01*
X168856458Y-77189928D01*
X168915473Y-77371556D01*
X168918776Y-77377278D01*
X168918777Y-77377279D01*
X168974619Y-77473999D01*
X168991500Y-77536999D01*
X168991500Y-82932930D01*
X168990067Y-82951880D01*
X168986801Y-82973349D01*
X168987394Y-82980641D01*
X168987394Y-82980644D01*
X168991085Y-83026018D01*
X168991500Y-83036233D01*
X168991500Y-83044293D01*
X168991925Y-83047937D01*
X168994789Y-83072507D01*
X168995222Y-83076882D01*
X169001140Y-83149637D01*
X169003396Y-83156601D01*
X169004587Y-83162560D01*
X169005971Y-83168415D01*
X169006818Y-83175681D01*
X169031735Y-83244327D01*
X169033152Y-83248455D01*
X169043661Y-83280893D01*
X169055649Y-83317899D01*
X169059445Y-83324154D01*
X169061951Y-83329628D01*
X169064670Y-83335058D01*
X169067167Y-83341937D01*
X169071180Y-83348057D01*
X169071180Y-83348058D01*
X169107186Y-83402976D01*
X169109523Y-83406680D01*
X169147405Y-83469107D01*
X169151121Y-83473315D01*
X169151122Y-83473316D01*
X169154803Y-83477484D01*
X169154776Y-83477508D01*
X169157429Y-83480500D01*
X169160132Y-83483733D01*
X169164144Y-83489852D01*
X169220383Y-83543128D01*
X169222825Y-83545506D01*
X170454595Y-84777276D01*
X170488621Y-84839588D01*
X170491500Y-84866371D01*
X170491500Y-94256310D01*
X170471498Y-94324431D01*
X170454595Y-94345405D01*
X170185176Y-94614824D01*
X170147330Y-94640836D01*
X170111705Y-94656697D01*
X170111703Y-94656698D01*
X170105675Y-94659382D01*
X169951174Y-94771634D01*
X169946753Y-94776544D01*
X169946752Y-94776545D01*
X169866695Y-94865458D01*
X169823387Y-94913556D01*
X169793726Y-94964931D01*
X169759824Y-95023650D01*
X169708441Y-95072643D01*
X169638727Y-95086078D01*
X169572816Y-95059691D01*
X169549682Y-95035951D01*
X169501803Y-94971717D01*
X169501800Y-94971714D01*
X169499117Y-94968114D01*
X169396881Y-94865458D01*
X169356092Y-94828706D01*
X169334935Y-94811621D01*
X169333562Y-94810630D01*
X169333553Y-94810623D01*
X169295452Y-94783119D01*
X169295450Y-94783118D01*
X169290423Y-94779489D01*
X169158897Y-94719423D01*
X169135143Y-94712448D01*
X169095099Y-94700690D01*
X169095095Y-94700689D01*
X169090776Y-94699421D01*
X169086328Y-94698781D01*
X169086321Y-94698780D01*
X168952105Y-94679483D01*
X168952098Y-94679482D01*
X168947657Y-94678844D01*
X163234000Y-94678844D01*
X163165879Y-94658842D01*
X163119386Y-94605186D01*
X163108000Y-94552844D01*
X163108000Y-89526000D01*
X163096391Y-89418020D01*
X163085005Y-89365678D01*
X163050707Y-89262628D01*
X162972535Y-89140990D01*
X162926042Y-89087334D01*
X162907213Y-89071018D01*
X162899214Y-89064087D01*
X162816766Y-88992645D01*
X162685240Y-88932579D01*
X162661486Y-88925604D01*
X162621442Y-88913846D01*
X162621438Y-88913845D01*
X162617119Y-88912577D01*
X162612671Y-88911937D01*
X162612664Y-88911936D01*
X162478448Y-88892639D01*
X162478441Y-88892638D01*
X162474000Y-88892000D01*
X147034000Y-88892000D01*
X146926020Y-88903609D01*
X146922736Y-88904323D01*
X146922732Y-88904324D01*
X146897661Y-88909778D01*
X146873678Y-88914995D01*
X146770628Y-88949293D01*
X146764000Y-88953553D01*
X146763995Y-88953555D01*
X146725158Y-88978515D01*
X146657037Y-88998518D01*
X146604694Y-88987132D01*
X146485240Y-88932579D01*
X146461486Y-88925604D01*
X146421442Y-88913846D01*
X146421438Y-88913845D01*
X146417119Y-88912577D01*
X146412671Y-88911937D01*
X146412664Y-88911936D01*
X146278448Y-88892639D01*
X146278441Y-88892638D01*
X146274000Y-88892000D01*
X121126000Y-88892000D01*
X121018020Y-88903609D01*
X121014736Y-88904323D01*
X121014732Y-88904324D01*
X120989661Y-88909778D01*
X120965678Y-88914995D01*
X120862628Y-88949293D01*
X120740990Y-89027465D01*
X120687334Y-89073958D01*
X120684393Y-89077352D01*
X120672803Y-89090727D01*
X120592645Y-89183234D01*
X120532579Y-89314760D01*
X120512577Y-89382881D01*
X120511937Y-89387329D01*
X120511936Y-89387336D01*
X120492639Y-89521552D01*
X120492638Y-89521559D01*
X120492000Y-89526000D01*
X120492000Y-98274000D01*
X120503609Y-98381980D01*
X120514995Y-98434322D01*
X120549293Y-98537372D01*
X120627465Y-98659010D01*
X120673958Y-98712666D01*
X120783234Y-98807355D01*
X120914760Y-98867421D01*
X120938514Y-98874396D01*
X120978558Y-98886154D01*
X120978562Y-98886155D01*
X120982881Y-98887423D01*
X120987329Y-98888063D01*
X120987336Y-98888064D01*
X121121552Y-98907361D01*
X121121559Y-98907362D01*
X121126000Y-98908000D01*
X135366000Y-98908000D01*
X135434121Y-98928002D01*
X135480614Y-98981658D01*
X135492000Y-99034000D01*
X135492000Y-106074000D01*
X135471998Y-106142121D01*
X135418342Y-106188614D01*
X135366000Y-106200000D01*
X108119086Y-106200000D01*
X108050965Y-106179998D01*
X108004472Y-106126342D01*
X107993086Y-106073967D01*
X107999133Y-82932930D01*
X108004727Y-61525966D01*
X108024747Y-61457852D01*
X108078415Y-61411373D01*
X108130727Y-61400000D01*
X135166000Y-61400000D01*
X135234121Y-61420002D01*
G37*
%TD.AperFunction*%
%TD*%
%TA.AperFunction,Conductor*%
%TO.N,/HBridge/+Peltier*%
G36*
X146342121Y-58620002D02*
G01*
X146388614Y-58673658D01*
X146400000Y-58726000D01*
X146400000Y-78874000D01*
X146379998Y-78942121D01*
X146326342Y-78988614D01*
X146274000Y-79000000D01*
X121326000Y-79000000D01*
X121257879Y-78979998D01*
X121211386Y-78926342D01*
X121200000Y-78874000D01*
X121200000Y-69526000D01*
X121220002Y-69457879D01*
X121273658Y-69411386D01*
X121326000Y-69400000D01*
X135800000Y-69400000D01*
X135800000Y-58726000D01*
X135820002Y-58657879D01*
X135873658Y-58611386D01*
X135926000Y-58600000D01*
X146274000Y-58600000D01*
X146342121Y-58620002D01*
G37*
%TD.AperFunction*%
%TD*%
%TA.AperFunction,Conductor*%
%TO.N,/AHS*%
G36*
X154542121Y-58620002D02*
G01*
X154588614Y-58673658D01*
X154600000Y-58726000D01*
X154600000Y-73600000D01*
X155600000Y-74600000D01*
X160274000Y-74600000D01*
X160342121Y-74620002D01*
X160388614Y-74673658D01*
X160400000Y-74726000D01*
X160400000Y-78874000D01*
X160379998Y-78942121D01*
X160326342Y-78988614D01*
X160274000Y-79000000D01*
X147034000Y-79000000D01*
X146965879Y-78979998D01*
X146919386Y-78926342D01*
X146908000Y-78874000D01*
X146908000Y-58726000D01*
X146928002Y-58657879D01*
X146981658Y-58611386D01*
X147034000Y-58600000D01*
X154474000Y-58600000D01*
X154542121Y-58620002D01*
G37*
%TD.AperFunction*%
%TD*%
%TA.AperFunction,Conductor*%
%TO.N,/VSense*%
G36*
X161844602Y-95206846D02*
G01*
X161891095Y-95260502D01*
X161901199Y-95330776D01*
X161871705Y-95395356D01*
X161817695Y-95431167D01*
X161817712Y-95431206D01*
X161811685Y-95433889D01*
X161811683Y-95433890D01*
X161649278Y-95506197D01*
X161649276Y-95506198D01*
X161643248Y-95508882D01*
X161637907Y-95512762D01*
X161637906Y-95512763D01*
X161622832Y-95523715D01*
X161488747Y-95621134D01*
X161360960Y-95763056D01*
X161265473Y-95928444D01*
X161206458Y-96110072D01*
X161186496Y-96300000D01*
X161187186Y-96306565D01*
X161196608Y-96396206D01*
X161206458Y-96489928D01*
X161265473Y-96671556D01*
X161360960Y-96836944D01*
X161488747Y-96978866D01*
X161509306Y-96993803D01*
X161637904Y-97087235D01*
X161643248Y-97091118D01*
X161649276Y-97093802D01*
X161649278Y-97093803D01*
X161811681Y-97166109D01*
X161817712Y-97168794D01*
X161911113Y-97188647D01*
X161998056Y-97207128D01*
X161998061Y-97207128D01*
X162004513Y-97208500D01*
X162195487Y-97208500D01*
X162201939Y-97207128D01*
X162201944Y-97207128D01*
X162288887Y-97188647D01*
X162382288Y-97168794D01*
X162388319Y-97166109D01*
X162550722Y-97093803D01*
X162550724Y-97093802D01*
X162556752Y-97091118D01*
X162562091Y-97087239D01*
X162562098Y-97087235D01*
X162568528Y-97082563D01*
X162642587Y-97058500D01*
X170811651Y-97058500D01*
X170879772Y-97078502D01*
X170900928Y-97095587D01*
X171015465Y-97210595D01*
X172163168Y-98363017D01*
X172197065Y-98425398D01*
X172199890Y-98452194D01*
X172190256Y-103027070D01*
X172170110Y-103095149D01*
X172116357Y-103141529D01*
X172064507Y-103152805D01*
X166745216Y-103163410D01*
X155175903Y-103186476D01*
X155107744Y-103166610D01*
X155061144Y-103113047D01*
X155050900Y-103042793D01*
X155080264Y-102978154D01*
X155101592Y-102958540D01*
X155147108Y-102925470D01*
X155211253Y-102878866D01*
X155339040Y-102736944D01*
X155434527Y-102571556D01*
X155493542Y-102389928D01*
X155513504Y-102200000D01*
X155493542Y-102010072D01*
X155434527Y-101828444D01*
X155339040Y-101663056D01*
X155211253Y-101521134D01*
X155056752Y-101408882D01*
X155050724Y-101406198D01*
X155050722Y-101406197D01*
X154888315Y-101333889D01*
X154888312Y-101333888D01*
X154882288Y-101331206D01*
X154876925Y-101330066D01*
X154818661Y-101290224D01*
X154791026Y-101224827D01*
X154790205Y-101210455D01*
X154790207Y-101189520D01*
X154810216Y-101121401D01*
X154863876Y-101074913D01*
X154876355Y-101070055D01*
X154882288Y-101068794D01*
X154888319Y-101066109D01*
X155050722Y-100993803D01*
X155050724Y-100993802D01*
X155056752Y-100991118D01*
X155211253Y-100878866D01*
X155339040Y-100736944D01*
X155434527Y-100571556D01*
X155493542Y-100389928D01*
X155513504Y-100200000D01*
X155493542Y-100010072D01*
X155434527Y-99828444D01*
X155339040Y-99663056D01*
X155211253Y-99521134D01*
X155056752Y-99408882D01*
X155050724Y-99406198D01*
X155050722Y-99406197D01*
X154888316Y-99333890D01*
X154888317Y-99333890D01*
X154882288Y-99331206D01*
X154877093Y-99330102D01*
X154818881Y-99290301D01*
X154791242Y-99224905D01*
X154790420Y-99210526D01*
X154790422Y-99189450D01*
X154810431Y-99121331D01*
X154864091Y-99074843D01*
X154876435Y-99070038D01*
X154882288Y-99068794D01*
X154950122Y-99038593D01*
X155050722Y-98993803D01*
X155050724Y-98993802D01*
X155056752Y-98991118D01*
X155211253Y-98878866D01*
X155339040Y-98736944D01*
X155434527Y-98571556D01*
X155493542Y-98389928D01*
X155496371Y-98363017D01*
X155512814Y-98206565D01*
X155513504Y-98200000D01*
X155493542Y-98010072D01*
X155434527Y-97828444D01*
X155339040Y-97663056D01*
X155211253Y-97521134D01*
X155056752Y-97408882D01*
X155050724Y-97406198D01*
X155050722Y-97406197D01*
X154888319Y-97333891D01*
X154888318Y-97333891D01*
X154882288Y-97331206D01*
X154877253Y-97330136D01*
X154819092Y-97290365D01*
X154791456Y-97224969D01*
X154790635Y-97210595D01*
X154790637Y-97189380D01*
X154810645Y-97121261D01*
X154864306Y-97074773D01*
X154876514Y-97070021D01*
X154882288Y-97068794D01*
X154926930Y-97048918D01*
X155050722Y-96993803D01*
X155050724Y-96993802D01*
X155056752Y-96991118D01*
X155073616Y-96978866D01*
X155112157Y-96950864D01*
X155211253Y-96878866D01*
X155339040Y-96736944D01*
X155434527Y-96571556D01*
X155493542Y-96389928D01*
X155513504Y-96200000D01*
X155504052Y-96110072D01*
X155494232Y-96016635D01*
X155494232Y-96016633D01*
X155493542Y-96010072D01*
X155434527Y-95828444D01*
X155339040Y-95663056D01*
X155305715Y-95626045D01*
X155217938Y-95528558D01*
X155187220Y-95464551D01*
X155195985Y-95394097D01*
X155222479Y-95355153D01*
X155353883Y-95223749D01*
X155416195Y-95189723D01*
X155442978Y-95186844D01*
X161776481Y-95186844D01*
X161844602Y-95206846D01*
G37*
%TD.AperFunction*%
%TD*%
%TA.AperFunction,Conductor*%
%TO.N,/Psu12V*%
G36*
X150742121Y-44770002D02*
G01*
X150788614Y-44823658D01*
X150800000Y-44876000D01*
X150800000Y-52600000D01*
X174674000Y-52600000D01*
X174742121Y-52620002D01*
X174788614Y-52673658D01*
X174800000Y-52726000D01*
X174800000Y-60274000D01*
X174779998Y-60342121D01*
X174726342Y-60388614D01*
X174674000Y-60400000D01*
X171600000Y-60400000D01*
X170000000Y-62000000D01*
X170000000Y-72875129D01*
X169979998Y-72943250D01*
X169963095Y-72964224D01*
X168522724Y-74404595D01*
X168460412Y-74438621D01*
X168433629Y-74441500D01*
X162128648Y-74441500D01*
X162089708Y-74435332D01*
X162088322Y-74434882D01*
X162082288Y-74432195D01*
X162075833Y-74430823D01*
X162075830Y-74430822D01*
X161901944Y-74393861D01*
X161901939Y-74393861D01*
X161895487Y-74392489D01*
X161704513Y-74392489D01*
X161698061Y-74393861D01*
X161698056Y-74393861D01*
X161611113Y-74412342D01*
X161517712Y-74432195D01*
X161511682Y-74434880D01*
X161511681Y-74434880D01*
X161349278Y-74507186D01*
X161349276Y-74507187D01*
X161343248Y-74509871D01*
X161337907Y-74513751D01*
X161337906Y-74513752D01*
X161252318Y-74575936D01*
X161185451Y-74599794D01*
X161178257Y-74600000D01*
X160987287Y-74600000D01*
X160919166Y-74579998D01*
X160872673Y-74526342D01*
X160867735Y-74513790D01*
X160867723Y-74513752D01*
X160850707Y-74462628D01*
X160772535Y-74340990D01*
X160726042Y-74287334D01*
X160616766Y-74192645D01*
X160485240Y-74132579D01*
X160461486Y-74125604D01*
X160421442Y-74113846D01*
X160421438Y-74113845D01*
X160417119Y-74112577D01*
X160412671Y-74111937D01*
X160412664Y-74111936D01*
X160278448Y-74092639D01*
X160278441Y-74092638D01*
X160274000Y-74092000D01*
X155862610Y-74092000D01*
X155794489Y-74071998D01*
X155773515Y-74055095D01*
X155144905Y-73426485D01*
X155110879Y-73364173D01*
X155108000Y-73337390D01*
X155108000Y-73258973D01*
X155108690Y-73245803D01*
X155112814Y-73206565D01*
X155113504Y-73200000D01*
X155108690Y-73154197D01*
X155108000Y-73141027D01*
X155108000Y-71258973D01*
X155108690Y-71245803D01*
X155112814Y-71206565D01*
X155113504Y-71200000D01*
X155108690Y-71154197D01*
X155108000Y-71141027D01*
X155108000Y-69258973D01*
X155108690Y-69245803D01*
X155112814Y-69206565D01*
X155113504Y-69200000D01*
X155108690Y-69154197D01*
X155108000Y-69141027D01*
X155108000Y-67258973D01*
X155108690Y-67245803D01*
X155112814Y-67206565D01*
X155113504Y-67200000D01*
X155108690Y-67154197D01*
X155108000Y-67141027D01*
X155108000Y-65258973D01*
X155108690Y-65245803D01*
X155112814Y-65206565D01*
X155113504Y-65200000D01*
X155108690Y-65154197D01*
X155108000Y-65141027D01*
X155108000Y-58726000D01*
X155096391Y-58618020D01*
X155085005Y-58565678D01*
X155050707Y-58462628D01*
X154972535Y-58340990D01*
X154926042Y-58287334D01*
X154816766Y-58192645D01*
X154685240Y-58132579D01*
X154661486Y-58125604D01*
X154621442Y-58113846D01*
X154621438Y-58113845D01*
X154617119Y-58112577D01*
X154612671Y-58111937D01*
X154612664Y-58111936D01*
X154478448Y-58092639D01*
X154478441Y-58092638D01*
X154474000Y-58092000D01*
X147034000Y-58092000D01*
X146926020Y-58103609D01*
X146922736Y-58104323D01*
X146922732Y-58104324D01*
X146897661Y-58109778D01*
X146873678Y-58114995D01*
X146770628Y-58149293D01*
X146764000Y-58153553D01*
X146763995Y-58153555D01*
X146725158Y-58178515D01*
X146657037Y-58198518D01*
X146604694Y-58187132D01*
X146485240Y-58132579D01*
X146461486Y-58125604D01*
X146421442Y-58113846D01*
X146421438Y-58113845D01*
X146417119Y-58112577D01*
X146412671Y-58111937D01*
X146412664Y-58111936D01*
X146278448Y-58092639D01*
X146278441Y-58092638D01*
X146274000Y-58092000D01*
X135926000Y-58092000D01*
X135922656Y-58092360D01*
X135922647Y-58092360D01*
X135889467Y-58095927D01*
X135819599Y-58083321D01*
X135767637Y-58034942D01*
X135750000Y-57970649D01*
X135750000Y-44876000D01*
X135770002Y-44807879D01*
X135823658Y-44761386D01*
X135876000Y-44750000D01*
X150674000Y-44750000D01*
X150742121Y-44770002D01*
G37*
%TD.AperFunction*%
%TD*%
%TA.AperFunction,Conductor*%
%TO.N,/HBridge/+Peltier*%
G36*
X146342121Y-89420002D02*
G01*
X146388614Y-89473658D01*
X146400000Y-89526000D01*
X146400000Y-110674000D01*
X146379998Y-110742121D01*
X146326342Y-110788614D01*
X146274000Y-110800000D01*
X136126000Y-110800000D01*
X136057879Y-110779998D01*
X136011386Y-110726342D01*
X136000000Y-110674000D01*
X136000000Y-98400000D01*
X121126000Y-98400000D01*
X121057879Y-98379998D01*
X121011386Y-98326342D01*
X121000000Y-98274000D01*
X121000000Y-89526000D01*
X121020002Y-89457879D01*
X121073658Y-89411386D01*
X121126000Y-89400000D01*
X146274000Y-89400000D01*
X146342121Y-89420002D01*
G37*
%TD.AperFunction*%
%TD*%
%TA.AperFunction,Conductor*%
%TO.N,/AHS*%
G36*
X162542121Y-89420002D02*
G01*
X162588614Y-89473658D01*
X162600000Y-89526000D01*
X162600000Y-94552844D01*
X162579998Y-94620965D01*
X162526342Y-94667458D01*
X162474000Y-94678844D01*
X162423519Y-94678844D01*
X162419288Y-94679422D01*
X162419281Y-94679422D01*
X162329385Y-94691693D01*
X162287376Y-94697427D01*
X162248549Y-94708228D01*
X162226428Y-94714381D01*
X162226425Y-94714382D01*
X162222309Y-94715527D01*
X162148590Y-94747303D01*
X162078118Y-94755900D01*
X162046374Y-94746209D01*
X162045958Y-94746019D01*
X161987721Y-94719423D01*
X161963967Y-94712448D01*
X161923923Y-94700690D01*
X161923919Y-94700689D01*
X161919600Y-94699421D01*
X161915152Y-94698781D01*
X161915145Y-94698780D01*
X161780929Y-94679483D01*
X161780922Y-94679482D01*
X161776481Y-94678844D01*
X155442978Y-94678844D01*
X155388684Y-94681754D01*
X155387013Y-94681934D01*
X155386996Y-94681935D01*
X155363581Y-94684452D01*
X155363566Y-94684454D01*
X155361901Y-94684633D01*
X155340356Y-94688124D01*
X155314318Y-94692343D01*
X155314314Y-94692344D01*
X155308205Y-94693334D01*
X155291886Y-94699421D01*
X155176945Y-94742293D01*
X155176943Y-94742294D01*
X155172731Y-94743865D01*
X155110419Y-94777891D01*
X155106819Y-94780586D01*
X154998275Y-94861842D01*
X154998271Y-94861846D01*
X154994673Y-94864539D01*
X154863269Y-94995943D01*
X154802461Y-95069410D01*
X154775967Y-95108354D01*
X154774542Y-95110942D01*
X154733561Y-95185357D01*
X154733559Y-95185361D01*
X154729960Y-95191897D01*
X154691871Y-95331382D01*
X154683106Y-95401836D01*
X154685859Y-95546414D01*
X154729231Y-95684347D01*
X154759949Y-95748354D01*
X154762446Y-95752081D01*
X154762452Y-95752092D01*
X154778682Y-95776319D01*
X154800000Y-95846445D01*
X154800000Y-96467531D01*
X154779998Y-96535652D01*
X154725259Y-96582633D01*
X154720310Y-96584836D01*
X154720307Y-96584837D01*
X154720289Y-96584845D01*
X154720279Y-96584849D01*
X154703231Y-96592439D01*
X154693748Y-96596171D01*
X154692242Y-96596621D01*
X154680034Y-96601373D01*
X154679220Y-96601717D01*
X154679205Y-96601723D01*
X154672609Y-96604510D01*
X154653322Y-96612659D01*
X154531676Y-96690819D01*
X154478015Y-96737307D01*
X154475077Y-96740697D01*
X154475073Y-96740701D01*
X154396009Y-96831928D01*
X154383312Y-96846578D01*
X154323235Y-96978098D01*
X154303227Y-97046217D01*
X154282637Y-97189332D01*
X154282635Y-97210547D01*
X154283462Y-97239563D01*
X154284283Y-97253937D01*
X154286767Y-97282873D01*
X154323524Y-97422715D01*
X154325271Y-97426848D01*
X154325273Y-97426855D01*
X154349410Y-97483970D01*
X154351160Y-97488111D01*
X154425822Y-97611928D01*
X154532347Y-97709700D01*
X154590508Y-97749471D01*
X154591935Y-97750341D01*
X154591940Y-97750344D01*
X154630684Y-97773959D01*
X154630687Y-97773960D01*
X154635938Y-97777161D01*
X154657076Y-97784930D01*
X154676226Y-97793980D01*
X154675648Y-97795279D01*
X154681678Y-97797964D01*
X154681699Y-97797972D01*
X154681698Y-97797973D01*
X154686206Y-97799980D01*
X154686209Y-97799982D01*
X154725249Y-97817364D01*
X154779345Y-97863344D01*
X154800000Y-97932470D01*
X154800000Y-98467531D01*
X154779998Y-98535652D01*
X154725249Y-98582637D01*
X154703317Y-98592402D01*
X154693753Y-98596163D01*
X154692161Y-98596639D01*
X154685793Y-98599118D01*
X154680646Y-98601121D01*
X154680628Y-98601128D01*
X154679817Y-98601444D01*
X154679006Y-98601787D01*
X154678983Y-98601796D01*
X154658082Y-98610627D01*
X154658079Y-98610629D01*
X154653103Y-98612731D01*
X154531457Y-98690892D01*
X154528060Y-98693835D01*
X154481190Y-98734440D01*
X154481186Y-98734444D01*
X154477797Y-98737380D01*
X154383102Y-98846642D01*
X154379358Y-98854838D01*
X154324894Y-98974065D01*
X154324892Y-98974071D01*
X154323023Y-98978162D01*
X154303014Y-99046281D01*
X154282422Y-99189402D01*
X154282420Y-99210478D01*
X154283248Y-99239519D01*
X154284070Y-99253898D01*
X154286555Y-99282828D01*
X154323317Y-99422669D01*
X154350956Y-99488065D01*
X154425630Y-99611887D01*
X154532160Y-99709652D01*
X154590372Y-99749453D01*
X154635779Y-99777127D01*
X154641549Y-99779248D01*
X154641556Y-99779251D01*
X154655403Y-99784340D01*
X154670786Y-99795740D01*
X154672600Y-99792447D01*
X154675138Y-99793845D01*
X154676069Y-99794431D01*
X154675684Y-99795295D01*
X154681693Y-99797970D01*
X154681696Y-99797972D01*
X154684392Y-99799172D01*
X154684393Y-99799173D01*
X154725249Y-99817363D01*
X154779345Y-99863343D01*
X154800000Y-99932470D01*
X154800000Y-100467530D01*
X154779998Y-100535651D01*
X154725250Y-100582636D01*
X154703437Y-100592348D01*
X154693768Y-100596153D01*
X154692066Y-100596661D01*
X154679587Y-100601519D01*
X154678795Y-100601854D01*
X154678772Y-100601863D01*
X154657861Y-100610699D01*
X154657855Y-100610702D01*
X154652888Y-100612801D01*
X154648349Y-100615717D01*
X154648346Y-100615719D01*
X154535025Y-100688531D01*
X154531242Y-100690962D01*
X154527845Y-100693905D01*
X154480975Y-100734510D01*
X154480971Y-100734514D01*
X154477582Y-100737450D01*
X154382887Y-100846712D01*
X154379143Y-100854908D01*
X154324679Y-100974135D01*
X154324677Y-100974141D01*
X154322808Y-100978232D01*
X154302799Y-101046351D01*
X154282207Y-101189471D01*
X154282205Y-101210406D01*
X154283032Y-101239427D01*
X154283853Y-101253799D01*
X154286336Y-101282722D01*
X154287708Y-101287942D01*
X154287709Y-101287948D01*
X154321945Y-101418209D01*
X154323090Y-101422564D01*
X154350725Y-101487961D01*
X154425389Y-101611785D01*
X154531914Y-101709557D01*
X154535627Y-101712096D01*
X154535632Y-101712100D01*
X154571505Y-101736630D01*
X154590178Y-101749399D01*
X154591588Y-101750258D01*
X154591595Y-101750263D01*
X154630330Y-101773874D01*
X154630333Y-101773876D01*
X154635587Y-101777078D01*
X154641367Y-101779202D01*
X154641370Y-101779204D01*
X154659210Y-101785762D01*
X154675918Y-101794731D01*
X154675669Y-101795289D01*
X154681693Y-101797971D01*
X154681711Y-101797978D01*
X154683215Y-101798648D01*
X154683225Y-101798653D01*
X154725248Y-101817362D01*
X154779344Y-101863342D01*
X154800000Y-101932469D01*
X154800000Y-102490512D01*
X154779998Y-102558633D01*
X154757608Y-102584497D01*
X154757721Y-102584619D01*
X154756648Y-102585605D01*
X154756645Y-102585609D01*
X154756391Y-102585842D01*
X154756390Y-102585843D01*
X154737732Y-102603001D01*
X154737721Y-102603012D01*
X154736393Y-102604233D01*
X154695681Y-102646251D01*
X154617751Y-102768045D01*
X154588387Y-102832684D01*
X154547928Y-102971500D01*
X154548216Y-103116091D01*
X154558460Y-103186345D01*
X154599473Y-103324999D01*
X154677888Y-103446481D01*
X154724488Y-103500044D01*
X154754734Y-103526147D01*
X154756324Y-103527519D01*
X154794826Y-103587169D01*
X154800000Y-103622907D01*
X154800000Y-110674000D01*
X154779998Y-110742121D01*
X154726342Y-110788614D01*
X154674000Y-110800000D01*
X147034000Y-110800000D01*
X146965879Y-110779998D01*
X146919386Y-110726342D01*
X146908000Y-110674000D01*
X146908000Y-89526000D01*
X146928002Y-89457879D01*
X146981658Y-89411386D01*
X147034000Y-89400000D01*
X162474000Y-89400000D01*
X162542121Y-89420002D01*
G37*
%TD.AperFunction*%
%TD*%
M02*
