%TF.GenerationSoftware,KiCad,Pcbnew,(5.1.10)-1*%
%TF.CreationDate,2021-09-14T14:35:24+02:00*%
%TF.ProjectId,BTS-MainBoard-Power,4254532d-4d61-4696-9e42-6f6172642d50,rev?*%
%TF.SameCoordinates,Original*%
%TF.FileFunction,Copper,L1,Top*%
%TF.FilePolarity,Positive*%
%FSLAX46Y46*%
G04 Gerber Fmt 4.6, Leading zero omitted, Abs format (unit mm)*
G04 Created by KiCad (PCBNEW (5.1.10)-1) date 2021-09-14 14:35:24*
%MOMM*%
%LPD*%
G01*
G04 APERTURE LIST*
%TA.AperFunction,SMDPad,CuDef*%
%ADD10R,6.400000X5.800000*%
%TD*%
%TA.AperFunction,SMDPad,CuDef*%
%ADD11R,2.200000X1.200000*%
%TD*%
%TA.AperFunction,SMDPad,CuDef*%
%ADD12R,5.800000X6.400000*%
%TD*%
%TA.AperFunction,SMDPad,CuDef*%
%ADD13R,1.200000X2.200000*%
%TD*%
%TA.AperFunction,SMDPad,CuDef*%
%ADD14R,2.510000X1.000000*%
%TD*%
%TA.AperFunction,ConnectorPad*%
%ADD15C,8.000000*%
%TD*%
%TA.AperFunction,ComponentPad*%
%ADD16C,4.400000*%
%TD*%
%TA.AperFunction,SMDPad,CuDef*%
%ADD17R,4.500000X5.000000*%
%TD*%
%TA.AperFunction,SMDPad,CuDef*%
%ADD18O,5.000000X10.000000*%
%TD*%
%TA.AperFunction,SMDPad,CuDef*%
%ADD19O,15.000000X7.000000*%
%TD*%
%TA.AperFunction,Conductor*%
%ADD20C,1.000000*%
%TD*%
%TA.AperFunction,Conductor*%
%ADD21C,5.000000*%
%TD*%
%TA.AperFunction,Conductor*%
%ADD22C,0.250000*%
%TD*%
%TA.AperFunction,Conductor*%
%ADD23C,0.254000*%
%TD*%
%TA.AperFunction,Conductor*%
%ADD24C,0.100000*%
%TD*%
G04 APERTURE END LIST*
D10*
%TO.P,Q4,2*%
%TO.N,/BHS*%
X226060000Y-118490000D03*
D11*
%TO.P,Q4,3*%
%TO.N,/ALS*%
X219760000Y-120770000D03*
%TO.P,Q4,1*%
%TO.N,Net-(Q4-Pad1)*%
X219760000Y-116210000D03*
%TD*%
D10*
%TO.P,Q3,2*%
%TO.N,+12V*%
X243610000Y-53595000D03*
D11*
%TO.P,Q3,3*%
%TO.N,/BHS*%
X237310000Y-55875000D03*
%TO.P,Q3,1*%
%TO.N,Net-(Q3-Pad1)*%
X237310000Y-51315000D03*
%TD*%
D12*
%TO.P,Q2,2*%
%TO.N,/AHS*%
X183516000Y-114276000D03*
D13*
%TO.P,Q2,3*%
%TO.N,/ALS*%
X185796000Y-120576000D03*
%TO.P,Q2,1*%
%TO.N,Net-(Q2-Pad1)*%
X181236000Y-120576000D03*
%TD*%
D12*
%TO.P,Q1,2*%
%TO.N,+12V*%
X185040000Y-52475000D03*
D13*
%TO.P,Q1,3*%
%TO.N,/AHS*%
X187320000Y-58775000D03*
%TO.P,Q1,1*%
%TO.N,Net-(Q1-Pad1)*%
X182760000Y-58775000D03*
%TD*%
D14*
%TO.P,J19,2*%
%TO.N,/FanDrive*%
X247146000Y-117094000D03*
%TO.P,J19,1*%
%TO.N,+12V*%
X243836000Y-114554000D03*
%TD*%
%TO.P,J18,2*%
%TO.N,/FanDrive*%
X254131000Y-117094000D03*
%TO.P,J18,1*%
%TO.N,+12V*%
X250821000Y-114554000D03*
%TD*%
%TO.P,J17,2*%
%TO.N,/FanDrive*%
X254131000Y-110447666D03*
%TO.P,J17,1*%
%TO.N,+12V*%
X250821000Y-107907666D03*
%TD*%
%TO.P,J16,2*%
%TO.N,/FanDrive*%
X254131000Y-103801333D03*
%TO.P,J16,1*%
%TO.N,+12V*%
X250821000Y-101261333D03*
%TD*%
%TO.P,J15,2*%
%TO.N,/FanDrive*%
X247146000Y-110447666D03*
%TO.P,J15,1*%
%TO.N,+12V*%
X243836000Y-107907666D03*
%TD*%
%TO.P,J14,2*%
%TO.N,/FanDrive*%
X247146000Y-103801333D03*
%TO.P,J14,1*%
%TO.N,+12V*%
X243836000Y-101261333D03*
%TD*%
%TO.P,J13,2*%
%TO.N,/FanDrive*%
X254131000Y-97155000D03*
%TO.P,J13,1*%
%TO.N,+12V*%
X250821000Y-94615000D03*
%TD*%
%TO.P,J12,2*%
%TO.N,/FanDrive*%
X247146000Y-97155000D03*
%TO.P,J12,1*%
%TO.N,+12V*%
X243836000Y-94615000D03*
%TD*%
%TO.P,C4,2*%
%TO.N,GND*%
%TA.AperFunction,SMDPad,CuDef*%
G36*
G01*
X249904000Y-63992000D02*
X249904000Y-61992000D01*
G75*
G02*
X250154000Y-61742000I250000J0D01*
G01*
X253654000Y-61742000D01*
G75*
G02*
X253904000Y-61992000I0J-250000D01*
G01*
X253904000Y-63992000D01*
G75*
G02*
X253654000Y-64242000I-250000J0D01*
G01*
X250154000Y-64242000D01*
G75*
G02*
X249904000Y-63992000I0J250000D01*
G01*
G37*
%TD.AperFunction*%
%TO.P,C4,1*%
%TO.N,+12V*%
%TA.AperFunction,SMDPad,CuDef*%
G36*
G01*
X241904000Y-63992000D02*
X241904000Y-61992000D01*
G75*
G02*
X242154000Y-61742000I250000J0D01*
G01*
X245654000Y-61742000D01*
G75*
G02*
X245904000Y-61992000I0J-250000D01*
G01*
X245904000Y-63992000D01*
G75*
G02*
X245654000Y-64242000I-250000J0D01*
G01*
X242154000Y-64242000D01*
G75*
G02*
X241904000Y-63992000I0J250000D01*
G01*
G37*
%TD.AperFunction*%
%TD*%
%TO.P,C5,2*%
%TO.N,GND*%
%TA.AperFunction,SMDPad,CuDef*%
G36*
G01*
X249904000Y-75676000D02*
X249904000Y-73676000D01*
G75*
G02*
X250154000Y-73426000I250000J0D01*
G01*
X253654000Y-73426000D01*
G75*
G02*
X253904000Y-73676000I0J-250000D01*
G01*
X253904000Y-75676000D01*
G75*
G02*
X253654000Y-75926000I-250000J0D01*
G01*
X250154000Y-75926000D01*
G75*
G02*
X249904000Y-75676000I0J250000D01*
G01*
G37*
%TD.AperFunction*%
%TO.P,C5,1*%
%TO.N,+12V*%
%TA.AperFunction,SMDPad,CuDef*%
G36*
G01*
X241904000Y-75676000D02*
X241904000Y-73676000D01*
G75*
G02*
X242154000Y-73426000I250000J0D01*
G01*
X245654000Y-73426000D01*
G75*
G02*
X245904000Y-73676000I0J-250000D01*
G01*
X245904000Y-75676000D01*
G75*
G02*
X245654000Y-75926000I-250000J0D01*
G01*
X242154000Y-75926000D01*
G75*
G02*
X241904000Y-75676000I0J250000D01*
G01*
G37*
%TD.AperFunction*%
%TD*%
%TO.P,C3,2*%
%TO.N,GND*%
%TA.AperFunction,SMDPad,CuDef*%
G36*
G01*
X249904000Y-87360000D02*
X249904000Y-85360000D01*
G75*
G02*
X250154000Y-85110000I250000J0D01*
G01*
X253654000Y-85110000D01*
G75*
G02*
X253904000Y-85360000I0J-250000D01*
G01*
X253904000Y-87360000D01*
G75*
G02*
X253654000Y-87610000I-250000J0D01*
G01*
X250154000Y-87610000D01*
G75*
G02*
X249904000Y-87360000I0J250000D01*
G01*
G37*
%TD.AperFunction*%
%TO.P,C3,1*%
%TO.N,+12V*%
%TA.AperFunction,SMDPad,CuDef*%
G36*
G01*
X241904000Y-87360000D02*
X241904000Y-85360000D01*
G75*
G02*
X242154000Y-85110000I250000J0D01*
G01*
X245654000Y-85110000D01*
G75*
G02*
X245904000Y-85360000I0J-250000D01*
G01*
X245904000Y-87360000D01*
G75*
G02*
X245654000Y-87610000I-250000J0D01*
G01*
X242154000Y-87610000D01*
G75*
G02*
X241904000Y-87360000I0J250000D01*
G01*
G37*
%TD.AperFunction*%
%TD*%
%TO.P,R2,2*%
%TO.N,GND*%
%TA.AperFunction,SMDPad,CuDef*%
G36*
G01*
X175070000Y-111661001D02*
X175070000Y-108810999D01*
G75*
G02*
X175319999Y-108561000I249999J0D01*
G01*
X176220001Y-108561000D01*
G75*
G02*
X176470000Y-108810999I0J-249999D01*
G01*
X176470000Y-111661001D01*
G75*
G02*
X176220001Y-111911000I-249999J0D01*
G01*
X175319999Y-111911000D01*
G75*
G02*
X175070000Y-111661001I0J249999D01*
G01*
G37*
%TD.AperFunction*%
%TO.P,R2,1*%
%TA.AperFunction,SMDPad,CuDef*%
G36*
G01*
X168970000Y-111661001D02*
X168970000Y-108810999D01*
G75*
G02*
X169219999Y-108561000I249999J0D01*
G01*
X170120001Y-108561000D01*
G75*
G02*
X170370000Y-108810999I0J-249999D01*
G01*
X170370000Y-111661001D01*
G75*
G02*
X170120001Y-111911000I-249999J0D01*
G01*
X169219999Y-111911000D01*
G75*
G02*
X168970000Y-111661001I0J249999D01*
G01*
G37*
%TD.AperFunction*%
%TD*%
%TO.P,R1,2*%
%TO.N,+12V*%
%TA.AperFunction,SMDPad,CuDef*%
G36*
G01*
X179733001Y-75374000D02*
X176882999Y-75374000D01*
G75*
G02*
X176633000Y-75124001I0J249999D01*
G01*
X176633000Y-74223999D01*
G75*
G02*
X176882999Y-73974000I249999J0D01*
G01*
X179733001Y-73974000D01*
G75*
G02*
X179983000Y-74223999I0J-249999D01*
G01*
X179983000Y-75124001D01*
G75*
G02*
X179733001Y-75374000I-249999J0D01*
G01*
G37*
%TD.AperFunction*%
%TO.P,R1,1*%
%TA.AperFunction,SMDPad,CuDef*%
G36*
G01*
X179733001Y-81474000D02*
X176882999Y-81474000D01*
G75*
G02*
X176633000Y-81224001I0J249999D01*
G01*
X176633000Y-80323999D01*
G75*
G02*
X176882999Y-80074000I249999J0D01*
G01*
X179733001Y-80074000D01*
G75*
G02*
X179983000Y-80323999I0J-249999D01*
G01*
X179983000Y-81224001D01*
G75*
G02*
X179733001Y-81474000I-249999J0D01*
G01*
G37*
%TD.AperFunction*%
%TD*%
%TO.P,C11,2*%
%TO.N,GND*%
%TA.AperFunction,SMDPad,CuDef*%
G36*
G01*
X170804000Y-73009997D02*
X170804000Y-74310003D01*
G75*
G02*
X170554003Y-74560000I-249997J0D01*
G01*
X169728997Y-74560000D01*
G75*
G02*
X169479000Y-74310003I0J249997D01*
G01*
X169479000Y-73009997D01*
G75*
G02*
X169728997Y-72760000I249997J0D01*
G01*
X170554003Y-72760000D01*
G75*
G02*
X170804000Y-73009997I0J-249997D01*
G01*
G37*
%TD.AperFunction*%
%TO.P,C11,1*%
%TO.N,/ALS*%
%TA.AperFunction,SMDPad,CuDef*%
G36*
G01*
X173929000Y-73009997D02*
X173929000Y-74310003D01*
G75*
G02*
X173679003Y-74560000I-249997J0D01*
G01*
X172853997Y-74560000D01*
G75*
G02*
X172604000Y-74310003I0J249997D01*
G01*
X172604000Y-73009997D01*
G75*
G02*
X172853997Y-72760000I249997J0D01*
G01*
X173679003Y-72760000D01*
G75*
G02*
X173929000Y-73009997I0J-249997D01*
G01*
G37*
%TD.AperFunction*%
%TD*%
%TO.P,C10,2*%
%TO.N,GND*%
%TA.AperFunction,SMDPad,CuDef*%
G36*
G01*
X170804000Y-81195997D02*
X170804000Y-83396003D01*
G75*
G02*
X170554003Y-83646000I-249997J0D01*
G01*
X169728997Y-83646000D01*
G75*
G02*
X169479000Y-83396003I0J249997D01*
G01*
X169479000Y-81195997D01*
G75*
G02*
X169728997Y-80946000I249997J0D01*
G01*
X170554003Y-80946000D01*
G75*
G02*
X170804000Y-81195997I0J-249997D01*
G01*
G37*
%TD.AperFunction*%
%TO.P,C10,1*%
%TO.N,/ALS*%
%TA.AperFunction,SMDPad,CuDef*%
G36*
G01*
X173929000Y-81195997D02*
X173929000Y-83396003D01*
G75*
G02*
X173679003Y-83646000I-249997J0D01*
G01*
X172853997Y-83646000D01*
G75*
G02*
X172604000Y-83396003I0J249997D01*
G01*
X172604000Y-81195997D01*
G75*
G02*
X172853997Y-80946000I249997J0D01*
G01*
X173679003Y-80946000D01*
G75*
G02*
X173929000Y-81195997I0J-249997D01*
G01*
G37*
%TD.AperFunction*%
%TD*%
%TO.P,C9,2*%
%TO.N,GND*%
%TA.AperFunction,SMDPad,CuDef*%
G36*
G01*
X170842500Y-77073997D02*
X170842500Y-78374003D01*
G75*
G02*
X170592503Y-78624000I-249997J0D01*
G01*
X169767497Y-78624000D01*
G75*
G02*
X169517500Y-78374003I0J249997D01*
G01*
X169517500Y-77073997D01*
G75*
G02*
X169767497Y-76824000I249997J0D01*
G01*
X170592503Y-76824000D01*
G75*
G02*
X170842500Y-77073997I0J-249997D01*
G01*
G37*
%TD.AperFunction*%
%TO.P,C9,1*%
%TO.N,/ALS*%
%TA.AperFunction,SMDPad,CuDef*%
G36*
G01*
X173967500Y-77073997D02*
X173967500Y-78374003D01*
G75*
G02*
X173717503Y-78624000I-249997J0D01*
G01*
X172892497Y-78624000D01*
G75*
G02*
X172642500Y-78374003I0J249997D01*
G01*
X172642500Y-77073997D01*
G75*
G02*
X172892497Y-76824000I249997J0D01*
G01*
X173717503Y-76824000D01*
G75*
G02*
X173967500Y-77073997I0J-249997D01*
G01*
G37*
%TD.AperFunction*%
%TD*%
%TO.P,C1,2*%
%TO.N,GND*%
%TA.AperFunction,SMDPad,CuDef*%
G36*
G01*
X170842500Y-68945997D02*
X170842500Y-70246003D01*
G75*
G02*
X170592503Y-70496000I-249997J0D01*
G01*
X169767497Y-70496000D01*
G75*
G02*
X169517500Y-70246003I0J249997D01*
G01*
X169517500Y-68945997D01*
G75*
G02*
X169767497Y-68696000I249997J0D01*
G01*
X170592503Y-68696000D01*
G75*
G02*
X170842500Y-68945997I0J-249997D01*
G01*
G37*
%TD.AperFunction*%
%TO.P,C1,1*%
%TO.N,+12V*%
%TA.AperFunction,SMDPad,CuDef*%
G36*
G01*
X173967500Y-68945997D02*
X173967500Y-70246003D01*
G75*
G02*
X173717503Y-70496000I-249997J0D01*
G01*
X172892497Y-70496000D01*
G75*
G02*
X172642500Y-70246003I0J249997D01*
G01*
X172642500Y-68945997D01*
G75*
G02*
X172892497Y-68696000I249997J0D01*
G01*
X173717503Y-68696000D01*
G75*
G02*
X173967500Y-68945997I0J-249997D01*
G01*
G37*
%TD.AperFunction*%
%TD*%
%TO.P,J3,14*%
%TO.N,GND*%
X186059000Y-103886000D03*
%TO.P,J3,12*%
%TO.N,/ALS*%
X186059000Y-98806000D03*
%TO.P,J3,10*%
%TO.N,/BHS*%
X186059000Y-93726000D03*
%TO.P,J3,8*%
%TO.N,/BLO*%
X186059000Y-88646000D03*
%TO.P,J3,6*%
%TO.N,N/C*%
X186059000Y-83566000D03*
%TO.P,J3,4*%
%TO.N,/ALO*%
X186059000Y-78486000D03*
%TO.P,J3,2*%
%TO.N,/AHS*%
X186059000Y-73406000D03*
%TO.P,J3,13*%
%TO.N,/FanDrive*%
X182749000Y-101346000D03*
%TO.P,J3,11*%
%TO.N,+12V*%
X182749000Y-96266000D03*
%TO.P,J3,9*%
%TO.N,/ALS*%
X182749000Y-91186000D03*
%TO.P,J3,7*%
%TO.N,/BHO*%
X182749000Y-86106000D03*
%TO.P,J3,5*%
%TO.N,/ALS*%
X182749000Y-81026000D03*
%TO.P,J3,3*%
%TO.N,/AHO*%
X182749000Y-75946000D03*
%TO.P,J3,1*%
%TO.N,N/C*%
X182749000Y-70866000D03*
%TD*%
D15*
%TO.P,H3,1*%
%TO.N,GND*%
X252730000Y-46990000D03*
D16*
X252730000Y-46990000D03*
%TD*%
D15*
%TO.P,H4,1*%
%TO.N,GND*%
X166370000Y-46990000D03*
D16*
X166370000Y-46990000D03*
%TD*%
D15*
%TO.P,H2,1*%
%TO.N,GND*%
X166370000Y-127000000D03*
D16*
X166370000Y-127000000D03*
%TD*%
D15*
%TO.P,H1,1*%
%TO.N,GND*%
X252730000Y-127000000D03*
D16*
X252730000Y-127000000D03*
%TD*%
%TO.P,R11,2*%
%TO.N,/BLO*%
%TA.AperFunction,SMDPad,CuDef*%
G36*
G01*
X213984000Y-116214999D02*
X213984000Y-117465001D01*
G75*
G02*
X213734001Y-117715000I-249999J0D01*
G01*
X212933999Y-117715000D01*
G75*
G02*
X212684000Y-117465001I0J249999D01*
G01*
X212684000Y-116214999D01*
G75*
G02*
X212933999Y-115965000I249999J0D01*
G01*
X213734001Y-115965000D01*
G75*
G02*
X213984000Y-116214999I0J-249999D01*
G01*
G37*
%TD.AperFunction*%
%TO.P,R11,1*%
%TO.N,Net-(Q4-Pad1)*%
%TA.AperFunction,SMDPad,CuDef*%
G36*
G01*
X217084000Y-116214999D02*
X217084000Y-117465001D01*
G75*
G02*
X216834001Y-117715000I-249999J0D01*
G01*
X216033999Y-117715000D01*
G75*
G02*
X215784000Y-117465001I0J249999D01*
G01*
X215784000Y-116214999D01*
G75*
G02*
X216033999Y-115965000I249999J0D01*
G01*
X216834001Y-115965000D01*
G75*
G02*
X217084000Y-116214999I0J-249999D01*
G01*
G37*
%TD.AperFunction*%
%TD*%
%TO.P,R10,2*%
%TO.N,/BHO*%
%TA.AperFunction,SMDPad,CuDef*%
G36*
G01*
X231738000Y-50682999D02*
X231738000Y-51933001D01*
G75*
G02*
X231488001Y-52183000I-249999J0D01*
G01*
X230687999Y-52183000D01*
G75*
G02*
X230438000Y-51933001I0J249999D01*
G01*
X230438000Y-50682999D01*
G75*
G02*
X230687999Y-50433000I249999J0D01*
G01*
X231488001Y-50433000D01*
G75*
G02*
X231738000Y-50682999I0J-249999D01*
G01*
G37*
%TD.AperFunction*%
%TO.P,R10,1*%
%TO.N,Net-(Q3-Pad1)*%
%TA.AperFunction,SMDPad,CuDef*%
G36*
G01*
X234838000Y-50682999D02*
X234838000Y-51933001D01*
G75*
G02*
X234588001Y-52183000I-249999J0D01*
G01*
X233787999Y-52183000D01*
G75*
G02*
X233538000Y-51933001I0J249999D01*
G01*
X233538000Y-50682999D01*
G75*
G02*
X233787999Y-50433000I249999J0D01*
G01*
X234588001Y-50433000D01*
G75*
G02*
X234838000Y-50682999I0J-249999D01*
G01*
G37*
%TD.AperFunction*%
%TD*%
%TO.P,R9,2*%
%TO.N,GND*%
%TA.AperFunction,SMDPad,CuDef*%
G36*
G01*
X214475600Y-126175000D02*
X217324400Y-126175000D01*
G75*
G02*
X217575000Y-126425600I0J-250600D01*
G01*
X217575000Y-127324400D01*
G75*
G02*
X217324400Y-127575000I-250600J0D01*
G01*
X214475600Y-127575000D01*
G75*
G02*
X214225000Y-127324400I0J250600D01*
G01*
X214225000Y-126425600D01*
G75*
G02*
X214475600Y-126175000I250600J0D01*
G01*
G37*
%TD.AperFunction*%
%TO.P,R9,1*%
%TO.N,/ALS*%
%TA.AperFunction,SMDPad,CuDef*%
G36*
G01*
X214474999Y-120075000D02*
X217325001Y-120075000D01*
G75*
G02*
X217575000Y-120324999I0J-249999D01*
G01*
X217575000Y-121225001D01*
G75*
G02*
X217325001Y-121475000I-249999J0D01*
G01*
X214474999Y-121475000D01*
G75*
G02*
X214225000Y-121225001I0J249999D01*
G01*
X214225000Y-120324999D01*
G75*
G02*
X214474999Y-120075000I249999J0D01*
G01*
G37*
%TD.AperFunction*%
%TD*%
%TO.P,R8,2*%
%TO.N,/ALO*%
%TA.AperFunction,SMDPad,CuDef*%
G36*
G01*
X176265000Y-120024999D02*
X176265000Y-121275001D01*
G75*
G02*
X176015001Y-121525000I-249999J0D01*
G01*
X175214999Y-121525000D01*
G75*
G02*
X174965000Y-121275001I0J249999D01*
G01*
X174965000Y-120024999D01*
G75*
G02*
X175214999Y-119775000I249999J0D01*
G01*
X176015001Y-119775000D01*
G75*
G02*
X176265000Y-120024999I0J-249999D01*
G01*
G37*
%TD.AperFunction*%
%TO.P,R8,1*%
%TO.N,Net-(Q2-Pad1)*%
%TA.AperFunction,SMDPad,CuDef*%
G36*
G01*
X179365000Y-120024999D02*
X179365000Y-121275001D01*
G75*
G02*
X179115001Y-121525000I-249999J0D01*
G01*
X178314999Y-121525000D01*
G75*
G02*
X178065000Y-121275001I0J249999D01*
G01*
X178065000Y-120024999D01*
G75*
G02*
X178314999Y-119775000I249999J0D01*
G01*
X179115001Y-119775000D01*
G75*
G02*
X179365000Y-120024999I0J-249999D01*
G01*
G37*
%TD.AperFunction*%
%TD*%
%TO.P,R7,2*%
%TO.N,/AHO*%
%TA.AperFunction,SMDPad,CuDef*%
G36*
G01*
X185812000Y-65141001D02*
X185812000Y-63890999D01*
G75*
G02*
X186061999Y-63641000I249999J0D01*
G01*
X186862001Y-63641000D01*
G75*
G02*
X187112000Y-63890999I0J-249999D01*
G01*
X187112000Y-65141001D01*
G75*
G02*
X186862001Y-65391000I-249999J0D01*
G01*
X186061999Y-65391000D01*
G75*
G02*
X185812000Y-65141001I0J249999D01*
G01*
G37*
%TD.AperFunction*%
%TO.P,R7,1*%
%TO.N,Net-(Q1-Pad1)*%
%TA.AperFunction,SMDPad,CuDef*%
G36*
G01*
X182712000Y-65141001D02*
X182712000Y-63890999D01*
G75*
G02*
X182961999Y-63641000I249999J0D01*
G01*
X183762001Y-63641000D01*
G75*
G02*
X184012000Y-63890999I0J-249999D01*
G01*
X184012000Y-65141001D01*
G75*
G02*
X183762001Y-65391000I-249999J0D01*
G01*
X182961999Y-65391000D01*
G75*
G02*
X182712000Y-65141001I0J249999D01*
G01*
G37*
%TD.AperFunction*%
%TD*%
D17*
%TO.P,L4,2*%
%TO.N,/PeltierLeft*%
X203620000Y-77470000D03*
%TO.P,L4,1*%
%TO.N,/AHS*%
X192620000Y-77470000D03*
%TD*%
%TO.P,L3,2*%
%TO.N,/PeltierLeft*%
X203620000Y-95250000D03*
%TO.P,L3,1*%
%TO.N,/AHS*%
X192620000Y-95250000D03*
%TD*%
%TO.P,L2,2*%
%TO.N,/PeltierLeft*%
X203620000Y-113030000D03*
%TO.P,L2,1*%
%TO.N,/AHS*%
X192620000Y-113030000D03*
%TD*%
%TO.P,L1,2*%
%TO.N,/PeltierLeft*%
X203620000Y-59690000D03*
%TO.P,L1,1*%
%TO.N,/AHS*%
X192620000Y-59690000D03*
%TD*%
%TO.P,J11,2*%
%TO.N,/BHS*%
%TA.AperFunction,SMDPad,CuDef*%
G36*
G01*
X234736000Y-96250000D02*
X234736000Y-88750000D01*
G75*
G02*
X235986000Y-87500000I1250000J0D01*
G01*
X238486000Y-87500000D01*
G75*
G02*
X239736000Y-88750000I0J-1250000D01*
G01*
X239736000Y-96250000D01*
G75*
G02*
X238486000Y-97500000I-1250000J0D01*
G01*
X235986000Y-97500000D01*
G75*
G02*
X234736000Y-96250000I0J1250000D01*
G01*
G37*
%TD.AperFunction*%
D18*
%TO.P,J11,1*%
%TO.N,/PeltierLeft*%
X229616000Y-92500000D03*
%TD*%
%TO.P,J10,2*%
%TO.N,/BHS*%
%TA.AperFunction,SMDPad,CuDef*%
G36*
G01*
X234355000Y-68012000D02*
X234355000Y-60512000D01*
G75*
G02*
X235605000Y-59262000I1250000J0D01*
G01*
X238105000Y-59262000D01*
G75*
G02*
X239355000Y-60512000I0J-1250000D01*
G01*
X239355000Y-68012000D01*
G75*
G02*
X238105000Y-69262000I-1250000J0D01*
G01*
X235605000Y-69262000D01*
G75*
G02*
X234355000Y-68012000I0J1250000D01*
G01*
G37*
%TD.AperFunction*%
%TO.P,J10,1*%
%TO.N,/PeltierLeft*%
X229235000Y-64262000D03*
%TD*%
%TO.P,J9,2*%
%TO.N,/BHS*%
%TA.AperFunction,SMDPad,CuDef*%
G36*
G01*
X218480000Y-68240000D02*
X218480000Y-60740000D01*
G75*
G02*
X219730000Y-59490000I1250000J0D01*
G01*
X222230000Y-59490000D01*
G75*
G02*
X223480000Y-60740000I0J-1250000D01*
G01*
X223480000Y-68240000D01*
G75*
G02*
X222230000Y-69490000I-1250000J0D01*
G01*
X219730000Y-69490000D01*
G75*
G02*
X218480000Y-68240000I0J1250000D01*
G01*
G37*
%TD.AperFunction*%
%TO.P,J9,1*%
%TO.N,/PeltierLeft*%
X213360000Y-64490000D03*
%TD*%
%TO.P,J8,2*%
%TO.N,/BHS*%
%TA.AperFunction,SMDPad,CuDef*%
G36*
G01*
X218480000Y-96250000D02*
X218480000Y-88750000D01*
G75*
G02*
X219730000Y-87500000I1250000J0D01*
G01*
X222230000Y-87500000D01*
G75*
G02*
X223480000Y-88750000I0J-1250000D01*
G01*
X223480000Y-96250000D01*
G75*
G02*
X222230000Y-97500000I-1250000J0D01*
G01*
X219730000Y-97500000D01*
G75*
G02*
X218480000Y-96250000I0J1250000D01*
G01*
G37*
%TD.AperFunction*%
%TO.P,J8,1*%
%TO.N,/PeltierLeft*%
X213360000Y-92500000D03*
%TD*%
%TO.P,J7,2*%
%TO.N,/BHS*%
%TA.AperFunction,SMDPad,CuDef*%
G36*
G01*
X234355000Y-80712000D02*
X234355000Y-73212000D01*
G75*
G02*
X235605000Y-71962000I1250000J0D01*
G01*
X238105000Y-71962000D01*
G75*
G02*
X239355000Y-73212000I0J-1250000D01*
G01*
X239355000Y-80712000D01*
G75*
G02*
X238105000Y-81962000I-1250000J0D01*
G01*
X235605000Y-81962000D01*
G75*
G02*
X234355000Y-80712000I0J1250000D01*
G01*
G37*
%TD.AperFunction*%
%TO.P,J7,1*%
%TO.N,/PeltierLeft*%
X229235000Y-76962000D03*
%TD*%
%TO.P,J6,2*%
%TO.N,/BHS*%
%TA.AperFunction,SMDPad,CuDef*%
G36*
G01*
X218480000Y-81250000D02*
X218480000Y-73750000D01*
G75*
G02*
X219730000Y-72500000I1250000J0D01*
G01*
X222230000Y-72500000D01*
G75*
G02*
X223480000Y-73750000I0J-1250000D01*
G01*
X223480000Y-81250000D01*
G75*
G02*
X222230000Y-82500000I-1250000J0D01*
G01*
X219730000Y-82500000D01*
G75*
G02*
X218480000Y-81250000I0J1250000D01*
G01*
G37*
%TD.AperFunction*%
%TO.P,J6,1*%
%TO.N,/PeltierLeft*%
X213360000Y-77500000D03*
%TD*%
%TO.P,J5,2*%
%TO.N,/BHS*%
%TA.AperFunction,SMDPad,CuDef*%
G36*
G01*
X234736000Y-111192000D02*
X234736000Y-103692000D01*
G75*
G02*
X235986000Y-102442000I1250000J0D01*
G01*
X238486000Y-102442000D01*
G75*
G02*
X239736000Y-103692000I0J-1250000D01*
G01*
X239736000Y-111192000D01*
G75*
G02*
X238486000Y-112442000I-1250000J0D01*
G01*
X235986000Y-112442000D01*
G75*
G02*
X234736000Y-111192000I0J1250000D01*
G01*
G37*
%TD.AperFunction*%
%TO.P,J5,1*%
%TO.N,/PeltierLeft*%
X229616000Y-107442000D03*
%TD*%
%TO.P,J4,2*%
%TO.N,/BHS*%
%TA.AperFunction,SMDPad,CuDef*%
G36*
G01*
X218480000Y-111250000D02*
X218480000Y-103750000D01*
G75*
G02*
X219730000Y-102500000I1250000J0D01*
G01*
X222230000Y-102500000D01*
G75*
G02*
X223480000Y-103750000I0J-1250000D01*
G01*
X223480000Y-111250000D01*
G75*
G02*
X222230000Y-112500000I-1250000J0D01*
G01*
X219730000Y-112500000D01*
G75*
G02*
X218480000Y-111250000I0J1250000D01*
G01*
G37*
%TD.AperFunction*%
%TO.P,J4,1*%
%TO.N,/PeltierLeft*%
X213360000Y-107500000D03*
%TD*%
D19*
%TO.P,J2,1*%
%TO.N,GND*%
X228600000Y-128270000D03*
%TD*%
%TO.P,J1,1*%
%TO.N,+12V*%
X228600000Y-45720000D03*
%TD*%
%TO.P,C2,2*%
%TO.N,GND*%
%TA.AperFunction,SMDPad,CuDef*%
G36*
G01*
X243474003Y-43804000D02*
X242173997Y-43804000D01*
G75*
G02*
X241924000Y-43554003I0J249997D01*
G01*
X241924000Y-42728997D01*
G75*
G02*
X242173997Y-42479000I249997J0D01*
G01*
X243474003Y-42479000D01*
G75*
G02*
X243724000Y-42728997I0J-249997D01*
G01*
X243724000Y-43554003D01*
G75*
G02*
X243474003Y-43804000I-249997J0D01*
G01*
G37*
%TD.AperFunction*%
%TO.P,C2,1*%
%TO.N,+12V*%
%TA.AperFunction,SMDPad,CuDef*%
G36*
G01*
X243474003Y-46929000D02*
X242173997Y-46929000D01*
G75*
G02*
X241924000Y-46679003I0J249997D01*
G01*
X241924000Y-45853997D01*
G75*
G02*
X242173997Y-45604000I249997J0D01*
G01*
X243474003Y-45604000D01*
G75*
G02*
X243724000Y-45853997I0J-249997D01*
G01*
X243724000Y-46679003D01*
G75*
G02*
X243474003Y-46929000I-249997J0D01*
G01*
G37*
%TD.AperFunction*%
%TD*%
D20*
%TO.N,GND*%
X248881500Y-43141500D02*
X252730000Y-46990000D01*
X242824000Y-43141500D02*
X248881500Y-43141500D01*
D21*
%TO.N,+12V*%
X191780000Y-45720000D02*
X228600000Y-45720000D01*
X185000000Y-52500000D02*
X191780000Y-45720000D01*
D20*
X173305000Y-69596000D02*
X173305000Y-64195000D01*
X179202000Y-73780000D02*
X178308000Y-74674000D01*
X179202000Y-58298000D02*
X179202000Y-73780000D01*
X173305000Y-64195000D02*
X179202000Y-58298000D01*
X179202000Y-58298000D02*
X185000000Y-52500000D01*
X243904000Y-114364000D02*
X243714000Y-114554000D01*
X243968000Y-94615000D02*
X245110000Y-94615000D01*
X250699000Y-114427000D02*
X250826000Y-114554000D01*
X250699000Y-95759000D02*
X250699000Y-114427000D01*
X249555000Y-94615000D02*
X250699000Y-95759000D01*
X249555000Y-94615000D02*
X250821000Y-94615000D01*
X250821000Y-94615000D02*
X250821000Y-101261333D01*
X245110000Y-94615000D02*
X243904000Y-95821000D01*
X243904000Y-95821000D02*
X243904000Y-114364000D01*
X243904000Y-86360000D02*
X246380000Y-86360000D01*
X246380000Y-86360000D02*
X247650000Y-87630000D01*
X243836000Y-94615000D02*
X243836000Y-101261333D01*
X246380000Y-94615000D02*
X247650000Y-94615000D01*
X245110000Y-94615000D02*
X246380000Y-94615000D01*
X247650000Y-93345000D02*
X246380000Y-94615000D01*
X247650000Y-87630000D02*
X247650000Y-93345000D01*
X247650000Y-93345000D02*
X247650000Y-94615000D01*
X247650000Y-93345000D02*
X248920000Y-94615000D01*
X248920000Y-94615000D02*
X249555000Y-94615000D01*
X247650000Y-94615000D02*
X248920000Y-94615000D01*
D22*
%TO.N,/ALS*%
X173266500Y-73660000D02*
X173266500Y-82296000D01*
X179447000Y-77724000D02*
X182749000Y-81026000D01*
X173305000Y-77724000D02*
X179447000Y-77724000D01*
X181168999Y-82606001D02*
X181168999Y-89605999D01*
X181168999Y-89605999D02*
X182749000Y-91186000D01*
X182749000Y-81026000D02*
X181168999Y-82606001D01*
D21*
X219755000Y-120775000D02*
X219760000Y-120770000D01*
X215900000Y-120775000D02*
X219755000Y-120775000D01*
D22*
X175260000Y-124968000D02*
X181262000Y-124968000D01*
X172269989Y-121977989D02*
X175260000Y-124968000D01*
X184121013Y-102673989D02*
X176726011Y-102673989D01*
X186059000Y-100736002D02*
X184121013Y-102673989D01*
X215600000Y-120475000D02*
X215900000Y-120775000D01*
X186059000Y-98806000D02*
X186059000Y-100736002D01*
X176726011Y-102673989D02*
X172269989Y-107130011D01*
X172269989Y-107130011D02*
X172269989Y-121977989D01*
X181262000Y-124968000D02*
X185755000Y-120475000D01*
X185755000Y-120475000D02*
X215600000Y-120475000D01*
X186059000Y-98806000D02*
X186059000Y-96765002D01*
X182749000Y-93455002D02*
X182749000Y-91186000D01*
X186059000Y-96765002D02*
X182749000Y-93455002D01*
D21*
%TO.N,/PeltierLeft*%
X229880000Y-92380000D02*
X230000000Y-92500000D01*
X229616000Y-64770000D02*
X229108000Y-64262000D01*
X229616000Y-107442000D02*
X229616000Y-64770000D01*
X213360000Y-61241000D02*
X213360000Y-64490000D01*
X218011010Y-56589990D02*
X213360000Y-61241000D01*
X223948990Y-56589990D02*
X218011010Y-56589990D01*
X229108000Y-61749000D02*
X223948990Y-56589990D01*
X229108000Y-64262000D02*
X229108000Y-61749000D01*
X213360000Y-64490000D02*
X213360000Y-107500000D01*
X203620000Y-59690000D02*
X203620000Y-113030000D01*
X210610000Y-95250000D02*
X213360000Y-92500000D01*
X203620000Y-95250000D02*
X210610000Y-95250000D01*
X207830000Y-113030000D02*
X213360000Y-107500000D01*
X203620000Y-113030000D02*
X207830000Y-113030000D01*
X213330000Y-77470000D02*
X213360000Y-77500000D01*
X203620000Y-77470000D02*
X213330000Y-77470000D01*
X208560000Y-59690000D02*
X213360000Y-64490000D01*
X203620000Y-59690000D02*
X208560000Y-59690000D01*
D22*
%TO.N,/AHO*%
X186462000Y-70662998D02*
X186462000Y-64516000D01*
X182749000Y-74375998D02*
X186462000Y-70662998D01*
X182749000Y-75946000D02*
X182749000Y-74375998D01*
%TO.N,/ALO*%
X183081425Y-110199988D02*
X177800000Y-110199988D01*
X177800000Y-110199988D02*
X177800000Y-118465000D01*
X188539023Y-80966023D02*
X188539023Y-104832388D01*
X188539023Y-104832388D02*
X187511400Y-105860011D01*
X186059000Y-78486000D02*
X188539023Y-80966023D01*
X187511400Y-105860011D02*
X187421402Y-105860011D01*
X177800000Y-118465000D02*
X175615000Y-120650000D01*
X187421402Y-105860011D02*
X183081425Y-110199988D01*
%TO.N,/BHO*%
X195226834Y-51308000D02*
X231088000Y-51308000D01*
X182719998Y-56515000D02*
X190019834Y-56515000D01*
X181168999Y-58065999D02*
X182719998Y-56515000D01*
X181168999Y-76706001D02*
X181168999Y-58065999D01*
X184329001Y-79866003D02*
X181168999Y-76706001D01*
X184329001Y-84525999D02*
X184329001Y-79866003D01*
X190019834Y-56515000D02*
X195226834Y-51308000D01*
X182749000Y-86106000D02*
X184329001Y-84525999D01*
%TO.N,/BLO*%
X186030704Y-95401296D02*
X185928000Y-95298592D01*
X210149010Y-120024990D02*
X213334000Y-116840000D01*
X187198000Y-120024990D02*
X210149010Y-120024990D01*
X187198000Y-119345999D02*
X187198000Y-120024990D01*
X186724001Y-118872000D02*
X187198000Y-119345999D01*
X184658000Y-118872000D02*
X186724001Y-118872000D01*
X184150000Y-119380000D02*
X184658000Y-118872000D01*
X184150000Y-121443590D02*
X184150000Y-119380000D01*
X181133590Y-124460000D02*
X184150000Y-121443590D01*
X175388410Y-124460000D02*
X181133590Y-124460000D01*
X172720000Y-121791590D02*
X175388410Y-124460000D01*
X172720000Y-107696000D02*
X172720000Y-121791590D01*
X177292000Y-103124000D02*
X172720000Y-107696000D01*
X184307413Y-103124000D02*
X177292000Y-103124000D01*
X187574001Y-99857412D02*
X184307413Y-103124000D01*
X187574001Y-99631001D02*
X187574001Y-99857412D01*
X187639001Y-99566001D02*
X187574001Y-99631001D01*
X187574001Y-97980999D02*
X187639001Y-98045999D01*
X187639001Y-98045999D02*
X187639001Y-99566001D01*
X186030704Y-95401296D02*
X187574001Y-96944593D01*
X187574001Y-96944593D02*
X187574001Y-97980999D01*
X184478999Y-90226001D02*
X186059000Y-88646000D01*
X185180409Y-95187411D02*
X184478999Y-94486001D01*
X185180409Y-95250000D02*
X185180409Y-95187411D01*
X186030704Y-95401296D02*
X185879408Y-95250000D01*
X184478999Y-94486001D02*
X184478999Y-90226001D01*
X185879408Y-95250000D02*
X185180409Y-95250000D01*
D21*
%TO.N,/BHS*%
X220980000Y-64490000D02*
X220980000Y-107500000D01*
X237236000Y-64770000D02*
X236728000Y-64262000D01*
X237236000Y-107442000D02*
X237236000Y-64770000D01*
X236881000Y-64109000D02*
X236728000Y-64262000D01*
X236881000Y-55621000D02*
X236881000Y-64109000D01*
X237236000Y-112442000D02*
X237236000Y-107442000D01*
X230807000Y-118871000D02*
X237236000Y-112442000D01*
X226211000Y-118871000D02*
X230807000Y-118871000D01*
X221996000Y-108516000D02*
X220980000Y-107500000D01*
X221996000Y-112776000D02*
X221996000Y-108516000D01*
X224215990Y-114995990D02*
X221996000Y-112776000D01*
X224215990Y-116875990D02*
X224215990Y-114995990D01*
X226211000Y-118871000D02*
X224215990Y-116875990D01*
D22*
X181005180Y-123952000D02*
X175516820Y-123952000D01*
X175516820Y-123952000D02*
X173228000Y-121663180D01*
X173228000Y-117856000D02*
X177292000Y-113792000D01*
X177292000Y-113792000D02*
X177292000Y-110071577D01*
X177613600Y-109749977D02*
X182601203Y-109749977D01*
X182601203Y-109749977D02*
X186941180Y-105410000D01*
X187839001Y-104806001D02*
X187839001Y-102965999D01*
X187734001Y-104911001D02*
X187839001Y-104806001D01*
X183642000Y-121315180D02*
X181005180Y-123952000D01*
X186941180Y-105410000D02*
X187325000Y-105410000D01*
X187734001Y-105000999D02*
X187734001Y-104911001D01*
X221996000Y-112776000D02*
X215559810Y-112776000D01*
X188089012Y-102715988D02*
X188089012Y-94251012D01*
X204359656Y-119574979D02*
X188063391Y-119574979D01*
X188089012Y-94251012D02*
X187564000Y-93726000D01*
X188063391Y-119574979D02*
X186910401Y-118421989D01*
X187564000Y-93726000D02*
X186059000Y-93726000D01*
X183642000Y-119251589D02*
X183642000Y-121315180D01*
X186910401Y-118421989D02*
X184471600Y-118421989D01*
X184471600Y-118421989D02*
X183642000Y-119251589D01*
X208897821Y-119437989D02*
X204496646Y-119437989D01*
X187325000Y-105410000D02*
X187734001Y-105000999D01*
X215559810Y-112776000D02*
X208897821Y-119437989D01*
X173228000Y-121663180D02*
X173228000Y-117856000D01*
X187839001Y-102965999D02*
X188089012Y-102715988D01*
X177292000Y-110071577D02*
X177613600Y-109749977D01*
X204496646Y-119437989D02*
X204359656Y-119574979D01*
D21*
%TO.N,/AHS*%
X191475000Y-114175000D02*
X192620000Y-113030000D01*
X183475000Y-114175000D02*
X191475000Y-114175000D01*
X191730000Y-58800000D02*
X192620000Y-59690000D01*
X188201010Y-59721010D02*
X187280000Y-59721010D01*
X192620000Y-64140000D02*
X188201010Y-59721010D01*
X192620000Y-65620000D02*
X192620000Y-64140000D01*
X192620000Y-59690000D02*
X192620000Y-65620000D01*
X192620000Y-65620000D02*
X192620000Y-113030000D01*
D22*
X188556000Y-73406000D02*
X192620000Y-77470000D01*
X186059000Y-73406000D02*
X188556000Y-73406000D01*
%TO.N,Net-(Q1-Pad1)*%
X182720000Y-63771590D02*
X183413205Y-64464795D01*
X182720000Y-58800000D02*
X182720000Y-63771590D01*
%TO.N,Net-(Q2-Pad1)*%
X181020000Y-120650000D02*
X181195000Y-120475000D01*
X178715000Y-120650000D02*
X181020000Y-120650000D01*
%TO.N,Net-(Q3-Pad1)*%
X234435000Y-51061000D02*
X234188000Y-51308000D01*
X236881000Y-51061000D02*
X234435000Y-51061000D01*
%TO.N,Net-(Q4-Pad1)*%
X219652000Y-116332000D02*
X219911000Y-116591000D01*
X216942000Y-116332000D02*
X219652000Y-116332000D01*
X216434000Y-116840000D02*
X216942000Y-116332000D01*
D20*
%TO.N,/FanDrive*%
X247268000Y-116972000D02*
X247146000Y-117094000D01*
X250444000Y-117094000D02*
X251079000Y-117094000D01*
X250444000Y-118491000D02*
X250444000Y-117094000D01*
X249936000Y-117094000D02*
X250444000Y-117094000D01*
X249555000Y-117475000D02*
X249936000Y-117094000D01*
X250444000Y-118364000D02*
X249555000Y-117475000D01*
X250444000Y-118491000D02*
X250444000Y-118364000D01*
X251460000Y-117475000D02*
X251079000Y-117094000D01*
X250444000Y-118491000D02*
X251460000Y-117475000D01*
X248539000Y-117094000D02*
X247268000Y-115823000D01*
X248666000Y-117094000D02*
X248539000Y-117094000D01*
X247268000Y-115823000D02*
X247268000Y-116972000D01*
X247268000Y-97155000D02*
X247268000Y-115823000D01*
X247146000Y-117094000D02*
X248666000Y-117094000D01*
X248666000Y-117094000D02*
X249936000Y-117094000D01*
X253999000Y-116204000D02*
X253999000Y-97282000D01*
X253109000Y-117094000D02*
X253999000Y-116204000D01*
X251079000Y-117094000D02*
X253109000Y-117094000D01*
X254131000Y-117094000D02*
X254131000Y-116971000D01*
X247146000Y-117094000D02*
X254131000Y-117094000D01*
X253999000Y-116962000D02*
X254131000Y-117094000D01*
X253999000Y-116204000D02*
X253999000Y-116962000D01*
X214399010Y-123975010D02*
X221464990Y-123975010D01*
X183538992Y-125793010D02*
X186396002Y-122936000D01*
X221464990Y-123975010D02*
X222504000Y-122936000D01*
X186396002Y-122936000D02*
X213360000Y-122936000D01*
X174918270Y-125793010D02*
X183538992Y-125793010D01*
X171444980Y-122319720D02*
X174918270Y-125793010D01*
X247904000Y-122936000D02*
X250444000Y-120396000D01*
X171444979Y-106788281D02*
X171444980Y-122319720D01*
X250444000Y-120396000D02*
X250444000Y-118491000D01*
X222504000Y-122936000D02*
X247904000Y-122936000D01*
X176887260Y-101346000D02*
X171444979Y-106788281D01*
X213360000Y-122936000D02*
X214399010Y-123975010D01*
X182749000Y-101346000D02*
X176887260Y-101346000D01*
%TD*%
D23*
%TO.N,+12V*%
X248355878Y-42006500D02*
X243986768Y-42006500D01*
X243967388Y-41990595D01*
X243813852Y-41908528D01*
X243647257Y-41857992D01*
X243474003Y-41840928D01*
X242173997Y-41840928D01*
X242000743Y-41857992D01*
X241834148Y-41908528D01*
X241680612Y-41990595D01*
X241546037Y-42101037D01*
X241435595Y-42235612D01*
X241353528Y-42389148D01*
X241302992Y-42555743D01*
X241285928Y-42728997D01*
X241285928Y-43554003D01*
X241302992Y-43727257D01*
X241353528Y-43893852D01*
X241435595Y-44047388D01*
X241546037Y-44181963D01*
X241680612Y-44292405D01*
X241834148Y-44374472D01*
X242000743Y-44425008D01*
X242173997Y-44442072D01*
X243474003Y-44442072D01*
X243647257Y-44425008D01*
X243813852Y-44374472D01*
X243967388Y-44292405D01*
X243986768Y-44276500D01*
X248363003Y-44276500D01*
X248366568Y-45412417D01*
X248273120Y-45638020D01*
X248095000Y-46533492D01*
X248095000Y-47446508D01*
X248273120Y-48341980D01*
X248376547Y-48591674D01*
X248525438Y-96029184D01*
X248401000Y-96016928D01*
X247292561Y-96016928D01*
X247268000Y-96014509D01*
X247243439Y-96016928D01*
X245891000Y-96016928D01*
X245766518Y-96029188D01*
X245646820Y-96065498D01*
X245536506Y-96124463D01*
X245439815Y-96203815D01*
X245360463Y-96300506D01*
X245301498Y-96410820D01*
X245265188Y-96530518D01*
X245252928Y-96655000D01*
X245252928Y-97655000D01*
X245265188Y-97779482D01*
X245301498Y-97899180D01*
X245360463Y-98009494D01*
X245439815Y-98106185D01*
X245536506Y-98185537D01*
X245646820Y-98244502D01*
X245766518Y-98280812D01*
X245891000Y-98293072D01*
X246133000Y-98293072D01*
X246133000Y-100220890D01*
X245425782Y-100220260D01*
X245335180Y-100171831D01*
X245215482Y-100135521D01*
X245091000Y-100123261D01*
X244121750Y-100126333D01*
X244029068Y-100219015D01*
X243642587Y-100218670D01*
X243550250Y-100126333D01*
X242581000Y-100123261D01*
X242456518Y-100135521D01*
X242336820Y-100171831D01*
X242251511Y-100217431D01*
X240371000Y-100215755D01*
X240371000Y-96281190D01*
X240374072Y-96250000D01*
X240374072Y-95115000D01*
X241942928Y-95115000D01*
X241955188Y-95239482D01*
X241991498Y-95359180D01*
X242050463Y-95469494D01*
X242129815Y-95566185D01*
X242226506Y-95645537D01*
X242336820Y-95704502D01*
X242456518Y-95740812D01*
X242581000Y-95753072D01*
X243550250Y-95750000D01*
X243709000Y-95591250D01*
X243709000Y-94742000D01*
X243963000Y-94742000D01*
X243963000Y-95591250D01*
X244121750Y-95750000D01*
X245091000Y-95753072D01*
X245215482Y-95740812D01*
X245335180Y-95704502D01*
X245445494Y-95645537D01*
X245542185Y-95566185D01*
X245621537Y-95469494D01*
X245680502Y-95359180D01*
X245716812Y-95239482D01*
X245729072Y-95115000D01*
X245726000Y-94900750D01*
X245567250Y-94742000D01*
X243963000Y-94742000D01*
X243709000Y-94742000D01*
X242104750Y-94742000D01*
X241946000Y-94900750D01*
X241942928Y-95115000D01*
X240374072Y-95115000D01*
X240374072Y-94115000D01*
X241942928Y-94115000D01*
X241946000Y-94329250D01*
X242104750Y-94488000D01*
X243709000Y-94488000D01*
X243709000Y-93638750D01*
X243963000Y-93638750D01*
X243963000Y-94488000D01*
X245567250Y-94488000D01*
X245726000Y-94329250D01*
X245729072Y-94115000D01*
X245716812Y-93990518D01*
X245680502Y-93870820D01*
X245621537Y-93760506D01*
X245542185Y-93663815D01*
X245445494Y-93584463D01*
X245335180Y-93525498D01*
X245215482Y-93489188D01*
X245091000Y-93476928D01*
X244121750Y-93480000D01*
X243963000Y-93638750D01*
X243709000Y-93638750D01*
X243550250Y-93480000D01*
X242581000Y-93476928D01*
X242456518Y-93489188D01*
X242336820Y-93525498D01*
X242226506Y-93584463D01*
X242129815Y-93663815D01*
X242050463Y-93760506D01*
X241991498Y-93870820D01*
X241955188Y-93990518D01*
X241942928Y-94115000D01*
X240374072Y-94115000D01*
X240374072Y-88750000D01*
X240371000Y-88718810D01*
X240371000Y-87610000D01*
X241265928Y-87610000D01*
X241278188Y-87734482D01*
X241314498Y-87854180D01*
X241373463Y-87964494D01*
X241452815Y-88061185D01*
X241549506Y-88140537D01*
X241659820Y-88199502D01*
X241779518Y-88235812D01*
X241904000Y-88248072D01*
X243618250Y-88245000D01*
X243777000Y-88086250D01*
X243777000Y-86487000D01*
X244031000Y-86487000D01*
X244031000Y-88086250D01*
X244189750Y-88245000D01*
X245904000Y-88248072D01*
X246028482Y-88235812D01*
X246148180Y-88199502D01*
X246258494Y-88140537D01*
X246355185Y-88061185D01*
X246434537Y-87964494D01*
X246493502Y-87854180D01*
X246529812Y-87734482D01*
X246542072Y-87610000D01*
X246539000Y-86645750D01*
X246380250Y-86487000D01*
X244031000Y-86487000D01*
X243777000Y-86487000D01*
X241427750Y-86487000D01*
X241269000Y-86645750D01*
X241265928Y-87610000D01*
X240371000Y-87610000D01*
X240371000Y-85110000D01*
X241265928Y-85110000D01*
X241269000Y-86074250D01*
X241427750Y-86233000D01*
X243777000Y-86233000D01*
X243777000Y-84633750D01*
X244031000Y-84633750D01*
X244031000Y-86233000D01*
X246380250Y-86233000D01*
X246539000Y-86074250D01*
X246542072Y-85110000D01*
X246529812Y-84985518D01*
X246493502Y-84865820D01*
X246434537Y-84755506D01*
X246355185Y-84658815D01*
X246258494Y-84579463D01*
X246148180Y-84520498D01*
X246028482Y-84484188D01*
X245904000Y-84471928D01*
X244189750Y-84475000D01*
X244031000Y-84633750D01*
X243777000Y-84633750D01*
X243618250Y-84475000D01*
X241904000Y-84471928D01*
X241779518Y-84484188D01*
X241659820Y-84520498D01*
X241549506Y-84579463D01*
X241452815Y-84658815D01*
X241373463Y-84755506D01*
X241314498Y-84865820D01*
X241278188Y-84985518D01*
X241265928Y-85110000D01*
X240371000Y-85110000D01*
X240371000Y-75926000D01*
X241265928Y-75926000D01*
X241278188Y-76050482D01*
X241314498Y-76170180D01*
X241373463Y-76280494D01*
X241452815Y-76377185D01*
X241549506Y-76456537D01*
X241659820Y-76515502D01*
X241779518Y-76551812D01*
X241904000Y-76564072D01*
X243618250Y-76561000D01*
X243777000Y-76402250D01*
X243777000Y-74803000D01*
X244031000Y-74803000D01*
X244031000Y-76402250D01*
X244189750Y-76561000D01*
X245904000Y-76564072D01*
X246028482Y-76551812D01*
X246148180Y-76515502D01*
X246258494Y-76456537D01*
X246355185Y-76377185D01*
X246434537Y-76280494D01*
X246493502Y-76170180D01*
X246529812Y-76050482D01*
X246542072Y-75926000D01*
X246539000Y-74961750D01*
X246380250Y-74803000D01*
X244031000Y-74803000D01*
X243777000Y-74803000D01*
X241427750Y-74803000D01*
X241269000Y-74961750D01*
X241265928Y-75926000D01*
X240371000Y-75926000D01*
X240371000Y-73426000D01*
X241265928Y-73426000D01*
X241269000Y-74390250D01*
X241427750Y-74549000D01*
X243777000Y-74549000D01*
X243777000Y-72949750D01*
X244031000Y-72949750D01*
X244031000Y-74549000D01*
X246380250Y-74549000D01*
X246539000Y-74390250D01*
X246542072Y-73426000D01*
X246529812Y-73301518D01*
X246493502Y-73181820D01*
X246434537Y-73071506D01*
X246355185Y-72974815D01*
X246258494Y-72895463D01*
X246148180Y-72836498D01*
X246028482Y-72800188D01*
X245904000Y-72787928D01*
X244189750Y-72791000D01*
X244031000Y-72949750D01*
X243777000Y-72949750D01*
X243618250Y-72791000D01*
X241904000Y-72787928D01*
X241779518Y-72800188D01*
X241659820Y-72836498D01*
X241549506Y-72895463D01*
X241452815Y-72974815D01*
X241373463Y-73071506D01*
X241314498Y-73181820D01*
X241278188Y-73301518D01*
X241265928Y-73426000D01*
X240371000Y-73426000D01*
X240371000Y-64923994D01*
X240386167Y-64769999D01*
X240371000Y-64616005D01*
X240371000Y-64615998D01*
X240334165Y-64242000D01*
X241265928Y-64242000D01*
X241278188Y-64366482D01*
X241314498Y-64486180D01*
X241373463Y-64596494D01*
X241452815Y-64693185D01*
X241549506Y-64772537D01*
X241659820Y-64831502D01*
X241779518Y-64867812D01*
X241904000Y-64880072D01*
X243618250Y-64877000D01*
X243777000Y-64718250D01*
X243777000Y-63119000D01*
X244031000Y-63119000D01*
X244031000Y-64718250D01*
X244189750Y-64877000D01*
X245904000Y-64880072D01*
X246028482Y-64867812D01*
X246148180Y-64831502D01*
X246258494Y-64772537D01*
X246355185Y-64693185D01*
X246434537Y-64596494D01*
X246493502Y-64486180D01*
X246529812Y-64366482D01*
X246542072Y-64242000D01*
X246539000Y-63277750D01*
X246380250Y-63119000D01*
X244031000Y-63119000D01*
X243777000Y-63119000D01*
X241427750Y-63119000D01*
X241269000Y-63277750D01*
X241265928Y-64242000D01*
X240334165Y-64242000D01*
X240325638Y-64155433D01*
X240146376Y-63564483D01*
X240016000Y-63320567D01*
X240016000Y-61742000D01*
X241265928Y-61742000D01*
X241269000Y-62706250D01*
X241427750Y-62865000D01*
X243777000Y-62865000D01*
X243777000Y-61265750D01*
X244031000Y-61265750D01*
X244031000Y-62865000D01*
X246380250Y-62865000D01*
X246539000Y-62706250D01*
X246542072Y-61742000D01*
X246529812Y-61617518D01*
X246493502Y-61497820D01*
X246434537Y-61387506D01*
X246355185Y-61290815D01*
X246258494Y-61211463D01*
X246148180Y-61152498D01*
X246028482Y-61116188D01*
X245904000Y-61103928D01*
X244189750Y-61107000D01*
X244031000Y-61265750D01*
X243777000Y-61265750D01*
X243618250Y-61107000D01*
X241904000Y-61103928D01*
X241779518Y-61116188D01*
X241659820Y-61152498D01*
X241549506Y-61211463D01*
X241452815Y-61290815D01*
X241373463Y-61387506D01*
X241314498Y-61497820D01*
X241278188Y-61617518D01*
X241265928Y-61742000D01*
X240016000Y-61742000D01*
X240016000Y-55466998D01*
X239970638Y-55006433D01*
X239791376Y-54415483D01*
X239500269Y-53870860D01*
X239108505Y-53393495D01*
X238631139Y-53001731D01*
X238086516Y-52710624D01*
X237567135Y-52553072D01*
X238410000Y-52553072D01*
X238534482Y-52540812D01*
X238654180Y-52504502D01*
X238764494Y-52445537D01*
X238861185Y-52366185D01*
X238940537Y-52269494D01*
X238999502Y-52159180D01*
X239035812Y-52039482D01*
X239048072Y-51915000D01*
X239048072Y-50715000D01*
X239035812Y-50590518D01*
X238999502Y-50470820D01*
X238940537Y-50360506D01*
X238861185Y-50263815D01*
X238764494Y-50184463D01*
X238654180Y-50125498D01*
X238534482Y-50089188D01*
X238410000Y-50076928D01*
X236210000Y-50076928D01*
X236085518Y-50089188D01*
X235965820Y-50125498D01*
X235855506Y-50184463D01*
X235758815Y-50263815D01*
X235728298Y-50301000D01*
X235385943Y-50301000D01*
X235326405Y-50189613D01*
X235215962Y-50055038D01*
X235081387Y-49944595D01*
X234927851Y-49862528D01*
X234761255Y-49811992D01*
X234588001Y-49794928D01*
X233787999Y-49794928D01*
X233614745Y-49811992D01*
X233448149Y-49862528D01*
X233294613Y-49944595D01*
X233160038Y-50055038D01*
X233049595Y-50189613D01*
X232967528Y-50343149D01*
X232916992Y-50509745D01*
X232899928Y-50682999D01*
X232899928Y-51933001D01*
X232916992Y-52106255D01*
X232967528Y-52272851D01*
X233049595Y-52426387D01*
X233160038Y-52560962D01*
X233294613Y-52671405D01*
X233448149Y-52753472D01*
X233614745Y-52804008D01*
X233787999Y-52821072D01*
X234588001Y-52821072D01*
X234761255Y-52804008D01*
X234927851Y-52753472D01*
X235081387Y-52671405D01*
X235215962Y-52560962D01*
X235326405Y-52426387D01*
X235408472Y-52272851D01*
X235459008Y-52106255D01*
X235476072Y-51933001D01*
X235476072Y-51821000D01*
X235571928Y-51821000D01*
X235571928Y-51915000D01*
X235584188Y-52039482D01*
X235620498Y-52159180D01*
X235679463Y-52269494D01*
X235758815Y-52366185D01*
X235855506Y-52445537D01*
X235965820Y-52504502D01*
X236085518Y-52540812D01*
X236198574Y-52551947D01*
X235675483Y-52710624D01*
X235130860Y-53001731D01*
X234653495Y-53393495D01*
X234261731Y-53870861D01*
X233970624Y-54415484D01*
X233791362Y-55006434D01*
X233746000Y-55466999D01*
X233746001Y-60216823D01*
X233716928Y-60512000D01*
X233716928Y-63388436D01*
X233638362Y-63647433D01*
X233577833Y-64262000D01*
X233638362Y-64876567D01*
X233716928Y-65135564D01*
X233716928Y-68012000D01*
X233753207Y-68380345D01*
X233860649Y-68734534D01*
X234035126Y-69060957D01*
X234101001Y-69141226D01*
X234101001Y-72082774D01*
X234035126Y-72163043D01*
X233860649Y-72489466D01*
X233753207Y-72843655D01*
X233716928Y-73212000D01*
X233716928Y-80712000D01*
X233753207Y-81080345D01*
X233860649Y-81434534D01*
X234035126Y-81760957D01*
X234101001Y-81841226D01*
X234101000Y-88718805D01*
X234097928Y-88750000D01*
X234097928Y-96250000D01*
X234101000Y-96281193D01*
X234101000Y-100210166D01*
X232751000Y-100208963D01*
X232751000Y-94003687D01*
X232910376Y-93705517D01*
X233089638Y-93114567D01*
X233150168Y-92500000D01*
X233089638Y-91885434D01*
X232910376Y-91294483D01*
X232751000Y-90996313D01*
X232751000Y-64923994D01*
X232766167Y-64769999D01*
X232751000Y-64616005D01*
X232751000Y-64615998D01*
X232705638Y-64155433D01*
X232526376Y-63564483D01*
X232370000Y-63271924D01*
X232370000Y-61607998D01*
X232324638Y-61147433D01*
X232145376Y-60556483D01*
X231854269Y-60011860D01*
X231462505Y-59534495D01*
X230985139Y-59142731D01*
X230878049Y-59085490D01*
X226274673Y-54482115D01*
X226176495Y-54362485D01*
X225699130Y-53970721D01*
X225154507Y-53679614D01*
X224563557Y-53500352D01*
X224102992Y-53454990D01*
X224102985Y-53454990D01*
X223948990Y-53439823D01*
X223794995Y-53454990D01*
X218165004Y-53454990D01*
X218011009Y-53439823D01*
X217857014Y-53454990D01*
X217857008Y-53454990D01*
X217458480Y-53494242D01*
X217396442Y-53500352D01*
X217217180Y-53554731D01*
X216805493Y-53679614D01*
X216260870Y-53970721D01*
X215783505Y-54362485D01*
X215685336Y-54482104D01*
X211735500Y-58431942D01*
X210885683Y-57582125D01*
X210787505Y-57462495D01*
X210310140Y-57070731D01*
X209765517Y-56779624D01*
X209174567Y-56600362D01*
X208714002Y-56555000D01*
X208713995Y-56555000D01*
X208560000Y-56539833D01*
X208406005Y-56555000D01*
X205901192Y-56555000D01*
X205870000Y-56551928D01*
X203742812Y-56551928D01*
X203620000Y-56539832D01*
X203497188Y-56551928D01*
X201370000Y-56551928D01*
X201245518Y-56564188D01*
X201125820Y-56600498D01*
X201015506Y-56659463D01*
X200918815Y-56738815D01*
X200839463Y-56835506D01*
X200780498Y-56945820D01*
X200744188Y-57065518D01*
X200731928Y-57190000D01*
X200731928Y-58442755D01*
X200709624Y-58484483D01*
X200530362Y-59075433D01*
X200469832Y-59690000D01*
X200485000Y-59844002D01*
X200485000Y-77315994D01*
X200469832Y-77470000D01*
X200485000Y-77624006D01*
X200485001Y-95095991D01*
X200469832Y-95250000D01*
X200485001Y-95404009D01*
X200485001Y-112875988D01*
X200469832Y-113030000D01*
X200530362Y-113644567D01*
X200709624Y-114235517D01*
X200731928Y-114277245D01*
X200731928Y-115530000D01*
X200744188Y-115654482D01*
X200780498Y-115774180D01*
X200839463Y-115884494D01*
X200918815Y-115981185D01*
X201015506Y-116060537D01*
X201125820Y-116119502D01*
X201245518Y-116155812D01*
X201370000Y-116168072D01*
X203150945Y-116168072D01*
X203121561Y-118814979D01*
X191897000Y-118814979D01*
X191897000Y-117283604D01*
X192089567Y-117264638D01*
X192680517Y-117085376D01*
X193225140Y-116794269D01*
X193702505Y-116402505D01*
X193800683Y-116282875D01*
X193915486Y-116168072D01*
X194870000Y-116168072D01*
X194994482Y-116155812D01*
X195114180Y-116119502D01*
X195224494Y-116060537D01*
X195321185Y-115981185D01*
X195400537Y-115884494D01*
X195459502Y-115774180D01*
X195495812Y-115654482D01*
X195508072Y-115530000D01*
X195508072Y-114277245D01*
X195530376Y-114235517D01*
X195576263Y-114084247D01*
X195709639Y-113644567D01*
X195770168Y-113030000D01*
X195755000Y-112875995D01*
X195755000Y-64294005D01*
X195770168Y-64140000D01*
X195755000Y-63985995D01*
X195755000Y-59843994D01*
X195770167Y-59689999D01*
X195755000Y-59536004D01*
X195755000Y-59535998D01*
X195709638Y-59075433D01*
X195690850Y-59013495D01*
X195641839Y-58851928D01*
X195530376Y-58484483D01*
X195508072Y-58442755D01*
X195508072Y-57190000D01*
X195495812Y-57065518D01*
X195459502Y-56945820D01*
X195400537Y-56835506D01*
X195321185Y-56738815D01*
X195224494Y-56659463D01*
X195114180Y-56600498D01*
X194994482Y-56564188D01*
X194870000Y-56551928D01*
X193915486Y-56551928D01*
X193837883Y-56474325D01*
X193480139Y-56180732D01*
X192935517Y-55889625D01*
X192344567Y-55710362D01*
X191939198Y-55670437D01*
X195541636Y-52068000D01*
X229813224Y-52068000D01*
X229816992Y-52106255D01*
X229867528Y-52272851D01*
X229949595Y-52426387D01*
X230060038Y-52560962D01*
X230194613Y-52671405D01*
X230348149Y-52753472D01*
X230514745Y-52804008D01*
X230687999Y-52821072D01*
X231488001Y-52821072D01*
X231661255Y-52804008D01*
X231827851Y-52753472D01*
X231981387Y-52671405D01*
X232115962Y-52560962D01*
X232226405Y-52426387D01*
X232308472Y-52272851D01*
X232359008Y-52106255D01*
X232376072Y-51933001D01*
X232376072Y-50682999D01*
X232359008Y-50509745D01*
X232308472Y-50343149D01*
X232226405Y-50189613D01*
X232115962Y-50055038D01*
X231981387Y-49944595D01*
X231827851Y-49862528D01*
X231661255Y-49811992D01*
X231488001Y-49794928D01*
X230687999Y-49794928D01*
X230514745Y-49811992D01*
X230348149Y-49862528D01*
X230194613Y-49944595D01*
X230060038Y-50055038D01*
X229949595Y-50189613D01*
X229867528Y-50343149D01*
X229816992Y-50509745D01*
X229813224Y-50548000D01*
X195264156Y-50548000D01*
X195226833Y-50544324D01*
X195189511Y-50548000D01*
X195189501Y-50548000D01*
X195077848Y-50558997D01*
X194934587Y-50602454D01*
X194802557Y-50673026D01*
X194718917Y-50741668D01*
X194686833Y-50767999D01*
X194663035Y-50796997D01*
X189705033Y-55755000D01*
X182757321Y-55755000D01*
X182719998Y-55751324D01*
X182682675Y-55755000D01*
X182682665Y-55755000D01*
X182571012Y-55765997D01*
X182427751Y-55809454D01*
X182295722Y-55880026D01*
X182179997Y-55974999D01*
X182156199Y-56003997D01*
X180657997Y-57502200D01*
X180628999Y-57525998D01*
X180605201Y-57554996D01*
X180605200Y-57554997D01*
X180534025Y-57641723D01*
X180463453Y-57773753D01*
X180433179Y-57873557D01*
X180419997Y-57917013D01*
X180414692Y-57970871D01*
X180405323Y-58065999D01*
X180409000Y-58103332D01*
X180408999Y-73502146D01*
X180337494Y-73443463D01*
X180227180Y-73384498D01*
X180107482Y-73348188D01*
X179983000Y-73335928D01*
X178593750Y-73339000D01*
X178435000Y-73497750D01*
X178435000Y-74547000D01*
X178455000Y-74547000D01*
X178455000Y-74801000D01*
X178435000Y-74801000D01*
X178435000Y-75850250D01*
X178593750Y-76009000D01*
X179983000Y-76012072D01*
X180107482Y-75999812D01*
X180227180Y-75963502D01*
X180337494Y-75904537D01*
X180408999Y-75845855D01*
X180408999Y-76668679D01*
X180405323Y-76706001D01*
X180408999Y-76743323D01*
X180408999Y-76743333D01*
X180419996Y-76854986D01*
X180463453Y-76998247D01*
X180534025Y-77130277D01*
X180572988Y-77177753D01*
X180628998Y-77246002D01*
X180658002Y-77269805D01*
X183276124Y-79887928D01*
X182685730Y-79887928D01*
X180010804Y-77213003D01*
X179987001Y-77183999D01*
X179871276Y-77089026D01*
X179739247Y-77018454D01*
X179595986Y-76974997D01*
X179484333Y-76964000D01*
X179484322Y-76964000D01*
X179447000Y-76960324D01*
X179409678Y-76964000D01*
X177316425Y-76964000D01*
X177317422Y-76010559D01*
X178022250Y-76009000D01*
X178181000Y-75850250D01*
X178181000Y-74801000D01*
X178161000Y-74801000D01*
X178161000Y-74547000D01*
X178181000Y-74547000D01*
X178181000Y-73497750D01*
X178022250Y-73339000D01*
X177320216Y-73337448D01*
X177347828Y-46929000D01*
X241285928Y-46929000D01*
X241298188Y-47053482D01*
X241334498Y-47173180D01*
X241393463Y-47283494D01*
X241472815Y-47380185D01*
X241569506Y-47459537D01*
X241679820Y-47518502D01*
X241799518Y-47554812D01*
X241924000Y-47567072D01*
X242538250Y-47564000D01*
X242697000Y-47405250D01*
X242697000Y-46393500D01*
X242951000Y-46393500D01*
X242951000Y-47405250D01*
X243109750Y-47564000D01*
X243724000Y-47567072D01*
X243848482Y-47554812D01*
X243968180Y-47518502D01*
X244078494Y-47459537D01*
X244175185Y-47380185D01*
X244254537Y-47283494D01*
X244313502Y-47173180D01*
X244349812Y-47053482D01*
X244362072Y-46929000D01*
X244359000Y-46552250D01*
X244200250Y-46393500D01*
X242951000Y-46393500D01*
X242697000Y-46393500D01*
X241447750Y-46393500D01*
X241289000Y-46552250D01*
X241285928Y-46929000D01*
X177347828Y-46929000D01*
X177349213Y-45604000D01*
X241285928Y-45604000D01*
X241289000Y-45980750D01*
X241447750Y-46139500D01*
X242697000Y-46139500D01*
X242697000Y-45127750D01*
X242951000Y-45127750D01*
X242951000Y-46139500D01*
X244200250Y-46139500D01*
X244359000Y-45980750D01*
X244362072Y-45604000D01*
X244349812Y-45479518D01*
X244313502Y-45359820D01*
X244254537Y-45249506D01*
X244175185Y-45152815D01*
X244078494Y-45073463D01*
X243968180Y-45014498D01*
X243848482Y-44978188D01*
X243724000Y-44965928D01*
X243109750Y-44969000D01*
X242951000Y-45127750D01*
X242697000Y-45127750D01*
X242538250Y-44969000D01*
X241924000Y-44965928D01*
X241799518Y-44978188D01*
X241679820Y-45014498D01*
X241569506Y-45073463D01*
X241472815Y-45152815D01*
X241393463Y-45249506D01*
X241334498Y-45359820D01*
X241298188Y-45479518D01*
X241285928Y-45604000D01*
X177349213Y-45604000D01*
X177355042Y-40030000D01*
X248349674Y-40030000D01*
X248355878Y-42006500D01*
%TA.AperFunction,Conductor*%
D24*
G36*
X248355878Y-42006500D02*
G01*
X243986768Y-42006500D01*
X243967388Y-41990595D01*
X243813852Y-41908528D01*
X243647257Y-41857992D01*
X243474003Y-41840928D01*
X242173997Y-41840928D01*
X242000743Y-41857992D01*
X241834148Y-41908528D01*
X241680612Y-41990595D01*
X241546037Y-42101037D01*
X241435595Y-42235612D01*
X241353528Y-42389148D01*
X241302992Y-42555743D01*
X241285928Y-42728997D01*
X241285928Y-43554003D01*
X241302992Y-43727257D01*
X241353528Y-43893852D01*
X241435595Y-44047388D01*
X241546037Y-44181963D01*
X241680612Y-44292405D01*
X241834148Y-44374472D01*
X242000743Y-44425008D01*
X242173997Y-44442072D01*
X243474003Y-44442072D01*
X243647257Y-44425008D01*
X243813852Y-44374472D01*
X243967388Y-44292405D01*
X243986768Y-44276500D01*
X248363003Y-44276500D01*
X248366568Y-45412417D01*
X248273120Y-45638020D01*
X248095000Y-46533492D01*
X248095000Y-47446508D01*
X248273120Y-48341980D01*
X248376547Y-48591674D01*
X248525438Y-96029184D01*
X248401000Y-96016928D01*
X247292561Y-96016928D01*
X247268000Y-96014509D01*
X247243439Y-96016928D01*
X245891000Y-96016928D01*
X245766518Y-96029188D01*
X245646820Y-96065498D01*
X245536506Y-96124463D01*
X245439815Y-96203815D01*
X245360463Y-96300506D01*
X245301498Y-96410820D01*
X245265188Y-96530518D01*
X245252928Y-96655000D01*
X245252928Y-97655000D01*
X245265188Y-97779482D01*
X245301498Y-97899180D01*
X245360463Y-98009494D01*
X245439815Y-98106185D01*
X245536506Y-98185537D01*
X245646820Y-98244502D01*
X245766518Y-98280812D01*
X245891000Y-98293072D01*
X246133000Y-98293072D01*
X246133000Y-100220890D01*
X245425782Y-100220260D01*
X245335180Y-100171831D01*
X245215482Y-100135521D01*
X245091000Y-100123261D01*
X244121750Y-100126333D01*
X244029068Y-100219015D01*
X243642587Y-100218670D01*
X243550250Y-100126333D01*
X242581000Y-100123261D01*
X242456518Y-100135521D01*
X242336820Y-100171831D01*
X242251511Y-100217431D01*
X240371000Y-100215755D01*
X240371000Y-96281190D01*
X240374072Y-96250000D01*
X240374072Y-95115000D01*
X241942928Y-95115000D01*
X241955188Y-95239482D01*
X241991498Y-95359180D01*
X242050463Y-95469494D01*
X242129815Y-95566185D01*
X242226506Y-95645537D01*
X242336820Y-95704502D01*
X242456518Y-95740812D01*
X242581000Y-95753072D01*
X243550250Y-95750000D01*
X243709000Y-95591250D01*
X243709000Y-94742000D01*
X243963000Y-94742000D01*
X243963000Y-95591250D01*
X244121750Y-95750000D01*
X245091000Y-95753072D01*
X245215482Y-95740812D01*
X245335180Y-95704502D01*
X245445494Y-95645537D01*
X245542185Y-95566185D01*
X245621537Y-95469494D01*
X245680502Y-95359180D01*
X245716812Y-95239482D01*
X245729072Y-95115000D01*
X245726000Y-94900750D01*
X245567250Y-94742000D01*
X243963000Y-94742000D01*
X243709000Y-94742000D01*
X242104750Y-94742000D01*
X241946000Y-94900750D01*
X241942928Y-95115000D01*
X240374072Y-95115000D01*
X240374072Y-94115000D01*
X241942928Y-94115000D01*
X241946000Y-94329250D01*
X242104750Y-94488000D01*
X243709000Y-94488000D01*
X243709000Y-93638750D01*
X243963000Y-93638750D01*
X243963000Y-94488000D01*
X245567250Y-94488000D01*
X245726000Y-94329250D01*
X245729072Y-94115000D01*
X245716812Y-93990518D01*
X245680502Y-93870820D01*
X245621537Y-93760506D01*
X245542185Y-93663815D01*
X245445494Y-93584463D01*
X245335180Y-93525498D01*
X245215482Y-93489188D01*
X245091000Y-93476928D01*
X244121750Y-93480000D01*
X243963000Y-93638750D01*
X243709000Y-93638750D01*
X243550250Y-93480000D01*
X242581000Y-93476928D01*
X242456518Y-93489188D01*
X242336820Y-93525498D01*
X242226506Y-93584463D01*
X242129815Y-93663815D01*
X242050463Y-93760506D01*
X241991498Y-93870820D01*
X241955188Y-93990518D01*
X241942928Y-94115000D01*
X240374072Y-94115000D01*
X240374072Y-88750000D01*
X240371000Y-88718810D01*
X240371000Y-87610000D01*
X241265928Y-87610000D01*
X241278188Y-87734482D01*
X241314498Y-87854180D01*
X241373463Y-87964494D01*
X241452815Y-88061185D01*
X241549506Y-88140537D01*
X241659820Y-88199502D01*
X241779518Y-88235812D01*
X241904000Y-88248072D01*
X243618250Y-88245000D01*
X243777000Y-88086250D01*
X243777000Y-86487000D01*
X244031000Y-86487000D01*
X244031000Y-88086250D01*
X244189750Y-88245000D01*
X245904000Y-88248072D01*
X246028482Y-88235812D01*
X246148180Y-88199502D01*
X246258494Y-88140537D01*
X246355185Y-88061185D01*
X246434537Y-87964494D01*
X246493502Y-87854180D01*
X246529812Y-87734482D01*
X246542072Y-87610000D01*
X246539000Y-86645750D01*
X246380250Y-86487000D01*
X244031000Y-86487000D01*
X243777000Y-86487000D01*
X241427750Y-86487000D01*
X241269000Y-86645750D01*
X241265928Y-87610000D01*
X240371000Y-87610000D01*
X240371000Y-85110000D01*
X241265928Y-85110000D01*
X241269000Y-86074250D01*
X241427750Y-86233000D01*
X243777000Y-86233000D01*
X243777000Y-84633750D01*
X244031000Y-84633750D01*
X244031000Y-86233000D01*
X246380250Y-86233000D01*
X246539000Y-86074250D01*
X246542072Y-85110000D01*
X246529812Y-84985518D01*
X246493502Y-84865820D01*
X246434537Y-84755506D01*
X246355185Y-84658815D01*
X246258494Y-84579463D01*
X246148180Y-84520498D01*
X246028482Y-84484188D01*
X245904000Y-84471928D01*
X244189750Y-84475000D01*
X244031000Y-84633750D01*
X243777000Y-84633750D01*
X243618250Y-84475000D01*
X241904000Y-84471928D01*
X241779518Y-84484188D01*
X241659820Y-84520498D01*
X241549506Y-84579463D01*
X241452815Y-84658815D01*
X241373463Y-84755506D01*
X241314498Y-84865820D01*
X241278188Y-84985518D01*
X241265928Y-85110000D01*
X240371000Y-85110000D01*
X240371000Y-75926000D01*
X241265928Y-75926000D01*
X241278188Y-76050482D01*
X241314498Y-76170180D01*
X241373463Y-76280494D01*
X241452815Y-76377185D01*
X241549506Y-76456537D01*
X241659820Y-76515502D01*
X241779518Y-76551812D01*
X241904000Y-76564072D01*
X243618250Y-76561000D01*
X243777000Y-76402250D01*
X243777000Y-74803000D01*
X244031000Y-74803000D01*
X244031000Y-76402250D01*
X244189750Y-76561000D01*
X245904000Y-76564072D01*
X246028482Y-76551812D01*
X246148180Y-76515502D01*
X246258494Y-76456537D01*
X246355185Y-76377185D01*
X246434537Y-76280494D01*
X246493502Y-76170180D01*
X246529812Y-76050482D01*
X246542072Y-75926000D01*
X246539000Y-74961750D01*
X246380250Y-74803000D01*
X244031000Y-74803000D01*
X243777000Y-74803000D01*
X241427750Y-74803000D01*
X241269000Y-74961750D01*
X241265928Y-75926000D01*
X240371000Y-75926000D01*
X240371000Y-73426000D01*
X241265928Y-73426000D01*
X241269000Y-74390250D01*
X241427750Y-74549000D01*
X243777000Y-74549000D01*
X243777000Y-72949750D01*
X244031000Y-72949750D01*
X244031000Y-74549000D01*
X246380250Y-74549000D01*
X246539000Y-74390250D01*
X246542072Y-73426000D01*
X246529812Y-73301518D01*
X246493502Y-73181820D01*
X246434537Y-73071506D01*
X246355185Y-72974815D01*
X246258494Y-72895463D01*
X246148180Y-72836498D01*
X246028482Y-72800188D01*
X245904000Y-72787928D01*
X244189750Y-72791000D01*
X244031000Y-72949750D01*
X243777000Y-72949750D01*
X243618250Y-72791000D01*
X241904000Y-72787928D01*
X241779518Y-72800188D01*
X241659820Y-72836498D01*
X241549506Y-72895463D01*
X241452815Y-72974815D01*
X241373463Y-73071506D01*
X241314498Y-73181820D01*
X241278188Y-73301518D01*
X241265928Y-73426000D01*
X240371000Y-73426000D01*
X240371000Y-64923994D01*
X240386167Y-64769999D01*
X240371000Y-64616005D01*
X240371000Y-64615998D01*
X240334165Y-64242000D01*
X241265928Y-64242000D01*
X241278188Y-64366482D01*
X241314498Y-64486180D01*
X241373463Y-64596494D01*
X241452815Y-64693185D01*
X241549506Y-64772537D01*
X241659820Y-64831502D01*
X241779518Y-64867812D01*
X241904000Y-64880072D01*
X243618250Y-64877000D01*
X243777000Y-64718250D01*
X243777000Y-63119000D01*
X244031000Y-63119000D01*
X244031000Y-64718250D01*
X244189750Y-64877000D01*
X245904000Y-64880072D01*
X246028482Y-64867812D01*
X246148180Y-64831502D01*
X246258494Y-64772537D01*
X246355185Y-64693185D01*
X246434537Y-64596494D01*
X246493502Y-64486180D01*
X246529812Y-64366482D01*
X246542072Y-64242000D01*
X246539000Y-63277750D01*
X246380250Y-63119000D01*
X244031000Y-63119000D01*
X243777000Y-63119000D01*
X241427750Y-63119000D01*
X241269000Y-63277750D01*
X241265928Y-64242000D01*
X240334165Y-64242000D01*
X240325638Y-64155433D01*
X240146376Y-63564483D01*
X240016000Y-63320567D01*
X240016000Y-61742000D01*
X241265928Y-61742000D01*
X241269000Y-62706250D01*
X241427750Y-62865000D01*
X243777000Y-62865000D01*
X243777000Y-61265750D01*
X244031000Y-61265750D01*
X244031000Y-62865000D01*
X246380250Y-62865000D01*
X246539000Y-62706250D01*
X246542072Y-61742000D01*
X246529812Y-61617518D01*
X246493502Y-61497820D01*
X246434537Y-61387506D01*
X246355185Y-61290815D01*
X246258494Y-61211463D01*
X246148180Y-61152498D01*
X246028482Y-61116188D01*
X245904000Y-61103928D01*
X244189750Y-61107000D01*
X244031000Y-61265750D01*
X243777000Y-61265750D01*
X243618250Y-61107000D01*
X241904000Y-61103928D01*
X241779518Y-61116188D01*
X241659820Y-61152498D01*
X241549506Y-61211463D01*
X241452815Y-61290815D01*
X241373463Y-61387506D01*
X241314498Y-61497820D01*
X241278188Y-61617518D01*
X241265928Y-61742000D01*
X240016000Y-61742000D01*
X240016000Y-55466998D01*
X239970638Y-55006433D01*
X239791376Y-54415483D01*
X239500269Y-53870860D01*
X239108505Y-53393495D01*
X238631139Y-53001731D01*
X238086516Y-52710624D01*
X237567135Y-52553072D01*
X238410000Y-52553072D01*
X238534482Y-52540812D01*
X238654180Y-52504502D01*
X238764494Y-52445537D01*
X238861185Y-52366185D01*
X238940537Y-52269494D01*
X238999502Y-52159180D01*
X239035812Y-52039482D01*
X239048072Y-51915000D01*
X239048072Y-50715000D01*
X239035812Y-50590518D01*
X238999502Y-50470820D01*
X238940537Y-50360506D01*
X238861185Y-50263815D01*
X238764494Y-50184463D01*
X238654180Y-50125498D01*
X238534482Y-50089188D01*
X238410000Y-50076928D01*
X236210000Y-50076928D01*
X236085518Y-50089188D01*
X235965820Y-50125498D01*
X235855506Y-50184463D01*
X235758815Y-50263815D01*
X235728298Y-50301000D01*
X235385943Y-50301000D01*
X235326405Y-50189613D01*
X235215962Y-50055038D01*
X235081387Y-49944595D01*
X234927851Y-49862528D01*
X234761255Y-49811992D01*
X234588001Y-49794928D01*
X233787999Y-49794928D01*
X233614745Y-49811992D01*
X233448149Y-49862528D01*
X233294613Y-49944595D01*
X233160038Y-50055038D01*
X233049595Y-50189613D01*
X232967528Y-50343149D01*
X232916992Y-50509745D01*
X232899928Y-50682999D01*
X232899928Y-51933001D01*
X232916992Y-52106255D01*
X232967528Y-52272851D01*
X233049595Y-52426387D01*
X233160038Y-52560962D01*
X233294613Y-52671405D01*
X233448149Y-52753472D01*
X233614745Y-52804008D01*
X233787999Y-52821072D01*
X234588001Y-52821072D01*
X234761255Y-52804008D01*
X234927851Y-52753472D01*
X235081387Y-52671405D01*
X235215962Y-52560962D01*
X235326405Y-52426387D01*
X235408472Y-52272851D01*
X235459008Y-52106255D01*
X235476072Y-51933001D01*
X235476072Y-51821000D01*
X235571928Y-51821000D01*
X235571928Y-51915000D01*
X235584188Y-52039482D01*
X235620498Y-52159180D01*
X235679463Y-52269494D01*
X235758815Y-52366185D01*
X235855506Y-52445537D01*
X235965820Y-52504502D01*
X236085518Y-52540812D01*
X236198574Y-52551947D01*
X235675483Y-52710624D01*
X235130860Y-53001731D01*
X234653495Y-53393495D01*
X234261731Y-53870861D01*
X233970624Y-54415484D01*
X233791362Y-55006434D01*
X233746000Y-55466999D01*
X233746001Y-60216823D01*
X233716928Y-60512000D01*
X233716928Y-63388436D01*
X233638362Y-63647433D01*
X233577833Y-64262000D01*
X233638362Y-64876567D01*
X233716928Y-65135564D01*
X233716928Y-68012000D01*
X233753207Y-68380345D01*
X233860649Y-68734534D01*
X234035126Y-69060957D01*
X234101001Y-69141226D01*
X234101001Y-72082774D01*
X234035126Y-72163043D01*
X233860649Y-72489466D01*
X233753207Y-72843655D01*
X233716928Y-73212000D01*
X233716928Y-80712000D01*
X233753207Y-81080345D01*
X233860649Y-81434534D01*
X234035126Y-81760957D01*
X234101001Y-81841226D01*
X234101000Y-88718805D01*
X234097928Y-88750000D01*
X234097928Y-96250000D01*
X234101000Y-96281193D01*
X234101000Y-100210166D01*
X232751000Y-100208963D01*
X232751000Y-94003687D01*
X232910376Y-93705517D01*
X233089638Y-93114567D01*
X233150168Y-92500000D01*
X233089638Y-91885434D01*
X232910376Y-91294483D01*
X232751000Y-90996313D01*
X232751000Y-64923994D01*
X232766167Y-64769999D01*
X232751000Y-64616005D01*
X232751000Y-64615998D01*
X232705638Y-64155433D01*
X232526376Y-63564483D01*
X232370000Y-63271924D01*
X232370000Y-61607998D01*
X232324638Y-61147433D01*
X232145376Y-60556483D01*
X231854269Y-60011860D01*
X231462505Y-59534495D01*
X230985139Y-59142731D01*
X230878049Y-59085490D01*
X226274673Y-54482115D01*
X226176495Y-54362485D01*
X225699130Y-53970721D01*
X225154507Y-53679614D01*
X224563557Y-53500352D01*
X224102992Y-53454990D01*
X224102985Y-53454990D01*
X223948990Y-53439823D01*
X223794995Y-53454990D01*
X218165004Y-53454990D01*
X218011009Y-53439823D01*
X217857014Y-53454990D01*
X217857008Y-53454990D01*
X217458480Y-53494242D01*
X217396442Y-53500352D01*
X217217180Y-53554731D01*
X216805493Y-53679614D01*
X216260870Y-53970721D01*
X215783505Y-54362485D01*
X215685336Y-54482104D01*
X211735500Y-58431942D01*
X210885683Y-57582125D01*
X210787505Y-57462495D01*
X210310140Y-57070731D01*
X209765517Y-56779624D01*
X209174567Y-56600362D01*
X208714002Y-56555000D01*
X208713995Y-56555000D01*
X208560000Y-56539833D01*
X208406005Y-56555000D01*
X205901192Y-56555000D01*
X205870000Y-56551928D01*
X203742812Y-56551928D01*
X203620000Y-56539832D01*
X203497188Y-56551928D01*
X201370000Y-56551928D01*
X201245518Y-56564188D01*
X201125820Y-56600498D01*
X201015506Y-56659463D01*
X200918815Y-56738815D01*
X200839463Y-56835506D01*
X200780498Y-56945820D01*
X200744188Y-57065518D01*
X200731928Y-57190000D01*
X200731928Y-58442755D01*
X200709624Y-58484483D01*
X200530362Y-59075433D01*
X200469832Y-59690000D01*
X200485000Y-59844002D01*
X200485000Y-77315994D01*
X200469832Y-77470000D01*
X200485000Y-77624006D01*
X200485001Y-95095991D01*
X200469832Y-95250000D01*
X200485001Y-95404009D01*
X200485001Y-112875988D01*
X200469832Y-113030000D01*
X200530362Y-113644567D01*
X200709624Y-114235517D01*
X200731928Y-114277245D01*
X200731928Y-115530000D01*
X200744188Y-115654482D01*
X200780498Y-115774180D01*
X200839463Y-115884494D01*
X200918815Y-115981185D01*
X201015506Y-116060537D01*
X201125820Y-116119502D01*
X201245518Y-116155812D01*
X201370000Y-116168072D01*
X203150945Y-116168072D01*
X203121561Y-118814979D01*
X191897000Y-118814979D01*
X191897000Y-117283604D01*
X192089567Y-117264638D01*
X192680517Y-117085376D01*
X193225140Y-116794269D01*
X193702505Y-116402505D01*
X193800683Y-116282875D01*
X193915486Y-116168072D01*
X194870000Y-116168072D01*
X194994482Y-116155812D01*
X195114180Y-116119502D01*
X195224494Y-116060537D01*
X195321185Y-115981185D01*
X195400537Y-115884494D01*
X195459502Y-115774180D01*
X195495812Y-115654482D01*
X195508072Y-115530000D01*
X195508072Y-114277245D01*
X195530376Y-114235517D01*
X195576263Y-114084247D01*
X195709639Y-113644567D01*
X195770168Y-113030000D01*
X195755000Y-112875995D01*
X195755000Y-64294005D01*
X195770168Y-64140000D01*
X195755000Y-63985995D01*
X195755000Y-59843994D01*
X195770167Y-59689999D01*
X195755000Y-59536004D01*
X195755000Y-59535998D01*
X195709638Y-59075433D01*
X195690850Y-59013495D01*
X195641839Y-58851928D01*
X195530376Y-58484483D01*
X195508072Y-58442755D01*
X195508072Y-57190000D01*
X195495812Y-57065518D01*
X195459502Y-56945820D01*
X195400537Y-56835506D01*
X195321185Y-56738815D01*
X195224494Y-56659463D01*
X195114180Y-56600498D01*
X194994482Y-56564188D01*
X194870000Y-56551928D01*
X193915486Y-56551928D01*
X193837883Y-56474325D01*
X193480139Y-56180732D01*
X192935517Y-55889625D01*
X192344567Y-55710362D01*
X191939198Y-55670437D01*
X195541636Y-52068000D01*
X229813224Y-52068000D01*
X229816992Y-52106255D01*
X229867528Y-52272851D01*
X229949595Y-52426387D01*
X230060038Y-52560962D01*
X230194613Y-52671405D01*
X230348149Y-52753472D01*
X230514745Y-52804008D01*
X230687999Y-52821072D01*
X231488001Y-52821072D01*
X231661255Y-52804008D01*
X231827851Y-52753472D01*
X231981387Y-52671405D01*
X232115962Y-52560962D01*
X232226405Y-52426387D01*
X232308472Y-52272851D01*
X232359008Y-52106255D01*
X232376072Y-51933001D01*
X232376072Y-50682999D01*
X232359008Y-50509745D01*
X232308472Y-50343149D01*
X232226405Y-50189613D01*
X232115962Y-50055038D01*
X231981387Y-49944595D01*
X231827851Y-49862528D01*
X231661255Y-49811992D01*
X231488001Y-49794928D01*
X230687999Y-49794928D01*
X230514745Y-49811992D01*
X230348149Y-49862528D01*
X230194613Y-49944595D01*
X230060038Y-50055038D01*
X229949595Y-50189613D01*
X229867528Y-50343149D01*
X229816992Y-50509745D01*
X229813224Y-50548000D01*
X195264156Y-50548000D01*
X195226833Y-50544324D01*
X195189511Y-50548000D01*
X195189501Y-50548000D01*
X195077848Y-50558997D01*
X194934587Y-50602454D01*
X194802557Y-50673026D01*
X194718917Y-50741668D01*
X194686833Y-50767999D01*
X194663035Y-50796997D01*
X189705033Y-55755000D01*
X182757321Y-55755000D01*
X182719998Y-55751324D01*
X182682675Y-55755000D01*
X182682665Y-55755000D01*
X182571012Y-55765997D01*
X182427751Y-55809454D01*
X182295722Y-55880026D01*
X182179997Y-55974999D01*
X182156199Y-56003997D01*
X180657997Y-57502200D01*
X180628999Y-57525998D01*
X180605201Y-57554996D01*
X180605200Y-57554997D01*
X180534025Y-57641723D01*
X180463453Y-57773753D01*
X180433179Y-57873557D01*
X180419997Y-57917013D01*
X180414692Y-57970871D01*
X180405323Y-58065999D01*
X180409000Y-58103332D01*
X180408999Y-73502146D01*
X180337494Y-73443463D01*
X180227180Y-73384498D01*
X180107482Y-73348188D01*
X179983000Y-73335928D01*
X178593750Y-73339000D01*
X178435000Y-73497750D01*
X178435000Y-74547000D01*
X178455000Y-74547000D01*
X178455000Y-74801000D01*
X178435000Y-74801000D01*
X178435000Y-75850250D01*
X178593750Y-76009000D01*
X179983000Y-76012072D01*
X180107482Y-75999812D01*
X180227180Y-75963502D01*
X180337494Y-75904537D01*
X180408999Y-75845855D01*
X180408999Y-76668679D01*
X180405323Y-76706001D01*
X180408999Y-76743323D01*
X180408999Y-76743333D01*
X180419996Y-76854986D01*
X180463453Y-76998247D01*
X180534025Y-77130277D01*
X180572988Y-77177753D01*
X180628998Y-77246002D01*
X180658002Y-77269805D01*
X183276124Y-79887928D01*
X182685730Y-79887928D01*
X180010804Y-77213003D01*
X179987001Y-77183999D01*
X179871276Y-77089026D01*
X179739247Y-77018454D01*
X179595986Y-76974997D01*
X179484333Y-76964000D01*
X179484322Y-76964000D01*
X179447000Y-76960324D01*
X179409678Y-76964000D01*
X177316425Y-76964000D01*
X177317422Y-76010559D01*
X178022250Y-76009000D01*
X178181000Y-75850250D01*
X178181000Y-74801000D01*
X178161000Y-74801000D01*
X178161000Y-74547000D01*
X178181000Y-74547000D01*
X178181000Y-73497750D01*
X178022250Y-73339000D01*
X177320216Y-73337448D01*
X177347828Y-46929000D01*
X241285928Y-46929000D01*
X241298188Y-47053482D01*
X241334498Y-47173180D01*
X241393463Y-47283494D01*
X241472815Y-47380185D01*
X241569506Y-47459537D01*
X241679820Y-47518502D01*
X241799518Y-47554812D01*
X241924000Y-47567072D01*
X242538250Y-47564000D01*
X242697000Y-47405250D01*
X242697000Y-46393500D01*
X242951000Y-46393500D01*
X242951000Y-47405250D01*
X243109750Y-47564000D01*
X243724000Y-47567072D01*
X243848482Y-47554812D01*
X243968180Y-47518502D01*
X244078494Y-47459537D01*
X244175185Y-47380185D01*
X244254537Y-47283494D01*
X244313502Y-47173180D01*
X244349812Y-47053482D01*
X244362072Y-46929000D01*
X244359000Y-46552250D01*
X244200250Y-46393500D01*
X242951000Y-46393500D01*
X242697000Y-46393500D01*
X241447750Y-46393500D01*
X241289000Y-46552250D01*
X241285928Y-46929000D01*
X177347828Y-46929000D01*
X177349213Y-45604000D01*
X241285928Y-45604000D01*
X241289000Y-45980750D01*
X241447750Y-46139500D01*
X242697000Y-46139500D01*
X242697000Y-45127750D01*
X242951000Y-45127750D01*
X242951000Y-46139500D01*
X244200250Y-46139500D01*
X244359000Y-45980750D01*
X244362072Y-45604000D01*
X244349812Y-45479518D01*
X244313502Y-45359820D01*
X244254537Y-45249506D01*
X244175185Y-45152815D01*
X244078494Y-45073463D01*
X243968180Y-45014498D01*
X243848482Y-44978188D01*
X243724000Y-44965928D01*
X243109750Y-44969000D01*
X242951000Y-45127750D01*
X242697000Y-45127750D01*
X242538250Y-44969000D01*
X241924000Y-44965928D01*
X241799518Y-44978188D01*
X241679820Y-45014498D01*
X241569506Y-45073463D01*
X241472815Y-45152815D01*
X241393463Y-45249506D01*
X241334498Y-45359820D01*
X241298188Y-45479518D01*
X241285928Y-45604000D01*
X177349213Y-45604000D01*
X177355042Y-40030000D01*
X248349674Y-40030000D01*
X248355878Y-42006500D01*
G37*
%TD.AperFunction*%
D23*
X180095174Y-79446976D02*
X179983000Y-79435928D01*
X178593750Y-79439000D01*
X178435000Y-79597750D01*
X178435000Y-80647000D01*
X180459250Y-80647000D01*
X180618000Y-80488250D01*
X180621072Y-80074000D01*
X180610024Y-79961826D01*
X180913388Y-80265189D01*
X180904498Y-80281820D01*
X180868188Y-80401518D01*
X180855928Y-80526000D01*
X180855928Y-81526000D01*
X180868188Y-81650482D01*
X180904498Y-81770180D01*
X180913388Y-81786811D01*
X180658002Y-82042197D01*
X180628998Y-82066000D01*
X180591188Y-82112072D01*
X180534025Y-82181725D01*
X180509555Y-82227505D01*
X180463453Y-82313755D01*
X180419996Y-82457016D01*
X180408999Y-82568669D01*
X180408999Y-82568679D01*
X180405323Y-82606001D01*
X180408999Y-82643324D01*
X180409000Y-89568667D01*
X180405323Y-89605999D01*
X180409000Y-89643332D01*
X180419997Y-89754985D01*
X180428820Y-89784072D01*
X180463453Y-89898245D01*
X180534025Y-90030275D01*
X180605200Y-90117001D01*
X180628999Y-90146000D01*
X180657997Y-90169798D01*
X180913388Y-90425189D01*
X180904498Y-90441820D01*
X180868188Y-90561518D01*
X180855928Y-90686000D01*
X180855928Y-91686000D01*
X180868188Y-91810482D01*
X180904498Y-91930180D01*
X180963463Y-92040494D01*
X181042815Y-92137185D01*
X181139506Y-92216537D01*
X181249820Y-92275502D01*
X181369518Y-92311812D01*
X181494000Y-92324072D01*
X181989000Y-92324072D01*
X181989000Y-93417679D01*
X181985324Y-93455002D01*
X181989000Y-93492324D01*
X181989000Y-93492334D01*
X181999997Y-93603987D01*
X182030796Y-93705518D01*
X182043454Y-93747248D01*
X182114026Y-93879278D01*
X182149253Y-93922202D01*
X182208999Y-93995003D01*
X182238003Y-94018806D01*
X183349200Y-95130003D01*
X183034750Y-95131000D01*
X182876000Y-95289750D01*
X182876000Y-96139000D01*
X182896000Y-96139000D01*
X182896000Y-96393000D01*
X182876000Y-96393000D01*
X182876000Y-97242250D01*
X183034750Y-97401000D01*
X184004000Y-97404072D01*
X184128482Y-97391812D01*
X184248180Y-97355502D01*
X184358494Y-97296537D01*
X184455185Y-97217185D01*
X184534537Y-97120494D01*
X184593502Y-97010180D01*
X184629812Y-96890482D01*
X184642072Y-96766000D01*
X184639000Y-96551750D01*
X184480252Y-96393002D01*
X184612198Y-96393002D01*
X185299001Y-97079805D01*
X185299001Y-97667928D01*
X184804000Y-97667928D01*
X184679518Y-97680188D01*
X184559820Y-97716498D01*
X184449506Y-97775463D01*
X184352815Y-97854815D01*
X184273463Y-97951506D01*
X184214498Y-98061820D01*
X184178188Y-98181518D01*
X184165928Y-98306000D01*
X184165928Y-99306000D01*
X184178188Y-99430482D01*
X184214498Y-99550180D01*
X184273463Y-99660494D01*
X184352815Y-99757185D01*
X184449506Y-99836537D01*
X184559820Y-99895502D01*
X184679518Y-99931812D01*
X184804000Y-99944072D01*
X185299001Y-99944072D01*
X185299001Y-100203741D01*
X177292133Y-100196605D01*
X177295719Y-96766000D01*
X180855928Y-96766000D01*
X180868188Y-96890482D01*
X180904498Y-97010180D01*
X180963463Y-97120494D01*
X181042815Y-97217185D01*
X181139506Y-97296537D01*
X181249820Y-97355502D01*
X181369518Y-97391812D01*
X181494000Y-97404072D01*
X182463250Y-97401000D01*
X182622000Y-97242250D01*
X182622000Y-96393000D01*
X181017750Y-96393000D01*
X180859000Y-96551750D01*
X180855928Y-96766000D01*
X177295719Y-96766000D01*
X177296764Y-95766000D01*
X180855928Y-95766000D01*
X180859000Y-95980250D01*
X181017750Y-96139000D01*
X182622000Y-96139000D01*
X182622000Y-95289750D01*
X182463250Y-95131000D01*
X181494000Y-95127928D01*
X181369518Y-95140188D01*
X181249820Y-95176498D01*
X181139506Y-95235463D01*
X181042815Y-95314815D01*
X180963463Y-95411506D01*
X180904498Y-95521820D01*
X180868188Y-95641518D01*
X180855928Y-95766000D01*
X177296764Y-95766000D01*
X177311043Y-82110573D01*
X178022250Y-82109000D01*
X178181000Y-81950250D01*
X178181000Y-80901000D01*
X178435000Y-80901000D01*
X178435000Y-81950250D01*
X178593750Y-82109000D01*
X179983000Y-82112072D01*
X180107482Y-82099812D01*
X180227180Y-82063502D01*
X180337494Y-82004537D01*
X180434185Y-81925185D01*
X180513537Y-81828494D01*
X180572502Y-81718180D01*
X180608812Y-81598482D01*
X180621072Y-81474000D01*
X180618000Y-81059750D01*
X180459250Y-80901000D01*
X178435000Y-80901000D01*
X178181000Y-80901000D01*
X178161000Y-80901000D01*
X178161000Y-80647000D01*
X178181000Y-80647000D01*
X178181000Y-79597750D01*
X178022250Y-79439000D01*
X177313838Y-79437434D01*
X177314835Y-78484000D01*
X179132199Y-78484000D01*
X180095174Y-79446976D01*
%TA.AperFunction,Conductor*%
D24*
G36*
X180095174Y-79446976D02*
G01*
X179983000Y-79435928D01*
X178593750Y-79439000D01*
X178435000Y-79597750D01*
X178435000Y-80647000D01*
X180459250Y-80647000D01*
X180618000Y-80488250D01*
X180621072Y-80074000D01*
X180610024Y-79961826D01*
X180913388Y-80265189D01*
X180904498Y-80281820D01*
X180868188Y-80401518D01*
X180855928Y-80526000D01*
X180855928Y-81526000D01*
X180868188Y-81650482D01*
X180904498Y-81770180D01*
X180913388Y-81786811D01*
X180658002Y-82042197D01*
X180628998Y-82066000D01*
X180591188Y-82112072D01*
X180534025Y-82181725D01*
X180509555Y-82227505D01*
X180463453Y-82313755D01*
X180419996Y-82457016D01*
X180408999Y-82568669D01*
X180408999Y-82568679D01*
X180405323Y-82606001D01*
X180408999Y-82643324D01*
X180409000Y-89568667D01*
X180405323Y-89605999D01*
X180409000Y-89643332D01*
X180419997Y-89754985D01*
X180428820Y-89784072D01*
X180463453Y-89898245D01*
X180534025Y-90030275D01*
X180605200Y-90117001D01*
X180628999Y-90146000D01*
X180657997Y-90169798D01*
X180913388Y-90425189D01*
X180904498Y-90441820D01*
X180868188Y-90561518D01*
X180855928Y-90686000D01*
X180855928Y-91686000D01*
X180868188Y-91810482D01*
X180904498Y-91930180D01*
X180963463Y-92040494D01*
X181042815Y-92137185D01*
X181139506Y-92216537D01*
X181249820Y-92275502D01*
X181369518Y-92311812D01*
X181494000Y-92324072D01*
X181989000Y-92324072D01*
X181989000Y-93417679D01*
X181985324Y-93455002D01*
X181989000Y-93492324D01*
X181989000Y-93492334D01*
X181999997Y-93603987D01*
X182030796Y-93705518D01*
X182043454Y-93747248D01*
X182114026Y-93879278D01*
X182149253Y-93922202D01*
X182208999Y-93995003D01*
X182238003Y-94018806D01*
X183349200Y-95130003D01*
X183034750Y-95131000D01*
X182876000Y-95289750D01*
X182876000Y-96139000D01*
X182896000Y-96139000D01*
X182896000Y-96393000D01*
X182876000Y-96393000D01*
X182876000Y-97242250D01*
X183034750Y-97401000D01*
X184004000Y-97404072D01*
X184128482Y-97391812D01*
X184248180Y-97355502D01*
X184358494Y-97296537D01*
X184455185Y-97217185D01*
X184534537Y-97120494D01*
X184593502Y-97010180D01*
X184629812Y-96890482D01*
X184642072Y-96766000D01*
X184639000Y-96551750D01*
X184480252Y-96393002D01*
X184612198Y-96393002D01*
X185299001Y-97079805D01*
X185299001Y-97667928D01*
X184804000Y-97667928D01*
X184679518Y-97680188D01*
X184559820Y-97716498D01*
X184449506Y-97775463D01*
X184352815Y-97854815D01*
X184273463Y-97951506D01*
X184214498Y-98061820D01*
X184178188Y-98181518D01*
X184165928Y-98306000D01*
X184165928Y-99306000D01*
X184178188Y-99430482D01*
X184214498Y-99550180D01*
X184273463Y-99660494D01*
X184352815Y-99757185D01*
X184449506Y-99836537D01*
X184559820Y-99895502D01*
X184679518Y-99931812D01*
X184804000Y-99944072D01*
X185299001Y-99944072D01*
X185299001Y-100203741D01*
X177292133Y-100196605D01*
X177295719Y-96766000D01*
X180855928Y-96766000D01*
X180868188Y-96890482D01*
X180904498Y-97010180D01*
X180963463Y-97120494D01*
X181042815Y-97217185D01*
X181139506Y-97296537D01*
X181249820Y-97355502D01*
X181369518Y-97391812D01*
X181494000Y-97404072D01*
X182463250Y-97401000D01*
X182622000Y-97242250D01*
X182622000Y-96393000D01*
X181017750Y-96393000D01*
X180859000Y-96551750D01*
X180855928Y-96766000D01*
X177295719Y-96766000D01*
X177296764Y-95766000D01*
X180855928Y-95766000D01*
X180859000Y-95980250D01*
X181017750Y-96139000D01*
X182622000Y-96139000D01*
X182622000Y-95289750D01*
X182463250Y-95131000D01*
X181494000Y-95127928D01*
X181369518Y-95140188D01*
X181249820Y-95176498D01*
X181139506Y-95235463D01*
X181042815Y-95314815D01*
X180963463Y-95411506D01*
X180904498Y-95521820D01*
X180868188Y-95641518D01*
X180855928Y-95766000D01*
X177296764Y-95766000D01*
X177311043Y-82110573D01*
X178022250Y-82109000D01*
X178181000Y-81950250D01*
X178181000Y-80901000D01*
X178435000Y-80901000D01*
X178435000Y-81950250D01*
X178593750Y-82109000D01*
X179983000Y-82112072D01*
X180107482Y-82099812D01*
X180227180Y-82063502D01*
X180337494Y-82004537D01*
X180434185Y-81925185D01*
X180513537Y-81828494D01*
X180572502Y-81718180D01*
X180608812Y-81598482D01*
X180621072Y-81474000D01*
X180618000Y-81059750D01*
X180459250Y-80901000D01*
X178435000Y-80901000D01*
X178181000Y-80901000D01*
X178161000Y-80901000D01*
X178161000Y-80647000D01*
X178181000Y-80647000D01*
X178181000Y-79597750D01*
X178022250Y-79439000D01*
X177313838Y-79437434D01*
X177314835Y-78484000D01*
X179132199Y-78484000D01*
X180095174Y-79446976D01*
G37*
%TD.AperFunction*%
%TD*%
D23*
%TO.N,GND*%
X176433940Y-59460928D02*
X172541860Y-63353009D01*
X172498552Y-63388551D01*
X172356717Y-63561377D01*
X172300384Y-63666770D01*
X172251324Y-63758554D01*
X172186423Y-63972502D01*
X172164509Y-64195000D01*
X172170001Y-64250761D01*
X172170000Y-68433231D01*
X172154095Y-68452612D01*
X172072028Y-68606148D01*
X172021492Y-68772743D01*
X172004428Y-68945997D01*
X172004428Y-70246003D01*
X172021492Y-70419257D01*
X172072028Y-70585852D01*
X172154095Y-70739388D01*
X172264537Y-70873963D01*
X172399112Y-70984405D01*
X172552648Y-71066472D01*
X172719243Y-71117008D01*
X172892497Y-71134072D01*
X173717503Y-71134072D01*
X173890757Y-71117008D01*
X174057352Y-71066472D01*
X174210888Y-70984405D01*
X174345463Y-70873963D01*
X174455905Y-70739388D01*
X174537972Y-70585852D01*
X174588508Y-70419257D01*
X174605572Y-70246003D01*
X174605572Y-68945997D01*
X174588508Y-68772743D01*
X174537972Y-68606148D01*
X174455905Y-68452612D01*
X174440000Y-68433232D01*
X174440000Y-64665131D01*
X176438877Y-62666254D01*
X176455485Y-73450386D01*
X176389613Y-73485595D01*
X176255038Y-73596038D01*
X176144595Y-73730613D01*
X176062528Y-73884149D01*
X176011992Y-74050745D01*
X175994928Y-74223999D01*
X175994928Y-75124001D01*
X176011992Y-75297255D01*
X176062528Y-75463851D01*
X176144595Y-75617387D01*
X176255038Y-75751962D01*
X176389613Y-75862405D01*
X176459257Y-75899630D01*
X176460896Y-76964000D01*
X174594738Y-76964000D01*
X174588508Y-76900743D01*
X174537972Y-76734148D01*
X174455905Y-76580612D01*
X174345463Y-76446037D01*
X174210888Y-76335595D01*
X174057352Y-76253528D01*
X174026500Y-76244169D01*
X174026500Y-75126384D01*
X174172388Y-75048405D01*
X174306963Y-74937963D01*
X174417405Y-74803388D01*
X174499472Y-74649852D01*
X174550008Y-74483257D01*
X174567072Y-74310003D01*
X174567072Y-73009997D01*
X174550008Y-72836743D01*
X174499472Y-72670148D01*
X174417405Y-72516612D01*
X174306963Y-72382037D01*
X174172388Y-72271595D01*
X174018852Y-72189528D01*
X173852257Y-72138992D01*
X173679003Y-72121928D01*
X172853997Y-72121928D01*
X172680743Y-72138992D01*
X172514148Y-72189528D01*
X172360612Y-72271595D01*
X172226037Y-72382037D01*
X172115595Y-72516612D01*
X172033528Y-72670148D01*
X171982992Y-72836743D01*
X171965928Y-73009997D01*
X171965928Y-74310003D01*
X171982992Y-74483257D01*
X172033528Y-74649852D01*
X172115595Y-74803388D01*
X172226037Y-74937963D01*
X172360612Y-75048405D01*
X172506500Y-75126384D01*
X172506500Y-76278195D01*
X172399112Y-76335595D01*
X172264537Y-76446037D01*
X172154095Y-76580612D01*
X172072028Y-76734148D01*
X172021492Y-76900743D01*
X172004428Y-77073997D01*
X172004428Y-78374003D01*
X172021492Y-78547257D01*
X172072028Y-78713852D01*
X172154095Y-78867388D01*
X172264537Y-79001963D01*
X172399112Y-79112405D01*
X172506501Y-79169806D01*
X172506501Y-80379616D01*
X172360612Y-80457595D01*
X172226037Y-80568037D01*
X172115595Y-80702612D01*
X172033528Y-80856148D01*
X171982992Y-81022743D01*
X171965928Y-81195997D01*
X171965928Y-83396003D01*
X171982992Y-83569257D01*
X172033528Y-83735852D01*
X172115595Y-83889388D01*
X172226037Y-84023963D01*
X172360612Y-84134405D01*
X172514148Y-84216472D01*
X172680743Y-84267008D01*
X172853997Y-84284072D01*
X173679003Y-84284072D01*
X173852257Y-84267008D01*
X174018852Y-84216472D01*
X174172388Y-84134405D01*
X174306963Y-84023963D01*
X174417405Y-83889388D01*
X174499472Y-83735852D01*
X174550008Y-83569257D01*
X174567072Y-83396003D01*
X174567072Y-81195997D01*
X174550008Y-81022743D01*
X174499472Y-80856148D01*
X174417405Y-80702612D01*
X174306963Y-80568037D01*
X174172388Y-80457595D01*
X174026500Y-80379616D01*
X174026500Y-79203831D01*
X174057352Y-79194472D01*
X174210888Y-79112405D01*
X174345463Y-79001963D01*
X174455905Y-78867388D01*
X174537972Y-78713852D01*
X174588508Y-78547257D01*
X174594738Y-78484000D01*
X176463237Y-78484000D01*
X176464871Y-79545368D01*
X176389613Y-79585595D01*
X176255038Y-79696038D01*
X176144595Y-79830613D01*
X176062528Y-79984149D01*
X176011992Y-80150745D01*
X175994928Y-80323999D01*
X175994928Y-81224001D01*
X176011992Y-81397255D01*
X176062528Y-81563851D01*
X176144595Y-81717387D01*
X176255038Y-81851962D01*
X176389613Y-81962405D01*
X176468659Y-82004656D01*
X176496801Y-100278373D01*
X176450813Y-100292324D01*
X176253637Y-100397716D01*
X176124116Y-100504011D01*
X176124114Y-100504013D01*
X176080811Y-100539551D01*
X176045273Y-100582854D01*
X170681838Y-105946291D01*
X170638530Y-105981833D01*
X170496695Y-106154659D01*
X170425159Y-106288495D01*
X170391303Y-106351835D01*
X170326402Y-106565783D01*
X170304488Y-106788281D01*
X170309979Y-106844033D01*
X170309979Y-107923373D01*
X169955750Y-107926000D01*
X169797000Y-108084750D01*
X169797000Y-110109000D01*
X169817000Y-110109000D01*
X169817000Y-110363000D01*
X169797000Y-110363000D01*
X169797000Y-112387250D01*
X169955750Y-112546000D01*
X170309980Y-112548627D01*
X170309981Y-122263959D01*
X170304489Y-122319720D01*
X170326403Y-122542218D01*
X170391304Y-122756166D01*
X170391305Y-122756167D01*
X170496697Y-122953343D01*
X170638532Y-123126169D01*
X170681840Y-123161711D01*
X174076279Y-126556151D01*
X174111821Y-126599459D01*
X174284646Y-126741293D01*
X174284647Y-126741294D01*
X174481823Y-126846686D01*
X174695771Y-126911587D01*
X174918270Y-126933501D01*
X174974022Y-126928010D01*
X183483241Y-126928010D01*
X183538992Y-126933501D01*
X183594743Y-126928010D01*
X183594744Y-126928010D01*
X183761491Y-126911587D01*
X183975439Y-126846686D01*
X184172615Y-126741294D01*
X184345441Y-126599459D01*
X184380988Y-126556145D01*
X186866134Y-124071000D01*
X212889869Y-124071000D01*
X213557018Y-124738150D01*
X213592561Y-124781459D01*
X213765387Y-124923294D01*
X213908897Y-125000001D01*
X213962563Y-125028686D01*
X214176511Y-125093587D01*
X214399009Y-125115501D01*
X214454761Y-125110010D01*
X221409239Y-125110010D01*
X221464990Y-125115501D01*
X221520741Y-125110010D01*
X221520742Y-125110010D01*
X221687489Y-125093587D01*
X221901437Y-125028686D01*
X222098613Y-124923294D01*
X222271439Y-124781459D01*
X222306986Y-124738146D01*
X222974132Y-124071000D01*
X247848249Y-124071000D01*
X247904000Y-124076491D01*
X247959751Y-124071000D01*
X247959752Y-124071000D01*
X248126499Y-124054577D01*
X248340447Y-123989676D01*
X248537623Y-123884284D01*
X248710449Y-123742449D01*
X248720320Y-123730420D01*
X249640025Y-123730420D01*
X252730000Y-126820395D01*
X255819975Y-123730420D01*
X255363803Y-123158815D01*
X254563817Y-122718793D01*
X253693359Y-122443296D01*
X252785879Y-122342909D01*
X251876252Y-122421492D01*
X250999434Y-122676025D01*
X250189121Y-123096725D01*
X250096197Y-123158815D01*
X249640025Y-123730420D01*
X248720320Y-123730420D01*
X248745996Y-123699135D01*
X251207141Y-121237991D01*
X251250449Y-121202449D01*
X251392284Y-121029623D01*
X251497676Y-120832447D01*
X251562577Y-120618499D01*
X251579000Y-120451752D01*
X251579000Y-120451743D01*
X251584490Y-120396001D01*
X251579000Y-120340259D01*
X251579000Y-118961131D01*
X252223150Y-118316981D01*
X252266448Y-118281448D01*
X252301981Y-118238151D01*
X252301988Y-118238144D01*
X252309492Y-118229000D01*
X252844808Y-118229000D01*
X252876000Y-118232072D01*
X253084439Y-118232072D01*
X253109000Y-118234491D01*
X253133561Y-118232072D01*
X254106439Y-118232072D01*
X254131000Y-118234491D01*
X254155561Y-118232072D01*
X255386000Y-118232072D01*
X255510482Y-118219812D01*
X255630180Y-118183502D01*
X255740494Y-118124537D01*
X255837185Y-118045185D01*
X255916537Y-117948494D01*
X255975502Y-117838180D01*
X256011812Y-117718482D01*
X256024072Y-117594000D01*
X256024072Y-116594000D01*
X256011812Y-116469518D01*
X255975502Y-116349820D01*
X255916537Y-116239506D01*
X255837185Y-116142815D01*
X255740494Y-116063463D01*
X255630180Y-116004498D01*
X255510482Y-115968188D01*
X255386000Y-115955928D01*
X255134000Y-115955928D01*
X255134000Y-111585738D01*
X255386000Y-111585738D01*
X255510482Y-111573478D01*
X255630180Y-111537168D01*
X255740494Y-111478203D01*
X255837185Y-111398851D01*
X255916537Y-111302160D01*
X255975502Y-111191846D01*
X256011812Y-111072148D01*
X256024072Y-110947666D01*
X256024072Y-109947666D01*
X256011812Y-109823184D01*
X255975502Y-109703486D01*
X255916537Y-109593172D01*
X255837185Y-109496481D01*
X255740494Y-109417129D01*
X255630180Y-109358164D01*
X255510482Y-109321854D01*
X255386000Y-109309594D01*
X255134000Y-109309594D01*
X255134000Y-104939405D01*
X255386000Y-104939405D01*
X255510482Y-104927145D01*
X255630180Y-104890835D01*
X255740494Y-104831870D01*
X255837185Y-104752518D01*
X255916537Y-104655827D01*
X255975502Y-104545513D01*
X256011812Y-104425815D01*
X256024072Y-104301333D01*
X256024072Y-103301333D01*
X256011812Y-103176851D01*
X255975502Y-103057153D01*
X255916537Y-102946839D01*
X255837185Y-102850148D01*
X255740494Y-102770796D01*
X255630180Y-102711831D01*
X255510482Y-102675521D01*
X255386000Y-102663261D01*
X255134000Y-102663261D01*
X255134000Y-98293072D01*
X255386000Y-98293072D01*
X255510482Y-98280812D01*
X255630180Y-98244502D01*
X255740494Y-98185537D01*
X255837185Y-98106185D01*
X255916537Y-98009494D01*
X255975502Y-97899180D01*
X256011812Y-97779482D01*
X256024072Y-97655000D01*
X256024072Y-96655000D01*
X256011812Y-96530518D01*
X255975502Y-96410820D01*
X255916537Y-96300506D01*
X255837185Y-96203815D01*
X255740494Y-96124463D01*
X255630180Y-96065498D01*
X255510482Y-96029188D01*
X255386000Y-96016928D01*
X252876000Y-96016928D01*
X252751518Y-96029188D01*
X252631820Y-96065498D01*
X252521506Y-96124463D01*
X252424815Y-96203815D01*
X252345463Y-96300506D01*
X252286498Y-96410820D01*
X252250188Y-96530518D01*
X252237928Y-96655000D01*
X252237928Y-97655000D01*
X252250188Y-97779482D01*
X252286498Y-97899180D01*
X252345463Y-98009494D01*
X252424815Y-98106185D01*
X252521506Y-98185537D01*
X252631820Y-98244502D01*
X252751518Y-98280812D01*
X252864001Y-98291890D01*
X252864001Y-102664443D01*
X252751518Y-102675521D01*
X252631820Y-102711831D01*
X252521506Y-102770796D01*
X252424815Y-102850148D01*
X252345463Y-102946839D01*
X252286498Y-103057153D01*
X252250188Y-103176851D01*
X252237928Y-103301333D01*
X252237928Y-104301333D01*
X252250188Y-104425815D01*
X252286498Y-104545513D01*
X252345463Y-104655827D01*
X252424815Y-104752518D01*
X252521506Y-104831870D01*
X252631820Y-104890835D01*
X252751518Y-104927145D01*
X252864001Y-104938223D01*
X252864000Y-109310776D01*
X252751518Y-109321854D01*
X252631820Y-109358164D01*
X252521506Y-109417129D01*
X252424815Y-109496481D01*
X252345463Y-109593172D01*
X252286498Y-109703486D01*
X252250188Y-109823184D01*
X252237928Y-109947666D01*
X252237928Y-110947666D01*
X252250188Y-111072148D01*
X252286498Y-111191846D01*
X252345463Y-111302160D01*
X252424815Y-111398851D01*
X252521506Y-111478203D01*
X252631820Y-111537168D01*
X252751518Y-111573478D01*
X252864000Y-111584556D01*
X252864000Y-115733868D01*
X252638869Y-115959000D01*
X251134751Y-115959000D01*
X251079000Y-115953509D01*
X251023249Y-115959000D01*
X250499752Y-115959000D01*
X250444000Y-115953509D01*
X250388249Y-115959000D01*
X249991741Y-115959000D01*
X249935999Y-115953510D01*
X249880257Y-115959000D01*
X249009132Y-115959000D01*
X248403000Y-115352869D01*
X248403000Y-111585541D01*
X248525482Y-111573478D01*
X248645180Y-111537168D01*
X248755494Y-111478203D01*
X248852185Y-111398851D01*
X248931537Y-111302160D01*
X248990502Y-111191846D01*
X249026812Y-111072148D01*
X249039072Y-110947666D01*
X249039072Y-109947666D01*
X249026812Y-109823184D01*
X248990502Y-109703486D01*
X248931537Y-109593172D01*
X248852185Y-109496481D01*
X248755494Y-109417129D01*
X248645180Y-109358164D01*
X248525482Y-109321854D01*
X248403000Y-109309791D01*
X248403000Y-104939208D01*
X248525482Y-104927145D01*
X248645180Y-104890835D01*
X248755494Y-104831870D01*
X248852185Y-104752518D01*
X248931537Y-104655827D01*
X248990502Y-104545513D01*
X249026812Y-104425815D01*
X249039072Y-104301333D01*
X249039072Y-103301333D01*
X249026812Y-103176851D01*
X248990502Y-103057153D01*
X248931537Y-102946839D01*
X248852185Y-102850148D01*
X248755494Y-102770796D01*
X248645180Y-102711831D01*
X248525482Y-102675521D01*
X248403000Y-102663458D01*
X248403000Y-101096013D01*
X248927928Y-101094185D01*
X248927928Y-101761333D01*
X248940188Y-101885815D01*
X248976498Y-102005513D01*
X249035463Y-102115827D01*
X249114815Y-102212518D01*
X249211506Y-102291870D01*
X249321820Y-102350835D01*
X249441518Y-102387145D01*
X249564000Y-102399208D01*
X249564001Y-106769791D01*
X249441518Y-106781854D01*
X249321820Y-106818164D01*
X249211506Y-106877129D01*
X249114815Y-106956481D01*
X249035463Y-107053172D01*
X248976498Y-107163486D01*
X248940188Y-107283184D01*
X248927928Y-107407666D01*
X248927928Y-108407666D01*
X248940188Y-108532148D01*
X248976498Y-108651846D01*
X249035463Y-108762160D01*
X249114815Y-108858851D01*
X249211506Y-108938203D01*
X249321820Y-108997168D01*
X249441518Y-109033478D01*
X249564001Y-109045541D01*
X249564001Y-113416125D01*
X249441518Y-113428188D01*
X249321820Y-113464498D01*
X249211506Y-113523463D01*
X249114815Y-113602815D01*
X249035463Y-113699506D01*
X248976498Y-113809820D01*
X248940188Y-113929518D01*
X248927928Y-114054000D01*
X248927928Y-115054000D01*
X248940188Y-115178482D01*
X248976498Y-115298180D01*
X249035463Y-115408494D01*
X249114815Y-115505185D01*
X249211506Y-115584537D01*
X249321820Y-115643502D01*
X249441518Y-115679812D01*
X249566000Y-115692072D01*
X250801438Y-115692072D01*
X250825999Y-115694491D01*
X250850560Y-115692072D01*
X252076000Y-115692072D01*
X252200482Y-115679812D01*
X252320180Y-115643502D01*
X252430494Y-115584537D01*
X252527185Y-115505185D01*
X252606537Y-115408494D01*
X252665502Y-115298180D01*
X252701812Y-115178482D01*
X252714072Y-115054000D01*
X252714072Y-114054000D01*
X252701812Y-113929518D01*
X252665502Y-113809820D01*
X252606537Y-113699506D01*
X252527185Y-113602815D01*
X252430494Y-113523463D01*
X252320180Y-113464498D01*
X252200482Y-113428188D01*
X252076000Y-113415928D01*
X251834000Y-113415928D01*
X251834000Y-109045738D01*
X252076000Y-109045738D01*
X252200482Y-109033478D01*
X252320180Y-108997168D01*
X252430494Y-108938203D01*
X252527185Y-108858851D01*
X252606537Y-108762160D01*
X252665502Y-108651846D01*
X252701812Y-108532148D01*
X252714072Y-108407666D01*
X252714072Y-107407666D01*
X252701812Y-107283184D01*
X252665502Y-107163486D01*
X252606537Y-107053172D01*
X252527185Y-106956481D01*
X252430494Y-106877129D01*
X252320180Y-106818164D01*
X252200482Y-106781854D01*
X252076000Y-106769594D01*
X251834000Y-106769594D01*
X251834000Y-102399405D01*
X252076000Y-102399405D01*
X252200482Y-102387145D01*
X252320180Y-102350835D01*
X252430494Y-102291870D01*
X252527185Y-102212518D01*
X252606537Y-102115827D01*
X252665502Y-102005513D01*
X252701812Y-101885815D01*
X252714072Y-101761333D01*
X252714072Y-100761333D01*
X252701812Y-100636851D01*
X252665502Y-100517153D01*
X252606537Y-100406839D01*
X252527185Y-100310148D01*
X252430494Y-100230796D01*
X252320180Y-100171831D01*
X252200482Y-100135521D01*
X252076000Y-100123261D01*
X251956000Y-100123261D01*
X251956000Y-95753072D01*
X252076000Y-95753072D01*
X252200482Y-95740812D01*
X252320180Y-95704502D01*
X252430494Y-95645537D01*
X252527185Y-95566185D01*
X252606537Y-95469494D01*
X252665502Y-95359180D01*
X252701812Y-95239482D01*
X252714072Y-95115000D01*
X252714072Y-94115000D01*
X252701812Y-93990518D01*
X252665502Y-93870820D01*
X252606537Y-93760506D01*
X252527185Y-93663815D01*
X252430494Y-93584463D01*
X252320180Y-93525498D01*
X252200482Y-93489188D01*
X252076000Y-93476928D01*
X250845561Y-93476928D01*
X250821000Y-93474509D01*
X250796439Y-93476928D01*
X249658745Y-93476928D01*
X249642327Y-88190152D01*
X249659820Y-88199502D01*
X249779518Y-88235812D01*
X249904000Y-88248072D01*
X251618250Y-88245000D01*
X251777000Y-88086250D01*
X251777000Y-86487000D01*
X252031000Y-86487000D01*
X252031000Y-88086250D01*
X252189750Y-88245000D01*
X253904000Y-88248072D01*
X254028482Y-88235812D01*
X254148180Y-88199502D01*
X254258494Y-88140537D01*
X254355185Y-88061185D01*
X254434537Y-87964494D01*
X254493502Y-87854180D01*
X254529812Y-87734482D01*
X254542072Y-87610000D01*
X254539000Y-86645750D01*
X254380250Y-86487000D01*
X252031000Y-86487000D01*
X251777000Y-86487000D01*
X251757000Y-86487000D01*
X251757000Y-86233000D01*
X251777000Y-86233000D01*
X251777000Y-84633750D01*
X252031000Y-84633750D01*
X252031000Y-86233000D01*
X254380250Y-86233000D01*
X254539000Y-86074250D01*
X254542072Y-85110000D01*
X254529812Y-84985518D01*
X254493502Y-84865820D01*
X254434537Y-84755506D01*
X254355185Y-84658815D01*
X254258494Y-84579463D01*
X254148180Y-84520498D01*
X254028482Y-84484188D01*
X253904000Y-84471928D01*
X252189750Y-84475000D01*
X252031000Y-84633750D01*
X251777000Y-84633750D01*
X251618250Y-84475000D01*
X249904000Y-84471928D01*
X249779518Y-84484188D01*
X249659820Y-84520498D01*
X249630978Y-84535914D01*
X249605981Y-76486724D01*
X249659820Y-76515502D01*
X249779518Y-76551812D01*
X249904000Y-76564072D01*
X251618250Y-76561000D01*
X251777000Y-76402250D01*
X251777000Y-74803000D01*
X252031000Y-74803000D01*
X252031000Y-76402250D01*
X252189750Y-76561000D01*
X253904000Y-76564072D01*
X254028482Y-76551812D01*
X254148180Y-76515502D01*
X254258494Y-76456537D01*
X254355185Y-76377185D01*
X254434537Y-76280494D01*
X254493502Y-76170180D01*
X254529812Y-76050482D01*
X254542072Y-75926000D01*
X254539000Y-74961750D01*
X254380250Y-74803000D01*
X252031000Y-74803000D01*
X251777000Y-74803000D01*
X251757000Y-74803000D01*
X251757000Y-74549000D01*
X251777000Y-74549000D01*
X251777000Y-72949750D01*
X252031000Y-72949750D01*
X252031000Y-74549000D01*
X254380250Y-74549000D01*
X254539000Y-74390250D01*
X254542072Y-73426000D01*
X254529812Y-73301518D01*
X254493502Y-73181820D01*
X254434537Y-73071506D01*
X254355185Y-72974815D01*
X254258494Y-72895463D01*
X254148180Y-72836498D01*
X254028482Y-72800188D01*
X253904000Y-72787928D01*
X252189750Y-72791000D01*
X252031000Y-72949750D01*
X251777000Y-72949750D01*
X251618250Y-72791000D01*
X249904000Y-72787928D01*
X249779518Y-72800188D01*
X249659820Y-72836498D01*
X249594753Y-72871278D01*
X249569635Y-64783296D01*
X249659820Y-64831502D01*
X249779518Y-64867812D01*
X249904000Y-64880072D01*
X251618250Y-64877000D01*
X251777000Y-64718250D01*
X251777000Y-63119000D01*
X252031000Y-63119000D01*
X252031000Y-64718250D01*
X252189750Y-64877000D01*
X253904000Y-64880072D01*
X254028482Y-64867812D01*
X254148180Y-64831502D01*
X254258494Y-64772537D01*
X254355185Y-64693185D01*
X254434537Y-64596494D01*
X254493502Y-64486180D01*
X254529812Y-64366482D01*
X254542072Y-64242000D01*
X254539000Y-63277750D01*
X254380250Y-63119000D01*
X252031000Y-63119000D01*
X251777000Y-63119000D01*
X251757000Y-63119000D01*
X251757000Y-62865000D01*
X251777000Y-62865000D01*
X251777000Y-61265750D01*
X252031000Y-61265750D01*
X252031000Y-62865000D01*
X254380250Y-62865000D01*
X254539000Y-62706250D01*
X254542072Y-61742000D01*
X254529812Y-61617518D01*
X254493502Y-61497820D01*
X254434537Y-61387506D01*
X254355185Y-61290815D01*
X254258494Y-61211463D01*
X254148180Y-61152498D01*
X254028482Y-61116188D01*
X253904000Y-61103928D01*
X252189750Y-61107000D01*
X252031000Y-61265750D01*
X251777000Y-61265750D01*
X251618250Y-61107000D01*
X249904000Y-61103928D01*
X249779518Y-61116188D01*
X249659820Y-61152498D01*
X249558527Y-61206641D01*
X249524875Y-50370601D01*
X249526941Y-50372667D01*
X249640026Y-50259582D01*
X250096197Y-50831185D01*
X250896183Y-51271207D01*
X251766641Y-51546704D01*
X252674121Y-51647091D01*
X253583748Y-51568508D01*
X254460566Y-51313975D01*
X255270879Y-50893275D01*
X255363803Y-50831185D01*
X255819975Y-50259580D01*
X252730000Y-47169605D01*
X252715858Y-47183748D01*
X252536253Y-47004143D01*
X252550395Y-46990000D01*
X252909605Y-46990000D01*
X255999580Y-50079975D01*
X256571185Y-49623803D01*
X257011207Y-48823817D01*
X257286704Y-47953359D01*
X257387091Y-47045879D01*
X257308508Y-46136252D01*
X257053975Y-45259434D01*
X256633275Y-44449121D01*
X256571185Y-44356197D01*
X255999580Y-43900025D01*
X252909605Y-46990000D01*
X252550395Y-46990000D01*
X252536253Y-46975858D01*
X252715858Y-46796253D01*
X252730000Y-46810395D01*
X255819975Y-43720420D01*
X255363803Y-43148815D01*
X254563817Y-42708793D01*
X253693359Y-42433296D01*
X252785879Y-42332909D01*
X251876252Y-42411492D01*
X250999434Y-42666025D01*
X250189121Y-43086725D01*
X250096197Y-43148815D01*
X249640026Y-43720418D01*
X249526941Y-43607333D01*
X249503942Y-43630332D01*
X249492761Y-40030000D01*
X253974074Y-40030000D01*
X254889791Y-40102068D01*
X255757678Y-40310430D01*
X256582275Y-40651989D01*
X257343299Y-41118345D01*
X258021994Y-41698006D01*
X258601655Y-42376701D01*
X259068009Y-43137720D01*
X259409570Y-43962322D01*
X259617931Y-44830207D01*
X259690001Y-45745939D01*
X259690000Y-128244074D01*
X259617931Y-129159793D01*
X259409570Y-130027678D01*
X259068009Y-130852280D01*
X258601655Y-131613299D01*
X258021994Y-132291994D01*
X257343299Y-132871655D01*
X256582275Y-133338011D01*
X255757678Y-133679570D01*
X254889791Y-133887932D01*
X253974074Y-133960000D01*
X165125926Y-133960000D01*
X164210207Y-133887931D01*
X163342322Y-133679570D01*
X162517720Y-133338009D01*
X161756701Y-132871655D01*
X161078006Y-132291994D01*
X160498345Y-131613299D01*
X160031989Y-130852275D01*
X159790630Y-130269580D01*
X163280025Y-130269580D01*
X163736197Y-130841185D01*
X164536183Y-131281207D01*
X165406641Y-131556704D01*
X166314121Y-131657091D01*
X167223748Y-131578508D01*
X168100566Y-131323975D01*
X168910879Y-130903275D01*
X169003803Y-130841185D01*
X169459975Y-130269580D01*
X249640025Y-130269580D01*
X250096197Y-130841185D01*
X250896183Y-131281207D01*
X251766641Y-131556704D01*
X252674121Y-131657091D01*
X253583748Y-131578508D01*
X254460566Y-131323975D01*
X255270879Y-130903275D01*
X255363803Y-130841185D01*
X255819975Y-130269580D01*
X252730000Y-127179605D01*
X249640025Y-130269580D01*
X169459975Y-130269580D01*
X166370000Y-127179605D01*
X163280025Y-130269580D01*
X159790630Y-130269580D01*
X159690430Y-130027678D01*
X159482068Y-129159791D01*
X159410000Y-128244074D01*
X159410000Y-126944121D01*
X161712909Y-126944121D01*
X161791492Y-127853748D01*
X162046025Y-128730566D01*
X162466725Y-129540879D01*
X162528815Y-129633803D01*
X163100420Y-130089975D01*
X166190395Y-127000000D01*
X166549605Y-127000000D01*
X169639580Y-130089975D01*
X170211185Y-129633803D01*
X170651207Y-128833817D01*
X170926704Y-127963359D01*
X171027091Y-127055879D01*
X171017437Y-126944121D01*
X248072909Y-126944121D01*
X248151492Y-127853748D01*
X248406025Y-128730566D01*
X248826725Y-129540879D01*
X248888815Y-129633803D01*
X249460420Y-130089975D01*
X252550395Y-127000000D01*
X252909605Y-127000000D01*
X255999580Y-130089975D01*
X256571185Y-129633803D01*
X257011207Y-128833817D01*
X257286704Y-127963359D01*
X257387091Y-127055879D01*
X257308508Y-126146252D01*
X257053975Y-125269434D01*
X256633275Y-124459121D01*
X256571185Y-124366197D01*
X255999580Y-123910025D01*
X252909605Y-127000000D01*
X252550395Y-127000000D01*
X249460420Y-123910025D01*
X248888815Y-124366197D01*
X248448793Y-125166183D01*
X248173296Y-126036641D01*
X248072909Y-126944121D01*
X171017437Y-126944121D01*
X170948508Y-126146252D01*
X170693975Y-125269434D01*
X170273275Y-124459121D01*
X170211185Y-124366197D01*
X169639580Y-123910025D01*
X166549605Y-127000000D01*
X166190395Y-127000000D01*
X163100420Y-123910025D01*
X162528815Y-124366197D01*
X162088793Y-125166183D01*
X161813296Y-126036641D01*
X161712909Y-126944121D01*
X159410000Y-126944121D01*
X159410000Y-123730420D01*
X163280025Y-123730420D01*
X166370000Y-126820395D01*
X169459975Y-123730420D01*
X169003803Y-123158815D01*
X168203817Y-122718793D01*
X167333359Y-122443296D01*
X166425879Y-122342909D01*
X165516252Y-122421492D01*
X164639434Y-122676025D01*
X163829121Y-123096725D01*
X163736197Y-123158815D01*
X163280025Y-123730420D01*
X159410000Y-123730420D01*
X159410000Y-111911000D01*
X168331928Y-111911000D01*
X168344188Y-112035482D01*
X168380498Y-112155180D01*
X168439463Y-112265494D01*
X168518815Y-112362185D01*
X168615506Y-112441537D01*
X168725820Y-112500502D01*
X168845518Y-112536812D01*
X168970000Y-112549072D01*
X169384250Y-112546000D01*
X169543000Y-112387250D01*
X169543000Y-110363000D01*
X168493750Y-110363000D01*
X168335000Y-110521750D01*
X168331928Y-111911000D01*
X159410000Y-111911000D01*
X159410000Y-108561000D01*
X168331928Y-108561000D01*
X168335000Y-109950250D01*
X168493750Y-110109000D01*
X169543000Y-110109000D01*
X169543000Y-108084750D01*
X169384250Y-107926000D01*
X168970000Y-107922928D01*
X168845518Y-107935188D01*
X168725820Y-107971498D01*
X168615506Y-108030463D01*
X168518815Y-108109815D01*
X168439463Y-108206506D01*
X168380498Y-108316820D01*
X168344188Y-108436518D01*
X168331928Y-108561000D01*
X159410000Y-108561000D01*
X159410000Y-83646000D01*
X168840928Y-83646000D01*
X168853188Y-83770482D01*
X168889498Y-83890180D01*
X168948463Y-84000494D01*
X169027815Y-84097185D01*
X169124506Y-84176537D01*
X169234820Y-84235502D01*
X169354518Y-84271812D01*
X169479000Y-84284072D01*
X169855750Y-84281000D01*
X170014500Y-84122250D01*
X170014500Y-82423000D01*
X170268500Y-82423000D01*
X170268500Y-84122250D01*
X170427250Y-84281000D01*
X170804000Y-84284072D01*
X170928482Y-84271812D01*
X171048180Y-84235502D01*
X171158494Y-84176537D01*
X171255185Y-84097185D01*
X171334537Y-84000494D01*
X171393502Y-83890180D01*
X171429812Y-83770482D01*
X171442072Y-83646000D01*
X171439000Y-82581750D01*
X171280250Y-82423000D01*
X170268500Y-82423000D01*
X170014500Y-82423000D01*
X169002750Y-82423000D01*
X168844000Y-82581750D01*
X168840928Y-83646000D01*
X159410000Y-83646000D01*
X159410000Y-80946000D01*
X168840928Y-80946000D01*
X168844000Y-82010250D01*
X169002750Y-82169000D01*
X170014500Y-82169000D01*
X170014500Y-80469750D01*
X170268500Y-80469750D01*
X170268500Y-82169000D01*
X171280250Y-82169000D01*
X171439000Y-82010250D01*
X171442072Y-80946000D01*
X171429812Y-80821518D01*
X171393502Y-80701820D01*
X171334537Y-80591506D01*
X171255185Y-80494815D01*
X171158494Y-80415463D01*
X171048180Y-80356498D01*
X170928482Y-80320188D01*
X170804000Y-80307928D01*
X170427250Y-80311000D01*
X170268500Y-80469750D01*
X170014500Y-80469750D01*
X169855750Y-80311000D01*
X169479000Y-80307928D01*
X169354518Y-80320188D01*
X169234820Y-80356498D01*
X169124506Y-80415463D01*
X169027815Y-80494815D01*
X168948463Y-80591506D01*
X168889498Y-80701820D01*
X168853188Y-80821518D01*
X168840928Y-80946000D01*
X159410000Y-80946000D01*
X159410000Y-78624000D01*
X168879428Y-78624000D01*
X168891688Y-78748482D01*
X168927998Y-78868180D01*
X168986963Y-78978494D01*
X169066315Y-79075185D01*
X169163006Y-79154537D01*
X169273320Y-79213502D01*
X169393018Y-79249812D01*
X169517500Y-79262072D01*
X169894250Y-79259000D01*
X170053000Y-79100250D01*
X170053000Y-77851000D01*
X170307000Y-77851000D01*
X170307000Y-79100250D01*
X170465750Y-79259000D01*
X170842500Y-79262072D01*
X170966982Y-79249812D01*
X171086680Y-79213502D01*
X171196994Y-79154537D01*
X171293685Y-79075185D01*
X171373037Y-78978494D01*
X171432002Y-78868180D01*
X171468312Y-78748482D01*
X171480572Y-78624000D01*
X171477500Y-78009750D01*
X171318750Y-77851000D01*
X170307000Y-77851000D01*
X170053000Y-77851000D01*
X169041250Y-77851000D01*
X168882500Y-78009750D01*
X168879428Y-78624000D01*
X159410000Y-78624000D01*
X159410000Y-76824000D01*
X168879428Y-76824000D01*
X168882500Y-77438250D01*
X169041250Y-77597000D01*
X170053000Y-77597000D01*
X170053000Y-76347750D01*
X170307000Y-76347750D01*
X170307000Y-77597000D01*
X171318750Y-77597000D01*
X171477500Y-77438250D01*
X171480572Y-76824000D01*
X171468312Y-76699518D01*
X171432002Y-76579820D01*
X171373037Y-76469506D01*
X171293685Y-76372815D01*
X171196994Y-76293463D01*
X171086680Y-76234498D01*
X170966982Y-76198188D01*
X170842500Y-76185928D01*
X170465750Y-76189000D01*
X170307000Y-76347750D01*
X170053000Y-76347750D01*
X169894250Y-76189000D01*
X169517500Y-76185928D01*
X169393018Y-76198188D01*
X169273320Y-76234498D01*
X169163006Y-76293463D01*
X169066315Y-76372815D01*
X168986963Y-76469506D01*
X168927998Y-76579820D01*
X168891688Y-76699518D01*
X168879428Y-76824000D01*
X159410000Y-76824000D01*
X159410000Y-74560000D01*
X168840928Y-74560000D01*
X168853188Y-74684482D01*
X168889498Y-74804180D01*
X168948463Y-74914494D01*
X169027815Y-75011185D01*
X169124506Y-75090537D01*
X169234820Y-75149502D01*
X169354518Y-75185812D01*
X169479000Y-75198072D01*
X169855750Y-75195000D01*
X170014500Y-75036250D01*
X170014500Y-73787000D01*
X170268500Y-73787000D01*
X170268500Y-75036250D01*
X170427250Y-75195000D01*
X170804000Y-75198072D01*
X170928482Y-75185812D01*
X171048180Y-75149502D01*
X171158494Y-75090537D01*
X171255185Y-75011185D01*
X171334537Y-74914494D01*
X171393502Y-74804180D01*
X171429812Y-74684482D01*
X171442072Y-74560000D01*
X171439000Y-73945750D01*
X171280250Y-73787000D01*
X170268500Y-73787000D01*
X170014500Y-73787000D01*
X169002750Y-73787000D01*
X168844000Y-73945750D01*
X168840928Y-74560000D01*
X159410000Y-74560000D01*
X159410000Y-72760000D01*
X168840928Y-72760000D01*
X168844000Y-73374250D01*
X169002750Y-73533000D01*
X170014500Y-73533000D01*
X170014500Y-72283750D01*
X170268500Y-72283750D01*
X170268500Y-73533000D01*
X171280250Y-73533000D01*
X171439000Y-73374250D01*
X171442072Y-72760000D01*
X171429812Y-72635518D01*
X171393502Y-72515820D01*
X171334537Y-72405506D01*
X171255185Y-72308815D01*
X171158494Y-72229463D01*
X171048180Y-72170498D01*
X170928482Y-72134188D01*
X170804000Y-72121928D01*
X170427250Y-72125000D01*
X170268500Y-72283750D01*
X170014500Y-72283750D01*
X169855750Y-72125000D01*
X169479000Y-72121928D01*
X169354518Y-72134188D01*
X169234820Y-72170498D01*
X169124506Y-72229463D01*
X169027815Y-72308815D01*
X168948463Y-72405506D01*
X168889498Y-72515820D01*
X168853188Y-72635518D01*
X168840928Y-72760000D01*
X159410000Y-72760000D01*
X159410000Y-70496000D01*
X168879428Y-70496000D01*
X168891688Y-70620482D01*
X168927998Y-70740180D01*
X168986963Y-70850494D01*
X169066315Y-70947185D01*
X169163006Y-71026537D01*
X169273320Y-71085502D01*
X169393018Y-71121812D01*
X169517500Y-71134072D01*
X169894250Y-71131000D01*
X170053000Y-70972250D01*
X170053000Y-69723000D01*
X170307000Y-69723000D01*
X170307000Y-70972250D01*
X170465750Y-71131000D01*
X170842500Y-71134072D01*
X170966982Y-71121812D01*
X171086680Y-71085502D01*
X171196994Y-71026537D01*
X171293685Y-70947185D01*
X171373037Y-70850494D01*
X171432002Y-70740180D01*
X171468312Y-70620482D01*
X171480572Y-70496000D01*
X171477500Y-69881750D01*
X171318750Y-69723000D01*
X170307000Y-69723000D01*
X170053000Y-69723000D01*
X169041250Y-69723000D01*
X168882500Y-69881750D01*
X168879428Y-70496000D01*
X159410000Y-70496000D01*
X159410000Y-68696000D01*
X168879428Y-68696000D01*
X168882500Y-69310250D01*
X169041250Y-69469000D01*
X170053000Y-69469000D01*
X170053000Y-68219750D01*
X170307000Y-68219750D01*
X170307000Y-69469000D01*
X171318750Y-69469000D01*
X171477500Y-69310250D01*
X171480572Y-68696000D01*
X171468312Y-68571518D01*
X171432002Y-68451820D01*
X171373037Y-68341506D01*
X171293685Y-68244815D01*
X171196994Y-68165463D01*
X171086680Y-68106498D01*
X170966982Y-68070188D01*
X170842500Y-68057928D01*
X170465750Y-68061000D01*
X170307000Y-68219750D01*
X170053000Y-68219750D01*
X169894250Y-68061000D01*
X169517500Y-68057928D01*
X169393018Y-68070188D01*
X169273320Y-68106498D01*
X169163006Y-68165463D01*
X169066315Y-68244815D01*
X168986963Y-68341506D01*
X168927998Y-68451820D01*
X168891688Y-68571518D01*
X168879428Y-68696000D01*
X159410000Y-68696000D01*
X159410000Y-50259580D01*
X163280025Y-50259580D01*
X163736197Y-50831185D01*
X164536183Y-51271207D01*
X165406641Y-51546704D01*
X166314121Y-51647091D01*
X167223748Y-51568508D01*
X168100566Y-51313975D01*
X168910879Y-50893275D01*
X169003803Y-50831185D01*
X169459975Y-50259580D01*
X166370000Y-47169605D01*
X163280025Y-50259580D01*
X159410000Y-50259580D01*
X159410000Y-46934121D01*
X161712909Y-46934121D01*
X161791492Y-47843748D01*
X162046025Y-48720566D01*
X162466725Y-49530879D01*
X162528815Y-49623803D01*
X163100420Y-50079975D01*
X166190395Y-46990000D01*
X166549605Y-46990000D01*
X169639580Y-50079975D01*
X170211185Y-49623803D01*
X170651207Y-48823817D01*
X170926704Y-47953359D01*
X171027091Y-47045879D01*
X170948508Y-46136252D01*
X170693975Y-45259434D01*
X170273275Y-44449121D01*
X170211185Y-44356197D01*
X169639580Y-43900025D01*
X166549605Y-46990000D01*
X166190395Y-46990000D01*
X163100420Y-43900025D01*
X162528815Y-44356197D01*
X162088793Y-45156183D01*
X161813296Y-46026641D01*
X161712909Y-46934121D01*
X159410000Y-46934121D01*
X159410000Y-45745926D01*
X159482068Y-44830209D01*
X159690430Y-43962322D01*
X159790629Y-43720420D01*
X163280025Y-43720420D01*
X166370000Y-46810395D01*
X169459975Y-43720420D01*
X169003803Y-43148815D01*
X168203817Y-42708793D01*
X167333359Y-42433296D01*
X166425879Y-42332909D01*
X165516252Y-42411492D01*
X164639434Y-42666025D01*
X163829121Y-43086725D01*
X163736197Y-43148815D01*
X163280025Y-43720420D01*
X159790629Y-43720420D01*
X160031989Y-43137725D01*
X160498345Y-42376701D01*
X161078006Y-41698006D01*
X161756701Y-41118345D01*
X162517720Y-40651991D01*
X163342322Y-40310430D01*
X164210207Y-40102069D01*
X165125926Y-40030000D01*
X176404016Y-40030000D01*
X176433940Y-59460928D01*
%TA.AperFunction,Conductor*%
D24*
G36*
X176433940Y-59460928D02*
G01*
X172541860Y-63353009D01*
X172498552Y-63388551D01*
X172356717Y-63561377D01*
X172300384Y-63666770D01*
X172251324Y-63758554D01*
X172186423Y-63972502D01*
X172164509Y-64195000D01*
X172170001Y-64250761D01*
X172170000Y-68433231D01*
X172154095Y-68452612D01*
X172072028Y-68606148D01*
X172021492Y-68772743D01*
X172004428Y-68945997D01*
X172004428Y-70246003D01*
X172021492Y-70419257D01*
X172072028Y-70585852D01*
X172154095Y-70739388D01*
X172264537Y-70873963D01*
X172399112Y-70984405D01*
X172552648Y-71066472D01*
X172719243Y-71117008D01*
X172892497Y-71134072D01*
X173717503Y-71134072D01*
X173890757Y-71117008D01*
X174057352Y-71066472D01*
X174210888Y-70984405D01*
X174345463Y-70873963D01*
X174455905Y-70739388D01*
X174537972Y-70585852D01*
X174588508Y-70419257D01*
X174605572Y-70246003D01*
X174605572Y-68945997D01*
X174588508Y-68772743D01*
X174537972Y-68606148D01*
X174455905Y-68452612D01*
X174440000Y-68433232D01*
X174440000Y-64665131D01*
X176438877Y-62666254D01*
X176455485Y-73450386D01*
X176389613Y-73485595D01*
X176255038Y-73596038D01*
X176144595Y-73730613D01*
X176062528Y-73884149D01*
X176011992Y-74050745D01*
X175994928Y-74223999D01*
X175994928Y-75124001D01*
X176011992Y-75297255D01*
X176062528Y-75463851D01*
X176144595Y-75617387D01*
X176255038Y-75751962D01*
X176389613Y-75862405D01*
X176459257Y-75899630D01*
X176460896Y-76964000D01*
X174594738Y-76964000D01*
X174588508Y-76900743D01*
X174537972Y-76734148D01*
X174455905Y-76580612D01*
X174345463Y-76446037D01*
X174210888Y-76335595D01*
X174057352Y-76253528D01*
X174026500Y-76244169D01*
X174026500Y-75126384D01*
X174172388Y-75048405D01*
X174306963Y-74937963D01*
X174417405Y-74803388D01*
X174499472Y-74649852D01*
X174550008Y-74483257D01*
X174567072Y-74310003D01*
X174567072Y-73009997D01*
X174550008Y-72836743D01*
X174499472Y-72670148D01*
X174417405Y-72516612D01*
X174306963Y-72382037D01*
X174172388Y-72271595D01*
X174018852Y-72189528D01*
X173852257Y-72138992D01*
X173679003Y-72121928D01*
X172853997Y-72121928D01*
X172680743Y-72138992D01*
X172514148Y-72189528D01*
X172360612Y-72271595D01*
X172226037Y-72382037D01*
X172115595Y-72516612D01*
X172033528Y-72670148D01*
X171982992Y-72836743D01*
X171965928Y-73009997D01*
X171965928Y-74310003D01*
X171982992Y-74483257D01*
X172033528Y-74649852D01*
X172115595Y-74803388D01*
X172226037Y-74937963D01*
X172360612Y-75048405D01*
X172506500Y-75126384D01*
X172506500Y-76278195D01*
X172399112Y-76335595D01*
X172264537Y-76446037D01*
X172154095Y-76580612D01*
X172072028Y-76734148D01*
X172021492Y-76900743D01*
X172004428Y-77073997D01*
X172004428Y-78374003D01*
X172021492Y-78547257D01*
X172072028Y-78713852D01*
X172154095Y-78867388D01*
X172264537Y-79001963D01*
X172399112Y-79112405D01*
X172506501Y-79169806D01*
X172506501Y-80379616D01*
X172360612Y-80457595D01*
X172226037Y-80568037D01*
X172115595Y-80702612D01*
X172033528Y-80856148D01*
X171982992Y-81022743D01*
X171965928Y-81195997D01*
X171965928Y-83396003D01*
X171982992Y-83569257D01*
X172033528Y-83735852D01*
X172115595Y-83889388D01*
X172226037Y-84023963D01*
X172360612Y-84134405D01*
X172514148Y-84216472D01*
X172680743Y-84267008D01*
X172853997Y-84284072D01*
X173679003Y-84284072D01*
X173852257Y-84267008D01*
X174018852Y-84216472D01*
X174172388Y-84134405D01*
X174306963Y-84023963D01*
X174417405Y-83889388D01*
X174499472Y-83735852D01*
X174550008Y-83569257D01*
X174567072Y-83396003D01*
X174567072Y-81195997D01*
X174550008Y-81022743D01*
X174499472Y-80856148D01*
X174417405Y-80702612D01*
X174306963Y-80568037D01*
X174172388Y-80457595D01*
X174026500Y-80379616D01*
X174026500Y-79203831D01*
X174057352Y-79194472D01*
X174210888Y-79112405D01*
X174345463Y-79001963D01*
X174455905Y-78867388D01*
X174537972Y-78713852D01*
X174588508Y-78547257D01*
X174594738Y-78484000D01*
X176463237Y-78484000D01*
X176464871Y-79545368D01*
X176389613Y-79585595D01*
X176255038Y-79696038D01*
X176144595Y-79830613D01*
X176062528Y-79984149D01*
X176011992Y-80150745D01*
X175994928Y-80323999D01*
X175994928Y-81224001D01*
X176011992Y-81397255D01*
X176062528Y-81563851D01*
X176144595Y-81717387D01*
X176255038Y-81851962D01*
X176389613Y-81962405D01*
X176468659Y-82004656D01*
X176496801Y-100278373D01*
X176450813Y-100292324D01*
X176253637Y-100397716D01*
X176124116Y-100504011D01*
X176124114Y-100504013D01*
X176080811Y-100539551D01*
X176045273Y-100582854D01*
X170681838Y-105946291D01*
X170638530Y-105981833D01*
X170496695Y-106154659D01*
X170425159Y-106288495D01*
X170391303Y-106351835D01*
X170326402Y-106565783D01*
X170304488Y-106788281D01*
X170309979Y-106844033D01*
X170309979Y-107923373D01*
X169955750Y-107926000D01*
X169797000Y-108084750D01*
X169797000Y-110109000D01*
X169817000Y-110109000D01*
X169817000Y-110363000D01*
X169797000Y-110363000D01*
X169797000Y-112387250D01*
X169955750Y-112546000D01*
X170309980Y-112548627D01*
X170309981Y-122263959D01*
X170304489Y-122319720D01*
X170326403Y-122542218D01*
X170391304Y-122756166D01*
X170391305Y-122756167D01*
X170496697Y-122953343D01*
X170638532Y-123126169D01*
X170681840Y-123161711D01*
X174076279Y-126556151D01*
X174111821Y-126599459D01*
X174284646Y-126741293D01*
X174284647Y-126741294D01*
X174481823Y-126846686D01*
X174695771Y-126911587D01*
X174918270Y-126933501D01*
X174974022Y-126928010D01*
X183483241Y-126928010D01*
X183538992Y-126933501D01*
X183594743Y-126928010D01*
X183594744Y-126928010D01*
X183761491Y-126911587D01*
X183975439Y-126846686D01*
X184172615Y-126741294D01*
X184345441Y-126599459D01*
X184380988Y-126556145D01*
X186866134Y-124071000D01*
X212889869Y-124071000D01*
X213557018Y-124738150D01*
X213592561Y-124781459D01*
X213765387Y-124923294D01*
X213908897Y-125000001D01*
X213962563Y-125028686D01*
X214176511Y-125093587D01*
X214399009Y-125115501D01*
X214454761Y-125110010D01*
X221409239Y-125110010D01*
X221464990Y-125115501D01*
X221520741Y-125110010D01*
X221520742Y-125110010D01*
X221687489Y-125093587D01*
X221901437Y-125028686D01*
X222098613Y-124923294D01*
X222271439Y-124781459D01*
X222306986Y-124738146D01*
X222974132Y-124071000D01*
X247848249Y-124071000D01*
X247904000Y-124076491D01*
X247959751Y-124071000D01*
X247959752Y-124071000D01*
X248126499Y-124054577D01*
X248340447Y-123989676D01*
X248537623Y-123884284D01*
X248710449Y-123742449D01*
X248720320Y-123730420D01*
X249640025Y-123730420D01*
X252730000Y-126820395D01*
X255819975Y-123730420D01*
X255363803Y-123158815D01*
X254563817Y-122718793D01*
X253693359Y-122443296D01*
X252785879Y-122342909D01*
X251876252Y-122421492D01*
X250999434Y-122676025D01*
X250189121Y-123096725D01*
X250096197Y-123158815D01*
X249640025Y-123730420D01*
X248720320Y-123730420D01*
X248745996Y-123699135D01*
X251207141Y-121237991D01*
X251250449Y-121202449D01*
X251392284Y-121029623D01*
X251497676Y-120832447D01*
X251562577Y-120618499D01*
X251579000Y-120451752D01*
X251579000Y-120451743D01*
X251584490Y-120396001D01*
X251579000Y-120340259D01*
X251579000Y-118961131D01*
X252223150Y-118316981D01*
X252266448Y-118281448D01*
X252301981Y-118238151D01*
X252301988Y-118238144D01*
X252309492Y-118229000D01*
X252844808Y-118229000D01*
X252876000Y-118232072D01*
X253084439Y-118232072D01*
X253109000Y-118234491D01*
X253133561Y-118232072D01*
X254106439Y-118232072D01*
X254131000Y-118234491D01*
X254155561Y-118232072D01*
X255386000Y-118232072D01*
X255510482Y-118219812D01*
X255630180Y-118183502D01*
X255740494Y-118124537D01*
X255837185Y-118045185D01*
X255916537Y-117948494D01*
X255975502Y-117838180D01*
X256011812Y-117718482D01*
X256024072Y-117594000D01*
X256024072Y-116594000D01*
X256011812Y-116469518D01*
X255975502Y-116349820D01*
X255916537Y-116239506D01*
X255837185Y-116142815D01*
X255740494Y-116063463D01*
X255630180Y-116004498D01*
X255510482Y-115968188D01*
X255386000Y-115955928D01*
X255134000Y-115955928D01*
X255134000Y-111585738D01*
X255386000Y-111585738D01*
X255510482Y-111573478D01*
X255630180Y-111537168D01*
X255740494Y-111478203D01*
X255837185Y-111398851D01*
X255916537Y-111302160D01*
X255975502Y-111191846D01*
X256011812Y-111072148D01*
X256024072Y-110947666D01*
X256024072Y-109947666D01*
X256011812Y-109823184D01*
X255975502Y-109703486D01*
X255916537Y-109593172D01*
X255837185Y-109496481D01*
X255740494Y-109417129D01*
X255630180Y-109358164D01*
X255510482Y-109321854D01*
X255386000Y-109309594D01*
X255134000Y-109309594D01*
X255134000Y-104939405D01*
X255386000Y-104939405D01*
X255510482Y-104927145D01*
X255630180Y-104890835D01*
X255740494Y-104831870D01*
X255837185Y-104752518D01*
X255916537Y-104655827D01*
X255975502Y-104545513D01*
X256011812Y-104425815D01*
X256024072Y-104301333D01*
X256024072Y-103301333D01*
X256011812Y-103176851D01*
X255975502Y-103057153D01*
X255916537Y-102946839D01*
X255837185Y-102850148D01*
X255740494Y-102770796D01*
X255630180Y-102711831D01*
X255510482Y-102675521D01*
X255386000Y-102663261D01*
X255134000Y-102663261D01*
X255134000Y-98293072D01*
X255386000Y-98293072D01*
X255510482Y-98280812D01*
X255630180Y-98244502D01*
X255740494Y-98185537D01*
X255837185Y-98106185D01*
X255916537Y-98009494D01*
X255975502Y-97899180D01*
X256011812Y-97779482D01*
X256024072Y-97655000D01*
X256024072Y-96655000D01*
X256011812Y-96530518D01*
X255975502Y-96410820D01*
X255916537Y-96300506D01*
X255837185Y-96203815D01*
X255740494Y-96124463D01*
X255630180Y-96065498D01*
X255510482Y-96029188D01*
X255386000Y-96016928D01*
X252876000Y-96016928D01*
X252751518Y-96029188D01*
X252631820Y-96065498D01*
X252521506Y-96124463D01*
X252424815Y-96203815D01*
X252345463Y-96300506D01*
X252286498Y-96410820D01*
X252250188Y-96530518D01*
X252237928Y-96655000D01*
X252237928Y-97655000D01*
X252250188Y-97779482D01*
X252286498Y-97899180D01*
X252345463Y-98009494D01*
X252424815Y-98106185D01*
X252521506Y-98185537D01*
X252631820Y-98244502D01*
X252751518Y-98280812D01*
X252864001Y-98291890D01*
X252864001Y-102664443D01*
X252751518Y-102675521D01*
X252631820Y-102711831D01*
X252521506Y-102770796D01*
X252424815Y-102850148D01*
X252345463Y-102946839D01*
X252286498Y-103057153D01*
X252250188Y-103176851D01*
X252237928Y-103301333D01*
X252237928Y-104301333D01*
X252250188Y-104425815D01*
X252286498Y-104545513D01*
X252345463Y-104655827D01*
X252424815Y-104752518D01*
X252521506Y-104831870D01*
X252631820Y-104890835D01*
X252751518Y-104927145D01*
X252864001Y-104938223D01*
X252864000Y-109310776D01*
X252751518Y-109321854D01*
X252631820Y-109358164D01*
X252521506Y-109417129D01*
X252424815Y-109496481D01*
X252345463Y-109593172D01*
X252286498Y-109703486D01*
X252250188Y-109823184D01*
X252237928Y-109947666D01*
X252237928Y-110947666D01*
X252250188Y-111072148D01*
X252286498Y-111191846D01*
X252345463Y-111302160D01*
X252424815Y-111398851D01*
X252521506Y-111478203D01*
X252631820Y-111537168D01*
X252751518Y-111573478D01*
X252864000Y-111584556D01*
X252864000Y-115733868D01*
X252638869Y-115959000D01*
X251134751Y-115959000D01*
X251079000Y-115953509D01*
X251023249Y-115959000D01*
X250499752Y-115959000D01*
X250444000Y-115953509D01*
X250388249Y-115959000D01*
X249991741Y-115959000D01*
X249935999Y-115953510D01*
X249880257Y-115959000D01*
X249009132Y-115959000D01*
X248403000Y-115352869D01*
X248403000Y-111585541D01*
X248525482Y-111573478D01*
X248645180Y-111537168D01*
X248755494Y-111478203D01*
X248852185Y-111398851D01*
X248931537Y-111302160D01*
X248990502Y-111191846D01*
X249026812Y-111072148D01*
X249039072Y-110947666D01*
X249039072Y-109947666D01*
X249026812Y-109823184D01*
X248990502Y-109703486D01*
X248931537Y-109593172D01*
X248852185Y-109496481D01*
X248755494Y-109417129D01*
X248645180Y-109358164D01*
X248525482Y-109321854D01*
X248403000Y-109309791D01*
X248403000Y-104939208D01*
X248525482Y-104927145D01*
X248645180Y-104890835D01*
X248755494Y-104831870D01*
X248852185Y-104752518D01*
X248931537Y-104655827D01*
X248990502Y-104545513D01*
X249026812Y-104425815D01*
X249039072Y-104301333D01*
X249039072Y-103301333D01*
X249026812Y-103176851D01*
X248990502Y-103057153D01*
X248931537Y-102946839D01*
X248852185Y-102850148D01*
X248755494Y-102770796D01*
X248645180Y-102711831D01*
X248525482Y-102675521D01*
X248403000Y-102663458D01*
X248403000Y-101096013D01*
X248927928Y-101094185D01*
X248927928Y-101761333D01*
X248940188Y-101885815D01*
X248976498Y-102005513D01*
X249035463Y-102115827D01*
X249114815Y-102212518D01*
X249211506Y-102291870D01*
X249321820Y-102350835D01*
X249441518Y-102387145D01*
X249564000Y-102399208D01*
X249564001Y-106769791D01*
X249441518Y-106781854D01*
X249321820Y-106818164D01*
X249211506Y-106877129D01*
X249114815Y-106956481D01*
X249035463Y-107053172D01*
X248976498Y-107163486D01*
X248940188Y-107283184D01*
X248927928Y-107407666D01*
X248927928Y-108407666D01*
X248940188Y-108532148D01*
X248976498Y-108651846D01*
X249035463Y-108762160D01*
X249114815Y-108858851D01*
X249211506Y-108938203D01*
X249321820Y-108997168D01*
X249441518Y-109033478D01*
X249564001Y-109045541D01*
X249564001Y-113416125D01*
X249441518Y-113428188D01*
X249321820Y-113464498D01*
X249211506Y-113523463D01*
X249114815Y-113602815D01*
X249035463Y-113699506D01*
X248976498Y-113809820D01*
X248940188Y-113929518D01*
X248927928Y-114054000D01*
X248927928Y-115054000D01*
X248940188Y-115178482D01*
X248976498Y-115298180D01*
X249035463Y-115408494D01*
X249114815Y-115505185D01*
X249211506Y-115584537D01*
X249321820Y-115643502D01*
X249441518Y-115679812D01*
X249566000Y-115692072D01*
X250801438Y-115692072D01*
X250825999Y-115694491D01*
X250850560Y-115692072D01*
X252076000Y-115692072D01*
X252200482Y-115679812D01*
X252320180Y-115643502D01*
X252430494Y-115584537D01*
X252527185Y-115505185D01*
X252606537Y-115408494D01*
X252665502Y-115298180D01*
X252701812Y-115178482D01*
X252714072Y-115054000D01*
X252714072Y-114054000D01*
X252701812Y-113929518D01*
X252665502Y-113809820D01*
X252606537Y-113699506D01*
X252527185Y-113602815D01*
X252430494Y-113523463D01*
X252320180Y-113464498D01*
X252200482Y-113428188D01*
X252076000Y-113415928D01*
X251834000Y-113415928D01*
X251834000Y-109045738D01*
X252076000Y-109045738D01*
X252200482Y-109033478D01*
X252320180Y-108997168D01*
X252430494Y-108938203D01*
X252527185Y-108858851D01*
X252606537Y-108762160D01*
X252665502Y-108651846D01*
X252701812Y-108532148D01*
X252714072Y-108407666D01*
X252714072Y-107407666D01*
X252701812Y-107283184D01*
X252665502Y-107163486D01*
X252606537Y-107053172D01*
X252527185Y-106956481D01*
X252430494Y-106877129D01*
X252320180Y-106818164D01*
X252200482Y-106781854D01*
X252076000Y-106769594D01*
X251834000Y-106769594D01*
X251834000Y-102399405D01*
X252076000Y-102399405D01*
X252200482Y-102387145D01*
X252320180Y-102350835D01*
X252430494Y-102291870D01*
X252527185Y-102212518D01*
X252606537Y-102115827D01*
X252665502Y-102005513D01*
X252701812Y-101885815D01*
X252714072Y-101761333D01*
X252714072Y-100761333D01*
X252701812Y-100636851D01*
X252665502Y-100517153D01*
X252606537Y-100406839D01*
X252527185Y-100310148D01*
X252430494Y-100230796D01*
X252320180Y-100171831D01*
X252200482Y-100135521D01*
X252076000Y-100123261D01*
X251956000Y-100123261D01*
X251956000Y-95753072D01*
X252076000Y-95753072D01*
X252200482Y-95740812D01*
X252320180Y-95704502D01*
X252430494Y-95645537D01*
X252527185Y-95566185D01*
X252606537Y-95469494D01*
X252665502Y-95359180D01*
X252701812Y-95239482D01*
X252714072Y-95115000D01*
X252714072Y-94115000D01*
X252701812Y-93990518D01*
X252665502Y-93870820D01*
X252606537Y-93760506D01*
X252527185Y-93663815D01*
X252430494Y-93584463D01*
X252320180Y-93525498D01*
X252200482Y-93489188D01*
X252076000Y-93476928D01*
X250845561Y-93476928D01*
X250821000Y-93474509D01*
X250796439Y-93476928D01*
X249658745Y-93476928D01*
X249642327Y-88190152D01*
X249659820Y-88199502D01*
X249779518Y-88235812D01*
X249904000Y-88248072D01*
X251618250Y-88245000D01*
X251777000Y-88086250D01*
X251777000Y-86487000D01*
X252031000Y-86487000D01*
X252031000Y-88086250D01*
X252189750Y-88245000D01*
X253904000Y-88248072D01*
X254028482Y-88235812D01*
X254148180Y-88199502D01*
X254258494Y-88140537D01*
X254355185Y-88061185D01*
X254434537Y-87964494D01*
X254493502Y-87854180D01*
X254529812Y-87734482D01*
X254542072Y-87610000D01*
X254539000Y-86645750D01*
X254380250Y-86487000D01*
X252031000Y-86487000D01*
X251777000Y-86487000D01*
X251757000Y-86487000D01*
X251757000Y-86233000D01*
X251777000Y-86233000D01*
X251777000Y-84633750D01*
X252031000Y-84633750D01*
X252031000Y-86233000D01*
X254380250Y-86233000D01*
X254539000Y-86074250D01*
X254542072Y-85110000D01*
X254529812Y-84985518D01*
X254493502Y-84865820D01*
X254434537Y-84755506D01*
X254355185Y-84658815D01*
X254258494Y-84579463D01*
X254148180Y-84520498D01*
X254028482Y-84484188D01*
X253904000Y-84471928D01*
X252189750Y-84475000D01*
X252031000Y-84633750D01*
X251777000Y-84633750D01*
X251618250Y-84475000D01*
X249904000Y-84471928D01*
X249779518Y-84484188D01*
X249659820Y-84520498D01*
X249630978Y-84535914D01*
X249605981Y-76486724D01*
X249659820Y-76515502D01*
X249779518Y-76551812D01*
X249904000Y-76564072D01*
X251618250Y-76561000D01*
X251777000Y-76402250D01*
X251777000Y-74803000D01*
X252031000Y-74803000D01*
X252031000Y-76402250D01*
X252189750Y-76561000D01*
X253904000Y-76564072D01*
X254028482Y-76551812D01*
X254148180Y-76515502D01*
X254258494Y-76456537D01*
X254355185Y-76377185D01*
X254434537Y-76280494D01*
X254493502Y-76170180D01*
X254529812Y-76050482D01*
X254542072Y-75926000D01*
X254539000Y-74961750D01*
X254380250Y-74803000D01*
X252031000Y-74803000D01*
X251777000Y-74803000D01*
X251757000Y-74803000D01*
X251757000Y-74549000D01*
X251777000Y-74549000D01*
X251777000Y-72949750D01*
X252031000Y-72949750D01*
X252031000Y-74549000D01*
X254380250Y-74549000D01*
X254539000Y-74390250D01*
X254542072Y-73426000D01*
X254529812Y-73301518D01*
X254493502Y-73181820D01*
X254434537Y-73071506D01*
X254355185Y-72974815D01*
X254258494Y-72895463D01*
X254148180Y-72836498D01*
X254028482Y-72800188D01*
X253904000Y-72787928D01*
X252189750Y-72791000D01*
X252031000Y-72949750D01*
X251777000Y-72949750D01*
X251618250Y-72791000D01*
X249904000Y-72787928D01*
X249779518Y-72800188D01*
X249659820Y-72836498D01*
X249594753Y-72871278D01*
X249569635Y-64783296D01*
X249659820Y-64831502D01*
X249779518Y-64867812D01*
X249904000Y-64880072D01*
X251618250Y-64877000D01*
X251777000Y-64718250D01*
X251777000Y-63119000D01*
X252031000Y-63119000D01*
X252031000Y-64718250D01*
X252189750Y-64877000D01*
X253904000Y-64880072D01*
X254028482Y-64867812D01*
X254148180Y-64831502D01*
X254258494Y-64772537D01*
X254355185Y-64693185D01*
X254434537Y-64596494D01*
X254493502Y-64486180D01*
X254529812Y-64366482D01*
X254542072Y-64242000D01*
X254539000Y-63277750D01*
X254380250Y-63119000D01*
X252031000Y-63119000D01*
X251777000Y-63119000D01*
X251757000Y-63119000D01*
X251757000Y-62865000D01*
X251777000Y-62865000D01*
X251777000Y-61265750D01*
X252031000Y-61265750D01*
X252031000Y-62865000D01*
X254380250Y-62865000D01*
X254539000Y-62706250D01*
X254542072Y-61742000D01*
X254529812Y-61617518D01*
X254493502Y-61497820D01*
X254434537Y-61387506D01*
X254355185Y-61290815D01*
X254258494Y-61211463D01*
X254148180Y-61152498D01*
X254028482Y-61116188D01*
X253904000Y-61103928D01*
X252189750Y-61107000D01*
X252031000Y-61265750D01*
X251777000Y-61265750D01*
X251618250Y-61107000D01*
X249904000Y-61103928D01*
X249779518Y-61116188D01*
X249659820Y-61152498D01*
X249558527Y-61206641D01*
X249524875Y-50370601D01*
X249526941Y-50372667D01*
X249640026Y-50259582D01*
X250096197Y-50831185D01*
X250896183Y-51271207D01*
X251766641Y-51546704D01*
X252674121Y-51647091D01*
X253583748Y-51568508D01*
X254460566Y-51313975D01*
X255270879Y-50893275D01*
X255363803Y-50831185D01*
X255819975Y-50259580D01*
X252730000Y-47169605D01*
X252715858Y-47183748D01*
X252536253Y-47004143D01*
X252550395Y-46990000D01*
X252909605Y-46990000D01*
X255999580Y-50079975D01*
X256571185Y-49623803D01*
X257011207Y-48823817D01*
X257286704Y-47953359D01*
X257387091Y-47045879D01*
X257308508Y-46136252D01*
X257053975Y-45259434D01*
X256633275Y-44449121D01*
X256571185Y-44356197D01*
X255999580Y-43900025D01*
X252909605Y-46990000D01*
X252550395Y-46990000D01*
X252536253Y-46975858D01*
X252715858Y-46796253D01*
X252730000Y-46810395D01*
X255819975Y-43720420D01*
X255363803Y-43148815D01*
X254563817Y-42708793D01*
X253693359Y-42433296D01*
X252785879Y-42332909D01*
X251876252Y-42411492D01*
X250999434Y-42666025D01*
X250189121Y-43086725D01*
X250096197Y-43148815D01*
X249640026Y-43720418D01*
X249526941Y-43607333D01*
X249503942Y-43630332D01*
X249492761Y-40030000D01*
X253974074Y-40030000D01*
X254889791Y-40102068D01*
X255757678Y-40310430D01*
X256582275Y-40651989D01*
X257343299Y-41118345D01*
X258021994Y-41698006D01*
X258601655Y-42376701D01*
X259068009Y-43137720D01*
X259409570Y-43962322D01*
X259617931Y-44830207D01*
X259690001Y-45745939D01*
X259690000Y-128244074D01*
X259617931Y-129159793D01*
X259409570Y-130027678D01*
X259068009Y-130852280D01*
X258601655Y-131613299D01*
X258021994Y-132291994D01*
X257343299Y-132871655D01*
X256582275Y-133338011D01*
X255757678Y-133679570D01*
X254889791Y-133887932D01*
X253974074Y-133960000D01*
X165125926Y-133960000D01*
X164210207Y-133887931D01*
X163342322Y-133679570D01*
X162517720Y-133338009D01*
X161756701Y-132871655D01*
X161078006Y-132291994D01*
X160498345Y-131613299D01*
X160031989Y-130852275D01*
X159790630Y-130269580D01*
X163280025Y-130269580D01*
X163736197Y-130841185D01*
X164536183Y-131281207D01*
X165406641Y-131556704D01*
X166314121Y-131657091D01*
X167223748Y-131578508D01*
X168100566Y-131323975D01*
X168910879Y-130903275D01*
X169003803Y-130841185D01*
X169459975Y-130269580D01*
X249640025Y-130269580D01*
X250096197Y-130841185D01*
X250896183Y-131281207D01*
X251766641Y-131556704D01*
X252674121Y-131657091D01*
X253583748Y-131578508D01*
X254460566Y-131323975D01*
X255270879Y-130903275D01*
X255363803Y-130841185D01*
X255819975Y-130269580D01*
X252730000Y-127179605D01*
X249640025Y-130269580D01*
X169459975Y-130269580D01*
X166370000Y-127179605D01*
X163280025Y-130269580D01*
X159790630Y-130269580D01*
X159690430Y-130027678D01*
X159482068Y-129159791D01*
X159410000Y-128244074D01*
X159410000Y-126944121D01*
X161712909Y-126944121D01*
X161791492Y-127853748D01*
X162046025Y-128730566D01*
X162466725Y-129540879D01*
X162528815Y-129633803D01*
X163100420Y-130089975D01*
X166190395Y-127000000D01*
X166549605Y-127000000D01*
X169639580Y-130089975D01*
X170211185Y-129633803D01*
X170651207Y-128833817D01*
X170926704Y-127963359D01*
X171027091Y-127055879D01*
X171017437Y-126944121D01*
X248072909Y-126944121D01*
X248151492Y-127853748D01*
X248406025Y-128730566D01*
X248826725Y-129540879D01*
X248888815Y-129633803D01*
X249460420Y-130089975D01*
X252550395Y-127000000D01*
X252909605Y-127000000D01*
X255999580Y-130089975D01*
X256571185Y-129633803D01*
X257011207Y-128833817D01*
X257286704Y-127963359D01*
X257387091Y-127055879D01*
X257308508Y-126146252D01*
X257053975Y-125269434D01*
X256633275Y-124459121D01*
X256571185Y-124366197D01*
X255999580Y-123910025D01*
X252909605Y-127000000D01*
X252550395Y-127000000D01*
X249460420Y-123910025D01*
X248888815Y-124366197D01*
X248448793Y-125166183D01*
X248173296Y-126036641D01*
X248072909Y-126944121D01*
X171017437Y-126944121D01*
X170948508Y-126146252D01*
X170693975Y-125269434D01*
X170273275Y-124459121D01*
X170211185Y-124366197D01*
X169639580Y-123910025D01*
X166549605Y-127000000D01*
X166190395Y-127000000D01*
X163100420Y-123910025D01*
X162528815Y-124366197D01*
X162088793Y-125166183D01*
X161813296Y-126036641D01*
X161712909Y-126944121D01*
X159410000Y-126944121D01*
X159410000Y-123730420D01*
X163280025Y-123730420D01*
X166370000Y-126820395D01*
X169459975Y-123730420D01*
X169003803Y-123158815D01*
X168203817Y-122718793D01*
X167333359Y-122443296D01*
X166425879Y-122342909D01*
X165516252Y-122421492D01*
X164639434Y-122676025D01*
X163829121Y-123096725D01*
X163736197Y-123158815D01*
X163280025Y-123730420D01*
X159410000Y-123730420D01*
X159410000Y-111911000D01*
X168331928Y-111911000D01*
X168344188Y-112035482D01*
X168380498Y-112155180D01*
X168439463Y-112265494D01*
X168518815Y-112362185D01*
X168615506Y-112441537D01*
X168725820Y-112500502D01*
X168845518Y-112536812D01*
X168970000Y-112549072D01*
X169384250Y-112546000D01*
X169543000Y-112387250D01*
X169543000Y-110363000D01*
X168493750Y-110363000D01*
X168335000Y-110521750D01*
X168331928Y-111911000D01*
X159410000Y-111911000D01*
X159410000Y-108561000D01*
X168331928Y-108561000D01*
X168335000Y-109950250D01*
X168493750Y-110109000D01*
X169543000Y-110109000D01*
X169543000Y-108084750D01*
X169384250Y-107926000D01*
X168970000Y-107922928D01*
X168845518Y-107935188D01*
X168725820Y-107971498D01*
X168615506Y-108030463D01*
X168518815Y-108109815D01*
X168439463Y-108206506D01*
X168380498Y-108316820D01*
X168344188Y-108436518D01*
X168331928Y-108561000D01*
X159410000Y-108561000D01*
X159410000Y-83646000D01*
X168840928Y-83646000D01*
X168853188Y-83770482D01*
X168889498Y-83890180D01*
X168948463Y-84000494D01*
X169027815Y-84097185D01*
X169124506Y-84176537D01*
X169234820Y-84235502D01*
X169354518Y-84271812D01*
X169479000Y-84284072D01*
X169855750Y-84281000D01*
X170014500Y-84122250D01*
X170014500Y-82423000D01*
X170268500Y-82423000D01*
X170268500Y-84122250D01*
X170427250Y-84281000D01*
X170804000Y-84284072D01*
X170928482Y-84271812D01*
X171048180Y-84235502D01*
X171158494Y-84176537D01*
X171255185Y-84097185D01*
X171334537Y-84000494D01*
X171393502Y-83890180D01*
X171429812Y-83770482D01*
X171442072Y-83646000D01*
X171439000Y-82581750D01*
X171280250Y-82423000D01*
X170268500Y-82423000D01*
X170014500Y-82423000D01*
X169002750Y-82423000D01*
X168844000Y-82581750D01*
X168840928Y-83646000D01*
X159410000Y-83646000D01*
X159410000Y-80946000D01*
X168840928Y-80946000D01*
X168844000Y-82010250D01*
X169002750Y-82169000D01*
X170014500Y-82169000D01*
X170014500Y-80469750D01*
X170268500Y-80469750D01*
X170268500Y-82169000D01*
X171280250Y-82169000D01*
X171439000Y-82010250D01*
X171442072Y-80946000D01*
X171429812Y-80821518D01*
X171393502Y-80701820D01*
X171334537Y-80591506D01*
X171255185Y-80494815D01*
X171158494Y-80415463D01*
X171048180Y-80356498D01*
X170928482Y-80320188D01*
X170804000Y-80307928D01*
X170427250Y-80311000D01*
X170268500Y-80469750D01*
X170014500Y-80469750D01*
X169855750Y-80311000D01*
X169479000Y-80307928D01*
X169354518Y-80320188D01*
X169234820Y-80356498D01*
X169124506Y-80415463D01*
X169027815Y-80494815D01*
X168948463Y-80591506D01*
X168889498Y-80701820D01*
X168853188Y-80821518D01*
X168840928Y-80946000D01*
X159410000Y-80946000D01*
X159410000Y-78624000D01*
X168879428Y-78624000D01*
X168891688Y-78748482D01*
X168927998Y-78868180D01*
X168986963Y-78978494D01*
X169066315Y-79075185D01*
X169163006Y-79154537D01*
X169273320Y-79213502D01*
X169393018Y-79249812D01*
X169517500Y-79262072D01*
X169894250Y-79259000D01*
X170053000Y-79100250D01*
X170053000Y-77851000D01*
X170307000Y-77851000D01*
X170307000Y-79100250D01*
X170465750Y-79259000D01*
X170842500Y-79262072D01*
X170966982Y-79249812D01*
X171086680Y-79213502D01*
X171196994Y-79154537D01*
X171293685Y-79075185D01*
X171373037Y-78978494D01*
X171432002Y-78868180D01*
X171468312Y-78748482D01*
X171480572Y-78624000D01*
X171477500Y-78009750D01*
X171318750Y-77851000D01*
X170307000Y-77851000D01*
X170053000Y-77851000D01*
X169041250Y-77851000D01*
X168882500Y-78009750D01*
X168879428Y-78624000D01*
X159410000Y-78624000D01*
X159410000Y-76824000D01*
X168879428Y-76824000D01*
X168882500Y-77438250D01*
X169041250Y-77597000D01*
X170053000Y-77597000D01*
X170053000Y-76347750D01*
X170307000Y-76347750D01*
X170307000Y-77597000D01*
X171318750Y-77597000D01*
X171477500Y-77438250D01*
X171480572Y-76824000D01*
X171468312Y-76699518D01*
X171432002Y-76579820D01*
X171373037Y-76469506D01*
X171293685Y-76372815D01*
X171196994Y-76293463D01*
X171086680Y-76234498D01*
X170966982Y-76198188D01*
X170842500Y-76185928D01*
X170465750Y-76189000D01*
X170307000Y-76347750D01*
X170053000Y-76347750D01*
X169894250Y-76189000D01*
X169517500Y-76185928D01*
X169393018Y-76198188D01*
X169273320Y-76234498D01*
X169163006Y-76293463D01*
X169066315Y-76372815D01*
X168986963Y-76469506D01*
X168927998Y-76579820D01*
X168891688Y-76699518D01*
X168879428Y-76824000D01*
X159410000Y-76824000D01*
X159410000Y-74560000D01*
X168840928Y-74560000D01*
X168853188Y-74684482D01*
X168889498Y-74804180D01*
X168948463Y-74914494D01*
X169027815Y-75011185D01*
X169124506Y-75090537D01*
X169234820Y-75149502D01*
X169354518Y-75185812D01*
X169479000Y-75198072D01*
X169855750Y-75195000D01*
X170014500Y-75036250D01*
X170014500Y-73787000D01*
X170268500Y-73787000D01*
X170268500Y-75036250D01*
X170427250Y-75195000D01*
X170804000Y-75198072D01*
X170928482Y-75185812D01*
X171048180Y-75149502D01*
X171158494Y-75090537D01*
X171255185Y-75011185D01*
X171334537Y-74914494D01*
X171393502Y-74804180D01*
X171429812Y-74684482D01*
X171442072Y-74560000D01*
X171439000Y-73945750D01*
X171280250Y-73787000D01*
X170268500Y-73787000D01*
X170014500Y-73787000D01*
X169002750Y-73787000D01*
X168844000Y-73945750D01*
X168840928Y-74560000D01*
X159410000Y-74560000D01*
X159410000Y-72760000D01*
X168840928Y-72760000D01*
X168844000Y-73374250D01*
X169002750Y-73533000D01*
X170014500Y-73533000D01*
X170014500Y-72283750D01*
X170268500Y-72283750D01*
X170268500Y-73533000D01*
X171280250Y-73533000D01*
X171439000Y-73374250D01*
X171442072Y-72760000D01*
X171429812Y-72635518D01*
X171393502Y-72515820D01*
X171334537Y-72405506D01*
X171255185Y-72308815D01*
X171158494Y-72229463D01*
X171048180Y-72170498D01*
X170928482Y-72134188D01*
X170804000Y-72121928D01*
X170427250Y-72125000D01*
X170268500Y-72283750D01*
X170014500Y-72283750D01*
X169855750Y-72125000D01*
X169479000Y-72121928D01*
X169354518Y-72134188D01*
X169234820Y-72170498D01*
X169124506Y-72229463D01*
X169027815Y-72308815D01*
X168948463Y-72405506D01*
X168889498Y-72515820D01*
X168853188Y-72635518D01*
X168840928Y-72760000D01*
X159410000Y-72760000D01*
X159410000Y-70496000D01*
X168879428Y-70496000D01*
X168891688Y-70620482D01*
X168927998Y-70740180D01*
X168986963Y-70850494D01*
X169066315Y-70947185D01*
X169163006Y-71026537D01*
X169273320Y-71085502D01*
X169393018Y-71121812D01*
X169517500Y-71134072D01*
X169894250Y-71131000D01*
X170053000Y-70972250D01*
X170053000Y-69723000D01*
X170307000Y-69723000D01*
X170307000Y-70972250D01*
X170465750Y-71131000D01*
X170842500Y-71134072D01*
X170966982Y-71121812D01*
X171086680Y-71085502D01*
X171196994Y-71026537D01*
X171293685Y-70947185D01*
X171373037Y-70850494D01*
X171432002Y-70740180D01*
X171468312Y-70620482D01*
X171480572Y-70496000D01*
X171477500Y-69881750D01*
X171318750Y-69723000D01*
X170307000Y-69723000D01*
X170053000Y-69723000D01*
X169041250Y-69723000D01*
X168882500Y-69881750D01*
X168879428Y-70496000D01*
X159410000Y-70496000D01*
X159410000Y-68696000D01*
X168879428Y-68696000D01*
X168882500Y-69310250D01*
X169041250Y-69469000D01*
X170053000Y-69469000D01*
X170053000Y-68219750D01*
X170307000Y-68219750D01*
X170307000Y-69469000D01*
X171318750Y-69469000D01*
X171477500Y-69310250D01*
X171480572Y-68696000D01*
X171468312Y-68571518D01*
X171432002Y-68451820D01*
X171373037Y-68341506D01*
X171293685Y-68244815D01*
X171196994Y-68165463D01*
X171086680Y-68106498D01*
X170966982Y-68070188D01*
X170842500Y-68057928D01*
X170465750Y-68061000D01*
X170307000Y-68219750D01*
X170053000Y-68219750D01*
X169894250Y-68061000D01*
X169517500Y-68057928D01*
X169393018Y-68070188D01*
X169273320Y-68106498D01*
X169163006Y-68165463D01*
X169066315Y-68244815D01*
X168986963Y-68341506D01*
X168927998Y-68451820D01*
X168891688Y-68571518D01*
X168879428Y-68696000D01*
X159410000Y-68696000D01*
X159410000Y-50259580D01*
X163280025Y-50259580D01*
X163736197Y-50831185D01*
X164536183Y-51271207D01*
X165406641Y-51546704D01*
X166314121Y-51647091D01*
X167223748Y-51568508D01*
X168100566Y-51313975D01*
X168910879Y-50893275D01*
X169003803Y-50831185D01*
X169459975Y-50259580D01*
X166370000Y-47169605D01*
X163280025Y-50259580D01*
X159410000Y-50259580D01*
X159410000Y-46934121D01*
X161712909Y-46934121D01*
X161791492Y-47843748D01*
X162046025Y-48720566D01*
X162466725Y-49530879D01*
X162528815Y-49623803D01*
X163100420Y-50079975D01*
X166190395Y-46990000D01*
X166549605Y-46990000D01*
X169639580Y-50079975D01*
X170211185Y-49623803D01*
X170651207Y-48823817D01*
X170926704Y-47953359D01*
X171027091Y-47045879D01*
X170948508Y-46136252D01*
X170693975Y-45259434D01*
X170273275Y-44449121D01*
X170211185Y-44356197D01*
X169639580Y-43900025D01*
X166549605Y-46990000D01*
X166190395Y-46990000D01*
X163100420Y-43900025D01*
X162528815Y-44356197D01*
X162088793Y-45156183D01*
X161813296Y-46026641D01*
X161712909Y-46934121D01*
X159410000Y-46934121D01*
X159410000Y-45745926D01*
X159482068Y-44830209D01*
X159690430Y-43962322D01*
X159790629Y-43720420D01*
X163280025Y-43720420D01*
X166370000Y-46810395D01*
X169459975Y-43720420D01*
X169003803Y-43148815D01*
X168203817Y-42708793D01*
X167333359Y-42433296D01*
X166425879Y-42332909D01*
X165516252Y-42411492D01*
X164639434Y-42666025D01*
X163829121Y-43086725D01*
X163736197Y-43148815D01*
X163280025Y-43720420D01*
X159790629Y-43720420D01*
X160031989Y-43137725D01*
X160498345Y-42376701D01*
X161078006Y-41698006D01*
X161756701Y-41118345D01*
X162517720Y-40651991D01*
X163342322Y-40310430D01*
X164210207Y-40102069D01*
X165125926Y-40030000D01*
X176404016Y-40030000D01*
X176433940Y-59460928D01*
G37*
%TD.AperFunction*%
D23*
X187329012Y-102401187D02*
X187327999Y-102402200D01*
X187299001Y-102425998D01*
X187275203Y-102454996D01*
X187275202Y-102454997D01*
X187204027Y-102541723D01*
X187133455Y-102673753D01*
X187121905Y-102711831D01*
X187110760Y-102748572D01*
X186344750Y-102751000D01*
X186186000Y-102909750D01*
X186186000Y-103759000D01*
X186206000Y-103759000D01*
X186206000Y-104013000D01*
X186186000Y-104013000D01*
X186186000Y-104862250D01*
X186300064Y-104976314D01*
X182286402Y-108989977D01*
X177650922Y-108989977D01*
X177613599Y-108986301D01*
X177576276Y-108989977D01*
X177576267Y-108989977D01*
X177464614Y-109000974D01*
X177321353Y-109044431D01*
X177189324Y-109115003D01*
X177106697Y-109182813D01*
X177108072Y-108561000D01*
X177095812Y-108436518D01*
X177059502Y-108316820D01*
X177000537Y-108206506D01*
X176921185Y-108109815D01*
X176824494Y-108030463D01*
X176714180Y-107971498D01*
X176594482Y-107935188D01*
X176470000Y-107922928D01*
X176055750Y-107926000D01*
X175897000Y-108084750D01*
X175897000Y-110109000D01*
X175917000Y-110109000D01*
X175917000Y-110363000D01*
X175897000Y-110363000D01*
X175897000Y-112387250D01*
X176055750Y-112546000D01*
X176470000Y-112549072D01*
X176532000Y-112542966D01*
X176532000Y-113477198D01*
X173480000Y-116529199D01*
X173480000Y-111911000D01*
X174431928Y-111911000D01*
X174444188Y-112035482D01*
X174480498Y-112155180D01*
X174539463Y-112265494D01*
X174618815Y-112362185D01*
X174715506Y-112441537D01*
X174825820Y-112500502D01*
X174945518Y-112536812D01*
X175070000Y-112549072D01*
X175484250Y-112546000D01*
X175643000Y-112387250D01*
X175643000Y-110363000D01*
X174593750Y-110363000D01*
X174435000Y-110521750D01*
X174431928Y-111911000D01*
X173480000Y-111911000D01*
X173480000Y-108561000D01*
X174431928Y-108561000D01*
X174435000Y-109950250D01*
X174593750Y-110109000D01*
X175643000Y-110109000D01*
X175643000Y-108084750D01*
X175484250Y-107926000D01*
X175070000Y-107922928D01*
X174945518Y-107935188D01*
X174825820Y-107971498D01*
X174715506Y-108030463D01*
X174618815Y-108109815D01*
X174539463Y-108206506D01*
X174480498Y-108316820D01*
X174444188Y-108436518D01*
X174431928Y-108561000D01*
X173480000Y-108561000D01*
X173480000Y-108010801D01*
X177104802Y-104386000D01*
X184165928Y-104386000D01*
X184178188Y-104510482D01*
X184214498Y-104630180D01*
X184273463Y-104740494D01*
X184352815Y-104837185D01*
X184449506Y-104916537D01*
X184559820Y-104975502D01*
X184679518Y-105011812D01*
X184804000Y-105024072D01*
X185773250Y-105021000D01*
X185932000Y-104862250D01*
X185932000Y-104013000D01*
X184327750Y-104013000D01*
X184169000Y-104171750D01*
X184165928Y-104386000D01*
X177104802Y-104386000D01*
X177606803Y-103884000D01*
X184270091Y-103884000D01*
X184307413Y-103887676D01*
X184344735Y-103884000D01*
X184344746Y-103884000D01*
X184456399Y-103873003D01*
X184599660Y-103829546D01*
X184731640Y-103759000D01*
X185932000Y-103759000D01*
X185932000Y-102909750D01*
X185773250Y-102751000D01*
X185755271Y-102750943D01*
X187197034Y-101309181D01*
X187329012Y-101308721D01*
X187329012Y-102401187D01*
%TA.AperFunction,Conductor*%
D24*
G36*
X187329012Y-102401187D02*
G01*
X187327999Y-102402200D01*
X187299001Y-102425998D01*
X187275203Y-102454996D01*
X187275202Y-102454997D01*
X187204027Y-102541723D01*
X187133455Y-102673753D01*
X187121905Y-102711831D01*
X187110760Y-102748572D01*
X186344750Y-102751000D01*
X186186000Y-102909750D01*
X186186000Y-103759000D01*
X186206000Y-103759000D01*
X186206000Y-104013000D01*
X186186000Y-104013000D01*
X186186000Y-104862250D01*
X186300064Y-104976314D01*
X182286402Y-108989977D01*
X177650922Y-108989977D01*
X177613599Y-108986301D01*
X177576276Y-108989977D01*
X177576267Y-108989977D01*
X177464614Y-109000974D01*
X177321353Y-109044431D01*
X177189324Y-109115003D01*
X177106697Y-109182813D01*
X177108072Y-108561000D01*
X177095812Y-108436518D01*
X177059502Y-108316820D01*
X177000537Y-108206506D01*
X176921185Y-108109815D01*
X176824494Y-108030463D01*
X176714180Y-107971498D01*
X176594482Y-107935188D01*
X176470000Y-107922928D01*
X176055750Y-107926000D01*
X175897000Y-108084750D01*
X175897000Y-110109000D01*
X175917000Y-110109000D01*
X175917000Y-110363000D01*
X175897000Y-110363000D01*
X175897000Y-112387250D01*
X176055750Y-112546000D01*
X176470000Y-112549072D01*
X176532000Y-112542966D01*
X176532000Y-113477198D01*
X173480000Y-116529199D01*
X173480000Y-111911000D01*
X174431928Y-111911000D01*
X174444188Y-112035482D01*
X174480498Y-112155180D01*
X174539463Y-112265494D01*
X174618815Y-112362185D01*
X174715506Y-112441537D01*
X174825820Y-112500502D01*
X174945518Y-112536812D01*
X175070000Y-112549072D01*
X175484250Y-112546000D01*
X175643000Y-112387250D01*
X175643000Y-110363000D01*
X174593750Y-110363000D01*
X174435000Y-110521750D01*
X174431928Y-111911000D01*
X173480000Y-111911000D01*
X173480000Y-108561000D01*
X174431928Y-108561000D01*
X174435000Y-109950250D01*
X174593750Y-110109000D01*
X175643000Y-110109000D01*
X175643000Y-108084750D01*
X175484250Y-107926000D01*
X175070000Y-107922928D01*
X174945518Y-107935188D01*
X174825820Y-107971498D01*
X174715506Y-108030463D01*
X174618815Y-108109815D01*
X174539463Y-108206506D01*
X174480498Y-108316820D01*
X174444188Y-108436518D01*
X174431928Y-108561000D01*
X173480000Y-108561000D01*
X173480000Y-108010801D01*
X177104802Y-104386000D01*
X184165928Y-104386000D01*
X184178188Y-104510482D01*
X184214498Y-104630180D01*
X184273463Y-104740494D01*
X184352815Y-104837185D01*
X184449506Y-104916537D01*
X184559820Y-104975502D01*
X184679518Y-105011812D01*
X184804000Y-105024072D01*
X185773250Y-105021000D01*
X185932000Y-104862250D01*
X185932000Y-104013000D01*
X184327750Y-104013000D01*
X184169000Y-104171750D01*
X184165928Y-104386000D01*
X177104802Y-104386000D01*
X177606803Y-103884000D01*
X184270091Y-103884000D01*
X184307413Y-103887676D01*
X184344735Y-103884000D01*
X184344746Y-103884000D01*
X184456399Y-103873003D01*
X184599660Y-103829546D01*
X184731640Y-103759000D01*
X185932000Y-103759000D01*
X185932000Y-102909750D01*
X185773250Y-102751000D01*
X185755271Y-102750943D01*
X187197034Y-101309181D01*
X187329012Y-101308721D01*
X187329012Y-102401187D01*
G37*
%TD.AperFunction*%
%TD*%
M02*
