%TF.GenerationSoftware,KiCad,Pcbnew,(5.1.10)-1*%
%TF.CreationDate,2021-09-14T14:35:24+02:00*%
%TF.ProjectId,BTS-MainBoard-Power,4254532d-4d61-4696-9e42-6f6172642d50,rev?*%
%TF.SameCoordinates,Original*%
%TF.FileFunction,Legend,Top*%
%TF.FilePolarity,Positive*%
%FSLAX46Y46*%
G04 Gerber Fmt 4.6, Leading zero omitted, Abs format (unit mm)*
G04 Created by KiCad (PCBNEW (5.1.10)-1) date 2021-09-14 14:35:24*
%MOMM*%
%LPD*%
G01*
G04 APERTURE LIST*
%ADD10C,0.350000*%
%ADD11C,0.120000*%
%ADD12C,0.150000*%
%ADD13C,0.400000*%
%ADD14C,0.250000*%
%ADD15C,0.100000*%
%ADD16C,0.010000*%
G04 APERTURE END LIST*
D10*
X174625000Y-126365000D02*
X201295000Y-126365000D01*
X174625000Y-132715000D02*
X201295000Y-132715000D01*
D11*
X162560000Y-107315000D02*
X170180000Y-107315000D01*
X162560000Y-66675000D02*
X170180000Y-66675000D01*
X161290000Y-67945000D02*
G75*
G02*
X162560000Y-66675000I1270000J0D01*
G01*
X162560000Y-107315000D02*
G75*
G02*
X161290000Y-106045000I0J1270000D01*
G01*
D12*
X164203571Y-98796666D02*
X164251190Y-98653809D01*
X164298809Y-98606190D01*
X164394047Y-98558571D01*
X164536904Y-98558571D01*
X164632142Y-98606190D01*
X164679761Y-98653809D01*
X164727380Y-98749047D01*
X164727380Y-99130000D01*
X163727380Y-99130000D01*
X163727380Y-98796666D01*
X163775000Y-98701428D01*
X163822619Y-98653809D01*
X163917857Y-98606190D01*
X164013095Y-98606190D01*
X164108333Y-98653809D01*
X164155952Y-98701428D01*
X164203571Y-98796666D01*
X164203571Y-99130000D01*
X163727380Y-98272857D02*
X163727380Y-97701428D01*
X164727380Y-97987142D02*
X163727380Y-97987142D01*
X164679761Y-97415714D02*
X164727380Y-97272857D01*
X164727380Y-97034761D01*
X164679761Y-96939523D01*
X164632142Y-96891904D01*
X164536904Y-96844285D01*
X164441666Y-96844285D01*
X164346428Y-96891904D01*
X164298809Y-96939523D01*
X164251190Y-97034761D01*
X164203571Y-97225238D01*
X164155952Y-97320476D01*
X164108333Y-97368095D01*
X164013095Y-97415714D01*
X163917857Y-97415714D01*
X163822619Y-97368095D01*
X163775000Y-97320476D01*
X163727380Y-97225238D01*
X163727380Y-96987142D01*
X163775000Y-96844285D01*
X164346428Y-96415714D02*
X164346428Y-95653809D01*
X164727380Y-95177619D02*
X163727380Y-95177619D01*
X164441666Y-94844285D01*
X163727380Y-94510952D01*
X164727380Y-94510952D01*
X164727380Y-93606190D02*
X164203571Y-93606190D01*
X164108333Y-93653809D01*
X164060714Y-93749047D01*
X164060714Y-93939523D01*
X164108333Y-94034761D01*
X164679761Y-93606190D02*
X164727380Y-93701428D01*
X164727380Y-93939523D01*
X164679761Y-94034761D01*
X164584523Y-94082380D01*
X164489285Y-94082380D01*
X164394047Y-94034761D01*
X164346428Y-93939523D01*
X164346428Y-93701428D01*
X164298809Y-93606190D01*
X164727380Y-93130000D02*
X164060714Y-93130000D01*
X163727380Y-93130000D02*
X163775000Y-93177619D01*
X163822619Y-93130000D01*
X163775000Y-93082380D01*
X163727380Y-93130000D01*
X163822619Y-93130000D01*
X164060714Y-92653809D02*
X164727380Y-92653809D01*
X164155952Y-92653809D02*
X164108333Y-92606190D01*
X164060714Y-92510952D01*
X164060714Y-92368095D01*
X164108333Y-92272857D01*
X164203571Y-92225238D01*
X164727380Y-92225238D01*
X164727380Y-91749047D02*
X163727380Y-91749047D01*
X163727380Y-91368095D01*
X163775000Y-91272857D01*
X163822619Y-91225238D01*
X163917857Y-91177619D01*
X164060714Y-91177619D01*
X164155952Y-91225238D01*
X164203571Y-91272857D01*
X164251190Y-91368095D01*
X164251190Y-91749047D01*
X164727380Y-90606190D02*
X164679761Y-90701428D01*
X164632142Y-90749047D01*
X164536904Y-90796666D01*
X164251190Y-90796666D01*
X164155952Y-90749047D01*
X164108333Y-90701428D01*
X164060714Y-90606190D01*
X164060714Y-90463333D01*
X164108333Y-90368095D01*
X164155952Y-90320476D01*
X164251190Y-90272857D01*
X164536904Y-90272857D01*
X164632142Y-90320476D01*
X164679761Y-90368095D01*
X164727380Y-90463333D01*
X164727380Y-90606190D01*
X164060714Y-89939523D02*
X164727380Y-89749047D01*
X164251190Y-89558571D01*
X164727380Y-89368095D01*
X164060714Y-89177619D01*
X164679761Y-88415714D02*
X164727380Y-88510952D01*
X164727380Y-88701428D01*
X164679761Y-88796666D01*
X164584523Y-88844285D01*
X164203571Y-88844285D01*
X164108333Y-88796666D01*
X164060714Y-88701428D01*
X164060714Y-88510952D01*
X164108333Y-88415714D01*
X164203571Y-88368095D01*
X164298809Y-88368095D01*
X164394047Y-88844285D01*
X164727380Y-87939523D02*
X164060714Y-87939523D01*
X164251190Y-87939523D02*
X164155952Y-87891904D01*
X164108333Y-87844285D01*
X164060714Y-87749047D01*
X164060714Y-87653809D01*
X164346428Y-87320476D02*
X164346428Y-86558571D01*
X164632142Y-85510952D02*
X164679761Y-85558571D01*
X164727380Y-85701428D01*
X164727380Y-85796666D01*
X164679761Y-85939523D01*
X164584523Y-86034761D01*
X164489285Y-86082380D01*
X164298809Y-86130000D01*
X164155952Y-86130000D01*
X163965476Y-86082380D01*
X163870238Y-86034761D01*
X163775000Y-85939523D01*
X163727380Y-85796666D01*
X163727380Y-85701428D01*
X163775000Y-85558571D01*
X163822619Y-85510952D01*
X164727380Y-84939523D02*
X164679761Y-85034761D01*
X164632142Y-85082380D01*
X164536904Y-85130000D01*
X164251190Y-85130000D01*
X164155952Y-85082380D01*
X164108333Y-85034761D01*
X164060714Y-84939523D01*
X164060714Y-84796666D01*
X164108333Y-84701428D01*
X164155952Y-84653809D01*
X164251190Y-84606190D01*
X164536904Y-84606190D01*
X164632142Y-84653809D01*
X164679761Y-84701428D01*
X164727380Y-84796666D01*
X164727380Y-84939523D01*
X164060714Y-84177619D02*
X164727380Y-84177619D01*
X164155952Y-84177619D02*
X164108333Y-84130000D01*
X164060714Y-84034761D01*
X164060714Y-83891904D01*
X164108333Y-83796666D01*
X164203571Y-83749047D01*
X164727380Y-83749047D01*
X164060714Y-83415714D02*
X164060714Y-83034761D01*
X163727380Y-83272857D02*
X164584523Y-83272857D01*
X164679761Y-83225238D01*
X164727380Y-83130000D01*
X164727380Y-83034761D01*
X164727380Y-82701428D02*
X164060714Y-82701428D01*
X164251190Y-82701428D02*
X164155952Y-82653809D01*
X164108333Y-82606190D01*
X164060714Y-82510952D01*
X164060714Y-82415714D01*
X164727380Y-81939523D02*
X164679761Y-82034761D01*
X164632142Y-82082380D01*
X164536904Y-82130000D01*
X164251190Y-82130000D01*
X164155952Y-82082380D01*
X164108333Y-82034761D01*
X164060714Y-81939523D01*
X164060714Y-81796666D01*
X164108333Y-81701428D01*
X164155952Y-81653809D01*
X164251190Y-81606190D01*
X164536904Y-81606190D01*
X164632142Y-81653809D01*
X164679761Y-81701428D01*
X164727380Y-81796666D01*
X164727380Y-81939523D01*
X164727380Y-81034761D02*
X164679761Y-81130000D01*
X164584523Y-81177619D01*
X163727380Y-81177619D01*
X164727380Y-79891904D02*
X163727380Y-79891904D01*
X164108333Y-79891904D02*
X164060714Y-79796666D01*
X164060714Y-79606190D01*
X164108333Y-79510952D01*
X164155952Y-79463333D01*
X164251190Y-79415714D01*
X164536904Y-79415714D01*
X164632142Y-79463333D01*
X164679761Y-79510952D01*
X164727380Y-79606190D01*
X164727380Y-79796666D01*
X164679761Y-79891904D01*
X164727380Y-78844285D02*
X164679761Y-78939523D01*
X164632142Y-78987142D01*
X164536904Y-79034761D01*
X164251190Y-79034761D01*
X164155952Y-78987142D01*
X164108333Y-78939523D01*
X164060714Y-78844285D01*
X164060714Y-78701428D01*
X164108333Y-78606190D01*
X164155952Y-78558571D01*
X164251190Y-78510952D01*
X164536904Y-78510952D01*
X164632142Y-78558571D01*
X164679761Y-78606190D01*
X164727380Y-78701428D01*
X164727380Y-78844285D01*
X164727380Y-77653809D02*
X164203571Y-77653809D01*
X164108333Y-77701428D01*
X164060714Y-77796666D01*
X164060714Y-77987142D01*
X164108333Y-78082380D01*
X164679761Y-77653809D02*
X164727380Y-77749047D01*
X164727380Y-77987142D01*
X164679761Y-78082380D01*
X164584523Y-78130000D01*
X164489285Y-78130000D01*
X164394047Y-78082380D01*
X164346428Y-77987142D01*
X164346428Y-77749047D01*
X164298809Y-77653809D01*
X164727380Y-77177619D02*
X164060714Y-77177619D01*
X164251190Y-77177619D02*
X164155952Y-77130000D01*
X164108333Y-77082380D01*
X164060714Y-76987142D01*
X164060714Y-76891904D01*
X164727380Y-76130000D02*
X163727380Y-76130000D01*
X164679761Y-76130000D02*
X164727380Y-76225238D01*
X164727380Y-76415714D01*
X164679761Y-76510952D01*
X164632142Y-76558571D01*
X164536904Y-76606190D01*
X164251190Y-76606190D01*
X164155952Y-76558571D01*
X164108333Y-76510952D01*
X164060714Y-76415714D01*
X164060714Y-76225238D01*
X164108333Y-76130000D01*
X165710714Y-98177619D02*
X166520238Y-98177619D01*
X166615476Y-98225238D01*
X166663095Y-98272857D01*
X166710714Y-98368095D01*
X166710714Y-98510952D01*
X166663095Y-98606190D01*
X166329761Y-98177619D02*
X166377380Y-98272857D01*
X166377380Y-98463333D01*
X166329761Y-98558571D01*
X166282142Y-98606190D01*
X166186904Y-98653809D01*
X165901190Y-98653809D01*
X165805952Y-98606190D01*
X165758333Y-98558571D01*
X165710714Y-98463333D01*
X165710714Y-98272857D01*
X165758333Y-98177619D01*
X166377380Y-97558571D02*
X166329761Y-97653809D01*
X166282142Y-97701428D01*
X166186904Y-97749047D01*
X165901190Y-97749047D01*
X165805952Y-97701428D01*
X165758333Y-97653809D01*
X165710714Y-97558571D01*
X165710714Y-97415714D01*
X165758333Y-97320476D01*
X165805952Y-97272857D01*
X165901190Y-97225238D01*
X166186904Y-97225238D01*
X166282142Y-97272857D01*
X166329761Y-97320476D01*
X166377380Y-97415714D01*
X166377380Y-97558571D01*
X166329761Y-96415714D02*
X166377380Y-96510952D01*
X166377380Y-96701428D01*
X166329761Y-96796666D01*
X166234523Y-96844285D01*
X165853571Y-96844285D01*
X165758333Y-96796666D01*
X165710714Y-96701428D01*
X165710714Y-96510952D01*
X165758333Y-96415714D01*
X165853571Y-96368095D01*
X165948809Y-96368095D01*
X166044047Y-96844285D01*
X166329761Y-95987142D02*
X166377380Y-95891904D01*
X166377380Y-95701428D01*
X166329761Y-95606190D01*
X166234523Y-95558571D01*
X166186904Y-95558571D01*
X166091666Y-95606190D01*
X166044047Y-95701428D01*
X166044047Y-95844285D01*
X165996428Y-95939523D01*
X165901190Y-95987142D01*
X165853571Y-95987142D01*
X165758333Y-95939523D01*
X165710714Y-95844285D01*
X165710714Y-95701428D01*
X165758333Y-95606190D01*
X166377380Y-94368095D02*
X165377380Y-94368095D01*
X166377380Y-93939523D02*
X165853571Y-93939523D01*
X165758333Y-93987142D01*
X165710714Y-94082380D01*
X165710714Y-94225238D01*
X165758333Y-94320476D01*
X165805952Y-94368095D01*
X166329761Y-93082380D02*
X166377380Y-93177619D01*
X166377380Y-93368095D01*
X166329761Y-93463333D01*
X166234523Y-93510952D01*
X165853571Y-93510952D01*
X165758333Y-93463333D01*
X165710714Y-93368095D01*
X165710714Y-93177619D01*
X165758333Y-93082380D01*
X165853571Y-93034761D01*
X165948809Y-93034761D01*
X166044047Y-93510952D01*
X166377380Y-92606190D02*
X165710714Y-92606190D01*
X165901190Y-92606190D02*
X165805952Y-92558571D01*
X165758333Y-92510952D01*
X165710714Y-92415714D01*
X165710714Y-92320476D01*
X166329761Y-91606190D02*
X166377380Y-91701428D01*
X166377380Y-91891904D01*
X166329761Y-91987142D01*
X166234523Y-92034761D01*
X165853571Y-92034761D01*
X165758333Y-91987142D01*
X165710714Y-91891904D01*
X165710714Y-91701428D01*
X165758333Y-91606190D01*
X165853571Y-91558571D01*
X165948809Y-91558571D01*
X166044047Y-92034761D01*
X166758333Y-90082380D02*
X166710714Y-90130000D01*
X166567857Y-90225238D01*
X166472619Y-90272857D01*
X166329761Y-90320476D01*
X166091666Y-90368095D01*
X165901190Y-90368095D01*
X165663095Y-90320476D01*
X165520238Y-90272857D01*
X165425000Y-90225238D01*
X165282142Y-90130000D01*
X165234523Y-90082380D01*
X166377380Y-89701428D02*
X165710714Y-89701428D01*
X165805952Y-89701428D02*
X165758333Y-89653809D01*
X165710714Y-89558571D01*
X165710714Y-89415714D01*
X165758333Y-89320476D01*
X165853571Y-89272857D01*
X166377380Y-89272857D01*
X165853571Y-89272857D02*
X165758333Y-89225238D01*
X165710714Y-89130000D01*
X165710714Y-88987142D01*
X165758333Y-88891904D01*
X165853571Y-88844285D01*
X166377380Y-88844285D01*
X166329761Y-87987142D02*
X166377380Y-88082380D01*
X166377380Y-88272857D01*
X166329761Y-88368095D01*
X166234523Y-88415714D01*
X165853571Y-88415714D01*
X165758333Y-88368095D01*
X165710714Y-88272857D01*
X165710714Y-88082380D01*
X165758333Y-87987142D01*
X165853571Y-87939523D01*
X165948809Y-87939523D01*
X166044047Y-88415714D01*
X165710714Y-87606190D02*
X165710714Y-87082380D01*
X166377380Y-87606190D01*
X166377380Y-87082380D01*
X165710714Y-86796666D02*
X165710714Y-86272857D01*
X166377380Y-86796666D01*
X166377380Y-86272857D01*
X166377380Y-85463333D02*
X165853571Y-85463333D01*
X165758333Y-85510952D01*
X165710714Y-85606190D01*
X165710714Y-85796666D01*
X165758333Y-85891904D01*
X166329761Y-85463333D02*
X166377380Y-85558571D01*
X166377380Y-85796666D01*
X166329761Y-85891904D01*
X166234523Y-85939523D01*
X166139285Y-85939523D01*
X166044047Y-85891904D01*
X165996428Y-85796666D01*
X165996428Y-85558571D01*
X165948809Y-85463333D01*
X165710714Y-84987142D02*
X166377380Y-84987142D01*
X165805952Y-84987142D02*
X165758333Y-84939523D01*
X165710714Y-84844285D01*
X165710714Y-84701428D01*
X165758333Y-84606190D01*
X165853571Y-84558571D01*
X166377380Y-84558571D01*
X166377380Y-84082380D02*
X165710714Y-84082380D01*
X165377380Y-84082380D02*
X165425000Y-84130000D01*
X165472619Y-84082380D01*
X165425000Y-84034761D01*
X165377380Y-84082380D01*
X165472619Y-84082380D01*
X165710714Y-83606190D02*
X166377380Y-83606190D01*
X165805952Y-83606190D02*
X165758333Y-83558571D01*
X165710714Y-83463333D01*
X165710714Y-83320476D01*
X165758333Y-83225238D01*
X165853571Y-83177619D01*
X166377380Y-83177619D01*
X166329761Y-82320476D02*
X166377380Y-82415714D01*
X166377380Y-82606190D01*
X166329761Y-82701428D01*
X166234523Y-82749047D01*
X165853571Y-82749047D01*
X165758333Y-82701428D01*
X165710714Y-82606190D01*
X165710714Y-82415714D01*
X165758333Y-82320476D01*
X165853571Y-82272857D01*
X165948809Y-82272857D01*
X166044047Y-82749047D01*
X166377380Y-81082380D02*
X165377380Y-81082380D01*
X165758333Y-81082380D02*
X165710714Y-80987142D01*
X165710714Y-80796666D01*
X165758333Y-80701428D01*
X165805952Y-80653809D01*
X165901190Y-80606190D01*
X166186904Y-80606190D01*
X166282142Y-80653809D01*
X166329761Y-80701428D01*
X166377380Y-80796666D01*
X166377380Y-80987142D01*
X166329761Y-81082380D01*
X166377380Y-80034761D02*
X166329761Y-80130000D01*
X166282142Y-80177619D01*
X166186904Y-80225238D01*
X165901190Y-80225238D01*
X165805952Y-80177619D01*
X165758333Y-80130000D01*
X165710714Y-80034761D01*
X165710714Y-79891904D01*
X165758333Y-79796666D01*
X165805952Y-79749047D01*
X165901190Y-79701428D01*
X166186904Y-79701428D01*
X166282142Y-79749047D01*
X166329761Y-79796666D01*
X166377380Y-79891904D01*
X166377380Y-80034761D01*
X166377380Y-78844285D02*
X165853571Y-78844285D01*
X165758333Y-78891904D01*
X165710714Y-78987142D01*
X165710714Y-79177619D01*
X165758333Y-79272857D01*
X166329761Y-78844285D02*
X166377380Y-78939523D01*
X166377380Y-79177619D01*
X166329761Y-79272857D01*
X166234523Y-79320476D01*
X166139285Y-79320476D01*
X166044047Y-79272857D01*
X165996428Y-79177619D01*
X165996428Y-78939523D01*
X165948809Y-78844285D01*
X166377380Y-78368095D02*
X165710714Y-78368095D01*
X165901190Y-78368095D02*
X165805952Y-78320476D01*
X165758333Y-78272857D01*
X165710714Y-78177619D01*
X165710714Y-78082380D01*
X166377380Y-77320476D02*
X165377380Y-77320476D01*
X166329761Y-77320476D02*
X166377380Y-77415714D01*
X166377380Y-77606190D01*
X166329761Y-77701428D01*
X166282142Y-77749047D01*
X166186904Y-77796666D01*
X165901190Y-77796666D01*
X165805952Y-77749047D01*
X165758333Y-77701428D01*
X165710714Y-77606190D01*
X165710714Y-77415714D01*
X165758333Y-77320476D01*
X166758333Y-76939523D02*
X166710714Y-76891904D01*
X166567857Y-76796666D01*
X166472619Y-76749047D01*
X166329761Y-76701428D01*
X166091666Y-76653809D01*
X165901190Y-76653809D01*
X165663095Y-76701428D01*
X165520238Y-76749047D01*
X165425000Y-76796666D01*
X165282142Y-76891904D01*
X165234523Y-76939523D01*
D11*
X161290000Y-106045000D02*
X161290000Y-67945000D01*
X226124821Y-60972700D02*
G75*
G03*
X226124821Y-60972700I-610921J0D01*
G01*
D12*
X225890080Y-67019085D02*
X224890080Y-67019085D01*
X224890080Y-66638133D01*
X224937700Y-66542895D01*
X224985319Y-66495276D01*
X225080557Y-66447657D01*
X225223414Y-66447657D01*
X225318652Y-66495276D01*
X225366271Y-66542895D01*
X225413890Y-66638133D01*
X225413890Y-67019085D01*
X225842461Y-65638133D02*
X225890080Y-65733371D01*
X225890080Y-65923847D01*
X225842461Y-66019085D01*
X225747223Y-66066704D01*
X225366271Y-66066704D01*
X225271033Y-66019085D01*
X225223414Y-65923847D01*
X225223414Y-65733371D01*
X225271033Y-65638133D01*
X225366271Y-65590514D01*
X225461509Y-65590514D01*
X225556747Y-66066704D01*
X225890080Y-65019085D02*
X225842461Y-65114323D01*
X225747223Y-65161942D01*
X224890080Y-65161942D01*
X225223414Y-64780990D02*
X225223414Y-64400038D01*
X224890080Y-64638133D02*
X225747223Y-64638133D01*
X225842461Y-64590514D01*
X225890080Y-64495276D01*
X225890080Y-64400038D01*
X225890080Y-64066704D02*
X225223414Y-64066704D01*
X224890080Y-64066704D02*
X224937700Y-64114323D01*
X224985319Y-64066704D01*
X224937700Y-64019085D01*
X224890080Y-64066704D01*
X224985319Y-64066704D01*
X225842461Y-63209561D02*
X225890080Y-63304800D01*
X225890080Y-63495276D01*
X225842461Y-63590514D01*
X225747223Y-63638133D01*
X225366271Y-63638133D01*
X225271033Y-63590514D01*
X225223414Y-63495276D01*
X225223414Y-63304800D01*
X225271033Y-63209561D01*
X225366271Y-63161942D01*
X225461509Y-63161942D01*
X225556747Y-63638133D01*
X225890080Y-62733371D02*
X225223414Y-62733371D01*
X225413890Y-62733371D02*
X225318652Y-62685752D01*
X225271033Y-62638133D01*
X225223414Y-62542895D01*
X225223414Y-62447657D01*
X225509128Y-61352419D02*
X225509128Y-60590514D01*
X225890080Y-60971466D02*
X225128176Y-60971466D01*
D11*
X226124821Y-73672700D02*
G75*
G03*
X226124821Y-73672700I-610921J0D01*
G01*
D12*
X225890080Y-79719085D02*
X224890080Y-79719085D01*
X224890080Y-79338133D01*
X224937700Y-79242895D01*
X224985319Y-79195276D01*
X225080557Y-79147657D01*
X225223414Y-79147657D01*
X225318652Y-79195276D01*
X225366271Y-79242895D01*
X225413890Y-79338133D01*
X225413890Y-79719085D01*
X225842461Y-78338133D02*
X225890080Y-78433371D01*
X225890080Y-78623847D01*
X225842461Y-78719085D01*
X225747223Y-78766704D01*
X225366271Y-78766704D01*
X225271033Y-78719085D01*
X225223414Y-78623847D01*
X225223414Y-78433371D01*
X225271033Y-78338133D01*
X225366271Y-78290514D01*
X225461509Y-78290514D01*
X225556747Y-78766704D01*
X225890080Y-77719085D02*
X225842461Y-77814323D01*
X225747223Y-77861942D01*
X224890080Y-77861942D01*
X225223414Y-77480990D02*
X225223414Y-77100038D01*
X224890080Y-77338133D02*
X225747223Y-77338133D01*
X225842461Y-77290514D01*
X225890080Y-77195276D01*
X225890080Y-77100038D01*
X225890080Y-76766704D02*
X225223414Y-76766704D01*
X224890080Y-76766704D02*
X224937700Y-76814323D01*
X224985319Y-76766704D01*
X224937700Y-76719085D01*
X224890080Y-76766704D01*
X224985319Y-76766704D01*
X225842461Y-75909561D02*
X225890080Y-76004800D01*
X225890080Y-76195276D01*
X225842461Y-76290514D01*
X225747223Y-76338133D01*
X225366271Y-76338133D01*
X225271033Y-76290514D01*
X225223414Y-76195276D01*
X225223414Y-76004800D01*
X225271033Y-75909561D01*
X225366271Y-75861942D01*
X225461509Y-75861942D01*
X225556747Y-76338133D01*
X225890080Y-75433371D02*
X225223414Y-75433371D01*
X225413890Y-75433371D02*
X225318652Y-75385752D01*
X225271033Y-75338133D01*
X225223414Y-75242895D01*
X225223414Y-75147657D01*
X225509128Y-74052419D02*
X225509128Y-73290514D01*
X225890080Y-73671466D02*
X225128176Y-73671466D01*
D11*
X226124821Y-88912700D02*
G75*
G03*
X226124821Y-88912700I-610921J0D01*
G01*
D12*
X225890080Y-94959085D02*
X224890080Y-94959085D01*
X224890080Y-94578133D01*
X224937700Y-94482895D01*
X224985319Y-94435276D01*
X225080557Y-94387657D01*
X225223414Y-94387657D01*
X225318652Y-94435276D01*
X225366271Y-94482895D01*
X225413890Y-94578133D01*
X225413890Y-94959085D01*
X225842461Y-93578133D02*
X225890080Y-93673371D01*
X225890080Y-93863847D01*
X225842461Y-93959085D01*
X225747223Y-94006704D01*
X225366271Y-94006704D01*
X225271033Y-93959085D01*
X225223414Y-93863847D01*
X225223414Y-93673371D01*
X225271033Y-93578133D01*
X225366271Y-93530514D01*
X225461509Y-93530514D01*
X225556747Y-94006704D01*
X225890080Y-92959085D02*
X225842461Y-93054323D01*
X225747223Y-93101942D01*
X224890080Y-93101942D01*
X225223414Y-92720990D02*
X225223414Y-92340038D01*
X224890080Y-92578133D02*
X225747223Y-92578133D01*
X225842461Y-92530514D01*
X225890080Y-92435276D01*
X225890080Y-92340038D01*
X225890080Y-92006704D02*
X225223414Y-92006704D01*
X224890080Y-92006704D02*
X224937700Y-92054323D01*
X224985319Y-92006704D01*
X224937700Y-91959085D01*
X224890080Y-92006704D01*
X224985319Y-92006704D01*
X225842461Y-91149561D02*
X225890080Y-91244800D01*
X225890080Y-91435276D01*
X225842461Y-91530514D01*
X225747223Y-91578133D01*
X225366271Y-91578133D01*
X225271033Y-91530514D01*
X225223414Y-91435276D01*
X225223414Y-91244800D01*
X225271033Y-91149561D01*
X225366271Y-91101942D01*
X225461509Y-91101942D01*
X225556747Y-91578133D01*
X225890080Y-90673371D02*
X225223414Y-90673371D01*
X225413890Y-90673371D02*
X225318652Y-90625752D01*
X225271033Y-90578133D01*
X225223414Y-90482895D01*
X225223414Y-90387657D01*
X225509128Y-89292419D02*
X225509128Y-88530514D01*
X225890080Y-88911466D02*
X225128176Y-88911466D01*
D11*
X226124821Y-104787700D02*
G75*
G03*
X226124821Y-104787700I-610921J0D01*
G01*
D12*
X225890080Y-110834085D02*
X224890080Y-110834085D01*
X224890080Y-110453133D01*
X224937700Y-110357895D01*
X224985319Y-110310276D01*
X225080557Y-110262657D01*
X225223414Y-110262657D01*
X225318652Y-110310276D01*
X225366271Y-110357895D01*
X225413890Y-110453133D01*
X225413890Y-110834085D01*
X225842461Y-109453133D02*
X225890080Y-109548371D01*
X225890080Y-109738847D01*
X225842461Y-109834085D01*
X225747223Y-109881704D01*
X225366271Y-109881704D01*
X225271033Y-109834085D01*
X225223414Y-109738847D01*
X225223414Y-109548371D01*
X225271033Y-109453133D01*
X225366271Y-109405514D01*
X225461509Y-109405514D01*
X225556747Y-109881704D01*
X225890080Y-108834085D02*
X225842461Y-108929323D01*
X225747223Y-108976942D01*
X224890080Y-108976942D01*
X225223414Y-108595990D02*
X225223414Y-108215038D01*
X224890080Y-108453133D02*
X225747223Y-108453133D01*
X225842461Y-108405514D01*
X225890080Y-108310276D01*
X225890080Y-108215038D01*
X225890080Y-107881704D02*
X225223414Y-107881704D01*
X224890080Y-107881704D02*
X224937700Y-107929323D01*
X224985319Y-107881704D01*
X224937700Y-107834085D01*
X224890080Y-107881704D01*
X224985319Y-107881704D01*
X225842461Y-107024561D02*
X225890080Y-107119800D01*
X225890080Y-107310276D01*
X225842461Y-107405514D01*
X225747223Y-107453133D01*
X225366271Y-107453133D01*
X225271033Y-107405514D01*
X225223414Y-107310276D01*
X225223414Y-107119800D01*
X225271033Y-107024561D01*
X225366271Y-106976942D01*
X225461509Y-106976942D01*
X225556747Y-107453133D01*
X225890080Y-106548371D02*
X225223414Y-106548371D01*
X225413890Y-106548371D02*
X225318652Y-106500752D01*
X225271033Y-106453133D01*
X225223414Y-106357895D01*
X225223414Y-106262657D01*
X225509128Y-105167419D02*
X225509128Y-104405514D01*
X225890080Y-104786466D02*
X225128176Y-104786466D01*
D11*
X208979821Y-104152700D02*
G75*
G03*
X208979821Y-104152700I-610921J0D01*
G01*
D12*
X208745080Y-110199085D02*
X207745080Y-110199085D01*
X207745080Y-109818133D01*
X207792700Y-109722895D01*
X207840319Y-109675276D01*
X207935557Y-109627657D01*
X208078414Y-109627657D01*
X208173652Y-109675276D01*
X208221271Y-109722895D01*
X208268890Y-109818133D01*
X208268890Y-110199085D01*
X208697461Y-108818133D02*
X208745080Y-108913371D01*
X208745080Y-109103847D01*
X208697461Y-109199085D01*
X208602223Y-109246704D01*
X208221271Y-109246704D01*
X208126033Y-109199085D01*
X208078414Y-109103847D01*
X208078414Y-108913371D01*
X208126033Y-108818133D01*
X208221271Y-108770514D01*
X208316509Y-108770514D01*
X208411747Y-109246704D01*
X208745080Y-108199085D02*
X208697461Y-108294323D01*
X208602223Y-108341942D01*
X207745080Y-108341942D01*
X208078414Y-107960990D02*
X208078414Y-107580038D01*
X207745080Y-107818133D02*
X208602223Y-107818133D01*
X208697461Y-107770514D01*
X208745080Y-107675276D01*
X208745080Y-107580038D01*
X208745080Y-107246704D02*
X208078414Y-107246704D01*
X207745080Y-107246704D02*
X207792700Y-107294323D01*
X207840319Y-107246704D01*
X207792700Y-107199085D01*
X207745080Y-107246704D01*
X207840319Y-107246704D01*
X208697461Y-106389561D02*
X208745080Y-106484800D01*
X208745080Y-106675276D01*
X208697461Y-106770514D01*
X208602223Y-106818133D01*
X208221271Y-106818133D01*
X208126033Y-106770514D01*
X208078414Y-106675276D01*
X208078414Y-106484800D01*
X208126033Y-106389561D01*
X208221271Y-106341942D01*
X208316509Y-106341942D01*
X208411747Y-106818133D01*
X208745080Y-105913371D02*
X208078414Y-105913371D01*
X208268890Y-105913371D02*
X208173652Y-105865752D01*
X208126033Y-105818133D01*
X208078414Y-105722895D01*
X208078414Y-105627657D01*
X208364128Y-104532419D02*
X208364128Y-103770514D01*
X208745080Y-104151466D02*
X207983176Y-104151466D01*
D11*
X208979821Y-88912700D02*
G75*
G03*
X208979821Y-88912700I-610921J0D01*
G01*
D12*
X208745080Y-94959085D02*
X207745080Y-94959085D01*
X207745080Y-94578133D01*
X207792700Y-94482895D01*
X207840319Y-94435276D01*
X207935557Y-94387657D01*
X208078414Y-94387657D01*
X208173652Y-94435276D01*
X208221271Y-94482895D01*
X208268890Y-94578133D01*
X208268890Y-94959085D01*
X208697461Y-93578133D02*
X208745080Y-93673371D01*
X208745080Y-93863847D01*
X208697461Y-93959085D01*
X208602223Y-94006704D01*
X208221271Y-94006704D01*
X208126033Y-93959085D01*
X208078414Y-93863847D01*
X208078414Y-93673371D01*
X208126033Y-93578133D01*
X208221271Y-93530514D01*
X208316509Y-93530514D01*
X208411747Y-94006704D01*
X208745080Y-92959085D02*
X208697461Y-93054323D01*
X208602223Y-93101942D01*
X207745080Y-93101942D01*
X208078414Y-92720990D02*
X208078414Y-92340038D01*
X207745080Y-92578133D02*
X208602223Y-92578133D01*
X208697461Y-92530514D01*
X208745080Y-92435276D01*
X208745080Y-92340038D01*
X208745080Y-92006704D02*
X208078414Y-92006704D01*
X207745080Y-92006704D02*
X207792700Y-92054323D01*
X207840319Y-92006704D01*
X207792700Y-91959085D01*
X207745080Y-92006704D01*
X207840319Y-92006704D01*
X208697461Y-91149561D02*
X208745080Y-91244800D01*
X208745080Y-91435276D01*
X208697461Y-91530514D01*
X208602223Y-91578133D01*
X208221271Y-91578133D01*
X208126033Y-91530514D01*
X208078414Y-91435276D01*
X208078414Y-91244800D01*
X208126033Y-91149561D01*
X208221271Y-91101942D01*
X208316509Y-91101942D01*
X208411747Y-91578133D01*
X208745080Y-90673371D02*
X208078414Y-90673371D01*
X208268890Y-90673371D02*
X208173652Y-90625752D01*
X208126033Y-90578133D01*
X208078414Y-90482895D01*
X208078414Y-90387657D01*
X208364128Y-89292419D02*
X208364128Y-88530514D01*
X208745080Y-88911466D02*
X207983176Y-88911466D01*
D11*
X208979821Y-73672700D02*
G75*
G03*
X208979821Y-73672700I-610921J0D01*
G01*
D12*
X208745080Y-79719085D02*
X207745080Y-79719085D01*
X207745080Y-79338133D01*
X207792700Y-79242895D01*
X207840319Y-79195276D01*
X207935557Y-79147657D01*
X208078414Y-79147657D01*
X208173652Y-79195276D01*
X208221271Y-79242895D01*
X208268890Y-79338133D01*
X208268890Y-79719085D01*
X208697461Y-78338133D02*
X208745080Y-78433371D01*
X208745080Y-78623847D01*
X208697461Y-78719085D01*
X208602223Y-78766704D01*
X208221271Y-78766704D01*
X208126033Y-78719085D01*
X208078414Y-78623847D01*
X208078414Y-78433371D01*
X208126033Y-78338133D01*
X208221271Y-78290514D01*
X208316509Y-78290514D01*
X208411747Y-78766704D01*
X208745080Y-77719085D02*
X208697461Y-77814323D01*
X208602223Y-77861942D01*
X207745080Y-77861942D01*
X208078414Y-77480990D02*
X208078414Y-77100038D01*
X207745080Y-77338133D02*
X208602223Y-77338133D01*
X208697461Y-77290514D01*
X208745080Y-77195276D01*
X208745080Y-77100038D01*
X208745080Y-76766704D02*
X208078414Y-76766704D01*
X207745080Y-76766704D02*
X207792700Y-76814323D01*
X207840319Y-76766704D01*
X207792700Y-76719085D01*
X207745080Y-76766704D01*
X207840319Y-76766704D01*
X208697461Y-75909561D02*
X208745080Y-76004800D01*
X208745080Y-76195276D01*
X208697461Y-76290514D01*
X208602223Y-76338133D01*
X208221271Y-76338133D01*
X208126033Y-76290514D01*
X208078414Y-76195276D01*
X208078414Y-76004800D01*
X208126033Y-75909561D01*
X208221271Y-75861942D01*
X208316509Y-75861942D01*
X208411747Y-76338133D01*
X208745080Y-75433371D02*
X208078414Y-75433371D01*
X208268890Y-75433371D02*
X208173652Y-75385752D01*
X208126033Y-75338133D01*
X208078414Y-75242895D01*
X208078414Y-75147657D01*
X208364128Y-74052419D02*
X208364128Y-73290514D01*
X208745080Y-73671466D02*
X207983176Y-73671466D01*
D11*
X208967121Y-61302900D02*
G75*
G03*
X208967121Y-61302900I-610921J0D01*
G01*
D12*
X208732380Y-67349285D02*
X207732380Y-67349285D01*
X207732380Y-66968333D01*
X207780000Y-66873095D01*
X207827619Y-66825476D01*
X207922857Y-66777857D01*
X208065714Y-66777857D01*
X208160952Y-66825476D01*
X208208571Y-66873095D01*
X208256190Y-66968333D01*
X208256190Y-67349285D01*
X208684761Y-65968333D02*
X208732380Y-66063571D01*
X208732380Y-66254047D01*
X208684761Y-66349285D01*
X208589523Y-66396904D01*
X208208571Y-66396904D01*
X208113333Y-66349285D01*
X208065714Y-66254047D01*
X208065714Y-66063571D01*
X208113333Y-65968333D01*
X208208571Y-65920714D01*
X208303809Y-65920714D01*
X208399047Y-66396904D01*
X208732380Y-65349285D02*
X208684761Y-65444523D01*
X208589523Y-65492142D01*
X207732380Y-65492142D01*
X208065714Y-65111190D02*
X208065714Y-64730238D01*
X207732380Y-64968333D02*
X208589523Y-64968333D01*
X208684761Y-64920714D01*
X208732380Y-64825476D01*
X208732380Y-64730238D01*
X208732380Y-64396904D02*
X208065714Y-64396904D01*
X207732380Y-64396904D02*
X207780000Y-64444523D01*
X207827619Y-64396904D01*
X207780000Y-64349285D01*
X207732380Y-64396904D01*
X207827619Y-64396904D01*
X208684761Y-63539761D02*
X208732380Y-63635000D01*
X208732380Y-63825476D01*
X208684761Y-63920714D01*
X208589523Y-63968333D01*
X208208571Y-63968333D01*
X208113333Y-63920714D01*
X208065714Y-63825476D01*
X208065714Y-63635000D01*
X208113333Y-63539761D01*
X208208571Y-63492142D01*
X208303809Y-63492142D01*
X208399047Y-63968333D01*
X208732380Y-63063571D02*
X208065714Y-63063571D01*
X208256190Y-63063571D02*
X208160952Y-63015952D01*
X208113333Y-62968333D01*
X208065714Y-62873095D01*
X208065714Y-62777857D01*
X208351428Y-61682619D02*
X208351428Y-60920714D01*
X208732380Y-61301666D02*
X207970476Y-61301666D01*
D11*
X185023535Y-45167904D02*
X185123535Y-44367904D01*
X185314011Y-44367904D01*
X185423535Y-44406000D01*
X185490202Y-44482190D01*
X185518773Y-44558380D01*
X185537821Y-44710761D01*
X185523535Y-44825047D01*
X185466392Y-44977428D01*
X185418773Y-45053619D01*
X185333059Y-45129809D01*
X185214011Y-45167904D01*
X185023535Y-45167904D01*
X186133059Y-45129809D02*
X186052107Y-45167904D01*
X185899726Y-45167904D01*
X185828297Y-45129809D01*
X185799726Y-45053619D01*
X185837821Y-44748857D01*
X185885440Y-44672666D01*
X185966392Y-44634571D01*
X186118773Y-44634571D01*
X186190202Y-44672666D01*
X186218773Y-44748857D01*
X186209250Y-44825047D01*
X185818773Y-44901238D01*
X186475916Y-45129809D02*
X186547345Y-45167904D01*
X186699726Y-45167904D01*
X186780678Y-45129809D01*
X186828297Y-45053619D01*
X186833059Y-45015523D01*
X186804488Y-44939333D01*
X186733059Y-44901238D01*
X186618773Y-44901238D01*
X186547345Y-44863142D01*
X186518773Y-44786952D01*
X186523535Y-44748857D01*
X186571154Y-44672666D01*
X186652107Y-44634571D01*
X186766392Y-44634571D01*
X186837821Y-44672666D01*
X187156869Y-45167904D02*
X187223535Y-44634571D01*
X187256869Y-44367904D02*
X187214011Y-44406000D01*
X187247345Y-44444095D01*
X187290202Y-44406000D01*
X187256869Y-44367904D01*
X187247345Y-44444095D01*
X187947345Y-44634571D02*
X187866392Y-45282190D01*
X187818773Y-45358380D01*
X187775916Y-45396476D01*
X187694964Y-45434571D01*
X187580678Y-45434571D01*
X187509250Y-45396476D01*
X187885440Y-45129809D02*
X187804488Y-45167904D01*
X187652107Y-45167904D01*
X187580678Y-45129809D01*
X187547345Y-45091714D01*
X187518773Y-45015523D01*
X187547345Y-44786952D01*
X187594964Y-44710761D01*
X187637821Y-44672666D01*
X187718773Y-44634571D01*
X187871154Y-44634571D01*
X187942583Y-44672666D01*
X188328297Y-44634571D02*
X188261630Y-45167904D01*
X188318773Y-44710761D02*
X188361630Y-44672666D01*
X188442583Y-44634571D01*
X188556869Y-44634571D01*
X188628297Y-44672666D01*
X188656869Y-44748857D01*
X188604488Y-45167904D01*
X189294964Y-45129809D02*
X189214011Y-45167904D01*
X189061630Y-45167904D01*
X188990202Y-45129809D01*
X188961630Y-45053619D01*
X188999726Y-44748857D01*
X189047345Y-44672666D01*
X189128297Y-44634571D01*
X189280678Y-44634571D01*
X189352107Y-44672666D01*
X189380678Y-44748857D01*
X189371154Y-44825047D01*
X188980678Y-44901238D01*
X190014011Y-45167904D02*
X190114011Y-44367904D01*
X190018773Y-45129809D02*
X189937821Y-45167904D01*
X189785440Y-45167904D01*
X189714011Y-45129809D01*
X189680678Y-45091714D01*
X189652107Y-45015523D01*
X189680678Y-44786952D01*
X189728297Y-44710761D01*
X189771154Y-44672666D01*
X189852107Y-44634571D01*
X190004488Y-44634571D01*
X190075916Y-44672666D01*
X191004488Y-45167904D02*
X191104488Y-44367904D01*
X191066392Y-44672666D02*
X191147345Y-44634571D01*
X191299726Y-44634571D01*
X191371154Y-44672666D01*
X191404488Y-44710761D01*
X191433059Y-44786952D01*
X191404488Y-45015523D01*
X191356869Y-45091714D01*
X191314011Y-45129809D01*
X191233059Y-45167904D01*
X191080678Y-45167904D01*
X191009250Y-45129809D01*
X191718773Y-44634571D02*
X191842583Y-45167904D01*
X192099726Y-44634571D02*
X191842583Y-45167904D01*
X191742583Y-45358380D01*
X191699726Y-45396476D01*
X191618773Y-45434571D01*
X193266392Y-44748857D02*
X193375916Y-44786952D01*
X193409250Y-44825047D01*
X193437821Y-44901238D01*
X193423535Y-45015523D01*
X193375916Y-45091714D01*
X193333059Y-45129809D01*
X193252107Y-45167904D01*
X192947345Y-45167904D01*
X193047345Y-44367904D01*
X193314011Y-44367904D01*
X193385440Y-44406000D01*
X193418773Y-44444095D01*
X193447345Y-44520285D01*
X193437821Y-44596476D01*
X193390202Y-44672666D01*
X193347345Y-44710761D01*
X193266392Y-44748857D01*
X192999726Y-44748857D01*
X194056869Y-45129809D02*
X193975916Y-45167904D01*
X193823535Y-45167904D01*
X193752107Y-45129809D01*
X193723535Y-45053619D01*
X193761630Y-44748857D01*
X193809250Y-44672666D01*
X193890202Y-44634571D01*
X194042583Y-44634571D01*
X194114011Y-44672666D01*
X194142583Y-44748857D01*
X194133059Y-44825047D01*
X193742583Y-44901238D01*
X194499726Y-44634571D02*
X194433059Y-45167904D01*
X194490202Y-44710761D02*
X194533059Y-44672666D01*
X194614011Y-44634571D01*
X194728297Y-44634571D01*
X194799726Y-44672666D01*
X194828297Y-44748857D01*
X194775916Y-45167904D01*
X195271154Y-45167904D02*
X195199726Y-45129809D01*
X195166392Y-45091714D01*
X195137821Y-45015523D01*
X195166392Y-44786952D01*
X195214011Y-44710761D01*
X195256869Y-44672666D01*
X195337821Y-44634571D01*
X195452107Y-44634571D01*
X195523535Y-44672666D01*
X195556869Y-44710761D01*
X195585440Y-44786952D01*
X195556869Y-45015523D01*
X195509250Y-45091714D01*
X195466392Y-45129809D01*
X195385440Y-45167904D01*
X195271154Y-45167904D01*
X195880678Y-45167904D02*
X195947345Y-44634571D01*
X195980678Y-44367904D02*
X195937821Y-44406000D01*
X195971154Y-44444095D01*
X196014011Y-44406000D01*
X195980678Y-44367904D01*
X195971154Y-44444095D01*
X196214011Y-44634571D02*
X196518773Y-44634571D01*
X196361630Y-44367904D02*
X196275916Y-45053619D01*
X196304488Y-45129809D01*
X196375916Y-45167904D01*
X196452107Y-45167904D01*
X197314011Y-44367904D02*
X197771154Y-44367904D01*
X197442583Y-45167904D02*
X197542583Y-44367904D01*
X198280678Y-45167904D02*
X198333059Y-44748857D01*
X198304488Y-44672666D01*
X198233059Y-44634571D01*
X198080678Y-44634571D01*
X197999726Y-44672666D01*
X198285440Y-45129809D02*
X198204488Y-45167904D01*
X198014011Y-45167904D01*
X197942583Y-45129809D01*
X197914011Y-45053619D01*
X197923535Y-44977428D01*
X197971154Y-44901238D01*
X198052107Y-44863142D01*
X198242583Y-44863142D01*
X198323535Y-44825047D01*
X198661630Y-45167904D02*
X198728297Y-44634571D01*
X198709250Y-44786952D02*
X198756869Y-44710761D01*
X198799726Y-44672666D01*
X198880678Y-44634571D01*
X198956869Y-44634571D01*
X199156869Y-45167904D02*
X199223535Y-44634571D01*
X199204488Y-44786952D02*
X199252107Y-44710761D01*
X199294964Y-44672666D01*
X199375916Y-44634571D01*
X199452107Y-44634571D01*
X199994964Y-45167904D02*
X200047345Y-44748857D01*
X200018773Y-44672666D01*
X199947345Y-44634571D01*
X199794964Y-44634571D01*
X199714011Y-44672666D01*
X199999726Y-45129809D02*
X199918773Y-45167904D01*
X199728297Y-45167904D01*
X199656869Y-45129809D01*
X199628297Y-45053619D01*
X199637821Y-44977428D01*
X199685440Y-44901238D01*
X199766392Y-44863142D01*
X199956869Y-44863142D01*
X200037821Y-44825047D01*
X200718773Y-45167904D02*
X200818773Y-44367904D01*
X200723535Y-45129809D02*
X200642583Y-45167904D01*
X200490202Y-45167904D01*
X200418773Y-45129809D01*
X200385440Y-45091714D01*
X200356869Y-45015523D01*
X200385440Y-44786952D01*
X200433059Y-44710761D01*
X200475916Y-44672666D01*
X200556869Y-44634571D01*
X200709250Y-44634571D01*
X200780678Y-44672666D01*
X201409250Y-45129809D02*
X201328297Y-45167904D01*
X201175916Y-45167904D01*
X201104488Y-45129809D01*
X201075916Y-45053619D01*
X201114011Y-44748857D01*
X201161630Y-44672666D01*
X201242583Y-44634571D01*
X201394964Y-44634571D01*
X201466392Y-44672666D01*
X201494964Y-44748857D01*
X201485440Y-44825047D01*
X201094964Y-44901238D01*
X187156869Y-46792666D02*
X187123535Y-46754571D01*
X187061630Y-46640285D01*
X187033059Y-46564095D01*
X187009249Y-46449809D01*
X186994964Y-46259333D01*
X187014011Y-46106952D01*
X187075916Y-45916476D01*
X187128297Y-45802190D01*
X187175916Y-45726000D01*
X187266392Y-45611714D01*
X187309249Y-45573619D01*
X187842583Y-46487904D02*
X187894964Y-46068857D01*
X187866392Y-45992666D01*
X187794964Y-45954571D01*
X187642583Y-45954571D01*
X187561630Y-45992666D01*
X187847345Y-46449809D02*
X187766392Y-46487904D01*
X187575916Y-46487904D01*
X187504488Y-46449809D01*
X187475916Y-46373619D01*
X187485440Y-46297428D01*
X187533059Y-46221238D01*
X187614011Y-46183142D01*
X187804488Y-46183142D01*
X187885440Y-46145047D01*
X188337821Y-46487904D02*
X188266392Y-46449809D01*
X188237821Y-46373619D01*
X188323535Y-45687904D01*
X188642583Y-46487904D02*
X188709249Y-45954571D01*
X188742583Y-45687904D02*
X188699726Y-45726000D01*
X188733059Y-45764095D01*
X188775916Y-45726000D01*
X188742583Y-45687904D01*
X188733059Y-45764095D01*
X189366392Y-46487904D02*
X189418773Y-46068857D01*
X189390202Y-45992666D01*
X189318773Y-45954571D01*
X189166392Y-45954571D01*
X189085440Y-45992666D01*
X189371154Y-46449809D02*
X189290202Y-46487904D01*
X189099726Y-46487904D01*
X189028297Y-46449809D01*
X188999726Y-46373619D01*
X189009249Y-46297428D01*
X189056869Y-46221238D01*
X189137821Y-46183142D01*
X189328297Y-46183142D01*
X189409249Y-46145047D01*
X189714011Y-46449809D02*
X189785440Y-46487904D01*
X189937821Y-46487904D01*
X190018773Y-46449809D01*
X190066392Y-46373619D01*
X190071154Y-46335523D01*
X190042583Y-46259333D01*
X189971154Y-46221238D01*
X189856869Y-46221238D01*
X189785440Y-46183142D01*
X189756869Y-46106952D01*
X189761630Y-46068857D01*
X189809249Y-45992666D01*
X189890202Y-45954571D01*
X190004488Y-45954571D01*
X190075916Y-45992666D01*
X191004488Y-46487904D02*
X191104488Y-45687904D01*
X191066392Y-45992666D02*
X191147345Y-45954571D01*
X191299726Y-45954571D01*
X191371154Y-45992666D01*
X191404488Y-46030761D01*
X191433059Y-46106952D01*
X191404488Y-46335523D01*
X191356869Y-46411714D01*
X191314011Y-46449809D01*
X191233059Y-46487904D01*
X191080678Y-46487904D01*
X191009249Y-46449809D01*
X192037821Y-46449809D02*
X191956869Y-46487904D01*
X191804488Y-46487904D01*
X191733059Y-46449809D01*
X191704488Y-46373619D01*
X191742583Y-46068857D01*
X191790202Y-45992666D01*
X191871154Y-45954571D01*
X192023535Y-45954571D01*
X192094964Y-45992666D01*
X192123535Y-46068857D01*
X192114011Y-46145047D01*
X191723535Y-46221238D01*
X192414011Y-46487904D02*
X192514011Y-45687904D01*
X192475916Y-45992666D02*
X192556869Y-45954571D01*
X192709249Y-45954571D01*
X192780678Y-45992666D01*
X192814011Y-46030761D01*
X192842583Y-46106952D01*
X192814011Y-46335523D01*
X192766392Y-46411714D01*
X192723535Y-46449809D01*
X192642583Y-46487904D01*
X192490202Y-46487904D01*
X192418773Y-46449809D01*
X193447345Y-46449809D02*
X193366392Y-46487904D01*
X193214011Y-46487904D01*
X193142583Y-46449809D01*
X193114011Y-46373619D01*
X193152107Y-46068857D01*
X193199726Y-45992666D01*
X193280678Y-45954571D01*
X193433059Y-45954571D01*
X193504488Y-45992666D01*
X193533059Y-46068857D01*
X193523535Y-46145047D01*
X193133059Y-46221238D01*
X193890202Y-45954571D02*
X193823535Y-46487904D01*
X193880678Y-46030761D02*
X193923535Y-45992666D01*
X194004488Y-45954571D01*
X194118773Y-45954571D01*
X194190202Y-45992666D01*
X194218773Y-46068857D01*
X194166392Y-46487904D01*
X194661630Y-46487904D02*
X194590202Y-46449809D01*
X194561630Y-46373619D01*
X194647345Y-45687904D01*
X195275916Y-46449809D02*
X195194964Y-46487904D01*
X195042583Y-46487904D01*
X194971154Y-46449809D01*
X194942583Y-46373619D01*
X194980678Y-46068857D01*
X195028297Y-45992666D01*
X195109249Y-45954571D01*
X195261630Y-45954571D01*
X195333059Y-45992666D01*
X195361630Y-46068857D01*
X195352107Y-46145047D01*
X194961630Y-46221238D01*
X195652107Y-46487904D02*
X195752107Y-45687904D01*
X195714011Y-45992666D02*
X195794964Y-45954571D01*
X195947345Y-45954571D01*
X196018773Y-45992666D01*
X196052107Y-46030761D01*
X196080678Y-46106952D01*
X196052107Y-46335523D01*
X196004488Y-46411714D01*
X195961630Y-46449809D01*
X195880678Y-46487904D01*
X195728297Y-46487904D01*
X195656869Y-46449809D01*
X196375916Y-46487904D02*
X196442583Y-45954571D01*
X196475916Y-45687904D02*
X196433059Y-45726000D01*
X196466392Y-45764095D01*
X196509249Y-45726000D01*
X196475916Y-45687904D01*
X196466392Y-45764095D01*
X197104488Y-46449809D02*
X197023535Y-46487904D01*
X196871154Y-46487904D01*
X196799726Y-46449809D01*
X196766392Y-46411714D01*
X196737821Y-46335523D01*
X196766392Y-46106952D01*
X196814011Y-46030761D01*
X196856869Y-45992666D01*
X196937821Y-45954571D01*
X197090202Y-45954571D01*
X197161630Y-45992666D01*
X197556869Y-46487904D02*
X197485440Y-46449809D01*
X197452107Y-46411714D01*
X197423535Y-46335523D01*
X197452107Y-46106952D01*
X197499726Y-46030761D01*
X197542583Y-45992666D01*
X197623535Y-45954571D01*
X197737821Y-45954571D01*
X197809249Y-45992666D01*
X197842583Y-46030761D01*
X197871154Y-46106952D01*
X197842583Y-46335523D01*
X197794964Y-46411714D01*
X197752107Y-46449809D01*
X197671154Y-46487904D01*
X197556869Y-46487904D01*
X198280678Y-46487904D02*
X198209249Y-46449809D01*
X198180678Y-46373619D01*
X198266392Y-45687904D01*
X198699726Y-46487904D02*
X198628297Y-46449809D01*
X198594964Y-46411714D01*
X198566392Y-46335523D01*
X198594964Y-46106952D01*
X198642583Y-46030761D01*
X198685440Y-45992666D01*
X198766392Y-45954571D01*
X198880678Y-45954571D01*
X198952107Y-45992666D01*
X198985440Y-46030761D01*
X199014011Y-46106952D01*
X198985440Y-46335523D01*
X198937821Y-46411714D01*
X198894964Y-46449809D01*
X198814011Y-46487904D01*
X198699726Y-46487904D01*
X199194964Y-46792666D02*
X199237821Y-46754571D01*
X199328297Y-46640285D01*
X199375916Y-46564095D01*
X199428297Y-46449809D01*
X199490202Y-46259333D01*
X199509249Y-46106952D01*
X199494964Y-45916476D01*
X199471154Y-45802190D01*
X199442583Y-45726000D01*
X199380678Y-45611714D01*
X199347345Y-45573619D01*
D13*
X212249285Y-45862857D02*
X213773095Y-45862857D01*
X213011190Y-46624761D02*
X213011190Y-45100952D01*
X215773095Y-46624761D02*
X214630238Y-46624761D01*
X215201666Y-46624761D02*
X215201666Y-44624761D01*
X215011190Y-44910476D01*
X214820714Y-45100952D01*
X214630238Y-45196190D01*
X216535000Y-44815238D02*
X216630238Y-44720000D01*
X216820714Y-44624761D01*
X217296904Y-44624761D01*
X217487380Y-44720000D01*
X217582619Y-44815238D01*
X217677857Y-45005714D01*
X217677857Y-45196190D01*
X217582619Y-45481904D01*
X216439761Y-46624761D01*
X217677857Y-46624761D01*
X218249285Y-44624761D02*
X218915952Y-46624761D01*
X219582619Y-44624761D01*
X238760190Y-127524000D02*
X238569714Y-127428761D01*
X238284000Y-127428761D01*
X237998285Y-127524000D01*
X237807809Y-127714476D01*
X237712571Y-127904952D01*
X237617333Y-128285904D01*
X237617333Y-128571619D01*
X237712571Y-128952571D01*
X237807809Y-129143047D01*
X237998285Y-129333523D01*
X238284000Y-129428761D01*
X238474476Y-129428761D01*
X238760190Y-129333523D01*
X238855428Y-129238285D01*
X238855428Y-128571619D01*
X238474476Y-128571619D01*
X239712571Y-129428761D02*
X239712571Y-127428761D01*
X240855428Y-129428761D01*
X240855428Y-127428761D01*
X241807809Y-129428761D02*
X241807809Y-127428761D01*
X242284000Y-127428761D01*
X242569714Y-127524000D01*
X242760190Y-127714476D01*
X242855428Y-127904952D01*
X242950666Y-128285904D01*
X242950666Y-128571619D01*
X242855428Y-128952571D01*
X242760190Y-129143047D01*
X242569714Y-129333523D01*
X242284000Y-129428761D01*
X241807809Y-129428761D01*
D14*
X174153571Y-128429285D02*
X174325000Y-128486428D01*
X174382142Y-128543571D01*
X174439285Y-128657857D01*
X174439285Y-128829285D01*
X174382142Y-128943571D01*
X174325000Y-129000714D01*
X174210714Y-129057857D01*
X173753571Y-129057857D01*
X173753571Y-127857857D01*
X174153571Y-127857857D01*
X174267857Y-127915000D01*
X174325000Y-127972142D01*
X174382142Y-128086428D01*
X174382142Y-128200714D01*
X174325000Y-128315000D01*
X174267857Y-128372142D01*
X174153571Y-128429285D01*
X173753571Y-128429285D01*
X175410714Y-129000714D02*
X175296428Y-129057857D01*
X175067857Y-129057857D01*
X174953571Y-129000714D01*
X174896428Y-128886428D01*
X174896428Y-128429285D01*
X174953571Y-128315000D01*
X175067857Y-128257857D01*
X175296428Y-128257857D01*
X175410714Y-128315000D01*
X175467857Y-128429285D01*
X175467857Y-128543571D01*
X174896428Y-128657857D01*
X176439285Y-129000714D02*
X176325000Y-129057857D01*
X176096428Y-129057857D01*
X175982142Y-129000714D01*
X175925000Y-128886428D01*
X175925000Y-128429285D01*
X175982142Y-128315000D01*
X176096428Y-128257857D01*
X176325000Y-128257857D01*
X176439285Y-128315000D01*
X176496428Y-128429285D01*
X176496428Y-128543571D01*
X175925000Y-128657857D01*
X177010714Y-129057857D02*
X177010714Y-128257857D01*
X177010714Y-128486428D02*
X177067857Y-128372142D01*
X177125000Y-128315000D01*
X177239285Y-128257857D01*
X177353571Y-128257857D01*
X178496428Y-127857857D02*
X179182142Y-127857857D01*
X178839285Y-129057857D02*
X178839285Y-127857857D01*
X179582142Y-129057857D02*
X179582142Y-127857857D01*
X180096428Y-129057857D02*
X180096428Y-128429285D01*
X180039285Y-128315000D01*
X179925000Y-128257857D01*
X179753571Y-128257857D01*
X179639285Y-128315000D01*
X179582142Y-128372142D01*
X181125000Y-129000714D02*
X181010714Y-129057857D01*
X180782142Y-129057857D01*
X180667857Y-129000714D01*
X180610714Y-128886428D01*
X180610714Y-128429285D01*
X180667857Y-128315000D01*
X180782142Y-128257857D01*
X181010714Y-128257857D01*
X181125000Y-128315000D01*
X181182142Y-128429285D01*
X181182142Y-128543571D01*
X180610714Y-128657857D01*
X181696428Y-129057857D02*
X181696428Y-128257857D01*
X181696428Y-128486428D02*
X181753571Y-128372142D01*
X181810714Y-128315000D01*
X181925000Y-128257857D01*
X182039285Y-128257857D01*
X182439285Y-129057857D02*
X182439285Y-128257857D01*
X182439285Y-128372142D02*
X182496428Y-128315000D01*
X182610714Y-128257857D01*
X182782142Y-128257857D01*
X182896428Y-128315000D01*
X182953571Y-128429285D01*
X182953571Y-129057857D01*
X182953571Y-128429285D02*
X183010714Y-128315000D01*
X183125000Y-128257857D01*
X183296428Y-128257857D01*
X183410714Y-128315000D01*
X183467857Y-128429285D01*
X183467857Y-129057857D01*
X184210714Y-129057857D02*
X184096428Y-129000714D01*
X184039285Y-128943571D01*
X183982142Y-128829285D01*
X183982142Y-128486428D01*
X184039285Y-128372142D01*
X184096428Y-128315000D01*
X184210714Y-128257857D01*
X184382142Y-128257857D01*
X184496428Y-128315000D01*
X184553571Y-128372142D01*
X184610714Y-128486428D01*
X184610714Y-128829285D01*
X184553571Y-128943571D01*
X184496428Y-129000714D01*
X184382142Y-129057857D01*
X184210714Y-129057857D01*
X185125000Y-129057857D02*
X185125000Y-128257857D01*
X185125000Y-128486428D02*
X185182142Y-128372142D01*
X185239285Y-128315000D01*
X185353571Y-128257857D01*
X185467857Y-128257857D01*
X186325000Y-129000714D02*
X186210714Y-129057857D01*
X185982142Y-129057857D01*
X185867857Y-129000714D01*
X185810714Y-128886428D01*
X185810714Y-128429285D01*
X185867857Y-128315000D01*
X185982142Y-128257857D01*
X186210714Y-128257857D01*
X186325000Y-128315000D01*
X186382142Y-128429285D01*
X186382142Y-128543571D01*
X185810714Y-128657857D01*
X187410714Y-128257857D02*
X187410714Y-129229285D01*
X187353571Y-129343571D01*
X187296428Y-129400714D01*
X187182142Y-129457857D01*
X187010714Y-129457857D01*
X186896428Y-129400714D01*
X187410714Y-129000714D02*
X187296428Y-129057857D01*
X187067857Y-129057857D01*
X186953571Y-129000714D01*
X186896428Y-128943571D01*
X186839285Y-128829285D01*
X186839285Y-128486428D01*
X186896428Y-128372142D01*
X186953571Y-128315000D01*
X187067857Y-128257857D01*
X187296428Y-128257857D01*
X187410714Y-128315000D01*
X188496428Y-128257857D02*
X188496428Y-129057857D01*
X187982142Y-128257857D02*
X187982142Y-128886428D01*
X188039285Y-129000714D01*
X188153571Y-129057857D01*
X188325000Y-129057857D01*
X188439285Y-129000714D01*
X188496428Y-128943571D01*
X189239285Y-129057857D02*
X189125000Y-129000714D01*
X189067857Y-128886428D01*
X189067857Y-127857857D01*
X190210714Y-129057857D02*
X190210714Y-128429285D01*
X190153571Y-128315000D01*
X190039285Y-128257857D01*
X189810714Y-128257857D01*
X189696428Y-128315000D01*
X190210714Y-129000714D02*
X190096428Y-129057857D01*
X189810714Y-129057857D01*
X189696428Y-129000714D01*
X189639285Y-128886428D01*
X189639285Y-128772142D01*
X189696428Y-128657857D01*
X189810714Y-128600714D01*
X190096428Y-128600714D01*
X190210714Y-128543571D01*
X190610714Y-128257857D02*
X191067857Y-128257857D01*
X190782142Y-127857857D02*
X190782142Y-128886428D01*
X190839285Y-129000714D01*
X190953571Y-129057857D01*
X191067857Y-129057857D01*
X191467857Y-129057857D02*
X191467857Y-128257857D01*
X191467857Y-127857857D02*
X191410714Y-127915000D01*
X191467857Y-127972142D01*
X191525000Y-127915000D01*
X191467857Y-127857857D01*
X191467857Y-127972142D01*
X192210714Y-129057857D02*
X192096428Y-129000714D01*
X192039285Y-128943571D01*
X191982142Y-128829285D01*
X191982142Y-128486428D01*
X192039285Y-128372142D01*
X192096428Y-128315000D01*
X192210714Y-128257857D01*
X192382142Y-128257857D01*
X192496428Y-128315000D01*
X192553571Y-128372142D01*
X192610714Y-128486428D01*
X192610714Y-128829285D01*
X192553571Y-128943571D01*
X192496428Y-129000714D01*
X192382142Y-129057857D01*
X192210714Y-129057857D01*
X193125000Y-128257857D02*
X193125000Y-129057857D01*
X193125000Y-128372142D02*
X193182142Y-128315000D01*
X193296428Y-128257857D01*
X193467857Y-128257857D01*
X193582142Y-128315000D01*
X193639285Y-128429285D01*
X193639285Y-129057857D01*
X195067857Y-129000714D02*
X195239285Y-129057857D01*
X195525000Y-129057857D01*
X195639285Y-129000714D01*
X195696428Y-128943571D01*
X195753571Y-128829285D01*
X195753571Y-128715000D01*
X195696428Y-128600714D01*
X195639285Y-128543571D01*
X195525000Y-128486428D01*
X195296428Y-128429285D01*
X195182142Y-128372142D01*
X195125000Y-128315000D01*
X195067857Y-128200714D01*
X195067857Y-128086428D01*
X195125000Y-127972142D01*
X195182142Y-127915000D01*
X195296428Y-127857857D01*
X195582142Y-127857857D01*
X195753571Y-127915000D01*
X196153571Y-128257857D02*
X196439285Y-129057857D01*
X196725000Y-128257857D02*
X196439285Y-129057857D01*
X196325000Y-129343571D01*
X196267857Y-129400714D01*
X196153571Y-129457857D01*
X197125000Y-129000714D02*
X197239285Y-129057857D01*
X197467857Y-129057857D01*
X197582142Y-129000714D01*
X197639285Y-128886428D01*
X197639285Y-128829285D01*
X197582142Y-128715000D01*
X197467857Y-128657857D01*
X197296428Y-128657857D01*
X197182142Y-128600714D01*
X197125000Y-128486428D01*
X197125000Y-128429285D01*
X197182142Y-128315000D01*
X197296428Y-128257857D01*
X197467857Y-128257857D01*
X197582142Y-128315000D01*
X197982142Y-128257857D02*
X198439285Y-128257857D01*
X198153571Y-127857857D02*
X198153571Y-128886428D01*
X198210714Y-129000714D01*
X198325000Y-129057857D01*
X198439285Y-129057857D01*
X199296428Y-129000714D02*
X199182142Y-129057857D01*
X198953571Y-129057857D01*
X198839285Y-129000714D01*
X198782142Y-128886428D01*
X198782142Y-128429285D01*
X198839285Y-128315000D01*
X198953571Y-128257857D01*
X199182142Y-128257857D01*
X199296428Y-128315000D01*
X199353571Y-128429285D01*
X199353571Y-128543571D01*
X198782142Y-128657857D01*
X199867857Y-129057857D02*
X199867857Y-128257857D01*
X199867857Y-128372142D02*
X199925000Y-128315000D01*
X200039285Y-128257857D01*
X200210714Y-128257857D01*
X200325000Y-128315000D01*
X200382142Y-128429285D01*
X200382142Y-129057857D01*
X200382142Y-128429285D02*
X200439285Y-128315000D01*
X200553571Y-128257857D01*
X200725000Y-128257857D01*
X200839285Y-128315000D01*
X200896428Y-128429285D01*
X200896428Y-129057857D01*
X177096428Y-131107857D02*
X177096428Y-129907857D01*
X177496428Y-130765000D01*
X177896428Y-129907857D01*
X177896428Y-131107857D01*
X178982142Y-131107857D02*
X178982142Y-130479285D01*
X178925000Y-130365000D01*
X178810714Y-130307857D01*
X178582142Y-130307857D01*
X178467857Y-130365000D01*
X178982142Y-131050714D02*
X178867857Y-131107857D01*
X178582142Y-131107857D01*
X178467857Y-131050714D01*
X178410714Y-130936428D01*
X178410714Y-130822142D01*
X178467857Y-130707857D01*
X178582142Y-130650714D01*
X178867857Y-130650714D01*
X178982142Y-130593571D01*
X179553571Y-131107857D02*
X179553571Y-130307857D01*
X179553571Y-129907857D02*
X179496428Y-129965000D01*
X179553571Y-130022142D01*
X179610714Y-129965000D01*
X179553571Y-129907857D01*
X179553571Y-130022142D01*
X180125000Y-130307857D02*
X180125000Y-131107857D01*
X180125000Y-130422142D02*
X180182142Y-130365000D01*
X180296428Y-130307857D01*
X180467857Y-130307857D01*
X180582142Y-130365000D01*
X180639285Y-130479285D01*
X180639285Y-131107857D01*
X182125000Y-131107857D02*
X182125000Y-129907857D01*
X182125000Y-130365000D02*
X182239285Y-130307857D01*
X182467857Y-130307857D01*
X182582142Y-130365000D01*
X182639285Y-130422142D01*
X182696428Y-130536428D01*
X182696428Y-130879285D01*
X182639285Y-130993571D01*
X182582142Y-131050714D01*
X182467857Y-131107857D01*
X182239285Y-131107857D01*
X182125000Y-131050714D01*
X183382142Y-131107857D02*
X183267857Y-131050714D01*
X183210714Y-130993571D01*
X183153571Y-130879285D01*
X183153571Y-130536428D01*
X183210714Y-130422142D01*
X183267857Y-130365000D01*
X183382142Y-130307857D01*
X183553571Y-130307857D01*
X183667857Y-130365000D01*
X183725000Y-130422142D01*
X183782142Y-130536428D01*
X183782142Y-130879285D01*
X183725000Y-130993571D01*
X183667857Y-131050714D01*
X183553571Y-131107857D01*
X183382142Y-131107857D01*
X184810714Y-131107857D02*
X184810714Y-130479285D01*
X184753571Y-130365000D01*
X184639285Y-130307857D01*
X184410714Y-130307857D01*
X184296428Y-130365000D01*
X184810714Y-131050714D02*
X184696428Y-131107857D01*
X184410714Y-131107857D01*
X184296428Y-131050714D01*
X184239285Y-130936428D01*
X184239285Y-130822142D01*
X184296428Y-130707857D01*
X184410714Y-130650714D01*
X184696428Y-130650714D01*
X184810714Y-130593571D01*
X185382142Y-131107857D02*
X185382142Y-130307857D01*
X185382142Y-130536428D02*
X185439285Y-130422142D01*
X185496428Y-130365000D01*
X185610714Y-130307857D01*
X185725000Y-130307857D01*
X186639285Y-131107857D02*
X186639285Y-129907857D01*
X186639285Y-131050714D02*
X186525000Y-131107857D01*
X186296428Y-131107857D01*
X186182142Y-131050714D01*
X186125000Y-130993571D01*
X186067857Y-130879285D01*
X186067857Y-130536428D01*
X186125000Y-130422142D01*
X186182142Y-130365000D01*
X186296428Y-130307857D01*
X186525000Y-130307857D01*
X186639285Y-130365000D01*
X188467857Y-131565000D02*
X188410714Y-131507857D01*
X188296428Y-131336428D01*
X188239285Y-131222142D01*
X188182142Y-131050714D01*
X188125000Y-130765000D01*
X188125000Y-130536428D01*
X188182142Y-130250714D01*
X188239285Y-130079285D01*
X188296428Y-129965000D01*
X188410714Y-129793571D01*
X188467857Y-129736428D01*
X188925000Y-131107857D02*
X188925000Y-129907857D01*
X189382142Y-129907857D01*
X189496428Y-129965000D01*
X189553571Y-130022142D01*
X189610714Y-130136428D01*
X189610714Y-130307857D01*
X189553571Y-130422142D01*
X189496428Y-130479285D01*
X189382142Y-130536428D01*
X188925000Y-130536428D01*
X190296428Y-131107857D02*
X190182142Y-131050714D01*
X190125000Y-130993571D01*
X190067857Y-130879285D01*
X190067857Y-130536428D01*
X190125000Y-130422142D01*
X190182142Y-130365000D01*
X190296428Y-130307857D01*
X190467857Y-130307857D01*
X190582142Y-130365000D01*
X190639285Y-130422142D01*
X190696428Y-130536428D01*
X190696428Y-130879285D01*
X190639285Y-130993571D01*
X190582142Y-131050714D01*
X190467857Y-131107857D01*
X190296428Y-131107857D01*
X191096428Y-130307857D02*
X191325000Y-131107857D01*
X191553571Y-130536428D01*
X191782142Y-131107857D01*
X192010714Y-130307857D01*
X192925000Y-131050714D02*
X192810714Y-131107857D01*
X192582142Y-131107857D01*
X192467857Y-131050714D01*
X192410714Y-130936428D01*
X192410714Y-130479285D01*
X192467857Y-130365000D01*
X192582142Y-130307857D01*
X192810714Y-130307857D01*
X192925000Y-130365000D01*
X192982142Y-130479285D01*
X192982142Y-130593571D01*
X192410714Y-130707857D01*
X193496428Y-131107857D02*
X193496428Y-130307857D01*
X193496428Y-130536428D02*
X193553571Y-130422142D01*
X193610714Y-130365000D01*
X193725000Y-130307857D01*
X193839285Y-130307857D01*
X194125000Y-131565000D02*
X194182142Y-131507857D01*
X194296428Y-131336428D01*
X194353571Y-131222142D01*
X194410714Y-131050714D01*
X194467857Y-130765000D01*
X194467857Y-130536428D01*
X194410714Y-130250714D01*
X194353571Y-130079285D01*
X194296428Y-129965000D01*
X194182142Y-129793571D01*
X194125000Y-129736428D01*
X195782142Y-129907857D02*
X196182142Y-131107857D01*
X196582142Y-129907857D01*
X197610714Y-131107857D02*
X196925000Y-131107857D01*
X197267857Y-131107857D02*
X197267857Y-129907857D01*
X197153571Y-130079285D01*
X197039285Y-130193571D01*
X196925000Y-130250714D01*
D12*
X240467619Y-121261142D02*
X240420000Y-121308761D01*
X240277142Y-121356380D01*
X240181904Y-121356380D01*
X240039047Y-121308761D01*
X239943809Y-121213523D01*
X239896190Y-121118285D01*
X239848571Y-120927809D01*
X239848571Y-120784952D01*
X239896190Y-120594476D01*
X239943809Y-120499238D01*
X240039047Y-120404000D01*
X240181904Y-120356380D01*
X240277142Y-120356380D01*
X240420000Y-120404000D01*
X240467619Y-120451619D01*
X241039047Y-121356380D02*
X240943809Y-121308761D01*
X240896190Y-121261142D01*
X240848571Y-121165904D01*
X240848571Y-120880190D01*
X240896190Y-120784952D01*
X240943809Y-120737333D01*
X241039047Y-120689714D01*
X241181904Y-120689714D01*
X241277142Y-120737333D01*
X241324761Y-120784952D01*
X241372380Y-120880190D01*
X241372380Y-121165904D01*
X241324761Y-121261142D01*
X241277142Y-121308761D01*
X241181904Y-121356380D01*
X241039047Y-121356380D01*
X241943809Y-121356380D02*
X241848571Y-121308761D01*
X241800952Y-121261142D01*
X241753333Y-121165904D01*
X241753333Y-120880190D01*
X241800952Y-120784952D01*
X241848571Y-120737333D01*
X241943809Y-120689714D01*
X242086666Y-120689714D01*
X242181904Y-120737333D01*
X242229523Y-120784952D01*
X242277142Y-120880190D01*
X242277142Y-121165904D01*
X242229523Y-121261142D01*
X242181904Y-121308761D01*
X242086666Y-121356380D01*
X241943809Y-121356380D01*
X242848571Y-121356380D02*
X242753333Y-121308761D01*
X242705714Y-121213523D01*
X242705714Y-120356380D01*
X243229523Y-121356380D02*
X243229523Y-120689714D01*
X243229523Y-120356380D02*
X243181904Y-120404000D01*
X243229523Y-120451619D01*
X243277142Y-120404000D01*
X243229523Y-120356380D01*
X243229523Y-120451619D01*
X243705714Y-120689714D02*
X243705714Y-121356380D01*
X243705714Y-120784952D02*
X243753333Y-120737333D01*
X243848571Y-120689714D01*
X243991428Y-120689714D01*
X244086666Y-120737333D01*
X244134285Y-120832571D01*
X244134285Y-121356380D01*
X245039047Y-120689714D02*
X245039047Y-121499238D01*
X244991428Y-121594476D01*
X244943809Y-121642095D01*
X244848571Y-121689714D01*
X244705714Y-121689714D01*
X244610476Y-121642095D01*
X245039047Y-121308761D02*
X244943809Y-121356380D01*
X244753333Y-121356380D01*
X244658095Y-121308761D01*
X244610476Y-121261142D01*
X244562857Y-121165904D01*
X244562857Y-120880190D01*
X244610476Y-120784952D01*
X244658095Y-120737333D01*
X244753333Y-120689714D01*
X244943809Y-120689714D01*
X245039047Y-120737333D01*
X246134285Y-120689714D02*
X246515238Y-120689714D01*
X246277142Y-121356380D02*
X246277142Y-120499238D01*
X246324761Y-120404000D01*
X246420000Y-120356380D01*
X246515238Y-120356380D01*
X247277142Y-121356380D02*
X247277142Y-120832571D01*
X247229523Y-120737333D01*
X247134285Y-120689714D01*
X246943809Y-120689714D01*
X246848571Y-120737333D01*
X247277142Y-121308761D02*
X247181904Y-121356380D01*
X246943809Y-121356380D01*
X246848571Y-121308761D01*
X246800952Y-121213523D01*
X246800952Y-121118285D01*
X246848571Y-121023047D01*
X246943809Y-120975428D01*
X247181904Y-120975428D01*
X247277142Y-120927809D01*
X247753333Y-120689714D02*
X247753333Y-121356380D01*
X247753333Y-120784952D02*
X247800952Y-120737333D01*
X247896190Y-120689714D01*
X248039047Y-120689714D01*
X248134285Y-120737333D01*
X248181904Y-120832571D01*
X248181904Y-121356380D01*
X248610476Y-121308761D02*
X248705714Y-121356380D01*
X248896190Y-121356380D01*
X248991428Y-121308761D01*
X249039047Y-121213523D01*
X249039047Y-121165904D01*
X248991428Y-121070666D01*
X248896190Y-121023047D01*
X248753333Y-121023047D01*
X248658095Y-120975428D01*
X248610476Y-120880190D01*
X248610476Y-120832571D01*
X248658095Y-120737333D01*
X248753333Y-120689714D01*
X248896190Y-120689714D01*
X248991428Y-120737333D01*
X250658095Y-121308761D02*
X250562857Y-121356380D01*
X250372380Y-121356380D01*
X250277142Y-121308761D01*
X250229523Y-121261142D01*
X250181904Y-121165904D01*
X250181904Y-120880190D01*
X250229523Y-120784952D01*
X250277142Y-120737333D01*
X250372380Y-120689714D01*
X250562857Y-120689714D01*
X250658095Y-120737333D01*
X251229523Y-121356380D02*
X251134285Y-121308761D01*
X251086666Y-121261142D01*
X251039047Y-121165904D01*
X251039047Y-120880190D01*
X251086666Y-120784952D01*
X251134285Y-120737333D01*
X251229523Y-120689714D01*
X251372380Y-120689714D01*
X251467619Y-120737333D01*
X251515238Y-120784952D01*
X251562857Y-120880190D01*
X251562857Y-121165904D01*
X251515238Y-121261142D01*
X251467619Y-121308761D01*
X251372380Y-121356380D01*
X251229523Y-121356380D01*
X251991428Y-120689714D02*
X251991428Y-121356380D01*
X251991428Y-120784952D02*
X252039047Y-120737333D01*
X252134285Y-120689714D01*
X252277142Y-120689714D01*
X252372380Y-120737333D01*
X252419999Y-120832571D01*
X252419999Y-121356380D01*
X252896190Y-120689714D02*
X252896190Y-121356380D01*
X252896190Y-120784952D02*
X252943809Y-120737333D01*
X253039047Y-120689714D01*
X253181904Y-120689714D01*
X253277142Y-120737333D01*
X253324761Y-120832571D01*
X253324761Y-121356380D01*
X254181904Y-121308761D02*
X254086666Y-121356380D01*
X253896190Y-121356380D01*
X253800952Y-121308761D01*
X253753333Y-121213523D01*
X253753333Y-120832571D01*
X253800952Y-120737333D01*
X253896190Y-120689714D01*
X254086666Y-120689714D01*
X254181904Y-120737333D01*
X254229523Y-120832571D01*
X254229523Y-120927809D01*
X253753333Y-121023047D01*
X255086666Y-121308761D02*
X254991428Y-121356380D01*
X254800952Y-121356380D01*
X254705714Y-121308761D01*
X254658095Y-121261142D01*
X254610476Y-121165904D01*
X254610476Y-120880190D01*
X254658095Y-120784952D01*
X254705714Y-120737333D01*
X254800952Y-120689714D01*
X254991428Y-120689714D01*
X255086666Y-120737333D01*
X255372380Y-120689714D02*
X255753333Y-120689714D01*
X255515238Y-120356380D02*
X255515238Y-121213523D01*
X255562857Y-121308761D01*
X255658095Y-121356380D01*
X255753333Y-121356380D01*
X256229523Y-121356380D02*
X256134285Y-121308761D01*
X256086666Y-121261142D01*
X256039047Y-121165904D01*
X256039047Y-120880190D01*
X256086666Y-120784952D01*
X256134285Y-120737333D01*
X256229523Y-120689714D01*
X256372380Y-120689714D01*
X256467619Y-120737333D01*
X256515238Y-120784952D01*
X256562857Y-120880190D01*
X256562857Y-121165904D01*
X256515238Y-121261142D01*
X256467619Y-121308761D01*
X256372380Y-121356380D01*
X256229523Y-121356380D01*
X256991428Y-121356380D02*
X256991428Y-120689714D01*
X256991428Y-120880190D02*
X257039047Y-120784952D01*
X257086666Y-120737333D01*
X257181904Y-120689714D01*
X257277142Y-120689714D01*
X257562857Y-121308761D02*
X257658095Y-121356380D01*
X257848571Y-121356380D01*
X257943809Y-121308761D01*
X257991428Y-121213523D01*
X257991428Y-121165904D01*
X257943809Y-121070666D01*
X257848571Y-121023047D01*
X257705714Y-121023047D01*
X257610476Y-120975428D01*
X257562857Y-120880190D01*
X257562857Y-120832571D01*
X257610476Y-120737333D01*
X257705714Y-120689714D01*
X257848571Y-120689714D01*
X257943809Y-120737333D01*
D11*
X240792000Y-119888000D02*
X240792000Y-117348000D01*
X257048000Y-119888000D02*
X240792000Y-119888000D01*
X257048000Y-117348000D02*
X257048000Y-119888000D01*
D15*
X249174000Y-114363500D02*
G75*
G03*
X249174000Y-114363500I-762000J0D01*
G01*
X242062000Y-114363500D02*
G75*
G03*
X242062000Y-114363500I-762000J0D01*
G01*
X242062000Y-107759500D02*
G75*
G03*
X242062000Y-107759500I-762000J0D01*
G01*
X249174000Y-107759500D02*
G75*
G03*
X249174000Y-107759500I-762000J0D01*
G01*
X249174000Y-101155500D02*
G75*
G03*
X249174000Y-101155500I-762000J0D01*
G01*
X249174000Y-94488000D02*
G75*
G03*
X249174000Y-94488000I-762000J0D01*
G01*
X242062000Y-101155500D02*
G75*
G03*
X242062000Y-101155500I-762000J0D01*
G01*
X242062000Y-94488000D02*
G75*
G03*
X242062000Y-94488000I-762000J0D01*
G01*
D12*
X248031047Y-94559428D02*
X248792952Y-94559428D01*
X248412000Y-94940380D02*
X248412000Y-94178476D01*
X240919047Y-94495928D02*
X241680952Y-94495928D01*
X241300000Y-94876880D02*
X241300000Y-94114976D01*
X240919047Y-101163428D02*
X241680952Y-101163428D01*
X241300000Y-101544380D02*
X241300000Y-100782476D01*
X248031047Y-101163428D02*
X248792952Y-101163428D01*
X248412000Y-101544380D02*
X248412000Y-100782476D01*
X248031047Y-107767428D02*
X248792952Y-107767428D01*
X248412000Y-108148380D02*
X248412000Y-107386476D01*
X248031047Y-114371428D02*
X248792952Y-114371428D01*
X248412000Y-114752380D02*
X248412000Y-113990476D01*
X240919047Y-114371428D02*
X241680952Y-114371428D01*
X241300000Y-114752380D02*
X241300000Y-113990476D01*
X240919047Y-107767428D02*
X241680952Y-107767428D01*
X241300000Y-108148380D02*
X241300000Y-107386476D01*
D16*
%TO.C,REF\u002A\u002A*%
G36*
X205048886Y-131489505D02*
G01*
X205123539Y-131526727D01*
X205189431Y-131595261D01*
X205207577Y-131620648D01*
X205227345Y-131653866D01*
X205240172Y-131689945D01*
X205247510Y-131738098D01*
X205250813Y-131807536D01*
X205251538Y-131899206D01*
X205248263Y-132024830D01*
X205236877Y-132119154D01*
X205215041Y-132189523D01*
X205180419Y-132243286D01*
X205130670Y-132287788D01*
X205127014Y-132290423D01*
X205077985Y-132317377D01*
X205018945Y-132330712D01*
X204943859Y-132334000D01*
X204821795Y-132334000D01*
X204821744Y-132452497D01*
X204820608Y-132518492D01*
X204813686Y-132557202D01*
X204795598Y-132580419D01*
X204760962Y-132599933D01*
X204752645Y-132603920D01*
X204713720Y-132622603D01*
X204683583Y-132634403D01*
X204661174Y-132635422D01*
X204645433Y-132621761D01*
X204635302Y-132589522D01*
X204629723Y-132534804D01*
X204627635Y-132453711D01*
X204627981Y-132342344D01*
X204629700Y-132196802D01*
X204630237Y-132153269D01*
X204632172Y-132003205D01*
X204633904Y-131905042D01*
X204821692Y-131905042D01*
X204822748Y-131988364D01*
X204827438Y-132042880D01*
X204838051Y-132078837D01*
X204856872Y-132106482D01*
X204869650Y-132119965D01*
X204921890Y-132159417D01*
X204968142Y-132162628D01*
X205015867Y-132130049D01*
X205017077Y-132128846D01*
X205036494Y-132103668D01*
X205048307Y-132069447D01*
X205054265Y-132016748D01*
X205056120Y-131936131D01*
X205056154Y-131918271D01*
X205051670Y-131807175D01*
X205037074Y-131730161D01*
X205010650Y-131683147D01*
X204970683Y-131662050D01*
X204947584Y-131659923D01*
X204892762Y-131669900D01*
X204855158Y-131702752D01*
X204832523Y-131762857D01*
X204822606Y-131854598D01*
X204821692Y-131905042D01*
X204633904Y-131905042D01*
X204634222Y-131887060D01*
X204636873Y-131799679D01*
X204640606Y-131735905D01*
X204645907Y-131690582D01*
X204653258Y-131658555D01*
X204663143Y-131634668D01*
X204676046Y-131613764D01*
X204681579Y-131605898D01*
X204754969Y-131531595D01*
X204847760Y-131489467D01*
X204955096Y-131477722D01*
X205048886Y-131489505D01*
G37*
X205048886Y-131489505D02*
X205123539Y-131526727D01*
X205189431Y-131595261D01*
X205207577Y-131620648D01*
X205227345Y-131653866D01*
X205240172Y-131689945D01*
X205247510Y-131738098D01*
X205250813Y-131807536D01*
X205251538Y-131899206D01*
X205248263Y-132024830D01*
X205236877Y-132119154D01*
X205215041Y-132189523D01*
X205180419Y-132243286D01*
X205130670Y-132287788D01*
X205127014Y-132290423D01*
X205077985Y-132317377D01*
X205018945Y-132330712D01*
X204943859Y-132334000D01*
X204821795Y-132334000D01*
X204821744Y-132452497D01*
X204820608Y-132518492D01*
X204813686Y-132557202D01*
X204795598Y-132580419D01*
X204760962Y-132599933D01*
X204752645Y-132603920D01*
X204713720Y-132622603D01*
X204683583Y-132634403D01*
X204661174Y-132635422D01*
X204645433Y-132621761D01*
X204635302Y-132589522D01*
X204629723Y-132534804D01*
X204627635Y-132453711D01*
X204627981Y-132342344D01*
X204629700Y-132196802D01*
X204630237Y-132153269D01*
X204632172Y-132003205D01*
X204633904Y-131905042D01*
X204821692Y-131905042D01*
X204822748Y-131988364D01*
X204827438Y-132042880D01*
X204838051Y-132078837D01*
X204856872Y-132106482D01*
X204869650Y-132119965D01*
X204921890Y-132159417D01*
X204968142Y-132162628D01*
X205015867Y-132130049D01*
X205017077Y-132128846D01*
X205036494Y-132103668D01*
X205048307Y-132069447D01*
X205054265Y-132016748D01*
X205056120Y-131936131D01*
X205056154Y-131918271D01*
X205051670Y-131807175D01*
X205037074Y-131730161D01*
X205010650Y-131683147D01*
X204970683Y-131662050D01*
X204947584Y-131659923D01*
X204892762Y-131669900D01*
X204855158Y-131702752D01*
X204832523Y-131762857D01*
X204822606Y-131854598D01*
X204821692Y-131905042D01*
X204633904Y-131905042D01*
X204634222Y-131887060D01*
X204636873Y-131799679D01*
X204640606Y-131735905D01*
X204645907Y-131690582D01*
X204653258Y-131658555D01*
X204663143Y-131634668D01*
X204676046Y-131613764D01*
X204681579Y-131605898D01*
X204754969Y-131531595D01*
X204847760Y-131489467D01*
X204955096Y-131477722D01*
X205048886Y-131489505D01*
G36*
X206551664Y-131500089D02*
G01*
X206614367Y-131536358D01*
X206657961Y-131572358D01*
X206689845Y-131610075D01*
X206711810Y-131656199D01*
X206725649Y-131717421D01*
X206733153Y-131800431D01*
X206736117Y-131911919D01*
X206736461Y-131992062D01*
X206736461Y-132287065D01*
X206570385Y-132361515D01*
X206560615Y-132038402D01*
X206556579Y-131917729D01*
X206552344Y-131830141D01*
X206547097Y-131769650D01*
X206540025Y-131730268D01*
X206530311Y-131706007D01*
X206517144Y-131690880D01*
X206512919Y-131687606D01*
X206448909Y-131662034D01*
X206384208Y-131672153D01*
X206345692Y-131699000D01*
X206330025Y-131718024D01*
X206319180Y-131742988D01*
X206312288Y-131780834D01*
X206308479Y-131838502D01*
X206306883Y-131922935D01*
X206306615Y-132010928D01*
X206306563Y-132121323D01*
X206304672Y-132199463D01*
X206298345Y-132252165D01*
X206284983Y-132286242D01*
X206261985Y-132308511D01*
X206226754Y-132325787D01*
X206179697Y-132343738D01*
X206128303Y-132363278D01*
X206134421Y-132016485D01*
X206136884Y-131891468D01*
X206139767Y-131799082D01*
X206143898Y-131732881D01*
X206150107Y-131686420D01*
X206159226Y-131653256D01*
X206172083Y-131626944D01*
X206187584Y-131603729D01*
X206262371Y-131529569D01*
X206353628Y-131486684D01*
X206452883Y-131476412D01*
X206551664Y-131500089D01*
G37*
X206551664Y-131500089D02*
X206614367Y-131536358D01*
X206657961Y-131572358D01*
X206689845Y-131610075D01*
X206711810Y-131656199D01*
X206725649Y-131717421D01*
X206733153Y-131800431D01*
X206736117Y-131911919D01*
X206736461Y-131992062D01*
X206736461Y-132287065D01*
X206570385Y-132361515D01*
X206560615Y-132038402D01*
X206556579Y-131917729D01*
X206552344Y-131830141D01*
X206547097Y-131769650D01*
X206540025Y-131730268D01*
X206530311Y-131706007D01*
X206517144Y-131690880D01*
X206512919Y-131687606D01*
X206448909Y-131662034D01*
X206384208Y-131672153D01*
X206345692Y-131699000D01*
X206330025Y-131718024D01*
X206319180Y-131742988D01*
X206312288Y-131780834D01*
X206308479Y-131838502D01*
X206306883Y-131922935D01*
X206306615Y-132010928D01*
X206306563Y-132121323D01*
X206304672Y-132199463D01*
X206298345Y-132252165D01*
X206284983Y-132286242D01*
X206261985Y-132308511D01*
X206226754Y-132325787D01*
X206179697Y-132343738D01*
X206128303Y-132363278D01*
X206134421Y-132016485D01*
X206136884Y-131891468D01*
X206139767Y-131799082D01*
X206143898Y-131732881D01*
X206150107Y-131686420D01*
X206159226Y-131653256D01*
X206172083Y-131626944D01*
X206187584Y-131603729D01*
X206262371Y-131529569D01*
X206353628Y-131486684D01*
X206452883Y-131476412D01*
X206551664Y-131500089D01*
G36*
X204296886Y-131492256D02*
G01*
X204388464Y-131540409D01*
X204456049Y-131617905D01*
X204480057Y-131667727D01*
X204498738Y-131742533D01*
X204508301Y-131837052D01*
X204509208Y-131940210D01*
X204501921Y-132040935D01*
X204486903Y-132128153D01*
X204464615Y-132190791D01*
X204457765Y-132201579D01*
X204376632Y-132282105D01*
X204280266Y-132330336D01*
X204175701Y-132344450D01*
X204069968Y-132322629D01*
X204040543Y-132309547D01*
X203983241Y-132269231D01*
X203932950Y-132215775D01*
X203928197Y-132208995D01*
X203908878Y-132176321D01*
X203896108Y-132141394D01*
X203888564Y-132095414D01*
X203884924Y-132029584D01*
X203883865Y-131935105D01*
X203883846Y-131913923D01*
X203883894Y-131907182D01*
X204079231Y-131907182D01*
X204080368Y-131996349D01*
X204084841Y-132055520D01*
X204094246Y-132093741D01*
X204110176Y-132120053D01*
X204118308Y-132128846D01*
X204165058Y-132162261D01*
X204210447Y-132160737D01*
X204256340Y-132131752D01*
X204283712Y-132100809D01*
X204299923Y-132055643D01*
X204309026Y-131984420D01*
X204309651Y-131976114D01*
X204311204Y-131847037D01*
X204294965Y-131751172D01*
X204261152Y-131689107D01*
X204209984Y-131661432D01*
X204191720Y-131659923D01*
X204143760Y-131667513D01*
X204110953Y-131693808D01*
X204090895Y-131744095D01*
X204081178Y-131823664D01*
X204079231Y-131907182D01*
X203883894Y-131907182D01*
X203884574Y-131813249D01*
X203887629Y-131742906D01*
X203894322Y-131694163D01*
X203905960Y-131658288D01*
X203923853Y-131626548D01*
X203927808Y-131620648D01*
X203994267Y-131541104D01*
X204066685Y-131494929D01*
X204154849Y-131476599D01*
X204184787Y-131475703D01*
X204296886Y-131492256D01*
G37*
X204296886Y-131492256D02*
X204388464Y-131540409D01*
X204456049Y-131617905D01*
X204480057Y-131667727D01*
X204498738Y-131742533D01*
X204508301Y-131837052D01*
X204509208Y-131940210D01*
X204501921Y-132040935D01*
X204486903Y-132128153D01*
X204464615Y-132190791D01*
X204457765Y-132201579D01*
X204376632Y-132282105D01*
X204280266Y-132330336D01*
X204175701Y-132344450D01*
X204069968Y-132322629D01*
X204040543Y-132309547D01*
X203983241Y-132269231D01*
X203932950Y-132215775D01*
X203928197Y-132208995D01*
X203908878Y-132176321D01*
X203896108Y-132141394D01*
X203888564Y-132095414D01*
X203884924Y-132029584D01*
X203883865Y-131935105D01*
X203883846Y-131913923D01*
X203883894Y-131907182D01*
X204079231Y-131907182D01*
X204080368Y-131996349D01*
X204084841Y-132055520D01*
X204094246Y-132093741D01*
X204110176Y-132120053D01*
X204118308Y-132128846D01*
X204165058Y-132162261D01*
X204210447Y-132160737D01*
X204256340Y-132131752D01*
X204283712Y-132100809D01*
X204299923Y-132055643D01*
X204309026Y-131984420D01*
X204309651Y-131976114D01*
X204311204Y-131847037D01*
X204294965Y-131751172D01*
X204261152Y-131689107D01*
X204209984Y-131661432D01*
X204191720Y-131659923D01*
X204143760Y-131667513D01*
X204110953Y-131693808D01*
X204090895Y-131744095D01*
X204081178Y-131823664D01*
X204079231Y-131907182D01*
X203883894Y-131907182D01*
X203884574Y-131813249D01*
X203887629Y-131742906D01*
X203894322Y-131694163D01*
X203905960Y-131658288D01*
X203923853Y-131626548D01*
X203927808Y-131620648D01*
X203994267Y-131541104D01*
X204066685Y-131494929D01*
X204154849Y-131476599D01*
X204184787Y-131475703D01*
X204296886Y-131492256D01*
G36*
X205814254Y-131504745D02*
G01*
X205891286Y-131556567D01*
X205950816Y-131631412D01*
X205986378Y-131726654D01*
X205993571Y-131796756D01*
X205992754Y-131826009D01*
X205985914Y-131848407D01*
X205967112Y-131868474D01*
X205930408Y-131890733D01*
X205869862Y-131919709D01*
X205779534Y-131959927D01*
X205779077Y-131960129D01*
X205695933Y-131998210D01*
X205627753Y-132032025D01*
X205581505Y-132057933D01*
X205564158Y-132072295D01*
X205564154Y-132072411D01*
X205579443Y-132103685D01*
X205615196Y-132138157D01*
X205656242Y-132162990D01*
X205677037Y-132167923D01*
X205733770Y-132150862D01*
X205782627Y-132108133D01*
X205806465Y-132061155D01*
X205829397Y-132026522D01*
X205874318Y-131987081D01*
X205927123Y-131953009D01*
X205973710Y-131934480D01*
X205983452Y-131933462D01*
X205994418Y-131950215D01*
X205995079Y-131993039D01*
X205987020Y-132050781D01*
X205971827Y-132112289D01*
X205951086Y-132166409D01*
X205950038Y-132168510D01*
X205887621Y-132255660D01*
X205806726Y-132314939D01*
X205714856Y-132344034D01*
X205619513Y-132340634D01*
X205528198Y-132302428D01*
X205524138Y-132299741D01*
X205452306Y-132234642D01*
X205405073Y-132149705D01*
X205378934Y-132038021D01*
X205375426Y-132006643D01*
X205369213Y-131858536D01*
X205376661Y-131789468D01*
X205564154Y-131789468D01*
X205566590Y-131832552D01*
X205579914Y-131845126D01*
X205613132Y-131835719D01*
X205665494Y-131813483D01*
X205724024Y-131785610D01*
X205725479Y-131784872D01*
X205775089Y-131758777D01*
X205795000Y-131741363D01*
X205790090Y-131723107D01*
X205769416Y-131699120D01*
X205716819Y-131664406D01*
X205660177Y-131661856D01*
X205609369Y-131687119D01*
X205574276Y-131735847D01*
X205564154Y-131789468D01*
X205376661Y-131789468D01*
X205381992Y-131740036D01*
X205414778Y-131646055D01*
X205460421Y-131580215D01*
X205542802Y-131513681D01*
X205633546Y-131480676D01*
X205726185Y-131478573D01*
X205814254Y-131504745D01*
G37*
X205814254Y-131504745D02*
X205891286Y-131556567D01*
X205950816Y-131631412D01*
X205986378Y-131726654D01*
X205993571Y-131796756D01*
X205992754Y-131826009D01*
X205985914Y-131848407D01*
X205967112Y-131868474D01*
X205930408Y-131890733D01*
X205869862Y-131919709D01*
X205779534Y-131959927D01*
X205779077Y-131960129D01*
X205695933Y-131998210D01*
X205627753Y-132032025D01*
X205581505Y-132057933D01*
X205564158Y-132072295D01*
X205564154Y-132072411D01*
X205579443Y-132103685D01*
X205615196Y-132138157D01*
X205656242Y-132162990D01*
X205677037Y-132167923D01*
X205733770Y-132150862D01*
X205782627Y-132108133D01*
X205806465Y-132061155D01*
X205829397Y-132026522D01*
X205874318Y-131987081D01*
X205927123Y-131953009D01*
X205973710Y-131934480D01*
X205983452Y-131933462D01*
X205994418Y-131950215D01*
X205995079Y-131993039D01*
X205987020Y-132050781D01*
X205971827Y-132112289D01*
X205951086Y-132166409D01*
X205950038Y-132168510D01*
X205887621Y-132255660D01*
X205806726Y-132314939D01*
X205714856Y-132344034D01*
X205619513Y-132340634D01*
X205528198Y-132302428D01*
X205524138Y-132299741D01*
X205452306Y-132234642D01*
X205405073Y-132149705D01*
X205378934Y-132038021D01*
X205375426Y-132006643D01*
X205369213Y-131858536D01*
X205376661Y-131789468D01*
X205564154Y-131789468D01*
X205566590Y-131832552D01*
X205579914Y-131845126D01*
X205613132Y-131835719D01*
X205665494Y-131813483D01*
X205724024Y-131785610D01*
X205725479Y-131784872D01*
X205775089Y-131758777D01*
X205795000Y-131741363D01*
X205790090Y-131723107D01*
X205769416Y-131699120D01*
X205716819Y-131664406D01*
X205660177Y-131661856D01*
X205609369Y-131687119D01*
X205574276Y-131735847D01*
X205564154Y-131789468D01*
X205376661Y-131789468D01*
X205381992Y-131740036D01*
X205414778Y-131646055D01*
X205460421Y-131580215D01*
X205542802Y-131513681D01*
X205633546Y-131480676D01*
X205726185Y-131478573D01*
X205814254Y-131504745D01*
G36*
X207439846Y-131397120D02*
G01*
X207445572Y-131476980D01*
X207452149Y-131524039D01*
X207461262Y-131544566D01*
X207474598Y-131544829D01*
X207478923Y-131542378D01*
X207536444Y-131524636D01*
X207611268Y-131525672D01*
X207687339Y-131543910D01*
X207734918Y-131567505D01*
X207783702Y-131605198D01*
X207819364Y-131647855D01*
X207843845Y-131702057D01*
X207859087Y-131774384D01*
X207867030Y-131871419D01*
X207869616Y-131999742D01*
X207869662Y-132024358D01*
X207869692Y-132300870D01*
X207808161Y-132322320D01*
X207764459Y-132336912D01*
X207740482Y-132343706D01*
X207739777Y-132343769D01*
X207737415Y-132325345D01*
X207735406Y-132274526D01*
X207733901Y-132197993D01*
X207733053Y-132102430D01*
X207732923Y-132044329D01*
X207732651Y-131929771D01*
X207731252Y-131847667D01*
X207727849Y-131791393D01*
X207721567Y-131754326D01*
X207711529Y-131729844D01*
X207696861Y-131711325D01*
X207687702Y-131702406D01*
X207624789Y-131666466D01*
X207556136Y-131663775D01*
X207493848Y-131694170D01*
X207482329Y-131705144D01*
X207465433Y-131725779D01*
X207453714Y-131750256D01*
X207446233Y-131785647D01*
X207442054Y-131839026D01*
X207440237Y-131917466D01*
X207439846Y-132025617D01*
X207439846Y-132300870D01*
X207378315Y-132322320D01*
X207334613Y-132336912D01*
X207310636Y-132343706D01*
X207309930Y-132343769D01*
X207308126Y-132325069D01*
X207306500Y-132272322D01*
X207305117Y-132190557D01*
X207304042Y-132084805D01*
X207303340Y-131960094D01*
X207303077Y-131821455D01*
X207303077Y-131286806D01*
X207430077Y-131233236D01*
X207439846Y-131397120D01*
G37*
X207439846Y-131397120D02*
X207445572Y-131476980D01*
X207452149Y-131524039D01*
X207461262Y-131544566D01*
X207474598Y-131544829D01*
X207478923Y-131542378D01*
X207536444Y-131524636D01*
X207611268Y-131525672D01*
X207687339Y-131543910D01*
X207734918Y-131567505D01*
X207783702Y-131605198D01*
X207819364Y-131647855D01*
X207843845Y-131702057D01*
X207859087Y-131774384D01*
X207867030Y-131871419D01*
X207869616Y-131999742D01*
X207869662Y-132024358D01*
X207869692Y-132300870D01*
X207808161Y-132322320D01*
X207764459Y-132336912D01*
X207740482Y-132343706D01*
X207739777Y-132343769D01*
X207737415Y-132325345D01*
X207735406Y-132274526D01*
X207733901Y-132197993D01*
X207733053Y-132102430D01*
X207732923Y-132044329D01*
X207732651Y-131929771D01*
X207731252Y-131847667D01*
X207727849Y-131791393D01*
X207721567Y-131754326D01*
X207711529Y-131729844D01*
X207696861Y-131711325D01*
X207687702Y-131702406D01*
X207624789Y-131666466D01*
X207556136Y-131663775D01*
X207493848Y-131694170D01*
X207482329Y-131705144D01*
X207465433Y-131725779D01*
X207453714Y-131750256D01*
X207446233Y-131785647D01*
X207442054Y-131839026D01*
X207440237Y-131917466D01*
X207439846Y-132025617D01*
X207439846Y-132300870D01*
X207378315Y-132322320D01*
X207334613Y-132336912D01*
X207310636Y-132343706D01*
X207309930Y-132343769D01*
X207308126Y-132325069D01*
X207306500Y-132272322D01*
X207305117Y-132190557D01*
X207304042Y-132084805D01*
X207303340Y-131960094D01*
X207303077Y-131821455D01*
X207303077Y-131286806D01*
X207430077Y-131233236D01*
X207439846Y-131397120D01*
G36*
X208333501Y-131531303D02*
G01*
X208410060Y-131559733D01*
X208410936Y-131560279D01*
X208458285Y-131595127D01*
X208493241Y-131635852D01*
X208517825Y-131688925D01*
X208534062Y-131760814D01*
X208543975Y-131857992D01*
X208549586Y-131986928D01*
X208550077Y-132005298D01*
X208557141Y-132282287D01*
X208497695Y-132313028D01*
X208454681Y-132333802D01*
X208428710Y-132343646D01*
X208427509Y-132343769D01*
X208423014Y-132325606D01*
X208419444Y-132276612D01*
X208417248Y-132205031D01*
X208416769Y-132147068D01*
X208416758Y-132053170D01*
X208412466Y-131994203D01*
X208397503Y-131966079D01*
X208365482Y-131964706D01*
X208310014Y-131985998D01*
X208226269Y-132025136D01*
X208164689Y-132057643D01*
X208133017Y-132085845D01*
X208123706Y-132116582D01*
X208123692Y-132118104D01*
X208139057Y-132171054D01*
X208184547Y-132199660D01*
X208254166Y-132203803D01*
X208304313Y-132203084D01*
X208330754Y-132217527D01*
X208347243Y-132252218D01*
X208356733Y-132296416D01*
X208343057Y-132321493D01*
X208337907Y-132325082D01*
X208289425Y-132339496D01*
X208221531Y-132341537D01*
X208151612Y-132331983D01*
X208102068Y-132314522D01*
X208033570Y-132256364D01*
X207994634Y-132175408D01*
X207986923Y-132112160D01*
X207992807Y-132055111D01*
X208014101Y-132008542D01*
X208056265Y-131967181D01*
X208124759Y-131925755D01*
X208225044Y-131878993D01*
X208231154Y-131876350D01*
X208321490Y-131834617D01*
X208377235Y-131800391D01*
X208401129Y-131769635D01*
X208395913Y-131738311D01*
X208364328Y-131702383D01*
X208354883Y-131694116D01*
X208291617Y-131662058D01*
X208226064Y-131663407D01*
X208168972Y-131694838D01*
X208131093Y-131753024D01*
X208127574Y-131764446D01*
X208093300Y-131819837D01*
X208049809Y-131846518D01*
X207986923Y-131872960D01*
X207986923Y-131804548D01*
X208006052Y-131705110D01*
X208062831Y-131613902D01*
X208092378Y-131583389D01*
X208159542Y-131544228D01*
X208244956Y-131526500D01*
X208333501Y-131531303D01*
G37*
X208333501Y-131531303D02*
X208410060Y-131559733D01*
X208410936Y-131560279D01*
X208458285Y-131595127D01*
X208493241Y-131635852D01*
X208517825Y-131688925D01*
X208534062Y-131760814D01*
X208543975Y-131857992D01*
X208549586Y-131986928D01*
X208550077Y-132005298D01*
X208557141Y-132282287D01*
X208497695Y-132313028D01*
X208454681Y-132333802D01*
X208428710Y-132343646D01*
X208427509Y-132343769D01*
X208423014Y-132325606D01*
X208419444Y-132276612D01*
X208417248Y-132205031D01*
X208416769Y-132147068D01*
X208416758Y-132053170D01*
X208412466Y-131994203D01*
X208397503Y-131966079D01*
X208365482Y-131964706D01*
X208310014Y-131985998D01*
X208226269Y-132025136D01*
X208164689Y-132057643D01*
X208133017Y-132085845D01*
X208123706Y-132116582D01*
X208123692Y-132118104D01*
X208139057Y-132171054D01*
X208184547Y-132199660D01*
X208254166Y-132203803D01*
X208304313Y-132203084D01*
X208330754Y-132217527D01*
X208347243Y-132252218D01*
X208356733Y-132296416D01*
X208343057Y-132321493D01*
X208337907Y-132325082D01*
X208289425Y-132339496D01*
X208221531Y-132341537D01*
X208151612Y-132331983D01*
X208102068Y-132314522D01*
X208033570Y-132256364D01*
X207994634Y-132175408D01*
X207986923Y-132112160D01*
X207992807Y-132055111D01*
X208014101Y-132008542D01*
X208056265Y-131967181D01*
X208124759Y-131925755D01*
X208225044Y-131878993D01*
X208231154Y-131876350D01*
X208321490Y-131834617D01*
X208377235Y-131800391D01*
X208401129Y-131769635D01*
X208395913Y-131738311D01*
X208364328Y-131702383D01*
X208354883Y-131694116D01*
X208291617Y-131662058D01*
X208226064Y-131663407D01*
X208168972Y-131694838D01*
X208131093Y-131753024D01*
X208127574Y-131764446D01*
X208093300Y-131819837D01*
X208049809Y-131846518D01*
X207986923Y-131872960D01*
X207986923Y-131804548D01*
X208006052Y-131705110D01*
X208062831Y-131613902D01*
X208092378Y-131583389D01*
X208159542Y-131544228D01*
X208244956Y-131526500D01*
X208333501Y-131531303D01*
G36*
X208993362Y-131529670D02*
G01*
X209082117Y-131562421D01*
X209154022Y-131620350D01*
X209182144Y-131661128D01*
X209212802Y-131735954D01*
X209212165Y-131790058D01*
X209179987Y-131826446D01*
X209168081Y-131832633D01*
X209116675Y-131851925D01*
X209090422Y-131846982D01*
X209081530Y-131814587D01*
X209081077Y-131796692D01*
X209064797Y-131730859D01*
X209022365Y-131684807D01*
X208963388Y-131662564D01*
X208897475Y-131668161D01*
X208843895Y-131697229D01*
X208825798Y-131713810D01*
X208812971Y-131733925D01*
X208804306Y-131764332D01*
X208798696Y-131811788D01*
X208795035Y-131883050D01*
X208792215Y-131984875D01*
X208791484Y-132017115D01*
X208788820Y-132127410D01*
X208785792Y-132205036D01*
X208781250Y-132256396D01*
X208774046Y-132287890D01*
X208763033Y-132305920D01*
X208747060Y-132316888D01*
X208736834Y-132321733D01*
X208693406Y-132338301D01*
X208667842Y-132343769D01*
X208659395Y-132325507D01*
X208654239Y-132270296D01*
X208652346Y-132177499D01*
X208653689Y-132046478D01*
X208654107Y-132026269D01*
X208657058Y-131906733D01*
X208660548Y-131819449D01*
X208665514Y-131757591D01*
X208672893Y-131714336D01*
X208683624Y-131682860D01*
X208698645Y-131656339D01*
X208706502Y-131644975D01*
X208751553Y-131594692D01*
X208801940Y-131555581D01*
X208808108Y-131552167D01*
X208898458Y-131525212D01*
X208993362Y-131529670D01*
G37*
X208993362Y-131529670D02*
X209082117Y-131562421D01*
X209154022Y-131620350D01*
X209182144Y-131661128D01*
X209212802Y-131735954D01*
X209212165Y-131790058D01*
X209179987Y-131826446D01*
X209168081Y-131832633D01*
X209116675Y-131851925D01*
X209090422Y-131846982D01*
X209081530Y-131814587D01*
X209081077Y-131796692D01*
X209064797Y-131730859D01*
X209022365Y-131684807D01*
X208963388Y-131662564D01*
X208897475Y-131668161D01*
X208843895Y-131697229D01*
X208825798Y-131713810D01*
X208812971Y-131733925D01*
X208804306Y-131764332D01*
X208798696Y-131811788D01*
X208795035Y-131883050D01*
X208792215Y-131984875D01*
X208791484Y-132017115D01*
X208788820Y-132127410D01*
X208785792Y-132205036D01*
X208781250Y-132256396D01*
X208774046Y-132287890D01*
X208763033Y-132305920D01*
X208747060Y-132316888D01*
X208736834Y-132321733D01*
X208693406Y-132338301D01*
X208667842Y-132343769D01*
X208659395Y-132325507D01*
X208654239Y-132270296D01*
X208652346Y-132177499D01*
X208653689Y-132046478D01*
X208654107Y-132026269D01*
X208657058Y-131906733D01*
X208660548Y-131819449D01*
X208665514Y-131757591D01*
X208672893Y-131714336D01*
X208683624Y-131682860D01*
X208698645Y-131656339D01*
X208706502Y-131644975D01*
X208751553Y-131594692D01*
X208801940Y-131555581D01*
X208808108Y-131552167D01*
X208898458Y-131525212D01*
X208993362Y-131529670D01*
G36*
X209882081Y-131685289D02*
G01*
X209881833Y-131831320D01*
X209880872Y-131943655D01*
X209878794Y-132027678D01*
X209875193Y-132088769D01*
X209869665Y-132132309D01*
X209861804Y-132163679D01*
X209851207Y-132188262D01*
X209843182Y-132202294D01*
X209776728Y-132278388D01*
X209692470Y-132326084D01*
X209599249Y-132343199D01*
X209505900Y-132327546D01*
X209450312Y-132299418D01*
X209391957Y-132250760D01*
X209352186Y-132191333D01*
X209328190Y-132113507D01*
X209317161Y-132009652D01*
X209315599Y-131933462D01*
X209315809Y-131927986D01*
X209452308Y-131927986D01*
X209453141Y-132015355D01*
X209456961Y-132073192D01*
X209465746Y-132111029D01*
X209481474Y-132138398D01*
X209500266Y-132159042D01*
X209563375Y-132198890D01*
X209631137Y-132202295D01*
X209695179Y-132169025D01*
X209700164Y-132164517D01*
X209721439Y-132141067D01*
X209734779Y-132113166D01*
X209742001Y-132071641D01*
X209744923Y-132007316D01*
X209745385Y-131936200D01*
X209744383Y-131846858D01*
X209740238Y-131787258D01*
X209731236Y-131748089D01*
X209715667Y-131720040D01*
X209702902Y-131705144D01*
X209643600Y-131667575D01*
X209575301Y-131663057D01*
X209510110Y-131691753D01*
X209497528Y-131702406D01*
X209476111Y-131726063D01*
X209462744Y-131754251D01*
X209455566Y-131796245D01*
X209452719Y-131861319D01*
X209452308Y-131927986D01*
X209315809Y-131927986D01*
X209320322Y-131810765D01*
X209336362Y-131718577D01*
X209366528Y-131649269D01*
X209413629Y-131595211D01*
X209450312Y-131567505D01*
X209516990Y-131537572D01*
X209594272Y-131523678D01*
X209666110Y-131527397D01*
X209706308Y-131542400D01*
X209722082Y-131546670D01*
X209732550Y-131530750D01*
X209739856Y-131488089D01*
X209745385Y-131423106D01*
X209751437Y-131350732D01*
X209759844Y-131307187D01*
X209775141Y-131282287D01*
X209801864Y-131265845D01*
X209818654Y-131258564D01*
X209882154Y-131231963D01*
X209882081Y-131685289D01*
G37*
X209882081Y-131685289D02*
X209881833Y-131831320D01*
X209880872Y-131943655D01*
X209878794Y-132027678D01*
X209875193Y-132088769D01*
X209869665Y-132132309D01*
X209861804Y-132163679D01*
X209851207Y-132188262D01*
X209843182Y-132202294D01*
X209776728Y-132278388D01*
X209692470Y-132326084D01*
X209599249Y-132343199D01*
X209505900Y-132327546D01*
X209450312Y-132299418D01*
X209391957Y-132250760D01*
X209352186Y-132191333D01*
X209328190Y-132113507D01*
X209317161Y-132009652D01*
X209315599Y-131933462D01*
X209315809Y-131927986D01*
X209452308Y-131927986D01*
X209453141Y-132015355D01*
X209456961Y-132073192D01*
X209465746Y-132111029D01*
X209481474Y-132138398D01*
X209500266Y-132159042D01*
X209563375Y-132198890D01*
X209631137Y-132202295D01*
X209695179Y-132169025D01*
X209700164Y-132164517D01*
X209721439Y-132141067D01*
X209734779Y-132113166D01*
X209742001Y-132071641D01*
X209744923Y-132007316D01*
X209745385Y-131936200D01*
X209744383Y-131846858D01*
X209740238Y-131787258D01*
X209731236Y-131748089D01*
X209715667Y-131720040D01*
X209702902Y-131705144D01*
X209643600Y-131667575D01*
X209575301Y-131663057D01*
X209510110Y-131691753D01*
X209497528Y-131702406D01*
X209476111Y-131726063D01*
X209462744Y-131754251D01*
X209455566Y-131796245D01*
X209452719Y-131861319D01*
X209452308Y-131927986D01*
X209315809Y-131927986D01*
X209320322Y-131810765D01*
X209336362Y-131718577D01*
X209366528Y-131649269D01*
X209413629Y-131595211D01*
X209450312Y-131567505D01*
X209516990Y-131537572D01*
X209594272Y-131523678D01*
X209666110Y-131527397D01*
X209706308Y-131542400D01*
X209722082Y-131546670D01*
X209732550Y-131530750D01*
X209739856Y-131488089D01*
X209745385Y-131423106D01*
X209751437Y-131350732D01*
X209759844Y-131307187D01*
X209775141Y-131282287D01*
X209801864Y-131265845D01*
X209818654Y-131258564D01*
X209882154Y-131231963D01*
X209882081Y-131685289D01*
G36*
X210675929Y-131541662D02*
G01*
X210678911Y-131593068D01*
X210681247Y-131671192D01*
X210682749Y-131769857D01*
X210683231Y-131873343D01*
X210683231Y-132223533D01*
X210621401Y-132285363D01*
X210578793Y-132323462D01*
X210541390Y-132338895D01*
X210490270Y-132337918D01*
X210469978Y-132335433D01*
X210406554Y-132328200D01*
X210354095Y-132324055D01*
X210341308Y-132323672D01*
X210298199Y-132326176D01*
X210236544Y-132332462D01*
X210212638Y-132335433D01*
X210153922Y-132340028D01*
X210114464Y-132330046D01*
X210075338Y-132299228D01*
X210061215Y-132285363D01*
X209999385Y-132223533D01*
X209999385Y-131568503D01*
X210049150Y-131545829D01*
X210092002Y-131529034D01*
X210117073Y-131523154D01*
X210123501Y-131541736D01*
X210129509Y-131593655D01*
X210134697Y-131673172D01*
X210138664Y-131774546D01*
X210140577Y-131860192D01*
X210145923Y-132197231D01*
X210192560Y-132203825D01*
X210234976Y-132199214D01*
X210255760Y-132184287D01*
X210261570Y-132156377D01*
X210266530Y-132096925D01*
X210270246Y-132013466D01*
X210272324Y-131913532D01*
X210272624Y-131862104D01*
X210272923Y-131566054D01*
X210334454Y-131544604D01*
X210378004Y-131530020D01*
X210401694Y-131523219D01*
X210402377Y-131523154D01*
X210404754Y-131541642D01*
X210407366Y-131592906D01*
X210409995Y-131670649D01*
X210412421Y-131768574D01*
X210414115Y-131860192D01*
X210419461Y-132197231D01*
X210536692Y-132197231D01*
X210542072Y-131889746D01*
X210547451Y-131582261D01*
X210604601Y-131552707D01*
X210646797Y-131532413D01*
X210671770Y-131523204D01*
X210672491Y-131523154D01*
X210675929Y-131541662D01*
G37*
X210675929Y-131541662D02*
X210678911Y-131593068D01*
X210681247Y-131671192D01*
X210682749Y-131769857D01*
X210683231Y-131873343D01*
X210683231Y-132223533D01*
X210621401Y-132285363D01*
X210578793Y-132323462D01*
X210541390Y-132338895D01*
X210490270Y-132337918D01*
X210469978Y-132335433D01*
X210406554Y-132328200D01*
X210354095Y-132324055D01*
X210341308Y-132323672D01*
X210298199Y-132326176D01*
X210236544Y-132332462D01*
X210212638Y-132335433D01*
X210153922Y-132340028D01*
X210114464Y-132330046D01*
X210075338Y-132299228D01*
X210061215Y-132285363D01*
X209999385Y-132223533D01*
X209999385Y-131568503D01*
X210049150Y-131545829D01*
X210092002Y-131529034D01*
X210117073Y-131523154D01*
X210123501Y-131541736D01*
X210129509Y-131593655D01*
X210134697Y-131673172D01*
X210138664Y-131774546D01*
X210140577Y-131860192D01*
X210145923Y-132197231D01*
X210192560Y-132203825D01*
X210234976Y-132199214D01*
X210255760Y-132184287D01*
X210261570Y-132156377D01*
X210266530Y-132096925D01*
X210270246Y-132013466D01*
X210272324Y-131913532D01*
X210272624Y-131862104D01*
X210272923Y-131566054D01*
X210334454Y-131544604D01*
X210378004Y-131530020D01*
X210401694Y-131523219D01*
X210402377Y-131523154D01*
X210404754Y-131541642D01*
X210407366Y-131592906D01*
X210409995Y-131670649D01*
X210412421Y-131768574D01*
X210414115Y-131860192D01*
X210419461Y-132197231D01*
X210536692Y-132197231D01*
X210542072Y-131889746D01*
X210547451Y-131582261D01*
X210604601Y-131552707D01*
X210646797Y-131532413D01*
X210671770Y-131523204D01*
X210672491Y-131523154D01*
X210675929Y-131541662D01*
G36*
X211167333Y-131538528D02*
G01*
X211223590Y-131564117D01*
X211267747Y-131595124D01*
X211300101Y-131629795D01*
X211322438Y-131674520D01*
X211336546Y-131735692D01*
X211344211Y-131819701D01*
X211347220Y-131932940D01*
X211347538Y-132007509D01*
X211347538Y-132298420D01*
X211297773Y-132321095D01*
X211258576Y-132337667D01*
X211239157Y-132343769D01*
X211235442Y-132325610D01*
X211232495Y-132276648D01*
X211230691Y-132205153D01*
X211230308Y-132148385D01*
X211228661Y-132066371D01*
X211224222Y-132001309D01*
X211217740Y-131961467D01*
X211212590Y-131953000D01*
X211177977Y-131961646D01*
X211123640Y-131983823D01*
X211060722Y-132013886D01*
X211000368Y-132046192D01*
X210953721Y-132075098D01*
X210931926Y-132094961D01*
X210931839Y-132095175D01*
X210933714Y-132131935D01*
X210950525Y-132167026D01*
X210980039Y-132195528D01*
X211023116Y-132205061D01*
X211059932Y-132203950D01*
X211112074Y-132203133D01*
X211139444Y-132215349D01*
X211155882Y-132247624D01*
X211157955Y-132253710D01*
X211165081Y-132299739D01*
X211146024Y-132327687D01*
X211096353Y-132341007D01*
X211042697Y-132343470D01*
X210946142Y-132325210D01*
X210896159Y-132299131D01*
X210834429Y-132237868D01*
X210801690Y-132162670D01*
X210798753Y-132083211D01*
X210826424Y-132009167D01*
X210868047Y-131962769D01*
X210909604Y-131936793D01*
X210974922Y-131903907D01*
X211051038Y-131870557D01*
X211063726Y-131865461D01*
X211147333Y-131828565D01*
X211195530Y-131796046D01*
X211211030Y-131763718D01*
X211196550Y-131727394D01*
X211171692Y-131699000D01*
X211112939Y-131664039D01*
X211048293Y-131661417D01*
X210989008Y-131688358D01*
X210946339Y-131742088D01*
X210940739Y-131755950D01*
X210908133Y-131806936D01*
X210860530Y-131844787D01*
X210800461Y-131875850D01*
X210800461Y-131787768D01*
X210803997Y-131733951D01*
X210819156Y-131691534D01*
X210852768Y-131646279D01*
X210885035Y-131611420D01*
X210935209Y-131562062D01*
X210974193Y-131535547D01*
X211016064Y-131524911D01*
X211063460Y-131523154D01*
X211167333Y-131538528D01*
G37*
X211167333Y-131538528D02*
X211223590Y-131564117D01*
X211267747Y-131595124D01*
X211300101Y-131629795D01*
X211322438Y-131674520D01*
X211336546Y-131735692D01*
X211344211Y-131819701D01*
X211347220Y-131932940D01*
X211347538Y-132007509D01*
X211347538Y-132298420D01*
X211297773Y-132321095D01*
X211258576Y-132337667D01*
X211239157Y-132343769D01*
X211235442Y-132325610D01*
X211232495Y-132276648D01*
X211230691Y-132205153D01*
X211230308Y-132148385D01*
X211228661Y-132066371D01*
X211224222Y-132001309D01*
X211217740Y-131961467D01*
X211212590Y-131953000D01*
X211177977Y-131961646D01*
X211123640Y-131983823D01*
X211060722Y-132013886D01*
X211000368Y-132046192D01*
X210953721Y-132075098D01*
X210931926Y-132094961D01*
X210931839Y-132095175D01*
X210933714Y-132131935D01*
X210950525Y-132167026D01*
X210980039Y-132195528D01*
X211023116Y-132205061D01*
X211059932Y-132203950D01*
X211112074Y-132203133D01*
X211139444Y-132215349D01*
X211155882Y-132247624D01*
X211157955Y-132253710D01*
X211165081Y-132299739D01*
X211146024Y-132327687D01*
X211096353Y-132341007D01*
X211042697Y-132343470D01*
X210946142Y-132325210D01*
X210896159Y-132299131D01*
X210834429Y-132237868D01*
X210801690Y-132162670D01*
X210798753Y-132083211D01*
X210826424Y-132009167D01*
X210868047Y-131962769D01*
X210909604Y-131936793D01*
X210974922Y-131903907D01*
X211051038Y-131870557D01*
X211063726Y-131865461D01*
X211147333Y-131828565D01*
X211195530Y-131796046D01*
X211211030Y-131763718D01*
X211196550Y-131727394D01*
X211171692Y-131699000D01*
X211112939Y-131664039D01*
X211048293Y-131661417D01*
X210989008Y-131688358D01*
X210946339Y-131742088D01*
X210940739Y-131755950D01*
X210908133Y-131806936D01*
X210860530Y-131844787D01*
X210800461Y-131875850D01*
X210800461Y-131787768D01*
X210803997Y-131733951D01*
X210819156Y-131691534D01*
X210852768Y-131646279D01*
X210885035Y-131611420D01*
X210935209Y-131562062D01*
X210974193Y-131535547D01*
X211016064Y-131524911D01*
X211063460Y-131523154D01*
X211167333Y-131538528D01*
G36*
X211850807Y-131541782D02*
G01*
X211874161Y-131551988D01*
X211929902Y-131596134D01*
X211977569Y-131659967D01*
X212007048Y-131728087D01*
X212011846Y-131761670D01*
X211995760Y-131808556D01*
X211960475Y-131833365D01*
X211922644Y-131848387D01*
X211905321Y-131851155D01*
X211896886Y-131831066D01*
X211880230Y-131787351D01*
X211872923Y-131767598D01*
X211831948Y-131699271D01*
X211772622Y-131665191D01*
X211696552Y-131666239D01*
X211690918Y-131667581D01*
X211650305Y-131686836D01*
X211620448Y-131724375D01*
X211600055Y-131784809D01*
X211587836Y-131872751D01*
X211582500Y-131992813D01*
X211582000Y-132056698D01*
X211581752Y-132157403D01*
X211580126Y-132226054D01*
X211575801Y-132269673D01*
X211567454Y-132295282D01*
X211553765Y-132309903D01*
X211533411Y-132320558D01*
X211532234Y-132321095D01*
X211493038Y-132337667D01*
X211473619Y-132343769D01*
X211470635Y-132325319D01*
X211468081Y-132274323D01*
X211466140Y-132197308D01*
X211464997Y-132100805D01*
X211464769Y-132030184D01*
X211465932Y-131893525D01*
X211470479Y-131789851D01*
X211479999Y-131713108D01*
X211496081Y-131657246D01*
X211520313Y-131616212D01*
X211554286Y-131583954D01*
X211587833Y-131561440D01*
X211668499Y-131531476D01*
X211762381Y-131524718D01*
X211850807Y-131541782D01*
G37*
X211850807Y-131541782D02*
X211874161Y-131551988D01*
X211929902Y-131596134D01*
X211977569Y-131659967D01*
X212007048Y-131728087D01*
X212011846Y-131761670D01*
X211995760Y-131808556D01*
X211960475Y-131833365D01*
X211922644Y-131848387D01*
X211905321Y-131851155D01*
X211896886Y-131831066D01*
X211880230Y-131787351D01*
X211872923Y-131767598D01*
X211831948Y-131699271D01*
X211772622Y-131665191D01*
X211696552Y-131666239D01*
X211690918Y-131667581D01*
X211650305Y-131686836D01*
X211620448Y-131724375D01*
X211600055Y-131784809D01*
X211587836Y-131872751D01*
X211582500Y-131992813D01*
X211582000Y-132056698D01*
X211581752Y-132157403D01*
X211580126Y-132226054D01*
X211575801Y-132269673D01*
X211567454Y-132295282D01*
X211553765Y-132309903D01*
X211533411Y-132320558D01*
X211532234Y-132321095D01*
X211493038Y-132337667D01*
X211473619Y-132343769D01*
X211470635Y-132325319D01*
X211468081Y-132274323D01*
X211466140Y-132197308D01*
X211464997Y-132100805D01*
X211464769Y-132030184D01*
X211465932Y-131893525D01*
X211470479Y-131789851D01*
X211479999Y-131713108D01*
X211496081Y-131657246D01*
X211520313Y-131616212D01*
X211554286Y-131583954D01*
X211587833Y-131561440D01*
X211668499Y-131531476D01*
X211762381Y-131524718D01*
X211850807Y-131541782D01*
G36*
X212525224Y-131552838D02*
G01*
X212602528Y-131603361D01*
X212639814Y-131648590D01*
X212669353Y-131730663D01*
X212671699Y-131795607D01*
X212666385Y-131882445D01*
X212466115Y-131970103D01*
X212368739Y-132014887D01*
X212305113Y-132050913D01*
X212272029Y-132082117D01*
X212266280Y-132112436D01*
X212284658Y-132145805D01*
X212304923Y-132167923D01*
X212363889Y-132203393D01*
X212428024Y-132205879D01*
X212486926Y-132178235D01*
X212530197Y-132123320D01*
X212537936Y-132103928D01*
X212575006Y-132043364D01*
X212617654Y-132017552D01*
X212676154Y-131995471D01*
X212676154Y-132079184D01*
X212670982Y-132136150D01*
X212650723Y-132184189D01*
X212608262Y-132239346D01*
X212601951Y-132246514D01*
X212554720Y-132295585D01*
X212514121Y-132321920D01*
X212463328Y-132334035D01*
X212421220Y-132338003D01*
X212345902Y-132338991D01*
X212292286Y-132326466D01*
X212258838Y-132307869D01*
X212206268Y-132266975D01*
X212169879Y-132222748D01*
X212146850Y-132167126D01*
X212134359Y-132092047D01*
X212129587Y-131989449D01*
X212129206Y-131937376D01*
X212130501Y-131874948D01*
X212248471Y-131874948D01*
X212249839Y-131908438D01*
X212253249Y-131913923D01*
X212275753Y-131906472D01*
X212324182Y-131886753D01*
X212388908Y-131858718D01*
X212402443Y-131852692D01*
X212484244Y-131811096D01*
X212529312Y-131774538D01*
X212539217Y-131740296D01*
X212515526Y-131705648D01*
X212495960Y-131690339D01*
X212425360Y-131659721D01*
X212359280Y-131664780D01*
X212303959Y-131702151D01*
X212265636Y-131768473D01*
X212253349Y-131821116D01*
X212248471Y-131874948D01*
X212130501Y-131874948D01*
X212131730Y-131815720D01*
X212141032Y-131725710D01*
X212159460Y-131660167D01*
X212189360Y-131611912D01*
X212233080Y-131573767D01*
X212252141Y-131561440D01*
X212338726Y-131529336D01*
X212433522Y-131527316D01*
X212525224Y-131552838D01*
G37*
X212525224Y-131552838D02*
X212602528Y-131603361D01*
X212639814Y-131648590D01*
X212669353Y-131730663D01*
X212671699Y-131795607D01*
X212666385Y-131882445D01*
X212466115Y-131970103D01*
X212368739Y-132014887D01*
X212305113Y-132050913D01*
X212272029Y-132082117D01*
X212266280Y-132112436D01*
X212284658Y-132145805D01*
X212304923Y-132167923D01*
X212363889Y-132203393D01*
X212428024Y-132205879D01*
X212486926Y-132178235D01*
X212530197Y-132123320D01*
X212537936Y-132103928D01*
X212575006Y-132043364D01*
X212617654Y-132017552D01*
X212676154Y-131995471D01*
X212676154Y-132079184D01*
X212670982Y-132136150D01*
X212650723Y-132184189D01*
X212608262Y-132239346D01*
X212601951Y-132246514D01*
X212554720Y-132295585D01*
X212514121Y-132321920D01*
X212463328Y-132334035D01*
X212421220Y-132338003D01*
X212345902Y-132338991D01*
X212292286Y-132326466D01*
X212258838Y-132307869D01*
X212206268Y-132266975D01*
X212169879Y-132222748D01*
X212146850Y-132167126D01*
X212134359Y-132092047D01*
X212129587Y-131989449D01*
X212129206Y-131937376D01*
X212130501Y-131874948D01*
X212248471Y-131874948D01*
X212249839Y-131908438D01*
X212253249Y-131913923D01*
X212275753Y-131906472D01*
X212324182Y-131886753D01*
X212388908Y-131858718D01*
X212402443Y-131852692D01*
X212484244Y-131811096D01*
X212529312Y-131774538D01*
X212539217Y-131740296D01*
X212515526Y-131705648D01*
X212495960Y-131690339D01*
X212425360Y-131659721D01*
X212359280Y-131664780D01*
X212303959Y-131702151D01*
X212265636Y-131768473D01*
X212253349Y-131821116D01*
X212248471Y-131874948D01*
X212130501Y-131874948D01*
X212131730Y-131815720D01*
X212141032Y-131725710D01*
X212159460Y-131660167D01*
X212189360Y-131611912D01*
X212233080Y-131573767D01*
X212252141Y-131561440D01*
X212338726Y-131529336D01*
X212433522Y-131527316D01*
X212525224Y-131552838D01*
G36*
X208419878Y-125192776D02*
G01*
X208525612Y-125193355D01*
X208602132Y-125194922D01*
X208654372Y-125197972D01*
X208687263Y-125202996D01*
X208705737Y-125210489D01*
X208714727Y-125220944D01*
X208719163Y-125234853D01*
X208719594Y-125236654D01*
X208726333Y-125269145D01*
X208738808Y-125333252D01*
X208755719Y-125422151D01*
X208775771Y-125529019D01*
X208797664Y-125647033D01*
X208798429Y-125651178D01*
X208820359Y-125766831D01*
X208840877Y-125869014D01*
X208858659Y-125951598D01*
X208872381Y-126008456D01*
X208880718Y-126033458D01*
X208881116Y-126033901D01*
X208905677Y-126046110D01*
X208956315Y-126066456D01*
X209022095Y-126090545D01*
X209022461Y-126090674D01*
X209105317Y-126121818D01*
X209203000Y-126161491D01*
X209295077Y-126201381D01*
X209299434Y-126203353D01*
X209449407Y-126271420D01*
X209781498Y-126044639D01*
X209883374Y-125975504D01*
X209975657Y-125913697D01*
X210053003Y-125862733D01*
X210110064Y-125826127D01*
X210141495Y-125807394D01*
X210144479Y-125806004D01*
X210167321Y-125812190D01*
X210209982Y-125842035D01*
X210274128Y-125896947D01*
X210361421Y-125978334D01*
X210450535Y-126064922D01*
X210536441Y-126150247D01*
X210613327Y-126228108D01*
X210676564Y-126293697D01*
X210721523Y-126342205D01*
X210743576Y-126368825D01*
X210744396Y-126370195D01*
X210746834Y-126388463D01*
X210737650Y-126418295D01*
X210714574Y-126463721D01*
X210675337Y-126528770D01*
X210617670Y-126617470D01*
X210540795Y-126731657D01*
X210472570Y-126832162D01*
X210411582Y-126922303D01*
X210361356Y-126996849D01*
X210325416Y-127050565D01*
X210307287Y-127078218D01*
X210306146Y-127080095D01*
X210308359Y-127106590D01*
X210325138Y-127158086D01*
X210353142Y-127224851D01*
X210363122Y-127246172D01*
X210406672Y-127341159D01*
X210453134Y-127448937D01*
X210490877Y-127542192D01*
X210518073Y-127611406D01*
X210539675Y-127664006D01*
X210552158Y-127691497D01*
X210553709Y-127693616D01*
X210576668Y-127697124D01*
X210630786Y-127706738D01*
X210708868Y-127721089D01*
X210803719Y-127738807D01*
X210908143Y-127758525D01*
X211014944Y-127778874D01*
X211116926Y-127798486D01*
X211206894Y-127815991D01*
X211277653Y-127830022D01*
X211322006Y-127839209D01*
X211332885Y-127841807D01*
X211344122Y-127848218D01*
X211352605Y-127862697D01*
X211358714Y-127890133D01*
X211362832Y-127935411D01*
X211365341Y-128003420D01*
X211366621Y-128099047D01*
X211367054Y-128227180D01*
X211367077Y-128279701D01*
X211367077Y-128706845D01*
X211264500Y-128727091D01*
X211207431Y-128738070D01*
X211122269Y-128754095D01*
X211019372Y-128773233D01*
X210909096Y-128793551D01*
X210878615Y-128799132D01*
X210776855Y-128818917D01*
X210688205Y-128838373D01*
X210620108Y-128855697D01*
X210580004Y-128869088D01*
X210573323Y-128873079D01*
X210556919Y-128901342D01*
X210533399Y-128956109D01*
X210507316Y-129026588D01*
X210502142Y-129041769D01*
X210467956Y-129135896D01*
X210425523Y-129242101D01*
X210383997Y-129337473D01*
X210383792Y-129337916D01*
X210314640Y-129487525D01*
X210769512Y-130156617D01*
X210477500Y-130449116D01*
X210389180Y-130536170D01*
X210308625Y-130612909D01*
X210240360Y-130675237D01*
X210188908Y-130719056D01*
X210158794Y-130740270D01*
X210154474Y-130741616D01*
X210129111Y-130731016D01*
X210077358Y-130701547D01*
X210004868Y-130656705D01*
X209917294Y-130599984D01*
X209822612Y-130536462D01*
X209726516Y-130471668D01*
X209640837Y-130415287D01*
X209571016Y-130370788D01*
X209522494Y-130341639D01*
X209500782Y-130331308D01*
X209474293Y-130340050D01*
X209424062Y-130363087D01*
X209360451Y-130395631D01*
X209353708Y-130399249D01*
X209268046Y-130442210D01*
X209209306Y-130463279D01*
X209172772Y-130463503D01*
X209153731Y-130443928D01*
X209153620Y-130443654D01*
X209144102Y-130420472D01*
X209121403Y-130365441D01*
X209087282Y-130282822D01*
X209043500Y-130176872D01*
X208991816Y-130051852D01*
X208933992Y-129912020D01*
X208877991Y-129776637D01*
X208816447Y-129627234D01*
X208759939Y-129488832D01*
X208710161Y-129365673D01*
X208668806Y-129262002D01*
X208637568Y-129182059D01*
X208618141Y-129130088D01*
X208612154Y-129110692D01*
X208627168Y-129088443D01*
X208666439Y-129052982D01*
X208718807Y-129013887D01*
X208867941Y-128890245D01*
X208984511Y-128748522D01*
X209067118Y-128591704D01*
X209114366Y-128422775D01*
X209124857Y-128244722D01*
X209117231Y-128162539D01*
X209075682Y-127992031D01*
X209004123Y-127841459D01*
X208906995Y-127712309D01*
X208788734Y-127606064D01*
X208653780Y-127524210D01*
X208506571Y-127468232D01*
X208351544Y-127439615D01*
X208193139Y-127439844D01*
X208035794Y-127470405D01*
X207883946Y-127532782D01*
X207742035Y-127628460D01*
X207682803Y-127682572D01*
X207569203Y-127821520D01*
X207490106Y-127973361D01*
X207444986Y-128133667D01*
X207433316Y-128298012D01*
X207454569Y-128461971D01*
X207508220Y-128621118D01*
X207593740Y-128771025D01*
X207710605Y-128907267D01*
X207841193Y-129013887D01*
X207895588Y-129054642D01*
X207934014Y-129089718D01*
X207947846Y-129110726D01*
X207940603Y-129133635D01*
X207920005Y-129188365D01*
X207887746Y-129270672D01*
X207845521Y-129376315D01*
X207795023Y-129501050D01*
X207737948Y-129640636D01*
X207681854Y-129776670D01*
X207619967Y-129926201D01*
X207562644Y-130064767D01*
X207511644Y-130188107D01*
X207468727Y-130291964D01*
X207435653Y-130372080D01*
X207414181Y-130424195D01*
X207406225Y-130443654D01*
X207387429Y-130463423D01*
X207351074Y-130463365D01*
X207292479Y-130442441D01*
X207206968Y-130399613D01*
X207206292Y-130399249D01*
X207141907Y-130366012D01*
X207089861Y-130341802D01*
X207060512Y-130331404D01*
X207059217Y-130331308D01*
X207037124Y-130341855D01*
X206988348Y-130371184D01*
X206918331Y-130415827D01*
X206832514Y-130472314D01*
X206737388Y-130536462D01*
X206640540Y-130601411D01*
X206553253Y-130657896D01*
X206481181Y-130702421D01*
X206429977Y-130731490D01*
X206405526Y-130741616D01*
X206383010Y-130728307D01*
X206337742Y-130691112D01*
X206274244Y-130634128D01*
X206197039Y-130561449D01*
X206110651Y-130477171D01*
X206082399Y-130449016D01*
X205790287Y-130156416D01*
X206012631Y-129830104D01*
X206080202Y-129729897D01*
X206139507Y-129639963D01*
X206187217Y-129565510D01*
X206220007Y-129511751D01*
X206234548Y-129483894D01*
X206234974Y-129481912D01*
X206227308Y-129455655D01*
X206206689Y-129402837D01*
X206176685Y-129332310D01*
X206155625Y-129285093D01*
X206116248Y-129194694D01*
X206079165Y-129103366D01*
X206050415Y-129026200D01*
X206042605Y-129002692D01*
X206020417Y-128939916D01*
X205998727Y-128891411D01*
X205986813Y-128873079D01*
X205960523Y-128861859D01*
X205903142Y-128845954D01*
X205822118Y-128827167D01*
X205724895Y-128807299D01*
X205681385Y-128799132D01*
X205570896Y-128778829D01*
X205464916Y-128759170D01*
X205373801Y-128742088D01*
X205307908Y-128729518D01*
X205295500Y-128727091D01*
X205192923Y-128706845D01*
X205192923Y-128279701D01*
X205193153Y-128139246D01*
X205194099Y-128032979D01*
X205196141Y-127956013D01*
X205199662Y-127903460D01*
X205205043Y-127870433D01*
X205212666Y-127852045D01*
X205222912Y-127843408D01*
X205227115Y-127841807D01*
X205252470Y-127836127D01*
X205308484Y-127824795D01*
X205387964Y-127809179D01*
X205483712Y-127790647D01*
X205588533Y-127770569D01*
X205695232Y-127750312D01*
X205796613Y-127731246D01*
X205885479Y-127714739D01*
X205954637Y-127702159D01*
X205996889Y-127694875D01*
X206006290Y-127693616D01*
X206014807Y-127676763D01*
X206033660Y-127631870D01*
X206059324Y-127567430D01*
X206069123Y-127542192D01*
X206108648Y-127444686D01*
X206155192Y-127336959D01*
X206196877Y-127246172D01*
X206227550Y-127176753D01*
X206247956Y-127119710D01*
X206254768Y-127084777D01*
X206253682Y-127080095D01*
X206239285Y-127057991D01*
X206206412Y-127008831D01*
X206158590Y-126937848D01*
X206099348Y-126850278D01*
X206032215Y-126751357D01*
X206018941Y-126731830D01*
X205941046Y-126616140D01*
X205883787Y-126528044D01*
X205844881Y-126463486D01*
X205822044Y-126418411D01*
X205812994Y-126388763D01*
X205815448Y-126370485D01*
X205815511Y-126370369D01*
X205834827Y-126346361D01*
X205877551Y-126299947D01*
X205939051Y-126235937D01*
X206014698Y-126159145D01*
X206099861Y-126074382D01*
X206109465Y-126064922D01*
X206216790Y-125960989D01*
X206299615Y-125884675D01*
X206359605Y-125834571D01*
X206398423Y-125809270D01*
X206415520Y-125806004D01*
X206440473Y-125820250D01*
X206492255Y-125853156D01*
X206565520Y-125901208D01*
X206654920Y-125960890D01*
X206755111Y-126028688D01*
X206778501Y-126044639D01*
X207110593Y-126271420D01*
X207260565Y-126203353D01*
X207351770Y-126163685D01*
X207449669Y-126123791D01*
X207533831Y-126091983D01*
X207537538Y-126090674D01*
X207603369Y-126066576D01*
X207654116Y-126046200D01*
X207678842Y-126033936D01*
X207678884Y-126033901D01*
X207686729Y-126011734D01*
X207700066Y-125957217D01*
X207717570Y-125876480D01*
X207737917Y-125775650D01*
X207759782Y-125660856D01*
X207761571Y-125651178D01*
X207783504Y-125532904D01*
X207803640Y-125425542D01*
X207820680Y-125335917D01*
X207833328Y-125270851D01*
X207840284Y-125237168D01*
X207840406Y-125236654D01*
X207844639Y-125222325D01*
X207852871Y-125211507D01*
X207870033Y-125203706D01*
X207901058Y-125198429D01*
X207950878Y-125195182D01*
X208024424Y-125193472D01*
X208126629Y-125192807D01*
X208262425Y-125192693D01*
X208280000Y-125192692D01*
X208419878Y-125192776D01*
G37*
X208419878Y-125192776D02*
X208525612Y-125193355D01*
X208602132Y-125194922D01*
X208654372Y-125197972D01*
X208687263Y-125202996D01*
X208705737Y-125210489D01*
X208714727Y-125220944D01*
X208719163Y-125234853D01*
X208719594Y-125236654D01*
X208726333Y-125269145D01*
X208738808Y-125333252D01*
X208755719Y-125422151D01*
X208775771Y-125529019D01*
X208797664Y-125647033D01*
X208798429Y-125651178D01*
X208820359Y-125766831D01*
X208840877Y-125869014D01*
X208858659Y-125951598D01*
X208872381Y-126008456D01*
X208880718Y-126033458D01*
X208881116Y-126033901D01*
X208905677Y-126046110D01*
X208956315Y-126066456D01*
X209022095Y-126090545D01*
X209022461Y-126090674D01*
X209105317Y-126121818D01*
X209203000Y-126161491D01*
X209295077Y-126201381D01*
X209299434Y-126203353D01*
X209449407Y-126271420D01*
X209781498Y-126044639D01*
X209883374Y-125975504D01*
X209975657Y-125913697D01*
X210053003Y-125862733D01*
X210110064Y-125826127D01*
X210141495Y-125807394D01*
X210144479Y-125806004D01*
X210167321Y-125812190D01*
X210209982Y-125842035D01*
X210274128Y-125896947D01*
X210361421Y-125978334D01*
X210450535Y-126064922D01*
X210536441Y-126150247D01*
X210613327Y-126228108D01*
X210676564Y-126293697D01*
X210721523Y-126342205D01*
X210743576Y-126368825D01*
X210744396Y-126370195D01*
X210746834Y-126388463D01*
X210737650Y-126418295D01*
X210714574Y-126463721D01*
X210675337Y-126528770D01*
X210617670Y-126617470D01*
X210540795Y-126731657D01*
X210472570Y-126832162D01*
X210411582Y-126922303D01*
X210361356Y-126996849D01*
X210325416Y-127050565D01*
X210307287Y-127078218D01*
X210306146Y-127080095D01*
X210308359Y-127106590D01*
X210325138Y-127158086D01*
X210353142Y-127224851D01*
X210363122Y-127246172D01*
X210406672Y-127341159D01*
X210453134Y-127448937D01*
X210490877Y-127542192D01*
X210518073Y-127611406D01*
X210539675Y-127664006D01*
X210552158Y-127691497D01*
X210553709Y-127693616D01*
X210576668Y-127697124D01*
X210630786Y-127706738D01*
X210708868Y-127721089D01*
X210803719Y-127738807D01*
X210908143Y-127758525D01*
X211014944Y-127778874D01*
X211116926Y-127798486D01*
X211206894Y-127815991D01*
X211277653Y-127830022D01*
X211322006Y-127839209D01*
X211332885Y-127841807D01*
X211344122Y-127848218D01*
X211352605Y-127862697D01*
X211358714Y-127890133D01*
X211362832Y-127935411D01*
X211365341Y-128003420D01*
X211366621Y-128099047D01*
X211367054Y-128227180D01*
X211367077Y-128279701D01*
X211367077Y-128706845D01*
X211264500Y-128727091D01*
X211207431Y-128738070D01*
X211122269Y-128754095D01*
X211019372Y-128773233D01*
X210909096Y-128793551D01*
X210878615Y-128799132D01*
X210776855Y-128818917D01*
X210688205Y-128838373D01*
X210620108Y-128855697D01*
X210580004Y-128869088D01*
X210573323Y-128873079D01*
X210556919Y-128901342D01*
X210533399Y-128956109D01*
X210507316Y-129026588D01*
X210502142Y-129041769D01*
X210467956Y-129135896D01*
X210425523Y-129242101D01*
X210383997Y-129337473D01*
X210383792Y-129337916D01*
X210314640Y-129487525D01*
X210769512Y-130156617D01*
X210477500Y-130449116D01*
X210389180Y-130536170D01*
X210308625Y-130612909D01*
X210240360Y-130675237D01*
X210188908Y-130719056D01*
X210158794Y-130740270D01*
X210154474Y-130741616D01*
X210129111Y-130731016D01*
X210077358Y-130701547D01*
X210004868Y-130656705D01*
X209917294Y-130599984D01*
X209822612Y-130536462D01*
X209726516Y-130471668D01*
X209640837Y-130415287D01*
X209571016Y-130370788D01*
X209522494Y-130341639D01*
X209500782Y-130331308D01*
X209474293Y-130340050D01*
X209424062Y-130363087D01*
X209360451Y-130395631D01*
X209353708Y-130399249D01*
X209268046Y-130442210D01*
X209209306Y-130463279D01*
X209172772Y-130463503D01*
X209153731Y-130443928D01*
X209153620Y-130443654D01*
X209144102Y-130420472D01*
X209121403Y-130365441D01*
X209087282Y-130282822D01*
X209043500Y-130176872D01*
X208991816Y-130051852D01*
X208933992Y-129912020D01*
X208877991Y-129776637D01*
X208816447Y-129627234D01*
X208759939Y-129488832D01*
X208710161Y-129365673D01*
X208668806Y-129262002D01*
X208637568Y-129182059D01*
X208618141Y-129130088D01*
X208612154Y-129110692D01*
X208627168Y-129088443D01*
X208666439Y-129052982D01*
X208718807Y-129013887D01*
X208867941Y-128890245D01*
X208984511Y-128748522D01*
X209067118Y-128591704D01*
X209114366Y-128422775D01*
X209124857Y-128244722D01*
X209117231Y-128162539D01*
X209075682Y-127992031D01*
X209004123Y-127841459D01*
X208906995Y-127712309D01*
X208788734Y-127606064D01*
X208653780Y-127524210D01*
X208506571Y-127468232D01*
X208351544Y-127439615D01*
X208193139Y-127439844D01*
X208035794Y-127470405D01*
X207883946Y-127532782D01*
X207742035Y-127628460D01*
X207682803Y-127682572D01*
X207569203Y-127821520D01*
X207490106Y-127973361D01*
X207444986Y-128133667D01*
X207433316Y-128298012D01*
X207454569Y-128461971D01*
X207508220Y-128621118D01*
X207593740Y-128771025D01*
X207710605Y-128907267D01*
X207841193Y-129013887D01*
X207895588Y-129054642D01*
X207934014Y-129089718D01*
X207947846Y-129110726D01*
X207940603Y-129133635D01*
X207920005Y-129188365D01*
X207887746Y-129270672D01*
X207845521Y-129376315D01*
X207795023Y-129501050D01*
X207737948Y-129640636D01*
X207681854Y-129776670D01*
X207619967Y-129926201D01*
X207562644Y-130064767D01*
X207511644Y-130188107D01*
X207468727Y-130291964D01*
X207435653Y-130372080D01*
X207414181Y-130424195D01*
X207406225Y-130443654D01*
X207387429Y-130463423D01*
X207351074Y-130463365D01*
X207292479Y-130442441D01*
X207206968Y-130399613D01*
X207206292Y-130399249D01*
X207141907Y-130366012D01*
X207089861Y-130341802D01*
X207060512Y-130331404D01*
X207059217Y-130331308D01*
X207037124Y-130341855D01*
X206988348Y-130371184D01*
X206918331Y-130415827D01*
X206832514Y-130472314D01*
X206737388Y-130536462D01*
X206640540Y-130601411D01*
X206553253Y-130657896D01*
X206481181Y-130702421D01*
X206429977Y-130731490D01*
X206405526Y-130741616D01*
X206383010Y-130728307D01*
X206337742Y-130691112D01*
X206274244Y-130634128D01*
X206197039Y-130561449D01*
X206110651Y-130477171D01*
X206082399Y-130449016D01*
X205790287Y-130156416D01*
X206012631Y-129830104D01*
X206080202Y-129729897D01*
X206139507Y-129639963D01*
X206187217Y-129565510D01*
X206220007Y-129511751D01*
X206234548Y-129483894D01*
X206234974Y-129481912D01*
X206227308Y-129455655D01*
X206206689Y-129402837D01*
X206176685Y-129332310D01*
X206155625Y-129285093D01*
X206116248Y-129194694D01*
X206079165Y-129103366D01*
X206050415Y-129026200D01*
X206042605Y-129002692D01*
X206020417Y-128939916D01*
X205998727Y-128891411D01*
X205986813Y-128873079D01*
X205960523Y-128861859D01*
X205903142Y-128845954D01*
X205822118Y-128827167D01*
X205724895Y-128807299D01*
X205681385Y-128799132D01*
X205570896Y-128778829D01*
X205464916Y-128759170D01*
X205373801Y-128742088D01*
X205307908Y-128729518D01*
X205295500Y-128727091D01*
X205192923Y-128706845D01*
X205192923Y-128279701D01*
X205193153Y-128139246D01*
X205194099Y-128032979D01*
X205196141Y-127956013D01*
X205199662Y-127903460D01*
X205205043Y-127870433D01*
X205212666Y-127852045D01*
X205222912Y-127843408D01*
X205227115Y-127841807D01*
X205252470Y-127836127D01*
X205308484Y-127824795D01*
X205387964Y-127809179D01*
X205483712Y-127790647D01*
X205588533Y-127770569D01*
X205695232Y-127750312D01*
X205796613Y-127731246D01*
X205885479Y-127714739D01*
X205954637Y-127702159D01*
X205996889Y-127694875D01*
X206006290Y-127693616D01*
X206014807Y-127676763D01*
X206033660Y-127631870D01*
X206059324Y-127567430D01*
X206069123Y-127542192D01*
X206108648Y-127444686D01*
X206155192Y-127336959D01*
X206196877Y-127246172D01*
X206227550Y-127176753D01*
X206247956Y-127119710D01*
X206254768Y-127084777D01*
X206253682Y-127080095D01*
X206239285Y-127057991D01*
X206206412Y-127008831D01*
X206158590Y-126937848D01*
X206099348Y-126850278D01*
X206032215Y-126751357D01*
X206018941Y-126731830D01*
X205941046Y-126616140D01*
X205883787Y-126528044D01*
X205844881Y-126463486D01*
X205822044Y-126418411D01*
X205812994Y-126388763D01*
X205815448Y-126370485D01*
X205815511Y-126370369D01*
X205834827Y-126346361D01*
X205877551Y-126299947D01*
X205939051Y-126235937D01*
X206014698Y-126159145D01*
X206099861Y-126074382D01*
X206109465Y-126064922D01*
X206216790Y-125960989D01*
X206299615Y-125884675D01*
X206359605Y-125834571D01*
X206398423Y-125809270D01*
X206415520Y-125806004D01*
X206440473Y-125820250D01*
X206492255Y-125853156D01*
X206565520Y-125901208D01*
X206654920Y-125960890D01*
X206755111Y-126028688D01*
X206778501Y-126044639D01*
X207110593Y-126271420D01*
X207260565Y-126203353D01*
X207351770Y-126163685D01*
X207449669Y-126123791D01*
X207533831Y-126091983D01*
X207537538Y-126090674D01*
X207603369Y-126066576D01*
X207654116Y-126046200D01*
X207678842Y-126033936D01*
X207678884Y-126033901D01*
X207686729Y-126011734D01*
X207700066Y-125957217D01*
X207717570Y-125876480D01*
X207737917Y-125775650D01*
X207759782Y-125660856D01*
X207761571Y-125651178D01*
X207783504Y-125532904D01*
X207803640Y-125425542D01*
X207820680Y-125335917D01*
X207833328Y-125270851D01*
X207840284Y-125237168D01*
X207840406Y-125236654D01*
X207844639Y-125222325D01*
X207852871Y-125211507D01*
X207870033Y-125203706D01*
X207901058Y-125198429D01*
X207950878Y-125195182D01*
X208024424Y-125193472D01*
X208126629Y-125192807D01*
X208262425Y-125192693D01*
X208280000Y-125192692D01*
X208419878Y-125192776D01*
D11*
%TO.C,Q4*%
X222990000Y-115040000D02*
X221490000Y-115040000D01*
X221490000Y-115040000D02*
X221490000Y-115310000D01*
X221490000Y-115310000D02*
X218660000Y-115310000D01*
X222990000Y-121940000D02*
X221490000Y-121940000D01*
X221490000Y-121940000D02*
X221490000Y-121670000D01*
X221490000Y-121670000D02*
X220390000Y-121670000D01*
%TO.C,Q3*%
X240540000Y-50145000D02*
X239040000Y-50145000D01*
X239040000Y-50145000D02*
X239040000Y-50415000D01*
X239040000Y-50415000D02*
X236210000Y-50415000D01*
X240540000Y-57045000D02*
X239040000Y-57045000D01*
X239040000Y-57045000D02*
X239040000Y-56775000D01*
X239040000Y-56775000D02*
X237940000Y-56775000D01*
%TO.C,Q2*%
X180066000Y-117346000D02*
X180066000Y-118846000D01*
X180066000Y-118846000D02*
X180336000Y-118846000D01*
X180336000Y-118846000D02*
X180336000Y-121676000D01*
X186966000Y-117346000D02*
X186966000Y-118846000D01*
X186966000Y-118846000D02*
X186696000Y-118846000D01*
X186696000Y-118846000D02*
X186696000Y-119946000D01*
%TO.C,Q1*%
X181590000Y-55545000D02*
X181590000Y-57045000D01*
X181590000Y-57045000D02*
X181860000Y-57045000D01*
X181860000Y-57045000D02*
X181860000Y-59875000D01*
X188490000Y-55545000D02*
X188490000Y-57045000D01*
X188490000Y-57045000D02*
X188220000Y-57045000D01*
X188220000Y-57045000D02*
X188220000Y-58145000D01*
%TO.C,J19*%
X244161000Y-113224000D02*
X246821000Y-113224000D01*
X244161000Y-118424000D02*
X246821000Y-118424000D01*
X246821000Y-113224000D02*
X246821000Y-116334000D01*
X244161000Y-113794000D02*
X242641000Y-113794000D01*
X244161000Y-113224000D02*
X244161000Y-113794000D01*
X246821000Y-117854000D02*
X246821000Y-118424000D01*
X244161000Y-115314000D02*
X244161000Y-118424000D01*
%TO.C,J18*%
X251146000Y-113224000D02*
X253806000Y-113224000D01*
X251146000Y-118424000D02*
X253806000Y-118424000D01*
X253806000Y-113224000D02*
X253806000Y-116334000D01*
X251146000Y-113794000D02*
X249626000Y-113794000D01*
X251146000Y-113224000D02*
X251146000Y-113794000D01*
X253806000Y-117854000D02*
X253806000Y-118424000D01*
X251146000Y-115314000D02*
X251146000Y-118424000D01*
%TO.C,J17*%
X251146000Y-106577666D02*
X253806000Y-106577666D01*
X251146000Y-111777666D02*
X253806000Y-111777666D01*
X253806000Y-106577666D02*
X253806000Y-109687666D01*
X251146000Y-107147666D02*
X249626000Y-107147666D01*
X251146000Y-106577666D02*
X251146000Y-107147666D01*
X253806000Y-111207666D02*
X253806000Y-111777666D01*
X251146000Y-108667666D02*
X251146000Y-111777666D01*
%TO.C,J16*%
X251146000Y-99931333D02*
X253806000Y-99931333D01*
X251146000Y-105131333D02*
X253806000Y-105131333D01*
X253806000Y-99931333D02*
X253806000Y-103041333D01*
X251146000Y-100501333D02*
X249626000Y-100501333D01*
X251146000Y-99931333D02*
X251146000Y-100501333D01*
X253806000Y-104561333D02*
X253806000Y-105131333D01*
X251146000Y-102021333D02*
X251146000Y-105131333D01*
%TO.C,J15*%
X244161000Y-106577666D02*
X246821000Y-106577666D01*
X244161000Y-111777666D02*
X246821000Y-111777666D01*
X246821000Y-106577666D02*
X246821000Y-109687666D01*
X244161000Y-107147666D02*
X242641000Y-107147666D01*
X244161000Y-106577666D02*
X244161000Y-107147666D01*
X246821000Y-111207666D02*
X246821000Y-111777666D01*
X244161000Y-108667666D02*
X244161000Y-111777666D01*
%TO.C,J14*%
X244161000Y-99931333D02*
X246821000Y-99931333D01*
X244161000Y-105131333D02*
X246821000Y-105131333D01*
X246821000Y-99931333D02*
X246821000Y-103041333D01*
X244161000Y-100501333D02*
X242641000Y-100501333D01*
X244161000Y-99931333D02*
X244161000Y-100501333D01*
X246821000Y-104561333D02*
X246821000Y-105131333D01*
X244161000Y-102021333D02*
X244161000Y-105131333D01*
%TO.C,J13*%
X251146000Y-93285000D02*
X253806000Y-93285000D01*
X251146000Y-98485000D02*
X253806000Y-98485000D01*
X253806000Y-93285000D02*
X253806000Y-96395000D01*
X251146000Y-93855000D02*
X249626000Y-93855000D01*
X251146000Y-93285000D02*
X251146000Y-93855000D01*
X253806000Y-97915000D02*
X253806000Y-98485000D01*
X251146000Y-95375000D02*
X251146000Y-98485000D01*
%TO.C,J12*%
X244161000Y-93285000D02*
X246821000Y-93285000D01*
X244161000Y-98485000D02*
X246821000Y-98485000D01*
X246821000Y-93285000D02*
X246821000Y-96395000D01*
X244161000Y-93855000D02*
X242641000Y-93855000D01*
X244161000Y-93285000D02*
X244161000Y-93855000D01*
X246821000Y-97915000D02*
X246821000Y-98485000D01*
X244161000Y-95375000D02*
X244161000Y-98485000D01*
%TO.C,C4*%
X253164000Y-68252000D02*
X253164000Y-64502000D01*
X253164000Y-57732000D02*
X253164000Y-61482000D01*
X243708437Y-57732000D02*
X253164000Y-57732000D01*
X243708437Y-68252000D02*
X253164000Y-68252000D01*
X242644000Y-67187563D02*
X242644000Y-64502000D01*
X242644000Y-58796437D02*
X242644000Y-61482000D01*
X242644000Y-58796437D02*
X243708437Y-57732000D01*
X242644000Y-67187563D02*
X243708437Y-68252000D01*
X241154000Y-60232000D02*
X242404000Y-60232000D01*
X241779000Y-59607000D02*
X241779000Y-60857000D01*
%TO.C,C5*%
X253164000Y-79936000D02*
X253164000Y-76186000D01*
X253164000Y-69416000D02*
X253164000Y-73166000D01*
X243708437Y-69416000D02*
X253164000Y-69416000D01*
X243708437Y-79936000D02*
X253164000Y-79936000D01*
X242644000Y-78871563D02*
X242644000Y-76186000D01*
X242644000Y-70480437D02*
X242644000Y-73166000D01*
X242644000Y-70480437D02*
X243708437Y-69416000D01*
X242644000Y-78871563D02*
X243708437Y-79936000D01*
X241154000Y-71916000D02*
X242404000Y-71916000D01*
X241779000Y-71291000D02*
X241779000Y-72541000D01*
%TO.C,C3*%
X253164000Y-91620000D02*
X253164000Y-87870000D01*
X253164000Y-81100000D02*
X253164000Y-84850000D01*
X243708437Y-81100000D02*
X253164000Y-81100000D01*
X243708437Y-91620000D02*
X253164000Y-91620000D01*
X242644000Y-90555563D02*
X242644000Y-87870000D01*
X242644000Y-82164437D02*
X242644000Y-84850000D01*
X242644000Y-82164437D02*
X243708437Y-81100000D01*
X242644000Y-90555563D02*
X243708437Y-91620000D01*
X241154000Y-83600000D02*
X242404000Y-83600000D01*
X241779000Y-82975000D02*
X241779000Y-84225000D01*
%TO.C,R2*%
X170542936Y-111946000D02*
X174897064Y-111946000D01*
X170542936Y-108526000D02*
X174897064Y-108526000D01*
%TO.C,R1*%
X180018000Y-79901064D02*
X180018000Y-75546936D01*
X176598000Y-79901064D02*
X176598000Y-75546936D01*
%TO.C,C11*%
X172415252Y-74570000D02*
X170992748Y-74570000D01*
X172415252Y-72750000D02*
X170992748Y-72750000D01*
%TO.C,C10*%
X172415252Y-83656000D02*
X170992748Y-83656000D01*
X172415252Y-80936000D02*
X170992748Y-80936000D01*
%TO.C,C9*%
X172453752Y-78634000D02*
X171031248Y-78634000D01*
X172453752Y-76814000D02*
X171031248Y-76814000D01*
%TO.C,C1*%
X172453752Y-70506000D02*
X171031248Y-70506000D01*
X172453752Y-68686000D02*
X171031248Y-68686000D01*
%TO.C,J3*%
X183074000Y-69536000D02*
X185734000Y-69536000D01*
X183074000Y-105216000D02*
X185734000Y-105216000D01*
X185734000Y-69536000D02*
X185734000Y-72646000D01*
X183074000Y-70106000D02*
X181554000Y-70106000D01*
X183074000Y-69536000D02*
X183074000Y-70106000D01*
X185734000Y-104646000D02*
X185734000Y-105216000D01*
X185734000Y-74166000D02*
X185734000Y-77726000D01*
X185734000Y-79246000D02*
X185734000Y-82806000D01*
X185734000Y-84326000D02*
X185734000Y-87886000D01*
X185734000Y-89406000D02*
X185734000Y-92966000D01*
X185734000Y-94486000D02*
X185734000Y-98046000D01*
X185734000Y-99566000D02*
X185734000Y-103126000D01*
X183074000Y-71626000D02*
X183074000Y-75186000D01*
X183074000Y-76706000D02*
X183074000Y-80266000D01*
X183074000Y-81786000D02*
X183074000Y-85346000D01*
X183074000Y-86866000D02*
X183074000Y-90426000D01*
X183074000Y-91946000D02*
X183074000Y-95506000D01*
X183074000Y-97026000D02*
X183074000Y-100586000D01*
X183074000Y-102106000D02*
X183074000Y-105216000D01*
%TO.C,R11*%
X215611064Y-117750000D02*
X214156936Y-117750000D01*
X215611064Y-115930000D02*
X214156936Y-115930000D01*
%TO.C,R10*%
X233365064Y-52218000D02*
X231910936Y-52218000D01*
X233365064Y-50398000D02*
X231910936Y-50398000D01*
%TO.C,R9*%
X217610000Y-121647936D02*
X217610000Y-126002064D01*
X214190000Y-121647936D02*
X214190000Y-126002064D01*
%TO.C,R8*%
X177892064Y-121560000D02*
X176437936Y-121560000D01*
X177892064Y-119740000D02*
X176437936Y-119740000D01*
%TO.C,R7*%
X184184936Y-63606000D02*
X185639064Y-63606000D01*
X184184936Y-65426000D02*
X185639064Y-65426000D01*
%TO.C,L4*%
X190500000Y-71726000D02*
X190500000Y-74676000D01*
X203870000Y-85090000D02*
X192370000Y-85090000D01*
X205740000Y-71776000D02*
X205740000Y-74676000D01*
X190500000Y-80270000D02*
X190500000Y-83170000D01*
X205740000Y-80270000D02*
X205740000Y-83170000D01*
X203708000Y-69850000D02*
X192208000Y-69850000D01*
X205740000Y-83058000D02*
G75*
G02*
X203708000Y-85090000I-2032000J0D01*
G01*
X192532000Y-85090000D02*
G75*
G02*
X190500000Y-83058000I0J2032000D01*
G01*
X190500000Y-71882000D02*
G75*
G02*
X192532000Y-69850000I2032000J0D01*
G01*
X203708000Y-69850000D02*
G75*
G02*
X205740000Y-71882000I0J-2032000D01*
G01*
%TO.C,L3*%
X190500000Y-89506000D02*
X190500000Y-92456000D01*
X203870000Y-102870000D02*
X192370000Y-102870000D01*
X205740000Y-89556000D02*
X205740000Y-92456000D01*
X190500000Y-98050000D02*
X190500000Y-100950000D01*
X205740000Y-98050000D02*
X205740000Y-100950000D01*
X203708000Y-87630000D02*
X192208000Y-87630000D01*
X205740000Y-100838000D02*
G75*
G02*
X203708000Y-102870000I-2032000J0D01*
G01*
X192532000Y-102870000D02*
G75*
G02*
X190500000Y-100838000I0J2032000D01*
G01*
X190500000Y-89662000D02*
G75*
G02*
X192532000Y-87630000I2032000J0D01*
G01*
X203708000Y-87630000D02*
G75*
G02*
X205740000Y-89662000I0J-2032000D01*
G01*
%TO.C,L2*%
X190500000Y-107286000D02*
X190500000Y-110236000D01*
X203870000Y-120650000D02*
X192370000Y-120650000D01*
X205740000Y-107336000D02*
X205740000Y-110236000D01*
X190500000Y-115830000D02*
X190500000Y-118730000D01*
X205740000Y-115830000D02*
X205740000Y-118730000D01*
X203708000Y-105410000D02*
X192208000Y-105410000D01*
X205740000Y-118618000D02*
G75*
G02*
X203708000Y-120650000I-2032000J0D01*
G01*
X192532000Y-120650000D02*
G75*
G02*
X190500000Y-118618000I0J2032000D01*
G01*
X190500000Y-107442000D02*
G75*
G02*
X192532000Y-105410000I2032000J0D01*
G01*
X203708000Y-105410000D02*
G75*
G02*
X205740000Y-107442000I0J-2032000D01*
G01*
%TO.C,L1*%
X190500000Y-53946000D02*
X190500000Y-56896000D01*
X203870000Y-67310000D02*
X192370000Y-67310000D01*
X205740000Y-53996000D02*
X205740000Y-56896000D01*
X190500000Y-62490000D02*
X190500000Y-65390000D01*
X205740000Y-62490000D02*
X205740000Y-65390000D01*
X203708000Y-52070000D02*
X192208000Y-52070000D01*
X205740000Y-65278000D02*
G75*
G02*
X203708000Y-67310000I-2032000J0D01*
G01*
X192532000Y-67310000D02*
G75*
G02*
X190500000Y-65278000I0J2032000D01*
G01*
X190500000Y-54102000D02*
G75*
G02*
X192532000Y-52070000I2032000J0D01*
G01*
X203708000Y-52070000D02*
G75*
G02*
X205740000Y-54102000I0J-2032000D01*
G01*
%TO.C,J11*%
X226568000Y-89960000D02*
X226568000Y-95040000D01*
X232664000Y-95040000D02*
X232664000Y-89960000D01*
X240284000Y-96564000D02*
X240284000Y-88436000D01*
X234188000Y-88436000D02*
X234188000Y-96564000D01*
X235712000Y-86912000D02*
X238760000Y-86912000D01*
X238760000Y-98088000D02*
X235712000Y-98088000D01*
X235712000Y-98088000D02*
G75*
G02*
X234188000Y-96564000I0J1524000D01*
G01*
X240284000Y-96564000D02*
G75*
G02*
X238760000Y-98088000I-1524000J0D01*
G01*
X234188000Y-88436000D02*
G75*
G02*
X235712000Y-86912000I1524000J0D01*
G01*
X238760000Y-86912000D02*
G75*
G02*
X240284000Y-88436000I0J-1524000D01*
G01*
X232664000Y-95040000D02*
G75*
G02*
X226568000Y-95040000I-3048000J0D01*
G01*
X226568000Y-89960000D02*
G75*
G02*
X232664000Y-89960000I3048000J0D01*
G01*
%TO.C,J10*%
X226187000Y-61722000D02*
X226187000Y-66802000D01*
X232283000Y-66802000D02*
X232283000Y-61722000D01*
X239903000Y-68326000D02*
X239903000Y-60198000D01*
X233807000Y-60198000D02*
X233807000Y-68326000D01*
X235331000Y-58674000D02*
X238379000Y-58674000D01*
X238379000Y-69850000D02*
X235331000Y-69850000D01*
X235331000Y-69850000D02*
G75*
G02*
X233807000Y-68326000I0J1524000D01*
G01*
X239903000Y-68326000D02*
G75*
G02*
X238379000Y-69850000I-1524000J0D01*
G01*
X233807000Y-60198000D02*
G75*
G02*
X235331000Y-58674000I1524000J0D01*
G01*
X238379000Y-58674000D02*
G75*
G02*
X239903000Y-60198000I0J-1524000D01*
G01*
X232283000Y-66802000D02*
G75*
G02*
X226187000Y-66802000I-3048000J0D01*
G01*
X226187000Y-61722000D02*
G75*
G02*
X232283000Y-61722000I3048000J0D01*
G01*
%TO.C,J9*%
X210312000Y-61950000D02*
X210312000Y-67030000D01*
X216408000Y-67030000D02*
X216408000Y-61950000D01*
X224028000Y-68554000D02*
X224028000Y-60426000D01*
X217932000Y-60426000D02*
X217932000Y-68554000D01*
X219456000Y-58902000D02*
X222504000Y-58902000D01*
X222504000Y-70078000D02*
X219456000Y-70078000D01*
X219456000Y-70078000D02*
G75*
G02*
X217932000Y-68554000I0J1524000D01*
G01*
X224028000Y-68554000D02*
G75*
G02*
X222504000Y-70078000I-1524000J0D01*
G01*
X217932000Y-60426000D02*
G75*
G02*
X219456000Y-58902000I1524000J0D01*
G01*
X222504000Y-58902000D02*
G75*
G02*
X224028000Y-60426000I0J-1524000D01*
G01*
X216408000Y-67030000D02*
G75*
G02*
X210312000Y-67030000I-3048000J0D01*
G01*
X210312000Y-61950000D02*
G75*
G02*
X216408000Y-61950000I3048000J0D01*
G01*
%TO.C,J8*%
X210312000Y-89960000D02*
X210312000Y-95040000D01*
X216408000Y-95040000D02*
X216408000Y-89960000D01*
X224028000Y-96564000D02*
X224028000Y-88436000D01*
X217932000Y-88436000D02*
X217932000Y-96564000D01*
X219456000Y-86912000D02*
X222504000Y-86912000D01*
X222504000Y-98088000D02*
X219456000Y-98088000D01*
X219456000Y-98088000D02*
G75*
G02*
X217932000Y-96564000I0J1524000D01*
G01*
X224028000Y-96564000D02*
G75*
G02*
X222504000Y-98088000I-1524000J0D01*
G01*
X217932000Y-88436000D02*
G75*
G02*
X219456000Y-86912000I1524000J0D01*
G01*
X222504000Y-86912000D02*
G75*
G02*
X224028000Y-88436000I0J-1524000D01*
G01*
X216408000Y-95040000D02*
G75*
G02*
X210312000Y-95040000I-3048000J0D01*
G01*
X210312000Y-89960000D02*
G75*
G02*
X216408000Y-89960000I3048000J0D01*
G01*
%TO.C,J7*%
X226187000Y-74422000D02*
X226187000Y-79502000D01*
X232283000Y-79502000D02*
X232283000Y-74422000D01*
X239903000Y-81026000D02*
X239903000Y-72898000D01*
X233807000Y-72898000D02*
X233807000Y-81026000D01*
X235331000Y-71374000D02*
X238379000Y-71374000D01*
X238379000Y-82550000D02*
X235331000Y-82550000D01*
X235331000Y-82550000D02*
G75*
G02*
X233807000Y-81026000I0J1524000D01*
G01*
X239903000Y-81026000D02*
G75*
G02*
X238379000Y-82550000I-1524000J0D01*
G01*
X233807000Y-72898000D02*
G75*
G02*
X235331000Y-71374000I1524000J0D01*
G01*
X238379000Y-71374000D02*
G75*
G02*
X239903000Y-72898000I0J-1524000D01*
G01*
X232283000Y-79502000D02*
G75*
G02*
X226187000Y-79502000I-3048000J0D01*
G01*
X226187000Y-74422000D02*
G75*
G02*
X232283000Y-74422000I3048000J0D01*
G01*
%TO.C,J6*%
X210312000Y-74960000D02*
X210312000Y-80040000D01*
X216408000Y-80040000D02*
X216408000Y-74960000D01*
X224028000Y-81564000D02*
X224028000Y-73436000D01*
X217932000Y-73436000D02*
X217932000Y-81564000D01*
X219456000Y-71912000D02*
X222504000Y-71912000D01*
X222504000Y-83088000D02*
X219456000Y-83088000D01*
X219456000Y-83088000D02*
G75*
G02*
X217932000Y-81564000I0J1524000D01*
G01*
X224028000Y-81564000D02*
G75*
G02*
X222504000Y-83088000I-1524000J0D01*
G01*
X217932000Y-73436000D02*
G75*
G02*
X219456000Y-71912000I1524000J0D01*
G01*
X222504000Y-71912000D02*
G75*
G02*
X224028000Y-73436000I0J-1524000D01*
G01*
X216408000Y-80040000D02*
G75*
G02*
X210312000Y-80040000I-3048000J0D01*
G01*
X210312000Y-74960000D02*
G75*
G02*
X216408000Y-74960000I3048000J0D01*
G01*
%TO.C,J5*%
X226568000Y-104902000D02*
X226568000Y-109982000D01*
X232664000Y-109982000D02*
X232664000Y-104902000D01*
X240284000Y-111506000D02*
X240284000Y-103378000D01*
X234188000Y-103378000D02*
X234188000Y-111506000D01*
X235712000Y-101854000D02*
X238760000Y-101854000D01*
X238760000Y-113030000D02*
X235712000Y-113030000D01*
X235712000Y-113030000D02*
G75*
G02*
X234188000Y-111506000I0J1524000D01*
G01*
X240284000Y-111506000D02*
G75*
G02*
X238760000Y-113030000I-1524000J0D01*
G01*
X234188000Y-103378000D02*
G75*
G02*
X235712000Y-101854000I1524000J0D01*
G01*
X238760000Y-101854000D02*
G75*
G02*
X240284000Y-103378000I0J-1524000D01*
G01*
X232664000Y-109982000D02*
G75*
G02*
X226568000Y-109982000I-3048000J0D01*
G01*
X226568000Y-104902000D02*
G75*
G02*
X232664000Y-104902000I3048000J0D01*
G01*
%TO.C,J4*%
X210312000Y-104960000D02*
X210312000Y-110040000D01*
X216408000Y-110040000D02*
X216408000Y-104960000D01*
X224028000Y-111564000D02*
X224028000Y-103436000D01*
X217932000Y-103436000D02*
X217932000Y-111564000D01*
X219456000Y-101912000D02*
X222504000Y-101912000D01*
X222504000Y-113088000D02*
X219456000Y-113088000D01*
X219456000Y-113088000D02*
G75*
G02*
X217932000Y-111564000I0J1524000D01*
G01*
X224028000Y-111564000D02*
G75*
G02*
X222504000Y-113088000I-1524000J0D01*
G01*
X217932000Y-103436000D02*
G75*
G02*
X219456000Y-101912000I1524000J0D01*
G01*
X222504000Y-101912000D02*
G75*
G02*
X224028000Y-103436000I0J-1524000D01*
G01*
X216408000Y-110040000D02*
G75*
G02*
X210312000Y-110040000I-3048000J0D01*
G01*
X210312000Y-104960000D02*
G75*
G02*
X216408000Y-104960000I3048000J0D01*
G01*
%TO.C,J2*%
X224536000Y-132334000D02*
X232918000Y-132334000D01*
X232918000Y-124206000D02*
X224536000Y-124206000D01*
X224536000Y-132334000D02*
G75*
G02*
X224536000Y-124206000I0J4064000D01*
G01*
X232664000Y-124206000D02*
G75*
G02*
X232664000Y-132334000I0J-4064000D01*
G01*
%TO.C,J1*%
X232664000Y-41656000D02*
X224282000Y-41656000D01*
X224282000Y-49784000D02*
X232664000Y-49784000D01*
X232664000Y-41656000D02*
G75*
G02*
X232664000Y-49784000I0J-4064000D01*
G01*
X224536000Y-49784000D02*
G75*
G02*
X224536000Y-41656000I0J4064000D01*
G01*
%TO.C,C2*%
X241914000Y-45415252D02*
X241914000Y-43992748D01*
X243734000Y-45415252D02*
X243734000Y-43992748D01*
%TO.C,Q4*%
D12*
X223864761Y-114537619D02*
X223769523Y-114490000D01*
X223674285Y-114394761D01*
X223531428Y-114251904D01*
X223436190Y-114204285D01*
X223340952Y-114204285D01*
X223388571Y-114442380D02*
X223293333Y-114394761D01*
X223198095Y-114299523D01*
X223150476Y-114109047D01*
X223150476Y-113775714D01*
X223198095Y-113585238D01*
X223293333Y-113490000D01*
X223388571Y-113442380D01*
X223579047Y-113442380D01*
X223674285Y-113490000D01*
X223769523Y-113585238D01*
X223817142Y-113775714D01*
X223817142Y-114109047D01*
X223769523Y-114299523D01*
X223674285Y-114394761D01*
X223579047Y-114442380D01*
X223388571Y-114442380D01*
X224674285Y-113775714D02*
X224674285Y-114442380D01*
X224436190Y-113394761D02*
X224198095Y-114109047D01*
X224817142Y-114109047D01*
%TO.C,Q3*%
X241414761Y-49642619D02*
X241319523Y-49595000D01*
X241224285Y-49499761D01*
X241081428Y-49356904D01*
X240986190Y-49309285D01*
X240890952Y-49309285D01*
X240938571Y-49547380D02*
X240843333Y-49499761D01*
X240748095Y-49404523D01*
X240700476Y-49214047D01*
X240700476Y-48880714D01*
X240748095Y-48690238D01*
X240843333Y-48595000D01*
X240938571Y-48547380D01*
X241129047Y-48547380D01*
X241224285Y-48595000D01*
X241319523Y-48690238D01*
X241367142Y-48880714D01*
X241367142Y-49214047D01*
X241319523Y-49404523D01*
X241224285Y-49499761D01*
X241129047Y-49547380D01*
X240938571Y-49547380D01*
X241700476Y-48547380D02*
X242319523Y-48547380D01*
X241986190Y-48928333D01*
X242129047Y-48928333D01*
X242224285Y-48975952D01*
X242271904Y-49023571D01*
X242319523Y-49118809D01*
X242319523Y-49356904D01*
X242271904Y-49452142D01*
X242224285Y-49499761D01*
X242129047Y-49547380D01*
X241843333Y-49547380D01*
X241748095Y-49499761D01*
X241700476Y-49452142D01*
%TO.C,Q2*%
X179563619Y-116471238D02*
X179516000Y-116566476D01*
X179420761Y-116661714D01*
X179277904Y-116804571D01*
X179230285Y-116899809D01*
X179230285Y-116995047D01*
X179468380Y-116947428D02*
X179420761Y-117042666D01*
X179325523Y-117137904D01*
X179135047Y-117185523D01*
X178801714Y-117185523D01*
X178611238Y-117137904D01*
X178516000Y-117042666D01*
X178468380Y-116947428D01*
X178468380Y-116756952D01*
X178516000Y-116661714D01*
X178611238Y-116566476D01*
X178801714Y-116518857D01*
X179135047Y-116518857D01*
X179325523Y-116566476D01*
X179420761Y-116661714D01*
X179468380Y-116756952D01*
X179468380Y-116947428D01*
X178563619Y-116137904D02*
X178516000Y-116090285D01*
X178468380Y-115995047D01*
X178468380Y-115756952D01*
X178516000Y-115661714D01*
X178563619Y-115614095D01*
X178658857Y-115566476D01*
X178754095Y-115566476D01*
X178896952Y-115614095D01*
X179468380Y-116185523D01*
X179468380Y-115566476D01*
%TO.C,Q1*%
X181087619Y-54670238D02*
X181040000Y-54765476D01*
X180944761Y-54860714D01*
X180801904Y-55003571D01*
X180754285Y-55098809D01*
X180754285Y-55194047D01*
X180992380Y-55146428D02*
X180944761Y-55241666D01*
X180849523Y-55336904D01*
X180659047Y-55384523D01*
X180325714Y-55384523D01*
X180135238Y-55336904D01*
X180040000Y-55241666D01*
X179992380Y-55146428D01*
X179992380Y-54955952D01*
X180040000Y-54860714D01*
X180135238Y-54765476D01*
X180325714Y-54717857D01*
X180659047Y-54717857D01*
X180849523Y-54765476D01*
X180944761Y-54860714D01*
X180992380Y-54955952D01*
X180992380Y-55146428D01*
X180992380Y-53765476D02*
X180992380Y-54336904D01*
X180992380Y-54051190D02*
X179992380Y-54051190D01*
X180135238Y-54146428D01*
X180230476Y-54241666D01*
X180278095Y-54336904D01*
%TO.C,J19*%
X242911380Y-117649523D02*
X243625666Y-117649523D01*
X243768523Y-117697142D01*
X243863761Y-117792380D01*
X243911380Y-117935238D01*
X243911380Y-118030476D01*
X243911380Y-116649523D02*
X243911380Y-117220952D01*
X243911380Y-116935238D02*
X242911380Y-116935238D01*
X243054238Y-117030476D01*
X243149476Y-117125714D01*
X243197095Y-117220952D01*
X243911380Y-116173333D02*
X243911380Y-115982857D01*
X243863761Y-115887619D01*
X243816142Y-115840000D01*
X243673285Y-115744761D01*
X243482809Y-115697142D01*
X243101857Y-115697142D01*
X243006619Y-115744761D01*
X242959000Y-115792380D01*
X242911380Y-115887619D01*
X242911380Y-116078095D01*
X242959000Y-116173333D01*
X243006619Y-116220952D01*
X243101857Y-116268571D01*
X243339952Y-116268571D01*
X243435190Y-116220952D01*
X243482809Y-116173333D01*
X243530428Y-116078095D01*
X243530428Y-115887619D01*
X243482809Y-115792380D01*
X243435190Y-115744761D01*
X243339952Y-115697142D01*
%TO.C,J18*%
X249896380Y-117649523D02*
X250610666Y-117649523D01*
X250753523Y-117697142D01*
X250848761Y-117792380D01*
X250896380Y-117935238D01*
X250896380Y-118030476D01*
X250896380Y-116649523D02*
X250896380Y-117220952D01*
X250896380Y-116935238D02*
X249896380Y-116935238D01*
X250039238Y-117030476D01*
X250134476Y-117125714D01*
X250182095Y-117220952D01*
X250324952Y-116078095D02*
X250277333Y-116173333D01*
X250229714Y-116220952D01*
X250134476Y-116268571D01*
X250086857Y-116268571D01*
X249991619Y-116220952D01*
X249944000Y-116173333D01*
X249896380Y-116078095D01*
X249896380Y-115887619D01*
X249944000Y-115792380D01*
X249991619Y-115744761D01*
X250086857Y-115697142D01*
X250134476Y-115697142D01*
X250229714Y-115744761D01*
X250277333Y-115792380D01*
X250324952Y-115887619D01*
X250324952Y-116078095D01*
X250372571Y-116173333D01*
X250420190Y-116220952D01*
X250515428Y-116268571D01*
X250705904Y-116268571D01*
X250801142Y-116220952D01*
X250848761Y-116173333D01*
X250896380Y-116078095D01*
X250896380Y-115887619D01*
X250848761Y-115792380D01*
X250801142Y-115744761D01*
X250705904Y-115697142D01*
X250515428Y-115697142D01*
X250420190Y-115744761D01*
X250372571Y-115792380D01*
X250324952Y-115887619D01*
%TO.C,J17*%
X249896380Y-111003189D02*
X250610666Y-111003189D01*
X250753523Y-111050808D01*
X250848761Y-111146046D01*
X250896380Y-111288904D01*
X250896380Y-111384142D01*
X250896380Y-110003189D02*
X250896380Y-110574618D01*
X250896380Y-110288904D02*
X249896380Y-110288904D01*
X250039238Y-110384142D01*
X250134476Y-110479380D01*
X250182095Y-110574618D01*
X249896380Y-109669856D02*
X249896380Y-109003189D01*
X250896380Y-109431761D01*
%TO.C,J16*%
X249769380Y-104356856D02*
X250483666Y-104356856D01*
X250626523Y-104404475D01*
X250721761Y-104499713D01*
X250769380Y-104642571D01*
X250769380Y-104737809D01*
X250769380Y-103356856D02*
X250769380Y-103928285D01*
X250769380Y-103642571D02*
X249769380Y-103642571D01*
X249912238Y-103737809D01*
X250007476Y-103833047D01*
X250055095Y-103928285D01*
X249769380Y-102499713D02*
X249769380Y-102690190D01*
X249817000Y-102785428D01*
X249864619Y-102833047D01*
X250007476Y-102928285D01*
X250197952Y-102975904D01*
X250578904Y-102975904D01*
X250674142Y-102928285D01*
X250721761Y-102880666D01*
X250769380Y-102785428D01*
X250769380Y-102594952D01*
X250721761Y-102499713D01*
X250674142Y-102452094D01*
X250578904Y-102404475D01*
X250340809Y-102404475D01*
X250245571Y-102452094D01*
X250197952Y-102499713D01*
X250150333Y-102594952D01*
X250150333Y-102785428D01*
X250197952Y-102880666D01*
X250245571Y-102928285D01*
X250340809Y-102975904D01*
%TO.C,J15*%
X242911380Y-111003189D02*
X243625666Y-111003189D01*
X243768523Y-111050808D01*
X243863761Y-111146046D01*
X243911380Y-111288904D01*
X243911380Y-111384142D01*
X243911380Y-110003189D02*
X243911380Y-110574618D01*
X243911380Y-110288904D02*
X242911380Y-110288904D01*
X243054238Y-110384142D01*
X243149476Y-110479380D01*
X243197095Y-110574618D01*
X242911380Y-109098427D02*
X242911380Y-109574618D01*
X243387571Y-109622237D01*
X243339952Y-109574618D01*
X243292333Y-109479380D01*
X243292333Y-109241285D01*
X243339952Y-109146046D01*
X243387571Y-109098427D01*
X243482809Y-109050808D01*
X243720904Y-109050808D01*
X243816142Y-109098427D01*
X243863761Y-109146046D01*
X243911380Y-109241285D01*
X243911380Y-109479380D01*
X243863761Y-109574618D01*
X243816142Y-109622237D01*
%TO.C,J14*%
X242784380Y-104356856D02*
X243498666Y-104356856D01*
X243641523Y-104404475D01*
X243736761Y-104499713D01*
X243784380Y-104642571D01*
X243784380Y-104737809D01*
X243784380Y-103356856D02*
X243784380Y-103928285D01*
X243784380Y-103642571D02*
X242784380Y-103642571D01*
X242927238Y-103737809D01*
X243022476Y-103833047D01*
X243070095Y-103928285D01*
X243117714Y-102499713D02*
X243784380Y-102499713D01*
X242736761Y-102737809D02*
X243451047Y-102975904D01*
X243451047Y-102356856D01*
%TO.C,J13*%
X249769380Y-97710523D02*
X250483666Y-97710523D01*
X250626523Y-97758142D01*
X250721761Y-97853380D01*
X250769380Y-97996238D01*
X250769380Y-98091476D01*
X250769380Y-96710523D02*
X250769380Y-97281952D01*
X250769380Y-96996238D02*
X249769380Y-96996238D01*
X249912238Y-97091476D01*
X250007476Y-97186714D01*
X250055095Y-97281952D01*
X249769380Y-96377190D02*
X249769380Y-95758142D01*
X250150333Y-96091476D01*
X250150333Y-95948619D01*
X250197952Y-95853380D01*
X250245571Y-95805761D01*
X250340809Y-95758142D01*
X250578904Y-95758142D01*
X250674142Y-95805761D01*
X250721761Y-95853380D01*
X250769380Y-95948619D01*
X250769380Y-96234333D01*
X250721761Y-96329571D01*
X250674142Y-96377190D01*
%TO.C,J12*%
X242657380Y-97837523D02*
X243371666Y-97837523D01*
X243514523Y-97885142D01*
X243609761Y-97980380D01*
X243657380Y-98123238D01*
X243657380Y-98218476D01*
X243657380Y-96837523D02*
X243657380Y-97408952D01*
X243657380Y-97123238D02*
X242657380Y-97123238D01*
X242800238Y-97218476D01*
X242895476Y-97313714D01*
X242943095Y-97408952D01*
X242752619Y-96456571D02*
X242705000Y-96408952D01*
X242657380Y-96313714D01*
X242657380Y-96075619D01*
X242705000Y-95980380D01*
X242752619Y-95932761D01*
X242847857Y-95885142D01*
X242943095Y-95885142D01*
X243085952Y-95932761D01*
X243657380Y-96504190D01*
X243657380Y-95885142D01*
%TO.C,C4*%
X247737333Y-57149142D02*
X247689714Y-57196761D01*
X247546857Y-57244380D01*
X247451619Y-57244380D01*
X247308761Y-57196761D01*
X247213523Y-57101523D01*
X247165904Y-57006285D01*
X247118285Y-56815809D01*
X247118285Y-56672952D01*
X247165904Y-56482476D01*
X247213523Y-56387238D01*
X247308761Y-56292000D01*
X247451619Y-56244380D01*
X247546857Y-56244380D01*
X247689714Y-56292000D01*
X247737333Y-56339619D01*
X248594476Y-56577714D02*
X248594476Y-57244380D01*
X248356380Y-56196761D02*
X248118285Y-56911047D01*
X248737333Y-56911047D01*
%TO.C,C5*%
X247737333Y-68833142D02*
X247689714Y-68880761D01*
X247546857Y-68928380D01*
X247451619Y-68928380D01*
X247308761Y-68880761D01*
X247213523Y-68785523D01*
X247165904Y-68690285D01*
X247118285Y-68499809D01*
X247118285Y-68356952D01*
X247165904Y-68166476D01*
X247213523Y-68071238D01*
X247308761Y-67976000D01*
X247451619Y-67928380D01*
X247546857Y-67928380D01*
X247689714Y-67976000D01*
X247737333Y-68023619D01*
X248642095Y-67928380D02*
X248165904Y-67928380D01*
X248118285Y-68404571D01*
X248165904Y-68356952D01*
X248261142Y-68309333D01*
X248499238Y-68309333D01*
X248594476Y-68356952D01*
X248642095Y-68404571D01*
X248689714Y-68499809D01*
X248689714Y-68737904D01*
X248642095Y-68833142D01*
X248594476Y-68880761D01*
X248499238Y-68928380D01*
X248261142Y-68928380D01*
X248165904Y-68880761D01*
X248118285Y-68833142D01*
%TO.C,C3*%
X247737333Y-80517142D02*
X247689714Y-80564761D01*
X247546857Y-80612380D01*
X247451619Y-80612380D01*
X247308761Y-80564761D01*
X247213523Y-80469523D01*
X247165904Y-80374285D01*
X247118285Y-80183809D01*
X247118285Y-80040952D01*
X247165904Y-79850476D01*
X247213523Y-79755238D01*
X247308761Y-79660000D01*
X247451619Y-79612380D01*
X247546857Y-79612380D01*
X247689714Y-79660000D01*
X247737333Y-79707619D01*
X248070666Y-79612380D02*
X248689714Y-79612380D01*
X248356380Y-79993333D01*
X248499238Y-79993333D01*
X248594476Y-80040952D01*
X248642095Y-80088571D01*
X248689714Y-80183809D01*
X248689714Y-80421904D01*
X248642095Y-80517142D01*
X248594476Y-80564761D01*
X248499238Y-80612380D01*
X248213523Y-80612380D01*
X248118285Y-80564761D01*
X248070666Y-80517142D01*
%TO.C,R2*%
X172553333Y-108068380D02*
X172220000Y-107592190D01*
X171981904Y-108068380D02*
X171981904Y-107068380D01*
X172362857Y-107068380D01*
X172458095Y-107116000D01*
X172505714Y-107163619D01*
X172553333Y-107258857D01*
X172553333Y-107401714D01*
X172505714Y-107496952D01*
X172458095Y-107544571D01*
X172362857Y-107592190D01*
X171981904Y-107592190D01*
X172934285Y-107163619D02*
X172981904Y-107116000D01*
X173077142Y-107068380D01*
X173315238Y-107068380D01*
X173410476Y-107116000D01*
X173458095Y-107163619D01*
X173505714Y-107258857D01*
X173505714Y-107354095D01*
X173458095Y-107496952D01*
X172886666Y-108068380D01*
X173505714Y-108068380D01*
%TO.C,R1*%
X176140380Y-77890666D02*
X175664190Y-78224000D01*
X176140380Y-78462095D02*
X175140380Y-78462095D01*
X175140380Y-78081142D01*
X175188000Y-77985904D01*
X175235619Y-77938285D01*
X175330857Y-77890666D01*
X175473714Y-77890666D01*
X175568952Y-77938285D01*
X175616571Y-77985904D01*
X175664190Y-78081142D01*
X175664190Y-78462095D01*
X176140380Y-76938285D02*
X176140380Y-77509714D01*
X176140380Y-77224000D02*
X175140380Y-77224000D01*
X175283238Y-77319238D01*
X175378476Y-77414476D01*
X175426095Y-77509714D01*
%TO.C,C11*%
X171061142Y-75867142D02*
X171013523Y-75914761D01*
X170870666Y-75962380D01*
X170775428Y-75962380D01*
X170632571Y-75914761D01*
X170537333Y-75819523D01*
X170489714Y-75724285D01*
X170442095Y-75533809D01*
X170442095Y-75390952D01*
X170489714Y-75200476D01*
X170537333Y-75105238D01*
X170632571Y-75010000D01*
X170775428Y-74962380D01*
X170870666Y-74962380D01*
X171013523Y-75010000D01*
X171061142Y-75057619D01*
X172013523Y-75962380D02*
X171442095Y-75962380D01*
X171727809Y-75962380D02*
X171727809Y-74962380D01*
X171632571Y-75105238D01*
X171537333Y-75200476D01*
X171442095Y-75248095D01*
X172965904Y-75962380D02*
X172394476Y-75962380D01*
X172680190Y-75962380D02*
X172680190Y-74962380D01*
X172584952Y-75105238D01*
X172489714Y-75200476D01*
X172394476Y-75248095D01*
%TO.C,C10*%
X171061142Y-84953142D02*
X171013523Y-85000761D01*
X170870666Y-85048380D01*
X170775428Y-85048380D01*
X170632571Y-85000761D01*
X170537333Y-84905523D01*
X170489714Y-84810285D01*
X170442095Y-84619809D01*
X170442095Y-84476952D01*
X170489714Y-84286476D01*
X170537333Y-84191238D01*
X170632571Y-84096000D01*
X170775428Y-84048380D01*
X170870666Y-84048380D01*
X171013523Y-84096000D01*
X171061142Y-84143619D01*
X172013523Y-85048380D02*
X171442095Y-85048380D01*
X171727809Y-85048380D02*
X171727809Y-84048380D01*
X171632571Y-84191238D01*
X171537333Y-84286476D01*
X171442095Y-84334095D01*
X172632571Y-84048380D02*
X172727809Y-84048380D01*
X172823047Y-84096000D01*
X172870666Y-84143619D01*
X172918285Y-84238857D01*
X172965904Y-84429333D01*
X172965904Y-84667428D01*
X172918285Y-84857904D01*
X172870666Y-84953142D01*
X172823047Y-85000761D01*
X172727809Y-85048380D01*
X172632571Y-85048380D01*
X172537333Y-85000761D01*
X172489714Y-84953142D01*
X172442095Y-84857904D01*
X172394476Y-84667428D01*
X172394476Y-84429333D01*
X172442095Y-84238857D01*
X172489714Y-84143619D01*
X172537333Y-84096000D01*
X172632571Y-84048380D01*
%TO.C,C9*%
X171575833Y-79931142D02*
X171528214Y-79978761D01*
X171385357Y-80026380D01*
X171290119Y-80026380D01*
X171147261Y-79978761D01*
X171052023Y-79883523D01*
X171004404Y-79788285D01*
X170956785Y-79597809D01*
X170956785Y-79454952D01*
X171004404Y-79264476D01*
X171052023Y-79169238D01*
X171147261Y-79074000D01*
X171290119Y-79026380D01*
X171385357Y-79026380D01*
X171528214Y-79074000D01*
X171575833Y-79121619D01*
X172052023Y-80026380D02*
X172242500Y-80026380D01*
X172337738Y-79978761D01*
X172385357Y-79931142D01*
X172480595Y-79788285D01*
X172528214Y-79597809D01*
X172528214Y-79216857D01*
X172480595Y-79121619D01*
X172432976Y-79074000D01*
X172337738Y-79026380D01*
X172147261Y-79026380D01*
X172052023Y-79074000D01*
X172004404Y-79121619D01*
X171956785Y-79216857D01*
X171956785Y-79454952D01*
X172004404Y-79550190D01*
X172052023Y-79597809D01*
X172147261Y-79645428D01*
X172337738Y-79645428D01*
X172432976Y-79597809D01*
X172480595Y-79550190D01*
X172528214Y-79454952D01*
%TO.C,C1*%
X171575833Y-71803142D02*
X171528214Y-71850761D01*
X171385357Y-71898380D01*
X171290119Y-71898380D01*
X171147261Y-71850761D01*
X171052023Y-71755523D01*
X171004404Y-71660285D01*
X170956785Y-71469809D01*
X170956785Y-71326952D01*
X171004404Y-71136476D01*
X171052023Y-71041238D01*
X171147261Y-70946000D01*
X171290119Y-70898380D01*
X171385357Y-70898380D01*
X171528214Y-70946000D01*
X171575833Y-70993619D01*
X172528214Y-71898380D02*
X171956785Y-71898380D01*
X172242500Y-71898380D02*
X172242500Y-70898380D01*
X172147261Y-71041238D01*
X172052023Y-71136476D01*
X171956785Y-71184095D01*
%TO.C,J3*%
X184070666Y-67988380D02*
X184070666Y-68702666D01*
X184023047Y-68845523D01*
X183927809Y-68940761D01*
X183784952Y-68988380D01*
X183689714Y-68988380D01*
X184451619Y-67988380D02*
X185070666Y-67988380D01*
X184737333Y-68369333D01*
X184880190Y-68369333D01*
X184975428Y-68416952D01*
X185023047Y-68464571D01*
X185070666Y-68559809D01*
X185070666Y-68797904D01*
X185023047Y-68893142D01*
X184975428Y-68940761D01*
X184880190Y-68988380D01*
X184594476Y-68988380D01*
X184499238Y-68940761D01*
X184451619Y-68893142D01*
%TO.C,H3*%
X251968095Y-42442380D02*
X251968095Y-41442380D01*
X251968095Y-41918571D02*
X252539523Y-41918571D01*
X252539523Y-42442380D02*
X252539523Y-41442380D01*
X252920476Y-41442380D02*
X253539523Y-41442380D01*
X253206190Y-41823333D01*
X253349047Y-41823333D01*
X253444285Y-41870952D01*
X253491904Y-41918571D01*
X253539523Y-42013809D01*
X253539523Y-42251904D01*
X253491904Y-42347142D01*
X253444285Y-42394761D01*
X253349047Y-42442380D01*
X253063333Y-42442380D01*
X252968095Y-42394761D01*
X252920476Y-42347142D01*
%TO.C,H4*%
X165608095Y-42442380D02*
X165608095Y-41442380D01*
X165608095Y-41918571D02*
X166179523Y-41918571D01*
X166179523Y-42442380D02*
X166179523Y-41442380D01*
X167084285Y-41775714D02*
X167084285Y-42442380D01*
X166846190Y-41394761D02*
X166608095Y-42109047D01*
X167227142Y-42109047D01*
%TO.C,H2*%
X165608095Y-122452380D02*
X165608095Y-121452380D01*
X165608095Y-121928571D02*
X166179523Y-121928571D01*
X166179523Y-122452380D02*
X166179523Y-121452380D01*
X166608095Y-121547619D02*
X166655714Y-121500000D01*
X166750952Y-121452380D01*
X166989047Y-121452380D01*
X167084285Y-121500000D01*
X167131904Y-121547619D01*
X167179523Y-121642857D01*
X167179523Y-121738095D01*
X167131904Y-121880952D01*
X166560476Y-122452380D01*
X167179523Y-122452380D01*
%TO.C,H1*%
X255778095Y-123388380D02*
X255778095Y-122388380D01*
X255778095Y-122864571D02*
X256349523Y-122864571D01*
X256349523Y-123388380D02*
X256349523Y-122388380D01*
X257349523Y-123388380D02*
X256778095Y-123388380D01*
X257063809Y-123388380D02*
X257063809Y-122388380D01*
X256968571Y-122531238D01*
X256873333Y-122626476D01*
X256778095Y-122674095D01*
%TO.C,R11*%
X214241142Y-119112380D02*
X213907809Y-118636190D01*
X213669714Y-119112380D02*
X213669714Y-118112380D01*
X214050666Y-118112380D01*
X214145904Y-118160000D01*
X214193523Y-118207619D01*
X214241142Y-118302857D01*
X214241142Y-118445714D01*
X214193523Y-118540952D01*
X214145904Y-118588571D01*
X214050666Y-118636190D01*
X213669714Y-118636190D01*
X215193523Y-119112380D02*
X214622095Y-119112380D01*
X214907809Y-119112380D02*
X214907809Y-118112380D01*
X214812571Y-118255238D01*
X214717333Y-118350476D01*
X214622095Y-118398095D01*
X216145904Y-119112380D02*
X215574476Y-119112380D01*
X215860190Y-119112380D02*
X215860190Y-118112380D01*
X215764952Y-118255238D01*
X215669714Y-118350476D01*
X215574476Y-118398095D01*
%TO.C,R10*%
X231995142Y-53580380D02*
X231661809Y-53104190D01*
X231423714Y-53580380D02*
X231423714Y-52580380D01*
X231804666Y-52580380D01*
X231899904Y-52628000D01*
X231947523Y-52675619D01*
X231995142Y-52770857D01*
X231995142Y-52913714D01*
X231947523Y-53008952D01*
X231899904Y-53056571D01*
X231804666Y-53104190D01*
X231423714Y-53104190D01*
X232947523Y-53580380D02*
X232376095Y-53580380D01*
X232661809Y-53580380D02*
X232661809Y-52580380D01*
X232566571Y-52723238D01*
X232471333Y-52818476D01*
X232376095Y-52866095D01*
X233566571Y-52580380D02*
X233661809Y-52580380D01*
X233757047Y-52628000D01*
X233804666Y-52675619D01*
X233852285Y-52770857D01*
X233899904Y-52961333D01*
X233899904Y-53199428D01*
X233852285Y-53389904D01*
X233804666Y-53485142D01*
X233757047Y-53532761D01*
X233661809Y-53580380D01*
X233566571Y-53580380D01*
X233471333Y-53532761D01*
X233423714Y-53485142D01*
X233376095Y-53389904D01*
X233328476Y-53199428D01*
X233328476Y-52961333D01*
X233376095Y-52770857D01*
X233423714Y-52675619D01*
X233471333Y-52628000D01*
X233566571Y-52580380D01*
%TO.C,R9*%
X218972380Y-123991666D02*
X218496190Y-124325000D01*
X218972380Y-124563095D02*
X217972380Y-124563095D01*
X217972380Y-124182142D01*
X218020000Y-124086904D01*
X218067619Y-124039285D01*
X218162857Y-123991666D01*
X218305714Y-123991666D01*
X218400952Y-124039285D01*
X218448571Y-124086904D01*
X218496190Y-124182142D01*
X218496190Y-124563095D01*
X218972380Y-123515476D02*
X218972380Y-123325000D01*
X218924761Y-123229761D01*
X218877142Y-123182142D01*
X218734285Y-123086904D01*
X218543809Y-123039285D01*
X218162857Y-123039285D01*
X218067619Y-123086904D01*
X218020000Y-123134523D01*
X217972380Y-123229761D01*
X217972380Y-123420238D01*
X218020000Y-123515476D01*
X218067619Y-123563095D01*
X218162857Y-123610714D01*
X218400952Y-123610714D01*
X218496190Y-123563095D01*
X218543809Y-123515476D01*
X218591428Y-123420238D01*
X218591428Y-123229761D01*
X218543809Y-123134523D01*
X218496190Y-123086904D01*
X218400952Y-123039285D01*
%TO.C,R8*%
X176998333Y-122922380D02*
X176665000Y-122446190D01*
X176426904Y-122922380D02*
X176426904Y-121922380D01*
X176807857Y-121922380D01*
X176903095Y-121970000D01*
X176950714Y-122017619D01*
X176998333Y-122112857D01*
X176998333Y-122255714D01*
X176950714Y-122350952D01*
X176903095Y-122398571D01*
X176807857Y-122446190D01*
X176426904Y-122446190D01*
X177569761Y-122350952D02*
X177474523Y-122303333D01*
X177426904Y-122255714D01*
X177379285Y-122160476D01*
X177379285Y-122112857D01*
X177426904Y-122017619D01*
X177474523Y-121970000D01*
X177569761Y-121922380D01*
X177760238Y-121922380D01*
X177855476Y-121970000D01*
X177903095Y-122017619D01*
X177950714Y-122112857D01*
X177950714Y-122160476D01*
X177903095Y-122255714D01*
X177855476Y-122303333D01*
X177760238Y-122350952D01*
X177569761Y-122350952D01*
X177474523Y-122398571D01*
X177426904Y-122446190D01*
X177379285Y-122541428D01*
X177379285Y-122731904D01*
X177426904Y-122827142D01*
X177474523Y-122874761D01*
X177569761Y-122922380D01*
X177760238Y-122922380D01*
X177855476Y-122874761D01*
X177903095Y-122827142D01*
X177950714Y-122731904D01*
X177950714Y-122541428D01*
X177903095Y-122446190D01*
X177855476Y-122398571D01*
X177760238Y-122350952D01*
%TO.C,R7*%
X184745333Y-63148380D02*
X184412000Y-62672190D01*
X184173904Y-63148380D02*
X184173904Y-62148380D01*
X184554857Y-62148380D01*
X184650095Y-62196000D01*
X184697714Y-62243619D01*
X184745333Y-62338857D01*
X184745333Y-62481714D01*
X184697714Y-62576952D01*
X184650095Y-62624571D01*
X184554857Y-62672190D01*
X184173904Y-62672190D01*
X185078666Y-62148380D02*
X185745333Y-62148380D01*
X185316761Y-63148380D01*
%TO.C,L4*%
X198207333Y-67762380D02*
X197731142Y-67762380D01*
X197731142Y-66762380D01*
X198969238Y-67095714D02*
X198969238Y-67762380D01*
X198731142Y-66714761D02*
X198493047Y-67429047D01*
X199112095Y-67429047D01*
%TO.C,L3*%
X198207333Y-85542380D02*
X197731142Y-85542380D01*
X197731142Y-84542380D01*
X198445428Y-84542380D02*
X199064476Y-84542380D01*
X198731142Y-84923333D01*
X198874000Y-84923333D01*
X198969238Y-84970952D01*
X199016857Y-85018571D01*
X199064476Y-85113809D01*
X199064476Y-85351904D01*
X199016857Y-85447142D01*
X198969238Y-85494761D01*
X198874000Y-85542380D01*
X198588285Y-85542380D01*
X198493047Y-85494761D01*
X198445428Y-85447142D01*
%TO.C,L2*%
X198207333Y-103322380D02*
X197731142Y-103322380D01*
X197731142Y-102322380D01*
X198493047Y-102417619D02*
X198540666Y-102370000D01*
X198635904Y-102322380D01*
X198874000Y-102322380D01*
X198969238Y-102370000D01*
X199016857Y-102417619D01*
X199064476Y-102512857D01*
X199064476Y-102608095D01*
X199016857Y-102750952D01*
X198445428Y-103322380D01*
X199064476Y-103322380D01*
%TO.C,L1*%
X198207333Y-49982380D02*
X197731142Y-49982380D01*
X197731142Y-48982380D01*
X199064476Y-49982380D02*
X198493047Y-49982380D01*
X198778761Y-49982380D02*
X198778761Y-48982380D01*
X198683523Y-49125238D01*
X198588285Y-49220476D01*
X198493047Y-49268095D01*
%TO.C,J11*%
X228806476Y-84586380D02*
X228806476Y-85300666D01*
X228758857Y-85443523D01*
X228663619Y-85538761D01*
X228520761Y-85586380D01*
X228425523Y-85586380D01*
X229806476Y-85586380D02*
X229235047Y-85586380D01*
X229520761Y-85586380D02*
X229520761Y-84586380D01*
X229425523Y-84729238D01*
X229330285Y-84824476D01*
X229235047Y-84872095D01*
X230758857Y-85586380D02*
X230187428Y-85586380D01*
X230473142Y-85586380D02*
X230473142Y-84586380D01*
X230377904Y-84729238D01*
X230282666Y-84824476D01*
X230187428Y-84872095D01*
%TO.C,J10*%
X228425476Y-56348380D02*
X228425476Y-57062666D01*
X228377857Y-57205523D01*
X228282619Y-57300761D01*
X228139761Y-57348380D01*
X228044523Y-57348380D01*
X229425476Y-57348380D02*
X228854047Y-57348380D01*
X229139761Y-57348380D02*
X229139761Y-56348380D01*
X229044523Y-56491238D01*
X228949285Y-56586476D01*
X228854047Y-56634095D01*
X230044523Y-56348380D02*
X230139761Y-56348380D01*
X230235000Y-56396000D01*
X230282619Y-56443619D01*
X230330238Y-56538857D01*
X230377857Y-56729333D01*
X230377857Y-56967428D01*
X230330238Y-57157904D01*
X230282619Y-57253142D01*
X230235000Y-57300761D01*
X230139761Y-57348380D01*
X230044523Y-57348380D01*
X229949285Y-57300761D01*
X229901666Y-57253142D01*
X229854047Y-57157904D01*
X229806428Y-56967428D01*
X229806428Y-56729333D01*
X229854047Y-56538857D01*
X229901666Y-56443619D01*
X229949285Y-56396000D01*
X230044523Y-56348380D01*
%TO.C,J9*%
X213026666Y-56576380D02*
X213026666Y-57290666D01*
X212979047Y-57433523D01*
X212883809Y-57528761D01*
X212740952Y-57576380D01*
X212645714Y-57576380D01*
X213550476Y-57576380D02*
X213740952Y-57576380D01*
X213836190Y-57528761D01*
X213883809Y-57481142D01*
X213979047Y-57338285D01*
X214026666Y-57147809D01*
X214026666Y-56766857D01*
X213979047Y-56671619D01*
X213931428Y-56624000D01*
X213836190Y-56576380D01*
X213645714Y-56576380D01*
X213550476Y-56624000D01*
X213502857Y-56671619D01*
X213455238Y-56766857D01*
X213455238Y-57004952D01*
X213502857Y-57100190D01*
X213550476Y-57147809D01*
X213645714Y-57195428D01*
X213836190Y-57195428D01*
X213931428Y-57147809D01*
X213979047Y-57100190D01*
X214026666Y-57004952D01*
%TO.C,J8*%
X213026666Y-84586380D02*
X213026666Y-85300666D01*
X212979047Y-85443523D01*
X212883809Y-85538761D01*
X212740952Y-85586380D01*
X212645714Y-85586380D01*
X213645714Y-85014952D02*
X213550476Y-84967333D01*
X213502857Y-84919714D01*
X213455238Y-84824476D01*
X213455238Y-84776857D01*
X213502857Y-84681619D01*
X213550476Y-84634000D01*
X213645714Y-84586380D01*
X213836190Y-84586380D01*
X213931428Y-84634000D01*
X213979047Y-84681619D01*
X214026666Y-84776857D01*
X214026666Y-84824476D01*
X213979047Y-84919714D01*
X213931428Y-84967333D01*
X213836190Y-85014952D01*
X213645714Y-85014952D01*
X213550476Y-85062571D01*
X213502857Y-85110190D01*
X213455238Y-85205428D01*
X213455238Y-85395904D01*
X213502857Y-85491142D01*
X213550476Y-85538761D01*
X213645714Y-85586380D01*
X213836190Y-85586380D01*
X213931428Y-85538761D01*
X213979047Y-85491142D01*
X214026666Y-85395904D01*
X214026666Y-85205428D01*
X213979047Y-85110190D01*
X213931428Y-85062571D01*
X213836190Y-85014952D01*
%TO.C,J7*%
X225345666Y-70572380D02*
X225345666Y-71286666D01*
X225298047Y-71429523D01*
X225202809Y-71524761D01*
X225059952Y-71572380D01*
X224964714Y-71572380D01*
X225726619Y-70572380D02*
X226393285Y-70572380D01*
X225964714Y-71572380D01*
%TO.C,J6*%
X208962666Y-70572380D02*
X208962666Y-71286666D01*
X208915047Y-71429523D01*
X208819809Y-71524761D01*
X208676952Y-71572380D01*
X208581714Y-71572380D01*
X209867428Y-70572380D02*
X209676952Y-70572380D01*
X209581714Y-70620000D01*
X209534095Y-70667619D01*
X209438857Y-70810476D01*
X209391238Y-71000952D01*
X209391238Y-71381904D01*
X209438857Y-71477142D01*
X209486476Y-71524761D01*
X209581714Y-71572380D01*
X209772190Y-71572380D01*
X209867428Y-71524761D01*
X209915047Y-71477142D01*
X209962666Y-71381904D01*
X209962666Y-71143809D01*
X209915047Y-71048571D01*
X209867428Y-71000952D01*
X209772190Y-70953333D01*
X209581714Y-70953333D01*
X209486476Y-71000952D01*
X209438857Y-71048571D01*
X209391238Y-71143809D01*
%TO.C,J5*%
X229282666Y-99528380D02*
X229282666Y-100242666D01*
X229235047Y-100385523D01*
X229139809Y-100480761D01*
X228996952Y-100528380D01*
X228901714Y-100528380D01*
X230235047Y-99528380D02*
X229758857Y-99528380D01*
X229711238Y-100004571D01*
X229758857Y-99956952D01*
X229854095Y-99909333D01*
X230092190Y-99909333D01*
X230187428Y-99956952D01*
X230235047Y-100004571D01*
X230282666Y-100099809D01*
X230282666Y-100337904D01*
X230235047Y-100433142D01*
X230187428Y-100480761D01*
X230092190Y-100528380D01*
X229854095Y-100528380D01*
X229758857Y-100480761D01*
X229711238Y-100433142D01*
%TO.C,J4*%
X213026666Y-99528380D02*
X213026666Y-100242666D01*
X212979047Y-100385523D01*
X212883809Y-100480761D01*
X212740952Y-100528380D01*
X212645714Y-100528380D01*
X213931428Y-99861714D02*
X213931428Y-100528380D01*
X213693333Y-99480761D02*
X213455238Y-100195047D01*
X214074285Y-100195047D01*
%TO.C,J2*%
X217892380Y-128857333D02*
X218606666Y-128857333D01*
X218749523Y-128904952D01*
X218844761Y-129000190D01*
X218892380Y-129143047D01*
X218892380Y-129238285D01*
X217987619Y-128428761D02*
X217940000Y-128381142D01*
X217892380Y-128285904D01*
X217892380Y-128047809D01*
X217940000Y-127952571D01*
X217987619Y-127904952D01*
X218082857Y-127857333D01*
X218178095Y-127857333D01*
X218320952Y-127904952D01*
X218892380Y-128476380D01*
X218892380Y-127857333D01*
%TO.C,J1*%
X219924380Y-49609333D02*
X220638666Y-49609333D01*
X220781523Y-49656952D01*
X220876761Y-49752190D01*
X220924380Y-49895047D01*
X220924380Y-49990285D01*
X220924380Y-48609333D02*
X220924380Y-49180761D01*
X220924380Y-48895047D02*
X219924380Y-48895047D01*
X220067238Y-48990285D01*
X220162476Y-49085523D01*
X220210095Y-49180761D01*
%TO.C,C2*%
X241331142Y-44870666D02*
X241378761Y-44918285D01*
X241426380Y-45061142D01*
X241426380Y-45156380D01*
X241378761Y-45299238D01*
X241283523Y-45394476D01*
X241188285Y-45442095D01*
X240997809Y-45489714D01*
X240854952Y-45489714D01*
X240664476Y-45442095D01*
X240569238Y-45394476D01*
X240474000Y-45299238D01*
X240426380Y-45156380D01*
X240426380Y-45061142D01*
X240474000Y-44918285D01*
X240521619Y-44870666D01*
X240521619Y-44489714D02*
X240474000Y-44442095D01*
X240426380Y-44346857D01*
X240426380Y-44108761D01*
X240474000Y-44013523D01*
X240521619Y-43965904D01*
X240616857Y-43918285D01*
X240712095Y-43918285D01*
X240854952Y-43965904D01*
X241426380Y-44537333D01*
X241426380Y-43918285D01*
%TD*%
M02*
