<?xml version="1.0" encoding="UTF-8" standalone="no"?>
<!-- Created with Inkscape (http://www.inkscape.org/) -->

<svg
   width="210mm"
   height="297mm"
   viewBox="0 0 210 297"
   version="1.1"
   id="svg5"
   inkscape:version="1.1.1 (3bf5ae0d25, 2021-09-20, custom)"
   sodipodi:docname="BoardLabels.svg"
   xmlns:inkscape="http://www.inkscape.org/namespaces/inkscape"
   xmlns:sodipodi="http://sodipodi.sourceforge.net/DTD/sodipodi-0.dtd"
   xmlns="http://www.w3.org/2000/svg"
   xmlns:svg="http://www.w3.org/2000/svg">
  <sodipodi:namedview
     id="namedview7"
     pagecolor="#505050"
     bordercolor="#eeeeee"
     borderopacity="1"
     inkscape:pageshadow="0"
     inkscape:pageopacity="0"
     inkscape:pagecheckerboard="0"
     inkscape:document-units="mm"
     showgrid="false"
     showguides="true"
     inkscape:guide-bbox="true"
     inkscape:zoom="5.1241863"
     inkscape:cx="209.20395"
     inkscape:cy="209.88698"
     inkscape:window-width="1920"
     inkscape:window-height="1020"
     inkscape:window-x="0"
     inkscape:window-y="32"
     inkscape:window-maximized="1"
     inkscape:current-layer="layer1">
    <sodipodi:guide
       position="46.69694,245.62917"
       orientation="1,0"
       id="guide16229" />
  </sodipodi:namedview>
  <defs
     id="defs2" />
  <g
     inkscape:groupmode="layer"
     id="layer2"
     inkscape:label="Fond"
     sodipodi:insensitive="true"
     style="display:none">
    <rect
       style="fill:#ffffff;fill-opacity:1;stroke:none;stroke-width:2;stroke-linecap:round"
       id="rect5932"
       width="49.946915"
       height="33.443989"
       x="26.433895"
       y="36.985546"
       ry="0.72927368" />
  </g>
  <g
     inkscape:label="Calque 1"
     inkscape:groupmode="layer"
     id="layer1">
    <rect
       style="fill:#000000;fill-opacity:1;stroke:none;stroke-width:0.702068;stroke-linecap:round"
       id="rect6381"
       width="7.1450887"
       height="2.4827414"
       x="39.551853"
       y="51.370838"
       ry="1.2413707" />
    <text
       xml:space="preserve"
       style="font-style:normal;font-weight:normal;font-size:2.11485px;line-height:1.25;font-family:sans-serif;fill:#ffffff;fill-opacity:1;stroke:none;stroke-width:0.0528716"
       x="40.363789"
       y="53.387516"
       id="text12853"><tspan
         sodipodi:role="line"
         id="tspan12851"
         style="fill:#ffffff;fill-opacity:1;stroke-width:0.0528716"
         x="40.363789"
         y="53.387516">AHOs</tspan></text>
    <rect
       style="fill:#000000;fill-opacity:1;stroke:none;stroke-width:0.702068;stroke-linecap:round"
       id="rect14545"
       width="7.1450882"
       height="2.5557632"
       x="39.551853"
       y="48.815075"
       ry="1.2778816" />
    <text
       xml:space="preserve"
       style="font-style:normal;font-weight:normal;font-size:2.11485px;line-height:1.25;font-family:sans-serif;fill:#ffffff;fill-opacity:1;stroke:none;stroke-width:0.0528716"
       x="40.363789"
       y="50.831753"
       id="text14549"><tspan
         sodipodi:role="line"
         id="tspan14547"
         style="fill:#ffffff;fill-opacity:1;stroke-width:0.0528716"
         x="40.363789"
         y="50.831753">VSen</tspan></text>
    <rect
       style="fill:#000000;fill-opacity:1;stroke:none;stroke-width:0.702068;stroke-linecap:round"
       id="rect19807"
       width="7.1450887"
       height="2.4827414"
       x="39.551853"
       y="53.85358"
       ry="1.2413707" />
    <text
       xml:space="preserve"
       style="font-style:normal;font-weight:normal;font-size:2.11485px;line-height:1.25;font-family:sans-serif;fill:#ffffff;fill-opacity:1;stroke:none;stroke-width:0.0528716"
       x="40.363789"
       y="55.870258"
       id="text19811"><tspan
         sodipodi:role="line"
         id="tspan19809"
         style="fill:#ffffff;fill-opacity:1;stroke-width:0.0528716"
         x="40.363789"
         y="55.870258">ALOs</tspan></text>
    <rect
       style="fill:#000000;fill-opacity:1;stroke:none;stroke-width:0.702068;stroke-linecap:round"
       id="rect19813"
       width="7.1450887"
       height="2.4827414"
       x="39.551853"
       y="56.336323"
       ry="1.2413707" />
    <text
       xml:space="preserve"
       style="font-style:normal;font-weight:normal;font-size:2.11485px;line-height:1.25;font-family:sans-serif;fill:#ffffff;fill-opacity:1;stroke:none;stroke-width:0.0528716"
       x="40.363789"
       y="58.353001"
       id="text19817"><tspan
         sodipodi:role="line"
         id="tspan19815"
         style="fill:#ffffff;fill-opacity:1;stroke-width:0.0528716"
         x="40.363789"
         y="58.353001">BHOs</tspan></text>
    <rect
       style="fill:#000000;fill-opacity:1;stroke:none;stroke-width:0.702068;stroke-linecap:round"
       id="rect19819"
       width="7.1450887"
       height="2.4827414"
       x="39.551853"
       y="58.819065"
       ry="1.2413707" />
    <text
       xml:space="preserve"
       style="font-style:normal;font-weight:normal;font-size:2.11485px;line-height:1.25;font-family:sans-serif;fill:#ffffff;fill-opacity:1;stroke:none;stroke-width:0.0528716"
       x="40.363789"
       y="60.835743"
       id="text19823"><tspan
         sodipodi:role="line"
         id="tspan19821"
         style="fill:#ffffff;fill-opacity:1;stroke-width:0.0528716"
         x="40.363789"
         y="60.835743">BLOs</tspan></text>
    <rect
       style="fill:#000000;fill-opacity:1;stroke:none;stroke-width:0.702068;stroke-linecap:round"
       id="rect30295"
       width="7.1450887"
       height="2.4827414"
       x="39.551853"
       y="61.301807"
       ry="1.2413707" />
    <text
       xml:space="preserve"
       style="font-style:normal;font-weight:normal;font-size:2.11485px;line-height:1.25;font-family:sans-serif;fill:#ffffff;fill-opacity:1;stroke:none;stroke-width:0.0528716"
       x="40.363789"
       y="63.318485"
       id="text30299"><tspan
         sodipodi:role="line"
         id="tspan30297"
         style="fill:#ffffff;fill-opacity:1;stroke-width:0.0528716"
         x="40.363789"
         y="63.318485">FDrv</tspan></text>
    <rect
       style="fill:#000000;fill-opacity:1;stroke:none;stroke-width:0.702068;stroke-linecap:round"
       id="rect30301"
       width="7.1450887"
       height="2.4827414"
       x="39.551853"
       y="63.78455"
       ry="1.2413707" />
    <text
       xml:space="preserve"
       style="font-style:normal;font-weight:normal;font-size:2.11485px;line-height:1.25;font-family:sans-serif;fill:#ffffff;fill-opacity:1;stroke:none;stroke-width:0.0528716"
       x="40.363789"
       y="65.801224"
       id="text30305"><tspan
         sodipodi:role="line"
         id="tspan30303"
         style="fill:#ffffff;fill-opacity:1;stroke-width:0.0528716"
         x="40.363789"
         y="65.801224">Gnd</tspan></text>
    <path
       id="rect31135"
       style="fill:#000000;fill-opacity:1;stroke:none;stroke-width:2.65349;stroke-linecap:round"
       d="M 188.91602 194.1582 C 186.31676 194.1582 184.22461 196.25036 184.22461 198.84961 C 184.22461 201.44886 186.31676 203.54102 188.91602 203.54102 L 206.53711 203.54102 C 209.13636 203.54102 211.23047 201.44886 211.23047 198.84961 C 211.23047 196.25036 209.13636 194.1582 206.53711 194.1582 L 188.91602 194.1582 z M 201.92188 195.84766 C 202.73888 195.84766 203.3917 196.12091 203.88086 196.66992 C 204.37002 197.21633 204.61523 197.95001 204.61523 198.87109 C 204.61523 199.78958 204.37002 200.52326 203.88086 201.07227 C 203.3917 201.61867 202.73888 201.89258 201.92188 201.89258 C 201.10227 201.89258 200.44684 201.61867 199.95508 201.07227 C 199.46591 200.52586 199.2207 199.79218 199.2207 198.87109 C 199.2207 197.95001 199.46591 197.21633 199.95508 196.66992 C 200.44684 196.12091 201.10227 195.84766 201.92188 195.84766 z M 189.58008 195.95312 L 190.47461 195.95312 L 192.69531 201.7793 L 191.875 201.7793 L 191.34375 200.28516 L 188.71875 200.28516 L 188.1875 201.7793 L 187.35547 201.7793 L 189.58008 195.95312 z M 193.54492 195.95312 L 194.33398 195.95312 L 194.33398 198.3418 L 197.19922 198.3418 L 197.19922 195.95312 L 197.98633 195.95312 L 197.98633 201.7793 L 197.19922 201.7793 L 197.19922 199.00391 L 194.33398 199.00391 L 194.33398 201.7793 L 193.54492 201.7793 L 193.54492 195.95312 z M 201.92188 196.48633 C 201.34945 196.48633 200.89294 196.70024 200.55469 197.12695 C 200.21904 197.55367 200.05273 198.13475 200.05273 198.87109 C 200.05273 199.60484 200.21904 200.18656 200.55469 200.61328 C 200.89294 201.04 201.34945 201.25195 201.92188 201.25195 C 202.4943 201.25195 202.94625 201.04 203.2793 200.61328 C 203.61495 200.18656 203.7832 199.60484 203.7832 198.87109 C 203.7832 198.13475 203.61495 197.55367 203.2793 197.12695 C 202.94625 196.70024 202.4943 196.48633 201.92188 196.48633 z M 190.02539 196.72852 L 188.95508 199.62891 L 191.09766 199.62891 L 190.02539 196.72852 z M 207.20508 197.30273 C 207.47048 197.30273 207.7209 197.3223 207.95508 197.36133 C 208.18925 197.40036 208.40577 197.45905 208.60352 197.53711 L 208.60352 198.2168 C 208.40056 198.11272 208.18927 198.03446 207.9707 197.98242 C 207.75214 197.93038 207.52519 197.9043 207.29102 197.9043 C 206.93455 197.9043 206.66781 197.95908 206.48828 198.06836 C 206.31135 198.17764 206.22266 198.34198 206.22266 198.56055 C 206.22266 198.72707 206.28657 198.85685 206.41406 198.95312 C 206.54156 199.04679 206.79655 199.13679 207.18164 199.22266 L 207.42773 199.27734 C 207.93771 199.38662 208.30031 199.54184 208.51367 199.74219 C 208.72963 199.93993 208.83789 200.21775 208.83789 200.57422 C 208.83789 200.98012 208.67616 201.30033 208.35352 201.53711 C 208.03348 201.77389 207.59131 201.89258 207.0293 201.89258 C 206.79512 201.89258 206.55186 201.8691 206.29688 201.82227 C 206.04449 201.77803 205.7771 201.71021 205.49609 201.61914 L 205.49609 200.87891 C 205.76149 201.01681 206.02366 201.1192 206.28125 201.18945 C 206.53884 201.2571 206.79253 201.29102 207.04492 201.29102 C 207.38317 201.29102 207.64404 201.23363 207.82617 201.11914 C 208.00831 201.00205 208.09961 200.83966 208.09961 200.62891 C 208.09961 200.43376 208.03309 200.28376 207.90039 200.17969 C 207.77029 200.07561 207.48204 199.97518 207.03711 199.87891 L 206.78906 199.82031 C 206.34413 199.72664 206.02197 199.58317 205.82422 199.39062 C 205.62647 199.19548 205.52734 198.93005 205.52734 198.5918 C 205.52734 198.18069 205.67343 197.86244 205.96484 197.63867 C 206.25626 197.41491 206.66908 197.30273 207.20508 197.30273 z "
       transform="scale(0.26458333)"
       inkscape:export-filename="/home/groben/Documents/Repos/BeerThermoregulationSystem/BTS-MainBoard-Power/Hardware/V0.2.0/Drawings/AHOs_label.png"
       inkscape:export-xdpi="1000"
       inkscape:export-ydpi="1000" />
    <path
       id="rect31141"
       style="fill:#000000;fill-opacity:1;stroke:none;stroke-width:2.65349;stroke-linecap:round"
       d="M 189.05469 184.49805 C 186.37898 184.49805 184.22461 186.65242 184.22461 189.32812 C 184.22461 192.00383 186.37898 194.1582 189.05469 194.1582 L 206.40039 194.1582 C 209.07609 194.1582 211.23047 192.00383 211.23047 189.32812 C 211.23047 186.65242 209.07609 184.49805 206.40039 184.49805 L 189.05469 184.49805 z M 195.33398 186.1875 C 195.60719 186.1875 195.88436 186.21228 196.16797 186.26172 C 196.45158 186.31116 196.74244 186.3855 197.03906 186.48438 L 197.03906 187.25391 C 196.73984 187.1108 196.4568 187.00385 196.19141 186.93359 C 195.92601 186.86334 195.67101 186.82812 195.42383 186.82812 C 194.99451 186.82812 194.66191 186.9116 194.42773 187.07812 C 194.19616 187.24465 194.08008 187.48008 194.08008 187.78711 C 194.08008 188.0447 194.15703 188.24035 194.31055 188.37305 C 194.46666 188.50314 194.76144 188.60879 195.19336 188.68945 L 195.66797 188.78711 C 196.25601 188.89899 196.69034 189.09725 196.96875 189.38086 C 197.24976 189.66187 197.39063 190.03817 197.39062 190.51172 C 197.39062 191.07634 197.20019 191.50546 196.82031 191.79688 C 196.44303 192.08829 195.88935 192.23242 195.1582 192.23242 C 194.8824 192.23242 194.58762 192.20112 194.27539 192.13867 C 193.96576 192.07623 193.64555 191.98557 193.3125 191.86328 L 193.3125 191.05078 C 193.63254 191.23031 193.94493 191.36596 194.25195 191.45703 C 194.55898 191.5481 194.86158 191.59375 195.1582 191.59375 C 195.60834 191.59375 195.95464 191.50506 196.19922 191.32812 C 196.4438 191.15119 196.56641 190.89816 196.56641 190.57031 C 196.56641 190.2841 196.47771 190.05976 196.30078 189.89844 C 196.12645 189.73712 195.84015 189.61777 195.43945 189.53711 L 194.95898 189.44336 C 194.37095 189.32627 193.94444 189.14236 193.68164 188.89258 C 193.41885 188.64279 193.28906 188.29454 193.28906 187.84961 C 193.28906 187.33443 193.46841 186.92943 193.83008 186.63281 C 194.19435 186.33619 194.69651 186.1875 195.33398 186.1875 z M 187.35547 186.29297 L 188.17969 186.29297 L 190.02539 191.19922 L 191.875 186.29297 L 192.69531 186.29297 L 190.47461 192.11914 L 189.58008 192.11914 L 187.35547 186.29297 z M 200.41797 187.64258 C 201.00601 187.64258 201.47165 187.83301 201.8125 188.21289 C 202.15595 188.59017 202.32812 189.10342 202.32812 189.75391 L 202.32812 190.10547 L 199.02539 190.10547 C 199.05661 190.59984 199.20531 190.97809 199.4707 191.23828 C 199.7387 191.49587 200.10978 191.625 200.58594 191.625 C 200.86174 191.625 201.12913 191.59109 201.38672 191.52344 C 201.64691 191.45579 201.90517 191.35405 202.16016 191.21875 L 202.16016 191.89844 C 201.90257 192.00772 201.63779 192.08924 201.36719 192.14648 C 201.09659 192.20373 200.82138 192.23242 200.54297 192.23242 C 199.84565 192.23242 199.29327 192.0309 198.88477 191.625 C 198.47886 191.2191 198.27539 190.66868 198.27539 189.97656 C 198.27539 189.26103 198.46843 188.6943 198.85352 188.27539 C 199.2412 187.85388 199.76228 187.64258 200.41797 187.64258 z M 205.61328 187.64258 C 206.11545 187.64258 206.49632 187.7991 206.75391 188.11133 C 207.0115 188.42096 207.13867 188.87877 207.13867 189.48242 L 207.13867 192.11914 L 206.42188 192.11914 L 206.42188 189.50586 C 206.42187 189.09215 206.34101 188.78172 206.17969 188.57617 C 206.01837 188.37062 205.77576 188.26758 205.45312 188.26758 C 205.06544 188.26758 204.76088 188.39149 204.53711 188.63867 C 204.31334 188.88586 204.20117 189.22367 204.20117 189.65039 L 204.20117 192.11914 L 203.47852 192.11914 L 203.47852 187.74805 L 204.20117 187.74805 L 204.20117 188.42773 C 204.3729 188.16494 204.57312 187.96799 204.80469 187.83789 C 205.03886 187.70779 205.30886 187.64258 205.61328 187.64258 z M 200.42578 188.25195 C 200.02508 188.25195 199.70487 188.36543 199.46289 188.5918 C 199.22351 188.81816 199.08526 189.13772 199.04883 189.54883 L 201.60938 189.54492 C 201.60417 189.15203 201.4933 188.83769 201.27734 188.60352 C 201.06399 188.36934 200.77964 188.25195 200.42578 188.25195 z "
       transform="scale(0.26458333)"
       inkscape:export-filename="/home/groben/Documents/Repos/BeerThermoregulationSystem/BTS-MainBoard-Power/Hardware/V0.2.0/Drawings/VSense_label.png"
       inkscape:export-xdpi="1000"
       inkscape:export-ydpi="1000" />
    <path
       id="rect31147"
       style="fill:#000000;fill-opacity:1;stroke:none;stroke-width:2.65349;stroke-linecap:round"
       d="M 188.91602 203.54102 C 186.31676 203.54102 184.22461 205.63317 184.22461 208.23242 C 184.22461 210.83168 186.31676 212.92383 188.91602 212.92383 L 206.53711 212.92383 C 209.13636 212.92383 211.23047 210.83168 211.23047 208.23242 C 211.23047 205.63317 209.13636 203.54102 206.53711 203.54102 L 188.91602 203.54102 z M 200.08008 205.23047 C 200.89708 205.23047 201.5499 205.50568 202.03906 206.05469 C 202.52823 206.60109 202.77148 207.33478 202.77148 208.25586 C 202.77148 209.17434 202.52823 209.90802 202.03906 210.45703 C 201.5499 211.00344 200.89708 211.27539 200.08008 211.27539 C 199.26047 211.27539 198.60309 211.00344 198.11133 210.45703 C 197.62216 209.91063 197.37891 209.17694 197.37891 208.25586 C 197.37891 207.33478 197.62216 206.60109 198.11133 206.05469 C 198.60309 205.50568 199.26047 205.23047 200.08008 205.23047 z M 189.58008 205.33594 L 190.47461 205.33594 L 192.69531 211.16406 L 191.875 211.16406 L 191.34375 209.66797 L 188.71875 209.66797 L 188.1875 211.16406 L 187.35547 211.16406 L 189.58008 205.33594 z M 193.54492 205.33594 L 194.33398 205.33594 L 194.33398 210.5 L 197.17188 210.5 L 197.17188 211.16406 L 193.54492 211.16406 L 193.54492 205.33594 z M 200.08008 205.87109 C 199.50765 205.87109 199.05114 206.085 198.71289 206.51172 C 198.37724 206.93844 198.20898 207.51951 198.20898 208.25586 C 198.20898 208.9896 198.37724 209.56938 198.71289 209.99609 C 199.05114 210.42281 199.50765 210.63672 200.08008 210.63672 C 200.6525 210.63672 201.10445 210.42281 201.4375 209.99609 C 201.77315 209.56938 201.94141 208.9896 201.94141 208.25586 C 201.94141 207.51951 201.77315 206.93844 201.4375 206.51172 C 201.10445 206.085 200.6525 205.87109 200.08008 205.87109 z M 190.02539 206.11328 L 188.95508 209.01172 L 191.09766 209.01172 L 190.02539 206.11328 z M 205.36328 206.6875 C 205.62868 206.6875 205.87911 206.70511 206.11328 206.74414 C 206.34746 206.78317 206.56397 206.84186 206.76172 206.91992 L 206.76172 207.59961 C 206.55877 207.49553 206.34747 207.41727 206.12891 207.36523 C 205.91034 207.3132 205.68339 207.28711 205.44922 207.28711 C 205.09275 207.28711 204.82602 207.34189 204.64648 207.45117 C 204.46955 207.56045 204.38086 207.7248 204.38086 207.94336 C 204.38086 208.10988 204.44477 208.24162 204.57227 208.33789 C 204.69976 208.43156 204.95476 208.52156 205.33984 208.60742 L 205.58594 208.66211 C 206.09592 208.77139 206.45852 208.92465 206.67188 209.125 C 206.88784 209.32275 206.99414 209.60057 206.99414 209.95703 C 206.99414 210.36293 206.83436 210.6851 206.51172 210.92188 C 206.19168 211.15865 205.74952 211.27539 205.1875 211.27539 C 204.95333 211.27539 204.71007 211.25387 204.45508 211.20703 C 204.20269 211.1628 203.93531 211.09497 203.6543 211.00391 L 203.6543 210.26172 C 203.91969 210.39962 204.18186 210.50397 204.43945 210.57422 C 204.69704 210.64187 204.95074 210.67578 205.20312 210.67578 C 205.54138 210.67578 205.80224 210.61839 205.98438 210.50391 C 206.16651 210.38682 206.25781 210.22248 206.25781 210.01172 C 206.25781 209.81657 206.19129 209.66658 206.05859 209.5625 C 205.9285 209.45842 205.64024 209.35799 205.19531 209.26172 L 204.94531 209.20312 C 204.50038 209.10946 204.18017 208.96793 203.98242 208.77539 C 203.78468 208.58025 203.68555 208.31286 203.68555 207.97461 C 203.68555 207.5635 203.83163 207.24525 204.12305 207.02148 C 204.41446 206.79772 204.82728 206.6875 205.36328 206.6875 z "
       transform="scale(0.26458333)"
       inkscape:export-filename="/home/groben/Documents/Repos/BeerThermoregulationSystem/BTS-MainBoard-Power/Hardware/V0.2.0/Drawings/ALOs_label.png"
       inkscape:export-xdpi="1000"
       inkscape:export-ydpi="1000" />
    <path
       id="rect31153"
       style="fill:#000000;fill-opacity:1;stroke:none;stroke-width:2.65349;stroke-linecap:round"
       d="M 188.91602 212.92383 C 186.31676 212.92383 184.22461 215.01793 184.22461 217.61719 C 184.22461 220.21644 186.31676 222.30859 188.91602 222.30859 L 206.53711 222.30859 C 209.13636 222.30859 211.23047 220.21644 211.23047 217.61719 C 211.23047 215.01793 209.13636 212.92383 206.53711 212.92383 L 188.91602 212.92383 z M 201.9375 214.61523 C 202.75451 214.61523 203.40732 214.88849 203.89648 215.4375 C 204.38565 215.98391 204.63086 216.71759 204.63086 217.63867 C 204.63086 218.55715 204.38565 219.29084 203.89648 219.83984 C 203.40732 220.38625 202.75451 220.66016 201.9375 220.66016 C 201.11789 220.66016 200.46247 220.38625 199.9707 219.83984 C 199.48154 219.29344 199.23633 218.55976 199.23633 217.63867 C 199.23633 216.71759 199.48154 215.98391 199.9707 215.4375 C 200.46247 214.88849 201.11789 214.61523 201.9375 214.61523 z M 188.07812 214.7207 L 190.0918 214.7207 C 190.69284 214.7207 191.15523 214.84396 191.48047 215.09375 C 191.80571 215.34354 191.96875 215.69961 191.96875 216.16016 C 191.96875 216.51662 191.88527 216.80096 191.71875 217.01172 C 191.55223 217.22248 191.30897 217.35226 190.98633 217.4043 C 191.37402 217.48756 191.67336 217.66234 191.88672 217.92773 C 192.10268 218.19053 192.21094 218.52052 192.21094 218.91602 C 192.21094 219.4364 192.03355 219.83748 191.67969 220.12109 C 191.32582 220.4047 190.82301 220.54688 190.16992 220.54688 L 188.07812 220.54688 L 188.07812 214.7207 z M 193.56055 214.7207 L 194.34961 214.7207 L 194.34961 217.10742 L 197.21484 217.10742 L 197.21484 214.7207 L 198.00195 214.7207 L 198.00195 220.54688 L 197.21484 220.54688 L 197.21484 217.77148 L 194.34961 217.77148 L 194.34961 220.54688 L 193.56055 220.54688 L 193.56055 214.7207 z M 201.9375 215.25391 C 201.36508 215.25391 200.90856 215.46781 200.57031 215.89453 C 200.23466 216.32125 200.06836 216.90233 200.06836 217.63867 C 200.06836 218.37242 200.23466 218.95219 200.57031 219.37891 C 200.90856 219.80562 201.36508 220.01953 201.9375 220.01953 C 202.50992 220.01953 202.96187 219.80562 203.29492 219.37891 C 203.63057 218.95219 203.79883 218.37242 203.79883 217.63867 C 203.79883 216.90233 203.63057 216.32125 203.29492 215.89453 C 202.96187 215.46781 202.50992 215.25391 201.9375 215.25391 z M 188.86523 215.36719 L 188.86523 217.12305 L 190.0332 217.12305 C 190.41829 217.12305 190.70524 217.05326 190.89258 216.91016 C 191.08252 216.76445 191.17578 216.54271 191.17578 216.24609 C 191.17578 215.95208 191.08252 215.73165 190.89258 215.58594 C 190.70524 215.44023 190.41829 215.36719 190.0332 215.36719 L 188.86523 215.36719 z M 207.2207 216.07031 C 207.4861 216.07031 207.73653 216.08988 207.9707 216.12891 C 208.20488 216.16794 208.42139 216.22663 208.61914 216.30469 L 208.61914 216.98438 C 208.41619 216.8803 208.20489 216.80204 207.98633 216.75 C 207.76777 216.69796 207.54081 216.67188 207.30664 216.67188 C 206.95018 216.67188 206.68344 216.72666 206.50391 216.83594 C 206.32697 216.94522 206.23828 217.10761 206.23828 217.32617 C 206.23828 217.4927 206.30219 217.62443 206.42969 217.7207 C 206.55718 217.81437 206.81218 217.90437 207.19727 217.99023 L 207.44336 218.04492 C 207.95334 218.1542 208.31594 218.30942 208.5293 218.50977 C 208.74526 218.70751 208.85352 218.98338 208.85352 219.33984 C 208.85352 219.74575 208.69178 220.06791 208.36914 220.30469 C 208.0491 220.54146 207.60694 220.66016 207.04492 220.66016 C 206.81075 220.66016 206.56749 220.63668 206.3125 220.58984 C 206.06011 220.54561 205.79273 220.47779 205.51172 220.38672 L 205.51172 219.64453 C 205.77712 219.78243 206.03928 219.88678 206.29688 219.95703 C 206.55447 220.02468 206.80816 220.05859 207.06055 220.05859 C 207.3988 220.05859 207.65966 220.0012 207.8418 219.88672 C 208.02393 219.76963 208.11523 219.60529 208.11523 219.39453 C 208.11523 219.19939 208.04871 219.05134 207.91602 218.94727 C 207.78592 218.84319 207.49766 218.74276 207.05273 218.64648 L 206.80469 218.58789 C 206.35976 218.49422 206.03759 218.35075 205.83984 218.1582 C 205.6421 217.96306 205.54297 217.69567 205.54297 217.35742 C 205.54297 216.94632 205.68905 216.63002 205.98047 216.40625 C 206.27189 216.18248 206.68471 216.07031 207.2207 216.07031 z M 188.86523 217.76367 L 188.86523 219.89844 L 190.13086 219.89844 C 190.55497 219.89844 190.86736 219.81105 191.07031 219.63672 C 191.27587 219.45979 191.37891 219.19175 191.37891 218.83008 C 191.37891 218.46581 191.27587 218.19712 191.07031 218.02539 C 190.86736 217.85106 190.55497 217.76367 190.13086 217.76367 L 188.86523 217.76367 z "
       transform="scale(0.26458333)"
       inkscape:export-filename="/home/groben/Documents/Repos/BeerThermoregulationSystem/BTS-MainBoard-Power/Hardware/V0.2.0/Drawings/BHOs_label.png"
       inkscape:export-xdpi="1000"
       inkscape:export-ydpi="1000" />
    <path
       id="rect31159"
       style="fill:#000000;fill-opacity:1;stroke:none;stroke-width:2.65349;stroke-linecap:round"
       d="M 188.91602 222.30859 C 186.31676 222.30859 184.22461 224.40075 184.22461 227 C 184.22461 229.59925 186.31676 231.69141 188.91602 231.69141 L 206.53711 231.69141 C 209.13636 231.69141 211.23047 229.59925 211.23047 227 C 211.23047 224.40075 209.13636 222.30859 206.53711 222.30859 L 188.91602 222.30859 z M 200.0957 223.99805 C 200.91271 223.99805 201.56552 224.27326 202.05469 224.82227 C 202.54385 225.36867 202.78711 226.10235 202.78711 227.02344 C 202.78711 227.94192 202.54385 228.6756 202.05469 229.22461 C 201.56552 229.77102 200.91271 230.04297 200.0957 230.04297 C 199.27609 230.04297 198.61872 229.77102 198.12695 229.22461 C 197.63779 228.6782 197.39453 227.94452 197.39453 227.02344 C 197.39453 226.10235 197.63779 225.36867 198.12695 224.82227 C 198.61872 224.27326 199.27609 223.99805 200.0957 223.99805 z M 188.07812 224.10352 L 190.0918 224.10352 C 190.69284 224.10352 191.15523 224.22873 191.48047 224.47852 C 191.80571 224.7283 191.96875 225.08243 191.96875 225.54297 C 191.96875 225.89943 191.88527 226.18377 191.71875 226.39453 C 191.55223 226.60529 191.30897 226.73702 190.98633 226.78906 C 191.37402 226.87232 191.67336 227.04515 191.88672 227.31055 C 192.10268 227.57334 192.21094 227.90333 192.21094 228.29883 C 192.21094 228.81921 192.03355 229.22225 191.67969 229.50586 C 191.32582 229.78947 190.82301 229.92969 190.16992 229.92969 L 188.07812 229.92969 L 188.07812 224.10352 z M 193.56055 224.10352 L 194.34961 224.10352 L 194.34961 229.26758 L 197.1875 229.26758 L 197.1875 229.92969 L 193.56055 229.92969 L 193.56055 224.10352 z M 200.0957 224.63867 C 199.52328 224.63867 199.06677 224.85063 198.72852 225.27734 C 198.39287 225.70406 198.22461 226.28709 198.22461 227.02344 C 198.22461 227.75718 198.39287 228.33696 198.72852 228.76367 C 199.06677 229.19039 199.52328 229.4043 200.0957 229.4043 C 200.66813 229.4043 201.12008 229.19039 201.45312 228.76367 C 201.78877 228.33696 201.95703 227.75718 201.95703 227.02344 C 201.95703 226.28709 201.78877 225.70406 201.45312 225.27734 C 201.12008 224.85063 200.66813 224.63867 200.0957 224.63867 z M 188.86523 224.75195 L 188.86523 226.50781 L 190.0332 226.50781 C 190.41829 226.50781 190.70524 226.43607 190.89258 226.29297 C 191.08252 226.14726 191.17578 225.92553 191.17578 225.62891 C 191.17578 225.33489 191.08252 225.11641 190.89258 224.9707 C 190.70524 224.82499 190.41829 224.75195 190.0332 224.75195 L 188.86523 224.75195 z M 205.37891 225.45312 C 205.6443 225.45312 205.89473 225.47269 206.12891 225.51172 C 206.36308 225.55075 206.5796 225.60944 206.77734 225.6875 L 206.77734 226.36719 C 206.57439 226.26311 206.36309 226.18485 206.14453 226.13281 C 205.92597 226.08077 205.69902 226.05469 205.46484 226.05469 C 205.10838 226.05469 204.84164 226.10947 204.66211 226.21875 C 204.48518 226.32803 204.39648 226.49238 204.39648 226.71094 C 204.39648 226.87746 204.4604 227.0092 204.58789 227.10547 C 204.71539 227.19914 204.97038 227.28718 205.35547 227.37305 L 205.60156 227.42773 C 206.11154 227.53702 206.47414 227.69223 206.6875 227.89258 C 206.90346 228.09032 207.00977 228.36814 207.00977 228.72461 C 207.00977 229.13051 206.84998 229.45072 206.52734 229.6875 C 206.20731 229.92428 205.76514 230.04297 205.20312 230.04297 C 204.96895 230.04297 204.72569 230.01949 204.4707 229.97266 C 204.21832 229.92842 203.95093 229.8606 203.66992 229.76953 L 203.66992 229.0293 C 203.93532 229.1672 204.19749 229.27154 204.45508 229.3418 C 204.71267 229.40945 204.96636 229.44336 205.21875 229.44336 C 205.557 229.44336 205.81786 229.38597 206 229.27148 C 206.18214 229.1544 206.27344 228.99005 206.27344 228.7793 C 206.27344 228.58415 206.20692 228.43416 206.07422 228.33008 C 205.94412 228.226 205.65587 228.12557 205.21094 228.0293 L 204.96094 227.9707 C 204.51601 227.87703 204.19579 227.73356 203.99805 227.54102 C 203.8003 227.34587 203.70117 227.08044 203.70117 226.74219 C 203.70117 226.33108 203.84726 226.01283 204.13867 225.78906 C 204.43009 225.5653 204.84291 225.45313 205.37891 225.45312 z M 188.86523 227.14844 L 188.86523 229.2832 L 190.13086 229.2832 C 190.55497 229.2832 190.86736 229.19581 191.07031 229.02148 C 191.27587 228.84455 191.37891 228.57456 191.37891 228.21289 C 191.37891 227.84862 191.27587 227.57993 191.07031 227.4082 C 190.86736 227.23387 190.55497 227.14844 190.13086 227.14844 L 188.86523 227.14844 z "
       transform="scale(0.26458333)"
       inkscape:export-filename="/home/groben/Documents/Repos/BeerThermoregulationSystem/BTS-MainBoard-Power/Hardware/V0.2.0/Drawings/BLOs_label.png"
       inkscape:export-xdpi="1000"
       inkscape:export-ydpi="1000" />
    <path
       id="rect31165"
       style="fill:#000000;fill-opacity:1;stroke:none;stroke-width:2.65349;stroke-linecap:round"
       d="M 188.91602 231.69141 C 186.31676 231.69141 184.22461 233.78356 184.22461 236.38281 C 184.22461 238.98207 186.31676 241.07617 188.91602 241.07617 L 206.53711 241.07617 C 209.13636 241.07617 211.23047 238.98207 211.23047 236.38281 C 211.23047 233.78356 209.13636 231.69141 206.53711 231.69141 L 188.91602 231.69141 z M 188.07812 233.48633 L 191.42578 233.48633 L 191.42578 234.15039 L 188.86523 234.15039 L 188.86523 235.86719 L 191.17578 235.86719 L 191.17578 236.53125 L 188.86523 236.53125 L 188.86523 239.31445 L 188.07812 239.31445 L 188.07812 233.48633 z M 192.67578 233.48633 L 194.29492 233.48633 C 195.42416 233.48633 196.25306 233.72241 196.78125 234.19336 C 197.30944 234.66171 197.57422 235.39539 197.57422 236.39453 C 197.57422 237.39888 197.30814 238.13647 196.77734 238.60742 C 196.24655 239.07837 195.41896 239.31445 194.29492 239.31445 L 192.67578 239.31445 L 192.67578 233.48633 z M 193.46289 234.13477 L 193.46289 238.66602 L 194.41602 238.66602 C 195.22001 238.66602 195.80761 238.48341 196.17969 238.11914 C 196.55437 237.75487 196.74219 237.18031 196.74219 236.39453 C 196.74219 235.61395 196.55437 235.04331 196.17969 234.68164 C 195.80761 234.31737 195.22001 234.13477 194.41602 234.13477 L 193.46289 234.13477 z M 200.96484 234.83789 C 201.01428 234.83789 201.06906 234.8418 201.12891 234.84961 C 201.18875 234.85481 201.25527 234.86394 201.32812 234.87695 L 201.33203 235.61328 C 201.25137 235.56645 201.16268 235.53253 201.06641 235.51172 C 200.97274 235.4883 200.86839 235.47656 200.75391 235.47656 C 200.348 235.47656 200.03692 235.6096 199.81836 235.875 C 199.6024 236.1378 199.49414 236.51735 199.49414 237.01172 L 199.49414 239.31445 L 198.77148 239.31445 L 198.77148 234.94336 L 199.49414 234.94336 L 199.49414 235.62109 C 199.64505 235.3557 199.842 235.1607 200.08398 235.0332 C 200.32596 234.90311 200.61879 234.83789 200.96484 234.83789 z M 201.57031 234.94336 L 202.33203 234.94336 L 203.69727 238.61133 L 205.0625 234.94336 L 205.82422 234.94336 L 204.18555 239.31445 L 203.20898 239.31445 L 201.57031 234.94336 z "
       transform="scale(0.26458333)"
       inkscape:export-filename="/home/groben/Documents/Repos/BeerThermoregulationSystem/BTS-MainBoard-Power/Hardware/V0.2.0/Drawings/FanDrive_label.png"
       inkscape:export-xdpi="1000"
       inkscape:export-ydpi="1000" />
    <path
       id="rect31171"
       style="fill:#000000;fill-opacity:1;stroke:none;stroke-width:2.65349;stroke-linecap:round"
       d="M 188.91602 241.07617 C 186.31676 241.07617 184.22461 243.16832 184.22461 245.76758 C 184.22461 248.36683 186.31676 250.45898 188.91602 250.45898 L 206.53711 250.45898 C 209.13636 250.45898 211.23047 248.36683 211.23047 245.76758 C 211.23047 243.16832 209.13636 241.07617 206.53711 241.07617 L 188.91602 241.07617 z M 202.18359 242.625 L 202.90039 242.625 L 202.90039 248.69727 L 202.18359 248.69727 L 202.18359 248.04102 C 202.03268 248.30121 201.84095 248.49555 201.60938 248.62305 C 201.38041 248.74794 201.10389 248.81055 200.78125 248.81055 C 200.25306 248.81055 199.82328 248.59925 199.49023 248.17773 C 199.15979 247.75622 198.99414 247.20253 198.99414 246.51562 C 198.99414 245.82872 199.15979 245.27503 199.49023 244.85352 C 199.82328 244.432 200.25306 244.2207 200.78125 244.2207 C 201.10389 244.2207 201.38041 244.28461 201.60938 244.41211 C 201.84095 244.537 202.03268 244.73004 202.18359 244.99023 L 202.18359 242.625 z M 190.65039 242.76562 C 191.03027 242.76562 191.38962 242.81258 191.73047 242.90625 C 192.07392 242.99992 192.39087 243.13818 192.67969 243.32031 L 192.67969 244.1582 C 192.38827 243.91102 192.07784 243.7245 191.75 243.59961 C 191.42216 243.47472 191.07847 243.41211 190.7168 243.41211 C 190.00387 243.41211 189.46649 243.61167 189.10742 244.00977 C 188.75096 244.40786 188.57422 245.00068 188.57422 245.78906 C 188.57422 246.57485 188.75096 247.16831 189.10742 247.56641 C 189.46649 247.9645 190.00387 248.16211 190.7168 248.16211 C 190.9952 248.16211 191.24238 248.13863 191.46094 248.0918 C 191.6795 248.04236 191.87645 247.96866 192.05078 247.86719 L 192.05078 246.30078 L 190.76367 246.30078 L 190.76367 245.65234 L 192.83203 245.65234 L 192.83203 248.1543 C 192.52761 248.37026 192.19109 248.5346 191.82422 248.64648 C 191.45735 248.75577 191.0667 248.81055 190.65039 248.81055 C 189.73971 248.81055 189.0269 248.54447 188.51172 248.01367 C 187.99914 247.48028 187.74219 246.73877 187.74219 245.78906 C 187.74219 244.83676 187.99914 244.09525 188.51172 243.56445 C 189.0269 243.03106 189.73971 242.76562 190.65039 242.76562 z M 196.34766 244.2207 C 196.84983 244.2207 197.23069 244.37722 197.48828 244.68945 C 197.74587 244.99908 197.875 245.45495 197.875 246.05859 L 197.875 248.69727 L 197.15625 248.69727 L 197.15625 246.08203 C 197.15625 245.66832 197.07538 245.35985 196.91406 245.1543 C 196.75274 244.94874 196.51014 244.8457 196.1875 244.8457 C 195.79981 244.8457 195.49525 244.96961 195.27148 245.2168 C 195.04772 245.46398 194.93555 245.79985 194.93555 246.22656 L 194.93555 248.69727 L 194.21289 248.69727 L 194.21289 244.32617 L 194.93555 244.32617 L 194.93555 245.00586 C 195.10727 244.74306 195.30944 244.54611 195.54102 244.41602 C 195.77519 244.28592 196.04323 244.2207 196.34766 244.2207 z M 200.95703 244.82227 C 200.57715 244.82227 200.27911 244.97357 200.06055 245.27539 C 199.84459 245.57461 199.73633 245.98743 199.73633 246.51562 C 199.73633 247.04382 199.84459 247.45989 200.06055 247.76172 C 200.27911 248.06094 200.57715 248.20898 200.95703 248.20898 C 201.33691 248.20898 201.63691 248.06094 201.85547 247.76172 C 202.07403 247.45989 202.18359 247.04382 202.18359 246.51562 C 202.18359 245.98743 202.07403 245.57461 201.85547 245.27539 C 201.63691 244.97357 201.33691 244.82227 200.95703 244.82227 z "
       transform="scale(0.26458333)"
       inkscape:export-filename="/home/groben/Documents/Repos/BeerThermoregulationSystem/BTS-MainBoard-Power/Hardware/V0.2.0/Drawings/Gnd_label.png"
       inkscape:export-xdpi="1000"
       inkscape:export-ydpi="1000" />
    <rect
       style="fill:#000000;fill-opacity:1;stroke:none;stroke-width:2.04451;stroke-linecap:round"
       id="rect36675"
       width="14.443639"
       height="7.8970108"
       x="37.98494"
       y="37.559063"
       ry="1.613737" />
    <text
       xml:space="preserve"
       style="font-style:normal;font-weight:normal;font-size:1.90433px;line-height:1.25;font-family:sans-serif;fill:#ffffff;fill-opacity:1;stroke:none;stroke-width:0.0476083"
       x="45.303055"
       y="39.57011"
       id="text36683"><tspan
         sodipodi:role="line"
         id="tspan36677"
         style="font-style:normal;font-variant:normal;font-weight:bold;font-stretch:normal;font-family:'Liberation Mono';-inkscape-font-specification:'Liberation Mono Bold';text-align:center;text-anchor:middle;fill:#ffffff;fill-opacity:1;stroke-width:0.0476083"
         x="45.303055"
         y="39.57011">BTS</tspan><tspan
         sodipodi:role="line"
         style="font-style:normal;font-variant:normal;font-weight:bold;font-stretch:normal;font-family:'Liberation Mono';-inkscape-font-specification:'Liberation Mono Bold';text-align:center;text-anchor:middle;fill:#ffffff;fill-opacity:1;stroke-width:0.0476083"
         x="45.303055"
         y="41.96553"
         id="tspan36679">Power Board</tspan><tspan
         sodipodi:role="line"
         style="font-style:normal;font-variant:normal;font-weight:bold;font-stretch:normal;font-family:'Liberation Mono';-inkscape-font-specification:'Liberation Mono Bold';text-align:center;text-anchor:middle;fill:#ffffff;fill-opacity:1;stroke-width:0.0476083"
         x="45.303055"
         y="44.360954"
         id="tspan36681">Rev 0.2.0</tspan></text>
    <path
       id="rect40646"
       style="fill:#000000;fill-opacity:1;stroke:none;stroke-width:7.72728;stroke-linecap:round"
       d="M 221.87109 141.95508 C 218.49216 141.95508 215.77148 144.67575 215.77148 148.05469 L 215.77148 165.70312 C 215.77148 169.08206 218.49216 171.80273 221.87109 171.80273 L 264.26172 171.80273 C 267.64066 171.80273 270.36133 169.08206 270.36133 165.70312 L 270.36133 148.05469 C 270.36133 144.67575 267.64066 141.95508 264.26172 141.95508 L 221.87109 141.95508 z M 247.75195 144.74219 C 248.27677 144.74219 248.68721 144.84617 248.98242 145.05469 C 249.27763 145.26086 249.468 145.58179 249.55469 146.01758 L 248.54883 146.11914 C 248.44574 145.69039 248.17328 145.47656 247.73047 145.47656 C 247.48212 145.47656 247.29331 145.52347 247.16211 145.61719 C 247.03091 145.70856 246.96484 145.8403 246.96484 146.01367 C 246.96484 146.12848 246.99533 146.22542 247.05859 146.30273 C 247.12185 146.37771 247.20863 146.44221 247.31641 146.49609 C 247.42652 146.54764 247.64934 146.61644 247.98438 146.70312 C 248.42485 146.8109 248.76336 146.93091 249 147.06445 C 249.23664 147.19566 249.40941 147.35553 249.51953 147.54297 C 249.62965 147.7304 249.68555 147.94266 249.68555 148.18164 C 249.68555 148.63148 249.51238 148.98642 249.16797 149.24414 C 248.8259 149.49952 248.34978 149.62695 247.73828 149.62695 C 247.18769 149.62695 246.73933 149.51125 246.39258 149.2793 C 246.04583 149.04735 245.82301 148.70844 245.72461 148.26562 L 246.72461 148.13672 C 246.7785 148.35695 246.89147 148.5313 247.0625 148.66016 C 247.23353 148.78667 247.46807 148.84961 247.76562 148.84961 C 248.07489 148.84961 248.30357 148.80153 248.45117 148.70312 C 248.60112 148.60472 248.67578 148.45071 248.67578 148.24219 C 248.67578 148.08755 248.60972 147.95699 248.47852 147.85156 C 248.34731 147.74379 248.15694 147.66053 247.90625 147.59961 C 247.40252 147.47778 247.04641 147.37223 246.83789 147.2832 C 246.63171 147.19183 246.46597 147.08902 246.3418 146.97656 C 246.21762 146.8641 246.12263 146.73393 246.05469 146.58398 C 245.98909 146.43169 245.95508 146.26165 245.95508 146.07422 C 245.95508 145.66421 246.11926 145.33859 246.44727 145.09961 C 246.77762 144.86063 247.21308 144.74219 247.75195 144.74219 z M 237.43359 144.81445 L 239.2793 144.81445 C 239.79005 144.81445 240.17509 144.91882 240.4375 145.125 C 240.70225 145.32883 240.83594 145.62162 240.83594 146.00586 C 240.83594 146.2753 240.75815 146.50436 240.60352 146.68945 C 240.44888 146.8722 240.21161 146.99651 239.89062 147.06445 C 240.29127 147.10663 240.59617 147.22702 240.80469 147.42383 C 241.01555 147.62063 241.11914 147.8798 241.11914 148.20312 C 241.11914 148.62719 240.97412 148.95829 240.68359 149.19727 C 240.39307 149.43624 239.99162 149.55664 239.47852 149.55664 L 237.43359 149.55664 L 237.43359 144.81445 z M 241.48633 144.81445 L 245.375 144.81445 L 245.375 145.61719 L 243.94922 145.61719 L 243.94922 149.55664 L 242.91211 149.55664 L 242.91211 145.61719 L 241.48633 145.61719 L 241.48633 144.81445 z M 238.4707 145.58594 L 238.4707 146.70703 L 239.21094 146.70703 C 239.59752 146.70703 239.79102 146.51901 239.79102 146.14648 C 239.79102 145.77162 239.59635 145.58594 239.20508 145.58594 L 238.4707 145.58594 z M 238.4707 147.47266 L 238.4707 148.78711 L 239.37305 148.78711 C 239.84163 148.78711 240.07617 148.56273 240.07617 148.11523 C 240.07617 147.90906 240.0148 147.75074 239.89062 147.64062 C 239.76645 147.52816 239.58624 147.47266 239.34961 147.47266 L 238.4707 147.47266 z M 265.67773 153.39453 L 266.66602 153.39453 L 266.66602 157.78125 C 266.66602 158.01554 266.67462 158.29074 266.69336 158.60938 L 265.73828 158.60938 C 265.72891 158.57423 265.71718 158.48628 265.70312 158.3457 C 265.69141 158.20278 265.68555 158.0859 265.68555 157.99219 L 265.67188 157.99219 C 265.5477 158.24288 265.39369 158.41996 265.21094 158.52539 C 265.02819 158.62848 264.81124 158.67969 264.56055 158.67969 C 264.14116 158.67969 263.81163 158.50378 263.57031 158.15234 C 263.32899 157.8009 263.20703 157.32166 263.20703 156.71484 C 263.20703 156.09397 263.32899 155.61042 263.57031 155.26367 C 263.81398 154.91692 264.1568 154.74414 264.59961 154.74414 C 264.8503 154.74414 265.06882 154.80121 265.25391 154.91602 C 265.439 155.02848 265.57933 155.19578 265.67773 155.41602 L 265.68555 155.41602 L 265.67773 154.78906 L 265.67773 153.39453 z M 220.15234 153.86914 L 221.83984 153.86914 C 222.44198 153.86914 222.90089 153.99657 223.21484 154.25195 C 223.53114 154.50499 223.68945 154.87556 223.68945 155.36523 C 223.68945 155.67919 223.61753 155.95633 223.47461 156.19531 C 223.33169 156.43195 223.12334 156.61528 222.85156 156.74414 C 222.58213 156.873 222.26002 156.9375 221.88281 156.9375 L 221.18945 156.9375 L 221.18945 158.60938 L 220.15234 158.60938 L 220.15234 153.86914 z M 246.07227 153.86914 L 247.91602 153.86914 C 248.42677 153.86914 248.81376 153.97156 249.07617 154.17773 C 249.34092 154.38157 249.47461 154.67631 249.47461 155.06055 C 249.47461 155.32998 249.39682 155.5571 249.24219 155.74219 C 249.08755 155.92494 248.85028 156.0512 248.5293 156.11914 C 248.92994 156.16131 249.23289 156.27976 249.44141 156.47656 C 249.65227 156.67337 249.75781 156.93449 249.75781 157.25781 C 249.75781 157.68188 249.61279 158.01297 249.32227 158.25195 C 249.03174 158.49093 248.63029 158.60937 248.11719 158.60938 L 246.07227 158.60938 L 246.07227 153.86914 z M 247.10938 154.63867 L 247.10938 155.75977 L 247.84961 155.75977 C 248.23619 155.75977 248.42969 155.5737 248.42969 155.20117 C 248.42969 154.8263 248.23502 154.63867 247.84375 154.63867 L 247.10938 154.63867 z M 221.18945 154.67383 L 221.18945 156.13867 L 221.75195 156.13867 C 222.06122 156.13867 222.28677 156.07574 222.42969 155.94922 C 222.57261 155.82036 222.64453 155.63116 222.64453 155.38281 C 222.64453 155.12743 222.56674 154.94762 222.41211 154.83984 C 222.25982 154.72973 222.03153 154.67383 221.72461 154.67383 L 221.18945 154.67383 z M 226.16016 154.73633 C 227.38082 154.73633 227.99023 155.39304 227.99023 156.70508 C 227.99023 157.33533 227.83036 157.82356 227.51172 158.16797 C 227.19308 158.51004 226.73612 158.67969 226.13867 158.67969 C 225.56231 158.67969 225.11356 158.51004 224.79492 158.16797 C 224.47628 157.82356 224.31836 157.33533 224.31836 156.70508 C 224.31836 156.07717 224.47667 155.59207 224.79297 155.25 C 225.10926 154.90793 225.56505 154.73633 226.16016 154.73633 z M 234.84766 154.73633 C 235.40293 154.73633 235.8337 154.92279 236.14062 155.29297 C 236.44755 155.66315 236.59961 156.1893 236.59961 156.87109 L 236.59961 156.89844 L 234.02148 156.89844 C 234.02148 157.24285 234.09771 157.51531 234.25 157.7168 C 234.40463 157.91829 234.61572 158.01953 234.88281 158.01953 C 235.05619 158.01953 235.20825 157.98279 235.3418 157.91016 C 235.47534 157.83518 235.56642 157.72104 235.61328 157.56641 L 236.54492 157.64648 C 236.41606 157.97684 236.20029 158.2317 235.90039 158.41211 C 235.6005 158.59017 235.24439 158.67969 234.83203 158.67969 C 234.24161 158.67969 233.78582 158.50691 233.46484 158.16016 C 233.14386 157.81106 232.98438 157.32165 232.98438 156.69141 C 232.98437 156.26968 233.05904 155.91357 233.20898 155.62305 C 233.36127 155.33252 233.57666 155.11284 233.85547 154.96289 C 234.13428 154.81294 234.46576 154.73633 234.84766 154.73633 z M 240.02734 154.73633 C 240.27101 154.73633 240.51297 154.75705 240.75195 154.79688 L 240.75195 155.62891 C 240.48955 155.58439 240.24015 155.5625 240.00586 155.5625 C 239.64036 155.5625 239.35031 155.70205 239.13477 155.97852 C 238.92156 156.25498 238.81445 156.61813 238.81445 157.07031 L 238.81445 158.60938 L 237.83008 158.60938 L 237.83008 156.14648 C 237.83008 155.96842 237.81405 155.7589 237.78125 155.51758 C 237.75079 155.27626 237.70701 155.03859 237.64844 154.80664 L 238.59961 154.80664 C 238.68395 155.11122 238.73829 155.37977 238.76172 155.60938 L 238.77539 155.60938 C 238.89254 155.29074 239.05085 155.0648 239.25 154.93359 C 239.44915 154.80239 239.70871 154.73633 240.02734 154.73633 z M 252.07422 154.73633 C 253.29488 154.73633 253.90625 155.39304 253.90625 156.70508 C 253.90625 157.33533 253.74637 157.82356 253.42773 158.16797 C 253.1091 158.51004 252.65018 158.67969 252.05273 158.67969 C 251.47637 158.67969 251.02958 158.51004 250.71094 158.16797 C 250.3923 157.82356 250.23242 157.33533 250.23242 156.70508 C 250.23242 156.07717 250.39074 155.59207 250.70703 155.25 C 251.02333 154.90793 251.47912 154.73633 252.07422 154.73633 z M 256.37305 154.73633 C 256.84632 154.73633 257.20829 154.85203 257.45898 155.08398 C 257.71202 155.31593 257.83789 155.65758 257.83789 156.10742 L 257.83789 157.48438 C 257.83789 157.69758 257.86134 157.84573 257.9082 157.92773 C 257.9574 158.00739 258.03793 158.04687 258.15039 158.04688 C 258.22536 158.04688 258.29885 158.0414 258.36914 158.02734 L 258.36914 158.56055 C 258.31057 158.5746 258.2578 158.58789 258.21094 158.59961 C 258.16408 158.61132 258.11717 158.61992 258.07031 158.62695 C 258.02345 158.63398 257.97186 158.63985 257.91797 158.64453 C 257.86642 158.64922 257.80662 158.65234 257.73633 158.65234 C 257.48798 158.65234 257.30308 158.59058 257.18359 158.46875 C 257.06645 158.34692 256.99609 158.16828 256.97266 157.93164 L 256.95312 157.93164 C 256.80552 158.19639 256.63509 158.38676 256.44531 158.50391 C 256.25788 158.62105 256.03389 158.67969 255.77148 158.67969 C 255.40365 158.67969 255.11633 158.58001 254.91016 158.38086 C 254.70398 158.17937 254.60156 157.89831 254.60156 157.53516 C 254.60156 157.14154 254.72313 156.84251 254.9668 156.63867 C 255.2128 156.43249 255.57908 156.32539 256.06641 156.31836 L 256.84961 156.30469 L 256.84961 156.11133 C 256.84961 155.87001 256.80856 155.68668 256.72656 155.5625 C 256.64456 155.43832 256.51283 155.37695 256.33008 155.37695 C 256.15904 155.37695 256.03317 155.41917 255.95117 155.50586 C 255.87151 155.5902 255.82148 155.72663 255.80273 155.91406 L 254.77344 155.86523 C 254.89996 155.11316 255.43353 154.73633 256.37305 154.73633 z M 261.62305 154.73633 C 261.86671 154.73633 262.10868 154.75705 262.34766 154.79688 L 262.34766 155.62891 C 262.08525 155.58439 261.83586 155.5625 261.60156 155.5625 C 261.23607 155.5625 260.94602 155.70205 260.73047 155.97852 C 260.51726 156.25498 260.41016 156.61813 260.41016 157.07031 L 260.41016 158.60938 L 259.42578 158.60938 L 259.42578 156.14648 C 259.42578 155.96842 259.40975 155.7589 259.37695 155.51758 C 259.3465 155.27626 259.30271 155.03859 259.24414 154.80664 L 260.19531 154.80664 C 260.27966 155.11122 260.33399 155.37977 260.35742 155.60938 L 260.37109 155.60938 C 260.48824 155.29074 260.64655 155.0648 260.8457 154.93359 C 261.04485 154.80239 261.30441 154.73633 261.62305 154.73633 z M 228.35156 154.80664 L 229.1543 154.80664 L 229.44531 156.94141 C 229.48983 157.29753 229.51172 157.561 229.51172 157.73438 L 229.58203 157.47461 L 230.13477 155.73828 L 230.8125 155.73828 L 231.30469 157.33789 C 231.33983 157.45504 231.37345 157.58677 231.40625 157.73438 C 231.40625 157.58911 231.41798 157.4222 231.44141 157.23242 C 231.46484 157.04264 231.58523 156.23348 231.80078 154.80664 L 232.59375 154.80664 L 231.92578 158.60938 L 231.06836 158.60938 L 230.56641 156.95508 C 230.50783 156.76764 230.47539 156.64725 230.4707 156.5957 C 230.46836 156.61679 230.45702 156.67269 230.43359 156.76172 C 230.41016 156.84841 230.21511 157.46368 229.84961 158.60938 L 228.99609 158.60938 L 228.35156 154.80664 z M 234.83203 155.35938 C 234.59071 155.35938 234.39878 155.44146 234.25586 155.60547 C 234.11294 155.76713 234.03672 155.99112 234.02734 156.2793 L 235.64453 156.2793 C 235.62813 155.99815 235.54761 155.77572 235.40234 155.60938 C 235.25943 155.44303 235.06867 155.35937 234.83203 155.35938 z M 226.17383 155.41602 C 225.88331 155.41602 225.67378 155.51843 225.54492 155.72461 C 225.4184 155.93079 225.35352 156.25758 225.35352 156.70508 C 225.35352 157.15726 225.41801 157.48679 225.54688 157.69531 C 225.67808 157.90149 225.87157 158.00586 226.12695 158.00586 C 226.41748 158.00586 226.62856 157.90305 226.75977 157.69922 C 226.89097 157.49304 226.95703 157.16195 226.95703 156.70508 C 226.95703 156.25524 226.89683 155.92844 226.77734 155.72461 C 226.65785 155.51843 226.45732 155.41602 226.17383 155.41602 z M 252.08789 155.41602 C 251.79737 155.41602 251.58785 155.51843 251.45898 155.72461 C 251.33247 155.93079 251.26953 156.25758 251.26953 156.70508 C 251.26953 157.15726 251.33403 157.48679 251.46289 157.69531 C 251.59409 157.90149 251.78759 158.00586 252.04297 158.00586 C 252.33349 158.00586 252.54458 157.90305 252.67578 157.69922 C 252.80699 157.49304 252.87305 157.16195 252.87305 156.70508 C 252.87305 156.25524 252.81285 155.92844 252.69336 155.72461 C 252.57387 155.51843 252.37138 155.41602 252.08789 155.41602 z M 264.95117 155.41602 C 264.71688 155.41602 264.53785 155.52586 264.41602 155.74609 C 264.29653 155.96399 264.23828 156.28609 264.23828 156.71484 C 264.23828 157.14594 264.29809 157.47 264.41992 157.68555 C 264.5441 157.89875 264.71844 158.00586 264.94336 158.00586 C 265.08862 158.00586 265.21918 157.95465 265.33398 157.85156 C 265.44879 157.74613 265.53674 157.59485 265.59766 157.40039 C 265.66092 157.20593 265.69336 156.97021 265.69336 156.69141 C 265.69336 156.28608 265.6273 155.97258 265.49609 155.75 C 265.36489 155.52742 265.18312 155.41602 264.95117 155.41602 z M 247.10938 156.52539 L 247.10938 157.83984 L 248.01172 157.83984 C 248.4803 157.83984 248.71484 157.61742 248.71484 157.16992 C 248.71484 156.96374 248.65347 156.80543 248.5293 156.69531 C 248.40512 156.58285 248.22296 156.52539 247.98633 156.52539 L 247.10938 156.52539 z M 256.84961 156.84961 L 256.37891 156.85547 C 256.16804 156.86015 256.01598 156.884 255.91992 156.92383 C 255.8262 156.96131 255.75428 157.02269 255.70508 157.10938 C 255.65588 157.19372 255.63086 157.30943 255.63086 157.45703 C 255.63086 157.81316 255.77158 157.99219 256.05273 157.99219 C 256.28 157.99219 256.4688 157.90267 256.62109 157.72461 C 256.77338 157.5442 256.84961 157.31709 256.84961 157.04297 L 256.84961 156.84961 z M 243.44727 162.84961 C 244.033 162.84961 244.46651 163.05327 244.75 163.46094 C 245.03349 163.86861 245.17578 164.47802 245.17578 165.29102 C 245.17578 166.08527 245.02646 166.69038 244.72656 167.10742 C 244.42667 167.52446 243.98964 167.73438 243.41797 167.73438 C 242.84395 167.73438 242.41005 167.52603 242.11719 167.11133 C 241.82666 166.69429 241.68164 166.08761 241.68164 165.29102 C 241.68164 164.46631 241.82393 163.85377 242.10742 163.45312 C 242.39326 163.05014 242.84045 162.84961 243.44727 162.84961 z M 252.07031 162.84961 C 252.58107 162.84961 252.98565 162.96493 253.2832 163.19922 C 253.58075 163.43117 253.73047 163.7435 253.73047 164.13477 C 253.73047 164.39014 253.64799 164.63915 253.48633 164.88281 C 253.32701 165.12413 253.08856 165.3704 252.76758 165.62109 C 252.31305 165.97253 252.00659 166.22623 251.84961 166.38086 C 251.69263 166.53549 251.5781 166.69224 251.50781 166.85156 L 253.80664 166.85156 L 253.80664 167.66406 L 250.3418 167.66406 L 250.3418 166.97852 C 250.45894 166.72079 250.62625 166.4628 250.8418 166.20508 C 251.05969 165.94501 251.37436 165.64598 251.78906 165.30859 C 252.11239 165.04384 252.32191 164.86051 252.41797 164.75977 C 252.51403 164.65902 252.59064 164.56247 252.64453 164.46875 C 252.70076 164.37269 252.72852 164.27614 252.72852 164.17773 C 252.72852 164.00904 252.67262 163.87536 252.5625 163.7793 C 252.45238 163.68324 252.29133 163.63672 252.07812 163.63672 C 251.86726 163.63672 251.70621 163.69379 251.59375 163.80859 C 251.48363 163.92105 251.41171 164.0911 251.37891 164.31836 L 250.38477 164.26172 C 250.441 163.80251 250.61065 163.45226 250.89648 163.21094 C 251.18466 162.96962 251.57596 162.84961 252.07031 162.84961 z M 260.72266 162.84961 C 261.30839 162.84961 261.74385 163.05327 262.02734 163.46094 C 262.31084 163.86861 262.45312 164.47802 262.45312 165.29102 C 262.45312 166.08527 262.30185 166.69038 262.00195 167.10742 C 261.70206 167.52446 261.26699 167.73438 260.69531 167.73438 C 260.1213 167.73438 259.6874 167.52603 259.39453 167.11133 C 259.10401 166.69429 258.95898 166.08761 258.95898 165.29102 C 258.95898 164.46631 259.10127 163.85377 259.38477 163.45312 C 259.6706 163.05014 260.11584 162.84961 260.72266 162.84961 z M 224.47656 162.92188 L 226.21289 162.92188 C 226.83142 162.92188 227.29269 163.04383 227.59961 163.28516 C 227.90653 163.52648 228.06055 163.8736 228.06055 164.32812 C 228.06055 164.64911 227.97416 164.92156 227.80078 165.14648 C 227.6274 165.37141 227.387 165.52972 227.08008 165.62109 L 228.30664 167.66406 L 227.14062 167.66406 L 226.12109 165.85352 L 225.51172 165.85352 L 225.51172 167.66406 L 224.47656 167.66406 L 224.47656 162.92188 z M 243.43945 163.62109 C 243.23796 163.62109 243.08434 163.67699 242.97656 163.78711 C 242.86879 163.89723 242.78944 164.07313 242.74023 164.31445 C 242.69338 164.55343 242.66992 164.87866 242.66992 165.29102 C 242.66992 165.69868 242.69494 166.0243 242.74414 166.26562 C 242.79568 166.50695 242.87308 166.6809 242.97852 166.79102 C 243.08395 166.90113 243.23366 166.95703 243.42578 166.95703 C 243.69756 166.95703 243.89262 166.8296 244.00977 166.57422 C 244.12691 166.31884 244.18359 165.8908 244.18359 165.29102 C 244.18359 164.87866 244.16053 164.55343 244.11133 164.31445 C 244.06213 164.07313 243.9859 163.89723 243.88281 163.78711 C 243.77972 163.67699 243.63157 163.62109 243.43945 163.62109 z M 260.7168 163.62109 C 260.51531 163.62109 260.35973 163.67699 260.25195 163.78711 C 260.14418 163.89723 260.06678 164.07313 260.01758 164.31445 C 259.97072 164.55343 259.94727 164.87866 259.94727 165.29102 C 259.94727 165.69868 259.97033 166.0243 260.01953 166.26562 C 260.07108 166.50695 260.15043 166.6809 260.25586 166.79102 C 260.36129 166.90113 260.51101 166.95703 260.70312 166.95703 C 260.9749 166.95703 261.16801 166.8296 261.28516 166.57422 C 261.4023 166.31884 261.46094 165.8908 261.46094 165.29102 C 261.46094 164.87866 261.43592 164.55343 261.38672 164.31445 C 261.33752 164.07313 261.26129 163.89723 261.1582 163.78711 C 261.05511 163.67699 260.90892 163.62109 260.7168 163.62109 z M 225.51172 163.72656 L 225.51172 165.04883 L 226.13086 165.04883 C 226.72128 165.04883 227.01758 164.82328 227.01758 164.37109 C 227.01758 164.15086 226.94409 163.98785 226.79883 163.88477 C 226.65357 163.77933 226.42215 163.72656 226.10352 163.72656 L 225.51172 163.72656 z M 230.52734 163.79102 C 231.08262 163.79102 231.51339 163.97552 231.82031 164.3457 C 232.12724 164.71589 232.28125 165.24204 232.28125 165.92383 L 232.28125 165.95117 L 229.70117 165.95117 C 229.70117 166.29558 229.7774 166.56999 229.92969 166.77148 C 230.08432 166.97298 230.29541 167.07227 230.5625 167.07227 C 230.73588 167.07227 230.88989 167.03747 231.02344 166.96484 C 231.15698 166.88987 231.24611 166.77377 231.29297 166.61914 L 232.22461 166.70117 C 232.09575 167.03152 231.88193 167.28639 231.58203 167.4668 C 231.28214 167.64486 230.92603 167.73438 230.51367 167.73438 C 229.92325 167.73438 229.46747 167.55964 229.14648 167.21289 C 228.8255 166.86379 228.66406 166.37439 228.66406 165.74414 C 228.66406 165.32241 228.74068 164.9663 228.89062 164.67578 C 229.04292 164.38526 229.2583 164.16557 229.53711 164.01562 C 229.81592 163.86568 230.14545 163.79102 230.52734 163.79102 z M 232.74219 163.86133 L 233.78516 163.86133 L 234.51953 166.04688 C 234.55468 166.16402 234.63833 166.4572 234.76953 166.92578 C 234.78359 166.86955 234.8262 166.71984 234.89648 166.47852 C 234.96912 166.23485 235.26815 165.36314 235.79297 163.86133 L 236.82617 163.86133 L 235.35352 167.66406 L 234.17188 167.66406 L 232.74219 163.86133 z M 230.51367 164.41211 C 230.27235 164.41211 230.08042 164.4942 229.9375 164.6582 C 229.79458 164.81986 229.71836 165.0458 229.70898 165.33398 L 231.32617 165.33398 C 231.30977 165.05283 231.22729 164.82846 231.08203 164.66211 C 230.93911 164.49576 230.75031 164.41211 230.51367 164.41211 z M 243.04883 164.83789 L 243.80469 164.83789 L 243.80469 165.71289 L 243.04883 165.71289 L 243.04883 164.83789 z M 260.32617 164.83789 L 261.08203 164.83789 L 261.08203 165.71289 L 260.32617 165.71289 L 260.32617 164.83789 z M 247.24219 166.5918 L 248.25781 166.5918 L 248.25781 167.66406 L 247.24219 167.66406 L 247.24219 166.5918 z M 255.88086 166.5918 L 256.89648 166.5918 L 256.89648 167.66406 L 255.88086 167.66406 L 255.88086 166.5918 z "
       transform="scale(0.26458333)"
       inkscape:export-filename="/home/groben/Documents/Repos/BeerThermoregulationSystem/BTS-MainBoard-Power/Hardware/V0.2.0/Drawings/BoardMainLabel.png"
       inkscape:export-xdpi="1000"
       inkscape:export-ydpi="1000" />
  </g>
</svg>
