%TF.GenerationSoftware,KiCad,Pcbnew,(5.1.10)-1*%
%TF.CreationDate,2021-09-14T12:20:03+02:00*%
%TF.ProjectId,BTS-MainBoard-Power,4254532d-4d61-4696-9e42-6f6172642d50,rev?*%
%TF.SameCoordinates,Original*%
%TF.FileFunction,Legend,Top*%
%TF.FilePolarity,Positive*%
%FSLAX46Y46*%
G04 Gerber Fmt 4.6, Leading zero omitted, Abs format (unit mm)*
G04 Created by KiCad (PCBNEW (5.1.10)-1) date 2021-09-14 12:20:03*
%MOMM*%
%LPD*%
G01*
G04 APERTURE LIST*
%ADD10C,0.120000*%
%ADD11C,0.200000*%
%ADD12C,0.150000*%
%ADD13C,0.100000*%
G04 APERTURE END LIST*
D10*
X185023535Y-45167904D02*
X185123535Y-44367904D01*
X185314011Y-44367904D01*
X185423535Y-44406000D01*
X185490202Y-44482190D01*
X185518773Y-44558380D01*
X185537821Y-44710761D01*
X185523535Y-44825047D01*
X185466392Y-44977428D01*
X185418773Y-45053619D01*
X185333059Y-45129809D01*
X185214011Y-45167904D01*
X185023535Y-45167904D01*
X186133059Y-45129809D02*
X186052107Y-45167904D01*
X185899726Y-45167904D01*
X185828297Y-45129809D01*
X185799726Y-45053619D01*
X185837821Y-44748857D01*
X185885440Y-44672666D01*
X185966392Y-44634571D01*
X186118773Y-44634571D01*
X186190202Y-44672666D01*
X186218773Y-44748857D01*
X186209250Y-44825047D01*
X185818773Y-44901238D01*
X186475916Y-45129809D02*
X186547345Y-45167904D01*
X186699726Y-45167904D01*
X186780678Y-45129809D01*
X186828297Y-45053619D01*
X186833059Y-45015523D01*
X186804488Y-44939333D01*
X186733059Y-44901238D01*
X186618773Y-44901238D01*
X186547345Y-44863142D01*
X186518773Y-44786952D01*
X186523535Y-44748857D01*
X186571154Y-44672666D01*
X186652107Y-44634571D01*
X186766392Y-44634571D01*
X186837821Y-44672666D01*
X187156869Y-45167904D02*
X187223535Y-44634571D01*
X187256869Y-44367904D02*
X187214011Y-44406000D01*
X187247345Y-44444095D01*
X187290202Y-44406000D01*
X187256869Y-44367904D01*
X187247345Y-44444095D01*
X187947345Y-44634571D02*
X187866392Y-45282190D01*
X187818773Y-45358380D01*
X187775916Y-45396476D01*
X187694964Y-45434571D01*
X187580678Y-45434571D01*
X187509250Y-45396476D01*
X187885440Y-45129809D02*
X187804488Y-45167904D01*
X187652107Y-45167904D01*
X187580678Y-45129809D01*
X187547345Y-45091714D01*
X187518773Y-45015523D01*
X187547345Y-44786952D01*
X187594964Y-44710761D01*
X187637821Y-44672666D01*
X187718773Y-44634571D01*
X187871154Y-44634571D01*
X187942583Y-44672666D01*
X188328297Y-44634571D02*
X188261630Y-45167904D01*
X188318773Y-44710761D02*
X188361630Y-44672666D01*
X188442583Y-44634571D01*
X188556869Y-44634571D01*
X188628297Y-44672666D01*
X188656869Y-44748857D01*
X188604488Y-45167904D01*
X189294964Y-45129809D02*
X189214011Y-45167904D01*
X189061630Y-45167904D01*
X188990202Y-45129809D01*
X188961630Y-45053619D01*
X188999726Y-44748857D01*
X189047345Y-44672666D01*
X189128297Y-44634571D01*
X189280678Y-44634571D01*
X189352107Y-44672666D01*
X189380678Y-44748857D01*
X189371154Y-44825047D01*
X188980678Y-44901238D01*
X190014011Y-45167904D02*
X190114011Y-44367904D01*
X190018773Y-45129809D02*
X189937821Y-45167904D01*
X189785440Y-45167904D01*
X189714011Y-45129809D01*
X189680678Y-45091714D01*
X189652107Y-45015523D01*
X189680678Y-44786952D01*
X189728297Y-44710761D01*
X189771154Y-44672666D01*
X189852107Y-44634571D01*
X190004488Y-44634571D01*
X190075916Y-44672666D01*
X191004488Y-45167904D02*
X191104488Y-44367904D01*
X191066392Y-44672666D02*
X191147345Y-44634571D01*
X191299726Y-44634571D01*
X191371154Y-44672666D01*
X191404488Y-44710761D01*
X191433059Y-44786952D01*
X191404488Y-45015523D01*
X191356869Y-45091714D01*
X191314011Y-45129809D01*
X191233059Y-45167904D01*
X191080678Y-45167904D01*
X191009250Y-45129809D01*
X191718773Y-44634571D02*
X191842583Y-45167904D01*
X192099726Y-44634571D02*
X191842583Y-45167904D01*
X191742583Y-45358380D01*
X191699726Y-45396476D01*
X191618773Y-45434571D01*
X193266392Y-44748857D02*
X193375916Y-44786952D01*
X193409250Y-44825047D01*
X193437821Y-44901238D01*
X193423535Y-45015523D01*
X193375916Y-45091714D01*
X193333059Y-45129809D01*
X193252107Y-45167904D01*
X192947345Y-45167904D01*
X193047345Y-44367904D01*
X193314011Y-44367904D01*
X193385440Y-44406000D01*
X193418773Y-44444095D01*
X193447345Y-44520285D01*
X193437821Y-44596476D01*
X193390202Y-44672666D01*
X193347345Y-44710761D01*
X193266392Y-44748857D01*
X192999726Y-44748857D01*
X194056869Y-45129809D02*
X193975916Y-45167904D01*
X193823535Y-45167904D01*
X193752107Y-45129809D01*
X193723535Y-45053619D01*
X193761630Y-44748857D01*
X193809250Y-44672666D01*
X193890202Y-44634571D01*
X194042583Y-44634571D01*
X194114011Y-44672666D01*
X194142583Y-44748857D01*
X194133059Y-44825047D01*
X193742583Y-44901238D01*
X194499726Y-44634571D02*
X194433059Y-45167904D01*
X194490202Y-44710761D02*
X194533059Y-44672666D01*
X194614011Y-44634571D01*
X194728297Y-44634571D01*
X194799726Y-44672666D01*
X194828297Y-44748857D01*
X194775916Y-45167904D01*
X195271154Y-45167904D02*
X195199726Y-45129809D01*
X195166392Y-45091714D01*
X195137821Y-45015523D01*
X195166392Y-44786952D01*
X195214011Y-44710761D01*
X195256869Y-44672666D01*
X195337821Y-44634571D01*
X195452107Y-44634571D01*
X195523535Y-44672666D01*
X195556869Y-44710761D01*
X195585440Y-44786952D01*
X195556869Y-45015523D01*
X195509250Y-45091714D01*
X195466392Y-45129809D01*
X195385440Y-45167904D01*
X195271154Y-45167904D01*
X195880678Y-45167904D02*
X195947345Y-44634571D01*
X195980678Y-44367904D02*
X195937821Y-44406000D01*
X195971154Y-44444095D01*
X196014011Y-44406000D01*
X195980678Y-44367904D01*
X195971154Y-44444095D01*
X196214011Y-44634571D02*
X196518773Y-44634571D01*
X196361630Y-44367904D02*
X196275916Y-45053619D01*
X196304488Y-45129809D01*
X196375916Y-45167904D01*
X196452107Y-45167904D01*
X197314011Y-44367904D02*
X197771154Y-44367904D01*
X197442583Y-45167904D02*
X197542583Y-44367904D01*
X198280678Y-45167904D02*
X198333059Y-44748857D01*
X198304488Y-44672666D01*
X198233059Y-44634571D01*
X198080678Y-44634571D01*
X197999726Y-44672666D01*
X198285440Y-45129809D02*
X198204488Y-45167904D01*
X198014011Y-45167904D01*
X197942583Y-45129809D01*
X197914011Y-45053619D01*
X197923535Y-44977428D01*
X197971154Y-44901238D01*
X198052107Y-44863142D01*
X198242583Y-44863142D01*
X198323535Y-44825047D01*
X198661630Y-45167904D02*
X198728297Y-44634571D01*
X198709250Y-44786952D02*
X198756869Y-44710761D01*
X198799726Y-44672666D01*
X198880678Y-44634571D01*
X198956869Y-44634571D01*
X199156869Y-45167904D02*
X199223535Y-44634571D01*
X199204488Y-44786952D02*
X199252107Y-44710761D01*
X199294964Y-44672666D01*
X199375916Y-44634571D01*
X199452107Y-44634571D01*
X199994964Y-45167904D02*
X200047345Y-44748857D01*
X200018773Y-44672666D01*
X199947345Y-44634571D01*
X199794964Y-44634571D01*
X199714011Y-44672666D01*
X199999726Y-45129809D02*
X199918773Y-45167904D01*
X199728297Y-45167904D01*
X199656869Y-45129809D01*
X199628297Y-45053619D01*
X199637821Y-44977428D01*
X199685440Y-44901238D01*
X199766392Y-44863142D01*
X199956869Y-44863142D01*
X200037821Y-44825047D01*
X200718773Y-45167904D02*
X200818773Y-44367904D01*
X200723535Y-45129809D02*
X200642583Y-45167904D01*
X200490202Y-45167904D01*
X200418773Y-45129809D01*
X200385440Y-45091714D01*
X200356869Y-45015523D01*
X200385440Y-44786952D01*
X200433059Y-44710761D01*
X200475916Y-44672666D01*
X200556869Y-44634571D01*
X200709250Y-44634571D01*
X200780678Y-44672666D01*
X201409250Y-45129809D02*
X201328297Y-45167904D01*
X201175916Y-45167904D01*
X201104488Y-45129809D01*
X201075916Y-45053619D01*
X201114011Y-44748857D01*
X201161630Y-44672666D01*
X201242583Y-44634571D01*
X201394964Y-44634571D01*
X201466392Y-44672666D01*
X201494964Y-44748857D01*
X201485440Y-44825047D01*
X201094964Y-44901238D01*
X187156869Y-46792666D02*
X187123535Y-46754571D01*
X187061630Y-46640285D01*
X187033059Y-46564095D01*
X187009249Y-46449809D01*
X186994964Y-46259333D01*
X187014011Y-46106952D01*
X187075916Y-45916476D01*
X187128297Y-45802190D01*
X187175916Y-45726000D01*
X187266392Y-45611714D01*
X187309249Y-45573619D01*
X187842583Y-46487904D02*
X187894964Y-46068857D01*
X187866392Y-45992666D01*
X187794964Y-45954571D01*
X187642583Y-45954571D01*
X187561630Y-45992666D01*
X187847345Y-46449809D02*
X187766392Y-46487904D01*
X187575916Y-46487904D01*
X187504488Y-46449809D01*
X187475916Y-46373619D01*
X187485440Y-46297428D01*
X187533059Y-46221238D01*
X187614011Y-46183142D01*
X187804488Y-46183142D01*
X187885440Y-46145047D01*
X188337821Y-46487904D02*
X188266392Y-46449809D01*
X188237821Y-46373619D01*
X188323535Y-45687904D01*
X188642583Y-46487904D02*
X188709249Y-45954571D01*
X188742583Y-45687904D02*
X188699726Y-45726000D01*
X188733059Y-45764095D01*
X188775916Y-45726000D01*
X188742583Y-45687904D01*
X188733059Y-45764095D01*
X189366392Y-46487904D02*
X189418773Y-46068857D01*
X189390202Y-45992666D01*
X189318773Y-45954571D01*
X189166392Y-45954571D01*
X189085440Y-45992666D01*
X189371154Y-46449809D02*
X189290202Y-46487904D01*
X189099726Y-46487904D01*
X189028297Y-46449809D01*
X188999726Y-46373619D01*
X189009249Y-46297428D01*
X189056869Y-46221238D01*
X189137821Y-46183142D01*
X189328297Y-46183142D01*
X189409249Y-46145047D01*
X189714011Y-46449809D02*
X189785440Y-46487904D01*
X189937821Y-46487904D01*
X190018773Y-46449809D01*
X190066392Y-46373619D01*
X190071154Y-46335523D01*
X190042583Y-46259333D01*
X189971154Y-46221238D01*
X189856869Y-46221238D01*
X189785440Y-46183142D01*
X189756869Y-46106952D01*
X189761630Y-46068857D01*
X189809249Y-45992666D01*
X189890202Y-45954571D01*
X190004488Y-45954571D01*
X190075916Y-45992666D01*
X191004488Y-46487904D02*
X191104488Y-45687904D01*
X191066392Y-45992666D02*
X191147345Y-45954571D01*
X191299726Y-45954571D01*
X191371154Y-45992666D01*
X191404488Y-46030761D01*
X191433059Y-46106952D01*
X191404488Y-46335523D01*
X191356869Y-46411714D01*
X191314011Y-46449809D01*
X191233059Y-46487904D01*
X191080678Y-46487904D01*
X191009249Y-46449809D01*
X192037821Y-46449809D02*
X191956869Y-46487904D01*
X191804488Y-46487904D01*
X191733059Y-46449809D01*
X191704488Y-46373619D01*
X191742583Y-46068857D01*
X191790202Y-45992666D01*
X191871154Y-45954571D01*
X192023535Y-45954571D01*
X192094964Y-45992666D01*
X192123535Y-46068857D01*
X192114011Y-46145047D01*
X191723535Y-46221238D01*
X192414011Y-46487904D02*
X192514011Y-45687904D01*
X192475916Y-45992666D02*
X192556869Y-45954571D01*
X192709249Y-45954571D01*
X192780678Y-45992666D01*
X192814011Y-46030761D01*
X192842583Y-46106952D01*
X192814011Y-46335523D01*
X192766392Y-46411714D01*
X192723535Y-46449809D01*
X192642583Y-46487904D01*
X192490202Y-46487904D01*
X192418773Y-46449809D01*
X193447345Y-46449809D02*
X193366392Y-46487904D01*
X193214011Y-46487904D01*
X193142583Y-46449809D01*
X193114011Y-46373619D01*
X193152107Y-46068857D01*
X193199726Y-45992666D01*
X193280678Y-45954571D01*
X193433059Y-45954571D01*
X193504488Y-45992666D01*
X193533059Y-46068857D01*
X193523535Y-46145047D01*
X193133059Y-46221238D01*
X193890202Y-45954571D02*
X193823535Y-46487904D01*
X193880678Y-46030761D02*
X193923535Y-45992666D01*
X194004488Y-45954571D01*
X194118773Y-45954571D01*
X194190202Y-45992666D01*
X194218773Y-46068857D01*
X194166392Y-46487904D01*
X194661630Y-46487904D02*
X194590202Y-46449809D01*
X194561630Y-46373619D01*
X194647345Y-45687904D01*
X195275916Y-46449809D02*
X195194964Y-46487904D01*
X195042583Y-46487904D01*
X194971154Y-46449809D01*
X194942583Y-46373619D01*
X194980678Y-46068857D01*
X195028297Y-45992666D01*
X195109249Y-45954571D01*
X195261630Y-45954571D01*
X195333059Y-45992666D01*
X195361630Y-46068857D01*
X195352107Y-46145047D01*
X194961630Y-46221238D01*
X195652107Y-46487904D02*
X195752107Y-45687904D01*
X195714011Y-45992666D02*
X195794964Y-45954571D01*
X195947345Y-45954571D01*
X196018773Y-45992666D01*
X196052107Y-46030761D01*
X196080678Y-46106952D01*
X196052107Y-46335523D01*
X196004488Y-46411714D01*
X195961630Y-46449809D01*
X195880678Y-46487904D01*
X195728297Y-46487904D01*
X195656869Y-46449809D01*
X196375916Y-46487904D02*
X196442583Y-45954571D01*
X196475916Y-45687904D02*
X196433059Y-45726000D01*
X196466392Y-45764095D01*
X196509249Y-45726000D01*
X196475916Y-45687904D01*
X196466392Y-45764095D01*
X197104488Y-46449809D02*
X197023535Y-46487904D01*
X196871154Y-46487904D01*
X196799726Y-46449809D01*
X196766392Y-46411714D01*
X196737821Y-46335523D01*
X196766392Y-46106952D01*
X196814011Y-46030761D01*
X196856869Y-45992666D01*
X196937821Y-45954571D01*
X197090202Y-45954571D01*
X197161630Y-45992666D01*
X197556869Y-46487904D02*
X197485440Y-46449809D01*
X197452107Y-46411714D01*
X197423535Y-46335523D01*
X197452107Y-46106952D01*
X197499726Y-46030761D01*
X197542583Y-45992666D01*
X197623535Y-45954571D01*
X197737821Y-45954571D01*
X197809249Y-45992666D01*
X197842583Y-46030761D01*
X197871154Y-46106952D01*
X197842583Y-46335523D01*
X197794964Y-46411714D01*
X197752107Y-46449809D01*
X197671154Y-46487904D01*
X197556869Y-46487904D01*
X198280678Y-46487904D02*
X198209249Y-46449809D01*
X198180678Y-46373619D01*
X198266392Y-45687904D01*
X198699726Y-46487904D02*
X198628297Y-46449809D01*
X198594964Y-46411714D01*
X198566392Y-46335523D01*
X198594964Y-46106952D01*
X198642583Y-46030761D01*
X198685440Y-45992666D01*
X198766392Y-45954571D01*
X198880678Y-45954571D01*
X198952107Y-45992666D01*
X198985440Y-46030761D01*
X199014011Y-46106952D01*
X198985440Y-46335523D01*
X198937821Y-46411714D01*
X198894964Y-46449809D01*
X198814011Y-46487904D01*
X198699726Y-46487904D01*
X199194964Y-46792666D02*
X199237821Y-46754571D01*
X199328297Y-46640285D01*
X199375916Y-46564095D01*
X199428297Y-46449809D01*
X199490202Y-46259333D01*
X199509249Y-46106952D01*
X199494964Y-45916476D01*
X199471154Y-45802190D01*
X199442583Y-45726000D01*
X199380678Y-45611714D01*
X199347345Y-45573619D01*
D11*
X204455047Y-45862857D02*
X205978857Y-45862857D01*
X205216952Y-46624761D02*
X205216952Y-45100952D01*
X207978857Y-46624761D02*
X206836000Y-46624761D01*
X207407428Y-46624761D02*
X207407428Y-44624761D01*
X207216952Y-44910476D01*
X207026476Y-45100952D01*
X206836000Y-45196190D01*
X208740761Y-44815238D02*
X208836000Y-44720000D01*
X209026476Y-44624761D01*
X209502666Y-44624761D01*
X209693142Y-44720000D01*
X209788380Y-44815238D01*
X209883619Y-45005714D01*
X209883619Y-45196190D01*
X209788380Y-45481904D01*
X208645523Y-46624761D01*
X209883619Y-46624761D01*
X210455047Y-44624761D02*
X211121714Y-46624761D01*
X211788380Y-44624761D01*
X214264571Y-46624761D02*
X214074095Y-46529523D01*
X213978857Y-46434285D01*
X213883619Y-46243809D01*
X213883619Y-45672380D01*
X213978857Y-45481904D01*
X214074095Y-45386666D01*
X214264571Y-45291428D01*
X214550285Y-45291428D01*
X214740761Y-45386666D01*
X214836000Y-45481904D01*
X214931238Y-45672380D01*
X214931238Y-46243809D01*
X214836000Y-46434285D01*
X214740761Y-46529523D01*
X214550285Y-46624761D01*
X214264571Y-46624761D01*
X215788380Y-45291428D02*
X215788380Y-46624761D01*
X215788380Y-45481904D02*
X215883619Y-45386666D01*
X216074095Y-45291428D01*
X216359809Y-45291428D01*
X216550285Y-45386666D01*
X216645523Y-45577142D01*
X216645523Y-46624761D01*
X217883619Y-46624761D02*
X217693142Y-46529523D01*
X217597904Y-46339047D01*
X217597904Y-44624761D01*
X218455047Y-45291428D02*
X218931238Y-46624761D01*
X219407428Y-45291428D02*
X218931238Y-46624761D01*
X218740761Y-47100952D01*
X218645523Y-47196190D01*
X218455047Y-47291428D01*
X238760190Y-127524000D02*
X238569714Y-127428761D01*
X238284000Y-127428761D01*
X237998285Y-127524000D01*
X237807809Y-127714476D01*
X237712571Y-127904952D01*
X237617333Y-128285904D01*
X237617333Y-128571619D01*
X237712571Y-128952571D01*
X237807809Y-129143047D01*
X237998285Y-129333523D01*
X238284000Y-129428761D01*
X238474476Y-129428761D01*
X238760190Y-129333523D01*
X238855428Y-129238285D01*
X238855428Y-128571619D01*
X238474476Y-128571619D01*
X239712571Y-129428761D02*
X239712571Y-127428761D01*
X240855428Y-129428761D01*
X240855428Y-127428761D01*
X241807809Y-129428761D02*
X241807809Y-127428761D01*
X242284000Y-127428761D01*
X242569714Y-127524000D01*
X242760190Y-127714476D01*
X242855428Y-127904952D01*
X242950666Y-128285904D01*
X242950666Y-128571619D01*
X242855428Y-128952571D01*
X242760190Y-129143047D01*
X242569714Y-129333523D01*
X242284000Y-129428761D01*
X241807809Y-129428761D01*
X172003714Y-127191857D02*
X172218000Y-127263285D01*
X172289428Y-127334714D01*
X172360857Y-127477571D01*
X172360857Y-127691857D01*
X172289428Y-127834714D01*
X172218000Y-127906142D01*
X172075142Y-127977571D01*
X171503714Y-127977571D01*
X171503714Y-126477571D01*
X172003714Y-126477571D01*
X172146571Y-126549000D01*
X172218000Y-126620428D01*
X172289428Y-126763285D01*
X172289428Y-126906142D01*
X172218000Y-127049000D01*
X172146571Y-127120428D01*
X172003714Y-127191857D01*
X171503714Y-127191857D01*
X173575142Y-127906142D02*
X173432285Y-127977571D01*
X173146571Y-127977571D01*
X173003714Y-127906142D01*
X172932285Y-127763285D01*
X172932285Y-127191857D01*
X173003714Y-127049000D01*
X173146571Y-126977571D01*
X173432285Y-126977571D01*
X173575142Y-127049000D01*
X173646571Y-127191857D01*
X173646571Y-127334714D01*
X172932285Y-127477571D01*
X174860857Y-127906142D02*
X174718000Y-127977571D01*
X174432285Y-127977571D01*
X174289428Y-127906142D01*
X174218000Y-127763285D01*
X174218000Y-127191857D01*
X174289428Y-127049000D01*
X174432285Y-126977571D01*
X174718000Y-126977571D01*
X174860857Y-127049000D01*
X174932285Y-127191857D01*
X174932285Y-127334714D01*
X174218000Y-127477571D01*
X175575142Y-127977571D02*
X175575142Y-126977571D01*
X175575142Y-127263285D02*
X175646571Y-127120428D01*
X175718000Y-127049000D01*
X175860857Y-126977571D01*
X176003714Y-126977571D01*
X177432285Y-126477571D02*
X178289428Y-126477571D01*
X177860857Y-127977571D02*
X177860857Y-126477571D01*
X178789428Y-127977571D02*
X178789428Y-126477571D01*
X179432285Y-127977571D02*
X179432285Y-127191857D01*
X179360857Y-127049000D01*
X179218000Y-126977571D01*
X179003714Y-126977571D01*
X178860857Y-127049000D01*
X178789428Y-127120428D01*
X180718000Y-127906142D02*
X180575142Y-127977571D01*
X180289428Y-127977571D01*
X180146571Y-127906142D01*
X180075142Y-127763285D01*
X180075142Y-127191857D01*
X180146571Y-127049000D01*
X180289428Y-126977571D01*
X180575142Y-126977571D01*
X180718000Y-127049000D01*
X180789428Y-127191857D01*
X180789428Y-127334714D01*
X180075142Y-127477571D01*
X181432285Y-127977571D02*
X181432285Y-126977571D01*
X181432285Y-127263285D02*
X181503714Y-127120428D01*
X181575142Y-127049000D01*
X181718000Y-126977571D01*
X181860857Y-126977571D01*
X182360857Y-127977571D02*
X182360857Y-126977571D01*
X182360857Y-127120428D02*
X182432285Y-127049000D01*
X182575142Y-126977571D01*
X182789428Y-126977571D01*
X182932285Y-127049000D01*
X183003714Y-127191857D01*
X183003714Y-127977571D01*
X183003714Y-127191857D02*
X183075142Y-127049000D01*
X183218000Y-126977571D01*
X183432285Y-126977571D01*
X183575142Y-127049000D01*
X183646571Y-127191857D01*
X183646571Y-127977571D01*
X184575142Y-127977571D02*
X184432285Y-127906142D01*
X184360857Y-127834714D01*
X184289428Y-127691857D01*
X184289428Y-127263285D01*
X184360857Y-127120428D01*
X184432285Y-127049000D01*
X184575142Y-126977571D01*
X184789428Y-126977571D01*
X184932285Y-127049000D01*
X185003714Y-127120428D01*
X185075142Y-127263285D01*
X185075142Y-127691857D01*
X185003714Y-127834714D01*
X184932285Y-127906142D01*
X184789428Y-127977571D01*
X184575142Y-127977571D01*
X185718000Y-127977571D02*
X185718000Y-126977571D01*
X185718000Y-127263285D02*
X185789428Y-127120428D01*
X185860857Y-127049000D01*
X186003714Y-126977571D01*
X186146571Y-126977571D01*
X187218000Y-127906142D02*
X187075142Y-127977571D01*
X186789428Y-127977571D01*
X186646571Y-127906142D01*
X186575142Y-127763285D01*
X186575142Y-127191857D01*
X186646571Y-127049000D01*
X186789428Y-126977571D01*
X187075142Y-126977571D01*
X187218000Y-127049000D01*
X187289428Y-127191857D01*
X187289428Y-127334714D01*
X186575142Y-127477571D01*
X188575142Y-126977571D02*
X188575142Y-128191857D01*
X188503714Y-128334714D01*
X188432285Y-128406142D01*
X188289428Y-128477571D01*
X188075142Y-128477571D01*
X187932285Y-128406142D01*
X188575142Y-127906142D02*
X188432285Y-127977571D01*
X188146571Y-127977571D01*
X188003714Y-127906142D01*
X187932285Y-127834714D01*
X187860857Y-127691857D01*
X187860857Y-127263285D01*
X187932285Y-127120428D01*
X188003714Y-127049000D01*
X188146571Y-126977571D01*
X188432285Y-126977571D01*
X188575142Y-127049000D01*
X189932285Y-126977571D02*
X189932285Y-127977571D01*
X189289428Y-126977571D02*
X189289428Y-127763285D01*
X189360857Y-127906142D01*
X189503714Y-127977571D01*
X189718000Y-127977571D01*
X189860857Y-127906142D01*
X189932285Y-127834714D01*
X190860857Y-127977571D02*
X190718000Y-127906142D01*
X190646571Y-127763285D01*
X190646571Y-126477571D01*
X192075142Y-127977571D02*
X192075142Y-127191857D01*
X192003714Y-127049000D01*
X191860857Y-126977571D01*
X191575142Y-126977571D01*
X191432285Y-127049000D01*
X192075142Y-127906142D02*
X191932285Y-127977571D01*
X191575142Y-127977571D01*
X191432285Y-127906142D01*
X191360857Y-127763285D01*
X191360857Y-127620428D01*
X191432285Y-127477571D01*
X191575142Y-127406142D01*
X191932285Y-127406142D01*
X192075142Y-127334714D01*
X192575142Y-126977571D02*
X193146571Y-126977571D01*
X192789428Y-126477571D02*
X192789428Y-127763285D01*
X192860857Y-127906142D01*
X193003714Y-127977571D01*
X193146571Y-127977571D01*
X193646571Y-127977571D02*
X193646571Y-126977571D01*
X193646571Y-126477571D02*
X193575142Y-126549000D01*
X193646571Y-126620428D01*
X193718000Y-126549000D01*
X193646571Y-126477571D01*
X193646571Y-126620428D01*
X194575142Y-127977571D02*
X194432285Y-127906142D01*
X194360857Y-127834714D01*
X194289428Y-127691857D01*
X194289428Y-127263285D01*
X194360857Y-127120428D01*
X194432285Y-127049000D01*
X194575142Y-126977571D01*
X194789428Y-126977571D01*
X194932285Y-127049000D01*
X195003714Y-127120428D01*
X195075142Y-127263285D01*
X195075142Y-127691857D01*
X195003714Y-127834714D01*
X194932285Y-127906142D01*
X194789428Y-127977571D01*
X194575142Y-127977571D01*
X195718000Y-126977571D02*
X195718000Y-127977571D01*
X195718000Y-127120428D02*
X195789428Y-127049000D01*
X195932285Y-126977571D01*
X196146571Y-126977571D01*
X196289428Y-127049000D01*
X196360857Y-127191857D01*
X196360857Y-127977571D01*
X198146571Y-127906142D02*
X198360857Y-127977571D01*
X198718000Y-127977571D01*
X198860857Y-127906142D01*
X198932285Y-127834714D01*
X199003714Y-127691857D01*
X199003714Y-127549000D01*
X198932285Y-127406142D01*
X198860857Y-127334714D01*
X198718000Y-127263285D01*
X198432285Y-127191857D01*
X198289428Y-127120428D01*
X198218000Y-127049000D01*
X198146571Y-126906142D01*
X198146571Y-126763285D01*
X198218000Y-126620428D01*
X198289428Y-126549000D01*
X198432285Y-126477571D01*
X198789428Y-126477571D01*
X199003714Y-126549000D01*
X199503714Y-126977571D02*
X199860857Y-127977571D01*
X200218000Y-126977571D02*
X199860857Y-127977571D01*
X199718000Y-128334714D01*
X199646571Y-128406142D01*
X199503714Y-128477571D01*
X200718000Y-127906142D02*
X200860857Y-127977571D01*
X201146571Y-127977571D01*
X201289428Y-127906142D01*
X201360857Y-127763285D01*
X201360857Y-127691857D01*
X201289428Y-127549000D01*
X201146571Y-127477571D01*
X200932285Y-127477571D01*
X200789428Y-127406142D01*
X200718000Y-127263285D01*
X200718000Y-127191857D01*
X200789428Y-127049000D01*
X200932285Y-126977571D01*
X201146571Y-126977571D01*
X201289428Y-127049000D01*
X201789428Y-126977571D02*
X202360857Y-126977571D01*
X202003714Y-126477571D02*
X202003714Y-127763285D01*
X202075142Y-127906142D01*
X202218000Y-127977571D01*
X202360857Y-127977571D01*
X203432285Y-127906142D02*
X203289428Y-127977571D01*
X203003714Y-127977571D01*
X202860857Y-127906142D01*
X202789428Y-127763285D01*
X202789428Y-127191857D01*
X202860857Y-127049000D01*
X203003714Y-126977571D01*
X203289428Y-126977571D01*
X203432285Y-127049000D01*
X203503714Y-127191857D01*
X203503714Y-127334714D01*
X202789428Y-127477571D01*
X204146571Y-127977571D02*
X204146571Y-126977571D01*
X204146571Y-127120428D02*
X204218000Y-127049000D01*
X204360857Y-126977571D01*
X204575142Y-126977571D01*
X204718000Y-127049000D01*
X204789428Y-127191857D01*
X204789428Y-127977571D01*
X204789428Y-127191857D02*
X204860857Y-127049000D01*
X205003714Y-126977571D01*
X205218000Y-126977571D01*
X205360857Y-127049000D01*
X205432285Y-127191857D01*
X205432285Y-127977571D01*
X175682285Y-130427571D02*
X175682285Y-128927571D01*
X176182285Y-129999000D01*
X176682285Y-128927571D01*
X176682285Y-130427571D01*
X178039428Y-130427571D02*
X178039428Y-129641857D01*
X177968000Y-129499000D01*
X177825142Y-129427571D01*
X177539428Y-129427571D01*
X177396571Y-129499000D01*
X178039428Y-130356142D02*
X177896571Y-130427571D01*
X177539428Y-130427571D01*
X177396571Y-130356142D01*
X177325142Y-130213285D01*
X177325142Y-130070428D01*
X177396571Y-129927571D01*
X177539428Y-129856142D01*
X177896571Y-129856142D01*
X178039428Y-129784714D01*
X178753714Y-130427571D02*
X178753714Y-129427571D01*
X178753714Y-128927571D02*
X178682285Y-128999000D01*
X178753714Y-129070428D01*
X178825142Y-128999000D01*
X178753714Y-128927571D01*
X178753714Y-129070428D01*
X179468000Y-129427571D02*
X179468000Y-130427571D01*
X179468000Y-129570428D02*
X179539428Y-129499000D01*
X179682285Y-129427571D01*
X179896571Y-129427571D01*
X180039428Y-129499000D01*
X180110857Y-129641857D01*
X180110857Y-130427571D01*
X181968000Y-130427571D02*
X181968000Y-128927571D01*
X181968000Y-129499000D02*
X182110857Y-129427571D01*
X182396571Y-129427571D01*
X182539428Y-129499000D01*
X182610857Y-129570428D01*
X182682285Y-129713285D01*
X182682285Y-130141857D01*
X182610857Y-130284714D01*
X182539428Y-130356142D01*
X182396571Y-130427571D01*
X182110857Y-130427571D01*
X181968000Y-130356142D01*
X183539428Y-130427571D02*
X183396571Y-130356142D01*
X183325142Y-130284714D01*
X183253714Y-130141857D01*
X183253714Y-129713285D01*
X183325142Y-129570428D01*
X183396571Y-129499000D01*
X183539428Y-129427571D01*
X183753714Y-129427571D01*
X183896571Y-129499000D01*
X183968000Y-129570428D01*
X184039428Y-129713285D01*
X184039428Y-130141857D01*
X183968000Y-130284714D01*
X183896571Y-130356142D01*
X183753714Y-130427571D01*
X183539428Y-130427571D01*
X185325142Y-130427571D02*
X185325142Y-129641857D01*
X185253714Y-129499000D01*
X185110857Y-129427571D01*
X184825142Y-129427571D01*
X184682285Y-129499000D01*
X185325142Y-130356142D02*
X185182285Y-130427571D01*
X184825142Y-130427571D01*
X184682285Y-130356142D01*
X184610857Y-130213285D01*
X184610857Y-130070428D01*
X184682285Y-129927571D01*
X184825142Y-129856142D01*
X185182285Y-129856142D01*
X185325142Y-129784714D01*
X186039428Y-130427571D02*
X186039428Y-129427571D01*
X186039428Y-129713285D02*
X186110857Y-129570428D01*
X186182285Y-129499000D01*
X186325142Y-129427571D01*
X186468000Y-129427571D01*
X187610857Y-130427571D02*
X187610857Y-128927571D01*
X187610857Y-130356142D02*
X187468000Y-130427571D01*
X187182285Y-130427571D01*
X187039428Y-130356142D01*
X186968000Y-130284714D01*
X186896571Y-130141857D01*
X186896571Y-129713285D01*
X186968000Y-129570428D01*
X187039428Y-129499000D01*
X187182285Y-129427571D01*
X187468000Y-129427571D01*
X187610857Y-129499000D01*
X189896571Y-130999000D02*
X189825142Y-130927571D01*
X189682285Y-130713285D01*
X189610857Y-130570428D01*
X189539428Y-130356142D01*
X189468000Y-129999000D01*
X189468000Y-129713285D01*
X189539428Y-129356142D01*
X189610857Y-129141857D01*
X189682285Y-128999000D01*
X189825142Y-128784714D01*
X189896571Y-128713285D01*
X190468000Y-130427571D02*
X190468000Y-128927571D01*
X191039428Y-128927571D01*
X191182285Y-128999000D01*
X191253714Y-129070428D01*
X191325142Y-129213285D01*
X191325142Y-129427571D01*
X191253714Y-129570428D01*
X191182285Y-129641857D01*
X191039428Y-129713285D01*
X190468000Y-129713285D01*
X192182285Y-130427571D02*
X192039428Y-130356142D01*
X191968000Y-130284714D01*
X191896571Y-130141857D01*
X191896571Y-129713285D01*
X191968000Y-129570428D01*
X192039428Y-129499000D01*
X192182285Y-129427571D01*
X192396571Y-129427571D01*
X192539428Y-129499000D01*
X192610857Y-129570428D01*
X192682285Y-129713285D01*
X192682285Y-130141857D01*
X192610857Y-130284714D01*
X192539428Y-130356142D01*
X192396571Y-130427571D01*
X192182285Y-130427571D01*
X193182285Y-129427571D02*
X193468000Y-130427571D01*
X193753714Y-129713285D01*
X194039428Y-130427571D01*
X194325142Y-129427571D01*
X195468000Y-130356142D02*
X195325142Y-130427571D01*
X195039428Y-130427571D01*
X194896571Y-130356142D01*
X194825142Y-130213285D01*
X194825142Y-129641857D01*
X194896571Y-129499000D01*
X195039428Y-129427571D01*
X195325142Y-129427571D01*
X195468000Y-129499000D01*
X195539428Y-129641857D01*
X195539428Y-129784714D01*
X194825142Y-129927571D01*
X196182285Y-130427571D02*
X196182285Y-129427571D01*
X196182285Y-129713285D02*
X196253714Y-129570428D01*
X196325142Y-129499000D01*
X196468000Y-129427571D01*
X196610857Y-129427571D01*
X196968000Y-130999000D02*
X197039428Y-130927571D01*
X197182285Y-130713285D01*
X197253714Y-130570428D01*
X197325142Y-130356142D01*
X197396571Y-129999000D01*
X197396571Y-129713285D01*
X197325142Y-129356142D01*
X197253714Y-129141857D01*
X197182285Y-128999000D01*
X197039428Y-128784714D01*
X196968000Y-128713285D01*
X199039428Y-128927571D02*
X199539428Y-130427571D01*
X200039428Y-128927571D01*
X201325142Y-130427571D02*
X200468000Y-130427571D01*
X200896571Y-130427571D02*
X200896571Y-128927571D01*
X200753714Y-129141857D01*
X200610857Y-129284714D01*
X200468000Y-129356142D01*
D12*
X240467619Y-121261142D02*
X240420000Y-121308761D01*
X240277142Y-121356380D01*
X240181904Y-121356380D01*
X240039047Y-121308761D01*
X239943809Y-121213523D01*
X239896190Y-121118285D01*
X239848571Y-120927809D01*
X239848571Y-120784952D01*
X239896190Y-120594476D01*
X239943809Y-120499238D01*
X240039047Y-120404000D01*
X240181904Y-120356380D01*
X240277142Y-120356380D01*
X240420000Y-120404000D01*
X240467619Y-120451619D01*
X241039047Y-121356380D02*
X240943809Y-121308761D01*
X240896190Y-121261142D01*
X240848571Y-121165904D01*
X240848571Y-120880190D01*
X240896190Y-120784952D01*
X240943809Y-120737333D01*
X241039047Y-120689714D01*
X241181904Y-120689714D01*
X241277142Y-120737333D01*
X241324761Y-120784952D01*
X241372380Y-120880190D01*
X241372380Y-121165904D01*
X241324761Y-121261142D01*
X241277142Y-121308761D01*
X241181904Y-121356380D01*
X241039047Y-121356380D01*
X241943809Y-121356380D02*
X241848571Y-121308761D01*
X241800952Y-121261142D01*
X241753333Y-121165904D01*
X241753333Y-120880190D01*
X241800952Y-120784952D01*
X241848571Y-120737333D01*
X241943809Y-120689714D01*
X242086666Y-120689714D01*
X242181904Y-120737333D01*
X242229523Y-120784952D01*
X242277142Y-120880190D01*
X242277142Y-121165904D01*
X242229523Y-121261142D01*
X242181904Y-121308761D01*
X242086666Y-121356380D01*
X241943809Y-121356380D01*
X242848571Y-121356380D02*
X242753333Y-121308761D01*
X242705714Y-121213523D01*
X242705714Y-120356380D01*
X243229523Y-121356380D02*
X243229523Y-120689714D01*
X243229523Y-120356380D02*
X243181904Y-120404000D01*
X243229523Y-120451619D01*
X243277142Y-120404000D01*
X243229523Y-120356380D01*
X243229523Y-120451619D01*
X243705714Y-120689714D02*
X243705714Y-121356380D01*
X243705714Y-120784952D02*
X243753333Y-120737333D01*
X243848571Y-120689714D01*
X243991428Y-120689714D01*
X244086666Y-120737333D01*
X244134285Y-120832571D01*
X244134285Y-121356380D01*
X245039047Y-120689714D02*
X245039047Y-121499238D01*
X244991428Y-121594476D01*
X244943809Y-121642095D01*
X244848571Y-121689714D01*
X244705714Y-121689714D01*
X244610476Y-121642095D01*
X245039047Y-121308761D02*
X244943809Y-121356380D01*
X244753333Y-121356380D01*
X244658095Y-121308761D01*
X244610476Y-121261142D01*
X244562857Y-121165904D01*
X244562857Y-120880190D01*
X244610476Y-120784952D01*
X244658095Y-120737333D01*
X244753333Y-120689714D01*
X244943809Y-120689714D01*
X245039047Y-120737333D01*
X246134285Y-120689714D02*
X246515238Y-120689714D01*
X246277142Y-121356380D02*
X246277142Y-120499238D01*
X246324761Y-120404000D01*
X246420000Y-120356380D01*
X246515238Y-120356380D01*
X247277142Y-121356380D02*
X247277142Y-120832571D01*
X247229523Y-120737333D01*
X247134285Y-120689714D01*
X246943809Y-120689714D01*
X246848571Y-120737333D01*
X247277142Y-121308761D02*
X247181904Y-121356380D01*
X246943809Y-121356380D01*
X246848571Y-121308761D01*
X246800952Y-121213523D01*
X246800952Y-121118285D01*
X246848571Y-121023047D01*
X246943809Y-120975428D01*
X247181904Y-120975428D01*
X247277142Y-120927809D01*
X247753333Y-120689714D02*
X247753333Y-121356380D01*
X247753333Y-120784952D02*
X247800952Y-120737333D01*
X247896190Y-120689714D01*
X248039047Y-120689714D01*
X248134285Y-120737333D01*
X248181904Y-120832571D01*
X248181904Y-121356380D01*
X248610476Y-121308761D02*
X248705714Y-121356380D01*
X248896190Y-121356380D01*
X248991428Y-121308761D01*
X249039047Y-121213523D01*
X249039047Y-121165904D01*
X248991428Y-121070666D01*
X248896190Y-121023047D01*
X248753333Y-121023047D01*
X248658095Y-120975428D01*
X248610476Y-120880190D01*
X248610476Y-120832571D01*
X248658095Y-120737333D01*
X248753333Y-120689714D01*
X248896190Y-120689714D01*
X248991428Y-120737333D01*
X250658095Y-121308761D02*
X250562857Y-121356380D01*
X250372380Y-121356380D01*
X250277142Y-121308761D01*
X250229523Y-121261142D01*
X250181904Y-121165904D01*
X250181904Y-120880190D01*
X250229523Y-120784952D01*
X250277142Y-120737333D01*
X250372380Y-120689714D01*
X250562857Y-120689714D01*
X250658095Y-120737333D01*
X251229523Y-121356380D02*
X251134285Y-121308761D01*
X251086666Y-121261142D01*
X251039047Y-121165904D01*
X251039047Y-120880190D01*
X251086666Y-120784952D01*
X251134285Y-120737333D01*
X251229523Y-120689714D01*
X251372380Y-120689714D01*
X251467619Y-120737333D01*
X251515238Y-120784952D01*
X251562857Y-120880190D01*
X251562857Y-121165904D01*
X251515238Y-121261142D01*
X251467619Y-121308761D01*
X251372380Y-121356380D01*
X251229523Y-121356380D01*
X251991428Y-120689714D02*
X251991428Y-121356380D01*
X251991428Y-120784952D02*
X252039047Y-120737333D01*
X252134285Y-120689714D01*
X252277142Y-120689714D01*
X252372380Y-120737333D01*
X252419999Y-120832571D01*
X252419999Y-121356380D01*
X252896190Y-120689714D02*
X252896190Y-121356380D01*
X252896190Y-120784952D02*
X252943809Y-120737333D01*
X253039047Y-120689714D01*
X253181904Y-120689714D01*
X253277142Y-120737333D01*
X253324761Y-120832571D01*
X253324761Y-121356380D01*
X254181904Y-121308761D02*
X254086666Y-121356380D01*
X253896190Y-121356380D01*
X253800952Y-121308761D01*
X253753333Y-121213523D01*
X253753333Y-120832571D01*
X253800952Y-120737333D01*
X253896190Y-120689714D01*
X254086666Y-120689714D01*
X254181904Y-120737333D01*
X254229523Y-120832571D01*
X254229523Y-120927809D01*
X253753333Y-121023047D01*
X255086666Y-121308761D02*
X254991428Y-121356380D01*
X254800952Y-121356380D01*
X254705714Y-121308761D01*
X254658095Y-121261142D01*
X254610476Y-121165904D01*
X254610476Y-120880190D01*
X254658095Y-120784952D01*
X254705714Y-120737333D01*
X254800952Y-120689714D01*
X254991428Y-120689714D01*
X255086666Y-120737333D01*
X255372380Y-120689714D02*
X255753333Y-120689714D01*
X255515238Y-120356380D02*
X255515238Y-121213523D01*
X255562857Y-121308761D01*
X255658095Y-121356380D01*
X255753333Y-121356380D01*
X256229523Y-121356380D02*
X256134285Y-121308761D01*
X256086666Y-121261142D01*
X256039047Y-121165904D01*
X256039047Y-120880190D01*
X256086666Y-120784952D01*
X256134285Y-120737333D01*
X256229523Y-120689714D01*
X256372380Y-120689714D01*
X256467619Y-120737333D01*
X256515238Y-120784952D01*
X256562857Y-120880190D01*
X256562857Y-121165904D01*
X256515238Y-121261142D01*
X256467619Y-121308761D01*
X256372380Y-121356380D01*
X256229523Y-121356380D01*
X256991428Y-121356380D02*
X256991428Y-120689714D01*
X256991428Y-120880190D02*
X257039047Y-120784952D01*
X257086666Y-120737333D01*
X257181904Y-120689714D01*
X257277142Y-120689714D01*
X257562857Y-121308761D02*
X257658095Y-121356380D01*
X257848571Y-121356380D01*
X257943809Y-121308761D01*
X257991428Y-121213523D01*
X257991428Y-121165904D01*
X257943809Y-121070666D01*
X257848571Y-121023047D01*
X257705714Y-121023047D01*
X257610476Y-120975428D01*
X257562857Y-120880190D01*
X257562857Y-120832571D01*
X257610476Y-120737333D01*
X257705714Y-120689714D01*
X257848571Y-120689714D01*
X257943809Y-120737333D01*
D10*
X240792000Y-119888000D02*
X240792000Y-117348000D01*
X257048000Y-119888000D02*
X240792000Y-119888000D01*
X257048000Y-117348000D02*
X257048000Y-119888000D01*
D13*
X249174000Y-114363500D02*
G75*
G03*
X249174000Y-114363500I-762000J0D01*
G01*
X242062000Y-114363500D02*
G75*
G03*
X242062000Y-114363500I-762000J0D01*
G01*
X242062000Y-107759500D02*
G75*
G03*
X242062000Y-107759500I-762000J0D01*
G01*
X249174000Y-107759500D02*
G75*
G03*
X249174000Y-107759500I-762000J0D01*
G01*
X249174000Y-101155500D02*
G75*
G03*
X249174000Y-101155500I-762000J0D01*
G01*
X249174000Y-94488000D02*
G75*
G03*
X249174000Y-94488000I-762000J0D01*
G01*
X242062000Y-101155500D02*
G75*
G03*
X242062000Y-101155500I-762000J0D01*
G01*
X242062000Y-94488000D02*
G75*
G03*
X242062000Y-94488000I-762000J0D01*
G01*
D12*
X248031047Y-94559428D02*
X248792952Y-94559428D01*
X248412000Y-94940380D02*
X248412000Y-94178476D01*
X240919047Y-94495928D02*
X241680952Y-94495928D01*
X241300000Y-94876880D02*
X241300000Y-94114976D01*
X240919047Y-101163428D02*
X241680952Y-101163428D01*
X241300000Y-101544380D02*
X241300000Y-100782476D01*
X248031047Y-101163428D02*
X248792952Y-101163428D01*
X248412000Y-101544380D02*
X248412000Y-100782476D01*
X248031047Y-107767428D02*
X248792952Y-107767428D01*
X248412000Y-108148380D02*
X248412000Y-107386476D01*
X248031047Y-114371428D02*
X248792952Y-114371428D01*
X248412000Y-114752380D02*
X248412000Y-113990476D01*
X240919047Y-114371428D02*
X241680952Y-114371428D01*
X241300000Y-114752380D02*
X241300000Y-113990476D01*
X240919047Y-107767428D02*
X241680952Y-107767428D01*
X241300000Y-108148380D02*
X241300000Y-107386476D01*
D10*
%TO.C,Q4*%
X222990000Y-115040000D02*
X221490000Y-115040000D01*
X221490000Y-115040000D02*
X221490000Y-115310000D01*
X221490000Y-115310000D02*
X218660000Y-115310000D01*
X222990000Y-121940000D02*
X221490000Y-121940000D01*
X221490000Y-121940000D02*
X221490000Y-121670000D01*
X221490000Y-121670000D02*
X220390000Y-121670000D01*
%TO.C,Q3*%
X240540000Y-50145000D02*
X239040000Y-50145000D01*
X239040000Y-50145000D02*
X239040000Y-50415000D01*
X239040000Y-50415000D02*
X236210000Y-50415000D01*
X240540000Y-57045000D02*
X239040000Y-57045000D01*
X239040000Y-57045000D02*
X239040000Y-56775000D01*
X239040000Y-56775000D02*
X237940000Y-56775000D01*
%TO.C,Q2*%
X180066000Y-117346000D02*
X180066000Y-118846000D01*
X180066000Y-118846000D02*
X180336000Y-118846000D01*
X180336000Y-118846000D02*
X180336000Y-121676000D01*
X186966000Y-117346000D02*
X186966000Y-118846000D01*
X186966000Y-118846000D02*
X186696000Y-118846000D01*
X186696000Y-118846000D02*
X186696000Y-119946000D01*
%TO.C,Q1*%
X181590000Y-55545000D02*
X181590000Y-57045000D01*
X181590000Y-57045000D02*
X181860000Y-57045000D01*
X181860000Y-57045000D02*
X181860000Y-59875000D01*
X188490000Y-55545000D02*
X188490000Y-57045000D01*
X188490000Y-57045000D02*
X188220000Y-57045000D01*
X188220000Y-57045000D02*
X188220000Y-58145000D01*
%TO.C,J19*%
X244161000Y-113224000D02*
X246821000Y-113224000D01*
X244161000Y-118424000D02*
X246821000Y-118424000D01*
X246821000Y-113224000D02*
X246821000Y-116334000D01*
X244161000Y-113794000D02*
X242641000Y-113794000D01*
X244161000Y-113224000D02*
X244161000Y-113794000D01*
X246821000Y-117854000D02*
X246821000Y-118424000D01*
X244161000Y-115314000D02*
X244161000Y-118424000D01*
%TO.C,J18*%
X251146000Y-113224000D02*
X253806000Y-113224000D01*
X251146000Y-118424000D02*
X253806000Y-118424000D01*
X253806000Y-113224000D02*
X253806000Y-116334000D01*
X251146000Y-113794000D02*
X249626000Y-113794000D01*
X251146000Y-113224000D02*
X251146000Y-113794000D01*
X253806000Y-117854000D02*
X253806000Y-118424000D01*
X251146000Y-115314000D02*
X251146000Y-118424000D01*
%TO.C,J17*%
X251146000Y-106577666D02*
X253806000Y-106577666D01*
X251146000Y-111777666D02*
X253806000Y-111777666D01*
X253806000Y-106577666D02*
X253806000Y-109687666D01*
X251146000Y-107147666D02*
X249626000Y-107147666D01*
X251146000Y-106577666D02*
X251146000Y-107147666D01*
X253806000Y-111207666D02*
X253806000Y-111777666D01*
X251146000Y-108667666D02*
X251146000Y-111777666D01*
%TO.C,J16*%
X251146000Y-99931333D02*
X253806000Y-99931333D01*
X251146000Y-105131333D02*
X253806000Y-105131333D01*
X253806000Y-99931333D02*
X253806000Y-103041333D01*
X251146000Y-100501333D02*
X249626000Y-100501333D01*
X251146000Y-99931333D02*
X251146000Y-100501333D01*
X253806000Y-104561333D02*
X253806000Y-105131333D01*
X251146000Y-102021333D02*
X251146000Y-105131333D01*
%TO.C,J15*%
X244161000Y-106577666D02*
X246821000Y-106577666D01*
X244161000Y-111777666D02*
X246821000Y-111777666D01*
X246821000Y-106577666D02*
X246821000Y-109687666D01*
X244161000Y-107147666D02*
X242641000Y-107147666D01*
X244161000Y-106577666D02*
X244161000Y-107147666D01*
X246821000Y-111207666D02*
X246821000Y-111777666D01*
X244161000Y-108667666D02*
X244161000Y-111777666D01*
%TO.C,J14*%
X244161000Y-99931333D02*
X246821000Y-99931333D01*
X244161000Y-105131333D02*
X246821000Y-105131333D01*
X246821000Y-99931333D02*
X246821000Y-103041333D01*
X244161000Y-100501333D02*
X242641000Y-100501333D01*
X244161000Y-99931333D02*
X244161000Y-100501333D01*
X246821000Y-104561333D02*
X246821000Y-105131333D01*
X244161000Y-102021333D02*
X244161000Y-105131333D01*
%TO.C,J13*%
X251146000Y-93285000D02*
X253806000Y-93285000D01*
X251146000Y-98485000D02*
X253806000Y-98485000D01*
X253806000Y-93285000D02*
X253806000Y-96395000D01*
X251146000Y-93855000D02*
X249626000Y-93855000D01*
X251146000Y-93285000D02*
X251146000Y-93855000D01*
X253806000Y-97915000D02*
X253806000Y-98485000D01*
X251146000Y-95375000D02*
X251146000Y-98485000D01*
%TO.C,J12*%
X244161000Y-93285000D02*
X246821000Y-93285000D01*
X244161000Y-98485000D02*
X246821000Y-98485000D01*
X246821000Y-93285000D02*
X246821000Y-96395000D01*
X244161000Y-93855000D02*
X242641000Y-93855000D01*
X244161000Y-93285000D02*
X244161000Y-93855000D01*
X246821000Y-97915000D02*
X246821000Y-98485000D01*
X244161000Y-95375000D02*
X244161000Y-98485000D01*
%TO.C,C4*%
X253164000Y-68252000D02*
X253164000Y-64502000D01*
X253164000Y-57732000D02*
X253164000Y-61482000D01*
X243708437Y-57732000D02*
X253164000Y-57732000D01*
X243708437Y-68252000D02*
X253164000Y-68252000D01*
X242644000Y-67187563D02*
X242644000Y-64502000D01*
X242644000Y-58796437D02*
X242644000Y-61482000D01*
X242644000Y-58796437D02*
X243708437Y-57732000D01*
X242644000Y-67187563D02*
X243708437Y-68252000D01*
X241154000Y-60232000D02*
X242404000Y-60232000D01*
X241779000Y-59607000D02*
X241779000Y-60857000D01*
%TO.C,C5*%
X253164000Y-79936000D02*
X253164000Y-76186000D01*
X253164000Y-69416000D02*
X253164000Y-73166000D01*
X243708437Y-69416000D02*
X253164000Y-69416000D01*
X243708437Y-79936000D02*
X253164000Y-79936000D01*
X242644000Y-78871563D02*
X242644000Y-76186000D01*
X242644000Y-70480437D02*
X242644000Y-73166000D01*
X242644000Y-70480437D02*
X243708437Y-69416000D01*
X242644000Y-78871563D02*
X243708437Y-79936000D01*
X241154000Y-71916000D02*
X242404000Y-71916000D01*
X241779000Y-71291000D02*
X241779000Y-72541000D01*
%TO.C,C3*%
X253164000Y-91620000D02*
X253164000Y-87870000D01*
X253164000Y-81100000D02*
X253164000Y-84850000D01*
X243708437Y-81100000D02*
X253164000Y-81100000D01*
X243708437Y-91620000D02*
X253164000Y-91620000D01*
X242644000Y-90555563D02*
X242644000Y-87870000D01*
X242644000Y-82164437D02*
X242644000Y-84850000D01*
X242644000Y-82164437D02*
X243708437Y-81100000D01*
X242644000Y-90555563D02*
X243708437Y-91620000D01*
X241154000Y-83600000D02*
X242404000Y-83600000D01*
X241779000Y-82975000D02*
X241779000Y-84225000D01*
%TO.C,R2*%
X170542936Y-111946000D02*
X174897064Y-111946000D01*
X170542936Y-108526000D02*
X174897064Y-108526000D01*
%TO.C,R1*%
X180018000Y-79901064D02*
X180018000Y-75546936D01*
X176598000Y-79901064D02*
X176598000Y-75546936D01*
%TO.C,C11*%
X172415252Y-74570000D02*
X170992748Y-74570000D01*
X172415252Y-72750000D02*
X170992748Y-72750000D01*
%TO.C,C10*%
X172415252Y-83656000D02*
X170992748Y-83656000D01*
X172415252Y-80936000D02*
X170992748Y-80936000D01*
%TO.C,C9*%
X172453752Y-78634000D02*
X171031248Y-78634000D01*
X172453752Y-76814000D02*
X171031248Y-76814000D01*
%TO.C,C1*%
X172453752Y-70506000D02*
X171031248Y-70506000D01*
X172453752Y-68686000D02*
X171031248Y-68686000D01*
%TO.C,J3*%
X183074000Y-69536000D02*
X185734000Y-69536000D01*
X183074000Y-105216000D02*
X185734000Y-105216000D01*
X185734000Y-69536000D02*
X185734000Y-72646000D01*
X183074000Y-70106000D02*
X181554000Y-70106000D01*
X183074000Y-69536000D02*
X183074000Y-70106000D01*
X185734000Y-104646000D02*
X185734000Y-105216000D01*
X185734000Y-74166000D02*
X185734000Y-77726000D01*
X185734000Y-79246000D02*
X185734000Y-82806000D01*
X185734000Y-84326000D02*
X185734000Y-87886000D01*
X185734000Y-89406000D02*
X185734000Y-92966000D01*
X185734000Y-94486000D02*
X185734000Y-98046000D01*
X185734000Y-99566000D02*
X185734000Y-103126000D01*
X183074000Y-71626000D02*
X183074000Y-75186000D01*
X183074000Y-76706000D02*
X183074000Y-80266000D01*
X183074000Y-81786000D02*
X183074000Y-85346000D01*
X183074000Y-86866000D02*
X183074000Y-90426000D01*
X183074000Y-91946000D02*
X183074000Y-95506000D01*
X183074000Y-97026000D02*
X183074000Y-100586000D01*
X183074000Y-102106000D02*
X183074000Y-105216000D01*
%TO.C,R11*%
X215611064Y-117750000D02*
X214156936Y-117750000D01*
X215611064Y-115930000D02*
X214156936Y-115930000D01*
%TO.C,R10*%
X233365064Y-52218000D02*
X231910936Y-52218000D01*
X233365064Y-50398000D02*
X231910936Y-50398000D01*
%TO.C,R9*%
X209990000Y-126727936D02*
X209990000Y-131082064D01*
X206570000Y-126727936D02*
X206570000Y-131082064D01*
%TO.C,R8*%
X177892064Y-121560000D02*
X176437936Y-121560000D01*
X177892064Y-119740000D02*
X176437936Y-119740000D01*
%TO.C,R7*%
X184184936Y-63606000D02*
X185639064Y-63606000D01*
X184184936Y-65426000D02*
X185639064Y-65426000D01*
%TO.C,L4*%
X190500000Y-71726000D02*
X190500000Y-74676000D01*
X203870000Y-85090000D02*
X192370000Y-85090000D01*
X205740000Y-71776000D02*
X205740000Y-74676000D01*
X190500000Y-80270000D02*
X190500000Y-83170000D01*
X205740000Y-80270000D02*
X205740000Y-83170000D01*
X203708000Y-69850000D02*
X192208000Y-69850000D01*
X205740000Y-83058000D02*
G75*
G02*
X203708000Y-85090000I-2032000J0D01*
G01*
X192532000Y-85090000D02*
G75*
G02*
X190500000Y-83058000I0J2032000D01*
G01*
X190500000Y-71882000D02*
G75*
G02*
X192532000Y-69850000I2032000J0D01*
G01*
X203708000Y-69850000D02*
G75*
G02*
X205740000Y-71882000I0J-2032000D01*
G01*
%TO.C,L3*%
X190500000Y-89506000D02*
X190500000Y-92456000D01*
X203870000Y-102870000D02*
X192370000Y-102870000D01*
X205740000Y-89556000D02*
X205740000Y-92456000D01*
X190500000Y-98050000D02*
X190500000Y-100950000D01*
X205740000Y-98050000D02*
X205740000Y-100950000D01*
X203708000Y-87630000D02*
X192208000Y-87630000D01*
X205740000Y-100838000D02*
G75*
G02*
X203708000Y-102870000I-2032000J0D01*
G01*
X192532000Y-102870000D02*
G75*
G02*
X190500000Y-100838000I0J2032000D01*
G01*
X190500000Y-89662000D02*
G75*
G02*
X192532000Y-87630000I2032000J0D01*
G01*
X203708000Y-87630000D02*
G75*
G02*
X205740000Y-89662000I0J-2032000D01*
G01*
%TO.C,L2*%
X190500000Y-107286000D02*
X190500000Y-110236000D01*
X203870000Y-120650000D02*
X192370000Y-120650000D01*
X205740000Y-107336000D02*
X205740000Y-110236000D01*
X190500000Y-115830000D02*
X190500000Y-118730000D01*
X205740000Y-115830000D02*
X205740000Y-118730000D01*
X203708000Y-105410000D02*
X192208000Y-105410000D01*
X205740000Y-118618000D02*
G75*
G02*
X203708000Y-120650000I-2032000J0D01*
G01*
X192532000Y-120650000D02*
G75*
G02*
X190500000Y-118618000I0J2032000D01*
G01*
X190500000Y-107442000D02*
G75*
G02*
X192532000Y-105410000I2032000J0D01*
G01*
X203708000Y-105410000D02*
G75*
G02*
X205740000Y-107442000I0J-2032000D01*
G01*
%TO.C,L1*%
X190500000Y-53946000D02*
X190500000Y-56896000D01*
X203870000Y-67310000D02*
X192370000Y-67310000D01*
X205740000Y-53996000D02*
X205740000Y-56896000D01*
X190500000Y-62490000D02*
X190500000Y-65390000D01*
X205740000Y-62490000D02*
X205740000Y-65390000D01*
X203708000Y-52070000D02*
X192208000Y-52070000D01*
X205740000Y-65278000D02*
G75*
G02*
X203708000Y-67310000I-2032000J0D01*
G01*
X192532000Y-67310000D02*
G75*
G02*
X190500000Y-65278000I0J2032000D01*
G01*
X190500000Y-54102000D02*
G75*
G02*
X192532000Y-52070000I2032000J0D01*
G01*
X203708000Y-52070000D02*
G75*
G02*
X205740000Y-54102000I0J-2032000D01*
G01*
%TO.C,J11*%
X226568000Y-89960000D02*
X226568000Y-95040000D01*
X232664000Y-95040000D02*
X232664000Y-89960000D01*
X240284000Y-96564000D02*
X240284000Y-88436000D01*
X234188000Y-88436000D02*
X234188000Y-96564000D01*
X235712000Y-86912000D02*
X238760000Y-86912000D01*
X238760000Y-98088000D02*
X235712000Y-98088000D01*
X235712000Y-98088000D02*
G75*
G02*
X234188000Y-96564000I0J1524000D01*
G01*
X240284000Y-96564000D02*
G75*
G02*
X238760000Y-98088000I-1524000J0D01*
G01*
X234188000Y-88436000D02*
G75*
G02*
X235712000Y-86912000I1524000J0D01*
G01*
X238760000Y-86912000D02*
G75*
G02*
X240284000Y-88436000I0J-1524000D01*
G01*
X232664000Y-95040000D02*
G75*
G02*
X226568000Y-95040000I-3048000J0D01*
G01*
X226568000Y-89960000D02*
G75*
G02*
X232664000Y-89960000I3048000J0D01*
G01*
%TO.C,J10*%
X226060000Y-61722000D02*
X226060000Y-66802000D01*
X232156000Y-66802000D02*
X232156000Y-61722000D01*
X239776000Y-68326000D02*
X239776000Y-60198000D01*
X233680000Y-60198000D02*
X233680000Y-68326000D01*
X235204000Y-58674000D02*
X238252000Y-58674000D01*
X238252000Y-69850000D02*
X235204000Y-69850000D01*
X235204000Y-69850000D02*
G75*
G02*
X233680000Y-68326000I0J1524000D01*
G01*
X239776000Y-68326000D02*
G75*
G02*
X238252000Y-69850000I-1524000J0D01*
G01*
X233680000Y-60198000D02*
G75*
G02*
X235204000Y-58674000I1524000J0D01*
G01*
X238252000Y-58674000D02*
G75*
G02*
X239776000Y-60198000I0J-1524000D01*
G01*
X232156000Y-66802000D02*
G75*
G02*
X226060000Y-66802000I-3048000J0D01*
G01*
X226060000Y-61722000D02*
G75*
G02*
X232156000Y-61722000I3048000J0D01*
G01*
%TO.C,J9*%
X210312000Y-61950000D02*
X210312000Y-67030000D01*
X216408000Y-67030000D02*
X216408000Y-61950000D01*
X224028000Y-68554000D02*
X224028000Y-60426000D01*
X217932000Y-60426000D02*
X217932000Y-68554000D01*
X219456000Y-58902000D02*
X222504000Y-58902000D01*
X222504000Y-70078000D02*
X219456000Y-70078000D01*
X219456000Y-70078000D02*
G75*
G02*
X217932000Y-68554000I0J1524000D01*
G01*
X224028000Y-68554000D02*
G75*
G02*
X222504000Y-70078000I-1524000J0D01*
G01*
X217932000Y-60426000D02*
G75*
G02*
X219456000Y-58902000I1524000J0D01*
G01*
X222504000Y-58902000D02*
G75*
G02*
X224028000Y-60426000I0J-1524000D01*
G01*
X216408000Y-67030000D02*
G75*
G02*
X210312000Y-67030000I-3048000J0D01*
G01*
X210312000Y-61950000D02*
G75*
G02*
X216408000Y-61950000I3048000J0D01*
G01*
%TO.C,J8*%
X210312000Y-89960000D02*
X210312000Y-95040000D01*
X216408000Y-95040000D02*
X216408000Y-89960000D01*
X224028000Y-96564000D02*
X224028000Y-88436000D01*
X217932000Y-88436000D02*
X217932000Y-96564000D01*
X219456000Y-86912000D02*
X222504000Y-86912000D01*
X222504000Y-98088000D02*
X219456000Y-98088000D01*
X219456000Y-98088000D02*
G75*
G02*
X217932000Y-96564000I0J1524000D01*
G01*
X224028000Y-96564000D02*
G75*
G02*
X222504000Y-98088000I-1524000J0D01*
G01*
X217932000Y-88436000D02*
G75*
G02*
X219456000Y-86912000I1524000J0D01*
G01*
X222504000Y-86912000D02*
G75*
G02*
X224028000Y-88436000I0J-1524000D01*
G01*
X216408000Y-95040000D02*
G75*
G02*
X210312000Y-95040000I-3048000J0D01*
G01*
X210312000Y-89960000D02*
G75*
G02*
X216408000Y-89960000I3048000J0D01*
G01*
%TO.C,J7*%
X226060000Y-74422000D02*
X226060000Y-79502000D01*
X232156000Y-79502000D02*
X232156000Y-74422000D01*
X239776000Y-81026000D02*
X239776000Y-72898000D01*
X233680000Y-72898000D02*
X233680000Y-81026000D01*
X235204000Y-71374000D02*
X238252000Y-71374000D01*
X238252000Y-82550000D02*
X235204000Y-82550000D01*
X235204000Y-82550000D02*
G75*
G02*
X233680000Y-81026000I0J1524000D01*
G01*
X239776000Y-81026000D02*
G75*
G02*
X238252000Y-82550000I-1524000J0D01*
G01*
X233680000Y-72898000D02*
G75*
G02*
X235204000Y-71374000I1524000J0D01*
G01*
X238252000Y-71374000D02*
G75*
G02*
X239776000Y-72898000I0J-1524000D01*
G01*
X232156000Y-79502000D02*
G75*
G02*
X226060000Y-79502000I-3048000J0D01*
G01*
X226060000Y-74422000D02*
G75*
G02*
X232156000Y-74422000I3048000J0D01*
G01*
%TO.C,J6*%
X210312000Y-74960000D02*
X210312000Y-80040000D01*
X216408000Y-80040000D02*
X216408000Y-74960000D01*
X224028000Y-81564000D02*
X224028000Y-73436000D01*
X217932000Y-73436000D02*
X217932000Y-81564000D01*
X219456000Y-71912000D02*
X222504000Y-71912000D01*
X222504000Y-83088000D02*
X219456000Y-83088000D01*
X219456000Y-83088000D02*
G75*
G02*
X217932000Y-81564000I0J1524000D01*
G01*
X224028000Y-81564000D02*
G75*
G02*
X222504000Y-83088000I-1524000J0D01*
G01*
X217932000Y-73436000D02*
G75*
G02*
X219456000Y-71912000I1524000J0D01*
G01*
X222504000Y-71912000D02*
G75*
G02*
X224028000Y-73436000I0J-1524000D01*
G01*
X216408000Y-80040000D02*
G75*
G02*
X210312000Y-80040000I-3048000J0D01*
G01*
X210312000Y-74960000D02*
G75*
G02*
X216408000Y-74960000I3048000J0D01*
G01*
%TO.C,J5*%
X226568000Y-104902000D02*
X226568000Y-109982000D01*
X232664000Y-109982000D02*
X232664000Y-104902000D01*
X240284000Y-111506000D02*
X240284000Y-103378000D01*
X234188000Y-103378000D02*
X234188000Y-111506000D01*
X235712000Y-101854000D02*
X238760000Y-101854000D01*
X238760000Y-113030000D02*
X235712000Y-113030000D01*
X235712000Y-113030000D02*
G75*
G02*
X234188000Y-111506000I0J1524000D01*
G01*
X240284000Y-111506000D02*
G75*
G02*
X238760000Y-113030000I-1524000J0D01*
G01*
X234188000Y-103378000D02*
G75*
G02*
X235712000Y-101854000I1524000J0D01*
G01*
X238760000Y-101854000D02*
G75*
G02*
X240284000Y-103378000I0J-1524000D01*
G01*
X232664000Y-109982000D02*
G75*
G02*
X226568000Y-109982000I-3048000J0D01*
G01*
X226568000Y-104902000D02*
G75*
G02*
X232664000Y-104902000I3048000J0D01*
G01*
%TO.C,J4*%
X210312000Y-104960000D02*
X210312000Y-110040000D01*
X216408000Y-110040000D02*
X216408000Y-104960000D01*
X224028000Y-111564000D02*
X224028000Y-103436000D01*
X217932000Y-103436000D02*
X217932000Y-111564000D01*
X219456000Y-101912000D02*
X222504000Y-101912000D01*
X222504000Y-113088000D02*
X219456000Y-113088000D01*
X219456000Y-113088000D02*
G75*
G02*
X217932000Y-111564000I0J1524000D01*
G01*
X224028000Y-111564000D02*
G75*
G02*
X222504000Y-113088000I-1524000J0D01*
G01*
X217932000Y-103436000D02*
G75*
G02*
X219456000Y-101912000I1524000J0D01*
G01*
X222504000Y-101912000D02*
G75*
G02*
X224028000Y-103436000I0J-1524000D01*
G01*
X216408000Y-110040000D02*
G75*
G02*
X210312000Y-110040000I-3048000J0D01*
G01*
X210312000Y-104960000D02*
G75*
G02*
X216408000Y-104960000I3048000J0D01*
G01*
%TO.C,J2*%
X224536000Y-132334000D02*
X232918000Y-132334000D01*
X232918000Y-124206000D02*
X224536000Y-124206000D01*
X224536000Y-132334000D02*
G75*
G02*
X224536000Y-124206000I0J4064000D01*
G01*
X232664000Y-124206000D02*
G75*
G02*
X232664000Y-132334000I0J-4064000D01*
G01*
%TO.C,J1*%
X232664000Y-41656000D02*
X224282000Y-41656000D01*
X224282000Y-49784000D02*
X232664000Y-49784000D01*
X232664000Y-41656000D02*
G75*
G02*
X232664000Y-49784000I0J-4064000D01*
G01*
X224536000Y-49784000D02*
G75*
G02*
X224536000Y-41656000I0J4064000D01*
G01*
%TO.C,C2*%
X241914000Y-45415252D02*
X241914000Y-43992748D01*
X243734000Y-45415252D02*
X243734000Y-43992748D01*
%TO.C,Q4*%
D12*
X223864761Y-114537619D02*
X223769523Y-114490000D01*
X223674285Y-114394761D01*
X223531428Y-114251904D01*
X223436190Y-114204285D01*
X223340952Y-114204285D01*
X223388571Y-114442380D02*
X223293333Y-114394761D01*
X223198095Y-114299523D01*
X223150476Y-114109047D01*
X223150476Y-113775714D01*
X223198095Y-113585238D01*
X223293333Y-113490000D01*
X223388571Y-113442380D01*
X223579047Y-113442380D01*
X223674285Y-113490000D01*
X223769523Y-113585238D01*
X223817142Y-113775714D01*
X223817142Y-114109047D01*
X223769523Y-114299523D01*
X223674285Y-114394761D01*
X223579047Y-114442380D01*
X223388571Y-114442380D01*
X224674285Y-113775714D02*
X224674285Y-114442380D01*
X224436190Y-113394761D02*
X224198095Y-114109047D01*
X224817142Y-114109047D01*
%TO.C,Q3*%
X241414761Y-49642619D02*
X241319523Y-49595000D01*
X241224285Y-49499761D01*
X241081428Y-49356904D01*
X240986190Y-49309285D01*
X240890952Y-49309285D01*
X240938571Y-49547380D02*
X240843333Y-49499761D01*
X240748095Y-49404523D01*
X240700476Y-49214047D01*
X240700476Y-48880714D01*
X240748095Y-48690238D01*
X240843333Y-48595000D01*
X240938571Y-48547380D01*
X241129047Y-48547380D01*
X241224285Y-48595000D01*
X241319523Y-48690238D01*
X241367142Y-48880714D01*
X241367142Y-49214047D01*
X241319523Y-49404523D01*
X241224285Y-49499761D01*
X241129047Y-49547380D01*
X240938571Y-49547380D01*
X241700476Y-48547380D02*
X242319523Y-48547380D01*
X241986190Y-48928333D01*
X242129047Y-48928333D01*
X242224285Y-48975952D01*
X242271904Y-49023571D01*
X242319523Y-49118809D01*
X242319523Y-49356904D01*
X242271904Y-49452142D01*
X242224285Y-49499761D01*
X242129047Y-49547380D01*
X241843333Y-49547380D01*
X241748095Y-49499761D01*
X241700476Y-49452142D01*
%TO.C,Q2*%
X179563619Y-116471238D02*
X179516000Y-116566476D01*
X179420761Y-116661714D01*
X179277904Y-116804571D01*
X179230285Y-116899809D01*
X179230285Y-116995047D01*
X179468380Y-116947428D02*
X179420761Y-117042666D01*
X179325523Y-117137904D01*
X179135047Y-117185523D01*
X178801714Y-117185523D01*
X178611238Y-117137904D01*
X178516000Y-117042666D01*
X178468380Y-116947428D01*
X178468380Y-116756952D01*
X178516000Y-116661714D01*
X178611238Y-116566476D01*
X178801714Y-116518857D01*
X179135047Y-116518857D01*
X179325523Y-116566476D01*
X179420761Y-116661714D01*
X179468380Y-116756952D01*
X179468380Y-116947428D01*
X178563619Y-116137904D02*
X178516000Y-116090285D01*
X178468380Y-115995047D01*
X178468380Y-115756952D01*
X178516000Y-115661714D01*
X178563619Y-115614095D01*
X178658857Y-115566476D01*
X178754095Y-115566476D01*
X178896952Y-115614095D01*
X179468380Y-116185523D01*
X179468380Y-115566476D01*
%TO.C,Q1*%
X181087619Y-54670238D02*
X181040000Y-54765476D01*
X180944761Y-54860714D01*
X180801904Y-55003571D01*
X180754285Y-55098809D01*
X180754285Y-55194047D01*
X180992380Y-55146428D02*
X180944761Y-55241666D01*
X180849523Y-55336904D01*
X180659047Y-55384523D01*
X180325714Y-55384523D01*
X180135238Y-55336904D01*
X180040000Y-55241666D01*
X179992380Y-55146428D01*
X179992380Y-54955952D01*
X180040000Y-54860714D01*
X180135238Y-54765476D01*
X180325714Y-54717857D01*
X180659047Y-54717857D01*
X180849523Y-54765476D01*
X180944761Y-54860714D01*
X180992380Y-54955952D01*
X180992380Y-55146428D01*
X180992380Y-53765476D02*
X180992380Y-54336904D01*
X180992380Y-54051190D02*
X179992380Y-54051190D01*
X180135238Y-54146428D01*
X180230476Y-54241666D01*
X180278095Y-54336904D01*
%TO.C,J19*%
X242911380Y-117649523D02*
X243625666Y-117649523D01*
X243768523Y-117697142D01*
X243863761Y-117792380D01*
X243911380Y-117935238D01*
X243911380Y-118030476D01*
X243911380Y-116649523D02*
X243911380Y-117220952D01*
X243911380Y-116935238D02*
X242911380Y-116935238D01*
X243054238Y-117030476D01*
X243149476Y-117125714D01*
X243197095Y-117220952D01*
X243911380Y-116173333D02*
X243911380Y-115982857D01*
X243863761Y-115887619D01*
X243816142Y-115840000D01*
X243673285Y-115744761D01*
X243482809Y-115697142D01*
X243101857Y-115697142D01*
X243006619Y-115744761D01*
X242959000Y-115792380D01*
X242911380Y-115887619D01*
X242911380Y-116078095D01*
X242959000Y-116173333D01*
X243006619Y-116220952D01*
X243101857Y-116268571D01*
X243339952Y-116268571D01*
X243435190Y-116220952D01*
X243482809Y-116173333D01*
X243530428Y-116078095D01*
X243530428Y-115887619D01*
X243482809Y-115792380D01*
X243435190Y-115744761D01*
X243339952Y-115697142D01*
%TO.C,J18*%
X249896380Y-117649523D02*
X250610666Y-117649523D01*
X250753523Y-117697142D01*
X250848761Y-117792380D01*
X250896380Y-117935238D01*
X250896380Y-118030476D01*
X250896380Y-116649523D02*
X250896380Y-117220952D01*
X250896380Y-116935238D02*
X249896380Y-116935238D01*
X250039238Y-117030476D01*
X250134476Y-117125714D01*
X250182095Y-117220952D01*
X250324952Y-116078095D02*
X250277333Y-116173333D01*
X250229714Y-116220952D01*
X250134476Y-116268571D01*
X250086857Y-116268571D01*
X249991619Y-116220952D01*
X249944000Y-116173333D01*
X249896380Y-116078095D01*
X249896380Y-115887619D01*
X249944000Y-115792380D01*
X249991619Y-115744761D01*
X250086857Y-115697142D01*
X250134476Y-115697142D01*
X250229714Y-115744761D01*
X250277333Y-115792380D01*
X250324952Y-115887619D01*
X250324952Y-116078095D01*
X250372571Y-116173333D01*
X250420190Y-116220952D01*
X250515428Y-116268571D01*
X250705904Y-116268571D01*
X250801142Y-116220952D01*
X250848761Y-116173333D01*
X250896380Y-116078095D01*
X250896380Y-115887619D01*
X250848761Y-115792380D01*
X250801142Y-115744761D01*
X250705904Y-115697142D01*
X250515428Y-115697142D01*
X250420190Y-115744761D01*
X250372571Y-115792380D01*
X250324952Y-115887619D01*
%TO.C,J17*%
X249896380Y-111003189D02*
X250610666Y-111003189D01*
X250753523Y-111050808D01*
X250848761Y-111146046D01*
X250896380Y-111288904D01*
X250896380Y-111384142D01*
X250896380Y-110003189D02*
X250896380Y-110574618D01*
X250896380Y-110288904D02*
X249896380Y-110288904D01*
X250039238Y-110384142D01*
X250134476Y-110479380D01*
X250182095Y-110574618D01*
X249896380Y-109669856D02*
X249896380Y-109003189D01*
X250896380Y-109431761D01*
%TO.C,J16*%
X249769380Y-104356856D02*
X250483666Y-104356856D01*
X250626523Y-104404475D01*
X250721761Y-104499713D01*
X250769380Y-104642571D01*
X250769380Y-104737809D01*
X250769380Y-103356856D02*
X250769380Y-103928285D01*
X250769380Y-103642571D02*
X249769380Y-103642571D01*
X249912238Y-103737809D01*
X250007476Y-103833047D01*
X250055095Y-103928285D01*
X249769380Y-102499713D02*
X249769380Y-102690190D01*
X249817000Y-102785428D01*
X249864619Y-102833047D01*
X250007476Y-102928285D01*
X250197952Y-102975904D01*
X250578904Y-102975904D01*
X250674142Y-102928285D01*
X250721761Y-102880666D01*
X250769380Y-102785428D01*
X250769380Y-102594952D01*
X250721761Y-102499713D01*
X250674142Y-102452094D01*
X250578904Y-102404475D01*
X250340809Y-102404475D01*
X250245571Y-102452094D01*
X250197952Y-102499713D01*
X250150333Y-102594952D01*
X250150333Y-102785428D01*
X250197952Y-102880666D01*
X250245571Y-102928285D01*
X250340809Y-102975904D01*
%TO.C,J15*%
X242911380Y-111003189D02*
X243625666Y-111003189D01*
X243768523Y-111050808D01*
X243863761Y-111146046D01*
X243911380Y-111288904D01*
X243911380Y-111384142D01*
X243911380Y-110003189D02*
X243911380Y-110574618D01*
X243911380Y-110288904D02*
X242911380Y-110288904D01*
X243054238Y-110384142D01*
X243149476Y-110479380D01*
X243197095Y-110574618D01*
X242911380Y-109098427D02*
X242911380Y-109574618D01*
X243387571Y-109622237D01*
X243339952Y-109574618D01*
X243292333Y-109479380D01*
X243292333Y-109241285D01*
X243339952Y-109146046D01*
X243387571Y-109098427D01*
X243482809Y-109050808D01*
X243720904Y-109050808D01*
X243816142Y-109098427D01*
X243863761Y-109146046D01*
X243911380Y-109241285D01*
X243911380Y-109479380D01*
X243863761Y-109574618D01*
X243816142Y-109622237D01*
%TO.C,J14*%
X242784380Y-104356856D02*
X243498666Y-104356856D01*
X243641523Y-104404475D01*
X243736761Y-104499713D01*
X243784380Y-104642571D01*
X243784380Y-104737809D01*
X243784380Y-103356856D02*
X243784380Y-103928285D01*
X243784380Y-103642571D02*
X242784380Y-103642571D01*
X242927238Y-103737809D01*
X243022476Y-103833047D01*
X243070095Y-103928285D01*
X243117714Y-102499713D02*
X243784380Y-102499713D01*
X242736761Y-102737809D02*
X243451047Y-102975904D01*
X243451047Y-102356856D01*
%TO.C,J13*%
X249769380Y-97710523D02*
X250483666Y-97710523D01*
X250626523Y-97758142D01*
X250721761Y-97853380D01*
X250769380Y-97996238D01*
X250769380Y-98091476D01*
X250769380Y-96710523D02*
X250769380Y-97281952D01*
X250769380Y-96996238D02*
X249769380Y-96996238D01*
X249912238Y-97091476D01*
X250007476Y-97186714D01*
X250055095Y-97281952D01*
X249769380Y-96377190D02*
X249769380Y-95758142D01*
X250150333Y-96091476D01*
X250150333Y-95948619D01*
X250197952Y-95853380D01*
X250245571Y-95805761D01*
X250340809Y-95758142D01*
X250578904Y-95758142D01*
X250674142Y-95805761D01*
X250721761Y-95853380D01*
X250769380Y-95948619D01*
X250769380Y-96234333D01*
X250721761Y-96329571D01*
X250674142Y-96377190D01*
%TO.C,J12*%
X242657380Y-97837523D02*
X243371666Y-97837523D01*
X243514523Y-97885142D01*
X243609761Y-97980380D01*
X243657380Y-98123238D01*
X243657380Y-98218476D01*
X243657380Y-96837523D02*
X243657380Y-97408952D01*
X243657380Y-97123238D02*
X242657380Y-97123238D01*
X242800238Y-97218476D01*
X242895476Y-97313714D01*
X242943095Y-97408952D01*
X242752619Y-96456571D02*
X242705000Y-96408952D01*
X242657380Y-96313714D01*
X242657380Y-96075619D01*
X242705000Y-95980380D01*
X242752619Y-95932761D01*
X242847857Y-95885142D01*
X242943095Y-95885142D01*
X243085952Y-95932761D01*
X243657380Y-96504190D01*
X243657380Y-95885142D01*
%TO.C,C4*%
X247737333Y-57149142D02*
X247689714Y-57196761D01*
X247546857Y-57244380D01*
X247451619Y-57244380D01*
X247308761Y-57196761D01*
X247213523Y-57101523D01*
X247165904Y-57006285D01*
X247118285Y-56815809D01*
X247118285Y-56672952D01*
X247165904Y-56482476D01*
X247213523Y-56387238D01*
X247308761Y-56292000D01*
X247451619Y-56244380D01*
X247546857Y-56244380D01*
X247689714Y-56292000D01*
X247737333Y-56339619D01*
X248594476Y-56577714D02*
X248594476Y-57244380D01*
X248356380Y-56196761D02*
X248118285Y-56911047D01*
X248737333Y-56911047D01*
%TO.C,C5*%
X247737333Y-68833142D02*
X247689714Y-68880761D01*
X247546857Y-68928380D01*
X247451619Y-68928380D01*
X247308761Y-68880761D01*
X247213523Y-68785523D01*
X247165904Y-68690285D01*
X247118285Y-68499809D01*
X247118285Y-68356952D01*
X247165904Y-68166476D01*
X247213523Y-68071238D01*
X247308761Y-67976000D01*
X247451619Y-67928380D01*
X247546857Y-67928380D01*
X247689714Y-67976000D01*
X247737333Y-68023619D01*
X248642095Y-67928380D02*
X248165904Y-67928380D01*
X248118285Y-68404571D01*
X248165904Y-68356952D01*
X248261142Y-68309333D01*
X248499238Y-68309333D01*
X248594476Y-68356952D01*
X248642095Y-68404571D01*
X248689714Y-68499809D01*
X248689714Y-68737904D01*
X248642095Y-68833142D01*
X248594476Y-68880761D01*
X248499238Y-68928380D01*
X248261142Y-68928380D01*
X248165904Y-68880761D01*
X248118285Y-68833142D01*
%TO.C,C3*%
X247737333Y-80517142D02*
X247689714Y-80564761D01*
X247546857Y-80612380D01*
X247451619Y-80612380D01*
X247308761Y-80564761D01*
X247213523Y-80469523D01*
X247165904Y-80374285D01*
X247118285Y-80183809D01*
X247118285Y-80040952D01*
X247165904Y-79850476D01*
X247213523Y-79755238D01*
X247308761Y-79660000D01*
X247451619Y-79612380D01*
X247546857Y-79612380D01*
X247689714Y-79660000D01*
X247737333Y-79707619D01*
X248070666Y-79612380D02*
X248689714Y-79612380D01*
X248356380Y-79993333D01*
X248499238Y-79993333D01*
X248594476Y-80040952D01*
X248642095Y-80088571D01*
X248689714Y-80183809D01*
X248689714Y-80421904D01*
X248642095Y-80517142D01*
X248594476Y-80564761D01*
X248499238Y-80612380D01*
X248213523Y-80612380D01*
X248118285Y-80564761D01*
X248070666Y-80517142D01*
%TO.C,R2*%
X172553333Y-108068380D02*
X172220000Y-107592190D01*
X171981904Y-108068380D02*
X171981904Y-107068380D01*
X172362857Y-107068380D01*
X172458095Y-107116000D01*
X172505714Y-107163619D01*
X172553333Y-107258857D01*
X172553333Y-107401714D01*
X172505714Y-107496952D01*
X172458095Y-107544571D01*
X172362857Y-107592190D01*
X171981904Y-107592190D01*
X172934285Y-107163619D02*
X172981904Y-107116000D01*
X173077142Y-107068380D01*
X173315238Y-107068380D01*
X173410476Y-107116000D01*
X173458095Y-107163619D01*
X173505714Y-107258857D01*
X173505714Y-107354095D01*
X173458095Y-107496952D01*
X172886666Y-108068380D01*
X173505714Y-108068380D01*
%TO.C,R1*%
X176140380Y-77890666D02*
X175664190Y-78224000D01*
X176140380Y-78462095D02*
X175140380Y-78462095D01*
X175140380Y-78081142D01*
X175188000Y-77985904D01*
X175235619Y-77938285D01*
X175330857Y-77890666D01*
X175473714Y-77890666D01*
X175568952Y-77938285D01*
X175616571Y-77985904D01*
X175664190Y-78081142D01*
X175664190Y-78462095D01*
X176140380Y-76938285D02*
X176140380Y-77509714D01*
X176140380Y-77224000D02*
X175140380Y-77224000D01*
X175283238Y-77319238D01*
X175378476Y-77414476D01*
X175426095Y-77509714D01*
%TO.C,C11*%
X171061142Y-75867142D02*
X171013523Y-75914761D01*
X170870666Y-75962380D01*
X170775428Y-75962380D01*
X170632571Y-75914761D01*
X170537333Y-75819523D01*
X170489714Y-75724285D01*
X170442095Y-75533809D01*
X170442095Y-75390952D01*
X170489714Y-75200476D01*
X170537333Y-75105238D01*
X170632571Y-75010000D01*
X170775428Y-74962380D01*
X170870666Y-74962380D01*
X171013523Y-75010000D01*
X171061142Y-75057619D01*
X172013523Y-75962380D02*
X171442095Y-75962380D01*
X171727809Y-75962380D02*
X171727809Y-74962380D01*
X171632571Y-75105238D01*
X171537333Y-75200476D01*
X171442095Y-75248095D01*
X172965904Y-75962380D02*
X172394476Y-75962380D01*
X172680190Y-75962380D02*
X172680190Y-74962380D01*
X172584952Y-75105238D01*
X172489714Y-75200476D01*
X172394476Y-75248095D01*
%TO.C,C10*%
X171061142Y-84953142D02*
X171013523Y-85000761D01*
X170870666Y-85048380D01*
X170775428Y-85048380D01*
X170632571Y-85000761D01*
X170537333Y-84905523D01*
X170489714Y-84810285D01*
X170442095Y-84619809D01*
X170442095Y-84476952D01*
X170489714Y-84286476D01*
X170537333Y-84191238D01*
X170632571Y-84096000D01*
X170775428Y-84048380D01*
X170870666Y-84048380D01*
X171013523Y-84096000D01*
X171061142Y-84143619D01*
X172013523Y-85048380D02*
X171442095Y-85048380D01*
X171727809Y-85048380D02*
X171727809Y-84048380D01*
X171632571Y-84191238D01*
X171537333Y-84286476D01*
X171442095Y-84334095D01*
X172632571Y-84048380D02*
X172727809Y-84048380D01*
X172823047Y-84096000D01*
X172870666Y-84143619D01*
X172918285Y-84238857D01*
X172965904Y-84429333D01*
X172965904Y-84667428D01*
X172918285Y-84857904D01*
X172870666Y-84953142D01*
X172823047Y-85000761D01*
X172727809Y-85048380D01*
X172632571Y-85048380D01*
X172537333Y-85000761D01*
X172489714Y-84953142D01*
X172442095Y-84857904D01*
X172394476Y-84667428D01*
X172394476Y-84429333D01*
X172442095Y-84238857D01*
X172489714Y-84143619D01*
X172537333Y-84096000D01*
X172632571Y-84048380D01*
%TO.C,C9*%
X171575833Y-79931142D02*
X171528214Y-79978761D01*
X171385357Y-80026380D01*
X171290119Y-80026380D01*
X171147261Y-79978761D01*
X171052023Y-79883523D01*
X171004404Y-79788285D01*
X170956785Y-79597809D01*
X170956785Y-79454952D01*
X171004404Y-79264476D01*
X171052023Y-79169238D01*
X171147261Y-79074000D01*
X171290119Y-79026380D01*
X171385357Y-79026380D01*
X171528214Y-79074000D01*
X171575833Y-79121619D01*
X172052023Y-80026380D02*
X172242500Y-80026380D01*
X172337738Y-79978761D01*
X172385357Y-79931142D01*
X172480595Y-79788285D01*
X172528214Y-79597809D01*
X172528214Y-79216857D01*
X172480595Y-79121619D01*
X172432976Y-79074000D01*
X172337738Y-79026380D01*
X172147261Y-79026380D01*
X172052023Y-79074000D01*
X172004404Y-79121619D01*
X171956785Y-79216857D01*
X171956785Y-79454952D01*
X172004404Y-79550190D01*
X172052023Y-79597809D01*
X172147261Y-79645428D01*
X172337738Y-79645428D01*
X172432976Y-79597809D01*
X172480595Y-79550190D01*
X172528214Y-79454952D01*
%TO.C,C1*%
X171575833Y-71803142D02*
X171528214Y-71850761D01*
X171385357Y-71898380D01*
X171290119Y-71898380D01*
X171147261Y-71850761D01*
X171052023Y-71755523D01*
X171004404Y-71660285D01*
X170956785Y-71469809D01*
X170956785Y-71326952D01*
X171004404Y-71136476D01*
X171052023Y-71041238D01*
X171147261Y-70946000D01*
X171290119Y-70898380D01*
X171385357Y-70898380D01*
X171528214Y-70946000D01*
X171575833Y-70993619D01*
X172528214Y-71898380D02*
X171956785Y-71898380D01*
X172242500Y-71898380D02*
X172242500Y-70898380D01*
X172147261Y-71041238D01*
X172052023Y-71136476D01*
X171956785Y-71184095D01*
%TO.C,J3*%
X184070666Y-67988380D02*
X184070666Y-68702666D01*
X184023047Y-68845523D01*
X183927809Y-68940761D01*
X183784952Y-68988380D01*
X183689714Y-68988380D01*
X184451619Y-67988380D02*
X185070666Y-67988380D01*
X184737333Y-68369333D01*
X184880190Y-68369333D01*
X184975428Y-68416952D01*
X185023047Y-68464571D01*
X185070666Y-68559809D01*
X185070666Y-68797904D01*
X185023047Y-68893142D01*
X184975428Y-68940761D01*
X184880190Y-68988380D01*
X184594476Y-68988380D01*
X184499238Y-68940761D01*
X184451619Y-68893142D01*
%TO.C,H3*%
X251968095Y-42442380D02*
X251968095Y-41442380D01*
X251968095Y-41918571D02*
X252539523Y-41918571D01*
X252539523Y-42442380D02*
X252539523Y-41442380D01*
X252920476Y-41442380D02*
X253539523Y-41442380D01*
X253206190Y-41823333D01*
X253349047Y-41823333D01*
X253444285Y-41870952D01*
X253491904Y-41918571D01*
X253539523Y-42013809D01*
X253539523Y-42251904D01*
X253491904Y-42347142D01*
X253444285Y-42394761D01*
X253349047Y-42442380D01*
X253063333Y-42442380D01*
X252968095Y-42394761D01*
X252920476Y-42347142D01*
%TO.C,H4*%
X165608095Y-42442380D02*
X165608095Y-41442380D01*
X165608095Y-41918571D02*
X166179523Y-41918571D01*
X166179523Y-42442380D02*
X166179523Y-41442380D01*
X167084285Y-41775714D02*
X167084285Y-42442380D01*
X166846190Y-41394761D02*
X166608095Y-42109047D01*
X167227142Y-42109047D01*
%TO.C,H2*%
X165608095Y-122452380D02*
X165608095Y-121452380D01*
X165608095Y-121928571D02*
X166179523Y-121928571D01*
X166179523Y-122452380D02*
X166179523Y-121452380D01*
X166608095Y-121547619D02*
X166655714Y-121500000D01*
X166750952Y-121452380D01*
X166989047Y-121452380D01*
X167084285Y-121500000D01*
X167131904Y-121547619D01*
X167179523Y-121642857D01*
X167179523Y-121738095D01*
X167131904Y-121880952D01*
X166560476Y-122452380D01*
X167179523Y-122452380D01*
%TO.C,H1*%
X255778095Y-123388380D02*
X255778095Y-122388380D01*
X255778095Y-122864571D02*
X256349523Y-122864571D01*
X256349523Y-123388380D02*
X256349523Y-122388380D01*
X257349523Y-123388380D02*
X256778095Y-123388380D01*
X257063809Y-123388380D02*
X257063809Y-122388380D01*
X256968571Y-122531238D01*
X256873333Y-122626476D01*
X256778095Y-122674095D01*
%TO.C,R11*%
X214241142Y-119112380D02*
X213907809Y-118636190D01*
X213669714Y-119112380D02*
X213669714Y-118112380D01*
X214050666Y-118112380D01*
X214145904Y-118160000D01*
X214193523Y-118207619D01*
X214241142Y-118302857D01*
X214241142Y-118445714D01*
X214193523Y-118540952D01*
X214145904Y-118588571D01*
X214050666Y-118636190D01*
X213669714Y-118636190D01*
X215193523Y-119112380D02*
X214622095Y-119112380D01*
X214907809Y-119112380D02*
X214907809Y-118112380D01*
X214812571Y-118255238D01*
X214717333Y-118350476D01*
X214622095Y-118398095D01*
X216145904Y-119112380D02*
X215574476Y-119112380D01*
X215860190Y-119112380D02*
X215860190Y-118112380D01*
X215764952Y-118255238D01*
X215669714Y-118350476D01*
X215574476Y-118398095D01*
%TO.C,R10*%
X231995142Y-53580380D02*
X231661809Y-53104190D01*
X231423714Y-53580380D02*
X231423714Y-52580380D01*
X231804666Y-52580380D01*
X231899904Y-52628000D01*
X231947523Y-52675619D01*
X231995142Y-52770857D01*
X231995142Y-52913714D01*
X231947523Y-53008952D01*
X231899904Y-53056571D01*
X231804666Y-53104190D01*
X231423714Y-53104190D01*
X232947523Y-53580380D02*
X232376095Y-53580380D01*
X232661809Y-53580380D02*
X232661809Y-52580380D01*
X232566571Y-52723238D01*
X232471333Y-52818476D01*
X232376095Y-52866095D01*
X233566571Y-52580380D02*
X233661809Y-52580380D01*
X233757047Y-52628000D01*
X233804666Y-52675619D01*
X233852285Y-52770857D01*
X233899904Y-52961333D01*
X233899904Y-53199428D01*
X233852285Y-53389904D01*
X233804666Y-53485142D01*
X233757047Y-53532761D01*
X233661809Y-53580380D01*
X233566571Y-53580380D01*
X233471333Y-53532761D01*
X233423714Y-53485142D01*
X233376095Y-53389904D01*
X233328476Y-53199428D01*
X233328476Y-52961333D01*
X233376095Y-52770857D01*
X233423714Y-52675619D01*
X233471333Y-52628000D01*
X233566571Y-52580380D01*
%TO.C,R9*%
X211352380Y-129071666D02*
X210876190Y-129405000D01*
X211352380Y-129643095D02*
X210352380Y-129643095D01*
X210352380Y-129262142D01*
X210400000Y-129166904D01*
X210447619Y-129119285D01*
X210542857Y-129071666D01*
X210685714Y-129071666D01*
X210780952Y-129119285D01*
X210828571Y-129166904D01*
X210876190Y-129262142D01*
X210876190Y-129643095D01*
X211352380Y-128595476D02*
X211352380Y-128405000D01*
X211304761Y-128309761D01*
X211257142Y-128262142D01*
X211114285Y-128166904D01*
X210923809Y-128119285D01*
X210542857Y-128119285D01*
X210447619Y-128166904D01*
X210400000Y-128214523D01*
X210352380Y-128309761D01*
X210352380Y-128500238D01*
X210400000Y-128595476D01*
X210447619Y-128643095D01*
X210542857Y-128690714D01*
X210780952Y-128690714D01*
X210876190Y-128643095D01*
X210923809Y-128595476D01*
X210971428Y-128500238D01*
X210971428Y-128309761D01*
X210923809Y-128214523D01*
X210876190Y-128166904D01*
X210780952Y-128119285D01*
%TO.C,R8*%
X176998333Y-122922380D02*
X176665000Y-122446190D01*
X176426904Y-122922380D02*
X176426904Y-121922380D01*
X176807857Y-121922380D01*
X176903095Y-121970000D01*
X176950714Y-122017619D01*
X176998333Y-122112857D01*
X176998333Y-122255714D01*
X176950714Y-122350952D01*
X176903095Y-122398571D01*
X176807857Y-122446190D01*
X176426904Y-122446190D01*
X177569761Y-122350952D02*
X177474523Y-122303333D01*
X177426904Y-122255714D01*
X177379285Y-122160476D01*
X177379285Y-122112857D01*
X177426904Y-122017619D01*
X177474523Y-121970000D01*
X177569761Y-121922380D01*
X177760238Y-121922380D01*
X177855476Y-121970000D01*
X177903095Y-122017619D01*
X177950714Y-122112857D01*
X177950714Y-122160476D01*
X177903095Y-122255714D01*
X177855476Y-122303333D01*
X177760238Y-122350952D01*
X177569761Y-122350952D01*
X177474523Y-122398571D01*
X177426904Y-122446190D01*
X177379285Y-122541428D01*
X177379285Y-122731904D01*
X177426904Y-122827142D01*
X177474523Y-122874761D01*
X177569761Y-122922380D01*
X177760238Y-122922380D01*
X177855476Y-122874761D01*
X177903095Y-122827142D01*
X177950714Y-122731904D01*
X177950714Y-122541428D01*
X177903095Y-122446190D01*
X177855476Y-122398571D01*
X177760238Y-122350952D01*
%TO.C,R7*%
X184745333Y-63148380D02*
X184412000Y-62672190D01*
X184173904Y-63148380D02*
X184173904Y-62148380D01*
X184554857Y-62148380D01*
X184650095Y-62196000D01*
X184697714Y-62243619D01*
X184745333Y-62338857D01*
X184745333Y-62481714D01*
X184697714Y-62576952D01*
X184650095Y-62624571D01*
X184554857Y-62672190D01*
X184173904Y-62672190D01*
X185078666Y-62148380D02*
X185745333Y-62148380D01*
X185316761Y-63148380D01*
%TO.C,L4*%
X198207333Y-67762380D02*
X197731142Y-67762380D01*
X197731142Y-66762380D01*
X198969238Y-67095714D02*
X198969238Y-67762380D01*
X198731142Y-66714761D02*
X198493047Y-67429047D01*
X199112095Y-67429047D01*
%TO.C,L3*%
X198207333Y-85542380D02*
X197731142Y-85542380D01*
X197731142Y-84542380D01*
X198445428Y-84542380D02*
X199064476Y-84542380D01*
X198731142Y-84923333D01*
X198874000Y-84923333D01*
X198969238Y-84970952D01*
X199016857Y-85018571D01*
X199064476Y-85113809D01*
X199064476Y-85351904D01*
X199016857Y-85447142D01*
X198969238Y-85494761D01*
X198874000Y-85542380D01*
X198588285Y-85542380D01*
X198493047Y-85494761D01*
X198445428Y-85447142D01*
%TO.C,L2*%
X198207333Y-103322380D02*
X197731142Y-103322380D01*
X197731142Y-102322380D01*
X198493047Y-102417619D02*
X198540666Y-102370000D01*
X198635904Y-102322380D01*
X198874000Y-102322380D01*
X198969238Y-102370000D01*
X199016857Y-102417619D01*
X199064476Y-102512857D01*
X199064476Y-102608095D01*
X199016857Y-102750952D01*
X198445428Y-103322380D01*
X199064476Y-103322380D01*
%TO.C,L1*%
X198207333Y-49982380D02*
X197731142Y-49982380D01*
X197731142Y-48982380D01*
X199064476Y-49982380D02*
X198493047Y-49982380D01*
X198778761Y-49982380D02*
X198778761Y-48982380D01*
X198683523Y-49125238D01*
X198588285Y-49220476D01*
X198493047Y-49268095D01*
%TO.C,J11*%
X228806476Y-84586380D02*
X228806476Y-85300666D01*
X228758857Y-85443523D01*
X228663619Y-85538761D01*
X228520761Y-85586380D01*
X228425523Y-85586380D01*
X229806476Y-85586380D02*
X229235047Y-85586380D01*
X229520761Y-85586380D02*
X229520761Y-84586380D01*
X229425523Y-84729238D01*
X229330285Y-84824476D01*
X229235047Y-84872095D01*
X230758857Y-85586380D02*
X230187428Y-85586380D01*
X230473142Y-85586380D02*
X230473142Y-84586380D01*
X230377904Y-84729238D01*
X230282666Y-84824476D01*
X230187428Y-84872095D01*
%TO.C,J10*%
X228298476Y-56348380D02*
X228298476Y-57062666D01*
X228250857Y-57205523D01*
X228155619Y-57300761D01*
X228012761Y-57348380D01*
X227917523Y-57348380D01*
X229298476Y-57348380D02*
X228727047Y-57348380D01*
X229012761Y-57348380D02*
X229012761Y-56348380D01*
X228917523Y-56491238D01*
X228822285Y-56586476D01*
X228727047Y-56634095D01*
X229917523Y-56348380D02*
X230012761Y-56348380D01*
X230108000Y-56396000D01*
X230155619Y-56443619D01*
X230203238Y-56538857D01*
X230250857Y-56729333D01*
X230250857Y-56967428D01*
X230203238Y-57157904D01*
X230155619Y-57253142D01*
X230108000Y-57300761D01*
X230012761Y-57348380D01*
X229917523Y-57348380D01*
X229822285Y-57300761D01*
X229774666Y-57253142D01*
X229727047Y-57157904D01*
X229679428Y-56967428D01*
X229679428Y-56729333D01*
X229727047Y-56538857D01*
X229774666Y-56443619D01*
X229822285Y-56396000D01*
X229917523Y-56348380D01*
%TO.C,J9*%
X213026666Y-56576380D02*
X213026666Y-57290666D01*
X212979047Y-57433523D01*
X212883809Y-57528761D01*
X212740952Y-57576380D01*
X212645714Y-57576380D01*
X213550476Y-57576380D02*
X213740952Y-57576380D01*
X213836190Y-57528761D01*
X213883809Y-57481142D01*
X213979047Y-57338285D01*
X214026666Y-57147809D01*
X214026666Y-56766857D01*
X213979047Y-56671619D01*
X213931428Y-56624000D01*
X213836190Y-56576380D01*
X213645714Y-56576380D01*
X213550476Y-56624000D01*
X213502857Y-56671619D01*
X213455238Y-56766857D01*
X213455238Y-57004952D01*
X213502857Y-57100190D01*
X213550476Y-57147809D01*
X213645714Y-57195428D01*
X213836190Y-57195428D01*
X213931428Y-57147809D01*
X213979047Y-57100190D01*
X214026666Y-57004952D01*
%TO.C,J8*%
X213026666Y-84586380D02*
X213026666Y-85300666D01*
X212979047Y-85443523D01*
X212883809Y-85538761D01*
X212740952Y-85586380D01*
X212645714Y-85586380D01*
X213645714Y-85014952D02*
X213550476Y-84967333D01*
X213502857Y-84919714D01*
X213455238Y-84824476D01*
X213455238Y-84776857D01*
X213502857Y-84681619D01*
X213550476Y-84634000D01*
X213645714Y-84586380D01*
X213836190Y-84586380D01*
X213931428Y-84634000D01*
X213979047Y-84681619D01*
X214026666Y-84776857D01*
X214026666Y-84824476D01*
X213979047Y-84919714D01*
X213931428Y-84967333D01*
X213836190Y-85014952D01*
X213645714Y-85014952D01*
X213550476Y-85062571D01*
X213502857Y-85110190D01*
X213455238Y-85205428D01*
X213455238Y-85395904D01*
X213502857Y-85491142D01*
X213550476Y-85538761D01*
X213645714Y-85586380D01*
X213836190Y-85586380D01*
X213931428Y-85538761D01*
X213979047Y-85491142D01*
X214026666Y-85395904D01*
X214026666Y-85205428D01*
X213979047Y-85110190D01*
X213931428Y-85062571D01*
X213836190Y-85014952D01*
%TO.C,J7*%
X225218666Y-70572380D02*
X225218666Y-71286666D01*
X225171047Y-71429523D01*
X225075809Y-71524761D01*
X224932952Y-71572380D01*
X224837714Y-71572380D01*
X225599619Y-70572380D02*
X226266285Y-70572380D01*
X225837714Y-71572380D01*
%TO.C,J6*%
X208962666Y-70572380D02*
X208962666Y-71286666D01*
X208915047Y-71429523D01*
X208819809Y-71524761D01*
X208676952Y-71572380D01*
X208581714Y-71572380D01*
X209867428Y-70572380D02*
X209676952Y-70572380D01*
X209581714Y-70620000D01*
X209534095Y-70667619D01*
X209438857Y-70810476D01*
X209391238Y-71000952D01*
X209391238Y-71381904D01*
X209438857Y-71477142D01*
X209486476Y-71524761D01*
X209581714Y-71572380D01*
X209772190Y-71572380D01*
X209867428Y-71524761D01*
X209915047Y-71477142D01*
X209962666Y-71381904D01*
X209962666Y-71143809D01*
X209915047Y-71048571D01*
X209867428Y-71000952D01*
X209772190Y-70953333D01*
X209581714Y-70953333D01*
X209486476Y-71000952D01*
X209438857Y-71048571D01*
X209391238Y-71143809D01*
%TO.C,J5*%
X229282666Y-99528380D02*
X229282666Y-100242666D01*
X229235047Y-100385523D01*
X229139809Y-100480761D01*
X228996952Y-100528380D01*
X228901714Y-100528380D01*
X230235047Y-99528380D02*
X229758857Y-99528380D01*
X229711238Y-100004571D01*
X229758857Y-99956952D01*
X229854095Y-99909333D01*
X230092190Y-99909333D01*
X230187428Y-99956952D01*
X230235047Y-100004571D01*
X230282666Y-100099809D01*
X230282666Y-100337904D01*
X230235047Y-100433142D01*
X230187428Y-100480761D01*
X230092190Y-100528380D01*
X229854095Y-100528380D01*
X229758857Y-100480761D01*
X229711238Y-100433142D01*
%TO.C,J4*%
X213026666Y-99528380D02*
X213026666Y-100242666D01*
X212979047Y-100385523D01*
X212883809Y-100480761D01*
X212740952Y-100528380D01*
X212645714Y-100528380D01*
X213931428Y-99861714D02*
X213931428Y-100528380D01*
X213693333Y-99480761D02*
X213455238Y-100195047D01*
X214074285Y-100195047D01*
%TO.C,J2*%
X217892380Y-128857333D02*
X218606666Y-128857333D01*
X218749523Y-128904952D01*
X218844761Y-129000190D01*
X218892380Y-129143047D01*
X218892380Y-129238285D01*
X217987619Y-128428761D02*
X217940000Y-128381142D01*
X217892380Y-128285904D01*
X217892380Y-128047809D01*
X217940000Y-127952571D01*
X217987619Y-127904952D01*
X218082857Y-127857333D01*
X218178095Y-127857333D01*
X218320952Y-127904952D01*
X218892380Y-128476380D01*
X218892380Y-127857333D01*
%TO.C,J1*%
X219924380Y-49609333D02*
X220638666Y-49609333D01*
X220781523Y-49656952D01*
X220876761Y-49752190D01*
X220924380Y-49895047D01*
X220924380Y-49990285D01*
X220924380Y-48609333D02*
X220924380Y-49180761D01*
X220924380Y-48895047D02*
X219924380Y-48895047D01*
X220067238Y-48990285D01*
X220162476Y-49085523D01*
X220210095Y-49180761D01*
%TO.C,C2*%
X241331142Y-44870666D02*
X241378761Y-44918285D01*
X241426380Y-45061142D01*
X241426380Y-45156380D01*
X241378761Y-45299238D01*
X241283523Y-45394476D01*
X241188285Y-45442095D01*
X240997809Y-45489714D01*
X240854952Y-45489714D01*
X240664476Y-45442095D01*
X240569238Y-45394476D01*
X240474000Y-45299238D01*
X240426380Y-45156380D01*
X240426380Y-45061142D01*
X240474000Y-44918285D01*
X240521619Y-44870666D01*
X240521619Y-44489714D02*
X240474000Y-44442095D01*
X240426380Y-44346857D01*
X240426380Y-44108761D01*
X240474000Y-44013523D01*
X240521619Y-43965904D01*
X240616857Y-43918285D01*
X240712095Y-43918285D01*
X240854952Y-43965904D01*
X241426380Y-44537333D01*
X241426380Y-43918285D01*
%TD*%
M02*
