%TF.GenerationSoftware,KiCad,Pcbnew,(5.1.10)-1*%
%TF.CreationDate,2021-09-14T12:20:03+02:00*%
%TF.ProjectId,BTS-MainBoard-Power,4254532d-4d61-4696-9e42-6f6172642d50,rev?*%
%TF.SameCoordinates,Original*%
%TF.FileFunction,Paste,Top*%
%TF.FilePolarity,Positive*%
%FSLAX46Y46*%
G04 Gerber Fmt 4.6, Leading zero omitted, Abs format (unit mm)*
G04 Created by KiCad (PCBNEW (5.1.10)-1) date 2021-09-14 12:20:03*
%MOMM*%
%LPD*%
G01*
G04 APERTURE LIST*
%ADD10R,3.050000X2.750000*%
%ADD11R,2.200000X1.200000*%
%ADD12R,2.750000X3.050000*%
%ADD13R,1.200000X2.200000*%
%ADD14R,2.510000X1.000000*%
%ADD15R,4.500000X5.000000*%
%ADD16O,5.000000X10.000000*%
%ADD17O,15.000000X7.000000*%
G04 APERTURE END LIST*
D10*
%TO.C,Q4*%
X224385000Y-120015000D03*
X227735000Y-116965000D03*
X224385000Y-116965000D03*
X227735000Y-120015000D03*
D11*
X219760000Y-120770000D03*
X219760000Y-116210000D03*
%TD*%
D10*
%TO.C,Q3*%
X241935000Y-55120000D03*
X245285000Y-52070000D03*
X241935000Y-52070000D03*
X245285000Y-55120000D03*
D11*
X237310000Y-55875000D03*
X237310000Y-51315000D03*
%TD*%
D12*
%TO.C,Q2*%
X185041000Y-115951000D03*
X181991000Y-112601000D03*
X181991000Y-115951000D03*
X185041000Y-112601000D03*
D13*
X185796000Y-120576000D03*
X181236000Y-120576000D03*
%TD*%
D12*
%TO.C,Q1*%
X186565000Y-54150000D03*
X183515000Y-50800000D03*
X183515000Y-54150000D03*
X186565000Y-50800000D03*
D13*
X187320000Y-58775000D03*
X182760000Y-58775000D03*
%TD*%
D14*
%TO.C,J19*%
X247146000Y-117094000D03*
X243836000Y-114554000D03*
%TD*%
%TO.C,J18*%
X254131000Y-117094000D03*
X250821000Y-114554000D03*
%TD*%
%TO.C,J17*%
X254131000Y-110447666D03*
X250821000Y-107907666D03*
%TD*%
%TO.C,J16*%
X254131000Y-103801333D03*
X250821000Y-101261333D03*
%TD*%
%TO.C,J15*%
X247146000Y-110447666D03*
X243836000Y-107907666D03*
%TD*%
%TO.C,J14*%
X247146000Y-103801333D03*
X243836000Y-101261333D03*
%TD*%
%TO.C,J13*%
X254131000Y-97155000D03*
X250821000Y-94615000D03*
%TD*%
%TO.C,J12*%
X247146000Y-97155000D03*
X243836000Y-94615000D03*
%TD*%
%TO.C,C4*%
G36*
G01*
X249904000Y-63992000D02*
X249904000Y-61992000D01*
G75*
G02*
X250154000Y-61742000I250000J0D01*
G01*
X253654000Y-61742000D01*
G75*
G02*
X253904000Y-61992000I0J-250000D01*
G01*
X253904000Y-63992000D01*
G75*
G02*
X253654000Y-64242000I-250000J0D01*
G01*
X250154000Y-64242000D01*
G75*
G02*
X249904000Y-63992000I0J250000D01*
G01*
G37*
G36*
G01*
X241904000Y-63992000D02*
X241904000Y-61992000D01*
G75*
G02*
X242154000Y-61742000I250000J0D01*
G01*
X245654000Y-61742000D01*
G75*
G02*
X245904000Y-61992000I0J-250000D01*
G01*
X245904000Y-63992000D01*
G75*
G02*
X245654000Y-64242000I-250000J0D01*
G01*
X242154000Y-64242000D01*
G75*
G02*
X241904000Y-63992000I0J250000D01*
G01*
G37*
%TD*%
%TO.C,C5*%
G36*
G01*
X249904000Y-75676000D02*
X249904000Y-73676000D01*
G75*
G02*
X250154000Y-73426000I250000J0D01*
G01*
X253654000Y-73426000D01*
G75*
G02*
X253904000Y-73676000I0J-250000D01*
G01*
X253904000Y-75676000D01*
G75*
G02*
X253654000Y-75926000I-250000J0D01*
G01*
X250154000Y-75926000D01*
G75*
G02*
X249904000Y-75676000I0J250000D01*
G01*
G37*
G36*
G01*
X241904000Y-75676000D02*
X241904000Y-73676000D01*
G75*
G02*
X242154000Y-73426000I250000J0D01*
G01*
X245654000Y-73426000D01*
G75*
G02*
X245904000Y-73676000I0J-250000D01*
G01*
X245904000Y-75676000D01*
G75*
G02*
X245654000Y-75926000I-250000J0D01*
G01*
X242154000Y-75926000D01*
G75*
G02*
X241904000Y-75676000I0J250000D01*
G01*
G37*
%TD*%
%TO.C,C3*%
G36*
G01*
X249904000Y-87360000D02*
X249904000Y-85360000D01*
G75*
G02*
X250154000Y-85110000I250000J0D01*
G01*
X253654000Y-85110000D01*
G75*
G02*
X253904000Y-85360000I0J-250000D01*
G01*
X253904000Y-87360000D01*
G75*
G02*
X253654000Y-87610000I-250000J0D01*
G01*
X250154000Y-87610000D01*
G75*
G02*
X249904000Y-87360000I0J250000D01*
G01*
G37*
G36*
G01*
X241904000Y-87360000D02*
X241904000Y-85360000D01*
G75*
G02*
X242154000Y-85110000I250000J0D01*
G01*
X245654000Y-85110000D01*
G75*
G02*
X245904000Y-85360000I0J-250000D01*
G01*
X245904000Y-87360000D01*
G75*
G02*
X245654000Y-87610000I-250000J0D01*
G01*
X242154000Y-87610000D01*
G75*
G02*
X241904000Y-87360000I0J250000D01*
G01*
G37*
%TD*%
%TO.C,R2*%
G36*
G01*
X175070000Y-111661001D02*
X175070000Y-108810999D01*
G75*
G02*
X175319999Y-108561000I249999J0D01*
G01*
X176220001Y-108561000D01*
G75*
G02*
X176470000Y-108810999I0J-249999D01*
G01*
X176470000Y-111661001D01*
G75*
G02*
X176220001Y-111911000I-249999J0D01*
G01*
X175319999Y-111911000D01*
G75*
G02*
X175070000Y-111661001I0J249999D01*
G01*
G37*
G36*
G01*
X168970000Y-111661001D02*
X168970000Y-108810999D01*
G75*
G02*
X169219999Y-108561000I249999J0D01*
G01*
X170120001Y-108561000D01*
G75*
G02*
X170370000Y-108810999I0J-249999D01*
G01*
X170370000Y-111661001D01*
G75*
G02*
X170120001Y-111911000I-249999J0D01*
G01*
X169219999Y-111911000D01*
G75*
G02*
X168970000Y-111661001I0J249999D01*
G01*
G37*
%TD*%
%TO.C,R1*%
G36*
G01*
X179733001Y-75374000D02*
X176882999Y-75374000D01*
G75*
G02*
X176633000Y-75124001I0J249999D01*
G01*
X176633000Y-74223999D01*
G75*
G02*
X176882999Y-73974000I249999J0D01*
G01*
X179733001Y-73974000D01*
G75*
G02*
X179983000Y-74223999I0J-249999D01*
G01*
X179983000Y-75124001D01*
G75*
G02*
X179733001Y-75374000I-249999J0D01*
G01*
G37*
G36*
G01*
X179733001Y-81474000D02*
X176882999Y-81474000D01*
G75*
G02*
X176633000Y-81224001I0J249999D01*
G01*
X176633000Y-80323999D01*
G75*
G02*
X176882999Y-80074000I249999J0D01*
G01*
X179733001Y-80074000D01*
G75*
G02*
X179983000Y-80323999I0J-249999D01*
G01*
X179983000Y-81224001D01*
G75*
G02*
X179733001Y-81474000I-249999J0D01*
G01*
G37*
%TD*%
%TO.C,C11*%
G36*
G01*
X170804000Y-73009997D02*
X170804000Y-74310003D01*
G75*
G02*
X170554003Y-74560000I-249997J0D01*
G01*
X169728997Y-74560000D01*
G75*
G02*
X169479000Y-74310003I0J249997D01*
G01*
X169479000Y-73009997D01*
G75*
G02*
X169728997Y-72760000I249997J0D01*
G01*
X170554003Y-72760000D01*
G75*
G02*
X170804000Y-73009997I0J-249997D01*
G01*
G37*
G36*
G01*
X173929000Y-73009997D02*
X173929000Y-74310003D01*
G75*
G02*
X173679003Y-74560000I-249997J0D01*
G01*
X172853997Y-74560000D01*
G75*
G02*
X172604000Y-74310003I0J249997D01*
G01*
X172604000Y-73009997D01*
G75*
G02*
X172853997Y-72760000I249997J0D01*
G01*
X173679003Y-72760000D01*
G75*
G02*
X173929000Y-73009997I0J-249997D01*
G01*
G37*
%TD*%
%TO.C,C10*%
G36*
G01*
X170804000Y-81195997D02*
X170804000Y-83396003D01*
G75*
G02*
X170554003Y-83646000I-249997J0D01*
G01*
X169728997Y-83646000D01*
G75*
G02*
X169479000Y-83396003I0J249997D01*
G01*
X169479000Y-81195997D01*
G75*
G02*
X169728997Y-80946000I249997J0D01*
G01*
X170554003Y-80946000D01*
G75*
G02*
X170804000Y-81195997I0J-249997D01*
G01*
G37*
G36*
G01*
X173929000Y-81195997D02*
X173929000Y-83396003D01*
G75*
G02*
X173679003Y-83646000I-249997J0D01*
G01*
X172853997Y-83646000D01*
G75*
G02*
X172604000Y-83396003I0J249997D01*
G01*
X172604000Y-81195997D01*
G75*
G02*
X172853997Y-80946000I249997J0D01*
G01*
X173679003Y-80946000D01*
G75*
G02*
X173929000Y-81195997I0J-249997D01*
G01*
G37*
%TD*%
%TO.C,C9*%
G36*
G01*
X170842500Y-77073997D02*
X170842500Y-78374003D01*
G75*
G02*
X170592503Y-78624000I-249997J0D01*
G01*
X169767497Y-78624000D01*
G75*
G02*
X169517500Y-78374003I0J249997D01*
G01*
X169517500Y-77073997D01*
G75*
G02*
X169767497Y-76824000I249997J0D01*
G01*
X170592503Y-76824000D01*
G75*
G02*
X170842500Y-77073997I0J-249997D01*
G01*
G37*
G36*
G01*
X173967500Y-77073997D02*
X173967500Y-78374003D01*
G75*
G02*
X173717503Y-78624000I-249997J0D01*
G01*
X172892497Y-78624000D01*
G75*
G02*
X172642500Y-78374003I0J249997D01*
G01*
X172642500Y-77073997D01*
G75*
G02*
X172892497Y-76824000I249997J0D01*
G01*
X173717503Y-76824000D01*
G75*
G02*
X173967500Y-77073997I0J-249997D01*
G01*
G37*
%TD*%
%TO.C,C1*%
G36*
G01*
X170842500Y-68945997D02*
X170842500Y-70246003D01*
G75*
G02*
X170592503Y-70496000I-249997J0D01*
G01*
X169767497Y-70496000D01*
G75*
G02*
X169517500Y-70246003I0J249997D01*
G01*
X169517500Y-68945997D01*
G75*
G02*
X169767497Y-68696000I249997J0D01*
G01*
X170592503Y-68696000D01*
G75*
G02*
X170842500Y-68945997I0J-249997D01*
G01*
G37*
G36*
G01*
X173967500Y-68945997D02*
X173967500Y-70246003D01*
G75*
G02*
X173717503Y-70496000I-249997J0D01*
G01*
X172892497Y-70496000D01*
G75*
G02*
X172642500Y-70246003I0J249997D01*
G01*
X172642500Y-68945997D01*
G75*
G02*
X172892497Y-68696000I249997J0D01*
G01*
X173717503Y-68696000D01*
G75*
G02*
X173967500Y-68945997I0J-249997D01*
G01*
G37*
%TD*%
%TO.C,J3*%
X186059000Y-103886000D03*
X186059000Y-98806000D03*
X186059000Y-93726000D03*
X186059000Y-88646000D03*
X186059000Y-83566000D03*
X186059000Y-78486000D03*
X186059000Y-73406000D03*
X182749000Y-101346000D03*
X182749000Y-96266000D03*
X182749000Y-91186000D03*
X182749000Y-86106000D03*
X182749000Y-81026000D03*
X182749000Y-75946000D03*
X182749000Y-70866000D03*
%TD*%
%TO.C,R11*%
G36*
G01*
X213984000Y-116214999D02*
X213984000Y-117465001D01*
G75*
G02*
X213734001Y-117715000I-249999J0D01*
G01*
X212933999Y-117715000D01*
G75*
G02*
X212684000Y-117465001I0J249999D01*
G01*
X212684000Y-116214999D01*
G75*
G02*
X212933999Y-115965000I249999J0D01*
G01*
X213734001Y-115965000D01*
G75*
G02*
X213984000Y-116214999I0J-249999D01*
G01*
G37*
G36*
G01*
X217084000Y-116214999D02*
X217084000Y-117465001D01*
G75*
G02*
X216834001Y-117715000I-249999J0D01*
G01*
X216033999Y-117715000D01*
G75*
G02*
X215784000Y-117465001I0J249999D01*
G01*
X215784000Y-116214999D01*
G75*
G02*
X216033999Y-115965000I249999J0D01*
G01*
X216834001Y-115965000D01*
G75*
G02*
X217084000Y-116214999I0J-249999D01*
G01*
G37*
%TD*%
%TO.C,R10*%
G36*
G01*
X231738000Y-50682999D02*
X231738000Y-51933001D01*
G75*
G02*
X231488001Y-52183000I-249999J0D01*
G01*
X230687999Y-52183000D01*
G75*
G02*
X230438000Y-51933001I0J249999D01*
G01*
X230438000Y-50682999D01*
G75*
G02*
X230687999Y-50433000I249999J0D01*
G01*
X231488001Y-50433000D01*
G75*
G02*
X231738000Y-50682999I0J-249999D01*
G01*
G37*
G36*
G01*
X234838000Y-50682999D02*
X234838000Y-51933001D01*
G75*
G02*
X234588001Y-52183000I-249999J0D01*
G01*
X233787999Y-52183000D01*
G75*
G02*
X233538000Y-51933001I0J249999D01*
G01*
X233538000Y-50682999D01*
G75*
G02*
X233787999Y-50433000I249999J0D01*
G01*
X234588001Y-50433000D01*
G75*
G02*
X234838000Y-50682999I0J-249999D01*
G01*
G37*
%TD*%
%TO.C,R9*%
G36*
G01*
X206854999Y-131255000D02*
X209705001Y-131255000D01*
G75*
G02*
X209955000Y-131504999I0J-249999D01*
G01*
X209955000Y-132405001D01*
G75*
G02*
X209705001Y-132655000I-249999J0D01*
G01*
X206854999Y-132655000D01*
G75*
G02*
X206605000Y-132405001I0J249999D01*
G01*
X206605000Y-131504999D01*
G75*
G02*
X206854999Y-131255000I249999J0D01*
G01*
G37*
G36*
G01*
X206854999Y-125155000D02*
X209705001Y-125155000D01*
G75*
G02*
X209955000Y-125404999I0J-249999D01*
G01*
X209955000Y-126305001D01*
G75*
G02*
X209705001Y-126555000I-249999J0D01*
G01*
X206854999Y-126555000D01*
G75*
G02*
X206605000Y-126305001I0J249999D01*
G01*
X206605000Y-125404999D01*
G75*
G02*
X206854999Y-125155000I249999J0D01*
G01*
G37*
%TD*%
%TO.C,R8*%
G36*
G01*
X176265000Y-120024999D02*
X176265000Y-121275001D01*
G75*
G02*
X176015001Y-121525000I-249999J0D01*
G01*
X175214999Y-121525000D01*
G75*
G02*
X174965000Y-121275001I0J249999D01*
G01*
X174965000Y-120024999D01*
G75*
G02*
X175214999Y-119775000I249999J0D01*
G01*
X176015001Y-119775000D01*
G75*
G02*
X176265000Y-120024999I0J-249999D01*
G01*
G37*
G36*
G01*
X179365000Y-120024999D02*
X179365000Y-121275001D01*
G75*
G02*
X179115001Y-121525000I-249999J0D01*
G01*
X178314999Y-121525000D01*
G75*
G02*
X178065000Y-121275001I0J249999D01*
G01*
X178065000Y-120024999D01*
G75*
G02*
X178314999Y-119775000I249999J0D01*
G01*
X179115001Y-119775000D01*
G75*
G02*
X179365000Y-120024999I0J-249999D01*
G01*
G37*
%TD*%
%TO.C,R7*%
G36*
G01*
X185812000Y-65141001D02*
X185812000Y-63890999D01*
G75*
G02*
X186061999Y-63641000I249999J0D01*
G01*
X186862001Y-63641000D01*
G75*
G02*
X187112000Y-63890999I0J-249999D01*
G01*
X187112000Y-65141001D01*
G75*
G02*
X186862001Y-65391000I-249999J0D01*
G01*
X186061999Y-65391000D01*
G75*
G02*
X185812000Y-65141001I0J249999D01*
G01*
G37*
G36*
G01*
X182712000Y-65141001D02*
X182712000Y-63890999D01*
G75*
G02*
X182961999Y-63641000I249999J0D01*
G01*
X183762001Y-63641000D01*
G75*
G02*
X184012000Y-63890999I0J-249999D01*
G01*
X184012000Y-65141001D01*
G75*
G02*
X183762001Y-65391000I-249999J0D01*
G01*
X182961999Y-65391000D01*
G75*
G02*
X182712000Y-65141001I0J249999D01*
G01*
G37*
%TD*%
D15*
%TO.C,L4*%
X203620000Y-77470000D03*
X192620000Y-77470000D03*
%TD*%
%TO.C,L3*%
X203620000Y-95250000D03*
X192620000Y-95250000D03*
%TD*%
%TO.C,L2*%
X203620000Y-113030000D03*
X192620000Y-113030000D03*
%TD*%
%TO.C,L1*%
X203620000Y-59690000D03*
X192620000Y-59690000D03*
%TD*%
%TO.C,J11*%
G36*
G01*
X234736000Y-96250000D02*
X234736000Y-88750000D01*
G75*
G02*
X235986000Y-87500000I1250000J0D01*
G01*
X238486000Y-87500000D01*
G75*
G02*
X239736000Y-88750000I0J-1250000D01*
G01*
X239736000Y-96250000D01*
G75*
G02*
X238486000Y-97500000I-1250000J0D01*
G01*
X235986000Y-97500000D01*
G75*
G02*
X234736000Y-96250000I0J1250000D01*
G01*
G37*
D16*
X229616000Y-92500000D03*
%TD*%
%TO.C,J10*%
G36*
G01*
X234228000Y-68012000D02*
X234228000Y-60512000D01*
G75*
G02*
X235478000Y-59262000I1250000J0D01*
G01*
X237978000Y-59262000D01*
G75*
G02*
X239228000Y-60512000I0J-1250000D01*
G01*
X239228000Y-68012000D01*
G75*
G02*
X237978000Y-69262000I-1250000J0D01*
G01*
X235478000Y-69262000D01*
G75*
G02*
X234228000Y-68012000I0J1250000D01*
G01*
G37*
X229108000Y-64262000D03*
%TD*%
%TO.C,J9*%
G36*
G01*
X218480000Y-68240000D02*
X218480000Y-60740000D01*
G75*
G02*
X219730000Y-59490000I1250000J0D01*
G01*
X222230000Y-59490000D01*
G75*
G02*
X223480000Y-60740000I0J-1250000D01*
G01*
X223480000Y-68240000D01*
G75*
G02*
X222230000Y-69490000I-1250000J0D01*
G01*
X219730000Y-69490000D01*
G75*
G02*
X218480000Y-68240000I0J1250000D01*
G01*
G37*
X213360000Y-64490000D03*
%TD*%
%TO.C,J8*%
G36*
G01*
X218480000Y-96250000D02*
X218480000Y-88750000D01*
G75*
G02*
X219730000Y-87500000I1250000J0D01*
G01*
X222230000Y-87500000D01*
G75*
G02*
X223480000Y-88750000I0J-1250000D01*
G01*
X223480000Y-96250000D01*
G75*
G02*
X222230000Y-97500000I-1250000J0D01*
G01*
X219730000Y-97500000D01*
G75*
G02*
X218480000Y-96250000I0J1250000D01*
G01*
G37*
X213360000Y-92500000D03*
%TD*%
%TO.C,J7*%
G36*
G01*
X234228000Y-80712000D02*
X234228000Y-73212000D01*
G75*
G02*
X235478000Y-71962000I1250000J0D01*
G01*
X237978000Y-71962000D01*
G75*
G02*
X239228000Y-73212000I0J-1250000D01*
G01*
X239228000Y-80712000D01*
G75*
G02*
X237978000Y-81962000I-1250000J0D01*
G01*
X235478000Y-81962000D01*
G75*
G02*
X234228000Y-80712000I0J1250000D01*
G01*
G37*
X229108000Y-76962000D03*
%TD*%
%TO.C,J6*%
G36*
G01*
X218480000Y-81250000D02*
X218480000Y-73750000D01*
G75*
G02*
X219730000Y-72500000I1250000J0D01*
G01*
X222230000Y-72500000D01*
G75*
G02*
X223480000Y-73750000I0J-1250000D01*
G01*
X223480000Y-81250000D01*
G75*
G02*
X222230000Y-82500000I-1250000J0D01*
G01*
X219730000Y-82500000D01*
G75*
G02*
X218480000Y-81250000I0J1250000D01*
G01*
G37*
X213360000Y-77500000D03*
%TD*%
%TO.C,J5*%
G36*
G01*
X234736000Y-111192000D02*
X234736000Y-103692000D01*
G75*
G02*
X235986000Y-102442000I1250000J0D01*
G01*
X238486000Y-102442000D01*
G75*
G02*
X239736000Y-103692000I0J-1250000D01*
G01*
X239736000Y-111192000D01*
G75*
G02*
X238486000Y-112442000I-1250000J0D01*
G01*
X235986000Y-112442000D01*
G75*
G02*
X234736000Y-111192000I0J1250000D01*
G01*
G37*
X229616000Y-107442000D03*
%TD*%
%TO.C,J4*%
G36*
G01*
X218480000Y-111250000D02*
X218480000Y-103750000D01*
G75*
G02*
X219730000Y-102500000I1250000J0D01*
G01*
X222230000Y-102500000D01*
G75*
G02*
X223480000Y-103750000I0J-1250000D01*
G01*
X223480000Y-111250000D01*
G75*
G02*
X222230000Y-112500000I-1250000J0D01*
G01*
X219730000Y-112500000D01*
G75*
G02*
X218480000Y-111250000I0J1250000D01*
G01*
G37*
X213360000Y-107500000D03*
%TD*%
D17*
%TO.C,J2*%
X228600000Y-128270000D03*
%TD*%
%TO.C,J1*%
X228600000Y-45720000D03*
%TD*%
%TO.C,C2*%
G36*
G01*
X243474003Y-43804000D02*
X242173997Y-43804000D01*
G75*
G02*
X241924000Y-43554003I0J249997D01*
G01*
X241924000Y-42728997D01*
G75*
G02*
X242173997Y-42479000I249997J0D01*
G01*
X243474003Y-42479000D01*
G75*
G02*
X243724000Y-42728997I0J-249997D01*
G01*
X243724000Y-43554003D01*
G75*
G02*
X243474003Y-43804000I-249997J0D01*
G01*
G37*
G36*
G01*
X243474003Y-46929000D02*
X242173997Y-46929000D01*
G75*
G02*
X241924000Y-46679003I0J249997D01*
G01*
X241924000Y-45853997D01*
G75*
G02*
X242173997Y-45604000I249997J0D01*
G01*
X243474003Y-45604000D01*
G75*
G02*
X243724000Y-45853997I0J-249997D01*
G01*
X243724000Y-46679003D01*
G75*
G02*
X243474003Y-46929000I-249997J0D01*
G01*
G37*
%TD*%
M02*
